<svg xmlns="http://www.w3.org/2000/svg" width="264" height="135"><path fill="#ffd836" id="path871" d="M 198.2,37.6 161.1,0 124.2,37.6 h 11.3 l 0.1,47.9 h 51.3 V 37.6 Z"/><path fill="#202225" id="path873" d="M 42.2,64.7 H 120 l 17,32.8 -69,-4 z"/><path fill="#ff9a15" id="path875" d="m 84.182,23.627 -6.928,4 21,36.372 6.928,-4 z"/><path fill="#ffffff" id="path877" d="m 119.657,55.072 -32.908,19 34,58.888 32.908,-19 z"/><path fill="#d4e4ff" id="path879" d="m 93.668,70.076 -6.928,4 34,58.888 6.928,-4 z"/><path fill="#ffd836" id="path885" d="m 109.7,79.8 a 4,4 0 1 0 0,-8 4,4 0 0 0 0,8 z"/><path fill="#ff73fa" id="path887" d="m 165.5,116.7 -21.8,-3.1 c -15,-2.1 -25.5,-16.2 -23.4,-31.1 2.1,-15 16.2,-25.5 31.1,-23.4 l 21.8,3.1 c 15,2.1 25.5,16.2 23.4,31.1 -2.1,15 -16.1,25.5 -31.1,23.4 z"/><path fill="#83ddc5" id="path889" d="m 161.8,64 c -7.2,4.9 -18.4,-2.6 -16.6,-11.1 7.2,-5 18.4,2.5 16.6,11.1 z"/><path fill="#83ddc5" id="path891" d="m 161.1,63.9 c 5.5,6.8 18.4,2.7 19.1,-6.1 -5.6,-6.7 -18.5,-2.6 -19.1,6.1 z"/><path fill="#ffffff" id="path893" d="m 164.1,74.4 c -1.3,-0.2 -2.5,0.5 -3,1.7 l -1.3,3.5 -0.3,-3.7 c -0.1,-1.3 -1.1,-2.3 -2.4,-2.5 l -9.2,-1.3 c -1.4,-0.2 -2.8,0.7 -3.1,2.1 L 139.7,98 c -0.3,1.6 0.7,3.1 2.3,3.3 l 6.1,0.9 2.6,0.4 1.5,0.2 6.9,1 2.2,0.3 1.9,0.3 7.3,1 c 1.6,0.2 3,-0.9 3.1,-2.5 l 1.7,-24.3 c 0.1,-1.4 -0.9,-2.7 -2.4,-2.9 z"/><path fill="#202225" id="path895" d="m 163.8,99.9 c 0.2,-2.1 -2.8,-2.8 -3.5,-0.8 l -0.2,0.6 c -0.3,0.8 -1.1,1.3 -2,1.2 l -4,-0.6 c -0.8,-0.1 -1.5,-0.8 -1.6,-1.7 V 98 c -0.2,-2.1 -3.2,-2.3 -3.6,-0.2 -0.2,0.9 -1.1,1.6 -2,1.4 l -2.5,-0.4 c -1,-0.1 -1.8,-1.2 -1.5,-2.2 l 4.4,-20.2 c 0.2,-0.9 1.1,-1.6 2,-1.4 l 6.1,0.9 c 0.8,0.1 1.5,0.8 1.6,1.7 l 0.5,6.3 c 0.2,1.9 2.8,2.3 3.5,0.5 l 2.3,-5.9 c 0.3,-0.8 1.1,-1.3 2,-1.2 l 5.9,0.8 c 0.9,0.1 1.6,1 1.6,1.9 l -1.5,20.6 c -0.1,1.1 -1,1.8 -2.1,1.7 l -3.7,-0.5 c -1.1,-0.1 -1.8,-0.9 -1.7,-1.9 z"/><path fill="#ffffff" id="path909" d="m 210.5,52.6 c -0.6,0 -1,-0.4 -1,-1 v -1 c 0,-0.6 0.4,-1 1,-1 0.6,0 1,0.4 1,1 v 1 c 0,0.6 -0.4,1 -1,1 z m 0,8 c -0.6,0 -1,-0.4 -1,-1 v -1 c 0,-0.6 0.4,-1 1,-1 0.6,0 1,0.4 1,1 v 1 c 0,0.6 -0.4,1 -1,1 z m 2.5,-5.5 c 0,-0.6 0.4,-1 1,-1 h 1 c 0.6,0 1,0.4 1,1 0,0.6 -0.4,1 -1,1 h -1 c -0.6,0 -1,-0.4 -1,-1 z m -8,0 c 0,-0.6 0.4,-1 1,-1 h 1 c 0.6,0 1,0.4 1,1 0,0.6 -0.4,1 -1,1 h -1 c -0.6,0 -1,-0.4 -1,-1 z"/><defs id="defs918"><clipPath id="clip0"><path fill="#fff" d="M0 0h264v134.5H0z" id="path915"/></clipPath></defs><path fill="#ffffff" d="M 86.140625 19.017578 L 72.283203 27.017578 L 75.283203 32.212891 L 89.140625 24.212891 L 86.140625 19.017578 z M 27.5 43.599609 C 26.9 43.599609 26.5 43.999609 26.5 44.599609 L 26.5 45.599609 C 26.5 46.199609 26.9 46.599609 27.5 46.599609 C 28.1 46.599609 28.5 46.199609 28.5 45.599609 L 28.5 44.599609 C 28.5 43.999609 28.1 43.599609 27.5 43.599609 z M 118.97461 43.890625 L 105.11914 51.890625 L 102.13281 46.71875 L 88.277344 54.71875 L 91.263672 59.890625 L 77.40625 67.890625 L 82.40625 76.550781 L 123.97461 52.550781 L 118.97461 43.890625 z M 23 48.099609 C 22.4 48.099609 22 48.499609 22 49.099609 C 22 49.699609 22.4 50.099609 23 50.099609 L 24 50.099609 C 24.6 50.099609 25 49.699609 25 49.099609 C 25 48.499609 24.6 48.099609 24 48.099609 L 23 48.099609 z M 31 48.099609 C 30.4 48.099609 30 48.499609 30 49.099609 C 30 49.699609 30.4 50.099609 31 50.099609 L 32 50.099609 C 32.6 50.099609 33 49.699609 33 49.099609 C 33 48.499609 32.6 48.099609 32 48.099609 L 31 48.099609 z M 27.5 51.599609 C 26.9 51.599609 26.5 51.999609 26.5 52.599609 L 26.5 53.599609 C 26.5 54.199609 26.9 54.599609 27.5 54.599609 C 28.1 54.599609 28.5 54.199609 28.5 53.599609 L 28.5 52.599609 C 28.5 51.999609 28.1 51.599609 27.5 51.599609 z M 42.199219 64.699219 L 28.099609 78.900391 C 22.599609 84.400391 22.599609 93.199219 28.099609 98.699219 C 30.646154 101.24576 33.900705 102.59675 37.207031 102.78516 L 37.199219 102.80078 L 37.513672 102.80078 C 37.837927 102.8121 38.162073 102.8121 38.486328 102.80078 L 62 102.80078 L 62 134.42969 L 86 134.42969 L 86 134.5 L 208 134.5 L 208 84.5 L 86 84.5 L 86 84.429688 L 62 84.429688 L 62 84.5 L 42.199219 64.699219 z M 235.875 84.925781 C 235.42618 84.985521 235.07109 85.464063 235.30078 86 L 236.59961 88.599609 C 236.69961 88.799609 236.69961 88.999219 236.59961 89.199219 L 235.30078 91.800781 C 235.00078 92.400781 235.60078 93.100781 236.30078 92.800781 L 238.90039 91.5 C 239.10039 91.4 239.3 91.4 239.5 91.5 L 242.09961 92.800781 C 242.69961 93.100781 243.39961 92.500781 243.09961 91.800781 L 241.80078 89.199219 C 241.70078 88.999219 241.70078 88.799609 241.80078 88.599609 L 243.09961 86 C 243.39961 85.4 242.79961 84.7 242.09961 85 L 239.5 86.300781 C 239.3 86.400781 239.10039 86.400781 238.90039 86.300781 L 236.30078 85 C 236.22578 84.9625 236.14824 84.938672 236.07227 84.927734 C 236.00579 84.918164 235.93912 84.917247 235.875 84.925781 z" id="path881"/></svg>