<svg xmlns="http://www.w3.org/2000/svg" width="264" height="135"><path fill="black" opacity="0.2" d="M 124.19922 18.5 C 110.69922 18.5 99.699219 29.5 99.699219 43 C 99.699219 44.850366 99.184034 46.583114 98.296875 48.072266 L 98.669922 48.71875 L 102.13281 46.71875 L 105.11914 51.890625 L 118.97461 43.890625 L 123.97461 52.550781 L 102.93359 64.699219 L 102.98242 64.699219 L 119.65625 55.072266 L 127.11523 67.990234 C 129.49824 65.358525 132.36296 63.19123 135.55078 61.632812 L 135.5 37.599609 L 124.19922 37.599609 L 142.94336 18.5 L 124.19922 18.5 z M 179.35352 18.5 L 198.19922 37.599609 L 186.90039 37.599609 L 186.90039 68.298828 C 191.79852 72.398617 195.20857 78.140473 196.39844 84.5 L 208 84.5 L 208 134.5 L 264 134.5 C 264 121.5 253.5 111 240.5 111 C 230 111 221.5 102.5 221.5 92 L 221.5 45.5 C 221.5 30.6 209.4 18.5 194.5 18.5 L 179.35352 18.5 z M 210.5 49.599609 C 211.1 49.599609 211.5 49.999609 211.5 50.599609 L 211.5 51.599609 C 211.5 52.199609 211.1 52.599609 210.5 52.599609 C 209.9 52.599609 209.5 52.199609 209.5 51.599609 L 209.5 50.599609 C 209.5 49.999609 209.9 49.599609 210.5 49.599609 z M 91.568359 52.818359 C 90.962132 52.93424 90.337896 53 89.699219 53 L 81.900391 53 C 74.000391 53 66.299219 56.100781 60.699219 61.800781 L 57.800781 64.699219 L 82.933594 64.699219 L 91.263672 59.890625 L 88.277344 54.71875 L 91.568359 52.818359 z M 206 54.099609 L 207 54.099609 C 207.6 54.099609 208 54.499609 208 55.099609 C 208 55.699609 207.6 56.099609 207 56.099609 L 206 56.099609 C 205.4 56.099609 205 55.699609 205 55.099609 C 205 54.499609 205.4 54.099609 206 54.099609 z M 214 54.099609 L 215 54.099609 C 215.6 54.099609 216 54.499609 216 55.099609 C 216 55.699609 215.6 56.099609 215 56.099609 L 214 56.099609 C 213.4 56.099609 213 55.699609 213 55.099609 C 213 54.499609 213.4 54.099609 214 54.099609 z M 210.5 57.599609 C 211.1 57.599609 211.5 57.999609 211.5 58.599609 L 211.5 59.599609 C 211.5 60.199609 211.1 60.599609 210.5 60.599609 C 209.9 60.599609 209.5 60.199609 209.5 59.599609 L 209.5 58.599609 C 209.5 57.999609 209.9 57.599609 210.5 57.599609 z M 20.5 88.5 C 9.2 88.5 0 97.7 0 109 L 0 134.5 L 83 134.5 L 86 134.5 L 86 134.42969 L 62 134.42969 L 62 102.80078 L 38.486328 102.80078 C 38.162055 102.8121 37.837945 102.8121 37.513672 102.80078 L 37.199219 102.80078 L 37.207031 102.78516 C 33.900525 102.59675 30.646154 101.24576 28.099609 98.699219 C 25.272451 95.87206 23.908958 92.174638 23.988281 88.5 L 20.5 88.5 z"/><path fill="black" opacity="0.4" d="M 42.199219 64.699219 L 28.099609 78.900391 C 22.599609 84.400391 22.599609 93.199219 28.099609 98.699219 C 33.599609 104.19922 42.400391 104.19922 47.900391 98.699219 L 62 84.5 L 42.199219 64.699219 z M 93.667969 70.076172 L 86.740234 74.076172 L 92.757812 84.5 L 86 84.5 L 86 134.5 L 108 134.5 L 108 100.5 L 151 100.5 L 151 134.5 L 163 134.5 L 163 100.5 L 196 100.5 L 196 134.5 L 208 134.5 L 208 84.5 L 101.99609 84.5 L 93.667969 70.076172 z"/><path fill="black" opacity="0.8" d="M 118.97461 43.890625 L 77.40625 67.890625 L 82.40625 76.550781 L 123.97461 52.550781 L 118.97461 43.890625 z M 62 84.5 L 47.900391 98.699219 C 45.275163 101.32445 41.897688 102.68167 38.486328 102.80078 L 62 102.80078 L 62 84.5 z M 108 100.5 L 108 134.5 L 151 134.5 L 151 100.5 L 108 100.5 z M 163 100.5 L 163 134.5 L 196 134.5 L 196 100.5 L 163 100.5 z M 37.207031 102.78516 L 37.199219 102.80078 L 37.513672 102.80078 C 37.411428 102.79721 37.309195 102.79098 37.207031 102.78516 z"/><path style="fill:#000000" d="M 86.140625 19.017578 L 72.283203 27.017578 L 75.283203 32.212891 L 89.140625 24.212891 L 86.140625 19.017578 z M 102.13281 46.71875 L 88.277344 54.71875 L 91.277344 59.914062 L 105.13281 51.914062 L 102.13281 46.71875 z M 236.07227 84.927734 C 235.54043 84.851172 235.03828 85.3875 235.30078 86 L 236.59961 88.599609 C 236.69961 88.799609 236.69961 88.999219 236.59961 89.199219 L 235.30078 91.800781 C 235.00078 92.400781 235.60078 93.100781 236.30078 92.800781 L 238.90039 91.5 C 239.10039 91.4 239.3 91.4 239.5 91.5 L 242.09961 92.800781 C 242.69961 93.100781 243.39961 92.500781 243.09961 91.800781 L 241.80078 89.199219 C 241.70078 88.999219 241.70078 88.799609 241.80078 88.599609 L 243.09961 86 C 243.39961 85.4 242.79961 84.7 242.09961 85 L 239.5 86.300781 C 239.3 86.400781 239.10039 86.400781 238.90039 86.300781 L 236.30078 85 C 236.22578 84.9625 236.14824 84.938672 236.07227 84.927734 z"/><path fill="black" opacity="0.6" d="M 27.5 43.599609 C 26.9 43.599609 26.5 43.999609 26.5 44.599609 L 26.5 45.599609 C 26.5 46.199609 26.9 46.599609 27.5 46.599609 C 28.1 46.599609 28.5 46.199609 28.5 45.599609 L 28.5 44.599609 C 28.5 43.999609 28.1 43.599609 27.5 43.599609 z M 23 48.099609 C 22.4 48.099609 22 48.499609 22 49.099609 C 22 49.699609 22.4 50.099609 23 50.099609 L 24 50.099609 C 24.6 50.099609 25 49.699609 25 49.099609 C 25 48.499609 24.6 48.099609 24 48.099609 L 23 48.099609 z M 31 48.099609 C 30.4 48.099609 30 48.499609 30 49.099609 C 30 49.699609 30.4 50.099609 31 50.099609 L 32 50.099609 C 32.6 50.099609 33 49.699609 33 49.099609 C 33 48.499609 32.6 48.099609 32 48.099609 L 31 48.099609 z M 27.5 51.599609 C 26.9 51.599609 26.5 51.999609 26.5 52.599609 L 26.5 53.599609 C 26.5 54.199609 26.9 54.599609 27.5 54.599609 C 28.1 54.599609 28.5 54.199609 28.5 53.599609 L 28.5 52.599609 C 28.5 51.999609 28.1 51.599609 27.5 51.599609 z M 62 84.429688 L 62 134.42969 L 86 134.42969 L 86 84.429688 L 62 84.429688 z"/></svg>