<svg xmlns="http://www.w3.org/2000/svg" width="154" height="86" viewBox="0 0 154 86"><path fill="black" d="M 24.447266 45.736328 L 24.447266 86 L 109.10547 86 L 109.10547 45.736328 L 24.447266 45.736328 z M 33.738281 50.380859 L 99.8125 50.380859 C 100.9484 50.380859 101.87891 51.311666 101.87891 52.447266 L 101.87891 61.945312 L 31.673828 61.945312 L 31.673828 52.447266 C 31.673828 51.311666 32.602581 50.380859 33.738281 50.380859 z M 31.673828 62.976562 L 101.87891 62.976562 L 101.87891 79.289062 C 101.87891 80.424662 100.9484 81.353516 99.8125 81.353516 L 33.738281 81.353516 C 32.602581 81.353516 31.673828 80.424662 31.673828 79.289062 L 31.673828 62.976562 z"/><path opacity="0.6" fill="black" d="M 24.447266 26.119141 L 24.447266 45.736328 L 109.10547 45.736328 L 109.10547 26.119141 L 24.447266 26.119141 z M 88.869141 31.695312 L 93.619141 36.443359 L 98.470703 31.695312 L 100.8457 34.070312 L 93.619141 41.296875 L 86.392578 34.070312 L 88.869141 31.695312 z M 33.738281 50.380859 C 32.602581 50.380859 31.673828 51.311666 31.673828 52.447266 L 31.673828 61.945312 L 101.87891 61.945312 L 101.87891 52.447266 C 101.87891 51.311666 100.9484 50.380859 99.8125 50.380859 L 33.738281 50.380859 z M 38.384766 53.478516 C 39.810266 53.478516 40.964844 54.635147 40.964844 56.060547 C 40.964844 57.486047 39.810266 58.640625 38.384766 58.640625 C 36.959266 58.640625 35.802734 57.486047 35.802734 56.060547 C 35.802734 54.635147 36.959266 53.478516 38.384766 53.478516 z M 44.0625 54.511719 L 85.359375 54.511719 L 85.359375 57.609375 L 44.0625 57.609375 L 44.0625 54.511719 z M 31.673828 62.976562 L 31.673828 79.289062 C 31.673828 80.424662 32.602581 81.353516 33.738281 81.353516 L 99.8125 81.353516 C 100.9484 81.353516 101.87891 80.424662 101.87891 79.289062 L 101.87891 62.976562 L 31.673828 62.976562 z M 38.384766 65.867188 C 39.810266 65.867187 40.964844 67.023719 40.964844 68.449219 C 40.964844 69.874619 39.810266 71.029297 38.384766 71.029297 C 36.959266 71.029297 35.802734 69.874619 35.802734 68.449219 C 35.802734 67.023719 36.959266 65.867188 38.384766 65.867188 z M 44.0625 66.900391 L 96.714844 66.900391 L 96.714844 69.998047 L 44.0625 69.998047 L 44.0625 66.900391 z M 38.384766 73.095703 C 39.810266 73.095703 40.964844 74.250281 40.964844 75.675781 C 40.964844 77.101181 39.810266 78.257812 38.384766 78.257812 C 36.959266 78.257812 35.802734 77.101181 35.802734 75.675781 C 35.802734 74.250281 36.959266 73.095703 38.384766 73.095703 z M 44.0625 74.126953 L 75.035156 74.126953 L 75.035156 77.224609 L 44.0625 77.224609 L 44.0625 74.126953 z"/><path opacity="0.2" fill="black" d="M 38.384766 53.478516 C 36.959266 53.478516 35.802734 54.635147 35.802734 56.060547 C 35.802734 57.486047 36.959266 58.640625 38.384766 58.640625 C 39.810266 58.640625 40.964844 57.486047 40.964844 56.060547 C 40.964844 54.635147 39.810266 53.478516 38.384766 53.478516 z M 44.0625 54.511719 L 44.0625 57.609375 L 85.359375 57.609375 L 85.359375 54.511719 L 44.0625 54.511719 z M 38.384766 65.867188 C 36.959266 65.867188 35.802734 67.023719 35.802734 68.449219 C 35.802734 69.874619 36.959266 71.029297 38.384766 71.029297 C 39.810266 71.029297 40.964844 69.874619 40.964844 68.449219 C 40.964844 67.023719 39.810266 65.867187 38.384766 65.867188 z M 44.0625 66.900391 L 44.0625 69.998047 L 96.714844 69.998047 L 96.714844 66.900391 L 44.0625 66.900391 z M 38.384766 73.095703 C 36.959266 73.095703 35.802734 74.250281 35.802734 75.675781 C 35.802734 77.101181 36.959266 78.257812 38.384766 78.257812 C 39.810266 78.257812 40.964844 77.101181 40.964844 75.675781 C 40.964844 74.250281 39.810266 73.095703 38.384766 73.095703 z M 44.0625 74.126953 L 44.0625 77.224609 L 75.035156 77.224609 L 75.035156 74.126953 L 44.0625 74.126953 z"/><path opacity="0.5" fill="black" d="m 61.408203,18.789062 c -5.690417,0 -10.731009,2.918164 -13.705078,7.330079 h 49.332031 l -0.0098,-6.708985 h -5.16211 l 0.587891,-0.621094 z m 62.150387,1.070313 V 58.125 l 6.19532,-6.195312 4.54297,4.542968 V 35.308594 c 0,-7.050983 -4.48611,-13.090496 -10.73829,-15.449219 z M 24.447266,55.986328 C 17.946047,56.283967 11.797201,59.124845 7.3085935,63.90625 2.9724634,68.55205 0.597656,74.643706 0.597656,80.941406 V 86 86.103516 H 153.60156 V 73.714844 c 0,-5.6783 -4.6457,-10.220703 -10.2207,-10.220703 h -4.33594 V 76.708984 L 129.75391,86 123.55859,79.806641 V 86 H 109.10547 24.447266 Z m 105.306644,2.550781 -4.64649,4.646485 v 11.666015 l 4.64649,4.646485 4.64453,-4.646485 V 63.183594 Z m 0,2.167969 3.0957,3.097656 v 10.427735 l -3.0957,3.097656 -3.09766,-3.097656 V 63.802734 Z M 11.722656,67.03125 c 0.0662,-0.0088 0.134495,-0.0079 0.203125,0.002 0.07843,0.01129 0.158903,0.03551 0.236328,0.07422 l 2.683594,1.341797 c 0.2065,0.1033 0.412741,0.1033 0.619141,0 l 2.683594,-1.341797 c 0.722699,-0.3097 1.343003,0.41175 1.033203,1.03125 l -1.341797,2.685547 c -0.1032,0.2064 -0.1032,0.41264 0,0.61914 l 1.341797,2.683594 c 0.3098,0.7227 -0.413704,1.342903 -1.033203,1.033203 l -2.683594,-1.341797 c -0.2064,-0.1033 -0.412641,-0.1033 -0.619141,0 l -2.683594,1.341797 c -0.7227,0.3097 -1.342903,-0.413803 -1.033203,-1.033203 l 1.341797,-2.683594 c 0.1032,-0.2065 0.1032,-0.51594 0,-0.61914 L 11.128906,68.13872 c -0.237113,-0.553318 0.130334,-1.046041 0.59375,-1.107422 z"/></svg>