<svg xmlns="http://www.w3.org/2000/svg" width="168" height="102" viewBox="0 0 168 102" transform="scale(1.05) translate(0 2.5)"><path fill="#FFFFFF" d="M 80.608254,7.43164 C 80.347859,7.41033 80.166848,7.586419 80.166848,7.896484 v 4.886719 l 0.0293,0.01563 c 9.79e-4,3.04395 2.3247,6.782808 5.158203,8.304688 2.832844,1.521423 5.158095,0.27563 5.160156,-2.765625 v -0.0039 -4.886718 c -0.0142,-0.2333 -0.08834,-0.460211 -0.214842,-0.66211 -0.120151,-0.19167 -0.374986,-0.432393 -0.537111,-0.52539 -0.01069,-0.0061 -0.198916,-0.121249 -0.269531,-0.128907 v 0.566407 c 0.114887,0.05002 0.210697,0.144333 0.28125,0.251953 0.07055,0.107619 0.185943,0.440291 -0.207031,0.716797 -0.162406,0.108537 -0.655008,0.127227 -0.935546,-0.240235 -0.09414,-0.123306 -0.194157,-0.258156 -0.195313,-0.40625 l -0.01172,-1.460937 C 86.169514,10.350272 81.934427,8.083984 81.934427,8.083984 l 0.0039,0.558594 c 0,0 0.176679,0.08886 0.22461,0.164062 0.195342,0.306487 0.09701,0.607493 -0.103516,0.773438 C 81.845258,9.757309 81.465216,9.679088 81.22739,9.535158 81.027682,9.414272 80.867907,9.167075 80.868021,8.933595 l 0.002,-1.423828 c -0.101075,-0.05355 -0.17492,-0.07102 -0.261719,-0.07813 z M 100.952,17 72.864114,32.066406 c 0.01452,0.01239 0.03115,0.02197 0.04492,0.03516 0.1102,0.105798 0.192834,0.234498 0.240234,0.375 0.03435,0.131548 0.0084,0.234915 -0.06055,0.296874 l -1.474609,1.328126 3.173828,6.271484 9.013672,17.80664 h 0.002 l 0.207031,0.41211 2.6875,-1.466797 -0.210936,-0.384766 0.002,-0.002 -6.800871,-13.316362 c 0,-3e-6 -0.128383,-0.390736 0.234376,-0.617188 0.276427,-0.172556 0.489011,-0.02985 0.597656,0.05859 0.04435,0.01906 0.134942,0.05758 0.289062,0.125 0.187505,0.08203 0.547668,0.194817 0.683594,0.21875 0.122978,0.02165 0.343848,0.03637 0.595703,-0.002 0.01411,-0.02743 0.0032,-0.0575 0.01953,-0.08398 L 81.71177,42.347656 c 0,0 -0.128384,-0.414179 0.234375,-0.640625 0.09069,-0.05661 0.179163,-0.07569 0.261719,-0.07422 0.07052,0.0013 0.133313,0.01928 0.191406,0.04297 0.01497,-0.07509 0.01955,-0.15239 0.05273,-0.222656 0.0562,-0.1191 0.137182,-0.226606 0.238282,-0.316406 0.1012,-0.0898 0.221062,-0.160331 0.351562,-0.207032 0.130401,-0.0467 0.268403,-0.06795 0.408203,-0.06445 0.1396,0.0029 0.27845,0.03158 0.40625,0.08398 0.127801,0.0524 0.243345,0.126803 0.339844,0.220703 0.0965,0.0939 0.172156,0.205072 0.222656,0.326172 0.0505,0.121 0.07351,0.249106 0.07031,0.378906 v 0.462891 c 0.110523,-0.06954 0.332302,-0.216002 0.441406,-0.369141 0.08686,-0.121912 0.195021,-0.257171 0.201172,-0.410156 0.0032,-0.0797 0.09265,-0.205381 0.158203,-0.253907 0.140024,-0.103658 0.247732,-0.129885 0.421875,-0.109374 0.174144,0.02051 0.360672,0.152683 0.421875,0.382812 0.0612,0.230129 -0.08893,0.571852 -0.285156,0.9375 -0.09064,0.154827 -0.34158,0.388922 -0.570312,0.558594 -0.224794,0.166749 -0.42774,0.270198 -0.480469,0.296875 0.0052,0.0072 0.0064,0.01625 0.01172,0.02344 0.1913,0.2694 0.288997,0.587558 0.279297,0.910156 -0.0084,0.231601 -0.07089,0.457263 -0.183594,0.664063 -0.101001,0.185244 -0.24515,0.345159 -0.414062,0.480469 l 4.779297,9.351562 0.177734,0.345703 -0.0039,0.002 0.214844,0.408204 c 1.171795,-0.623232 2.340215,-1.253281 3.509765,-1.88086 l 7.187498,3.859375 0.20703,-0.408203 4.75,-9.402344 -1.36328,-1.228515 -0.002,-0.002 c -0.0677,-0.06222 -0.0928,-0.166566 -0.0566,-0.296875 0.047,-0.1405 0.12923,-0.267247 0.24023,-0.373047 0.0193,-0.01858 0.0437,-0.03186 0.0644,-0.04883 L 93.166848,39.857422 92.907082,39.71875 c -0.0429,-0.0301 -0.07641,-0.07003 -0.09961,-0.115234 -0.0232,-0.0451 -0.0349,-0.09453 -0.0332,-0.144532 0.0076,-0.1497 0.05156,-0.295281 0.130859,-0.425781 0.0794,-0.1306 0.192073,-0.242872 0.326172,-0.326172 0.0466,-0.0304 0.09955,-0.04949 0.15625,-0.05469 0.0566,-0.0053 0.113916,0.0042 0.166016,0.02539 l 12.845701,6.894532 0.48437,-0.955079 0.004,-0.0098 0.004,0.002 c 0.0451,-0.07543 0.14126,-0.129805 0.27929,-0.140625 0.157,-3e-4 0.31408,0.03441 0.45508,0.09961 0.141,0.0652 0.26342,0.160344 0.35742,0.277344 0.0813,0.101303 0.0958,0.194287 0.0664,0.271484 l 0.006,0.002 -0.01,0.01953 v 0.002 l -0.002,0.002 -0.0156,0.0332 v 0.002 h -0.002 l -0.36132,0.714844 6.23437,-3.347656 -0.20703,-0.410156 -0.004,0.002 z m 33.33985,24.820313 v 0.162109 0.01367 c -0.003,0.0366 -0.0161,0.07176 -0.0391,0.101562 -0.023,0.0298 -0.0539,0.05386 -0.0899,0.06836 -0.04,0.01867 -0.0863,0.01602 -0.1289,0.02734 -0.0627,0.01669 -0.12332,0.04297 -0.18946,0.04297 -0.0513,0 -0.0986,-0.02291 -0.14844,-0.0332 -0.057,-0.01176 -0.11764,-0.01246 -0.16992,-0.03711 -0.036,-0.0151 -0.0649,-0.03866 -0.0879,-0.06836 -0.0182,-0.02351 -0.0273,-0.05197 -0.0332,-0.08008 -0.002,-0.0074 -0.007,-0.01391 -0.008,-0.02148 v -0.148438 l -4.30078,2.673828 v 1.804688 l 3.07617,1.652344 h 3.39258 l 3.07617,-1.652344 v -1.804688 z m -49.730471,1.076171 c 0.0067,0.02204 0.01575,0.04268 0.02344,0.06445 z m -3.273437,1.339844 0.365234,0.712891 0.152344,-0.08203 c -0.05868,-0.132336 -0.106605,-0.270522 -0.125,-0.414062 -0.0077,-0.05632 -0.0046,-0.111767 -0.0059,-0.167969 h -0.01367 c 0,0 -0.167536,-0.01545 -0.373047,-0.04883 z m 1.230469,1.4375 -0.386719,0.208985 0.361328,0.707031 z m 1.822265,1.8125 -1.08789,0.589844 0.638672,1.248047 1.089843,-0.585938 z m 1.115235,2.181641 -1.085938,0.589844 0.642578,1.257812 1.089844,-0.585938 z m 1.121093,2.191406 -1.08789,0.589844 0.636718,1.24414 1.089844,-0.585937 z m 1.113282,2.177734 -1.085938,0.589844 0.644531,1.261719 1.089844,-0.585938 z m 33.199214,13.8125 c 0.001,0.1478 0.0638,0.290332 0.17579,0.394532 0.0828,0.07636 0.19033,0.116434 0.30273,0.138672 l -0.77344,1.390624 c -0.095,0.1678 -0.12961,0.359674 -0.0996,0.546876 0.031,0.1872 0.12458,0.35984 0.26758,0.49414 0.089,0.0831 0.1955,0.150213 0.3125,0.195313 0.116,0.045 0.24019,0.06836 0.36719,0.06836 0.126,0 0.25119,-0.02336 0.36719,-0.06836 0.117,-0.0451 0.2235,-0.112213 0.3125,-0.195313 0.145,-0.1332 0.24048,-0.304687 0.27148,-0.492187 0.031,-0.1875 -0.003,-0.380928 -0.0977,-0.548829 l -0.77734,-1.386718 c 0.11922,-0.02002 0.23173,-0.0619 0.31836,-0.142578 0.113,-0.1043 0.17578,-0.247032 0.17578,-0.394532 -0.159,0 -0.31083,0.05976 -0.42383,0.164063 -0.0653,0.06078 -0.1075,0.13497 -0.13672,0.214844 -0.0298,-0.0799 -0.0728,-0.156091 -0.13867,-0.216797 -0.113,-0.1042 -0.26483,-0.16211 -0.42383,-0.16211 z"/></svg>