<svg xmlns="http://www.w3.org/2000/svg" width="65" height="44"><path fill="#FFFFFF" d="M 30.226562 0 C 30.116537 0 30.005412 0.035501825 29.914062 0.10742188 L 22.816406 5.6699219 C 22.194606 6.1574719 21.428472 6.421875 20.638672 6.421875 L 13.570312 6.421875 C 13.291712 6.421875 13.066406 6.6491344 13.066406 6.9277344 L 13.066406 11.130859 C 13.066406 12.509659 12.432256 13.809756 11.347656 14.660156 L 7.203125 17.910156 C 7.199085 17.913656 7.1973994 17.918275 7.1933594 17.921875 C 7.1479394 17.959175 7.1093481 18.002234 7.0800781 18.052734 C 7.0730081 18.064834 7.06856 18.077244 7.0625 18.089844 C 7.04282 18.130744 7.0295544 18.17385 7.0214844 18.21875 C 7.0184544 18.23645 7.016635 18.251931 7.015625 18.269531 C 7.014615 18.282131 7.0097656 18.293941 7.0097656 18.306641 L 7.0097656 43.496094 C 7.0097656 43.774694 7.2350719 44 7.5136719 44 L 52.9375 44 C 53.2167 44 53.441406 43.774694 53.441406 43.496094 L 53.441406 35.898438 C 53.706253 35.961843 53.979396 36.005859 54.263672 36.005859 C 56.214872 36.005859 57.796875 34.423856 57.796875 32.472656 C 57.796875 30.521456 56.214872 28.939453 54.263672 28.939453 C 53.979566 28.939453 53.706108 28.98159 53.441406 29.044922 L 53.441406 18.306641 C 53.441406 18.293941 53.436547 18.282131 53.435547 18.269531 C 53.434547 18.251931 53.432287 18.23645 53.429688 18.21875 C 53.421188 18.17385 53.407772 18.130744 53.388672 18.089844 C 53.382572 18.077244 53.378194 18.064834 53.371094 18.052734 C 53.341794 18.002234 53.303312 17.957722 53.257812 17.919922 C 53.253813 17.916822 53.252047 17.913656 53.248047 17.910156 L 47.384766 13.314453 L 47.384766 6.9277344 C 47.384766 6.6491344 47.159959 6.421875 46.880859 6.421875 L 37.777344 6.421875 L 35.818359 4.8886719 C 35.990459 4.6696319 35.952022 4.3517875 35.732422 4.1796875 L 30.537109 0.10742188 C 30.445759 0.035501825 30.336588 0 30.226562 0 z M 55.96875 2.2792969 C 55.839613 2.2792969 55.710028 2.3293194 55.611328 2.4277344 C 55.414528 2.6250744 55.414528 2.943795 55.611328 3.140625 L 56.207031 3.7382812 C 56.305431 3.8367012 56.435253 3.8867187 56.564453 3.8867188 C 56.693653 3.8867188 56.823475 3.8367012 56.921875 3.7382812 C 57.119275 3.5414413 57.119275 3.2227306 56.921875 3.0253906 L 56.324219 2.4277344 C 56.225769 2.3293194 56.097887 2.2792969 55.96875 2.2792969 z M 59.550781 2.2792969 C 59.421569 2.2792969 59.291509 2.3293194 59.193359 2.4277344 L 58.597656 3.0253906 C 58.400356 3.2227306 58.400356 3.5414413 58.597656 3.7382812 C 58.696156 3.8367012 58.823925 3.8867188 58.953125 3.8867188 C 59.082325 3.8867188 59.212147 3.8367012 59.310547 3.7382812 L 59.908203 3.140625 C 60.105003 2.943795 60.105003 2.6250744 59.908203 2.4277344 C 59.809503 2.3293194 59.679994 2.2792969 59.550781 2.2792969 z M 56.564453 5.265625 C 56.435316 5.265625 56.307384 5.3156425 56.208984 5.4140625 L 55.611328 6.0097656 C 55.414028 6.2071056 55.414028 6.5272694 55.611328 6.7246094 C 55.709728 6.8230294 55.83955 6.8710937 55.96875 6.8710938 C 56.09795 6.8710938 56.225719 6.8230294 56.324219 6.7246094 L 56.921875 6.1269531 C 57.118775 5.9301131 57.118775 5.6114025 56.921875 5.4140625 C 56.823225 5.3156425 56.693591 5.265625 56.564453 5.265625 z M 58.953125 5.265625 C 58.823975 5.265625 58.696356 5.3156425 58.597656 5.4140625 C 58.400856 5.6114025 58.400856 5.9301131 58.597656 6.1269531 L 59.193359 6.7246094 C 59.291759 6.8230294 59.421581 6.8710937 59.550781 6.8710938 C 59.679981 6.8710938 59.809703 6.8230294 59.908203 6.7246094 C 60.105503 6.5272694 60.105503 6.2071056 59.908203 6.0097656 L 59.310547 5.4140625 C 59.212147 5.3156425 59.082275 5.265625 58.953125 5.265625 z M 24.644531 5.5214844 C 24.550156 5.5955519 24.492759 5.6886677 24.466797 5.7871094 C 24.492728 5.6886691 24.550281 5.5955494 24.644531 5.5214844 z M 14.074219 7.4316406 L 14.076172 7.4316406 L 14.076172 19.226562 L 14.074219 19.226562 L 14.074219 7.4316406 z M 47.466797 15.357422 C 47.416194 15.434702 47.386719 15.529541 47.386719 15.634766 L 47.386719 19.070312 L 47.384766 19.070312 L 47.384766 15.632812 C 47.384766 15.527563 47.416194 15.434677 47.466797 15.357422 z M 8.8359375 17.912109 L 8.8378906 17.912109 C 8.6448406 18.063534 8.5952356 18.319222 8.6914062 18.523438 C 8.5952356 18.319222 8.6428875 18.063534 8.8359375 17.912109 z M 1.7714844 19.384766 C 1.4928844 19.384766 1.2675781 19.610072 1.2675781 19.888672 C 1.2675781 20.309572 0.92482825 20.650391 0.50390625 20.650391 C 0.22531025 20.650391 0 20.87765 0 21.15625 C 0 21.43535 0.22531025 21.660156 0.50390625 21.660156 C 0.92482825 21.660156 1.2675781 22.001375 1.2675781 22.421875 C 1.2675781 22.700475 1.4928844 22.927734 1.7714844 22.927734 C 2.0500744 22.927734 2.2753906 22.700475 2.2753906 22.421875 C 2.2753906 22.001375 2.6181425 21.660156 3.0390625 21.660156 C 3.3176625 21.660156 3.5429688 21.43535 3.5429688 21.15625 C 3.5429688 20.87765 3.3176625 20.650391 3.0390625 20.650391 C 2.6181425 20.650391 2.2753906 20.309572 2.2753906 19.888672 C 2.2753906 19.610072 2.0500744 19.384766 1.7714844 19.384766 z M 61.080078 38.25 L 58.050781 43.496094 L 64.107422 43.496094 L 61.080078 38.25 z"/><path fill="#4F545C" d="M31.5979 17.3573c.2004 0 .3634-.1625.3634-.3634v-5.8566c0-.2009-.163-.3634-.3634-.3634h-3.0701c-.2003 0-.3629.1625-.3629.3634v5.8566c0 .2009.1626.3634.3629.3634h3.0701zm.3633 4.9475v-3.0696c0-.2009-.1625-.3639-.3634-.3639h-3.0696c-.2009 0-.3634.163-.3634.3639v3.0696c0 .2003.1625.3634.3634.3634h3.0696c.2009 0 .3634-.1631.3634-.3634z"/></svg>