<svg xmlns="http://www.w3.org/2000/svg" width="47" height="60" viewBox="0 0 47 60"><path opacity="0.6" fill="black" d="M 28.6875 4.7480469 L 17.146484 11.544922 L 17.146484 14.433594 L 19.873047 12.830078 L 19.873047 11.697266 L 20.738281 11.697266 C 21.036611 11.696124 21.331649 11.737852 21.621094 11.802734 L 28.695312 7.6425781 L 35.767578 11.800781 C 36.051807 11.737212 36.342742 11.697266 36.638672 11.697266 L 36.638672 12.314453 L 36.652344 12.322266 L 36.652344 11.697266 L 37.517578 11.697266 L 37.517578 12.832031 L 37.578125 12.867188 C 37.607145 12.800743 37.626174 12.730338 37.644531 12.660156 C 37.650289 12.637765 37.659444 12.616447 37.664062 12.59375 C 37.664339 12.59242 37.665743 12.591175 37.666016 12.589844 C 37.683556 12.502239 37.693359 12.412841 37.693359 12.322266 L 37.693359 10.050781 L 28.6875 4.7480469 z M 14.259766 13.244141 L 12.609375 14.216797 L 12.837891 14.53125 L 2.3886719 14.53125 L 2.3886719 40.208984 L 9.8632812 40.208984 L 9.8632812 37.097656 L 6.4199219 37.097656 L 7.9414062 32.957031 L 7.078125 32.957031 C 6.939605 32.957031 6.8049369 32.921262 6.6855469 32.851562 C 6.5661669 32.781962 6.4676606 32.680547 6.4003906 32.560547 C 6.3331206 32.440447 6.2993044 32.305269 6.3027344 32.167969 C 6.3061644 32.030669 6.3467419 31.895897 6.4199219 31.779297 L 9.0839844 27.333984 L 7.5625 27.333984 L 10.669922 19.195312 C 10.698822 19.108113 10.753125 19.032416 10.828125 18.978516 C 10.903125 18.924716 10.993338 18.896484 11.085938 18.896484 C 11.178534 18.896484 11.26875 18.924716 11.34375 18.978516 C 11.41875 19.032416 11.475006 19.108112 11.503906 19.195312 L 14.259766 26.310547 L 14.259766 13.244141 z M 13.162109 27.333984 L 14.259766 29.164062 L 14.259766 27.333984 L 13.162109 27.333984 z M 14.238281 32.957031 L 14.259766 33.015625 L 14.259766 32.957031 L 14.238281 32.957031 z M 12.326172 37.097656 L 12.326172 40.208984 L 14.259766 40.208984 L 14.259766 37.097656 L 12.326172 37.097656 z M 24.005859 42.96875 L 24.005859 44.960938 L 25.105469 44.960938 L 25.105469 42.96875 L 24.005859 42.96875 z M 32.519531 42.96875 L 32.519531 47.953125 L 33.619141 47.953125 L 33.619141 42.96875 L 32.519531 42.96875 z"/><path opacity="0.4" fill="black" d="M 25.394531 0.61523438 C 25.128075 0.59633437 24.791554 0.68631077 24.513672 1.1074219 C 23.957904 1.9500669 24.865234 2.4980469 24.865234 2.4980469 L 26.712891 3.5859375 L 23.820312 5.2890625 L 13.511719 5.2890625 L 12.193359 6.0605469 L 22.509766 6.0605469 L 18.908203 8.1816406 L 8.6035156 8.1816406 L 7.2988281 8.9511719 L 17.601562 8.9511719 L 13.970703 11.087891 L 3.6640625 11.087891 L 2.359375 11.857422 L 12.664062 11.857422 L 11.414062 12.59375 C 11.414062 12.59375 10.469317 13.11936 11.056641 14.013672 C 11.643972 14.907984 12.447266 14.3125 12.447266 14.3125 L 28.6875 4.7480469 L 37.693359 10.050781 L 37.693359 9.9394531 L 37.693359 9.2421875 L 37.693359 8.1523438 L 37.947266 8.1523438 C 37.96775 8.1085933 37.994679 8.067994 38.017578 8.0253906 C 37.863969 7.9230371 37.714883 7.8133781 37.582031 7.6816406 C 37.569126 7.6688455 37.559538 7.653613 37.546875 7.640625 L 30.662109 3.5859375 L 32.509766 2.4980469 C 32.509766 2.4980469 33.417085 1.9500679 32.861328 1.1074219 C 32.30556 0.26481375 31.517578 0.75585936 31.517578 0.75585938 L 28.6875 2.421875 L 25.857422 0.75585938 C 25.857422 0.75585938 25.660999 0.63262038 25.394531 0.61523438 z M 28.695312 7.6425781 L 21.621094 11.802734 C 21.838878 11.851553 22.054123 11.909557 22.261719 11.994141 C 22.745319 12.191241 23.184287 12.479803 23.554688 12.845703 C 23.878858 13.166022 24.132359 13.545898 24.328125 13.955078 C 24.364558 13.844782 24.384759 13.730604 24.429688 13.623047 C 24.661687 13.067747 25.002941 12.561719 25.431641 12.136719 C 26.297341 11.278319 27.471013 10.796875 28.695312 10.796875 C 29.301613 10.796875 29.902791 10.914531 30.462891 11.144531 C 30.878034 11.31508 31.250577 11.56142 31.597656 11.841797 L 31.65625 11.857422 C 31.793907 11.892658 31.924475 11.944823 32.050781 12.005859 L 32.050781 10.244141 L 32.828125 11.015625 C 33.250625 11.442225 33.486328 12.015381 33.486328 12.613281 C 33.486328 12.976526 33.387996 13.3251 33.224609 13.642578 C 33.390676 13.356664 33.590345 13.089238 33.830078 12.851562 C 34.365173 12.320927 35.038903 11.963675 35.765625 11.800781 L 28.695312 7.6425781 z M 41.652344 10.056641 L 42.587891 11.421875 C 43.00422 12.02843 43.272174 12.71054 43.414062 13.419922 L 44.927734 14.310547 C 44.927734 14.310547 45.731028 14.907795 46.318359 14.013672 C 46.90569 13.119361 45.960937 12.59375 45.960938 12.59375 L 41.652344 10.056641 z M 36.638672 12.314453 L 36.638672 13.642578 C 36.643525 13.64141 36.647504 13.637933 36.652344 13.636719 L 36.652344 12.322266 L 36.638672 12.314453 z M 19.873047 12.830078 L 17.146484 14.433594 L 17.146484 40.208984 L 40.244141 40.208984 L 40.244141 23.541016 L 35.363281 23.541016 C 35.156881 23.541016 34.971187 23.458959 34.835938 23.326172 C 34.701721 23.194989 34.619487 23.014325 34.617188 22.814453 L 33.3125 22.814453 L 33.3125 23.701172 L 24.078125 23.701172 L 24.078125 22.814453 L 20.738281 22.814453 L 19.873047 22.814453 L 19.873047 12.830078 z M 37.517578 12.832031 L 37.517578 12.957031 C 37.534523 12.925133 37.563692 12.90023 37.578125 12.867188 L 37.517578 12.832031 z M 36.625 13.648438 C 36.524064 13.672008 36.421772 13.689453 36.316406 13.689453 C 36.407756 13.689453 36.497627 13.679638 36.585938 13.662109 C 36.599569 13.659404 36.611471 13.651538 36.625 13.648438 z M 34.298828 18.914062 C 34.607042 19.129286 34.932024 19.317895 35.277344 19.462891 L 35.289062 19.455078 C 34.941195 19.310306 34.610114 19.127731 34.298828 18.914062 z M 40.244141 19.429688 C 40.240919 19.431065 40.237599 19.432223 40.234375 19.433594 C 40.06949 19.503716 39.901598 19.565203 39.730469 19.619141 C 39.587641 19.664158 39.441332 19.700948 39.294922 19.734375 C 39.263288 19.741637 39.232953 19.753053 39.201172 19.759766 C 39.197311 19.760576 39.193316 19.760916 39.189453 19.761719 C 39.113931 19.777413 39.037118 19.785604 38.960938 19.796875 L 40.244141 21.068359 L 40.244141 19.429688 z M 37.517578 19.878906 L 37.517578 20.505859 L 37.517578 20.507812 L 39.095703 22.072266 L 40.244141 22.072266 L 40.244141 22.013672 L 38.089844 19.878906 L 37.517578 19.878906 z M 36.638672 20.580078 L 36.638672 22.072266 L 36.652344 22.072266 L 36.652344 20.59375 L 36.638672 20.580078 z M 33.3125 21.162109 L 33.501953 21.289062 C 33.569553 21.303563 33.639331 21.303563 33.707031 21.289062 C 33.787631 21.294163 33.868206 21.277841 33.941406 21.244141 C 33.868206 21.277841 33.787631 21.292209 33.707031 21.287109 C 33.639331 21.301609 33.569553 21.301609 33.501953 21.287109 L 33.3125 21.162109 z M 37.517578 21.451172 L 37.517578 22.072266 L 38.142578 22.072266 L 37.517578 21.451172 z M 28.695312 26.5625 C 32.078613 26.5625 34.822266 29.282119 34.822266 32.636719 C 34.822266 35.991419 32.078613 38.710938 28.695312 38.710938 C 25.312012 38.710938 22.568359 35.991419 22.568359 32.636719 C 22.568359 29.282119 25.312012 26.5625 28.695312 26.5625 z M 15.695312 36.9375 L 15.695312 37.097656 L 15.753906 37.097656 L 15.695312 36.9375 z M 21.675781 44.960938 L 21.675781 57.064453 L 27.435547 57.064453 L 27.435547 44.960938 L 21.675781 44.960938 z M 30.189453 47.953125 L 30.189453 60.072266 L 35.949219 60.072266 L 35.949219 47.953125 L 30.189453 47.953125 z"/><path opacity="0.8" fill="black" d="M 14.259766 10.796875 L 14.259766 10.917969 L 14.466797 10.796875 L 14.259766 10.796875 z M 17.146484 11.544922 L 14.259766 13.244141 L 14.259766 26.310547 L 14.65625 27.333984 L 14.259766 27.333984 L 14.259766 29.164062 L 15.636719 31.460938 C 15.729524 31.621037 15.776684 31.803681 15.771484 31.988281 C 15.766384 32.172881 15.709022 32.351059 15.607422 32.505859 C 15.505922 32.660659 15.363417 32.785734 15.195312 32.865234 C 15.027114 32.944734 14.84145 32.976231 14.65625 32.957031 L 14.259766 32.957031 L 14.259766 33.015625 L 14.259766 33.017578 L 15.753906 37.097656 L 14.259766 37.097656 L 14.259766 40.208984 L 17.146484 40.208984 L 17.146484 11.544922 z M 19.873047 11.697266 L 19.873047 22.814453 L 20.738281 22.814453 L 20.738281 11.697266 L 19.873047 11.697266 z M 36.652344 11.697266 L 36.652344 13.642578 C 36.89131 13.582578 37.113849 13.464652 37.291016 13.289062 C 37.383536 13.197299 37.455745 13.090326 37.517578 12.978516 L 37.517578 11.697266 L 36.652344 11.697266 z M 43.095703 12.367188 C 43.107418 12.400382 43.117658 12.434023 43.130859 12.466797 L 43.130859 12.460938 C 43.118708 12.429812 43.108439 12.398097 43.095703 12.367188 z M 43.130859 16.46875 C 42.85953 17.144843 42.468525 17.771748 41.943359 18.294922 C 41.448985 18.779969 40.871096 19.161655 40.244141 19.429688 L 40.244141 21.068359 L 41.255859 22.072266 L 43.130859 22.072266 L 43.130859 16.46875 z M 36.847656 19.841797 L 37.517578 20.507812 L 37.517578 19.878906 L 37.328125 19.878906 C 37.166215 19.878467 37.007144 19.858456 36.847656 19.841797 z M 36.652344 20.59375 L 36.652344 22.072266 L 37.517578 22.072266 L 37.517578 21.451172 L 36.652344 20.59375 z M 40.244141 22.013672 L 40.244141 22.072266 L 40.302734 22.072266 L 40.244141 22.013672 z M 40.244141 23.541016 L 40.244141 40.208984 L 43.130859 40.208984 L 43.130859 23.541016 L 40.244141 23.541016 z M 25.105469 42.96875 L 25.105469 44.314453 L 26.451172 42.96875 L 25.105469 42.96875 z M 24.005859 43.988281 L 23.033203 44.960938 L 24.005859 44.960938 L 24.005859 43.988281 z M 21.675781 46.318359 L 18.3125 49.681641 C 17.310786 48.883991 16.040986 48.404297 14.65625 48.404297 C 11.42675 48.404297 8.8085938 50.998972 8.8085938 54.201172 C 8.8085938 57.403272 11.42675 60 14.65625 60 C 17.88575 60 20.503906 57.403272 20.503906 54.201172 C 20.503906 52.733826 19.949339 51.398227 19.042969 50.376953 L 21.675781 47.744141 L 21.675781 46.318359 z"/><path opacity="1" fill="black" d="M 20.738281 11.697266 L 20.738281 22.814453 L 24.724609 22.814453 L 24.724609 15.634766 C 24.724609 15.116466 24.620422 14.6037 24.419922 14.125 C 24.219422 13.6462 23.924988 13.211603 23.554688 12.845703 C 23.184287 12.479803 22.745319 12.191241 22.261719 11.994141 C 21.778219 11.797141 21.261081 11.695266 20.738281 11.697266 z M 36.638672 11.697266 C 35.585372 11.697266 34.574878 12.112968 33.830078 12.851562 C 33.5859 13.093644 33.382701 13.366282 33.214844 13.658203 C 33.216019 13.668975 33.221639 13.678656 33.222656 13.689453 L 36.316406 13.689453 C 36.426446 13.689453 36.533404 13.671769 36.638672 13.646484 L 36.638672 11.697266 z M 32.667969 17.039062 L 32.667969 19.810547 L 33.707031 20.488281 L 35.277344 19.462891 C 34.654502 19.201367 34.082436 18.821868 33.595703 18.337891 C 33.211142 17.955507 32.913708 17.509947 32.667969 17.039062 z M 35.972656 19.919922 L 33.941406 21.244141 C 33.868206 21.277841 33.787631 21.294163 33.707031 21.289062 C 33.639331 21.303563 33.569553 21.303563 33.501953 21.289062 L 32.667969 20.732422 L 32.667969 22.814453 L 34.617188 22.814453 C 34.617156 22.811663 34.615234 22.809438 34.615234 22.806641 C 34.615234 22.502666 34.803827 22.24241 35.072266 22.130859 C 35.161684 22.09373 35.260081 22.072266 35.363281 22.072266 L 36.638672 22.072266 L 36.638672 20.580078 L 35.972656 19.919922 z"/><path opacity="0.2" fill="black" d="M 16.810547 3.5742188 C 16.567247 3.5691285 16.327194 3.6353519 16.121094 3.7636719 L 13.546875 5.2890625 L 23.820312 5.2890625 L 26.712891 3.5859375 L 26.693359 3.5742188 L 16.810547 3.5742188 z M 12.244141 6.0605469 L 8.6621094 8.1816406 L 18.908203 8.1816406 L 22.509766 6.0605469 L 12.244141 6.0605469 z M 7.3632812 8.9511719 L 3.7558594 11.087891 L 13.970703 11.087891 L 17.601562 8.9511719 L 7.3632812 8.9511719 z M 2.4570312 11.857422 L 0.39648438 13.078125 C 0.29856637 13.134125 0.21294336 13.210081 0.14648438 13.300781 C 0.080024565 13.391381 0.033260625 13.493916 0.009765625 13.603516 C -0.013729375 13.713216 -0.013771675 13.8279 0.009765625 13.9375 C 0.033302925 14.0471 0.079989965 14.149634 0.14648438 14.240234 C 0.22881235 14.332934 0.3314875 14.406931 0.4453125 14.457031 C 0.5591385 14.507231 0.68208863 14.53275 0.80664062 14.53125 L 12.837891 14.53125 L 12.609375 14.216797 L 12.447266 14.3125 C 12.447266 14.3125 11.643972 14.907984 11.056641 14.013672 C 10.469317 13.11936 11.414062 12.59375 11.414062 12.59375 L 12.664062 11.857422 L 2.4570312 11.857422 z M 0.80664062 40.208984 L 0.80664062 41.662109 C 0.80664062 42.009009 0.94405125 42.340637 1.1914062 42.585938 C 1.4387663 42.831237 1.77518 42.96875 2.125 42.96875 L 44.757812 42.96875 C 45.107612 42.96875 45.442053 42.831238 45.689453 42.585938 C 45.936753 42.340637 46.076172 42.009009 46.076172 41.662109 L 46.076172 40.208984 L 0.80664062 40.208984 z"/></svg>