<svg xmlns="http://www.w3.org/2000/svg" width="47" height="60" viewBox="0 0 47 60"><path fill="#FFFFFF" d="M 25.392578 0.6171875 C 25.126112 0.59974906 24.789602 0.68805872 24.511719 1.109375 C 23.955952 1.9520076 24.863281 2.5 24.863281 2.5 L 26.6875 3.5742188 L 16.810547 3.5742188 C 16.567247 3.5691285 16.327194 3.6353519 16.121094 3.7636719 L 13.544922 5.2890625 L 13.511719 5.2890625 L 12.193359 6.0605469 L 12.244141 6.0605469 L 8.6621094 8.1816406 L 8.6035156 8.1816406 L 7.2988281 8.9511719 L 7.3632812 8.9511719 L 3.7558594 11.087891 L 3.6640625 11.087891 L 2.359375 11.857422 L 2.4570312 11.857422 L 0.39648438 13.078125 C 0.29856637 13.134125 0.21294336 13.210081 0.14648438 13.300781 C 0.08002454 13.391381 0.033260625 13.493916 0.009765625 13.603516 C -0.013729375 13.713216 -0.013771675 13.8279 0.009765625 13.9375 C 0.033302925 14.0471 0.07998994 14.149634 0.14648438 14.240234 C 0.22881235 14.332934 0.3314875 14.406931 0.4453125 14.457031 C 0.5591385 14.507231 0.68208863 14.53275 0.80664062 14.53125 L 2.3886719 14.53125 L 2.3886719 15.287109 L 2.3886719 40.208984 L 0.80664062 40.208984 L 0.80664062 41.662109 C 0.80664062 42.009009 0.94405155 42.340637 1.1914062 42.585938 C 1.4387663 42.831237 1.77518 42.96875 2.125 42.96875 L 24.005859 42.96875 L 24.005859 43.988281 L 23.033203 44.960938 L 21.675781 44.960938 L 21.675781 46.318359 L 18.3125 49.681641 C 17.310753 48.884228 16.040986 48.404297 14.65625 48.404297 C 11.42675 48.404297 8.8085938 50.998972 8.8085938 54.201172 C 8.8085938 57.403272 11.42675 60 14.65625 60 C 17.88575 60 20.503906 57.403272 20.503906 54.201172 C 20.503906 52.733826 19.949375 51.397971 19.042969 50.376953 L 21.675781 47.744141 L 21.675781 57.064453 L 27.435547 57.064453 L 27.435547 44.960938 L 25.105469 44.960938 L 25.105469 44.314453 L 26.451172 42.96875 L 32.519531 42.96875 L 32.519531 47.953125 L 30.189453 47.953125 L 30.189453 60.072266 L 35.949219 60.072266 L 35.949219 47.953125 L 33.619141 47.953125 L 33.619141 42.96875 L 44.757812 42.96875 C 45.107613 42.96875 45.442053 42.831235 45.689453 42.585938 C 45.936753 42.340637 46.076172 42.009009 46.076172 41.662109 L 46.076172 40.208984 L 43.130859 40.208984 L 43.130859 12.460938 C 43.252331 12.772484 43.348592 13.093935 43.414062 13.421875 L 44.925781 14.3125 C 44.925781 14.3125 45.729076 14.909927 46.316406 14.015625 C 46.903736 13.121323 45.958984 12.595703 45.958984 12.595703 L 41.654297 10.0625 L 42.587891 11.421875 C 42.786696 11.711516 42.948549 12.019036 43.082031 12.337891 L 41.695312 12.337891 L 41.695312 11.21875 L 37.693359 8.8652344 L 37.693359 8.1523438 L 37.947266 8.1523438 C 37.980576 8.0811957 38.020886 8.0133423 38.060547 7.9453125 L 30.660156 3.5878906 L 32.507812 2.5 C 32.507812 2.5 33.415142 1.9520076 32.859375 1.109375 C 32.303608 0.26674242 31.515625 0.7578125 31.515625 0.7578125 L 28.685547 2.4238281 L 25.855469 0.7578125 C 25.855469 0.7578125 25.659045 0.63462594 25.392578 0.6171875 z"/><path fill="#202225" d="m 28.6953,11.6251 c 0.5216,0 1.038,0.1019 1.5199,0.2998 0.4819,0.1979 0.9197,0.4879 1.2885,0.8536 0.3688,0.3657 0.6613,0.7998 0.8609,1.2776 0.1996,0.4778 0.3023,0.9898 0.3023,1.507 v 7.2511 h -7.9432 v -7.1785 c -0.0097,-0.5232 0.0858,-1.0431 0.281,-1.5293 0.1953,-0.4862 0.4863,-0.9289 0.856,-1.3023 0.3698,-0.3734 0.8109,-0.67 1.2976,-0.8724 0.4867,-0.2025 1.0092,-0.3067 1.537,-0.3066 z"/><path fill="#ffd836" d="m 28.6953,38.7115 c 3.3833,0 6.126,-2.7194 6.126,-6.0741 0,-3.3546 -2.7427,-6.0741 -6.126,-6.0741 -3.3833,0 -6.126,2.7195 -6.126,6.0741 0,3.3547 2.7427,6.0741 6.126,6.0741 z"/><path fill="#FFFFFF" d="m 28.6953,37.7525 c 2.8491,0 5.1588,-2.2901 5.1588,-5.1151 0,-2.8249 -2.3097,-5.115 -5.1588,-5.115 -2.849,0 -5.1587,2.2901 -5.1587,5.115 0,2.825 2.3097,5.1151 5.1587,5.1151 z"/><path stroke="#36393f" stroke-width="0.75" stroke-linecap="round" stroke-linejoin="round" d="m 31.6411,30.2543 -2.9457,2.3831 -2.9458,-2.3831"/><path fill="#E77002" d="m 29.0178,18.0189 c 0.0512,-0.0327 0.093,-0.078 0.1212,-0.1315 0.0283,-0.0535 0.042,-0.1133 0.04,-0.1737 9e-4,-0.0581 -0.0134,-0.1155 -0.0417,-0.1665 -0.0283,-0.051 -0.0695,-0.0937 -0.1195,-0.1241 l -4.1036,-2.7174 c -0.0626,0.2625 -0.1018,0.53 -0.1172,0.7993 l 3.4147,2.2087 -3.4147,2.2379 v 0.8719 z"/><path fill="#E77002" d="m 33.7076,21.2885 c -0.0677,0.0145 -0.1376,0.0145 -0.2052,0 l -4.8949,-3.2696 c -0.0513,-0.0327 -0.093,-0.078 -0.1213,-0.1315 -0.0283,-0.0535 -0.042,-0.1133 -0.04,-0.1737 -9e-4,-0.0581 0.0135,-0.1155 0.0417,-0.1665 0.0283,-0.051 0.0695,-0.0937 0.1196,-0.1241 l 4.9242,-3.2114 c 0.0624,-0.0357 0.1331,-0.0545 0.2052,-0.0545 0.072,0 0.1428,0.0188 0.2051,0.0545 l 4.9243,3.2259 c 0.05,0.0304 0.0912,0.0732 0.1195,0.1241 0.0283,0.051 0.0426,0.1084 0.0417,0.1666 0.002,0.0603 -0.0117,0.1202 -0.04,0.1737 -0.0282,0.0535 -0.07,0.0988 -0.1212,0.1314 l -4.9243,3.2115 c -0.0732,0.0337 -0.1538,0.0487 -0.2344,0.0436 z m -4.2501,-3.5748 4.2501,2.7755 4.25,-2.7755 -4.25,-2.7609 z"/><path fill="#B93C00" d="m 26.9513,16.0717 -2.0371,-1.366 c -0.0626,0.2625 -0.1018,0.53 -0.1172,0.7993 l 2.2276,1.4531 z"/><path fill="#B93C00" d="m 26.9514,18.4984 -2.2276,1.4532 v 0.8718 l 2.2276,-1.4531 z"/><path fill="#2E3338" d="m 35.8807,18.8838 -0.4766,0.4726 3.4612,3.432 0.4767,-0.4727 z"/><path fill="#2E3338" d="m 38.0447,18.8889 -0.4767,0.4726 3.4612,3.4319 0.4767,-0.4726 z"/><path fill="#FFD836" d="m 41.9439,18.295 c 0.8963,-0.8929 1.451,-2.0674 1.5687,-3.3217 0.1177,-1.2544 -0.209,-2.5102 -0.9238,-3.5516 L 40.3465,8.1521 h -2.6526 v 4.1705 c 0,0.3623 -0.1452,0.7097 -0.4035,0.9659 -0.2584,0.2561 -0.6088,0.4 -0.9742,0.4 h -4.2647 v 0.9446 c 0,1.3888 0.5554,2.7208 1.5444,3.7042 0.989,0.9834 2.331,1.5378 3.7316,1.5416 h 0.7767 c 1.4391,-0.012 2.8167,-0.5802 3.8397,-1.5839 z"/><path fill="#FF9A15" d="m 43.7319,22.0732 h -8.3683 c -0.4128,0 -0.7474,0.3285 -0.7474,0.7338 0,0.4053 0.3346,0.7338 0.7474,0.7338 h 8.3683 c 0.4128,0 0.7474,-0.3285 0.7474,-0.7338 0,-0.4053 -0.3346,-0.7338 -0.7474,-0.7338 z"/><path fill="#FFD836" d="m 40.3465,6.62631 c 0.7035,0 1.3782,0.27711 1.8757,0.77036 0.4974,0.49326 0.7769,1.16225 0.7769,1.85982 V 9.93946 H 37.6938 V 9.24196 C 37.6977,8.54691 37.9789,7.88164 38.476,7.39153 38.973,6.90141 39.6455,6.6263 40.3465,6.62631 Z"/><path fill="#FF9A15" d="m 43.7758,8.96586 c 0.1277,0.12521 0.2285,0.2747 0.2965,0.43951 0.068,0.1648 0.1018,0.34152 0.0992,0.51956 H 41.6361 C 41.5419,9.92307 41.4502,9.89394 41.3725,9.84113 41.2947,9.78832 41.2342,9.71413 41.1984,9.62768 41.1626,9.54122 41.153,9.44628 41.1709,9.35452 41.1888,9.26276 41.2333,9.17818 41.299,9.11118 l 0.513,-0.5086 V 7.87601 c -10e-5,-0.09388 0.0365,-0.18415 0.102,-0.25188 0.0656,-0.06772 0.1551,-0.10765 0.2497,-0.1114 0.0966,0.00519 0.189,0.04082 0.2638,0.10171 z"/><path fill="#FFD836" d="M 40.3464,6.6263 H 39.5696 C 38.6136,6.62511 37.6969,6.24899 37.0196,5.58004 L 36.6385,5.15863 V 5.4202 c 0,0.84787 0.3397,1.66101 0.9444,2.26055 0.6046,0.59953 1.4247,0.93635 2.2798,0.93635 h 0.469 z"/><path fill="#FFD836" d="m 36.58,7.81787 h 2.125 v 2.10705 z"/><path fill="#FF9A15" d="m 33.2825,15.7229 c 0.3963,0.8394 1.1035,1.4951 1.9747,1.8309 0.8712,0.3358 1.8394,0.326 2.7034,-0.0276 0.864,-0.3535 1.5575,-1.0235 1.9363,-1.8708 0.3788,-0.8473 0.4138,-1.8067 0.0978,-2.6789 z"/><path fill="#FFD836" d="m 29.7065,11.3635 1.6561,1.7147 c 0.2174,0.2128 0.3902,0.4662 0.5084,0.7455 0.1183,0.2794 0.1796,0.5791 0.1804,0.882 h 1.1871 V 13.8775 C 33.2371,13.4146 33.081,12.9653 32.7946,12.5998 32.5082,12.2343 32.1077,11.9733 31.6557,11.8576 Z"/><path fill="#FFD836" d="m 32.8281,14.2117 -0.1319,0.1307 c -0.0541,0.0515 -0.1223,0.086 -0.1961,0.0992 -0.0738,0.0132 -0.1499,0.0046 -0.2187,-0.0249 -0.0689,-0.0295 -0.1274,-0.0785 -0.1683,-0.1408 -0.0409,-0.0623 -0.0624,-0.1352 -0.0617,-0.2096 v -3.8217 l 0.7767,0.7702 c 0.4225,0.4266 0.6592,1.0005 0.6592,1.5984 0,0.5979 -0.2367,1.1719 -0.6592,1.5985 z"/><path fill="#202225" d="m 40.5076,8.61711 c 0.1862,0 0.3371,-0.14963 0.3371,-0.33422 0,-0.18458 -0.1509,-0.33422 -0.3371,-0.33422 -0.1862,0 -0.3371,0.14964 -0.3371,0.33422 0,0.18459 0.1509,0.33422 0.3371,0.33422 z"/><path fill="#4BB494" d="M 14.6555,27.3335 H 7.56226 l 3.10694,-8.1376 c 0.0289,-0.0872 0.0849,-0.1631 0.1599,-0.217 0.075,-0.0538 0.1652,-0.0828 0.2578,-0.0828 0.0926,0 0.1828,0.029 0.2578,0.0828 0.075,0.0539 0.131,0.1298 0.1599,0.217 z"/><path fill="#4BB494" d="M 14.6555,32.9571 H 7.07862 C 6.9401,32.9571 6.8041,32.9204 6.68471,32.8507 6.56533,32.7811 6.4669,32.681 6.39963,32.561 6.33236,32.4409 6.29869,32.3052 6.30212,32.1679 c 0.00343,-0.1373 0.04382,-0.2712 0.117,-0.3878 l 3.97158,-6.6263 h 1.4656 l 3.7811,6.3066 c 0.0928,0.1601 0.1392,0.3426 0.134,0.5272 -0.0051,0.1846 -0.0616,0.3642 -0.1632,0.519 -0.1015,0.1548 -0.2442,0.2788 -0.4123,0.3583 -0.1682,0.0795 -0.3552,0.1114 -0.5404,0.0922 z"/><path fill="#51303F" d="M 12.3253,35.2095 H 9.86316 v 4.9988 h 2.46214 z"/><path fill="#4BB494" d="M 15.7546,37.0986 H 6.41907 l 3.59063,-9.7651 h 2.169 z"/><path fill="#28977B" d="M 13.1019,27.3335 H 9.07166 l 5.05614,1.7147 z"/><path fill="#28977B" d="M 14.2304,32.9571 H 7.98718 l 7.13722,2.4122 z"/><path fill="#AEC7FF" d="m 12.4571,21.6953 -0.9526,-2.4994 c -0.0289,-0.0872 -0.0848,-0.1631 -0.1598,-0.217 -0.075,-0.0538 -0.1653,-0.0828 -0.2579,-0.0828 -0.0926,0 -0.1828,0.029 -0.2578,0.0828 -0.075,0.0539 -0.1309,0.1298 -0.1598,0.217 l -0.95265,2.4994 z"/><path fill="#AEC7FF" d="m 7.32771,30.2543 h 1.59744 c 1.04875,0.0041 2.05395,0.4163 2.79915,1.148 0.7423,-0.7255 1.7424,-1.1325 2.7846,-1.1335 h 0.3224 l 1.0112,1.7002 c 0.0614,0.1054 0.0939,0.225 0.0943,0.3467 4e-4,0.1217 -0.0314,0.2415 -0.0922,0.3473 -0.0607,0.1058 -0.1484,0.1939 -0.2541,0.2557 -0.1058,0.0618 -0.2261,0.0951 -0.3489,0.0966 H 6.62425 C 6.53186,33.0148 6.4412,32.9903 6.36136,32.9442 6.28151,32.8981 6.21528,32.832 6.16928,32.7526 6.12328,32.6731 6.09913,32.5831 6.09924,32.4915 6.09936,32.3999 6.12373,32.3099 6.16993,32.2306 Z"/><path fill="#FF9A15" d="m 43.7758,8.96586 c 0.1277,0.12521 0.2285,0.2747 0.2965,0.43951 0.068,0.1648 0.1018,0.34152 0.0992,0.51956 H 41.6361 C 41.5419,9.92307 41.4502,9.89394 41.3725,9.84113 41.2947,9.78832 41.2342,9.71413 41.1984,9.62768 41.1626,9.54122 41.153,9.44628 41.1709,9.35452 41.1888,9.26276 41.2333,9.17818 41.299,9.11118 l 0.513,-0.5086 V 7.87601 c -10e-5,-0.09388 0.0365,-0.18415 0.102,-0.25188 0.0656,-0.06772 0.1551,-0.10765 0.2497,-0.1114 0.0966,0.00519 0.189,0.04082 0.2638,0.10171 z"/></svg>