<svg xmlns="http://www.w3.org/2000/svg" width="200" height="120"><path opacity="0.4" fill="black" d="M 75.320312 0 A 4 4 0 0 0 71.320312 4 L 71.320312 11 L 56.599609 11 A 35.08 35.08 0 0 0 56.421875 11 A 35.08 35.08 0 0 0 33.859375 19.349609 A 35.121 35.121 0 0 0 21.5 46.089844 L 21.5 72.230469 A 8 8 0 0 1 16.240234 79.720703 L 8.9199219 82.349609 A 13.48 13.48 0 0 0 0 95 L 0 120 L 35.349609 120 A 4.001 4.001 0 0 1 34.953125 119.95117 A 4.001 4.001 0 0 1 33.470703 119.37305 A 4.001 4.001 0 0 1 33.146484 119.14062 A 4.001 4.001 0 0 1 32.847656 118.87695 A 4.001 4.001 0 0 1 32.574219 118.58398 A 4.001 4.001 0 0 1 32.349609 118.28906 L 20.560547 99.099609 C 20.415547 98.864609 20.333828 98.639922 20.310547 98.435547 C 20.240703 97.822422 20.698047 97.390625 21.560547 97.390625 L 44.279297 97.390625 A 4 4 0 0 1 44.302734 97.392578 L 44.300781 97.390625 L 47.890625 97.390625 A 4 4 0 0 1 50.890625 99.099609 L 59.652344 113.41016 L 71.767578 113.41016 C 70.291941 113.39233 68.832844 113.10653 67.464844 112.55078 A 11.797 11.797 0 0 1 60.390625 104.12305 A 10.492 10.492 0 0 1 56.169922 95.75 L 56.169922 87.900391 A 3.93 3.93 0 0 1 60.109375 84 L 60.109375 83.320312 A 11.802 11.802 0 0 1 72 71.550781 L 71.279297 71.550781 A 3.932 3.932 0 0 1 75.230469 67.640625 L 108.08008 67.640625 C 108.86498 67.638621 109.64428 67.712721 110.41797 67.822266 C 111.76722 68.013304 113.0934 68.352453 114.35938 68.873047 C 114.78561 69.04893 115.19803 69.248208 115.60352 69.458984 C 115.98733 69.658498 116.36056 69.874671 116.72461 70.103516 C 121.15966 72.891411 124.09009 77.779224 124.4707 83.082031 C 119.7722 84.016417 116.23047 88.158715 116.23047 93.130859 C 116.23047 98.790859 120.81947 103.38086 126.48047 103.38086 C 132.14147 103.38086 136.73047 98.790859 136.73047 93.130859 C 136.73047 87.904076 132.813 83.598565 127.75586 82.96875 C 127.74071 82.704024 127.71154 82.441274 127.68359 82.177734 A 16.4 16.4 0 0 1 127.76562 82.839844 L 138.41992 82.839844 A 12.406 12.406 0 0 1 149.9043 90.472656 C 150.5313 91.976656 150.85533 93.590703 150.85938 95.220703 L 150.85938 113.41016 L 161.15039 113.41016 A 5.46 5.46 0 0 1 166.60938 118.86914 L 166.60938 120 L 200 120 L 200 51.310547 A 20.788 20.788 0 0 0 179.19922 30.519531 L 162 30.519531 A 10.076 10.076 0 0 1 154.33984 27 L 146.18945 17.480469 A 18.55 18.55 0 0 0 132.10938 11 L 128.67969 11 L 128.67969 32.060547 L 143.67969 32.060547 A 3.76 3.76 0 0 1 146.3457 33.158203 A 3.771 3.771 0 0 1 147.44922 35.820312 L 147.44922 69.400391 L 137.16992 59.160156 L 103.69922 59.160156 A 3.76 3.76 0 0 1 99.939453 55.400391 L 99.939453 37.410156 L 88.369141 37.410156 L 88.369141 0 L 75.320312 0 z M 79.820312 5.6992188 A 3.0000001 3.0000001 0 0 1 79.820312 11.699219 A 3.0000001 3.0000001 0 0 1 79.820312 5.6992188 z M 94.720703 7.6992188 A 2.0000001 2.0000001 0 0 0 94.720703 11.699219 A 2.0000001 2.0000001 0 0 0 94.720703 7.6992188 z M 102 7.6992188 A 2.0000001 2.0000001 0 0 0 102 11.699219 L 121.13086 11.699219 L 121.16992 11.699219 A 2.0000001 2.0000001 0 0 0 121.16992 7.6992188 L 102 7.6992188 z M 79.820312 15.740234 A 3 3 0 0 1 79.820312 21.740234 A 3 3 0 0 1 79.820312 15.740234 z M 94.720703 16.730469 A 2 2 0 0 0 94.720703 20.730469 A 2 2 0 0 0 94.720703 16.730469 z M 102 16.730469 A 2 2 0 0 0 102 20.730469 L 121.13086 20.730469 A 2.0001 2.0001 0 1 0 121.16992 16.730469 L 102 16.730469 z M 137.66016 18.720703 A 0.833 0.833 0 0 1 138.48047 19.529297 L 138.48047 20.339844 A 0.822 0.822 0 0 1 137.66016 21.160156 A 0.819 0.819 0 0 1 136.84961 20.339844 L 136.84961 19.529297 A 0.81 0.81 0 0 1 137.66016 18.720703 z M 54.660156 20.599609 A 21 21 0 0 1 71.320312 28.841797 A 21 21 0 0 1 75.212891 37.404297 A 4 4 0 0 0 75.214844 37.404297 A 21 21 0 0 1 75.660156 41.599609 L 75.660156 62.599609 L 54.660156 62.599609 A 21 21 0 0 1 33.660156 41.599609 A 21.05 21.05 0 0 1 54.660156 20.599609 z M 134 22.349609 L 134.82031 22.349609 L 134.81055 22.380859 A 0.81 0.81 0 0 1 134.81055 24 L 134 24 A 0.824 0.824 0 0 1 133.17578 23.175781 A 0.823 0.823 0 0 1 134 22.349609 z M 140.45703 22.349609 A 0.810547 0.810547 0 0 1 140.49023 22.349609 L 141.31055 22.349609 A 0.810547 0.810547 0 0 1 141.31055 23.970703 L 140.49023 23.970703 A 0.81071697 0.81071697 0 0 1 140.45703 22.349609 z M 137.66016 25.169922 A 0.828 0.828 0 0 1 138.48047 26 L 138.48047 26.789062 A 0.818 0.818 0 0 1 137.66016 27.599609 A 0.81 0.81 0 0 1 136.84961 26.789062 L 136.84961 25.980469 A 0.81 0.81 0 0 1 137.66016 25.169922 z M 94.720703 25.769531 A 2 2 0 0 0 94.720703 29.769531 A 2 2 0 0 0 94.720703 25.769531 z M 102 25.769531 A 2 2 0 0 0 102 29.769531 L 121.13086 29.769531 A 2.0001 2.0001 0 1 0 121.16992 25.769531 L 102 25.769531 z M 79.820312 25.779297 A 3 3 0 0 1 79.820312 31.779297 A 3 3 0 0 1 79.820312 25.779297 z M 177.4043 56.080078 A 0.55 0.55 0 0 1 177.41406 56.080078 A 0.55 0.55 0 0 1 177.67969 56.140625 L 179.67969 57.140625 A 0.57 0.57 0 0 0 180.16016 57.140625 L 182.16016 56.140625 A 0.55 0.55 0 0 1 182.95312 56.544922 C 182.97213 56.659922 182.95339 56.776859 182.90039 56.880859 L 181.90039 58.880859 A 0.514 0.514 0 0 0 181.90039 59.359375 L 182.90039 61.359375 A 0.55 0.55 0 0 1 182.16016 62.099609 L 180.16016 61.099609 A 0.569 0.569 0 0 0 179.67969 61.099609 L 177.67969 62.099609 A 0.55 0.55 0 0 1 176.93945 61.359375 L 177.93945 59.359375 C 177.99945 59.205375 177.99945 59.034859 177.93945 58.880859 L 176.93945 56.880859 A 0.55 0.55 0 0 1 177.4043 56.080078 z M 112.72266 67.705078 A 16.4 16.4 0 0 1 113.26953 67.755859 C 113.08787 67.734486 112.90496 67.720366 112.72266 67.705078 z M 114.41016 67.927734 A 16.4 16.4 0 0 1 115.19141 68.101562 C 114.93193 68.039076 114.6721 67.977439 114.41016 67.927734 z M 37.943359 68.052734 A 0.6 0.6 0 0 1 37.982422 68.058594 A 0.6 0.6 0 0 1 38.041016 68.070312 A 0.6 0.6 0 0 1 38.097656 68.087891 A 0.6 0.6 0 0 0 38.041016 68.070312 A 0.6 0.6 0 0 0 37.982422 68.058594 A 0.6 0.6 0 0 0 37.943359 68.052734 z M 38.167969 68.119141 A 0.6 0.6 0 0 1 38.205078 68.140625 A 0.6 0.6 0 0 0 38.167969 68.119141 z M 112.0625 68.142578 A 16.401 16.401 0 0 1 112.87305 68.347656 A 16.401 16.401 0 0 0 112.0625 68.142578 z M 38.341797 68.257812 A 0.6 0.6 0 0 1 38.376953 68.300781 A 0.6 0.6 0 0 0 38.341797 68.257812 z M 37.308594 68.259766 A 0.59 0.59 0 0 0 37.253906 68.337891 A 0.59 0.59 0 0 1 37.308594 68.259766 z M 116.06445 68.324219 A 16.4 16.4 0 0 1 116.44727 68.445312 C 116.31997 68.404162 116.19281 68.362269 116.06445 68.324219 z M 37.197266 68.464844 A 0.59 0.59 0 0 0 37.185547 68.507812 A 0.59 0.59 0 0 1 37.197266 68.464844 z M 37.179688 68.53125 A 0.59 0.59 0 0 0 37.169922 68.636719 A 0.59 0.59 0 0 1 37.179688 68.53125 z M 38.488281 68.597656 A 0.6 0.6 0 0 1 38.490234 68.640625 A 0.6 0.6 0 0 0 38.488281 68.597656 z M 117.51953 68.833984 A 16.4 16.4 0 0 1 117.88867 68.980469 C 117.76707 68.928125 117.64239 68.883375 117.51953 68.833984 z M 119.22461 69.625 A 16.4 16.4 0 0 1 119.34766 69.697266 C 119.30604 69.674225 119.26641 69.647674 119.22461 69.625 z M 38.488281 70.132812 A 0.6 0.6 0 0 1 38.482422 70.171875 A 0.6 0.6 0 0 1 38.470703 70.230469 A 0.6 0.6 0 0 1 38.453125 70.287109 A 0.6 0.6 0 0 0 38.470703 70.230469 A 0.6 0.6 0 0 0 38.482422 70.171875 A 0.6 0.6 0 0 0 38.488281 70.132812 z M 37.173828 70.148438 A 0.59 0.59 0 0 0 37.181641 70.205078 A 0.59 0.59 0 0 1 37.173828 70.148438 z M 37.183594 70.210938 A 0.59 0.59 0 0 0 37.197266 70.263672 A 0.59 0.59 0 0 1 37.183594 70.210938 z M 38.421875 70.355469 A 0.6 0.6 0 0 1 38.400391 70.394531 A 0.6 0.6 0 0 0 38.421875 70.355469 z M 157.4707 70.369141 C 157.6107 70.359141 157.75066 70.359141 157.89062 70.369141 A 5.58 5.58 0 0 1 161.81055 72 A 5.493 5.493 0 0 1 163.43945 76.339844 A 5.553 5.553 0 0 1 159.43945 81.220703 L 150.69922 83.759766 L 150.68945 83.759766 A 0.56 0.56 0 0 1 150 83.070312 L 152.57031 74.369141 A 5.552 5.552 0 0 1 157.4707 70.369141 z M 120.48633 70.390625 A 16.4 16.4 0 0 1 120.85352 70.644531 C 120.73196 70.55886 120.61027 70.473023 120.48633 70.390625 z M 38.283203 70.53125 A 0.6 0.6 0 0 1 38.240234 70.566406 A 0.6 0.6 0 0 0 38.283203 70.53125 z M 37.498047 70.617188 A 0.59 0.59 0 0 0 37.546875 70.638672 A 0.59 0.59 0 0 1 37.498047 70.617188 z M 37.943359 70.677734 A 0.6 0.6 0 0 1 37.900391 70.679688 A 0.6 0.6 0 0 0 37.943359 70.677734 z M 121.74609 71.320312 A 16.4 16.4 0 0 1 122.04492 71.5625 C 121.94737 71.479381 121.84559 71.401134 121.74609 71.320312 z M 35.34375 71.998047 A 0.59 0.59 0 0 1 35.388672 72.007812 A 0.59 0.59 0 0 0 35.34375 71.998047 z M 40.226562 72.011719 A 0.59 0.59 0 0 0 40.130859 72.048828 A 0.59 0.59 0 0 1 40.226562 72.011719 z M 35.464844 72.03125 A 0.59 0.59 0 0 1 35.507812 72.050781 A 0.59 0.59 0 0 0 35.464844 72.03125 z M 42.263672 72.154297 A 0.58 0.58 0 0 1 42.302734 72.197266 A 0.58 0.58 0 0 0 42.263672 72.154297 z M 33.34375 72.191406 A 0.59 0.59 0 0 0 33.277344 72.287109 A 0.59 0.59 0 0 1 33.34375 72.191406 z M 35.697266 72.195312 A 0.59 0.59 0 0 1 35.728516 72.234375 A 0.59 0.59 0 0 0 35.697266 72.195312 z M 35.789062 72.34375 A 0.59 0.59 0 0 1 35.808594 72.390625 A 0.59 0.59 0 0 0 35.789062 72.34375 z M 35.828125 72.460938 A 0.59 0.59 0 0 1 35.833984 72.5 A 0.59 0.59 0 0 0 35.828125 72.460938 z M 123.13477 72.574219 A 16.4 16.4 0 0 1 123.23633 72.6875 C 123.20123 72.650942 123.1702 72.610443 123.13477 72.574219 z M 39.800781 72.720703 A 0.6 0.6 0 0 0 39.8125 72.822266 A 0.6 0.6 0 0 1 39.800781 72.720703 z M 33.205078 72.791016 A 0.59 0.59 0 0 0 33.210938 72.830078 A 0.59 0.59 0 0 1 33.205078 72.791016 z M 33.230469 72.898438 A 0.59 0.59 0 0 0 33.25 72.949219 A 0.59 0.59 0 0 1 33.230469 72.898438 z M 42.396484 72.939453 A 0.58 0.58 0 0 1 42.371094 72.992188 A 0.58 0.58 0 0 0 42.396484 72.939453 z M 35.773438 72.982422 A 0.59 0.59 0 0 1 35.748047 73.025391 A 0.59 0.59 0 0 0 35.773438 72.982422 z M 33.310547 73.056641 A 0.59 0.59 0 0 0 33.341797 73.095703 A 0.59 0.59 0 0 1 33.310547 73.056641 z M 42.251953 73.146484 A 0.58 0.58 0 0 1 42.183594 73.203125 A 0.58 0.58 0 0 0 42.251953 73.146484 z M 33.53125 73.240234 A 0.59 0.59 0 0 0 33.574219 73.259766 A 0.59 0.59 0 0 1 33.53125 73.240234 z M 33.650391 73.283203 A 0.59 0.59 0 0 0 33.695312 73.292969 A 0.59 0.59 0 0 1 33.650391 73.283203 z M 40.259766 73.283203 A 0.6 0.6 0 0 0 40.318359 73.294922 A 0.6 0.6 0 0 1 40.259766 73.283203 z M 41.964844 73.291016 A 0.58 0.58 0 0 1 41.929688 73.296875 A 0.58 0.58 0 0 0 41.964844 73.291016 z M 35.308594 73.296875 A 0.59 0.59 0 0 1 35.25 73.300781 A 0.59 0.59 0 0 0 35.308594 73.296875 z M 124.0918 73.658203 A 16.4 16.4 0 0 1 125.11328 75.046875 A 16.4 16.4 0 0 1 125.41016 75.533203 C 125.31033 75.371642 125.21864 75.204848 125.11328 75.046875 C 124.87579 74.690808 124.62419 74.344467 124.35938 74.007812 C 124.27275 73.889322 124.18155 73.77432 124.0918 73.658203 z M 37.626953 74.634766 A 0.59 0.59 0 0 0 37.585938 74.646484 A 0.59 0.59 0 0 1 37.626953 74.634766 z M 38.109375 74.660156 A 0.6 0.6 0 0 1 38.154297 74.681641 A 0.6 0.6 0 0 1 38.199219 74.705078 A 0.6 0.6 0 0 0 38.154297 74.681641 A 0.6 0.6 0 0 0 38.109375 74.660156 z M 38.347656 74.830078 A 0.6 0.6 0 0 1 38.375 74.867188 A 0.6 0.6 0 0 0 38.347656 74.830078 z M 38.414062 74.929688 A 0.6 0.6 0 0 1 38.439453 74.978516 A 0.6 0.6 0 0 0 38.414062 74.929688 z M 37.175781 75.128906 A 0.59 0.59 0 0 0 37.171875 75.167969 A 0.59 0.59 0 0 1 37.175781 75.128906 z M 38.486328 75.164062 A 0.6 0.6 0 0 1 38.490234 75.210938 A 0.6 0.6 0 0 0 38.486328 75.164062 z M 125.89844 76.378906 A 16.4 16.4 0 0 1 126.24023 77.082031 C 126.12965 76.846202 126.02022 76.609364 125.89844 76.378906 z M 37.179688 76.775391 A 0.579 0.579 0 0 0 37.193359 76.832031 A 0.579 0.579 0 0 1 37.179688 76.775391 z M 38.425781 76.925781 A 0.591 0.591 0 0 1 38.396484 76.976562 A 0.591 0.591 0 0 1 38.371094 77.013672 A 0.591 0.591 0 0 0 38.396484 76.976562 A 0.591 0.591 0 0 0 38.425781 76.925781 z M 38.126953 77.205078 A 0.591 0.591 0 0 1 38.074219 77.222656 A 0.591 0.591 0 0 0 38.126953 77.205078 z M 38.011719 77.238281 A 0.591 0.591 0 0 1 37.958984 77.246094 A 0.591 0.591 0 0 0 38.011719 77.238281 z M 126.58203 77.841797 A 16.4 16.4 0 0 1 126.87891 78.650391 C 126.78438 78.378911 126.69064 78.107793 126.58203 77.841797 z M 127.12109 79.373047 A 16.4 16.4 0 0 1 127.33789 80.212891 C 127.27024 79.931689 127.20354 79.650313 127.12109 79.373047 z M 127.51758 81.011719 A 16.4 16.4 0 0 1 127.60938 81.578125 C 127.58223 81.388969 127.55133 81.199867 127.51758 81.011719 z M 126.48047 82.880859 L 126.50977 82.880859 L 126.50977 82.882812 C 126.49977 82.882784 126.49037 82.880859 126.48047 82.880859 z M 126.50391 86.369141 C 130.23777 86.375641 133.26038 89.408723 133.25391 93.142578 C 133.24791 96.876433 130.21433 99.897098 126.48047 99.890625 C 122.21727 99.889721 119.01861 95.991971 119.84961 91.810547 C 120.38418 89.129956 122.47957 87.034566 125.16016 86.5 C 125.60259 86.41165 126.05275 86.36781 126.50391 86.369141 z M 126.48047 88.630859 C 122.47112 88.630859 120.46414 93.477804 123.29883 96.3125 C 126.13353 99.147195 130.98047 97.14021 130.98047 93.130859 C 130.97347 90.648541 128.96279 88.637999 126.48047 88.630859 z"/><path opacity="0.8" fill="black" d="M 157.4707 70.369141 A 5.552 5.552 0 0 0 152.57031 74.369141 L 150 83.070312 A 0.56 0.56 0 0 0 150.68945 83.759766 L 150.69922 83.759766 L 159.43945 81.220703 A 5.553 5.553 0 0 0 163.43945 76.339844 A 5.493 5.493 0 0 0 161.81055 72 A 5.58 5.58 0 0 0 157.89062 70.369141 C 157.75063 70.359141 157.6107 70.359141 157.4707 70.369141 z M 127.74219 82.839844 A 16.401 16.401 0 0 1 127.75586 82.96875 C 132.813 83.598565 136.73047 87.904076 136.73047 93.130859 C 136.73047 98.790859 132.14147 103.38086 126.48047 103.38086 C 126.01122 103.38086 125.55212 103.33841 125.09961 103.27734 A 11.8 11.8 0 0 1 113.40039 113.41992 L 83.996094 113.41992 A 3.304 3.304 0 0 0 80.890625 116.71094 A 3.288 3.288 0 0 0 84.179688 120 L 100.74023 120 L 124.83008 120 L 166.60938 120 L 166.60938 118.86914 A 5.46 5.46 0 0 0 161.15039 113.41016 L 150.85938 113.41016 L 150.85938 95.220703 C 150.85537 93.590703 150.5313 91.976656 149.9043 90.472656 A 12.406 12.406 0 0 0 138.41992 82.839844 L 127.74219 82.839844 z M 125.20703 82.880859 A 11.791 11.791 0 0 1 125.21094 82.966797 C 125.62751 82.915253 126.04995 82.880859 126.48047 82.880859 L 125.20703 82.880859 z M 126.48047 82.880859 C 126.49038 82.880859 126.49986 82.882784 126.50977 82.882812 L 126.50977 82.880859 L 126.48047 82.880859 z M 126.50391 86.369141 A 6.76 6.76 0 0 0 125.9668 86.394531 A 6.76 6.76 0 0 1 126.55469 86.371094 A 6.7607522 6.7607522 0 0 0 126.50391 86.369141 z M 126.77148 86.382812 A 6.76 6.76 0 0 1 127.21875 86.410156 A 6.7607522 6.7607522 0 0 0 126.77148 86.382812 z M 125.89453 86.396484 A 6.76 6.76 0 0 0 125.23047 86.490234 A 6.76 6.76 0 0 1 125.89453 86.396484 z M 128.11328 86.574219 A 6.76 6.76 0 0 1 128.53906 86.6875 A 6.7607522 6.7607522 0 0 0 128.11328 86.574219 z M 128.9043 86.822266 A 6.76 6.76 0 0 1 129.1543 86.917969 A 6.7607522 6.7607522 0 0 0 128.9043 86.822266 z M 129.57617 87.121094 A 6.76 6.76 0 0 1 129.76172 87.214844 A 6.7607522 6.7607522 0 0 0 129.57617 87.121094 z M 130.69336 87.841797 A 6.76 6.76 0 0 1 130.88086 87.988281 A 6.7607522 6.7607522 0 0 0 130.69336 87.841797 z M 131.19531 88.283203 A 6.76 6.76 0 0 1 131.36328 88.443359 A 6.7607522 6.7607522 0 0 0 131.19531 88.283203 z M 131.69531 88.822266 A 6.76 6.76 0 0 1 131.80469 88.949219 A 6.7607522 6.7607522 0 0 0 131.69531 88.822266 z M 132.10547 89.371094 A 6.76 6.76 0 0 1 132.19531 89.5 A 6.7607522 6.7607522 0 0 0 132.10547 89.371094 z M 130.97852 93.224609 A 4.5 4.5 0 0 1 130.96094 93.496094 A 4.5 4.5 0 0 0 130.97852 93.224609 z M 130.93555 93.728516 A 4.5 4.5 0 0 1 130.90625 93.914062 A 4.5 4.5 0 0 0 130.93555 93.728516 z M 130.85156 94.181641 A 4.5 4.5 0 0 1 130.80273 94.361328 A 4.5 4.5 0 0 0 130.85156 94.181641 z M 130.72852 94.601562 A 4.5 4.5 0 0 1 130.66211 94.775391 A 4.5 4.5 0 0 0 130.72852 94.601562 z M 130.54297 95.054688 A 4.5 4.5 0 0 1 130.50195 95.138672 A 4.5 4.5 0 0 0 130.54297 95.054688 z M 130.07227 95.833984 A 4.5 4.5 0 0 1 130.0332 95.882812 A 4.5 4.5 0 0 0 130.07227 95.833984 z M 129.53516 99.160156 A 6.76 6.76 0 0 1 129.35156 99.255859 A 6.7607522 6.7607522 0 0 0 129.53516 99.160156 z M 128.92383 99.431641 A 6.76 6.76 0 0 1 128.72656 99.509766 A 6.7607522 6.7607522 0 0 0 128.92383 99.431641 z M 128.2832 99.642578 A 6.76 6.76 0 0 1 128.07812 99.701172 A 6.7607522 6.7607522 0 0 0 128.2832 99.642578 z M 125.23047 99.767578 L 125.23047 99.769531 A 6.762 6.762 0 0 0 125.43164 99.796875 A 6.762 6.762 0 0 1 125.23047 99.767578 z M 125.43164 99.796875 A 6.762 6.762 0 0 0 125.84766 99.855469 A 6.762 6.762 0 0 1 125.43164 99.796875 z M 125.84766 99.855469 A 6.762 6.762 0 0 0 126.48047 99.890625 A 6.762 6.762 0 0 1 125.84766 99.855469 z M 127.60938 99.791016 A 6.76 6.76 0 0 1 127.41797 99.826172 A 6.7607522 6.7607522 0 0 0 127.60938 99.791016 z M 127.01562 99.861328 A 6.76 6.76 0 0 1 126.71094 99.886719 A 6.7607522 6.7607522 0 0 0 127.01562 99.861328 z"/><path opacity="0.6" fill="black" d="M 79.820312 5.6992188 A 3.0000001 3.0000001 0 0 0 79.820312 11.699219 A 3.0000001 3.0000001 0 0 0 79.820312 5.6992188 z M 79.820312 15.740234 A 3 3 0 0 0 79.820312 21.740234 A 3 3 0 0 0 79.820312 15.740234 z M 54.660156 20.599609 A 21.05 21.05 0 0 0 33.660156 41.599609 A 21 21 0 0 0 54.660156 62.599609 L 75.660156 62.599609 L 75.660156 41.599609 A 21 21 0 0 0 54.660156 20.599609 z M 79.820312 25.779297 A 3 3 0 0 0 79.820312 31.779297 A 3 3 0 0 0 79.820312 25.779297 z M 54.609375 27.910156 A 13.69 13.69 0 0 1 68.300781 41.599609 A 13.7 13.7 0 1 1 54.609375 27.910156 z M 72 71.550781 A 11.802 11.802 0 0 0 60.109375 83.320312 L 60.109375 84 L 87.109375 84 A 3.93 3.93 0 0 1 87.457031 84.009766 A 3.93 3.93 0 0 1 87.462891 84.009766 A 3.93 3.93 0 0 1 87.720703 84.041016 A 3.93 3.93 0 0 1 87.869141 84.0625 A 3.93 3.93 0 0 1 88.070312 84.107422 A 3.93 3.93 0 0 1 88.248047 84.148438 A 3.93 3.93 0 0 1 88.414062 84.203125 A 3.93 3.93 0 0 1 88.634766 84.279297 A 3.93 3.93 0 0 1 88.644531 84.283203 A 3.93 3.93 0 0 1 88.761719 84.335938 A 3.93 3.93 0 0 1 88.976562 84.435547 A 3.93 3.93 0 0 1 89.197266 84.5625 A 3.93 3.93 0 0 1 89.314453 84.632812 A 3.93 3.93 0 0 1 89.484375 84.751953 A 3.93 3.93 0 0 1 89.642578 84.869141 A 3.93 3.93 0 0 1 89.808594 85.013672 A 3.93 3.93 0 0 1 89.917969 85.111328 A 3.93 3.93 0 0 1 89.925781 85.119141 A 3.93 3.93 0 0 1 90.087891 85.292969 A 3.93 3.93 0 0 1 90.199219 85.417969 A 3.93 3.93 0 0 1 90.28125 85.525391 A 3.93 3.93 0 0 1 90.443359 85.742188 A 3.93 3.93 0 0 1 90.447266 85.748047 A 3.93 3.93 0 0 1 90.488281 85.818359 A 3.93 3.93 0 0 1 90.636719 86.0625 A 3.93 3.93 0 0 1 90.744141 86.283203 A 3.93 3.93 0 0 1 90.804688 86.414062 A 3.93 3.93 0 0 1 90.890625 86.648438 A 3.93 3.93 0 0 1 90.9375 86.783203 A 3.93 3.93 0 0 1 90.986328 86.970703 A 3.93 3.93 0 0 1 91.037109 87.181641 A 3.93 3.93 0 0 1 91.039062 87.193359 A 3.93 3.93 0 0 1 91.052734 87.296875 A 3.93 3.93 0 0 1 91.091797 87.564453 A 3.93 3.93 0 0 1 91.109375 87.929688 L 91.109375 94.470703 A 11.81 11.81 0 0 1 91.052734 95.501953 A 11.81 11.81 0 0 1 90.974609 96.095703 A 11.81 11.81 0 0 1 90.884766 96.671875 A 11.81 11.81 0 0 1 90.746094 97.261719 A 11.81 11.81 0 0 1 90.605469 97.800781 A 11.81 11.81 0 0 1 90.394531 98.419922 A 11.81 11.81 0 0 1 90.210938 98.914062 A 11.81 11.81 0 0 1 89.943359 99.494141 A 11.81 11.81 0 0 1 89.703125 99.986328 A 11.81 11.81 0 0 1 89.398438 100.50586 A 11.81 11.81 0 0 1 89.091797 101.00195 A 11.81 11.81 0 0 1 88.748047 101.47266 A 11.81 11.81 0 0 1 88.375 101.95898 A 11.81 11.81 0 0 1 88.035156 102.33984 A 11.81 11.81 0 0 1 87.570312 102.83203 A 11.81 11.81 0 0 1 87.158203 103.20703 A 11.81 11.81 0 0 1 86.712891 103.5957 A 11.81 11.81 0 0 1 86.228516 103.95898 A 11.81 11.81 0 0 1 85.746094 104.29883 A 11.81 11.81 0 0 1 85.263672 104.58789 A 11.81 11.81 0 0 1 84.722656 104.89453 A 11.81 11.81 0 0 1 84.232422 105.12695 A 11.81 11.81 0 0 1 83.644531 105.38672 A 11.81 11.81 0 0 1 83.140625 105.56445 A 11.81 11.81 0 0 1 82.53125 105.76367 A 11.81 11.81 0 0 1 82.001953 105.89453 A 11.81 11.81 0 0 1 81.378906 106.0293 A 11.81 11.81 0 0 1 80.820312 106.10938 A 11.81 11.81 0 0 1 80.226562 106.17773 A 11.81 11.81 0 0 1 79.189453 106.2207 L 66.689453 106.2207 A 10.492 10.492 0 0 1 65.759766 106.17383 A 10.492 10.492 0 0 1 65.396484 106.13086 A 10.492 10.492 0 0 1 64.677734 106.02344 A 10.492 10.492 0 0 1 64.435547 105.96875 A 10.492 10.492 0 0 1 63.650391 105.76953 A 10.492 10.492 0 0 1 63.455078 105.70508 A 10.492 10.492 0 0 1 62.621094 105.40039 A 10.492 10.492 0 0 1 62.566406 105.37695 A 10.492 10.492 0 0 1 61.658203 104.9375 A 10.492 10.492 0 0 1 60.763672 104.39062 A 10.492 10.492 0 0 1 60.382812 104.12109 A 11.797 11.797 0 0 0 67.464844 112.55078 C 68.832844 113.10653 70.291941 113.39233 71.767578 113.41016 L 84.179688 113.41016 A 3.304 3.304 0 0 0 83.949219 113.41992 L 105.4707 113.41992 C 111.6998 113.43287 116.86628 108.60218 117.27148 102.38672 A 10.261 10.261 0 0 1 117.28906 83.876953 L 117.28906 83.320312 A 11.798 11.798 0 0 0 105.46094 71.550781 L 72 71.550781 z M 121.83984 75.083984 A 16.396 16.396 0 0 1 122.66602 76.498047 A 16.396 16.396 0 0 0 121.84961 75.09375 A 11.791 11.791 0 0 0 121.83984 75.083984 z M 119.625 85.527344 C 119.58586 85.562583 119.5464 85.596986 119.50781 85.632812 C 119.54632 85.596989 119.58595 85.562578 119.625 85.527344 z M 117.83789 87.634766 C 117.79852 87.696378 117.76269 87.759765 117.72461 87.822266 C 117.76252 87.759888 117.79869 87.696261 117.83789 87.634766 z M 117.19727 88.802734 C 117.16656 88.868292 117.13287 88.93174 117.10352 88.998047 C 117.1328 88.931712 117.16662 88.868323 117.19727 88.802734 z M 100.875 89.302734 C 104.03645 89.318924 104.96822 92.376984 104.95117 93.162109 L 102.88477 93.306641 C 102.88477 93.306641 102.76442 91.385979 100.84766 91.382812 C 98.930872 91.379612 98.765625 93.320316 98.765625 93.320312 L 96.65625 93.191406 C 96.70093 92.284736 97.713551 89.286544 100.875 89.302734 z M 116.66406 90.191406 C 116.58261 90.463004 116.51012 90.738927 116.45117 91.019531 C 116.51009 90.738222 116.58259 90.463725 116.66406 90.191406 z M 116.41797 91.207031 C 116.37366 91.439386 116.33688 91.674438 116.30859 91.912109 C 116.33678 91.67451 116.37381 91.439366 116.41797 91.207031 z M 119.74805 92.607422 A 6.762 6.762 0 0 0 119.72461 92.996094 A 6.762 6.762 0 0 1 119.74805 92.607422 z M 119.72656 93.140625 A 6.762 6.762 0 0 0 119.74609 93.681641 A 6.762 6.762 0 0 1 119.72656 93.140625 z M 119.75781 93.773438 A 6.762 6.762 0 0 0 119.83398 94.34375 A 6.762 6.762 0 0 1 119.75781 93.773438 z M 116.32812 94.472656 C 116.35675 94.690625 116.38564 94.90769 116.42773 95.121094 C 116.38586 94.908354 116.35662 94.689895 116.32812 94.472656 z M 120.04102 95.160156 A 6.762 6.762 0 0 0 120.21289 95.652344 A 6.762 6.762 0 0 1 120.04102 95.160156 z M 116.50977 95.470703 C 116.55715 95.672956 116.60487 95.874846 116.66406 96.072266 C 116.60485 95.874492 116.55715 95.673295 116.50977 95.470703 z M 116.79688 96.466797 C 116.85241 96.62767 116.90747 96.788197 116.9707 96.945312 C 116.90771 96.788443 116.85221 96.627391 116.79688 96.466797 z M 64.521484 97.384766 A 1.64 1.64 0 0 0 63.679688 97.603516 A 1.64 1.64 0 0 0 63.513672 97.710938 A 1.64 1.64 0 0 0 63.335938 97.861328 A 1.64 1.64 0 0 0 63.226562 97.982422 A 1.64 1.64 0 0 0 62.919922 98.558594 A 1.64 1.64 0 0 0 62.880859 98.716797 A 1.64 1.64 0 0 0 62.859375 98.880859 A 1.64 1.64 0 0 0 62.853516 99.042969 A 1.64 1.64 0 0 0 62.853516 99.044922 A 1.64 1.64 0 0 0 62.863281 99.207031 A 1.64 1.64 0 0 0 62.888672 99.369141 A 1.64 1.64 0 0 0 62.931641 99.527344 A 1.64 1.64 0 0 0 62.990234 99.681641 A 1.637 1.637 0 0 0 63.039062 99.78125 A 1.637 1.637 0 0 0 63.085938 99.865234 A 1.637 1.637 0 0 0 63.117188 99.914062 A 1.637 1.637 0 0 0 63.171875 99.994141 A 1.637 1.637 0 0 0 63.212891 100.04688 A 1.637 1.637 0 0 0 63.28125 100.12695 A 1.637 1.637 0 0 0 63.318359 100.16602 A 1.637 1.637 0 0 0 63.388672 100.23633 A 1.637 1.637 0 0 0 63.458984 100.29688 A 1.637 1.637 0 0 0 63.501953 100.33008 A 1.637 1.637 0 0 0 63.597656 100.39844 A 1.637 1.637 0 0 0 63.640625 100.42578 A 1.637 1.637 0 0 0 63.726562 100.47461 A 1.637 1.637 0 0 0 63.787109 100.50391 A 1.637 1.637 0 0 0 63.873047 100.54297 A 1.637 1.637 0 0 0 63.935547 100.56641 A 1.637 1.637 0 0 0 64.050781 100.60352 A 1.637 1.637 0 0 0 64.085938 100.61328 A 1.637 1.637 0 0 0 64.177734 100.63281 A 1.637 1.637 0 0 0 64.275391 100.65039 A 1.637 1.637 0 0 0 64.322266 100.6543 A 1.637 1.637 0 0 0 64.435547 100.66211 A 1.637 1.637 0 0 0 64.488281 100.66406 A 1.637 1.637 0 0 0 64.619141 100.66016 L 67.900391 100.66016 A 1.64 1.64 0 0 0 67.902344 100.66016 A 1.64 1.64 0 0 0 68.361328 100.63086 A 1.64 1.64 0 0 0 68.644531 100.54492 A 1.64 1.64 0 0 0 68.699219 100.52344 A 1.64 1.64 0 0 0 68.703125 100.52148 A 1.64 1.64 0 0 0 68.845703 100.44922 A 1.64 1.64 0 0 0 68.847656 100.44727 A 1.64 1.64 0 0 0 68.984375 100.35938 A 1.64 1.64 0 0 0 69.087891 100.27734 A 1.64 1.64 0 0 0 69.113281 100.25781 A 1.64 1.64 0 0 0 69.115234 100.25586 A 1.64 1.64 0 0 0 69.230469 100.14453 A 1.64 1.64 0 0 0 69.337891 100.01758 A 1.64 1.64 0 0 0 69.507812 99.740234 A 1.64 1.64 0 0 0 69.507812 99.738281 A 1.64 1.64 0 0 0 69.572266 99.587891 A 1.64 1.64 0 0 0 69.572266 99.585938 A 1.64 1.64 0 0 0 69.585938 99.539062 A 1.64 1.64 0 0 0 69.646484 99.302734 A 1.64 1.64 0 0 0 69.652344 99.271484 A 1.64 1.64 0 0 0 69.652344 99.269531 A 1.64 1.64 0 0 0 69.669922 99.109375 A 1.64 1.64 0 0 0 69.669922 99.105469 A 1.64 1.64 0 0 0 69.669922 98.945312 A 1.64 1.64 0 0 0 69.669922 98.941406 A 1.64 1.64 0 0 0 69.652344 98.78125 A 1.64 1.64 0 0 0 69.652344 98.779297 A 1.64 1.64 0 0 0 69.646484 98.748047 A 1.64 1.64 0 0 0 69.585938 98.511719 A 1.64 1.64 0 0 0 69.572266 98.462891 A 1.64 1.64 0 0 0 69.507812 98.3125 A 1.64 1.64 0 0 0 69.507812 98.310547 A 1.64 1.64 0 0 0 69.429688 98.169922 A 1.64 1.64 0 0 0 69.429688 98.167969 A 1.64 1.64 0 0 0 69.337891 98.033203 A 1.64 1.64 0 0 0 69.335938 98.03125 A 1.64 1.64 0 0 0 69.232422 97.908203 A 1.64 1.64 0 0 0 69.230469 97.90625 A 1.64 1.64 0 0 0 69.115234 97.794922 A 1.64 1.64 0 0 0 69.113281 97.792969 A 1.64 1.64 0 0 0 68.986328 97.691406 A 1.64 1.64 0 0 0 68.984375 97.691406 A 1.64 1.64 0 0 0 68.896484 97.634766 A 1.64 1.64 0 0 0 68.845703 97.601562 A 1.64 1.64 0 0 0 68.703125 97.529297 A 1.64 1.64 0 0 0 68.699219 97.527344 A 1.64 1.64 0 0 0 68.548828 97.46875 A 1.64 1.64 0 0 0 68.546875 97.46875 A 1.64 1.64 0 0 0 68.390625 97.425781 A 1.64 1.64 0 0 0 68.388672 97.425781 A 1.64 1.64 0 0 0 68.361328 97.419922 A 1.64 1.64 0 0 0 67.902344 97.390625 A 1.64 1.64 0 0 0 67.900391 97.390625 L 64.619141 97.390625 A 1.64 1.64 0 0 0 64.521484 97.384766 z M 74.310547 97.384766 A 1.64 1.64 0 0 0 73.46875 97.603516 A 1.64 1.64 0 0 0 73.302734 97.710938 A 1.64 1.64 0 0 0 73.125 97.861328 A 1.64 1.64 0 0 0 73.015625 97.982422 A 1.64 1.64 0 0 0 72.708984 98.558594 A 1.64 1.64 0 0 0 72.669922 98.716797 A 1.64 1.64 0 0 0 72.648438 98.880859 A 1.64 1.64 0 0 0 72.642578 99.042969 A 1.64 1.64 0 0 0 72.642578 99.044922 A 1.64 1.64 0 0 0 72.652344 99.207031 A 1.64 1.64 0 0 0 72.677734 99.369141 A 1.64 1.64 0 0 0 72.720703 99.527344 A 1.64 1.64 0 0 0 72.779297 99.681641 A 1.637 1.637 0 0 0 72.824219 99.773438 A 1.637 1.637 0 0 0 72.869141 99.855469 A 1.637 1.637 0 0 0 72.923828 99.941406 A 1.637 1.637 0 0 0 72.949219 99.980469 A 1.637 1.637 0 0 0 73.019531 100.07031 A 1.637 1.637 0 0 0 73.054688 100.11133 A 1.637 1.637 0 0 0 73.125 100.18555 A 1.637 1.637 0 0 0 73.173828 100.23242 A 1.637 1.637 0 0 0 73.240234 100.28906 A 1.637 1.637 0 0 0 73.306641 100.34375 A 1.637 1.637 0 0 0 73.353516 100.37695 A 1.637 1.637 0 0 0 73.445312 100.43555 A 1.637 1.637 0 0 0 73.529297 100.48242 A 1.637 1.637 0 0 0 73.564453 100.49805 A 1.637 1.637 0 0 0 73.671875 100.54688 A 1.637 1.637 0 0 0 73.728516 100.56836 A 1.637 1.637 0 0 0 73.826172 100.59961 A 1.637 1.637 0 0 0 73.884766 100.61523 A 1.637 1.637 0 0 0 73.970703 100.63477 A 1.637 1.637 0 0 0 74.044922 100.64648 A 1.637 1.637 0 0 0 74.140625 100.6582 A 1.637 1.637 0 0 0 74.220703 100.66211 A 1.637 1.637 0 0 0 74.279297 100.66406 A 1.637 1.637 0 0 0 74.410156 100.66016 L 79.25 100.66016 A 1.64 1.64 0 0 1 79.251953 100.66016 A 1.64 1.64 0 0 0 79.710938 100.63086 A 1.64 1.64 0 0 0 79.994141 100.54492 A 1.64 1.64 0 0 0 80.048828 100.52344 A 1.64 1.64 0 0 0 80.052734 100.52148 A 1.64 1.64 0 0 0 80.195312 100.44922 A 1.64 1.64 0 0 0 80.197266 100.44727 A 1.64 1.64 0 0 0 80.246094 100.41602 A 1.64 1.64 0 0 0 80.333984 100.35938 A 1.64 1.64 0 0 0 80.335938 100.35938 A 1.64 1.64 0 0 0 80.4375 100.27734 A 1.64 1.64 0 0 0 80.462891 100.25781 A 1.64 1.64 0 0 0 80.464844 100.25586 A 1.64 1.64 0 0 0 80.580078 100.14453 A 1.64 1.64 0 0 0 80.582031 100.14258 A 1.64 1.64 0 0 0 80.685547 100.01953 A 1.64 1.64 0 0 0 80.6875 100.01758 A 1.64 1.64 0 0 0 80.779297 99.882812 A 1.64 1.64 0 0 0 80.779297 99.880859 A 1.64 1.64 0 0 0 80.857422 99.740234 A 1.64 1.64 0 0 0 80.857422 99.738281 A 1.64 1.64 0 0 0 80.921875 99.587891 A 1.64 1.64 0 0 0 80.921875 99.585938 A 1.64 1.64 0 0 0 80.9375 99.539062 A 1.64 1.64 0 0 0 80.996094 99.302734 A 1.64 1.64 0 0 0 81.001953 99.271484 A 1.64 1.64 0 0 0 81.001953 99.269531 A 1.64 1.64 0 0 0 81.019531 99.109375 A 1.64 1.64 0 0 0 81.019531 99.105469 A 1.64 1.64 0 0 0 81.019531 98.945312 A 1.64 1.64 0 0 0 81.019531 98.941406 A 1.64 1.64 0 0 0 81.001953 98.78125 A 1.64 1.64 0 0 0 81.001953 98.779297 A 1.64 1.64 0 0 0 80.996094 98.748047 A 1.64 1.64 0 0 0 80.9375 98.511719 A 1.64 1.64 0 0 0 80.921875 98.462891 A 1.64 1.64 0 0 0 80.857422 98.3125 A 1.64 1.64 0 0 0 80.857422 98.310547 A 1.64 1.64 0 0 0 80.779297 98.169922 A 1.64 1.64 0 0 0 80.779297 98.167969 A 1.64 1.64 0 0 0 80.6875 98.033203 A 1.64 1.64 0 0 0 80.685547 98.03125 A 1.64 1.64 0 0 0 80.582031 97.908203 A 1.64 1.64 0 0 0 80.580078 97.90625 A 1.64 1.64 0 0 0 80.464844 97.794922 A 1.64 1.64 0 0 0 80.462891 97.792969 A 1.64 1.64 0 0 0 80.335938 97.691406 A 1.64 1.64 0 0 0 80.333984 97.691406 A 1.64 1.64 0 0 0 80.246094 97.634766 A 1.64 1.64 0 0 0 80.195312 97.601562 A 1.64 1.64 0 0 0 80.052734 97.529297 A 1.64 1.64 0 0 0 80.048828 97.527344 A 1.64 1.64 0 0 0 79.898438 97.46875 A 1.64 1.64 0 0 0 79.896484 97.46875 A 1.64 1.64 0 0 0 79.740234 97.425781 A 1.64 1.64 0 0 0 79.738281 97.425781 A 1.64 1.64 0 0 0 79.710938 97.419922 A 1.64 1.64 0 0 0 79.251953 97.390625 A 1.64 1.64 0 0 0 79.25 97.390625 L 74.410156 97.390625 A 1.64 1.64 0 0 0 74.310547 97.384766 z M 117.17773 97.416016 C 117.23763 97.545526 117.2982 97.67427 117.36328 97.800781 C 117.29825 97.674127 117.23757 97.545661 117.17773 97.416016 z M 117.62305 98.271484 C 117.68764 98.382268 117.75367 98.491523 117.82227 98.599609 C 117.7539 98.491626 117.68744 98.382148 117.62305 98.271484 z M 118.13867 99.074219 C 118.20616 99.168533 118.27708 99.259675 118.34766 99.351562 C 118.27725 99.259661 118.206 99.168535 118.13867 99.074219 z M 123.93555 99.386719 A 6.762 6.762 0 0 0 125.23047 99.769531 L 125.23047 99.767578 A 6.762 6.762 0 0 1 123.93555 99.386719 z M 118.73242 99.828125 C 118.79138 99.89609 118.85336 99.960973 118.91406 100.02734 C 118.85354 99.960989 118.79121 99.896066 118.73242 99.828125 z M 119.37305 100.50781 C 119.42919 100.56177 119.48949 100.61138 119.54688 100.66406 C 119.4895 100.61124 119.42918 100.56191 119.37305 100.50781 z M 125.03125 103.39062 C 124.65674 105.88829 123.4901 108.19965 121.70312 109.98438 C 119.48448 112.19212 116.47955 113.42792 113.34961 113.41992 L 113.40039 113.41992 A 11.8 11.8 0 0 0 125.08594 103.39062 L 125.03125 103.39062 z"/><path opacity="0.2" fill="black" d="M 88.369141 0 L 88.369141 37.410156 L 99.939453 37.410156 L 124.67969 37.410156 C 125.74424 37.409557 126.76477 36.985058 127.51562 36.230469 C 128.26677 35.476923 128.68582 34.454583 128.67969 33.390625 L 128.67969 32.060547 L 128.67969 11 L 128.67969 4 C 128.68024 1.7906322 126.88906 -0.00055254919 124.67969 0 L 88.369141 0 z M 94.685547 7.6992188 A 2.0000001 2.0000001 0 0 1 94.720703 7.6992188 A 2.0000001 2.0000001 0 0 1 94.90625 7.7109375 A 2.0000001 2.0000001 0 0 1 94.919922 7.7109375 A 2.0000001 2.0000001 0 0 1 94.925781 7.7128906 A 2.0000001 2.0000001 0 0 1 95.09375 7.7363281 A 2.0000001 2.0000001 0 0 1 95.144531 7.7460938 A 2.0000001 2.0000001 0 0 1 95.230469 7.7675781 C 95.233093 7.768171 95.235664 7.7689294 95.238281 7.7695312 A 2.0000001 2.0000001 0 0 1 95.576172 7.890625 C 95.930681 8.045066 96.197119 8.2905807 96.382812 8.5898438 A 2.0000001 2.0000001 0 0 1 96.525391 8.8417969 A 2.0000001 2.0000001 0 0 1 96.527344 8.8457031 A 2.0000001 2.0000001 0 0 1 96.603516 9.03125 A 2.0000001 2.0000001 0 0 1 96.658203 9.2089844 A 2.0000001 2.0000001 0 0 1 96.662109 9.2226562 A 2.0000001 2.0000001 0 0 1 96.662109 9.2246094 A 2.0000001 2.0000001 0 0 1 96.695312 9.3945312 A 2.0000001 2.0000001 0 0 1 96.699219 9.4179688 A 2.0000001 2.0000001 0 0 1 96.699219 9.421875 A 2.0000001 2.0000001 0 0 1 96.716797 9.6054688 A 2.0000001 2.0000001 0 0 1 96.71875 9.6171875 A 2.0000001 2.0000001 0 0 1 96.71875 9.6191406 A 2.0000001 2.0000001 0 0 1 96.716797 9.7519531 A 2.0000001 2.0000001 0 0 1 96.714844 9.8320312 A 2.0000001 2.0000001 0 0 1 96.714844 9.8398438 A 2.0000001 2.0000001 0 0 1 96.707031 9.8984375 A 2.0000001 2.0000001 0 0 1 96.693359 10.027344 A 2.0000001 2.0000001 0 0 1 96.691406 10.039062 A 2.0000001 2.0000001 0 0 1 96.654297 10.210938 A 2.0000001 2.0000001 0 0 1 96.652344 10.21875 A 2.0000001 2.0000001 0 0 1 96.626953 10.298828 A 2.0000001 2.0000001 0 0 1 96.583984 10.423828 A 2.0000001 2.0000001 0 0 1 96.513672 10.585938 A 2.0000001 2.0000001 0 0 1 96.503906 10.605469 A 2.0000001 2.0000001 0 0 1 96.5 10.613281 A 2.0000001 2.0000001 0 0 1 96.496094 10.619141 A 2.0000001 2.0000001 0 0 1 96.230469 11.007812 C 96.196707 11.047056 96.162416 11.084668 96.125 11.121094 A 2.0000001 2.0000001 0 0 1 95.728516 11.425781 C 95.727209 11.426496 95.725918 11.427022 95.724609 11.427734 A 2.0000001 2.0000001 0 0 1 95.720703 11.429688 A 2.0000001 2.0000001 0 0 1 95.566406 11.509766 C 95.554383 11.515375 95.54378 11.522284 95.53125 11.527344 A 2.0000001 2.0000001 0 0 1 95.517578 11.533203 A 2.0000001 2.0000001 0 0 1 95.421875 11.570312 A 2.0000001 2.0000001 0 0 1 95.326172 11.605469 A 2.0000001 2.0000001 0 0 1 95.3125 11.609375 A 2.0000001 2.0000001 0 0 1 95.238281 11.628906 A 2.0000001 2.0000001 0 0 1 95.138672 11.654297 A 2.0000001 2.0000001 0 0 1 95.021484 11.673828 A 2.0000001 2.0000001 0 0 1 94.939453 11.6875 A 2.0000001 2.0000001 0 0 1 94.84375 11.693359 A 2.0000001 2.0000001 0 0 1 94.720703 11.699219 A 2.0000001 2.0000001 0 0 1 94.535156 11.6875 A 2.0000001 2.0000001 0 0 1 94.515625 11.685547 A 2.0000001 2.0000001 0 0 1 94.347656 11.662109 A 2.0000001 2.0000001 0 0 1 94.296875 11.652344 A 2.0000001 2.0000001 0 0 1 94.210938 11.630859 C 94.208313 11.630266 94.205743 11.629508 94.203125 11.628906 A 2.0000001 2.0000001 0 0 1 93.865234 11.507812 C 93.510725 11.353372 93.244287 11.107857 93.058594 10.808594 A 2.0000001 2.0000001 0 0 1 92.916016 10.556641 A 2.0000001 2.0000001 0 0 1 92.839844 10.373047 A 2.0000001 2.0000001 0 0 1 92.78125 10.181641 A 2.0000001 2.0000001 0 0 1 92.751953 10.033203 A 2.0000001 2.0000001 0 0 1 92.742188 9.9726562 A 2.0000001 2.0000001 0 0 1 92.724609 9.625 A 2.0000001 2.0000001 0 0 1 92.726562 9.5703125 A 2.0000001 2.0000001 0 0 1 92.738281 9.4570312 A 2.0000001 2.0000001 0 0 1 92.748047 9.3789062 A 2.0000001 2.0000001 0 0 1 92.787109 9.1914062 A 2.0000001 2.0000001 0 0 1 92.832031 9.046875 A 2.0000001 2.0000001 0 0 1 92.853516 8.9863281 A 2.0000001 2.0000001 0 0 1 92.886719 8.90625 A 2.0000001 2.0000001 0 0 1 92.9375 8.7929688 A 2.0000001 2.0000001 0 0 1 92.941406 8.7851562 C 92.942414 8.7830163 92.944297 8.7814321 92.945312 8.7792969 A 2.0000001 2.0000001 0 0 1 93.210938 8.390625 C 93.2447 8.3513813 93.27899 8.3137694 93.316406 8.2773438 A 2.0000001 2.0000001 0 0 1 93.712891 7.9726562 C 93.714197 7.9719416 93.715488 7.9714153 93.716797 7.9707031 A 2.0000001 2.0000001 0 0 1 93.720703 7.96875 A 2.0000001 2.0000001 0 0 1 93.875 7.8886719 C 93.887023 7.8830624 93.897626 7.8761537 93.910156 7.8710938 A 2.0000001 2.0000001 0 0 1 93.923828 7.8652344 A 2.0000001 2.0000001 0 0 1 94.019531 7.828125 A 2.0000001 2.0000001 0 0 1 94.115234 7.7929688 A 2.0000001 2.0000001 0 0 1 94.203125 7.7695312 A 2.0000001 2.0000001 0 0 1 94.302734 7.7441406 A 2.0000001 2.0000001 0 0 1 94.419922 7.7246094 A 2.0000001 2.0000001 0 0 1 94.501953 7.7109375 A 2.0000001 2.0000001 0 0 1 94.597656 7.7050781 A 2.0000001 2.0000001 0 0 1 94.685547 7.6992188 z M 101.96484 7.6992188 A 2.0000001 2.0000001 0 0 1 102 7.6992188 L 121.16992 7.6992188 A 2.0000001 2.0000001 0 0 1 121.35547 7.7109375 A 2.0000001 2.0000001 0 0 1 121.375 7.7128906 A 2.0000001 2.0000001 0 0 1 121.54297 7.7363281 A 2.0000001 2.0000001 0 0 1 121.56641 7.7402344 A 2.0000001 2.0000001 0 0 1 121.59375 7.7460938 A 2.0000001 2.0000001 0 0 1 121.67969 7.7675781 A 2.0000001 2.0000001 0 0 1 121.6875 7.7695312 A 2.0000001 2.0000001 0 0 1 122.02539 7.890625 C 122.3799 8.045066 122.64634 8.2905807 122.83203 8.5898438 A 2.0000001 2.0000001 0 0 1 122.97461 8.8417969 A 2.0000001 2.0000001 0 0 1 122.97656 8.8457031 A 2.0000001 2.0000001 0 0 1 123.05273 9.03125 A 2.0000001 2.0000001 0 0 1 123.10742 9.2089844 A 2.0000001 2.0000001 0 0 1 123.11133 9.2226562 A 2.0000001 2.0000001 0 0 1 123.11133 9.2246094 A 2.0000001 2.0000001 0 0 1 123.14453 9.3945312 A 2.0000001 2.0000001 0 0 1 123.14844 9.4179688 A 2.0000001 2.0000001 0 0 1 123.14844 9.421875 A 2.0000001 2.0000001 0 0 1 123.16602 9.6054688 A 2.0000001 2.0000001 0 0 1 123.16797 9.6171875 A 2.0000001 2.0000001 0 0 1 123.16797 9.6191406 A 2.0000001 2.0000001 0 0 1 123.16602 9.7519531 A 2.0000001 2.0000001 0 0 1 123.16406 9.8320312 A 2.0000001 2.0000001 0 0 1 123.16406 9.8398438 A 2.0000001 2.0000001 0 0 1 123.15625 9.8984375 A 2.0000001 2.0000001 0 0 1 123.14258 10.027344 A 2.0000001 2.0000001 0 0 1 123.14062 10.039062 A 2.0000001 2.0000001 0 0 1 123.10352 10.210938 A 2.0000001 2.0000001 0 0 1 123.10156 10.21875 A 2.0000001 2.0000001 0 0 1 123.07617 10.298828 A 2.0000001 2.0000001 0 0 1 123.0332 10.423828 A 2.0000001 2.0000001 0 0 1 122.96289 10.585938 A 2.0000001 2.0000001 0 0 1 122.95312 10.605469 A 2.0000001 2.0000001 0 0 1 122.94922 10.613281 A 2.0000001 2.0000001 0 0 1 122.94531 10.619141 A 2.0000001 2.0000001 0 0 1 122.67969 11.007812 C 122.64593 11.047056 122.61164 11.084668 122.57422 11.121094 A 2.0000001 2.0000001 0 0 1 122.17773 11.425781 C 122.17643 11.426496 122.17514 11.427022 122.17383 11.427734 A 2.0000001 2.0000001 0 0 1 122.16992 11.429688 A 2.0000001 2.0000001 0 0 1 122.01562 11.509766 C 122.0036 11.515375 121.993 11.522284 121.98047 11.527344 A 2.0000001 2.0000001 0 0 1 121.9668 11.533203 A 2.0000001 2.0000001 0 0 1 121.87109 11.570312 A 2.0000001 2.0000001 0 0 1 121.77539 11.605469 A 2.0000001 2.0000001 0 0 1 121.6875 11.628906 A 2.0000001 2.0000001 0 0 1 121.58789 11.654297 A 2.0000001 2.0000001 0 0 1 121.4707 11.673828 A 2.0000001 2.0000001 0 0 1 121.38867 11.6875 A 2.0000001 2.0000001 0 0 1 121.29297 11.693359 A 2.0000001 2.0000001 0 0 1 121.16992 11.699219 L 121.13086 11.699219 L 102 11.699219 A 2.0000001 2.0000001 0 0 1 101.81445 11.6875 A 2.0000001 2.0000001 0 0 1 101.80078 11.6875 A 2.0000001 2.0000001 0 0 1 101.79492 11.685547 A 2.0000001 2.0000001 0 0 1 101.62695 11.662109 A 2.0000001 2.0000001 0 0 1 101.57422 11.652344 A 2.0000001 2.0000001 0 0 1 101.49023 11.630859 C 101.48761 11.630266 101.48504 11.629508 101.48242 11.628906 A 2.0000001 2.0000001 0 0 1 101.14453 11.507812 C 100.79002 11.353372 100.52359 11.107857 100.33789 10.808594 A 2.0000001 2.0000001 0 0 1 100.19531 10.556641 A 2.0000001 2.0000001 0 0 1 100.11914 10.373047 A 2.0000001 2.0000001 0 0 1 100.06055 10.181641 A 2.0000001 2.0000001 0 0 1 100.03125 10.033203 A 2.0000001 2.0000001 0 0 1 100.01953 9.9726562 A 2.0000001 2.0000001 0 0 1 100.00586 9.8320312 A 2.0000001 2.0000001 0 0 1 100.00195 9.78125 A 2.0000001 2.0000001 0 0 1 100.00391 9.6445312 A 2.0000001 2.0000001 0 0 1 100.00586 9.5703125 A 2.0000001 2.0000001 0 0 1 100.01758 9.4570312 A 2.0000001 2.0000001 0 0 1 100.02734 9.3789062 A 2.0000001 2.0000001 0 0 1 100.06641 9.1914062 A 2.0000001 2.0000001 0 0 1 100.11133 9.046875 A 2.0000001 2.0000001 0 0 1 100.13281 8.9863281 A 2.0000001 2.0000001 0 0 1 100.16602 8.90625 A 2.0000001 2.0000001 0 0 1 100.2168 8.7929688 A 2.0000001 2.0000001 0 0 1 100.2207 8.7851562 C 100.22171 8.7830163 100.22359 8.7814321 100.22461 8.7792969 A 2.0000001 2.0000001 0 0 1 100.49023 8.390625 C 100.524 8.3513813 100.55829 8.3137694 100.5957 8.2773438 A 2.0000001 2.0000001 0 0 1 100.99219 7.9726562 C 100.99349 7.9719416 100.99478 7.9714153 100.99609 7.9707031 A 2.0000001 2.0000001 0 0 1 101 7.96875 A 2.0000001 2.0000001 0 0 1 101.1543 7.8886719 C 101.16632 7.8830624 101.17692 7.8761537 101.18945 7.8710938 A 2.0000001 2.0000001 0 0 1 101.20312 7.8652344 A 2.0000001 2.0000001 0 0 1 101.29883 7.828125 A 2.0000001 2.0000001 0 0 1 101.39453 7.7929688 A 2.0000001 2.0000001 0 0 1 101.48242 7.7695312 A 2.0000001 2.0000001 0 0 1 101.58203 7.7441406 A 2.0000001 2.0000001 0 0 1 101.69922 7.7246094 A 2.0000001 2.0000001 0 0 1 101.78125 7.7109375 A 2.0000001 2.0000001 0 0 1 101.87695 7.7050781 A 2.0000001 2.0000001 0 0 1 101.96484 7.6992188 z M 94.685547 16.730469 A 2 2 0 0 1 94.720703 16.730469 A 2 2 0 0 1 94.90625 16.742188 A 2 2 0 0 1 94.919922 16.742188 A 2 2 0 0 1 94.925781 16.744141 A 2 2 0 0 1 95.09375 16.767578 A 2 2 0 0 1 95.144531 16.777344 A 2 2 0 0 1 95.230469 16.798828 C 95.233093 16.799421 95.235664 16.800179 95.238281 16.800781 A 2 2 0 0 1 95.576172 16.921875 C 95.930681 17.076316 96.197119 17.321831 96.382812 17.621094 A 2 2 0 0 1 96.525391 17.873047 A 2 2 0 0 1 96.527344 17.876953 A 2 2 0 0 1 96.603516 18.0625 A 2 2 0 0 1 96.658203 18.240234 A 2 2 0 0 1 96.662109 18.253906 A 2 2 0 0 1 96.662109 18.255859 A 2 2 0 0 1 96.695312 18.425781 A 2 2 0 0 1 96.699219 18.449219 A 2 2 0 0 1 96.699219 18.453125 A 2 2 0 0 1 96.716797 18.636719 A 2 2 0 0 1 96.71875 18.648438 A 2 2 0 0 1 96.71875 18.650391 A 2 2 0 0 1 96.716797 18.783203 A 2 2 0 0 1 96.714844 18.863281 A 2 2 0 0 1 96.714844 18.871094 A 2 2 0 0 1 96.707031 18.929688 A 2 2 0 0 1 96.693359 19.058594 A 2 2 0 0 1 96.691406 19.070312 A 2 2 0 0 1 96.654297 19.242188 A 2 2 0 0 1 96.652344 19.25 A 2 2 0 0 1 96.626953 19.330078 A 2 2 0 0 1 96.583984 19.455078 A 2 2 0 0 1 96.513672 19.617188 A 2 2 0 0 1 96.503906 19.636719 A 2 2 0 0 1 96.5 19.644531 A 2 2 0 0 1 96.496094 19.650391 A 2 2 0 0 1 96.230469 20.039062 C 96.196707 20.078306 96.162416 20.115918 96.125 20.152344 A 2 2 0 0 1 95.728516 20.457031 C 95.727209 20.457746 95.725918 20.458272 95.724609 20.458984 A 2 2 0 0 1 95.720703 20.460938 A 2 2 0 0 1 95.566406 20.541016 C 95.554383 20.546625 95.54378 20.553534 95.53125 20.558594 A 2 2 0 0 1 95.517578 20.564453 A 2 2 0 0 1 95.421875 20.601562 A 2 2 0 0 1 95.326172 20.636719 A 2 2 0 0 1 95.3125 20.640625 A 2 2 0 0 1 95.238281 20.660156 A 2 2 0 0 1 95.138672 20.685547 A 2 2 0 0 1 95.021484 20.705078 A 2 2 0 0 1 94.939453 20.71875 A 2 2 0 0 1 94.84375 20.724609 A 2 2 0 0 1 94.720703 20.730469 A 2 2 0 0 1 94.535156 20.71875 A 2 2 0 0 1 94.515625 20.716797 A 2 2 0 0 1 94.347656 20.693359 A 2 2 0 0 1 94.296875 20.683594 A 2 2 0 0 1 94.210938 20.662109 C 94.208313 20.661516 94.205743 20.660758 94.203125 20.660156 A 2 2 0 0 1 93.865234 20.539062 C 93.510725 20.384622 93.244287 20.139107 93.058594 19.839844 A 2 2 0 0 1 92.916016 19.587891 A 2 2 0 0 1 92.839844 19.404297 A 2 2 0 0 1 92.78125 19.212891 A 2 2 0 0 1 92.751953 19.064453 A 2 2 0 0 1 92.742188 19.003906 A 2 2 0 0 1 92.724609 18.65625 A 2 2 0 0 1 92.726562 18.601562 A 2 2 0 0 1 92.738281 18.488281 A 2 2 0 0 1 92.748047 18.410156 A 2 2 0 0 1 92.787109 18.222656 A 2 2 0 0 1 92.832031 18.078125 A 2 2 0 0 1 92.853516 18.017578 A 2 2 0 0 1 92.886719 17.9375 A 2 2 0 0 1 92.9375 17.824219 A 2 2 0 0 1 92.941406 17.816406 C 92.942414 17.814266 92.944297 17.812682 92.945312 17.810547 A 2 2 0 0 1 93.210938 17.421875 C 93.2447 17.382631 93.27899 17.345019 93.316406 17.308594 A 2 2 0 0 1 93.712891 17.003906 C 93.714197 17.003192 93.715488 17.002665 93.716797 17.001953 A 2 2 0 0 1 93.720703 17 A 2 2 0 0 1 93.875 16.919922 C 93.887023 16.914312 93.897626 16.907404 93.910156 16.902344 A 2 2 0 0 1 93.923828 16.896484 A 2 2 0 0 1 94.019531 16.859375 A 2 2 0 0 1 94.115234 16.824219 A 2 2 0 0 1 94.203125 16.800781 A 2 2 0 0 1 94.302734 16.775391 A 2 2 0 0 1 94.419922 16.755859 A 2 2 0 0 1 94.501953 16.742188 A 2 2 0 0 1 94.597656 16.736328 A 2 2 0 0 1 94.685547 16.730469 z M 101.96484 16.730469 A 2 2 0 0 1 102 16.730469 L 121.16992 16.730469 A 2.0001 2.0001 0 0 1 121.33203 16.740234 A 2.0001 2.0001 0 0 1 121.39844 16.748047 A 2.0001 2.0001 0 0 1 121.55078 16.773438 A 2.0001 2.0001 0 0 1 121.58008 16.779297 A 2.0001 2.0001 0 0 1 121.71875 16.814453 A 2.0001 2.0001 0 0 1 122.04297 16.9375 C 122.39932 17.100433 122.66306 17.357152 122.84375 17.666016 A 2.0001 2.0001 0 0 1 122.9668 17.888672 C 122.96737 17.890016 122.96818 17.891232 122.96875 17.892578 A 2.0001 2.0001 0 0 1 122.96875 17.894531 A 2.0001 2.0001 0 0 1 123.04297 18.078125 A 2.0001 2.0001 0 0 1 123.0957 18.257812 A 2.0001 2.0001 0 0 1 123.09961 18.269531 A 2.0001 2.0001 0 0 1 123.09961 18.271484 A 2.0001 2.0001 0 0 1 123.13477 18.466797 A 2.0001 2.0001 0 0 1 123.15234 18.664062 A 2.0001 2.0001 0 0 1 123.15234 18.666016 A 2.0001 2.0001 0 0 1 123.14844 18.865234 A 2.0001 2.0001 0 0 1 123.125 19.064453 A 2.0001 2.0001 0 0 1 122.9375 19.632812 A 2.0001 2.0001 0 0 1 122.85938 19.771484 A 2.0001 2.0001 0 0 1 122.85742 19.775391 A 2.0001 2.0001 0 0 1 122.85742 19.777344 A 2.0001 2.0001 0 0 1 122.73633 19.951172 C 122.57601 20.171221 122.36654 20.35562 122.10547 20.488281 A 2.0001 2.0001 0 0 1 122.0918 20.496094 C 122.0406 20.521558 121.99267 20.549006 121.9375 20.570312 A 2.0001 2.0001 0 0 1 121.93359 20.572266 A 2.0001 2.0001 0 0 1 121.75 20.638672 A 2.0001 2.0001 0 0 1 121.59375 20.679688 A 2.0001 2.0001 0 0 1 121.54688 20.691406 A 2.0001 2.0001 0 0 1 121.45703 20.705078 A 2.0001 2.0001 0 0 1 121.33594 20.722656 A 2.0001 2.0001 0 0 1 121.33008 20.722656 A 2.0001 2.0001 0 0 1 121.27344 20.724609 A 2.0001 2.0001 0 0 1 121.13086 20.730469 L 102 20.730469 A 2 2 0 0 1 101.81445 20.71875 A 2 2 0 0 1 101.80078 20.71875 A 2 2 0 0 1 101.79492 20.716797 A 2 2 0 0 1 101.62695 20.693359 A 2 2 0 0 1 101.57422 20.683594 A 2 2 0 0 1 101.49023 20.662109 C 101.48761 20.661516 101.48504 20.660758 101.48242 20.660156 A 2 2 0 0 1 101.14453 20.539062 C 100.79002 20.384622 100.52359 20.139107 100.33789 19.839844 A 2 2 0 0 1 100.19531 19.587891 A 2 2 0 0 1 100.11914 19.404297 A 2 2 0 0 1 100.06055 19.212891 A 2 2 0 0 1 100.03125 19.064453 A 2 2 0 0 1 100.01953 19.003906 A 2 2 0 0 1 100.00586 18.863281 A 2 2 0 0 1 100.00195 18.8125 A 2 2 0 0 1 100.00391 18.675781 A 2 2 0 0 1 100.00586 18.601562 A 2 2 0 0 1 100.01758 18.488281 A 2 2 0 0 1 100.02734 18.410156 A 2 2 0 0 1 100.06641 18.222656 A 2 2 0 0 1 100.11133 18.078125 A 2 2 0 0 1 100.12695 18.03125 A 2 2 0 0 1 100.13281 18.017578 A 2 2 0 0 1 100.16602 17.9375 A 2 2 0 0 1 100.2168 17.824219 A 2 2 0 0 1 100.2207 17.816406 C 100.22171 17.814266 100.22359 17.812682 100.22461 17.810547 A 2 2 0 0 1 100.49023 17.421875 C 100.524 17.382631 100.55829 17.345019 100.5957 17.308594 A 2 2 0 0 1 100.99219 17.003906 C 100.99349 17.003192 100.99478 17.002665 100.99609 17.001953 A 2 2 0 0 1 101 17 A 2 2 0 0 1 101.1543 16.919922 C 101.16632 16.914312 101.17692 16.907404 101.18945 16.902344 A 2 2 0 0 1 101.20312 16.896484 A 2 2 0 0 1 101.29883 16.859375 A 2 2 0 0 1 101.39453 16.824219 A 2 2 0 0 1 101.48242 16.800781 A 2 2 0 0 1 101.58203 16.775391 A 2 2 0 0 1 101.69922 16.755859 A 2 2 0 0 1 101.78125 16.742188 A 2 2 0 0 1 101.87695 16.736328 A 2 2 0 0 1 101.96484 16.730469 z M 137.66016 18.720703 C 137.5512 18.720629 137.44843 18.742305 137.35352 18.78125 A 0.81 0.81 0 0 0 137.33789 18.789062 C 137.24514 18.829538 137.16063 18.886693 137.08984 18.957031 A 0.81 0.81 0 0 0 137.08789 18.957031 C 137.08725 18.957669 137.08657 18.958344 137.08594 18.958984 C 137.01349 19.031743 136.95481 19.118904 136.91406 19.214844 C 136.87296 19.311627 136.8498 19.417543 136.84961 19.529297 L 136.84961 20.339844 C 136.84943 20.450097 136.87078 20.554276 136.91016 20.650391 A 0.819 0.819 0 0 0 136.91602 20.664062 C 136.95671 20.758452 137.0147 20.843919 137.08594 20.916016 A 0.819 0.819 0 0 0 137.08789 20.916016 C 137.15928 20.987981 137.24388 21.048208 137.33789 21.089844 A 0.819 0.819 0 0 0 137.34375 21.09375 C 137.34617 21.094795 137.34913 21.09468 137.35156 21.095703 C 137.44674 21.13577 137.55057 21.159026 137.66016 21.160156 C 137.77199 21.159926 137.87749 21.136365 137.97461 21.095703 A 0.822 0.822 0 0 0 137.98242 21.09375 C 138.07802 21.052599 138.16551 20.99417 138.23828 20.921875 A 0.822 0.822 0 0 0 138.24023 20.919922 C 138.24125 20.918903 138.24117 20.91704 138.24219 20.916016 C 138.31333 20.844129 138.37123 20.758154 138.41211 20.664062 A 0.822 0.822 0 0 0 138.41602 20.658203 C 138.41705 20.655775 138.41696 20.652831 138.41797 20.650391 C 138.45763 20.554301 138.48024 20.450206 138.48047 20.339844 L 138.48047 19.529297 C 138.47732 19.421356 138.4524 19.320328 138.41211 19.226562 A 0.833 0.833 0 0 0 138.40625 19.210938 C 138.36413 19.118197 138.3057 19.033652 138.23438 18.962891 A 0.833 0.833 0 0 0 138.23242 18.960938 C 138.23178 18.960303 138.23111 18.959617 138.23047 18.958984 C 138.15701 18.887046 138.07055 18.828051 137.97461 18.787109 C 137.97403 18.786864 137.97323 18.787354 137.97266 18.787109 C 137.87634 18.746264 137.77093 18.722344 137.66016 18.720703 z M 134 22.349609 C 133.88806 22.349443 133.78091 22.371798 133.68359 22.412109 C 133.67903 22.413999 133.67444 22.415999 133.66992 22.417969 C 133.57486 22.459379 133.49031 22.519568 133.41797 22.591797 A 0.823 0.823 0 0 0 133.41602 22.591797 C 133.41537 22.59244 133.4147 22.593105 133.41406 22.59375 C 133.34161 22.666858 133.28524 22.753597 133.24414 22.849609 C 133.24342 22.851304 133.24095 22.851815 133.24023 22.853516 A 0.823 0.823 0 0 0 133.24023 22.855469 C 133.23999 22.856046 133.24047 22.856844 133.24023 22.857422 C 133.19961 22.955388 133.17535 23.063049 133.17578 23.175781 C 133.17575 23.28746 133.19805 23.393105 133.23828 23.490234 A 0.824 0.824 0 0 0 133.24414 23.501953 C 133.28572 23.597949 133.34505 23.684891 133.41797 23.757812 C 133.49255 23.832394 133.58107 23.893849 133.67969 23.935547 C 133.77831 23.977245 133.88619 24.00003 134 24 L 134.81055 24 C 134.92255 23.996351 135.01748 23.968369 135.10547 23.933594 A 0.81 0.81 0 0 0 135.10742 23.931641 A 0.81 0.81 0 0 0 135.21484 23.876953 C 135.25462 23.852994 135.28888 23.824756 135.32227 23.794922 A 0.81 0.81 0 0 0 135.44727 23.652344 C 135.47438 23.611122 135.5025 23.570785 135.52148 23.525391 A 0.81 0.81 0 0 0 135.55078 23.447266 C 135.57551 23.365962 135.5932 23.280563 135.59375 23.195312 A 0.81 0.81 0 0 0 135.59375 23.189453 C 135.59375 23.18816 135.59376 23.18684 135.59375 23.185547 C 135.59336 23.09575 135.57604 23.007132 135.54883 22.921875 A 0.81 0.81 0 0 0 135.52148 22.859375 C 135.49912 22.805287 135.4694 22.755066 135.43555 22.707031 A 0.81 0.81 0 0 0 135.32812 22.589844 C 135.32746 22.589234 135.32684 22.588498 135.32617 22.587891 C 135.29366 22.558494 135.25935 22.531611 135.2207 22.507812 A 0.81 0.81 0 0 0 135.10352 22.447266 C 135.01593 22.412881 134.92184 22.384485 134.81055 22.380859 L 134.82031 22.349609 L 134 22.349609 z M 140.49023 22.349609 C 140.36328 22.349609 140.25338 22.376533 140.15625 22.416016 A 0.81071697 0.81071697 0 0 0 140.11914 22.431641 C 140.03013 22.473528 139.9544 22.52844 139.89258 22.595703 A 0.81071697 0.81071697 0 0 0 139.87891 22.611328 C 139.61708 22.913073 139.6163 23.404417 139.87695 23.707031 A 0.81071697 0.81071697 0 0 0 139.89258 23.724609 C 139.95345 23.790837 140.028 23.845024 140.11523 23.886719 A 0.81071697 0.81071697 0 0 0 140.15234 23.904297 C 140.25022 23.944613 140.36185 23.970703 140.49023 23.970703 L 141.31055 23.970703 C 141.42565 23.970703 141.5227 23.943014 141.61328 23.910156 A 0.810547 0.810547 0 0 0 141.72656 23.857422 C 141.72738 23.856958 141.7277 23.855935 141.72852 23.855469 C 141.76265 23.835894 141.79073 23.81107 141.82031 23.787109 A 0.810547 0.810547 0 0 0 141.96094 23.644531 C 141.99371 23.597967 142.02484 23.550407 142.04688 23.498047 A 0.810547 0.810547 0 0 0 142.04883 23.494141 A 0.810547 0.810547 0 0 0 142.07422 23.429688 C 142.10189 23.343017 142.1209 23.253492 142.12109 23.162109 A 0.810547 0.810547 0 0 0 142.12109 23.15625 C 142.12071 23.066922 142.10281 22.979393 142.07617 22.894531 A 0.810547 0.810547 0 0 0 142.04688 22.822266 C 142.02632 22.773417 141.9967 22.729418 141.9668 22.685547 A 0.810547 0.810547 0 0 0 141.83203 22.541016 A 0.810547 0.810547 0 0 0 141.83008 22.539062 C 141.80124 22.514946 141.77158 22.492539 141.73828 22.472656 A 0.810547 0.810547 0 0 0 141.61523 22.410156 C 141.52424 22.376914 141.42636 22.349609 141.31055 22.349609 L 140.49023 22.349609 z M 137.66016 25.169922 C 137.54821 25.169846 137.44075 25.193383 137.34375 25.234375 C 137.25065 25.273719 137.16718 25.329123 137.0957 25.398438 A 0.81 0.81 0 0 0 137.0918 25.402344 A 0.81 0.81 0 0 0 137.08008 25.416016 C 137.01042 25.487659 136.95355 25.570622 136.91406 25.664062 C 136.87307 25.761065 136.84953 25.868524 136.84961 25.980469 L 136.84961 26.789062 C 136.84953 26.901007 136.87307 27.008467 136.91406 27.105469 C 136.95341 27.198571 137.00881 27.28204 137.07812 27.353516 A 0.81 0.81 0 0 0 137.08203 27.357422 A 0.81 0.81 0 0 0 137.0957 27.369141 C 137.16735 27.438803 137.25031 27.495669 137.34375 27.535156 C 137.44075 27.576148 137.54821 27.599685 137.66016 27.599609 C 137.77046 27.599928 137.87454 27.578391 137.9707 27.539062 A 0.818 0.818 0 0 0 137.97656 27.537109 C 137.97875 27.536195 137.98024 27.534136 137.98242 27.533203 C 138.0753 27.493455 138.16098 27.436586 138.23242 27.367188 A 0.818 0.818 0 0 0 138.24414 27.355469 C 138.31349 27.285294 138.36968 27.20285 138.41016 27.111328 A 0.818 0.818 0 0 0 138.41602 27.097656 C 138.45604 27.00243 138.47947 26.898704 138.48047 26.789062 L 138.48047 26 C 138.48072 25.886221 138.45732 25.778511 138.41602 25.679688 C 138.37507 25.581711 138.31742 25.492616 138.24414 25.417969 A 0.828 0.828 0 0 0 138.24023 25.414062 C 138.16685 25.340277 138.07929 25.280349 137.98242 25.238281 A 0.828 0.828 0 0 0 137.98047 25.238281 C 137.88215 25.195819 137.77393 25.170978 137.66016 25.169922 z M 94.685547 25.769531 A 2 2 0 0 1 94.720703 25.769531 A 2 2 0 0 1 94.90625 25.78125 A 2 2 0 0 1 94.919922 25.78125 A 2 2 0 0 1 94.925781 25.783203 A 2 2 0 0 1 95.09375 25.806641 A 2 2 0 0 1 95.144531 25.816406 A 2 2 0 0 1 95.230469 25.837891 C 95.233093 25.838484 95.235664 25.839242 95.238281 25.839844 A 2 2 0 0 1 95.576172 25.960938 C 95.930681 26.115378 96.197119 26.360893 96.382812 26.660156 A 2 2 0 0 1 96.525391 26.912109 A 2 2 0 0 1 96.527344 26.916016 A 2 2 0 0 1 96.603516 27.101562 A 2 2 0 0 1 96.658203 27.279297 A 2 2 0 0 1 96.662109 27.292969 A 2 2 0 0 1 96.662109 27.294922 A 2 2 0 0 1 96.695312 27.464844 A 2 2 0 0 1 96.699219 27.488281 A 2 2 0 0 1 96.699219 27.492188 A 2 2 0 0 1 96.716797 27.675781 A 2 2 0 0 1 96.71875 27.6875 A 2 2 0 0 1 96.71875 27.689453 A 2 2 0 0 1 96.716797 27.822266 A 2 2 0 0 1 96.714844 27.902344 A 2 2 0 0 1 96.714844 27.910156 A 2 2 0 0 1 96.707031 27.96875 A 2 2 0 0 1 96.693359 28.097656 A 2 2 0 0 1 96.691406 28.109375 A 2 2 0 0 1 96.654297 28.28125 A 2 2 0 0 1 96.652344 28.289062 A 2 2 0 0 1 96.626953 28.369141 A 2 2 0 0 1 96.583984 28.494141 A 2 2 0 0 1 96.513672 28.65625 A 2 2 0 0 1 96.503906 28.675781 A 2 2 0 0 1 96.5 28.683594 A 2 2 0 0 1 96.496094 28.689453 A 2 2 0 0 1 96.230469 29.078125 C 96.196707 29.117369 96.162416 29.154981 96.125 29.191406 A 2 2 0 0 1 95.728516 29.496094 C 95.727209 29.496808 95.725918 29.497335 95.724609 29.498047 A 2 2 0 0 1 95.720703 29.5 A 2 2 0 0 1 95.566406 29.580078 C 95.554383 29.585688 95.54378 29.592596 95.53125 29.597656 A 2 2 0 0 1 95.517578 29.603516 A 2 2 0 0 1 95.421875 29.640625 A 2 2 0 0 1 95.326172 29.675781 A 2 2 0 0 1 95.3125 29.679688 A 2 2 0 0 1 95.238281 29.699219 A 2 2 0 0 1 95.138672 29.724609 A 2 2 0 0 1 95.021484 29.744141 A 2 2 0 0 1 94.939453 29.757812 A 2 2 0 0 1 94.84375 29.763672 A 2 2 0 0 1 94.720703 29.769531 A 2 2 0 0 1 94.535156 29.757812 A 2 2 0 0 1 94.515625 29.755859 A 2 2 0 0 1 94.347656 29.732422 A 2 2 0 0 1 94.296875 29.722656 A 2 2 0 0 1 94.210938 29.701172 C 94.208313 29.700579 94.205743 29.699821 94.203125 29.699219 A 2 2 0 0 1 93.865234 29.578125 C 93.510725 29.423684 93.244287 29.178169 93.058594 28.878906 A 2 2 0 0 1 92.916016 28.626953 A 2 2 0 0 1 92.839844 28.443359 A 2 2 0 0 1 92.78125 28.251953 A 2 2 0 0 1 92.751953 28.103516 A 2 2 0 0 1 92.742188 28.042969 A 2 2 0 0 1 92.724609 27.695312 A 2 2 0 0 1 92.726562 27.640625 A 2 2 0 0 1 92.738281 27.527344 A 2 2 0 0 1 92.748047 27.449219 A 2 2 0 0 1 92.787109 27.261719 A 2 2 0 0 1 92.832031 27.117188 A 2 2 0 0 1 92.853516 27.056641 A 2 2 0 0 1 92.886719 26.976562 A 2 2 0 0 1 92.9375 26.863281 A 2 2 0 0 1 92.941406 26.855469 C 92.942414 26.853329 92.944297 26.851745 92.945312 26.849609 A 2 2 0 0 1 93.210938 26.460938 C 93.2447 26.421694 93.27899 26.384082 93.316406 26.347656 A 2 2 0 0 1 93.712891 26.042969 C 93.714197 26.042254 93.715488 26.041728 93.716797 26.041016 A 2 2 0 0 1 93.720703 26.039062 A 2 2 0 0 1 93.875 25.958984 C 93.887023 25.953375 93.897626 25.946466 93.910156 25.941406 A 2 2 0 0 1 93.923828 25.935547 A 2 2 0 0 1 94.019531 25.898438 A 2 2 0 0 1 94.115234 25.863281 A 2 2 0 0 1 94.203125 25.839844 A 2 2 0 0 1 94.302734 25.814453 A 2 2 0 0 1 94.419922 25.794922 A 2 2 0 0 1 94.501953 25.78125 A 2 2 0 0 1 94.597656 25.775391 A 2 2 0 0 1 94.685547 25.769531 z M 101.96484 25.769531 A 2 2 0 0 1 102 25.769531 L 121.16992 25.769531 A 2.0001 2.0001 0 0 1 121.33203 25.779297 A 2.0001 2.0001 0 0 1 121.39844 25.787109 A 2.0001 2.0001 0 0 1 121.55078 25.8125 A 2.0001 2.0001 0 0 1 121.58008 25.818359 A 2.0001 2.0001 0 0 1 121.71875 25.853516 A 2.0001 2.0001 0 0 1 122.04297 25.976562 C 122.39932 26.139495 122.66306 26.396214 122.84375 26.705078 A 2.0001 2.0001 0 0 1 122.9668 26.927734 C 122.96737 26.929079 122.96818 26.930295 122.96875 26.931641 A 2.0001 2.0001 0 0 1 122.96875 26.933594 A 2.0001 2.0001 0 0 1 123.04297 27.117188 A 2.0001 2.0001 0 0 1 123.0957 27.296875 A 2.0001 2.0001 0 0 1 123.09961 27.308594 A 2.0001 2.0001 0 0 1 123.09961 27.310547 A 2.0001 2.0001 0 0 1 123.13477 27.505859 A 2.0001 2.0001 0 0 1 123.15234 27.703125 A 2.0001 2.0001 0 0 1 123.15234 27.705078 A 2.0001 2.0001 0 0 1 123.14844 27.904297 A 2.0001 2.0001 0 0 1 123.125 28.103516 A 2.0001 2.0001 0 0 1 122.9375 28.671875 A 2.0001 2.0001 0 0 1 122.85938 28.810547 A 2.0001 2.0001 0 0 1 122.85742 28.814453 A 2.0001 2.0001 0 0 1 122.85742 28.816406 A 2.0001 2.0001 0 0 1 122.73633 28.990234 C 122.57601 29.210284 122.36654 29.394682 122.10547 29.527344 A 2.0001 2.0001 0 0 1 122.0918 29.535156 C 122.0406 29.560621 121.99267 29.588068 121.9375 29.609375 A 2.0001 2.0001 0 0 1 121.93359 29.611328 A 2.0001 2.0001 0 0 1 121.75 29.677734 A 2.0001 2.0001 0 0 1 121.59375 29.71875 A 2.0001 2.0001 0 0 1 121.54688 29.730469 A 2.0001 2.0001 0 0 1 121.45703 29.744141 A 2.0001 2.0001 0 0 1 121.33594 29.761719 A 2.0001 2.0001 0 0 1 121.33008 29.761719 A 2.0001 2.0001 0 0 1 121.27344 29.763672 A 2.0001 2.0001 0 0 1 121.13086 29.769531 L 102 29.769531 A 2 2 0 0 1 101.81445 29.757812 A 2 2 0 0 1 101.80078 29.757812 A 2 2 0 0 1 101.79492 29.755859 A 2 2 0 0 1 101.62695 29.732422 A 2 2 0 0 1 101.57422 29.722656 A 2 2 0 0 1 101.49023 29.701172 C 101.48761 29.700579 101.48504 29.699821 101.48242 29.699219 A 2 2 0 0 1 101.14453 29.578125 C 100.79002 29.423684 100.52359 29.178169 100.33789 28.878906 A 2 2 0 0 1 100.19531 28.626953 A 2 2 0 0 1 100.11914 28.443359 A 2 2 0 0 1 100.06055 28.251953 A 2 2 0 0 1 100.03125 28.103516 A 2 2 0 0 1 100.01953 28.042969 A 2 2 0 0 1 100.00586 27.902344 A 2 2 0 0 1 100.00195 27.851562 A 2 2 0 0 1 100.00391 27.714844 A 2 2 0 0 1 100.00586 27.640625 A 2 2 0 0 1 100.01758 27.527344 A 2 2 0 0 1 100.02734 27.449219 A 2 2 0 0 1 100.06641 27.261719 A 2 2 0 0 1 100.11133 27.117188 A 2 2 0 0 1 100.12695 27.070312 A 2 2 0 0 1 100.13281 27.056641 A 2 2 0 0 1 100.16602 26.976562 A 2 2 0 0 1 100.2168 26.863281 A 2 2 0 0 1 100.2207 26.855469 C 100.22171 26.853329 100.22359 26.851745 100.22461 26.849609 A 2 2 0 0 1 100.49023 26.460938 C 100.524 26.421694 100.55829 26.384082 100.5957 26.347656 A 2 2 0 0 1 100.99219 26.042969 C 100.99349 26.042254 100.99478 26.041728 100.99609 26.041016 A 2 2 0 0 1 101 26.039062 A 2 2 0 0 1 101.1543 25.958984 C 101.16632 25.953375 101.17692 25.946466 101.18945 25.941406 A 2 2 0 0 1 101.20312 25.935547 A 2 2 0 0 1 101.29883 25.898438 A 2 2 0 0 1 101.39453 25.863281 A 2 2 0 0 1 101.48242 25.839844 A 2 2 0 0 1 101.58203 25.814453 A 2 2 0 0 1 101.69922 25.794922 A 2 2 0 0 1 101.78125 25.78125 A 2 2 0 0 1 101.87695 25.775391 A 2 2 0 0 1 101.96484 25.769531 z M 75.230469 67.640625 A 3.932 3.932 0 0 0 74.890625 67.65625 A 3.932 3.932 0 0 0 74.716797 67.675781 A 3.932 3.932 0 0 0 74.5 67.707031 A 3.932 3.932 0 0 0 74.337891 67.742188 A 3.932 3.932 0 0 0 74.113281 67.798828 A 3.932 3.932 0 0 0 73.943359 67.855469 A 3.932 3.932 0 0 0 73.759766 67.919922 A 3.932 3.932 0 0 0 73.568359 68.005859 A 3.932 3.932 0 0 0 73.388672 68.091797 A 3.932 3.932 0 0 0 73.244141 68.173828 A 3.932 3.932 0 0 0 73.050781 68.291016 A 3.932 3.932 0 0 0 72.921875 68.380859 A 3.932 3.932 0 0 0 72.728516 68.525391 A 3.932 3.932 0 0 0 72.609375 68.630859 A 3.932 3.932 0 0 0 72.443359 68.783203 A 3.932 3.932 0 0 0 72.302734 68.933594 A 3.932 3.932 0 0 0 72.191406 69.056641 A 3.932 3.932 0 0 0 72.044922 69.248047 A 3.932 3.932 0 0 0 71.953125 69.375 A 3.932 3.932 0 0 0 71.826172 69.580078 A 3.932 3.932 0 0 0 71.751953 69.707031 A 3.932 3.932 0 0 0 71.646484 69.921875 A 3.932 3.932 0 0 0 71.580078 70.066406 A 3.932 3.932 0 0 0 71.503906 70.275391 A 3.932 3.932 0 0 0 71.445312 70.447266 A 3.932 3.932 0 0 0 71.400391 70.621094 A 3.932 3.932 0 0 0 71.351562 70.835938 A 3.932 3.932 0 0 0 71.326172 71 A 3.932 3.932 0 0 0 71.296875 71.228516 A 3.932 3.932 0 0 0 71.279297 71.550781 L 72 71.550781 L 105.46094 71.550781 A 11.798 11.798 0 0 1 117.28906 83.320312 L 117.28906 83.876953 A 10.261 10.261 0 0 0 117.97656 102.70312 C 119.25856 103.19912 120.626 103.43362 122 103.39062 L 125.07812 103.39062 A 11.8 11.8 0 0 0 125.09961 103.27734 C 125.09693 103.27698 125.09447 103.27575 125.0918 103.27539 C 123.21649 103.0208 121.50402 102.26498 120.09375 101.13867 C 119.90481 100.98778 119.72456 100.8277 119.54688 100.66406 C 119.48951 100.61138 119.42919 100.56177 119.37305 100.50781 C 119.21347 100.35403 119.06342 100.19111 118.91406 100.02734 C 118.85336 99.960965 118.79138 99.89609 118.73242 99.828125 C 118.59877 99.673655 118.47203 99.513893 118.34766 99.351562 C 118.27708 99.259673 118.20616 99.168533 118.13867 99.074219 C 118.02821 98.919485 117.92417 98.760577 117.82227 98.599609 C 117.75367 98.491523 117.68764 98.382268 117.62305 98.271484 C 117.53291 98.116566 117.44539 97.960716 117.36328 97.800781 C 117.2982 97.67427 117.23763 97.545526 117.17773 97.416016 C 117.1059 97.260385 117.03484 97.105037 116.9707 96.945312 C 116.90747 96.788195 116.85241 96.62767 116.79688 96.466797 C 116.75167 96.335647 116.70403 96.205762 116.66406 96.072266 C 116.60487 95.874846 116.55715 95.672956 116.50977 95.470703 C 116.48245 95.353926 116.45102 95.239368 116.42773 95.121094 C 116.38564 94.90769 116.35673 94.690625 116.32812 94.472656 C 116.31325 94.35922 116.29239 94.247384 116.28125 94.132812 C 116.24925 93.803288 116.23047 93.468851 116.23047 93.130859 C 116.23047 92.756568 116.25775 92.389263 116.29688 92.025391 C 116.3005 91.992918 116.30284 91.960191 116.30664 91.927734 C 116.30726 91.922532 116.30798 91.917312 116.30859 91.912109 C 116.31478 91.860124 116.32428 91.809272 116.33203 91.757812 C 116.35909 91.556363 116.38719 91.355759 116.42578 91.158203 C 116.43362 91.111816 116.44157 91.065373 116.45117 91.019531 C 116.46508 90.953304 116.48659 90.889929 116.50195 90.824219 C 116.54803 90.624355 116.59671 90.425666 116.6543 90.230469 C 116.65809 90.21766 116.66023 90.204196 116.66406 90.191406 C 116.6693 90.173909 116.67827 90.158084 116.68359 90.140625 C 116.79586 89.772742 116.92684 89.413459 117.07812 89.064453 C 117.08693 89.044128 117.09263 89.022208 117.10156 89.001953 C 117.10214 89.000636 117.10293 88.999364 117.10352 88.998047 C 117.11026 88.982807 117.11788 88.968124 117.125 88.953125 C 117.32257 88.511747 117.55302 88.089247 117.80859 87.683594 C 117.81845 87.667385 117.82766 87.650781 117.83789 87.634766 L 117.83984 87.632812 C 117.84209 87.62929 117.84541 87.626566 117.84766 87.623047 C 118.31442 86.893645 118.86904 86.228348 119.5 85.640625 C 119.50135 85.639368 119.50256 85.637975 119.50391 85.636719 C 119.50525 85.635463 119.50646 85.63407 119.50781 85.632812 C 119.52032 85.621199 119.5324 85.609208 119.54492 85.597656 C 119.55646 85.587037 119.56849 85.576973 119.58008 85.566406 C 119.92589 85.251065 120.29105 84.959505 120.67773 84.693359 C 121.04798 84.438531 121.43466 84.205259 121.83789 84 C 122.21956 83.805718 122.61603 83.638248 123.02344 83.492188 C 123.02757 83.490705 123.03102 83.487806 123.03516 83.486328 C 123.09196 83.465865 123.14781 83.443307 123.20508 83.423828 C 123.27096 83.4016 123.33787 83.38186 123.4043 83.361328 C 123.5645 83.310956 123.72713 83.267227 123.89062 83.224609 C 123.97592 83.202587 124.06033 83.178385 124.14648 83.158203 C 124.25478 83.132945 124.36111 83.103825 124.4707 83.082031 C 124.44484 82.721618 124.4046 82.363899 124.35547 82.007812 C 124.35475 82.002605 124.35424 81.997394 124.35352 81.992188 C 124.32833 81.810825 124.29671 81.63119 124.26562 81.451172 C 124.24393 81.325435 124.22571 81.199238 124.20117 81.074219 C 124.16102 80.869791 124.1121 80.667196 124.06445 80.464844 C 124.04016 80.361634 124.02036 80.256924 123.99414 80.154297 C 123.99379 80.152909 123.99254 80.151779 123.99219 80.150391 C 123.84888 79.590015 123.67366 79.040322 123.47461 78.5 C 123.46074 78.462341 123.44773 78.424269 123.43359 78.386719 C 123.24126 77.875866 123.02106 77.375331 122.78125 76.886719 C 122.74803 76.819035 122.71574 76.75081 122.68164 76.683594 C 122.44466 76.216557 122.18475 75.762777 121.90625 75.320312 C 121.85851 75.244454 121.81064 75.168828 121.76172 75.09375 C 121.4746 74.653231 121.16839 74.226051 120.8418 73.814453 C 120.79746 73.758556 120.75207 73.703765 120.70703 73.648438 C 120.36188 73.224638 119.99845 72.815893 119.61328 72.427734 C 119.58504 72.39927 119.55579 72.372011 119.52734 72.34375 C 119.1213 71.940444 118.69693 71.554894 118.25 71.195312 C 118.24787 71.193595 118.24628 71.19117 118.24414 71.189453 C 118.18733 71.143794 118.12776 71.101552 118.07031 71.056641 C 117.8906 70.916133 117.71119 70.775589 117.52539 70.642578 C 117.2802 70.467052 117.02889 70.298622 116.77344 70.136719 A 16.396 16.396 0 0 0 116.63867 70.054688 C 116.32463 69.859723 116.00443 69.67327 115.67578 69.5 A 16.396 16.396 0 0 0 115.12109 69.232422 A 16.396 16.396 0 0 0 114.35938 68.873047 A 16.401 16.401 0 0 0 113.08398 68.421875 C 112.92619 68.372859 112.76851 68.325316 112.60938 68.28125 C 112.60739 68.2807 112.6055 68.279846 112.60352 68.279297 A 16.401 16.401 0 0 0 112.0625 68.142578 C 111.51941 68.012086 110.97138 67.900622 110.41797 67.822266 C 110.07008 67.773009 109.72125 67.734353 109.37109 67.703125 A 16.401 16.401 0 0 0 108.08008 67.640625 L 75.230469 67.640625 z M 60.109375 84 A 3.93 3.93 0 0 0 59.775391 84.017578 A 3.93 3.93 0 0 0 59.59375 84.037109 A 3.93 3.93 0 0 0 59.400391 84.066406 A 3.93 3.93 0 0 0 59.199219 84.107422 A 3.93 3.93 0 0 0 59.011719 84.15625 A 3.93 3.93 0 0 0 58.830078 84.214844 A 3.93 3.93 0 0 0 58.634766 84.285156 A 3.93 3.93 0 0 0 58.472656 84.357422 A 3.93 3.93 0 0 0 58.28125 84.449219 A 3.93 3.93 0 0 0 58.115234 84.542969 A 3.93 3.93 0 0 0 57.947266 84.646484 A 3.93 3.93 0 0 0 57.787109 84.757812 A 3.93 3.93 0 0 0 57.625 84.880859 A 3.93 3.93 0 0 0 57.494141 84.994141 A 3.93 3.93 0 0 0 57.328125 85.146484 A 3.93 3.93 0 0 0 57.214844 85.267578 A 3.93 3.93 0 0 0 57.066406 85.4375 A 3.93 3.93 0 0 0 56.958984 85.576172 A 3.93 3.93 0 0 0 56.835938 85.748047 A 3.93 3.93 0 0 0 56.734375 85.910156 A 3.93 3.93 0 0 0 56.640625 86.072266 A 3.93 3.93 0 0 0 56.53125 86.292969 A 3.93 3.93 0 0 0 56.476562 86.414062 A 3.93 3.93 0 0 0 56.396484 86.626953 A 3.93 3.93 0 0 0 56.332031 86.820312 A 3.93 3.93 0 0 0 56.292969 86.974609 A 3.93 3.93 0 0 0 56.244141 87.185547 A 3.93 3.93 0 0 0 56.208984 87.408203 A 3.93 3.93 0 0 0 56.191406 87.556641 A 3.93 3.93 0 0 0 56.169922 87.900391 L 56.169922 95.75 A 10.492 10.492 0 0 0 56.203125 96.404297 A 10.492 10.492 0 0 0 56.248047 96.951172 A 10.492 10.492 0 0 0 56.310547 97.357422 A 10.492 10.492 0 0 0 56.433594 98.03125 A 10.492 10.492 0 0 0 56.501953 98.294922 A 10.492 10.492 0 0 0 56.71875 99.050781 A 10.492 10.492 0 0 0 56.796875 99.265625 A 10.492 10.492 0 0 0 57.109375 100.04688 A 10.492 10.492 0 0 0 57.177734 100.18945 A 10.492 10.492 0 0 0 57.591797 100.98438 A 10.492 10.492 0 0 0 57.658203 101.09375 A 10.492 10.492 0 0 0 58.185547 101.89453 A 10.492 10.492 0 0 0 58.84375 102.70898 A 10.492 10.492 0 0 0 60.390625 104.12305 A 11.797 11.797 0 0 0 60.392578 104.12891 A 10.492 10.492 0 0 0 66.689453 106.2207 L 79.189453 106.2207 A 11.81 11.81 0 0 0 91.109375 94.470703 L 91.109375 87.929688 A 3.93 3.93 0 0 0 87.109375 84 L 60.109375 84 z M 128.11328 86.574219 A 6.7607522 6.7607522 0 0 1 128.53906 86.6875 A 6.76 6.76 0 0 0 128.11328 86.574219 z M 128.9043 86.822266 A 6.7607522 6.7607522 0 0 1 129.1543 86.917969 A 6.76 6.76 0 0 0 128.9043 86.822266 z M 130.97852 93.224609 A 4.5 4.5 0 0 1 130.96094 93.496094 A 4.5 4.5 0 0 0 130.97852 93.224609 z M 64.521484 97.384766 A 1.64 1.64 0 0 1 64.619141 97.390625 L 67.900391 97.390625 A 1.64 1.64 0 1 1 67.900391 100.66016 L 64.619141 100.66016 A 1.637 1.637 0 0 1 62.990234 99.681641 A 1.64 1.64 0 0 1 64.521484 97.384766 z M 74.310547 97.384766 A 1.64 1.64 0 0 1 74.410156 97.390625 L 79.25 97.390625 A 1.64 1.64 0 1 1 79.25 100.66016 L 74.410156 100.66016 A 1.637 1.637 0 0 1 72.779297 99.681641 A 1.64 1.64 0 0 1 74.310547 97.384766 z M 21.560547 97.390625 C 21.370158 97.390625 21.208186 97.417646 21.058594 97.457031 C 21.017866 97.467749 20.97899 97.480757 20.941406 97.494141 C 20.80475 97.542934 20.679281 97.602859 20.585938 97.683594 C 20.521331 97.73951 20.470564 97.80397 20.427734 97.873047 C 20.415682 97.892468 20.40677 97.913217 20.396484 97.933594 C 20.369907 97.986226 20.35051 98.043039 20.335938 98.101562 C 20.329862 98.126147 20.322279 98.15024 20.318359 98.175781 C 20.305569 98.258639 20.300085 98.343751 20.310547 98.435547 C 20.333828 98.639922 20.415547 98.864609 20.560547 99.099609 L 32.349609 118.28906 A 4.001 4.001 0 0 0 32.591797 118.60156 A 4.001 4.001 0 0 0 32.671875 118.68945 A 4.001 4.001 0 0 0 32.847656 118.87695 A 4.001 4.001 0 0 0 32.855469 118.88281 A 4.001 4.001 0 0 0 32.996094 119.00781 A 4.001 4.001 0 0 0 33.164062 119.1543 A 4.001 4.001 0 0 0 33.246094 119.21094 A 4.001 4.001 0 0 0 33.472656 119.37305 A 4.001 4.001 0 0 0 33.480469 119.37695 A 4.001 4.001 0 0 0 33.671875 119.48828 A 4.001 4.001 0 0 0 33.833984 119.58008 A 4.001 4.001 0 0 0 34.105469 119.70117 A 4.001 4.001 0 0 0 34.1875 119.73828 A 4.001 4.001 0 0 0 34.423828 119.81641 A 4.001 4.001 0 0 0 34.580078 119.86719 A 4.001 4.001 0 0 0 34.835938 119.92578 A 4.001 4.001 0 0 0 34.953125 119.95117 A 4.001 4.001 0 0 0 34.958984 119.95117 A 4.001 4.001 0 0 0 35.349609 120 L 58.029297 120 L 83.939453 120 A 2.226 2.226 0 0 0 84.033203 119.99609 A 3.288 3.288 0 0 1 84.027344 119.99414 A 3.288 3.288 0 0 1 83.777344 119.9707 A 3.288 3.288 0 0 1 83.773438 119.9707 A 3.288 3.288 0 0 1 83.746094 119.9668 A 3.288 3.288 0 0 1 83.683594 119.95898 A 3.288 3.288 0 0 1 83.488281 119.92188 A 3.288 3.288 0 0 1 83.474609 119.91992 A 3.288 3.288 0 0 1 83.449219 119.91406 A 3.288 3.288 0 0 1 83.177734 119.83984 A 3.288 3.288 0 0 1 83.035156 119.79297 A 3.288 3.288 0 0 1 83.023438 119.78711 A 3.288 3.288 0 0 1 82.449219 119.50586 A 3.288 3.288 0 0 1 82.28125 119.39258 A 3.288 3.288 0 0 1 82.263672 119.38086 A 3.288 3.288 0 0 1 82.189453 119.32812 A 3.288 3.288 0 0 1 82.175781 119.31641 A 3.288 3.288 0 0 1 82.019531 119.18555 A 3.288 3.288 0 0 1 81.923828 119.10156 A 3.288 3.288 0 0 1 81.8125 118.99023 A 3.288 3.288 0 0 1 81.693359 118.86328 A 3.288 3.288 0 0 1 81.685547 118.85156 A 3.288 3.288 0 0 1 81.582031 118.7207 A 3.288 3.288 0 0 1 81.576172 118.71484 A 3.288 3.288 0 0 1 81.501953 118.61914 A 3.288 3.288 0 0 1 81.492188 118.60547 A 3.288 3.288 0 0 1 81.394531 118.45312 A 3.288 3.288 0 0 1 81.369141 118.41406 A 3.288 3.288 0 0 1 81.330078 118.35156 A 3.288 3.288 0 0 1 81.318359 118.32812 A 3.288 3.288 0 0 1 81.228516 118.15234 A 3.288 3.288 0 0 1 81.216797 118.13086 A 3.288 3.288 0 0 1 81.177734 118.04883 A 3.288 3.288 0 0 1 81.105469 117.87109 A 3.288 3.288 0 0 1 81.099609 117.85547 A 3.288 3.288 0 0 1 81.072266 117.7793 A 3.288 3.288 0 0 1 81.054688 117.73047 A 3.288 3.288 0 0 1 81 117.53711 A 3.288 3.288 0 0 1 80.970703 117.42578 A 3.288 3.288 0 0 1 80.970703 117.41992 A 3.288 3.288 0 0 1 80.933594 117.21484 A 3.288 3.288 0 0 1 80.931641 117.20898 A 3.288 3.288 0 0 1 80.927734 117.18359 A 3.288 3.288 0 0 1 80.916016 117.09961 A 3.288 3.288 0 0 1 80.900391 116.90625 A 3.288 3.288 0 0 1 80.898438 116.88867 A 3.288 3.288 0 0 1 80.890625 116.71094 L 58.0625 116.71094 L 47.279297 99.099609 A 4 4 0 0 0 44.302734 97.392578 A 4 4 0 0 0 44.279297 97.390625 L 21.560547 97.390625 z"/><path opacity="1" fill="black" d="M 122.55859 20.152344 A 2.0001 2.0001 0 0 1 122.50195 20.207031 A 2.0001 2.0001 0 0 0 122.55859 20.152344 z M 122.55859 29.191406 A 2.0001 2.0001 0 0 1 122.50195 29.246094 A 2.0001 2.0001 0 0 0 122.55859 29.191406 z M 128.67969 32.060547 L 128.67969 33.390625 A 3.99 3.99 0 0 1 128.60547 34.177734 A 3.99 3.99 0 0 1 128.38867 34.902344 C 128.38407 34.913794 128.38166 34.926093 128.37695 34.9375 A 3.99 3.99 0 0 1 128.37305 34.945312 A 3.99 3.99 0 0 1 128.02734 35.595703 C 128.02055 35.606104 128.01471 35.616612 128.00781 35.626953 A 3.99 3.99 0 0 1 127.51562 36.230469 A 4.004 4.004 0 0 1 126.90625 36.732422 A 4.004 4.004 0 0 1 126.23242 37.09375 C 126.22626 37.09635 126.22102 37.100947 126.21484 37.103516 A 4.004 4.004 0 0 1 126.20703 37.105469 A 4.004 4.004 0 0 1 125.5 37.322266 C 125.48354 37.325722 125.46768 37.330734 125.45117 37.333984 A 4.004 4.004 0 0 1 124.67969 37.410156 L 99.939453 37.410156 L 99.939453 55.400391 A 3.76 3.76 0 0 0 103.69922 59.160156 L 137.16992 59.160156 L 147.44922 69.400391 L 147.44922 35.820312 A 3.771 3.771 0 0 0 146.3457 33.158203 A 3.76 3.76 0 0 0 143.67969 32.060547 L 128.67969 32.060547 z M 110.53906 40.730469 L 136.53906 40.730469 A 1.42 1.42 0 0 1 137.88867 42.703125 A 1.423 1.423 0 0 1 136.53906 43.570312 L 110.53906 43.570312 C 110.16206 43.570312 109.80116 43.420297 109.53516 43.154297 A 1.419 1.419 0 0 1 110.53906 40.730469 z M 110.53906 47.630859 L 136.53906 47.630859 A 1.428 1.428 0 0 1 137.0957 47.730469 A 1.426 1.426 0 0 1 138 49.060547 A 1.432 1.432 0 0 1 136.53906 50.480469 L 110.53906 50.480469 A 1.43 1.43 0 0 1 109.11914 49.060547 A 1.43 1.43 0 0 1 110.53906 47.630859 z M 117.27148 102.38281 C 116.86819 108.60016 111.7011 113.43287 105.4707 113.41992 L 113.34961 113.41992 C 116.47955 113.42792 119.48448 112.19212 121.70312 109.98438 C 123.4901 108.19965 124.65674 105.88829 125.03125 103.39062 L 122 103.39062 C 120.626 103.43362 119.25856 103.19912 117.97656 102.70312 A 10.261 10.261 0 0 1 117.27148 102.38281 z M 59.652344 113.41016 L 61.673828 116.71094 L 80.890625 116.71094 A 3.304 3.304 0 0 1 84.179688 113.41016 L 59.652344 113.41016 z M 81.318359 118.32812 A 3.288 3.288 0 0 0 81.330078 118.35156 A 3.288 3.288 0 0 0 81.369141 118.41406 A 3.288 3.288 0 0 1 81.318359 118.32812 z M 84.033203 119.99609 A 2.226 2.226 0 0 1 83.939453 120 L 84.179688 120 A 3.288 3.288 0 0 1 84.039062 119.99609 A 3.288 3.288 0 0 1 84.033203 119.99609 z"/></svg>