<svg xmlns="http://www.w3.org/2000/svg" width="256" height="256" viewBox="0 0 256 256"><path fill="#FFFFFF" d="m 104.84765,70.655584 c -0.70436,0.0209 -1.60089,0.123422 -2.78515,0.263672 -2.66382,0.3155 -9.28061,2.027337 -14.70312,3.804687 -12.40317,4.06541 -14.99163,6.584538 -22.57618,21.960938 -9.59356,19.449359 -14.32927,40.169599 -13.62695,59.636719 0.33566,9.30373 0.41399,9.57054 3.54297,12.18164 6.51201,5.43424 31.64165,17.41279 35.29492,16.82421 0.82171,-0.13238 2.95921,-2.47998 4.75,-5.21679 C 96.53494,177.37384 98,174.43123 98,173.5716 c 0,-0.92724 -2.03373,-2.42062 -5,-3.67383 -3.01038,-1.27185 -5,-2.74431 -5,-3.69922 0,-2.12379 1.06249,-2.01759 9.2168,0.92383 8.66125,3.12429 21.92552,5.49023 30.7832,5.49023 8.85768,0 22.12195,-2.36594 30.7832,-5.49023 8.15431,-2.94142 9.2168,-3.04762 9.2168,-0.92383 0,0.95491 -1.98962,2.42737 -5,3.69922 -2.96627,1.25321 -5,2.74659 -5,3.67383 0,0.85963 1.46506,3.80224 3.25586,6.53906 1.79079,2.73681 3.92829,5.08441 4.75,5.21679 3.65327,0.58858 28.78291,-11.38997 35.29492,-16.82421 3.12898,-2.6111 3.20731,-2.87791 3.54297,-12.18164 0.70232,-19.46712 -4.0334,-40.18735 -13.62695,-59.636719 -7.58455,-15.3764 -10.17302,-17.895528 -22.57618,-21.960938 -5.42251,-1.77735 -12.0393,-3.489187 -14.70312,-3.804687 -1.18426,-0.14025 -2.0808,-0.242772 -2.78516,-0.263672 -2.11305,-0.06254 -2.49074,0.599909 -3.68554,3.105469 l -1.62891,3.416015 H 128 110.16211 l -1.62891,-3.416015 c -1.19481,-2.50556 -1.5725,-3.168009 -3.68555,-3.105469 z M 102.5,119.11261 c 5.78851,0 9.22849,2.19047 12.0957,7.70117 4.77469,9.17681 -2.22948,21.79883 -12.0957,21.79883 -3.23007,0 -5.14586,-0.67278 -7.45898,-2.61914 -7.97085,-6.70702 -8.20989,-17.22801 -0.55469,-24.38086 2.16228,-2.02039 3.69904,-2.5 8.01367,-2.5 z m 51,0 c 4.31463,0 5.85139,0.47961 8.01367,2.5 7.6552,7.15285 7.41616,17.67384 -0.55469,24.38086 -2.31312,1.94636 -4.22891,2.61914 -7.45898,2.61914 -9.86622,0 -16.87039,-12.62202 -12.0957,-21.79883 2.86721,-5.5107 6.30719,-7.70117 12.0957,-7.70117 z"/></svg>