<svg xmlns="http://www.w3.org/2000/svg" width="256" height="256" viewBox="0 0 256 256"><path fill="#FFFFFF" d="M 89.352483,187.08445 C 91.908618,183.8309 94,180.74204 94,180.22031 c 0,-0.52173 -2.03541,-1.72592 -4.523133,-2.67599 -5.763227,-2.201 -16.188285,-9.13658 -17.545593,-11.67273 -0.998284,-1.86532 -0.906607,-1.88514 2.264158,-0.48959 23.932203,10.53328 31.882898,12.61736 50.804568,13.31723 11.19632,0.41413 16.55056,0.15202 23.5,-1.1504 10.0201,-1.8779 21.51875,-5.56012 28.81247,-9.22663 7.70644,-3.87398 9.68734,-4.48527 9.03622,-2.78848 -0.87377,2.277 -9.55431,8.23152 -16.76868,11.50267 C 165.961,178.67733 163,180.27844 163,180.59441 c 0,0.31597 2.09138,3.23649 4.64752,6.49004 5.29098,6.73458 5.99769,6.9092 17.82379,4.40411 12.8056,-2.71257 25.52239,-10.17228 32.66693,-19.16252 C 220.60458,169.22256 221,167.85294 221,162.41371 221,145.77107 215.15424,116.62522 207.77974,96.5 201.64988,79.771442 198.75524,74.615699 193.43975,70.958549 183.96747,64.441447 167.95782,58.402359 159,57.967337 c -5.27829,-0.25633 -6,-0.08809 -6,1.398672 0,0.767491 2.73845,2.357936 6.25,3.629898 9.78108,3.542921 25.37375,11.855156 22.45846,11.97229 -0.43535,0.01749 -5.27689,-1.529445 -10.75898,-3.437638 C 155.66983,66.212063 145.76061,64.594448 128.5,64.600958 110.61764,64.607703 99.318223,66.428831 83.210845,71.900211 77.00181,74.009307 72.087258,75.232071 72.289618,74.617465 72.779743,73.128868 89.562873,64.645709 96.771972,62.242676 103.65501,59.948331 104.67635,57.335621 98.5,57.822191 88.48213,58.611394 73.101241,64.394173 63.560246,70.958549 58.244761,74.615699 55.350123,79.771442 49.220263,96.5 41.845762,116.62522 36,145.77107 36,162.41371 c 0,5.43923 0.395421,6.80885 2.861758,9.91233 8.929578,11.23642 27.454322,20.26815 42.240725,20.59446 3.242905,0.0716 4.066372,-0.51096 8.25,-5.83605 z M 92.149236,151.3602 C 84.277697,147.34873 80.863631,136.0446 84.964896,127.57252 88.085971,121.12523 92.147185,118.5 99,118.5 c 4.20484,0 6.29276,0.56541 8.86653,2.40107 9.15337,6.52835 9.22098,22.62805 0.12224,29.10693 -4.24588,3.02333 -11.367378,3.63128 -15.839534,1.3522 z m 56.763874,-0.63977 C 144.0757,147.4605 141.0329,141.58341 141.0329,135.5 c 0,-15.82777 16.87518,-23.13949 27.3451,-11.84815 7.38527,7.96469 4.76934,23.20316 -4.75944,27.72486 -4.8952,2.32293 -10.66682,2.06535 -14.70545,-0.65628 z"/></svg>