<svg xmlns="http://www.w3.org/2000/svg" width="72" height="96" viewBox="0 0 72 96"><path fill="black" fill-rule="evenodd" clip-rule="evenodd" d="M23.7 40.46C24.36 40.18 25.02 40.08 25.68 40.04C26.3 40 27.06 40 27.94 40H28V44C27.04 44 26.42 44 25.96 44.02C25.5 44.06 25.32 44.1 25.24 44.14C24.76 44.34 24.36 44.74 24.16 45.22C24.12 45.32 24.08 45.48 24.04 45.94C24 46.42 24 47.04 24 48V54.06C24 54.94 24 55.7 23.96 56.32C23.9 56.98 23.82 57.64 23.54 58.3C23.28 58.94 22.9 59.5 22.44 60C22.9 60.5 23.28 61.06 23.54 61.7C23.82 62.36 23.92 63.02 23.96 63.68C24 64.3 24 65.06 24 65.94V72C24 72.96 24 73.58 24.02 74.04C24.06 74.5 24.1 74.68 24.14 74.76C24.34 75.24 24.74 75.64 25.22 75.84C25.32 75.88 25.48 75.92 25.94 75.96C26.42 76 27.04 76 28 76V80H27.94C27.06 80 26.3 80 25.68 79.96C25.02 79.9 24.36 79.82 23.7 79.54C22.24 78.94 21.06 77.78 20.46 76.3C20.18 75.64 20.08 74.98 20.04 74.32C20 73.7 20 72.94 20 72.06V66C20 65.04 20 64.42 19.98 63.96C19.94 63.5 19.9 63.32 19.86 63.24C19.66 62.76 19.26 62.36 18.78 62.16C18.68 62.12 18.52 62.08 18.06 62.04C17.58 62 16.96 62 16 62V58C16.96 58 17.58 58 18.04 57.98C18.5 57.94 18.68 57.9 18.76 57.86C19.24 57.66 19.64 57.28 19.84 56.78C19.88 56.68 19.92 56.52 19.96 56.06C20 55.58 20 54.96 20 54V47.94C20 47.06 20 46.3 20.04 45.68C20.1 45.02 20.18 44.36 20.46 43.7C21.06 42.24 22.22 41.06 23.7 40.46ZM53.22 57.84C53.32 57.88 53.48 57.92 53.94 57.96C54.42 58 55.04 58 56 58V62C55.04 62 54.42 62 53.96 62.02C53.5 62.06 53.32 62.1 53.24 62.14C52.76 62.34 52.36 62.74 52.16 63.22C52.12 63.32 52.08 63.48 52.04 63.94C52 64.42 52 65.04 52 66V72.06C52 72.94 52 73.7 51.96 74.32C51.9 74.98 51.82 75.64 51.54 76.3C50.94 77.76 49.76 78.94 48.3 79.54C47.64 79.82 46.98 79.92 46.32 79.96C45.7 80 44.94 80 44.06 80H44V76C44.96 76 45.58 76 46.04 75.98C46.5 75.94 46.68 75.9 46.76 75.86C47.24 75.66 47.64 75.28 47.84 74.78C47.88 74.68 47.92 74.52 47.96 74.06C48 73.58 48 72.96 48 72V65.94C48 65.06 48 64.3 48.04 63.68C48.1 63.02 48.2 62.36 48.46 61.7C48.72 61.06 49.1 60.5 49.56 60C49.1 59.5 48.72 58.94 48.46 58.3C48.18 57.64 48.08 56.98 48.04 56.32C48 55.7 48 54.94 48 54.06V48C48 47.04 48 46.42 47.98 45.96C47.94 45.5 47.9 45.32 47.86 45.24C47.66 44.76 47.26 44.36 46.78 44.16C46.68 44.12 46.52 44.08 46.06 44.04C45.58 44 44.96 44 44 44V40H44.06C44.94 40 45.7 40 46.32 40.04C46.98 40.1 47.64 40.18 48.3 40.46C49.76 41.06 50.94 42.22 51.54 43.7C51.82 44.36 51.92 45.02 51.96 45.68C52 46.3 52 47.06 52 47.94V54C52 54.96 52 55.58 52.02 56.04C52.06 56.5 52.1 56.68 52.14 56.76C52.34 57.24 52.74 57.64 53.22 57.84Z"/></svg>