<svg xmlns="http://www.w3.org/2000/svg" width="72" height="96" viewBox="0 0 72 96"><path fill="black" fill-rule="evenodd" clip-rule="evenodd" d="M34.76 42.16C34.02 41.86 33.16 42.02 32.58 42.6L24 52H18C16.9 52 16 52.9 16 54V66C16 67.1 16.9 68 18 68H24L32.58 77.42C33.16 78 34.02 78.16 34.76 77.86C35.52 77.54 36 76.8 36 76V44C36 43.2 35.52 42.46 34.76 42.16ZM40 46V50C45.52 50 50 54.48 50 60C50 65.52 45.52 70 40 70V74C47.72 74 54 67.72 54 60C54 52.28 47.72 46 40 46ZM40 54C43.3 54 46 56.7 46 60C46 63.3 43.3 66 40 66V62C41.1 62 42 61.1 42 60C42 58.9 41.1 58 40 58V54Z"/></svg>