<svg xmlns="http://www.w3.org/2000/svg" width="100" height="130" viewBox="0 0 100 130"><g opacity="0.6" fill="black"><rect x="22" y="33" width="15" height="6"/><rect x="22" y="45" width="15" height="6"/><rect x="22" y="57" width="15" height="6"/><rect x="22" y="69" width="15" height="6"/><rect x="22" y="81" width="15" height="6"/><rect x="22" y="93" width="15" height="6"/><rect x="42" y="33" width="15" height="6"/><rect x="42" y="45" width="15" height="6"/><rect x="42" y="57" width="15" height="6"/><rect x="42" y="69" width="15" height="6"/><rect x="42" y="81" width="15" height="6"/><rect x="42" y="93" width="15" height="6"/><rect x="62" y="45" width="15" height="6"/><rect x="62" y="57" width="15" height="6"/><rect x="62" y="69" width="15" height="6"/><rect x="62" y="81" width="15" height="6"/><rect x="62" y="93" width="15" height="6"/></g></svg>