<svg xmlns="http://www.w3.org/2000/svg" width="72" height="96" viewBox="0 0 72 96"><path fill="black" fill-rule="evenodd" clip-rule="evenodd" d="M45.36 51.24C45.62 51.66 45.98 52 46.44 52.24C46.9 52.48 47.42 52.6 47.98 52.6C48.54 52.6 49.06 52.48 49.5 52.24C49.96 52 50.3 51.66 50.56 51.24C50.82 50.82 50.94 50.32 50.94 49.78C50.94 49.24 50.8 48.76 50.56 48.34C50.32 47.92 49.96 47.6 49.52 47.36C49.08 47.12 48.56 47 47.98 47C47.4 47 46.88 47.12 46.42 47.36C45.96 47.6 45.62 47.92 45.36 48.34C45.1 48.76 44.98 49.24 44.98 49.78C44.98 50.32 45.1 50.82 45.36 51.24ZM50.66 54.7H45.3V72H50.66V54.7ZM26.86 66.96H35.28L36.78 72H42.62L34.92 48H27.28L19.66 72H25.38L26.86 66.96ZM31 52.72L34.02 62.74H28.08L31 52.72Z"/></svg>