<svg xmlns="http://www.w3.org/2000/svg" width="100" height="130" viewBox="0 0 100 130"><path opacity="0.6" fill="black" d="M 36.72 65.44 h 7.14 c 1.06 0 2.055.105 2.985.315.93.21 1.74.56 2.43 1.05.69.49 1.235 1.14 1.635 1.95.4.81.6 1.805.6 2.985 0 1.14-.205 2.13-.615 2.97-.41.84-.965 1.53-1.665 2.07-.7.54-1.51.94-2.43 1.2-.92.26-1.9.39-2.94.39 h -2.73 V 85 h -4.41 V 65.44 z  m 6.87 9.42 c 2.38 0 3.57-1.04 3.57-3.12 0-1.02-.3-1.74-.9-2.16-.6-.42-1.49-.63-2.67-.63 h -2.46 v 5.91 h 2.46 z  m 10.48 5.46 c .86.54 1.725.97 2.595 1.29.87.32 1.805.48 2.805.48 1.02 0 1.75-.11 2.19-.33.44-.22.66-.53.66-.93 0-.46-.365-.835-1.095-1.125-.73-.29-1.695-.605-2.895-.945-.66-.18-1.305-.395-1.935-.645-.63-.25-1.195-.55-1.695-.9 s -.905-.755-1.215-1.215 c -.31-.46-.465-.99-.465-1.59 0-.68.16-1.31.48-1.89.32-.58.775-1.07 1.365-1.47.59-.4 1.31-.715 2.16-.945.85-.23 1.805-.345 2.865-.345 1.32 0 2.525.215 3.615.645 1.09.43 2.025.895 2.805 1.395 l -1.98 2.64 c -.68-.4-1.38-.735-2.1-1.005-.72-.27-1.47-.405-2.25-.405-.94 0-1.605.1-1.995.3-.39.2-.585.49-.585.87 0 .22.1.42.3.6.2.18.47.34.81.48.34.14.745.275 1.215.405.47.13.965.265 1.485.405.74.2 1.44.425 2.1.675.66.25 1.24.545 1.74.885.5.34.9.75 1.2 1.23.3.48.45 1.04.45 1.68 0 .68-.16 1.31-.48 1.89-.32.58-.785 1.085-1.395 1.515-.61.43-1.37.77-2.28 1.02-.91.25-1.965.375-3.165.375-1.34 0-2.65-.22-3.93-.66-1.28-.44-2.4-.98-3.36-1.62 l 1.98-2.76 z "/></svg>