<svg xmlns="http://www.w3.org/2000/svg" width="72" height="96" viewBox="0 0 72 96"><path fill="black" fill-rule="evenodd" clip-rule="evenodd" d="M24 24C28.42 24 32 20.42 32 16C32 15.28 31.9 14.58 31.72 13.92L28 0H20L16.28 13.92C16.1 14.58 16 15.28 16 16C16 20.42 19.58 24 24 24ZM24 20C26.2091 20 28 18.2091 28 16C28 13.7909 26.2091 12 24 12C21.7909 12 20 13.7909 20 16C20 18.2091 21.7909 20 24 20ZM24 40V32H16V40H24ZM24 48H32V40H24V48ZM24 56V48H16V56H24ZM24 64H32V56H24V64ZM24 72V64H16V72H24ZM24 80H32V72H24V80ZM24 88H16V80H24V88ZM24 88H32V96H24V88Z"/></svg>