<svg xmlns="http://www.w3.org/2000/svg" width="100" height="130" viewBox="0 0 100 130"><path opacity="0.6" fill="black" d="m 45.48,76.9 -0.45,-1.8 c -0.26,-0.98 -0.52,-2.02 -0.78,-3.12 -0.26,-1.1 -0.52,-2.16 -0.78,-3.18 h -0.12 c -0.24,1.04 -0.49,2.105 -0.75,3.195 -0.26,1.09 -0.52,2.125 -0.78,3.105 l -0.45,1.8 z m 0.9,3.45 H 40.47 L 39.27,85 h -4.5 l 6.09,-19.56 h 5.28 L 52.23,85 h -4.68 z m 5.77,-2.79 c 0,-1.22 0.215,-2.31 0.645,-3.27 0.43,-0.96 1.005,-1.775 1.725,-2.445 0.72,-0.67 1.545,-1.185 2.475,-1.545 0.93,-0.36 1.895,-0.54 2.895,-0.54 1.14,0 2.15,0.18 3.03,0.54 0.88,0.36 1.61,0.86 2.19,1.5 0.58,0.64 1.02,1.395 1.32,2.265 0.3,0.87 0.45,1.815 0.45,2.835 0,0.4 -0.02,0.78 -0.06,1.14 -0.04,0.36 -0.08,0.63 -0.12,0.81 H 56.68 c 0.16,1.12 0.645,1.925 1.455,2.415 C 58.945,81.755 59.9,82 61,82 c 0.68,0 1.325,-0.085 1.935,-0.255 0.61,-0.17 1.245,-0.425 1.905,-0.765 l 1.44,2.64 c -0.84,0.54 -1.78,0.965 -2.82,1.275 -1.04,0.31 -2.06,0.465 -3.06,0.465 -1.16,0 -2.24,-0.175 -3.24,-0.525 -1,-0.35 -1.87,-0.86 -2.61,-1.53 C 53.81,82.635 53.225,81.82 52.795,80.86 52.365,79.9 52.15,78.8 52.15,77.56 Z m 10.74,-1.62 c 0,-0.84 -0.23,-1.52 -0.69,-2.04 -0.46,-0.52 -1.2,-0.78 -2.22,-0.78 -0.8,0 -1.51,0.23 -2.13,0.69 -0.62,0.46 -1.03,1.17 -1.23,2.13 z"/></svg>