<svg xmlns="http://www.w3.org/2000/svg" width="100" height="130" viewBox="0 0 100 130"><path opacity="0.6" fill="black" d="m 23,31 h 34 v 3 H 23 Z M 76.876633,96.997 H 73.51137 l -0.0076,-0.003 0.01178,0.006 -45.431054,-0.0052 -0.0042,0.0022 h -5.047875 c 0,-7.273341 -1.081932,-23.997 9.254474,-23.997 10.336406,0 6.003629,6.56243 16.826316,12.748406 0.137135,0.07799 0.278476,0.153731 0.416451,0.231721 l 0.443374,-0.23622 0.717642,0.385452 C 60.78142,80.914511 56.722071,73 67.622159,73 c 11.159213,0 9.254474,23.997 9.254474,23.997 z M 46.172812,87.770154 c -8.366886,-4.587177 -6.8542,-11.770529 -13.885917,-11.770529 -7.148661,0 -5.889211,17.99775 -5.889211,17.99775 h 6.786895 l 0.0093,-0.0052 h 1.076043 c 3.267671,-1.579303 7.517157,-3.622797 12.019879,-5.76003 l -0.487122,-0.264717 0.370179,-0.197225 z M 67.622159,75.999625 c -6.664063,0 -6.997224,7.865017 -13.885076,11.766029 l 0.448421,0.24147 -0.451787,0.236971 c 4.367271,2.246719 8.790909,4.23697 12.355565,5.75328 h -7.721597 c 0,0 -2.073844,-1.008624 -7.937815,-4.020247 l -0.474502,0.248969 -0.455152,-0.247469 c -4.988161,2.567679 -7.92856,4.003749 -7.9538,4.016498 l 24.558009,0.009 c -0.005,-0.0023 -0.0101,-0.0045 -0.01514,-0.0067 h 7.422088 c 0,0 0.908621,-17.99775 -5.889211,-17.99775 z M 23,66 h 54 v 3 H 23 Z m 0,-7 h 54 v 3 H 23 Z m 0,-7 h 54 v 3 H 23 Z m 0,-7 h 54 v 3 H 23 Z m 0,-7 h 34 v 3 H 23 Z"/></svg>