<svg xmlns="http://www.w3.org/2000/svg" width="72" height="96" viewBox="0 0 72 96"><path fill="white" d="M 6.4003906 0 C 4.1603906 7.4014868e-17 3.0396875 -0.000546875 2.1796875 0.43945312 C 1.4396875 0.81945313 0.81945312 1.4396875 0.43945312 2.1796875 C -0.000546875 3.0396875 0 4.1603906 0 6.4003906 L 0 89.599609 C 7.4014868e-17 91.839609 -0.000546875 92.960313 0.43945312 93.820312 C 0.81945313 94.560313 1.4396875 95.180547 2.1796875 95.560547 C 3.0396875 96.000547 4.1603906 96 6.4003906 96 L 65.599609 96 C 67.839609 96 68.960313 96.000547 69.820312 95.560547 C 70.560313 95.180547 71.180547 94.560313 71.560547 93.820312 C 72.000547 92.960312 72 91.839609 72 89.599609 L 72 29.300781 C 72 27.340781 71.999297 26.359453 71.779297 25.439453 C 71.659297 24.939453 71.499297 24.46 71.279297 24 C 71.139297 23.7 71.000313 23.420625 70.820312 23.140625 C 70.320313 22.320625 69.639766 21.639766 68.259766 20.259766 L 51.740234 3.7402344 C 50.360234 2.3602344 49.679375 1.6796875 48.859375 1.1796875 C 48.579375 0.9996885 48.3 0.86070313 48 0.72070312 C 47.54 0.50070312 47.060547 0.34070313 46.560547 0.22070312 C 45.640547 0.000703125 44.659219 0 42.699219 0 L 6.4003906 0 z"/></svg>