<svg xmlns="http://www.w3.org/2000/svg" width="72" height="96" viewBox="0 0 72 96"><path fill="black" fill-rule="evenodd" clip-rule="evenodd" d="M36.72 51.8C36.04 50.58 35.06 49.64 33.78 48.98C32.5 48.32 30.98 48 29.2 48H19.48V72H25V64.04H29C30.82 64.04 32.38 63.7 33.7 63.04C35.02 62.38 36.02 61.44 36.7 60.26C37.4 59.08 37.74 57.7 37.74 56.14C37.74 54.46 37.4 53.02 36.72 51.8ZM32.08 56.14C32.08 57.38 31.74 58.32 31.04 58.98C30.34 59.62 29.34 59.94 28.02 59.94H25V52.58H28.34C29.5 52.58 30.42 52.88 31.08 53.48C31.74 54.08 32.08 54.96 32.08 56.14ZM39.9 66.2V70.46C41.92 71.84 44.2 72.52 46.7 72.56C48.18 72.56 49.5 72.32 50.62 71.82C51.74 71.34 52.6 70.64 53.22 69.76C53.84 68.88 54.14 67.86 54.14 66.72C54.14 64 52.6 62.3 49.54 61.62L47 61.04C46.4 60.88 45.96 60.7 45.68 60.44C45.4 60.18 45.26 59.88 45.26 59.52C45.26 59.1 45.44 58.76 45.84 58.54C46.24 58.32 46.82 58.2 47.62 58.2C48.6 58.2 49.56 58.34 50.52 58.64C51.48 58.94 52.38 59.36 53.2 59.92V55.86C51.42 54.76 49.38 54.2 47.1 54.2C45.62 54.2 44.32 54.42 43.22 54.88C42.12 55.34 41.28 55.98 40.7 56.8C40.12 57.62 39.82 58.6 39.82 59.7C39.82 60.96 40.2 62 40.94 62.8C41.68 63.6 42.82 64.18 44.32 64.56L46.8 65.22C47.44 65.4 47.9 65.62 48.18 65.88C48.46 66.14 48.6 66.46 48.6 66.86C48.6 67.4 48.4 67.82 47.96 68.1C47.52 68.38 46.92 68.52 46.16 68.52C45.2 68.52 44.14 68.3 42.98 67.88C41.82 67.44 40.8 66.9 39.9 66.2Z"/></svg>