<svg xmlns="http://www.w3.org/2000/svg" width="72" height="96" viewBox="0 0 72 96"><path fill="black" fill-rule="evenodd" clip-rule="evenodd" d="M22.06 66.96H30.48L31.98 72H37.82L30.12 48H22.48L14.86 72H20.58L22.06 66.96ZM26.2 52.72L29.22 62.74H23.28L26.2 52.72ZM44.54 64.64H56.42H56.44V62.38C56.44 60.62 56.12 59.12 55.48 57.9C54.84 56.68 53.92 55.74 52.68 55.12C51.44 54.5 49.98 54.18 48.26 54.18C46.42 54.18 44.8 54.56 43.42 55.32C42.04 56.08 40.98 57.14 40.24 58.52C39.5 59.9 39.14 61.46 39.14 63.24C39.14 65.12 39.54 66.76 40.36 68.16C41.18 69.56 42.34 70.62 43.84 71.38C45.34 72.14 47.1 72.52 49.14 72.52C50.52 72.52 51.78 72.34 52.92 72C54.06 71.66 54.98 71.22 55.7 70.68V66.76C54.98 67.24 54.16 67.62 53.24 67.9C52.32 68.18 51.38 68.32 50.4 68.32C48.74 68.32 47.42 68 46.44 67.36C45.46 66.72 44.82 65.82 44.54 64.64ZM44.6 61.6C44.76 60.54 45.14 59.72 45.78 59.12C46.42 58.54 47.28 58.24 48.34 58.24C49.4 58.24 50.22 58.52 50.82 59.1C51.42 59.68 51.74 60.5 51.78 61.6H44.6Z"/></svg>