<svg xmlns="http://www.w3.org/2000/svg" width="100" height="130" viewBox="0 0 100 130"><path opacity="0.6" fill="black" d="M45.48 76.9l-.45-1.8c-.26-.98-.52-2.02-.78-3.12s-.52-2.16-.78-3.18h-.12c-.24 1.04-.49 2.105-.75 3.195-.26 1.09-.52 2.125-.78 3.105l-.45 1.8h4.11zm.9 3.45h-5.91L39.27 85h-4.5l6.09-19.56h5.28L52.23 85h-4.68l-1.17-4.65zm6.49-10.23h10.38V85h-4.41V73.57h-5.97v-3.45zm7.98-2.19c-.86 0-1.565-.24-2.115-.72-.55-.48-.825-1.13-.825-1.95 0-.82.275-1.485.825-1.995.55-.51 1.255-.765 2.115-.765.86 0 1.565.255 2.115.765.55.51.825 1.175.825 1.995 0 .82-.275 1.47-.825 1.95-.55.48-1.255.72-2.115.72z"/></svg>