<svg xmlns="http://www.w3.org/2000/svg" width="95" height="60"><path opacity="0.15" fill="black" d="m 3.5332031,10.197266 c -1.9184329,0.0057 -3.47190286,1.560079 -3.47656248,3.478515 v 7.242188 H 0 v 7.417969 c 0.05883224,2.788213 0.8156172,5.517205 2.2011719,7.9375 l 3.8242187,6.490234 c 1.739,3.013 2.6660156,6.373609 2.6660156,9.849609 v 1 l 0.00391,-1 21.5507815,-2.78125 v -2.492187 -0.05664 h -0.002 c -0.02247,-6.03292 -3.61237,-11.4998 -9.107422,-13.958984 -0.13161,-0.0589 -0.258799,-0.124283 -0.392578,-0.179688 L 18.824219,32.349609 18.470703,32.203125 18.046875,31.779297 13.955078,27.6875 13.238281,26.970703 11.472656,25.205078 c -0.143178,-0.137306 -0.296554,-0.258261 -0.455078,-0.367187 -0.05764,-0.03957 -0.118403,-0.0716 -0.177734,-0.107422 -0.106809,-0.06452 -0.21466,-0.125361 -0.326172,-0.177735 -0.06532,-0.03067 -0.132564,-0.05552 -0.199219,-0.08203 -0.110022,-0.04374 -0.221073,-0.08479 -0.3339842,-0.117187 -0.071103,-0.02039 -0.1428959,-0.03684 -0.2148438,-0.05273 -0.1075238,-0.02375 -0.2154523,-0.04292 -0.3242188,-0.05664 -0.07923,-0.01 -0.1587469,-0.01877 -0.2382812,-0.02344 -0.1133043,-0.0066 -0.2266585,-0.0061 -0.3398438,-0.002 -0.067741,0.0025 -0.1356728,0.0034 -0.203125,0.0098 -0.1332716,0.01259 -0.2654222,0.03678 -0.3964843,0.06445 -0.050068,0.01058 -0.1007889,0.01651 -0.1503907,0.0293 -0.1805561,0.0465 -0.3573718,0.104056 -0.5292968,0.179687 -0.1808547,0.07956 -0.3564951,0.17534 -0.5234375,0.287109 v -0.002 c -0.1793251,0.12187 -0.3528127,0.25891 -0.5117188,0.417969 -1.3619056,1.359517 -1.3619056,3.566264 0,4.925781 l 0.4628907,0.464844 4.8984372,4.898438 0.490235,0.490234 c 0.0721,0.07925 0.113034,0.181944 0.115234,0.289063 v 5.041015 c 0,0.233 -0.173297,0.462891 -0.404297,0.462891 -0.232,0 -0.464844,-0.173297 -0.464844,-0.404297 V 36.505859 L 5.96875,30.826172 c -1.7960002,-1.797 -1.7965937,-4.577813 -0.058594,-6.257813 0.3400393,-0.35198 0.7336282,-0.611947 1.1464844,-0.820312 L 7.0097656,13.675781 C 7.005106,11.757345 5.451636,10.203003 3.5332031,10.197266 Z m 5.1582031,43.416015 c -1.7079427,0.260183 -2.9520431,1.859701 -2.7226562,3.578125 0.232,1.739 1.8537969,3.015203 3.5917969,2.783203 L 31.115234,57.191406 c 1.738,-0.173 3.01325,-1.794797 2.78125,-3.591797 -0.203,-1.519875 -1.469308,-2.686459 -2.947265,-2.798828 -0.211137,-0.01605 -0.427282,-0.01142 -0.644531,0.01758 l -0.05859,0.0078 z M 91.494141,10.197266 c -1.926957,-0.0149 -3.492548,1.551567 -3.476563,3.478515 v 10.083985 c 0.384833,0.203071 0.752939,0.448757 1.072266,0.779296 1.738,1.68 1.737402,4.460813 -0.05859,6.257813 l -5.677734,5.679687 v 4.867188 c 0,0.231 -0.232844,0.404297 -0.464844,0.404297 -0.231,0 -0.404297,-0.229891 -0.404297,-0.462891 v -5.041015 c 0.0022,-0.107118 0.04313,-0.209813 0.115234,-0.289063 l 5.851563,-5.853516 c 1.361906,-1.359515 1.361906,-3.566264 0,-4.925781 -1.359295,-1.360602 -3.564533,-1.360602 -4.923828,0 l -1.738282,1.738281 -0.716796,0.71875 -4.105469,4.105469 -0.505859,0.50586 -0.253907,0.105468 -1.921875,0.794922 c -0.158832,0.06579 -0.311021,0.142181 -0.466797,0.212891 -5.469849,2.482866 -9.037109,7.954102 -9.037109,13.982422 v 0.002 2.460937 l 21.554688,2.765625 0.002,1.029297 v -0.984375 c 0,-3.476 0.927015,-6.836609 2.666015,-9.849609 l 3.824219,-6.490234 c 1.391,-2.433 2.086531,-5.156502 2.144531,-7.9375 v -1.91211 -5.505859 -7.242188 c -0.0047,-1.919195 -1.55932,-3.473851 -3.478515,-3.478515 z m -5.15625,43.40039 -21.556641,-2.78125 c -0.2245,-0.029 -0.44551,-0.03363 -0.662109,-0.01758 -1.516198,0.112383 -2.778313,1.278078 -2.929688,2.798828 -0.232,1.738 1.04325,3.360797 2.78125,3.591797 l 21.554688,2.783203 c 1.739,0.232 3.361795,-1.04225 3.591797,-2.78125 0.233,-1.738 -1.041297,-3.36075 -2.779297,-3.59375 z M 72.244141,22.107422 c -0.02192,0.0143 -0.04317,0.02847 -0.06445,0.04297 0.0213,-0.01471 0.04276,-0.02868 0.06445,-0.04297 z" id="path2"/><path opacity="0.45" fill="black" d="m 75.560547,14.369141 5.511719,13.263671 0.716796,-0.71875 -5.011718,-12.080078 c -0.348,-0.232 -0.752797,-0.348843 -1.216797,-0.464843 z m -56.148438,0.117187 c -0.406,0 -0.811156,0.173297 -1.160156,0.404297 l 0.002,0.002 -5.015625,12.078125 0.716797,0.716797 z m 2.78125,7.300781 -4.146484,9.992188 0.423828,0.423828 0.353516,0.146484 4.179687,-10.097656 V 22.25 c -0.249499,-0.187985 -0.52186,-0.343526 -0.810547,-0.462891 z m 50.642579,0 c -0.289001,0.116 -0.579547,0.290844 -0.810547,0.464844 l 4.18164,10.097656 0.253907,-0.105468 0.505859,-0.50586 z" id="path10"/><path opacity="0.3" fill="black" d="M 79.359375,8.4765625 C 78.905812,8.4739531 78.443141,8.5615 77.994141,8.75 v -0.00195 c -1.738,0.754 -2.607516,2.7821251 -1.853516,4.5781251 l 0.619141,1.5 c 0.0054,0.0035 0.01225,0.0043 0.01758,0.0078 l 5.011718,12.080078 1.738282,-1.738281 c 1.359295,-1.360602 3.564533,-1.360602 4.923828,0 1.361906,1.359517 1.361906,3.566266 0,4.925781 l -5.851563,5.853516 c -0.0721,0.07925 -0.113034,0.181945 -0.115234,0.289063 v 5.041015 c 0,0.233 0.173297,0.462891 0.404297,0.462891 0.232,0 0.464844,-0.173297 0.464844,-0.404297 v -4.867188 l 5.677734,-5.679687 c 1.795996,-1.797 1.796594,-4.577813 0.05859,-6.257813 -0.33253,-0.344207 -0.716928,-0.59898 -1.119141,-0.80664 L 82.513672,10.603516 c -0.522,-1.3042532 -1.79361,-2.1191254 -3.154297,-2.1269535 z m -63.658203,0.050781 c -1.339313,-0.00539 -2.620797,0.787768 -3.185547,2.1347652 L 7.0839844,23.732422 c -0.4230742,0.210631 -0.8261155,0.476014 -1.1738282,0.835937 -1.7379999,1.68 -1.7374064,4.460813 0.058594,6.257813 l 5.677734,5.679687 v 4.867188 c 0,0.231 0.232844,0.404297 0.464844,0.404297 0.231,0 0.404297,-0.229891 0.404297,-0.462891 v -5.041015 c -0.0022,-0.107119 -0.04313,-0.209814 -0.115234,-0.289063 L 6.5488281,30.130859 c -1.3619056,-1.359517 -1.3619056,-3.566264 0,-4.925781 0.1589061,-0.159059 0.3323937,-0.296099 0.5117188,-0.417969 v 0.002 c 0.1669424,-0.111769 0.3425828,-0.207549 0.5234375,-0.287109 1.2659825,-0.556917 2.8174136,-0.324204 3.8886716,0.703125 l 1.765625,1.765625 5.015625,-12.078125 -0.002,-0.002 c 0.11827,-0.07828 0.249891,-0.134783 0.378906,-0.195313 -0.124046,0.05448 -0.253658,0.09529 -0.371093,0.164063 l 0.630859,-1.53125 c 0.753,-1.739 -0.05947,-3.7665312 -1.855469,-4.5195312 -0.43475,-0.1882503 -0.887547,-0.2794535 -1.333984,-0.28125 z m 4.044922,5.8652342 c -0.293152,0.02189 -0.578773,0.09018 -0.855469,0.185547 0.170918,-0.05555 0.345766,-0.0918 0.521484,-0.0918 l -5.457031,13.201172 4.091797,4.091797 4.115234,-9.917969 c -0.0099,-0.0042 -0.01743,-0.01147 -0.02734,-0.01563 -0.01275,-0.0055 -0.02628,-0.0064 -0.03906,-0.01172 l 1.083985,-2.654296 c 0.753,-1.739 -0.05947,-3.766532 -1.855469,-4.519532 -0.515265,-0.223113 -1.054332,-0.306692 -1.578125,-0.267578 z m 55.539062,0.01172 c -0.537828,-0.04823 -1.097183,0.02935 -1.636718,0.255859 -1.738001,0.753 -2.607516,2.780172 -1.853516,4.576172 l 1.054687,2.546875 c -0.0039,0.0016 -0.0078,0.0023 -0.01172,0.0039 h -0.002 l 4.130859,9.951172 4.105469,-4.105469 -5.46875,-13.162109 c -0.106922,-0.01995 -0.20933,-0.05663 -0.31836,-0.06641 z m -3.041015,7.703125 c -0.0217,0.01429 -0.04315,0.02826 -0.06445,0.04297 0.02129,-0.0145 0.04253,-0.02867 0.06445,-0.04297 z m -0.210938,0.164062 c -1.225809,0.946909 -1.73751,2.595569 -1.109375,4.09375 l 2.894531,6.992188 c 0.155776,-0.07071 0.307965,-0.147098 0.466797,-0.212891 l 1.921875,-0.794922 z m -49.070312,0.08203 -4.138672,9.996093 1.919922,0.794922 c 0.133779,0.05541 0.260968,0.120789 0.392578,0.179688 l 2.851562,-6.958985 c 0.622861,-1.437625 0.164163,-3.062855 -1.02539,-4.011718 z M 64.78125,49.802734 v 1.013672 l 21.556641,2.78125 -0.002,-1.029297 z m -34.535156,0.0293 -21.5507815,2.78125 -0.00391,1 21.5546878,-2.787109 z" id="path14"/></svg>