<svg xmlns="http://www.w3.org/2000/svg" width="272" height="310" viewBox="0 0 272 310"><path fill-rule="evenodd" clip-rule="evenodd" d="M156 266H258C260.21 266 262 267.791 262 270V296C262 298.209 260.21 300 258 300H156C153.791 300 152 298.209 152 296V270C152 267.791 153.791 266 156 266Z" fill="#ffffff" opacity="0.4"/><path fill-rule="evenodd" clip-rule="evenodd" d="M15.0223 272H140.978C142.648 272 144 273.344 144 275.001V290.999C144 292.656 142.648 294 140.978 294H15.0223C13.353 294 12 292.656 12 290.999V275.001C12 273.344 13.353 272 15.0223 272Z" fill="#ffffff" opacity="0.2"/><path fill-rule="evenodd" clip-rule="evenodd" d="M11.9956 74H142.004C143.106 74 144 74.9775 144 76.182V83.818C144 85.0235 143.106 86 142.004 86H11.9956C10.894 86 10 85.0235 10 83.818V76.182C10 74.9775 10.894 74 11.9956 74Z" fill="#ffffff" opacity="0.6"/><path d="M 37.021484 90 C 35.905984 90 35 90.977141 35 92.181641 L 35 99.818359 C 35 101.02436 35.905984 102 37.021484 102 L 68.978516 102 C 70.094016 102 71 101.02436 71 99.818359 L 71 92.181641 C 71 90.977141 70.094016 90 68.978516 90 L 37.021484 90 z M 77 90 C 75.896 90 75 90.977141 75 92.181641 L 75 99.818359 C 75 101.02436 75.896 102 77 102 L 169.9668 102 C 171.0708 102 171.9668 101.02436 171.9668 99.818359 L 171.9668 92.181641 C 171.9668 90.977141 171.0708 90 169.9668 90 L 77 90 z M 239.99805 91 C 238.89505 91 238 91.814659 238 92.818359 L 238 99.181641 C 238 100.18594 238.89505 101 239.99805 101 L 246.00195 101 C 247.10495 101 248 100.18594 248 99.181641 L 248 92.818359 C 248 91.814659 247.10495 91 246.00195 91 L 239.99805 91 z M 253.99805 91 C 252.89505 91 252 91.814659 252 92.818359 L 252 99.181641 C 252 100.18594 252.89505 101 253.99805 101 L 260.00195 101 C 261.10495 101 262 100.18594 262 99.181641 L 262 92.818359 C 262 91.814659 261.10495 91 260.00195 91 L 253.99805 91 z M 37.023438 106 C 35.906837 106 35 106.97764 35 108.18164 L 35 115.81836 C 35 117.02436 35.906838 118 37.023438 118 L 96.976562 118 C 98.094163 118 99 117.02436 99 115.81836 L 99 108.18164 C 99 106.97764 98.094163 106 96.976562 106 L 37.023438 106 z M 104.97266 106 C 103.88366 106 103 106.97764 103 108.18164 L 103 115.81836 C 103 117.02436 103.88366 118 104.97266 118 L 149.02734 118 C 150.11634 118 151 117.02436 151 115.81836 L 151 108.18164 C 151 106.97764 150.11634 106 149.02734 106 L 104.97266 106 z M 253.99805 107 C 252.89505 107 252 107.81536 252 108.81836 L 252 115.18164 C 252 116.18564 252.89505 117 253.99805 117 L 260.00195 117 C 261.10495 117 262 116.18564 262 115.18164 L 262 108.81836 C 262 107.81536 261.10495 107 260.00195 107 L 253.99805 107 z M 36.970703 122 C 35.882603 122 35 122.97764 35 124.18164 L 35 131.81836 C 35 133.02436 35.882603 134 36.970703 134 L 75.029297 134 C 76.118397 134 77 133.02436 77 131.81836 L 77 124.18164 C 77 122.97764 76.118397 122 75.029297 122 L 36.970703 122 z M 83.980469 122 C 82.887469 122 82 122.97764 82 124.18164 L 82 131.81836 C 82 133.02436 82.887469 134 83.980469 134 L 176.01953 134 C 177.11253 134 178 133.02436 178 131.81836 L 178 124.18164 C 178 122.97764 177.11253 122 176.01953 122 L 83.980469 122 z M 253.99805 123 C 252.89505 123 252 123.81536 252 124.81836 L 252 131.18164 C 252 132.18564 252.89505 133 253.99805 133 L 260.00195 133 C 261.10495 133 262 132.18564 262 131.18164 L 262 124.81836 C 262 123.81536 261.10495 123 260.00195 123 L 253.99805 123 z " fill="#ffffff" opacity="0.2"/><path fill-rule="evenodd" clip-rule="evenodd" d="M25.0005 90C28.3139 90 31 92.6861 31 95.9995C31 99.3139 28.3139 102 25.0005 102C21.6861 102 19 99.3139 19 95.9995C19 92.6861 21.6861 90 25.0005 90ZM25.0005 106C28.3139 106 31 108.686 31 111.999C31 115.314 28.3139 118 25.0005 118C21.6861 118 19 115.314 19 111.999C19 108.686 21.6861 106 25.0005 106ZM25.0005 122C28.3139 122 31 124.686 31 127.999C31 131.314 28.3139 134 25.0005 134C21.6861 134 19 131.314 19 127.999C19 124.686 21.6861 122 25.0005 122Z" fill="#ffffff" opacity="0.8"/><path fill-rule="evenodd" clip-rule="evenodd" d="M11.9918 142H160.008C161.108 142 162 142.978 162 144.182V151.818C162 153.024 161.108 154 160.008 154H11.9918C10.8923 154 10 153.024 10 151.818V144.182C10 142.978 10.8923 142 11.9918 142ZM11.9903 162H192.01C193.109 162 194 162.977 194 164.182V171.818C194 173.023 193.109 174 192.01 174H11.9903C10.8916 174 10 173.023 10 171.818V164.182C10 162.977 10.8916 162 11.9903 162Z" fill="#ffffff" opacity="0.6"/><path fill-rule="evenodd" clip-rule="evenodd" d="M12.003 190H143.997C145.103 190 146 190.978 146 192.182V199.818C146 201.024 145.103 202 143.997 202H12.003C10.8973 202 10 201.024 10 199.818V192.182C10 190.978 10.8973 190 12.003 190Z" fill="#ffffff" opacity="0.4"/><path fill-rule="evenodd" clip-rule="evenodd" d="M36.9733 206H103.027C104.117 206 105 206.978 105 208.182V215.818C105 217.024 104.117 218 103.027 218H36.9733C35.884 218 35 217.024 35 215.818V208.182C35 206.978 35.884 206 36.9733 206ZM36.9925 222H165.008C166.108 222 167 222.978 167 224.182V231.818C167 233.024 166.108 234 165.008 234H36.9925C35.8926 234 35 233.024 35 231.818V224.182C35 222.978 35.8926 222 36.9925 222ZM37.0228 238H64.9772C66.0938 238 67 238.978 67 240.182V247.818C67 249.024 66.0938 250 64.9772 250H37.0228C35.9062 250 35 249.024 35 247.818V240.182C35 238.978 35.9062 238 37.0228 238Z" fill="#ffffff" opacity="0.2"/><path fill-rule="evenodd" clip-rule="evenodd" d="M25.0005 206C28.3139 206 31 208.686 31 211.999C31 215.314 28.3139 218 25.0005 218C21.6861 218 19 215.314 19 211.999C19 208.686 21.6861 206 25.0005 206ZM25.0005 222C28.3139 222 31 224.686 31 227.999C31 231.314 28.3139 234 25.0005 234C21.6861 234 19 231.314 19 227.999C19 224.686 21.6861 222 25.0005 222ZM25.0005 238C28.3139 238 31 240.686 31 243.999C31 247.314 28.3139 250 25.0005 250C21.6861 250 19 247.314 19 243.999C19 240.686 21.6861 238 25.0005 238Z" fill="#ffffff" opacity="0.8"/><path fill-rule="evenodd" clip-rule="evenodd" d="M210.029 18H259.971C261.092 18 262 18.9775 262 20.182V27.818C262 29.0235 261.092 30 259.971 30H210.029C208.909 30 208 29.0235 208 27.818V20.182C208 18.9775 208.909 18 210.029 18ZM199.992 34H260.008C261.108 34 262 34.9775 262 36.182V43.818C262 45.0235 261.108 46 260.008 46H199.992C198.893 46 198 45.0235 198 43.818V36.182C198 34.9775 198.893 34 199.992 34Z" fill="#ffffff"/></svg>