<svg xmlns="http://www.w3.org/2000/svg" width="95" height="60"><path opacity="0.5" fill="black" d="m 47.515625,0 v 10.140625 l 7.183594,7.185547 7.185547,-2.957031 z m -8.722656,3.5820312 c -0.08419,0.00362 -0.172766,0.024859 -0.259766,0.068359 l -2.316406,1.1015625 c -0.175885,0.1162546 -0.404193,0.1162546 -0.580078,0 l -2.31836,-1.1015625 c -0.168405,-0.057494 -0.351126,-0.057494 -0.519531,0 -0.29,0.174 -0.465015,0.5211407 -0.291016,0.8691406 l 1.101563,2.3183594 c 0.116255,0.1758853 0.116255,0.4041929 0,0.5800782 L 32.507812,9.734375 c -0.0581,0.1889944 -0.0581,0.391084 0,0.580078 0.174,0.29 0.579141,0.463063 0.869141,0.289063 l 2.318359,-1.0996098 c 0.173001,-0.1159999 0.405485,-0.1165937 0.521485,-0.058594 l 2.316406,1.1015625 c 0.189004,0.05804 0.391074,0.05804 0.580078,0 0.29,-0.175 0.463063,-0.5791406 0.289063,-0.8691406 L 38.302734,7.359375 c -0.116255,-0.1758852 -0.116255,-0.4041929 0,-0.5800781 l 1.09961,-2.3183594 c 0.05757,-0.1683926 0.05757,-0.3511387 0,-0.5195313 -0.1305,-0.2174999 -0.356813,-0.3702498 -0.609375,-0.359375 z" id="path4"/><path opacity="1" fill="black" d="M40.33 31.58l-7.185 3.013 14.37 14.313v-10.14L40.33 31.58z" id="path6"/><path opacity="0.25" fill="black" d="m 47.515625,10.140625 -7.185547,7.185547 v 10.429687 l 12.400391,-12.40039 z m 7.183594,7.242187 -14.310547,14.25586 4.691406,4.691406 -1.96875,-2.027344 11.587891,-11.585937 z m -9.619141,18.947266 2.435547,2.435547 7.183594,-7.185547 v -4.925781 z" id="path8"/><path opacity="0.75" fill="black" d="m 47.515625,0 -8.617187,8.6152344 0.503906,1.0625 c 0.174,0.29 9.37e-4,0.6941406 -0.289063,0.8691406 -0.189004,0.05804 -0.391074,0.05804 -0.580078,0 l -1.060547,-0.503906 -4.328125,4.326172 V 34.59375 l 7.185547,-3.013672 V 27.755859 17.326172 l 7.185547,-7.185547 z m 14.369141,14.369141 -7.185547,2.957031 v 0.05664 5.333985 3.9375 4.925781 l -7.183594,7.185547 V 48.90625 L 61.884766,34.535156 Z" id="path12"/></svg>