<svg xmlns="http://www.w3.org/2000/svg" width="48" height="48" viewBox="0 0 48 48" fill="none"><path fill="#F7E080" d="M31.5237 16.8877L28.4191 13.7834L26.5015 15.7008L29.6061 18.8051L31.5237 16.8877Z"/><path fill="#F7E080" d="M31.5252 16.8838L28.4205 13.7795L30.5028 13.6343L31.6704 14.8017L31.5252 16.8838Z"/><path fill="#F7E080" d="M28.7918 9.9113C29.1098 9.91263 29.4202 10.0078 29.6843 10.1849C29.9483 10.362 30.1542 10.6132 30.276 10.9068C30.3979 11.2005 30.4303 11.5235 30.3692 11.8355C30.308 12.1475 30.1561 12.4345 29.9325 12.6605C29.6265 12.9456 29.2218 13.1008 28.8036 13.0934C28.3854 13.0861 27.9864 12.9167 27.6907 12.621C27.3949 12.3252 27.2255 11.9263 27.2181 11.5082C27.2108 11.09 27.366 10.6853 27.6511 10.3794C27.9544 10.0786 28.3646 9.91025 28.7918 9.9113ZM28.7918 7.86688C27.9454 7.86606 27.125 8.15865 26.4701 8.69482C25.8153 9.231 25.3666 9.97759 25.2005 10.8074C25.0345 11.6372 25.1612 12.499 25.5593 13.2458C25.9573 13.9927 26.602 14.5785 27.3835 14.9034C28.165 15.2283 29.035 15.2722 29.8453 15.0278C30.6556 14.7833 31.356 14.2655 31.8273 13.5625C32.2986 12.8596 32.5116 12.015 32.4301 11.1727C32.3485 10.3303 31.9774 9.54234 31.3799 8.94289C31.0408 8.60178 30.6375 8.33111 30.1933 8.14644C29.7492 7.96177 29.2729 7.86677 28.7918 7.86688Z"/><path fill="#F7E080" d="M33.8012 14.9201C34.2292 14.9205 34.6395 15.0908 34.9419 15.3935C35.2058 15.6578 35.37 16.0053 35.4063 16.377C35.4427 16.7486 35.349 17.1214 35.1413 17.4317C34.9336 17.7421 34.6247 17.9708 34.2673 18.079C33.9098 18.1871 33.5259 18.168 33.1809 18.0248C32.836 17.8816 32.5514 17.6233 32.3756 17.2938C32.1998 16.9644 32.1437 16.5841 32.2169 16.2179C32.29 15.8518 32.4879 15.5223 32.7768 15.2856C33.0657 15.0489 33.4277 14.9198 33.8012 14.9201ZM33.8012 12.8757C32.9548 12.8749 32.1344 13.1675 31.4795 13.7036C30.8247 14.2398 30.376 14.9864 30.2099 15.8162C30.0439 16.646 30.1706 17.5078 30.5687 18.2546C30.9667 19.0015 31.6114 19.5873 32.3929 19.9122C33.1744 20.2371 34.0444 20.281 34.8547 20.0366C35.665 19.7921 36.3654 19.2743 36.8367 18.5713C37.308 17.8684 37.521 17.0238 37.4394 16.1815C37.3579 15.3391 36.9867 14.5511 36.3893 13.9517C36.0509 13.6096 35.6478 13.3383 35.2034 13.1536C34.7591 12.9688 34.2824 12.8744 33.8012 12.8757Z"/><path fill="#F7E080" d="M35.6468 8.04442C36.0747 8.0448 36.4851 8.2151 36.7875 8.51787C37.0111 8.74386 37.163 9.03086 37.2241 9.34284C37.2852 9.65483 37.2528 9.97792 37.131 10.2716C37.0092 10.5652 36.8033 10.8163 36.5393 10.9935C36.2752 11.1706 35.9647 11.2657 35.6468 11.2671C35.3288 11.2657 35.0184 11.1706 34.7543 10.9935C34.4903 10.8163 34.2844 10.5652 34.1626 10.2716C34.0407 9.97792 34.0083 9.65483 34.0694 9.34284C34.1306 9.03086 34.2825 8.74386 34.5061 8.51787C34.8085 8.2151 35.2188 8.0448 35.6468 8.04442ZM35.6468 6C35.1548 5.98113 34.6642 6.06172 34.2041 6.23693C33.7441 6.41215 33.3241 6.67839 32.9694 7.01972C32.6147 7.36105 32.3325 7.77044 32.1397 8.22339C31.947 8.67633 31.8477 9.16351 31.8477 9.65575C31.8477 10.148 31.947 10.6352 32.1397 11.0881C32.3325 11.5411 32.6147 11.9505 32.9694 12.2918C33.3241 12.6331 33.7441 12.8994 34.2041 13.0746C34.6642 13.2498 35.1548 13.3304 35.6468 13.3115C36.368 13.3087 37.0724 13.0928 37.6713 12.6909C38.2702 12.2891 38.7369 11.7192 39.0129 11.0529C39.2889 10.3866 39.3618 9.65365 39.2224 8.94607C39.083 8.23849 38.7376 7.58789 38.2295 7.07602C37.8917 6.73459 37.4895 6.46365 37.0461 6.27894C36.6027 6.09422 36.1271 5.99941 35.6468 6Z"/><path fill="#EBF0F7" d="M33.0385 29.525L27.2249 35.3379C26.239 36.3236 24.9019 36.8774 23.5077 36.8774C22.1135 36.8774 20.7764 36.3236 19.7905 35.3379L15.9249 31.4728L29.5724 17.8268L33.0385 21.2925C34.1303 22.3842 34.7437 23.8649 34.7437 25.4088C34.7437 26.9526 34.1303 28.4333 33.0385 29.525Z"/><path fill="#B2C1D1" d="M22.1952 23.9532L27.7158 23.0063L27.6135 24.4428C27.4141 26.3955 27.6625 28.368 28.3399 30.2102C28.683 31.0594 28.7685 31.9907 28.5858 32.8882C28.403 33.7856 27.9601 34.6093 27.3122 35.2567L26.8064 35.7947C25.9318 36.6677 24.7466 37.1579 23.5108 37.1579C22.275 37.1579 21.0898 36.6677 20.2151 35.7947L15.3026 30.8774L22.1952 23.9532Z"/><path fill="#F7E080" d="M29.5936 18.8045L26.4997 15.6841L6.33838 35.8593L9.22779 38.7484C9.28517 38.8049 9.36248 38.8366 9.44302 38.8366C9.52356 38.8366 9.60086 38.8049 9.65824 38.7484L29.5936 18.8045Z"/><path fill="#F7E080" d="M12.6607 30.6998L6.91949 36.4403L1.33438 30.8558C1.25125 30.7722 1.20459 30.659 1.20459 30.5411C1.20459 30.4232 1.25125 30.31 1.33438 30.2264L2.77639 28.7845C2.87661 28.682 2.9963 28.6006 3.12843 28.545C3.26056 28.4894 3.40247 28.4608 3.54582 28.4608C3.68918 28.4608 3.83108 28.4894 3.96322 28.545C4.09535 28.6006 4.21504 28.682 4.31526 28.7845L4.44977 28.9136C4.58085 29.0564 4.67452 29.2294 4.72241 29.4171C4.77029 29.6049 4.7709 29.8016 4.72419 29.9897C4.63949 30.3964 4.68933 30.8196 4.8662 31.1955C5.04306 31.5714 5.33736 31.8796 5.70471 32.0736C6.07207 32.2677 6.49256 32.337 6.90279 32.2712C7.31301 32.2055 7.69073 32.0081 7.97898 31.7089C8.26722 31.4098 8.45038 31.025 8.50082 30.6126C8.55126 30.2003 8.46625 29.7827 8.25861 29.4229C8.05098 29.0631 7.73197 28.7805 7.34969 28.6178C6.96742 28.4551 6.5426 28.4211 6.1393 28.5209C5.97422 28.5694 5.79928 28.5735 5.63208 28.5329C5.46489 28.4923 5.31135 28.4084 5.18692 28.2896L4.89099 27.9937C4.7152 27.8172 4.6165 27.5783 4.6165 27.3292C4.6165 27.0802 4.7152 26.8412 4.89099 26.6648L6.45676 25.1153C6.49773 25.0743 6.54638 25.0418 6.59993 25.0196C6.65348 24.9974 6.71087 24.986 6.76883 24.986C6.8268 24.986 6.88419 24.9974 6.93774 25.0196C6.99129 25.0418 7.03994 25.0743 7.08091 25.1153L12.6607 30.6998Z"/><path fill="#F5B312" d="M11.1759 37.2353L8.07129 34.131L7.47776 34.7244L10.5824 37.8287L11.1759 37.2353Z"/><path fill="#F5B312" d="M16.4287 31.98L13.3241 28.8757L12.0762 30.1235L15.1808 33.2278L16.4287 31.98Z"/><path fill="#CBD5E0" d="M26.9811 24.7889L26.9849 24.7851C27.9641 23.806 27.9641 22.2186 26.9849 21.2395L23.2411 17.4961C22.2619 16.5171 20.6743 16.5171 19.6951 17.4961L19.6913 17.4999C18.7121 18.479 18.7121 20.0664 19.6913 21.0455L23.4352 24.7889C24.4144 25.768 26.0019 25.768 26.9811 24.7889Z"/><path fill="#CBD5E0" d="M23.4337 28.3415L23.4375 28.3377C24.4167 27.3586 24.4167 25.7712 23.4375 24.7922L19.6936 21.0487C18.7144 20.0697 17.1269 20.0697 16.1477 21.0487L16.1439 21.0525C15.1647 22.0316 15.1647 23.619 16.1439 24.5981L19.8877 28.3415C20.8669 29.3206 22.4545 29.3206 23.4337 28.3415Z"/><path fill="#CBD5E0" d="M19.8841 31.8887L19.8879 31.8849C20.8671 30.9058 20.8671 29.3184 19.8879 28.3393L16.1441 24.5959C15.1649 23.6168 13.5773 23.6168 12.5981 24.5959L12.5943 24.5997C11.6151 25.5788 11.6151 27.1662 12.5943 28.1453L16.3381 31.8887C17.3173 32.8678 18.9049 32.8678 19.8841 31.8887Z"/><path fill="#EBF0F7" d="M30.3684 19.6599V19.6546C30.3684 18.2699 29.2458 17.1475 27.861 17.1475H23.4812C22.0964 17.1475 20.9738 18.2699 20.9738 19.6546V19.6599C20.9738 21.0446 22.0964 22.167 23.4812 22.167H27.861C29.2458 22.167 30.3684 21.0446 30.3684 19.6599Z"/><path fill="url(#paint0_linear)" d="M25.6423 37.7917L35.2758 28.1593L34.4311 27.3148L24.7976 36.9472L25.6423 37.7917Z"/><path fill="#EBF0F7" d="M27.178 39.3244L36.7163 29.7871C37.2143 29.2892 37.2152 28.4827 36.7182 27.9858C36.2213 27.4889 35.4147 27.4897 34.9167 27.9877L25.3783 37.525C24.8803 38.0229 24.8795 38.8294 25.3764 39.3263C25.8734 39.8232 26.6799 39.8224 27.178 39.3244Z"/><path fill="#F7D036" d="M42.0605 12.9779C42.0605 12.7937 41.9123 12.6443 41.7296 12.6443C41.5468 12.6443 41.3987 12.7937 41.3987 12.9779V13.3061C41.3987 13.4903 41.5468 13.6397 41.7296 13.6397C41.9123 13.6397 42.0605 13.4903 42.0605 13.3061V12.9779Z"/><path fill="#F7D036" d="M42.0605 15.6303C42.0605 15.4461 41.9123 15.2968 41.7296 15.2968C41.5468 15.2968 41.3987 15.4461 41.3987 15.6303V15.9585C41.3987 16.1427 41.5468 16.2921 41.7296 16.2921C41.9123 16.2921 42.0605 16.1427 42.0605 15.9585V15.6303Z"/><path fill="#F7D036" d="M43.2174 14.8018C43.4017 14.8018 43.551 14.6536 43.551 14.4709C43.551 14.2882 43.4017 14.14 43.2174 14.14H42.8892C42.705 14.14 42.5556 14.2882 42.5556 14.4709C42.5556 14.6536 42.705 14.8018 42.8892 14.8018H43.2174Z"/><path fill="#F7D036" d="M40.5647 14.8018C40.749 14.8018 40.8983 14.6536 40.8983 14.4709C40.8983 14.2882 40.749 14.14 40.5647 14.14H40.2365C40.0523 14.14 39.9029 14.2882 39.9029 14.4709C39.9029 14.6536 40.0523 14.8018 40.2365 14.8018H40.5647Z"/><path fill="#F47FFF" d="M43.3735 33.024C43.3735 32.7833 43.1796 32.5882 42.9403 32.5882C42.7011 32.5882 42.5072 32.7833 42.5072 33.024V33.4544C42.5072 33.6951 42.7011 33.8902 42.9403 33.8902C43.1796 33.8902 43.3735 33.6951 43.3735 33.4544V33.024Z"/><path fill="#F47FFF" d="M43.3735 36.4941C43.3735 36.2535 43.1796 36.0583 42.9403 36.0583C42.7011 36.0583 42.5072 36.2535 42.5072 36.4941V36.9245C42.5072 37.1652 42.7011 37.3603 42.9403 37.3603C43.1796 37.3603 43.3735 37.1652 43.3735 36.9245V36.4941Z"/><path fill="#F47FFF" d="M44.8907 35.402C45.1314 35.402 45.3265 35.2081 45.3265 34.9689C45.3265 34.7297 45.1314 34.5358 44.8907 34.5358H44.4602C44.2195 34.5358 44.0244 34.7297 44.0244 34.9689C44.0244 35.2081 44.2195 35.402 44.4602 35.402H44.8907Z"/><path fill="#F47FFF" d="M41.4256 35.4074C41.6663 35.4074 41.8615 35.2135 41.8615 34.9743C41.8615 34.7351 41.6663 34.5412 41.4256 34.5412H40.9952C40.7545 34.5412 40.5593 34.7351 40.5593 34.9743C40.5593 35.2135 40.7545 35.4074 40.9952 35.4074H41.4256Z"/><path fill="#60CFAC" d="M3.73413 17.0237L3.19607 18.1697C3.16618 18.2284 3.15564 18.295 3.16596 18.3601C3.17628 18.4252 3.20693 18.4853 3.25352 18.5319C3.3001 18.5785 3.36024 18.6091 3.42531 18.6194C3.49038 18.6297 3.55705 18.6192 3.61576 18.5893L4.76184 18.0513C4.80522 18.0328 4.85189 18.0233 4.89905 18.0233C4.9462 18.0233 4.99287 18.0328 5.03625 18.0513L6.18233 18.5893C6.24104 18.6192 6.30771 18.6297 6.37278 18.6194C6.43785 18.6091 6.49799 18.5785 6.54458 18.5319C6.59116 18.4853 6.62181 18.4252 6.63213 18.3601C6.64245 18.295 6.63191 18.2284 6.60202 18.1697L6.06396 17.0237C6.04546 16.9803 6.03592 16.9337 6.03592 16.8865C6.03592 16.8394 6.04546 16.7927 6.06396 16.7493L6.60202 15.6034C6.63191 15.5447 6.64245 15.478 6.63213 15.4129C6.62181 15.3479 6.59116 15.2878 6.54458 15.2412C6.49799 15.1946 6.43785 15.1639 6.37278 15.1536C6.30771 15.1433 6.24104 15.1539 6.18233 15.1837L5.03625 15.7217C4.99365 15.743 4.94668 15.7541 4.89905 15.7541C4.85141 15.7541 4.80444 15.743 4.76184 15.7217L3.61576 15.1837C3.55705 15.1539 3.49038 15.1433 3.42531 15.1536C3.36024 15.1639 3.3001 15.1946 3.25352 15.2412C3.20693 15.2878 3.17628 15.3479 3.16596 15.4129C3.15564 15.478 3.16618 15.5447 3.19607 15.6034L3.73413 16.7493C3.75263 16.7927 3.76217 16.8394 3.76217 16.8865C3.76217 16.9337 3.75263 16.9803 3.73413 17.0237Z"/><defs><linearGradient id="paint0_linear" x1="33.3571" y1="29.2359" x2="27.2776" y2="35.3106" gradientUnits="userSpaceOnUse"><stop stop-color="#DAE1EA"/><stop offset="1" stop-color="#BECBD8"/></linearGradient></defs></svg>