<svg xmlns="http://www.w3.org/2000/svg" width="168" height="88"><path opacity="0.5" fill="black" d="M 40.923828 0.005859375 C 40.400701 -0.062486328 39.934766 0.5014687 40.197266 1.0273438 L 41.449219 3.6816406 C 41.599219 3.8816406 41.6 4.08125 41.5 4.28125 L 40.248047 6.9355469 C 39.948047 7.5365469 40.597219 8.1867187 41.199219 7.8867188 L 43.853516 6.6347656 C 44.053516 6.5347656 44.303906 6.5347656 44.503906 6.6347656 L 47.158203 7.8867188 C 47.759203 8.1867188 48.409375 7.5375469 48.109375 6.9355469 L 46.857422 4.28125 C 46.757422 4.08125 46.757422 3.8308594 46.857422 3.6308594 L 48.060547 1.0273438 C 48.360547 0.4273437 47.708422 -0.22482812 47.107422 0.076171875 L 44.453125 1.3261719 C 44.253125 1.4261719 44.004686 1.4261719 43.804688 1.3261719 L 41.150391 0.076171875 C 41.075266 0.038671875 40.998561 0.015623047 40.923828 0.005859375 z M 85.212891 7.8867188 C 71.438378 7.8867188 59.294135 14.831982 52.085938 25.412109 L 60.927734 26.964844 C 62.128734 27.214844 63.18025 27.865406 63.78125 28.816406 L 65.90625 31.849609 L 85.111328 12.644531 L 85.111328 27.214844 L 95.425781 37.529297 L 105.74023 33.224609 L 104.46094 31.947266 L 106.69141 28.765625 C 107.29241 27.865625 108.34586 27.214844 109.54688 26.964844 L 118.33789 25.412109 C 111.12969 14.831974 98.987373 7.8867187 85.212891 7.8867188 z M 49.40625 29.984375 C 49.40625 29.984375 49.404297 29.986328 49.404297 29.986328 L 51.013672 30.269531 L 51.013672 30.267578 L 49.40625 29.984375 z M 45.333984 44.212891 C 45.220586 45.441591 45.154297 46.684938 45.154297 47.943359 C 45.154297 70.075359 63.081891 88 85.212891 88 C 107.34389 88 125.26953 70.075359 125.26953 47.943359 C 125.26953 46.688344 125.20463 45.448127 125.0918 44.222656 L 112.54102 46.429688 L 111.16406 46.679688 L 111.59961 49.244141 L 105.74023 57.626953 L 105.74023 62.3125 L 85.111328 82.943359 L 64.482422 62.3125 L 64.482422 57.318359 L 58.875 49.294922 L 59.318359 46.681641 L 57.673828 46.390625 L 57.675781 46.382812 L 45.333984 44.212891 z"/><path opacity="0.75" fill="black" d="M 85.111328 12.644531 L 64.482422 33.273438 L 64.482422 62.263672 L 74.796875 58.007812 L 74.796875 37.529297 L 85.111328 27.214844 L 85.111328 12.644531 z M 64.482422 62.263672 L 64.482422 62.3125 L 85.111328 82.943359 L 105.74023 62.3125 L 105.74023 33.273438 L 105.70508 33.238281 L 95.425781 37.529297 L 95.425781 58.007812 L 85.111328 68.322266 L 85.111328 82.892578 L 64.482422 62.263672 z M 131.75195 65.498047 C 131.22884 65.429715 130.76397 65.992781 131.02734 66.519531 L 132.2793 69.173828 C 132.3793 69.373828 132.3793 69.624219 132.2793 69.824219 L 131.02734 72.478516 C 130.72634 73.079516 131.37752 73.729688 131.97852 73.429688 L 134.63281 72.177734 C 134.83281 72.077734 135.0832 72.077734 135.2832 72.177734 L 137.9375 73.429688 C 138.5375 73.729687 139.18867 73.079516 138.88867 72.478516 L 137.63672 69.824219 C 137.53672 69.624219 137.53672 69.373828 137.63672 69.173828 L 138.88867 66.519531 C 139.18867 65.918531 138.5375 65.268359 137.9375 65.568359 L 135.2832 66.820312 C 135.0832 66.920312 134.83281 66.920312 134.63281 66.820312 L 131.97852 65.568359 C 131.90339 65.530859 131.82668 65.507809 131.75195 65.498047 z"/><path opacity="0.25" fill="black" d="M 85.111328 27.214844 L 74.796875 37.529297 L 74.796875 52.5 L 92.621094 34.724609 L 85.111328 27.214844 z M 95.425781 37.578125 L 74.847656 58.058594 L 85.111328 68.322266 L 95.425781 58.007812 L 95.425781 50.947266 L 81.605469 64.767578 L 78.753906 61.912109 L 95.425781 45.289062 L 95.425781 37.578125 z"/><path opacity="1" fill="black" d="M 5.5605469 27.939453 C 5.0105469 27.939453 4.5605469 28.391406 4.5605469 28.941406 L 4.5605469 29.941406 C 4.5605469 30.493406 5.0105469 30.943359 5.5605469 30.943359 C 6.1115469 30.943359 6.5625 30.492406 6.5625 29.941406 L 6.5625 28.941406 C 6.5625 28.390406 6.1125469 27.939453 5.5605469 27.939453 z M 1.0546875 32.445312 C 0.5036875 32.445312 0.052734375 32.896266 0.052734375 33.447266 C 0.052734375 33.998266 0.5046875 34.449219 1.0546875 34.449219 L 2.0566406 34.449219 C 2.6076406 34.449219 3.0566406 33.997266 3.0566406 33.447266 C 3.0566406 32.895266 2.6066406 32.445312 2.0566406 32.445312 L 1.0546875 32.445312 z M 9.0664062 32.445312 C 8.5144063 32.445312 8.0644531 32.896266 8.0644531 33.447266 C 8.0644531 33.998266 8.5154062 34.449219 9.0664062 34.449219 L 10.066406 34.449219 C 10.617406 34.449219 11.068359 33.997266 11.068359 33.447266 C 11.068359 32.895266 10.616406 32.445312 10.066406 32.445312 L 9.0664062 32.445312 z M 5.5605469 35.951172 C 5.0105469 35.951172 4.5605469 36.402125 4.5605469 36.953125 L 4.5605469 37.953125 C 4.5605469 38.504125 5.0105469 38.955078 5.5605469 38.955078 C 6.1115469 38.955078 6.5625 38.503125 6.5625 37.953125 L 6.5625 36.953125 C 6.5625 36.401125 6.1125469 35.951172 5.5605469 35.951172 z M 74.796875 58.007812 L 64.482422 62.263672 L 85.111328 82.892578 L 85.111328 68.322266 L 74.796875 58.007812 z"/></svg>