<svg xmlns="http://www.w3.org/2000/svg" width="282" height="160"><path fill="#FFFFFF" d="M 138.35547 0.005859375 C 138.11765 -0.0028965656 137.88147 -0.0020484258 137.64844 0.009765625 C 136.877 0.048874207 136.13242 0.2046875 135.41992 0.5 C 127.51992 3.82 128.64922 20.880312 122.69922 26.820312 C 116.74922 32.760312 99.670625 31.639531 96.390625 39.519531 C 93.240625 47.129531 106 58.370859 106 67.130859 C 106 82.630859 90.910156 82.619141 90.910156 98.119141 C 90.910156 113.61914 106 113.66914 106 129.11914 C 106 144.56914 91.000859 144.61 90.880859 160 L 235.08984 160 C 234.99984 144.62 220 144.57914 220 129.11914 C 220 113.61914 235.08984 113.63086 235.08984 98.130859 C 235.08984 82.630859 220 82.630859 220 67.130859 C 220 58.370859 232.75914 47.139531 229.61914 39.519531 C 226.33914 31.639531 209.22906 32.770314 203.28906 26.820312 C 197.34906 20.870312 198.48008 3.78 190.58008 0.5 C 183.00008 -2.65 171.75977 10.119141 163.00977 10.119141 C 155.32788 10.119141 145.72772 0.27729353 138.35547 0.005859375 z M 227.78125 10.220703 A 1.31 1.31 0 0 0 226.50977 11.529297 L 226.50977 12.849609 A 1.31 1.31 0 0 0 229.13086 12.849609 L 229.13086 11.529297 A 1.31 1.31 0 0 0 227.78125 10.220703 z M 232.40039 16.119141 A 1.31 1.31 0 0 0 232.40039 18.740234 L 233.7207 18.740234 A 1.31 1.31 0 1 0 233.7207 16.119141 L 232.40039 16.119141 z M 221.91016 16.130859 A 1.31 1.31 0 0 0 221.91016 18.75 L 223.23047 18.75 A 1.31 1.31 0 0 0 223.23047 16.130859 L 221.91016 16.130859 z M 227.78125 20.720703 A 1.31 1.31 0 0 0 226.50977 22.029297 L 226.50977 23.349609 A 1.31 1.31 0 0 0 229.13086 23.349609 L 229.13086 22.029297 A 1.31 1.31 0 0 0 227.78125 20.720703 z M 30.189453 57.980469 C 29.549453 57.980469 29.029297 58.500625 29.029297 59.140625 L 29.029297 60.310547 C 29.029297 60.950547 29.549453 61.470703 30.189453 61.470703 L 30.199219 61.470703 C 30.839219 61.470703 31.359375 60.950547 31.359375 60.310547 L 31.359375 59.140625 C 31.359375 58.500625 30.839219 57.980469 30.199219 57.980469 L 30.189453 57.980469 z M 24.949219 63.210938 C 24.309219 63.210938 23.789063 63.729141 23.789062 64.369141 L 23.789062 64.380859 C 23.789062 65.020859 24.309219 65.539062 24.949219 65.539062 L 26.119141 65.539062 C 26.759141 65.539062 27.279297 65.020859 27.279297 64.380859 L 27.279297 64.369141 C 27.279297 63.729141 26.759141 63.210937 26.119141 63.210938 L 24.949219 63.210938 z M 34.259766 63.210938 C 33.619766 63.210938 33.099609 63.729141 33.099609 64.369141 L 33.099609 64.380859 C 33.099609 65.020859 33.619766 65.539062 34.259766 65.539062 L 35.429688 65.539062 C 36.069688 65.539062 36.589844 65.020859 36.589844 64.380859 L 36.589844 64.369141 C 36.589844 63.729141 36.069687 63.210937 35.429688 63.210938 L 34.259766 63.210938 z M 30.189453 67.289062 C 29.549453 67.289062 29.029297 67.809219 29.029297 68.449219 L 29.029297 69.619141 C 29.029297 70.259141 29.549453 70.779297 30.189453 70.779297 L 30.199219 70.779297 C 30.839219 70.779297 31.359375 70.259141 31.359375 69.619141 L 31.359375 68.449219 C 31.359375 67.809219 30.839219 67.289062 30.199219 67.289062 L 30.189453 67.289062 z M 275.65039 105.10938 A 0.721 0.721 0 0 0 275.2793 105.23047 L 272.59961 106.50977 A 0.704 0.704 0 0 1 271.9707 106.50977 L 269.30078 105.23047 A 0.727 0.727 0 0 0 268.20312 105.76562 A 0.732 0.732 0 0 0 268.30078 106.23047 L 269.58008 108.91016 A 0.7 0.7 0 0 1 269.58008 109.53906 L 268.30078 112.21094 A 0.727 0.727 0 0 0 268.41211 113.09766 A 0.734 0.734 0 0 0 269.30078 113.21094 L 272 111.90039 A 0.76 0.76 0 0 1 272.63086 111.90039 L 275.31055 113.18945 A 0.734 0.734 0 0 0 276.19727 113.07617 A 0.73 0.73 0 0 0 276.31055 112.18945 L 275 109.53906 A 0.705 0.705 0 0 1 275 108.91016 L 276.2793 106.23047 A 0.721 0.721 0 0 0 275.65039 105.10938 z"/><path fill="#FFFFFF" d="m 60.21,140.17 a 0.502,0.502 0 0 1 -0.34,-0.13 0.493,0.493 0 0 1 -0.109,-0.54 0.482,0.482 0 0 1 0.109,-0.16 5.66,5.66 0 0 1 7.48,-0.68 0.51,0.51 0 0 1 0.1,0.7 0.501,0.501 0 0 1 -0.7,0.1 4.652,4.652 0 0 0 -6.14,0.55 0.497,0.497 0 0 1 -0.4,0.16 z m -2.55,7.59 a 0.467,0.467 0 0 1 -0.27,-0.09 0.501,0.501 0 0 1 -0.14,-0.69 c 3.21,-4.83 10.11,-6.38 15.38,-3.44 a 0.5,0.5 0 0 1 0.19,0.68 0.488,0.488 0 0 1 -0.495,0.253 0.488,0.488 0 0 1 -0.185,-0.063 10.809,10.809 0 0 0 -14.06,3.12 0.491,0.491 0 0 1 -0.18,0.171 0.492,0.492 0 0 1 -0.24,0.059 z m -0.35,7.04 a 0.498,0.498 0 0 1 -0.41,-0.79 c 4.82,-6.86 14.83,-8.85 22.32,-4.44 a 0.499,0.499 0 0 1 0.17,0.68 0.495,0.495 0 0 1 -0.68,0.18 c -7,-4.15 -16.47,-2.29 -21,4.16 a 0.536,0.536 0 0 1 -0.4,0.21 z"/><path fill="#18191C" d="M 163 28 A 42.222 42.222 0 0 0 120.76953 70.230469 L 120.76953 160 L 205.19922 160 L 205.19922 70.230469 A 42.22 42.22 0 0 0 163 28 z M 163.875 39.259766 C 167.5675 39.259766 171.26008 41.470625 174.08008 45.890625 C 168.44008 54.730625 159.30992 54.730625 153.66992 45.890625 C 156.48992 41.470625 160.1825 39.259766 163.875 39.259766 z M 162.98047 43.519531 C 161.78747 43.519531 160.82031 44.581625 160.82031 45.890625 C 160.82031 47.199625 161.78747 48.259766 162.98047 48.259766 C 164.17347 48.259766 165.14062 47.199625 165.14062 45.890625 C 165.14065 44.581625 164.17347 43.519531 162.98047 43.519531 z M 185.00977 49.339844 A 1.76 1.76 0 1 1 185.00977 52.859375 A 1.76 1.76 0 0 1 185.00977 49.339844 z M 138.66992 58.669922 A 0.88 0.88 0 1 1 138.66992 60.429688 A 0.88 0.88 0 0 1 138.66992 58.669922 z M 183.40039 64.529297 A 2.051 2.051 0 0 1 185.38867 66.490234 L 185.41992 66.490234 L 185.41992 69.007812 L 186.29688 68.130859 A 2.051 2.051 0 0 1 187.74609 67.576172 A 2.051 2.051 0 0 1 189.73633 69.410156 L 189.7793 69.380859 L 189.7793 73.355469 A 2.051 2.051 0 0 1 190.56055 73.214844 A 2.051 2.051 0 0 1 192.02539 76.658203 L 190.11719 78.568359 A 2.051 2.051 0 0 1 187.2793 78.546875 A 4.128 4.128 0 0 1 186.91992 79.009766 A 7.33 7.33 0 0 1 176.4707 79.109375 L 174.57031 77.199219 L 170.26953 77.199219 A 2.412 2.412 0 0 1 168.55859 76.496094 A 2.42 2.42 0 0 1 170.26953 72.369141 L 178.40625 72.369141 L 176.52148 70.484375 A 2.05 2.05 0 0 1 173.46094 68.730469 L 173.46094 66.580078 A 2.05 2.05 0 0 1 175.44922 64.53125 A 2.05 2.05 0 0 1 176.79883 64.986328 A 2.051 2.051 0 0 1 176.9668 65.130859 L 179.42773 67.591797 L 181.92969 65.089844 A 2.051 2.051 0 0 1 183.40039 64.529297 z M 150.38477 66.363281 A 2.0502561 2.0502561 0 0 1 151.86328 66.964844 L 153.38477 68.484375 A 2.0508858 2.0508858 0 0 1 153.5 68.615234 L 154.19922 67.919922 A 2.42 2.42 0 0 1 155.94727 67.212891 A 2.42 2.42 0 0 1 158.14258 68.701172 A 2.415 2.415 0 0 1 158.14258 70.548828 A 2.406 2.406 0 0 1 157.61914 71.330078 L 154.57031 74.330078 L 154.57031 77.029297 A 7.29 7.29 0 0 1 147.11914 84.339844 A 4.131 4.131 0 0 1 144.30078 83.109375 L 141.64844 80.478516 L 141.63086 80.490234 L 140.32812 79.412109 A 2.0502561 2.0502561 0 0 1 136.98633 81.660156 L 135.07617 79.75 A 2.0502561 2.0502561 0 0 1 136.49609 76.25 A 2.0502561 2.0502561 0 0 1 136.51172 76.25 L 136.5 76.240234 L 140.12109 76.240234 A 2.051 2.051 0 0 1 141.63086 73.117188 L 141.63086 73.089844 L 144.29297 73.089844 L 142.28516 71.082031 A 2.0502561 2.0502561 0 0 1 143.70508 67.582031 A 2.0502561 2.0502561 0 0 1 145.18359 68.181641 L 148.36914 71.367188 L 148.36914 68.542969 A 2.0502561 2.0502561 0 0 1 150.38477 66.363281 z M 134.80273 110.63086 A 0.479 0.479 0 0 1 135.23047 110.89062 L 136.41992 113 A 0.479 0.479 0 0 1 136.41992 113.48242 A 0.488 0.488 0 0 1 136 113.7207 L 133.58984 113.7207 A 0.482 0.482 0 0 1 133.34961 113.65625 A 0.483 0.483 0 0 1 133.16992 113 L 134.35938 110.92969 A 0.479 0.479 0 0 1 134.80273 110.63086 z M 170.93945 128.16992 A 5.76 5.76 0 0 1 175.21094 130.12891 A 3.9 3.9 0 0 0 174.34961 130.0293 A 3.90039 3.90039 0 0 0 174.34961 137.83008 A 3.9 3.9 0 0 0 175.20312 137.73242 A 5.76 5.76 0 0 1 170.93945 139.68945 A 5.76 5.76 0 0 1 170.93945 128.16992 z"/><path fill="#FF9B00" d="M 78.87,48.23 V 45.3 l -1.09,0.47 a 3.88,3.88 0 0 0 -2.35,3.55 v 2 a 7.311,7.311 0 0 1 -2.14,5.17 l -0.93,0.94 v 4.23 h 10.25 v -2.17 a 10.52,10.52 0 0 0 -2.07,-6.26 l -0.1,-0.14 a 7.93,7.93 0 0 1 -1.57,-4.86 z"/><path fill="#FF9B00" d="m 76.63,67.66 a 5.98,5.98 0 1 0 0,-11.96 5.98,5.98 0 0 0 0,11.96 z"/><path fill="#FFDA13" d="m 79.44,56.34 h -0.41 v -2.33 a 1.58,1.58 0 0 1 1.58,-1.58 h 0.42 v 2.34 a 1.578,1.578 0 0 1 -1.59,1.57 z m -2.809,1.889 1.726,1.725 a 2.44,2.44 0 1 1 -3.451,0 z"/><path fill="#848A9B" d="m 76.77,71.65 h -0.28 a 6.12,6.12 0 0 1 -6.11,-6.11 v -3.8 a 0.75,0.75 0 0 1 1.5,0 v 3.8 a 4.61,4.61 0 0 0 4.61,4.61 h 0.28 a 4.62,4.62 0 0 0 4.61,-4.61 v -3.8 a 0.75,0.75 0 0 1 1.5,0 v 3.8 a 6.12,6.12 0 0 1 -6.11,6.11 z"/><path fill="#848A9B" d="M 84.72,65.54 H 68.54 a 0.75,0.75 0 0 1 0,-1.5 h 16.18 a 0.75,0.75 0 0 1 0,1.5 z"/><path fill="#9FA6B9" d="m 77.93,83.79 a 4.19,4.19 0 1 0 0,-8.38 4.19,4.19 0 0 0 0,8.38 z"/><path fill="#848A9B" d="M 76.63,87.3 A 0.75,0.75 0 0 1 75.88,86.55 V 61.74 a 0.75,0.75 0 0 1 1.5,0 v 24.81 a 0.76,0.76 0 0 1 -0.75,0.75 z"/><path fill="#FF9B00" d="M 248.79,48.23 V 45.3 l -1.09,0.47 a 3.86,3.86 0 0 0 -2.35,3.55 v 2 a 7.319,7.319 0 0 1 -2.14,5.17 l -0.93,0.94 v 4.23 h 10.21 v -2.17 a 10.517,10.517 0 0 0 -2.07,-6.26 l -0.1,-0.14 a 7.869,7.869 0 0 1 -1.53,-4.86 z"/><path fill="#FF9B00" d="m 246.54,67.66 a 5.98,5.98 0 1 0 0,-11.96 5.98,5.98 0 0 0 0,11.96 z"/><path fill="#FFDA13" d="m 249.35,56.34 h -0.42 v -2.33 a 1.577,1.577 0 0 1 1.58,-1.58 h 0.42 v 2.34 a 1.581,1.581 0 0 1 -1.58,1.57 z m -2.807,1.89 1.725,1.726 a 2.429,2.429 0 0 1 0.722,1.727 2.428,2.428 0 0 1 -0.715,1.73 2.438,2.438 0 0 1 -4.165,-1.725 c 0,-0.647 0.257,-1.268 0.715,-1.725 l 1.725,-1.725 z"/><path fill="#848A9B" d="m 246.68,71.65 h -0.27 a 6.122,6.122 0 0 1 -6.12,-6.11 v -3.8 a 0.75,0.75 0 1 1 1.5,0 v 3.8 a 4.622,4.622 0 0 0 4.62,4.61 h 0.27 a 4.618,4.618 0 0 0 4.62,-4.61 v -3.8 a 0.75,0.75 0 1 1 1.5,0 v 3.8 a 6.123,6.123 0 0 1 -6.12,6.11 z"/><path fill="#848A9B" d="m 254.64,65.54 h -16.19 a 0.748,0.748 0 0 1 -0.75,-0.75 0.749,0.749 0 0 1 0.75,-0.75 h 16.19 a 0.748,0.748 0 0 1 0.75,0.75 0.749,0.749 0 0 1 -0.75,0.75 z"/><path fill="#9FA6B9" d="m 247.85,83.79 a 4.19,4.19 0 1 0 0,-8.38 4.19,4.19 0 0 0 0,8.38 z"/><path fill="#848A9B" d="M 246.55,87.3 A 0.748,0.748 0 0 1 245.8,86.55 V 61.74 a 0.75,0.75 0 1 1 1.5,0 v 24.81 a 0.762,0.762 0 0 1 -0.75,0.75 z"/><path fill="#1C48B0" d="m 135.2,154.74 a 0.86,0.86 0 1 0 0,-1.72 0.86,0.86 0 0 0 0,1.72 z"/><path fill="#FFFFFF" d="M 89.33,160 A 0.471,0.471 0 0 1 89,159.87 L 54.25,128.05 a 0.502,0.502 0 0 1 0.304,-0.859 0.5,0.5 0 0 1 0.356,0.109 58.435,58.435 0 0 0 37.09,13.25 h 6.64 a 0.498,0.498 0 0 1 0.354,0.853 0.5,0.5 0 0 1 -0.354,0.147 H 92 A 60.012,60.012 0 0 1 61,132.9 l 28.64,26.23 a 0.492,0.492 0 0 1 0.148,0.355 0.499,0.499 0 0 1 -0.148,0.355 0.523,0.523 0 0 1 -0.31,0.16 z"/><path fill="#FFFFFF" d="m 67,139.56 a 0.5,0.5 0 0 1 -0.5,-0.5 2.9,2.9 0 0 1 3,-2.78 0.5,0.5 0 1 1 0,1 1.898,1.898 0 0 0 -2,1.78 0.5,0.5 0 0 1 -0.5,0.5 z m 5.38,4.92 a 0.513,0.513 0 0 1 -0.5,-0.5 5.509,5.509 0 0 1 5.71,-5.27 0.503,0.503 0 0 1 0.5,0.5 0.498,0.498 0 0 1 -0.5,0.5 4.513,4.513 0 0 0 -4.71,4.29 0.502,0.502 0 0 1 -0.5,0.48 z M 79,150.5 A 0.5,0.5 0 0 1 78.5,150 c 0,-5.29 4.68,-9.6 10.44,-9.6 a 0.508,0.508 0 0 1 0.5,0.5 0.497,0.497 0 0 1 -0.5,0.5 c -5.2,0 -9.44,3.86 -9.44,8.6 a 0.497,0.497 0 0 1 -0.5,0.5 z"/><path fill="#107856" d="m 191.83,131.16 -1.14,0.4 a 0.3,0.3 0 0 0 0,0.56 l 1.14,0.39 a 0.316,0.316 0 0 1 0.18,0.18 l 0.39,1.14 a 0.3,0.3 0 0 0 0.56,0 l 0.4,-1.14 a 0.316,0.316 0 0 1 0.18,-0.18 l 1.13,-0.39 a 0.29,0.29 0 0 0 0,-0.56 l -1.13,-0.4 a 0.319,0.319 0 0 1 -0.18,-0.18 l -0.4,-1.13 a 0.285,0.285 0 0 0 -0.104,-0.155 0.286,0.286 0 0 0 -0.352,0 0.29,0.29 0 0 0 -0.104,0.155 L 192,131 a 0.317,0.317 0 0 1 -0.17,0.16 z"/><path fill="#FFDA13" d="m 183.3,87.61 -1.13,0.4 a 0.29,0.29 0 0 0 0,0.56 l 1.13,0.39 a 0.32,0.32 0 0 1 0.18,0.18 l 0.4,1.14 a 0.3,0.3 0 0 0 0.56,0 l 0.39,-1.14 A 0.311,0.311 0 0 1 185,89 l 1.13,-0.39 a 0.302,0.302 0 0 0 0,-0.56 L 185,87.65 a 0.31,0.31 0 0 1 -0.19,-0.18 l -0.39,-1.13 a 0.29,0.29 0 0 0 -0.56,0 l -0.4,1.13 a 0.32,0.32 0 0 1 -0.16,0.14 z"/><path fill="#4CB797" d="m 164.38,106.66 c 7.572,0 13.71,-6.138 13.71,-13.71 0,-7.572 -6.138,-13.71 -13.71,-13.71 -7.572,0 -13.71,6.138 -13.71,13.71 0,7.572 6.138,13.71 13.71,13.71 z"/><path fill="#107856" d="m 164.38,93 13.69,-0.71 a 13.767,13.767 0 0 0 -13.69,-13 z"/><path fill="#7DE5C5" d="m 164.38,93 8.92,10.41 a 13.687,13.687 0 0 0 1.93,-18.78 z"/><path fill="#801387" d="m 134.9,128 a 1.53,1.53 0 1 0 -3.06,0 v 7.67 a 1.53,1.53 0 1 0 3.06,0 z m 6.62,-2.06 a 1.53,1.53 0 1 0 -3.06,0 v 9.73 a 1.53,1.53 0 1 0 3.06,0 z m 6.57,2.06 a 1.53,1.53 0 1 0 -3.06,0 v 7.67 a 1.53,1.53 0 1 0 3.06,0 z m 7.75,0 a 1.53,1.53 0 1 0 -3.06,0 v 7.67 a 1.53,1.53 0 1 0 3.06,0 z"/><path fill="#C436D1" d="m 155.84,122.24 a 1.53,1.53 0 1 0 -3.06,0 v 7.67 a 1.53,1.53 0 1 0 3.06,0 z m -20.94,2.27 a 1.53,1.53 0 1 0 -3.06,0 v 7.67 a 1.53,1.53 0 1 0 3.06,0 z m 6.62,-5.37 a 1.53,1.53 0 1 0 -3.06,0 v 7.67 a 1.53,1.53 0 1 0 3.06,0 z m 6.57,-5.59 a 1.53,1.53 0 1 0 -3.06,0 v 18.85 a 1.53,1.53 0 1 0 3.06,0 z"/><path fill="#9BBAFA" d="m 184.45,105.1 v 9 l 7.2,-3.6 z"/><path fill="#9BBAFA" d="m 188.311,110.514 -1.842,0.921 2.254,4.508 1.842,-0.922 z"/><path fill="#FAE380" d="m 41.09,108.59 h 6.27 A 1.638,1.638 0 0 1 49,110.22 V 120 h -7.9 v -11.41 z"/><path fill="#F8B610" d="m 47.36,108.59 h -6.27 l 7.91,4.47 v -2.84 a 1.64,1.64 0 0 0 -1.64,-1.63 z"/><path fill="#F8B610" d="m 44.54,109.63 c 0,-0.448 -0.36,-0.81 -0.805,-0.81 a 0.807,0.807 0 0 0 -0.805,0.81 v 5.31 c 0,0.447 0.36,0.81 0.805,0.81 a 0.808,0.808 0 0 0 0.805,-0.81 z"/><path fill="#FF9B00" d="m 45.062,102.106 1.506,1.506 a 2.18,2.18 0 0 1 0,3.083 2.183,2.183 0 0 1 -2.38,0.48 2.18,2.18 0 0 1 -0.71,-3.556 l 1.548,-1.549 z"/><path fill="#454A5A" d="m 45.59,105.67 h -1.1 v 2.92 h 1.1 z"/><path fill="#A56847" d="M 52.86,120 H 33.07 a 28.26,28.26 0 0 0 0,40 H 52.86 A 28.276,28.276 0 0 0 58.993,129.176 28.276,28.276 0 0 0 52.86,120 z"/><path fill="#784343" d="m 51.07,160 c 5,-11.53 5,-28.46 0,-40 H 34.86 c -5,11.53 -5,28.46 0,40 h 3.31 c -5.34,-11 -5.34,-28.95 0,-40 h 9.58 c 5.34,11 5.34,29 0,40 z"/><path fill="#C3C7D9" d="M 27.6,127.68 H 58.32 A 28.038,28.038 0 0 0 56.15,124 H 29.77 a 28.038,28.038 0 0 0 -2.17,3.68 z m 2.18,28.38 h 26.36 a 29.283,29.283 0 0 0 2.18,-3.73 H 27.6 a 29.27,29.27 0 0 0 2.18,3.73 z"/><path fill="#FFFFFF" d="m 45.21,134.72 a 0.503,0.503 0 0 1 -0.5,-0.5 V 120 a 0.5,0.5 0 1 1 1,0 v 14.21 a 0.495,0.495 0 0 1 -0.143,0.36 0.496,0.496 0 0 1 -0.357,0.15 z"/><path fill="#000000" d="m 46.93,142.44 a 0.371,0.371 0 0 1 -0.37,-0.37 v -4.82 a 1.26,1.26 0 1 0 -2.52,0 v 4.82 a 0.378,0.378 0 0 1 -0.375,0.319 0.379,0.379 0 0 1 -0.375,-0.319 v -4.82 a 2,2 0 0 1 4,0 v 4.82 a 0.381,0.381 0 0 1 -0.36,0.37 z"/><path fill="#000000" d="m 48.31,142.44 a 0.38,0.38 0 0 1 -0.38,-0.37 v -4.82 A 1.249,1.249 0 0 0 46.68,136 h -2.76 a 1.261,1.261 0 0 0 -1.26,1.26 v 4.82 a 0.368,0.368 0 0 1 -0.37,0.37 0.38,0.38 0 0 1 -0.38,-0.37 v -4.82 a 1.998,1.998 0 0 1 2,-2 h 2.76 a 1.996,1.996 0 0 1 2,2 v 4.82 a 0.372,0.372 0 0 1 -0.36,0.36 z"/><path fill="#000000" d="m 49.79,142.44 a 0.381,0.381 0 0 1 -0.38,-0.37 v -4.82 A 1.25,1.25 0 0 0 48.15,136 h -5.71 a 1.24,1.24 0 0 0 -0.887,0.369 1.254,1.254 0 0 0 -0.363,0.891 v 4.82 a 0.38,0.38 0 0 1 -0.642,0.261 0.368,0.368 0 0 1 -0.108,-0.261 v -4.82 a 1.999,1.999 0 0 1 2,-2 h 5.71 a 1.996,1.996 0 0 1 2,2 v 4.82 a 0.38,0.38 0 0 1 -0.36,0.36 z"/><path fill="#000000" d="m 45.3,135.61 a 1.61,1.61 0 1 0 0,-3.22 1.61,1.61 0 0 0 0,3.22 z m 0,1.55 a 0.61,0.61 0 1 0 0,-1.22 0.61,0.61 0 0 0 0,1.22 z"/><path fill="#9097A8" d="M 249.58,151.5 H 209.7 v 8.5 h 39.89 z"/><path fill="#AEB4C6" d="M 209.69,151.32 H 77.14 l 0.01,8.68 h 132.59 z"/><path fill="#9097A8" d="m 235.08,151.5 h -42.4 v -7.94 h 42.41 z"/><path fill="#AEB4C6" d="M 192.66,151.5 H 91.65 v -7.94 h 101.03 z"/><path fill="#9BA2B5" d="m 185.92,160 v -8.5 h -2.8 v 8.5 z m -26.94,0 v -8.5 h -2.8 v 8.5 z m -26.93,0.01 v -8.5 h -2.8 v 8.5 z m -26.94,0 v -8.5 h -2.8 v 8.5 z m 65.83,-8.5 v -7.95 h -2.8 v 7.95 z m -26.94,0 v -7.95 h -2.8 v 7.95 z m -26.93,0 v -7.95 h -2.8 v 7.95 z"/><path fill="#E79FD5" d="m 139.9,41.11 -1.13,0.4 a 0.29,0.29 0 0 0 0,0.56 l 1.13,0.39 a 0.292,0.292 0 0 1 0.18,0.19 l 0.4,1.13 a 0.3,0.3 0 0 0 0.56,0 l 0.39,-1.13 a 0.302,0.302 0 0 1 0.19,-0.19 l 1.13,-0.39 a 0.302,0.302 0 0 0 0,-0.56 l -1.13,-0.4 a 0.29,0.29 0 0 1 -0.19,-0.18 L 141,39.8 a 0.291,0.291 0 0 0 -0.456,-0.155 0.291,0.291 0 0 0 -0.104,0.155 l -0.4,1.13 a 0.275,0.275 0 0 1 -0.14,0.18 z"/><path fill="#F1C8E6" d="m 197.73,58.35 a 0.8,0.8 0 1 0 0,-1.6 0.8,0.8 0 0 0 0,1.6 z"/><path fill="#FFFFFF" d="m 100.65,156.26 h 4.13 a 7.64,7.64 0 0 0 0,-15.28 h -4.13 a 7.64,7.64 0 1 0 0,15.28 z"/><path fill="#AEC7FF" d="m 111.41,149.07 v -0.89 a 2.63,2.63 0 0 0 -2.63,-2.63 h -1.49 a 2.63,2.63 0 0 0 -2.63,2.63 v 0.89 a 2.63,2.63 0 0 0 2.63,2.63 h 1.49 a 2.63,2.63 0 0 0 2.63,-2.63 z"/><path fill="#FFFFFF" d="m 93.01,160 h 9.92 v -11.38 h -9.92 z"/><path fill="#414657" d="m 94.94,150.83 a 1.19,1.19 0 1 0 0,-2.38 1.19,1.19 0 0 0 0,2.38 z m 6.77,0 a 1.19,1.19 0 1 0 0,-2.38 1.19,1.19 0 0 0 0,2.38 z m -5.35,0.23 3.08,2.92 h -3.08 z"/><path fill="#CCDEFA" d="m 102.92,156.27 3.47,-3.47 h -3.47 z"/><path fill="#C3C7D9" d="m 95.14,157.01 h 6.57 v -0.74 h -6.57 z"/></svg>