<svg xmlns="http://www.w3.org/2000/svg" width="82" height="72" viewBox="0 0 82 72"><path fill="black" opacity="0.6" d="M 52.787109 2.2207031 C 52.053273 2.2146637 51.305869 2.3182669 50.566406 2.5429688 L 25.392578 10.193359 C 21.515089 11.37158 19.300889 15.438904 20.359375 19.345703 L 19.236328 19.693359 C 18.398428 19.952659 17.695356 20.535153 17.285156 21.314453 C 16.874956 22.093853 16.791028 23.006709 17.048828 23.849609 L 19.234375 31 C 19.492175 31.8429 20.072856 32.548336 20.847656 32.960938 C 21.622356 33.373637 22.529288 33.460472 23.367188 33.201172 L 24.738281 32.777344 C 26.090301 34.774852 28.335802 35.995784 30.734375 36.050781 C 31.502848 36.0684 32.286702 35.970116 33.0625 35.734375 L 57.591797 28.28125 L 57.759766 28.689453 L 30.400391 40.671875 L 30.085938 45.003906 C 29.926637 47.215906 30.514906 49.417353 31.753906 51.251953 C 32.735706 52.706553 34.086516 53.870147 35.666016 54.623047 C 36.052637 54.807374 36.449003 54.964408 36.853516 55.095703 C 36.861136 58.603929 36.872744 62.669147 36.880859 65.707031 C 36.881959 66.229631 36.985547 66.748169 37.185547 67.230469 C 37.385647 67.712769 37.678475 68.151131 38.046875 68.519531 C 38.415375 68.888031 38.851331 69.178553 39.332031 69.376953 C 39.810827 69.574508 40.324184 69.675049 40.841797 69.673828 C 41.359305 69.671961 41.871912 69.569485 42.349609 69.369141 C 42.829209 69.168141 43.264359 68.872353 43.630859 68.501953 C 43.997359 68.131553 44.286675 67.692284 44.484375 67.208984 C 44.681975 66.725684 44.78265 66.208147 44.78125 65.685547 C 44.773285 62.675272 44.761843 58.660156 44.755859 55.171875 L 51.410156 54.572266 C 52.868499 57.877371 54.655157 61.92292 55.957031 64.865234 C 56.382831 65.828934 57.171991 66.583891 58.150391 66.962891 C 59.128691 67.341891 60.217381 67.314219 61.175781 66.886719 C 61.650981 66.675119 62.079 66.370687 62.4375 65.992188 C 62.796 65.613687 63.076572 65.169341 63.263672 64.681641 C 63.450772 64.193941 63.542097 63.672991 63.529297 63.150391 C 63.516397 62.627791 63.400153 62.112666 63.189453 61.634766 C 62.104486 59.181929 60.705061 56.011368 59.402344 53.058594 C 59.896983 52.778396 60.368672 52.456906 60.804688 52.082031 C 62.193888 50.887731 63.1806 49.287006 63.625 47.503906 C 64.0855 45.653706 63.938684 43.703759 63.208984 41.943359 L 61.339844 37.392578 C 66.989541 33.624425 69.844066 29.661487 72.232422 24.962891 C 72.266022 24.896991 72.295972 24.829572 72.326172 24.763672 L 72.326172 24.769531 C 72.675272 23.943731 72.694653 23.014281 72.376953 22.175781 C 72.059253 21.337281 71.429947 20.656038 70.623047 20.273438 C 69.816147 19.890837 68.893928 19.835847 68.048828 20.123047 C 67.203728 20.410147 66.500844 21.0161 66.089844 21.8125 C 64.277941 25.3794 62.339561 28.139061 58.646484 30.837891 L 57.595703 28.279297 L 58.236328 28.083984 C 61.505525 27.090576 63.591592 24.042758 63.533203 20.769531 L 65.501953 20.160156 C 66.339953 19.900856 67.040872 19.316409 67.451172 18.537109 C 67.861372 17.757809 67.947253 16.846706 67.689453 16.003906 L 65.501953 8.8515625 C 65.374453 8.4338925 65.165472 8.0457144 64.888672 7.7089844 C 64.611872 7.3722544 64.272572 7.095085 63.888672 6.890625 C 63.504772 6.686175 63.084844 6.5585881 62.652344 6.5175781 C 62.219944 6.4765681 61.784141 6.5217006 61.369141 6.6503906 L 59.724609 7.1601562 C 58.641849 4.1662234 55.832948 2.2457704 52.787109 2.2207031 z M 61.826172 9.1503906 C 62.148634 9.1174647 62.476953 9.181115 62.767578 9.3359375 C 63.155178 9.5423675 63.445219 9.8947472 63.574219 10.316406 L 65.275391 15.880859 C 65.404291 16.302559 65.36145 16.758637 65.15625 17.148438 C 64.95095 17.538338 64.600841 17.829284 64.181641 17.958984 L 61.021484 18.9375 L 58.347656 10.193359 L 61.507812 9.2167969 C 61.612589 9.1843694 61.718684 9.1613659 61.826172 9.1503906 z M 53.800781 10.011719 C 55.032981 10.011719 56.03125 11.016459 56.03125 12.255859 C 56.03125 13.495359 55.032981 14.5 53.800781 14.5 C 52.568581 14.5 51.570313 13.495359 51.570312 12.255859 C 51.570312 11.016459 52.568581 10.011719 53.800781 10.011719 z M 46.439453 10.363281 C 46.747966 10.392619 47.050878 10.484113 47.330078 10.632812 C 47.888378 10.930212 48.306483 11.437522 48.492188 12.044922 L 50.195312 17.617188 C 50.653512 19.115488 50.502638 20.733841 49.773438 22.119141 C 49.044238 23.504541 47.797994 24.543006 46.308594 25.003906 L 39.044922 27.251953 C 37.435022 27.750153 35.693678 27.583816 34.205078 26.791016 C 32.716578 25.998216 31.602722 24.642737 31.107422 23.023438 L 29.542969 17.908203 C 29.357169 17.300803 29.419244 16.645584 29.714844 16.083984 C 30.010544 15.522284 30.515241 15.100963 31.119141 14.914062 L 45.513672 10.458984 C 45.815622 10.365534 46.130941 10.333944 46.439453 10.363281 z M 26.236328 18.541016 C 27.468528 18.541016 28.466797 19.545656 28.466797 20.785156 C 28.466797 22.024556 27.468528 23.029297 26.236328 23.029297 C 25.004228 23.029297 24.003906 22.024556 24.003906 20.785156 C 24.003906 19.545656 25.004228 18.541016 26.236328 18.541016 z M 45.492188 19.4375 C 45.358767 19.423811 45.220234 19.436341 45.083984 19.478516 L 42.318359 20.335938 C 41.773359 20.504638 41.467066 21.084612 41.634766 21.632812 L 41.634766 21.634766 C 41.802466 22.182966 42.380781 22.490866 42.925781 22.322266 L 45.691406 21.466797 C 46.236406 21.298197 46.5427 20.716269 46.375 20.167969 L 46.375 20.166016 C 46.249225 19.754866 45.892448 19.478567 45.492188 19.4375 z M 23.712891 20.916016 L 26.386719 29.658203 L 23.230469 30.634766 C 22.811269 30.764466 22.358303 30.720072 21.970703 30.513672 C 21.583103 30.307272 21.292963 29.954803 21.164062 29.533203 L 19.462891 23.970703 C 19.333891 23.549003 19.376831 23.094878 19.582031 22.705078 C 19.787231 22.315178 20.137541 22.022278 20.556641 21.892578 L 23.712891 20.916016 z M 37.927734 21.78125 C 37.794314 21.767547 37.655781 21.780116 37.519531 21.822266 L 35.542969 22.433594 C 34.997969 22.602194 34.691675 23.184122 34.859375 23.732422 C 35.027075 24.280622 35.605391 24.588622 36.150391 24.419922 L 38.126953 23.808594 C 38.671853 23.639894 38.978147 23.057966 38.810547 22.509766 C 38.684772 22.098616 38.327995 21.822359 37.927734 21.78125 z M 70.650391 44.376953 C 70.18052 44.387092 69.715356 44.492956 69.285156 44.691406 C 68.711556 44.955906 68.221288 45.374991 67.867188 45.900391 L 64.787109 50.46875 C 64.733809 50.55065 64.703519 50.646341 64.699219 50.744141 C 64.694819 50.841941 64.717872 50.939091 64.763672 51.025391 C 64.809572 51.111791 64.877737 51.183575 64.960938 51.234375 C 65.044137 51.285175 65.139028 51.313453 65.236328 51.314453 L 70.726562 51.314453 C 71.285263 51.313753 71.833725 51.175863 72.328125 50.914062 C 72.822525 50.652362 73.247653 50.273447 73.564453 49.810547 C 73.881353 49.347647 74.081733 48.813859 74.148438 48.255859 C 74.215237 47.697859 74.145966 47.132722 73.947266 46.607422 C 73.721766 46.014522 73.338344 45.494769 72.839844 45.105469 C 72.341444 44.716169 71.747894 44.471433 71.121094 44.398438 C 70.964369 44.380212 70.807014 44.373573 70.650391 44.376953 z"/><path fill="black" opacity="0.7" d="M 29.794922 35.966797 C 29.53415 36.171669 29.290841 36.401528 29.095703 36.677734 C 24.499203 43.175734 23.323981 48.349194 22.988281 54.121094 L 22.988281 54.345703 C 22.990598 55.246984 23.341258 56.112217 23.966797 56.757812 C 24.593697 57.404712 25.447903 57.780787 26.345703 57.804688 C 27.243503 57.828688 28.115291 57.499219 28.775391 56.886719 C 29.435491 56.274119 29.832359 55.425538 29.880859 54.523438 C 29.993327 52.599325 30.21208 50.837122 30.654297 49.083984 C 30.185125 47.787536 29.985546 46.397913 30.085938 45.003906 L 30.734375 36.050781 C 30.417696 36.04352 30.104561 36.01381 29.794922 35.966797 z"/><path fill="black" opacity="0.2" d="M 61.826172 9.1503906 C 61.718684 9.1613659 61.612588 9.1843694 61.507812 9.2167969 L 58.347656 10.193359 L 61.021484 18.9375 L 64.181641 17.958984 C 64.600841 17.829284 64.95095 17.538338 65.15625 17.148438 C 65.36145 16.758638 65.404291 16.302559 65.275391 15.880859 L 63.574219 10.316406 C 63.445219 9.8947463 63.155178 9.5423675 62.767578 9.3359375 C 62.476953 9.181115 62.148634 9.1174647 61.826172 9.1503906 z M 46.439453 10.363281 C 46.130941 10.333944 45.815622 10.365534 45.513672 10.458984 L 31.119141 14.914062 C 30.515241 15.100964 30.010544 15.522284 29.714844 16.083984 C 29.419244 16.645584 29.357169 17.300803 29.542969 17.908203 L 31.107422 23.023438 C 31.602722 24.642737 32.716578 25.998216 34.205078 26.791016 C 35.693678 27.583816 37.435022 27.750153 39.044922 27.251953 L 46.308594 25.003906 C 47.797994 24.543006 49.044238 23.504541 49.773438 22.119141 C 50.502637 20.733841 50.653513 19.115488 50.195312 17.617188 L 48.492188 12.044922 C 48.306486 11.437522 47.888378 10.930213 47.330078 10.632812 C 47.050878 10.484114 46.747966 10.392619 46.439453 10.363281 z M 45.492188 19.4375 C 45.892448 19.478567 46.249225 19.754863 46.375 20.166016 L 46.375 20.167969 C 46.5427 20.716269 46.236406 21.298197 45.691406 21.466797 L 42.925781 22.322266 C 42.380781 22.490866 41.802466 22.182966 41.634766 21.634766 L 41.634766 21.632812 C 41.467066 21.084613 41.773359 20.504637 42.318359 20.335938 L 45.083984 19.478516 C 45.220234 19.436296 45.358767 19.42381 45.492188 19.4375 z M 23.712891 20.916016 L 20.556641 21.892578 C 20.137541 22.022278 19.787231 22.315178 19.582031 22.705078 C 19.376831 23.094878 19.333891 23.549003 19.462891 23.970703 L 21.164062 29.533203 C 21.292963 29.954803 21.583103 30.307272 21.970703 30.513672 C 22.358303 30.720072 22.811269 30.764466 23.230469 30.634766 L 26.386719 29.658203 L 23.712891 20.916016 z M 37.927734 21.78125 C 38.327995 21.822359 38.684772 22.098616 38.810547 22.509766 C 38.978147 23.057966 38.671853 23.639894 38.126953 23.808594 L 36.150391 24.419922 C 35.605391 24.588622 35.027075 24.280622 34.859375 23.732422 C 34.691675 23.184122 34.997969 22.602194 35.542969 22.433594 L 37.519531 21.822266 C 37.655781 21.780146 37.794314 21.76755 37.927734 21.78125 z"/><path fill="black" opacity="0.8" d="M 57.591797 28.28125 L 33.0625 35.734375 C 32.286702 35.970116 31.502848 36.0684 30.734375 36.050781 L 30.398438 40.671875 L 57.759766 28.689453 L 57.591797 28.28125 z"/></svg>