<svg xmlns="http://www.w3.org/2000/svg" width="184" height="110" viewBox="0 0 184 110"><g fill="none" fill-rule="evenodd" stroke="#202225" stroke-width="2" stroke-linecap="round" stroke-linejoin="round"><path d="M 138.4623,0.8503 H 0.7103 m 145.4043,0 h -3.316" transform="translate(10,106.617)"/><path d="m 70.875,9.1503906 c -1.4,0 -2.533203,1.1361564 -2.533203,2.5351564 0,1.4 1.133203,2.533203 2.533203,2.533203 1.4,0 2.535156,-1.133203 2.535156,-2.533203 0,-1.399 -1.135156,-2.5351564 -2.535156,-2.5351564 z m -2.087891,8.2331024 v 3.292757 z m 4.175782,0.03286 v 3.259899 z"/><path d="M 65.384766,6.1933594 V 17.175781 H 76.367188 V 6.1933594 Z m -0.01449,1.6894531 h -6.32145 v 7.6035155 l 6.32145,-0.02323 m 11.104331,0.02323 h 6.228516 V 7.8828125 h -6.228516"/><path d="m 120.19727,102.74609 -90.443364,-9e-5 v 4.721 c 0,0 60.297716,0.076 90.443364,0"/><path d="M 60,93.469857 V 99.2 m 25.043946,0 -0.08795,-5.730502"/><path d="m 141.143,46.154318 -4.2e-4,-25.179709 H 2 v 72.353516 h 139.143 l -0.057,-7.289039"/><path d="M 114.12993,86.369 8.9570312,86.369141 v -58.4375 H 134.18555 l 4.5e-4,20.954073 m 0,35.168143 -4.5e-4,2.315143 H 133.32"/><path d="m 31.841797,99.249 v 3.497 L 41.334,102.747 V 99.25 h 5.454 v 3.497 l 5.849,-9.9e-4 v -3.497004 h 5.06 v 3.497004 l 39.704918,-1e-5 V 99.27 h 5.476272 v 3.476 h 5.29674 V 99.27 h 4.92579 l 0.0465,3.476 h 4.96219 V 99.27 Z"/><path d="m 126.715,102.90039 v -9.79423 m -6.475,0.232335 V 102.9"/><path d="m 128.8519,107.467 -10.749,3e-4 c -1.223,3e-5 -2.213,-0.991 -2.213,-2.213 0,-1.223 0.99,-2.213 2.213,-2.213 h 10.749 c 1.223,0 2.213,0.99 2.213,2.213 0,1.222 -0.99,2.21267 -2.213,2.2127 z M 125.234,73.254 h -9.377 l 0.0328,-8.220005 c 0.0168,-4.190967 3.40195,-7.792841 7.58694,-7.588 4.02771,0.197143 2.65964,1.016571 2.65964,1.016571"/><path d="m 132.963,82.4319 -4e-4,2.207 c -8.2e-4,4.518 -3.662,8.18 -8.18,8.18 h -2.61 c -4.518,0 -8.18,-3.662 -8.18,-8.18 v -9.567 c 0,-1.004 0.813,-1.81801 1.817,-1.818 l 9.97828,1e-4"/><path d="m 127.2709,82.1617 c 0,2.096 -1.698,3.794 -3.794,3.794 -2.095,0 -3.794,-1.698 -3.794,-3.794 0,-2.096 1.699,-3.794 3.794,-3.794 2.096,0 3.794,1.698 3.794,3.794 z M 115.89,64.6275 l 9.344,8.626 m -6.47573,-14.203031 5.99722,5.721222 M 144.9457,90.282457 V 91.7416 c 0,3.492 -2.831,6.323 -6.323,6.323 h -18.307"/><path d="m 148.73985,86.461275 3e-4,2.760525 c 5e-5,0.502 -0.40645,0.91 -0.90845,0.91 h -5.771 c -0.502,0 -0.89717,-0.408139 -0.909,-0.91 l -0.0657,-2.787744"/><path d="m 124.7699,66.232 c 0,-11.144 9.033,-20.176 20.176,-20.176 11.143,0 20.176,9.032 20.176,20.176 0,11.143 -9.033,20.175 -20.176,20.175 -11.143,0 -20.176,-9.032 -20.176,-20.175 z"/><path d="m 148.7679,51.0484 c -1.223,-0.308 -2.504,-0.471 -3.822,-0.471 -8.645,0 -15.654,7.009 -15.654,15.655 0,8.644 7.009,15.653 15.654,15.653 8.645,0 15.654,-7.009 15.654,-15.653 0,-4.064 -1.549,-7.765 -4.087,-10.547 m -3.827,-3.0638 c 0.581,0.332 1.139,0.699 1.67,1.1 m 25.8974,27.3385 v 3.492 m 1.7471,-1.7459 h -3.493 M 140.0531,2.9996 v 3.492 m 1.7461,-1.7459 h -3.492 m -34.425,32.6767 -0.823,0.823 m -3.2932,3.2932 -0.823,0.823 m 4.9392,3e-4 -0.823,-0.823 m -3.2932,-3.2932 -0.823,-0.823 m 59.1394,-23.0159 c 0,0.965 -0.782,1.747 -1.746,1.747 -0.965,0 -1.746,-0.782 -1.746,-1.747 0,-0.964 0.781,-1.746 1.746,-1.746 0.964,0 1.746,0.782 1.746,1.746 z"/></g></svg>