<svg xmlns="http://www.w3.org/2000/svg" width="272" height="310" viewBox="0 0 272 310"><g transform="translate(10,74)"><path opacity="0.2" fill="black" d="m 145.99971,192 h 102.00058 c 2.20984,0 3.99971,1.791 3.99971,4 v 26 c 0,2.209 -1.78987,4 -3.99971,4 H 145.99971 C 143.79087,226 142,224.209 142,222 v -26 c 0,-2.209 1.79087,-4 3.99971,-4"/><path opacity="0.1" fill="black" d="M 5.022347,198 H 130.97765 C 132.648,198 134,199.34361 134,201.00136 v 15.99728 C 134,218.65639 132.648,220 130.97765,220 H 5.022347 C 3.353004,220 2,218.65639 2,216.99864 V 201.00136 C 2,199.34361 3.353004,198 5.022347,198"/><path opacity="0.5" fill="black" d="M 1.995577,0 H 132.00442 C 133.10598,0 134,0.97754341 134,2.1820166 V 9.8179835 C 134,11.023548 133.10598,12 132.00442,12 H 1.995577 C 0.89401848,12 0,11.023548 0,9.8179835 V 2.1820166 C 0,0.97754341 0.89401848,0 1.995577,0"/><path opacity="0.1" fill="black" d="M 27.020769,16 H 58.979231 C 60.094695,16 61,16.977543 61,18.182016 v 7.635967 C 61,27.023548 60.094695,28 58.979231,28 H 27.020769 C 25.905304,28 25,27.023548 25,25.817983 V 18.182016 C 25,16.977543 25.905304,16 27.020769,16 M 67,16 h 92.966 c 1.104,0 2,0.977543 2,2.182016 v 7.635967 C 161.966,27.023548 161.07,28 159.966,28 H 67 c -1.104,0 -2,-0.976452 -2,-2.182017 V 18.182016 C 65,16.977543 65.896,16 67,16 m 176.9982,1 h 6.0036 C 251.10481,17 252,17.814619 252,18.818347 v 6.363306 C 252,26.18629 251.10481,27 250.0018,27 h -6.0036 C 242.89519,27 242,26.18629 242,25.181653 V 18.818347 C 242,17.814619 242.89519,17 243.9982,17 m -13.9998,0 h 6.0032 C 237.10472,17 238,17.814619 238,18.818347 v 6.363306 C 238,26.18629 237.10472,27 236.0016,27 h -6.0032 C 228.89528,27 228,26.18629 228,25.181653 V 18.818347 C 228,17.814619 228.89528,17 229.9984,17 M 27.02282,32 H 86.97718 C 88.094788,32 89,32.977543 89,34.182017 v 7.635966 C 89,43.023548 88.094788,44 86.97718,44 H 27.02282 C 25.906223,44 25,43.023548 25,41.817983 V 34.182017 C 25,32.977543 25.906223,32 27.02282,32 m -0.0515,16 H 65.028678 C 66.117833,48 67,48.977543 67,50.182017 v 7.635966 C 67,59.023548 66.117833,60 65.028678,60 H 26.971322 C 25.883152,60 25,59.023548 25,57.817983 V 50.182017 C 25,48.977543 25.883152,48 26.971322,48 M 94.972589,32 H 139.02741 C 140.11628,32 141,32.977543 141,34.182017 v 7.635966 C 141,43.023548 140.11628,44 139.02741,44 H 94.972589 C 93.88372,44 93,43.023548 93,41.817983 V 34.182017 C 93,32.977543 93.88372,32 94.972589,32 M 243.9982,33 h 6.0036 C 251.10481,33 252,33.814619 252,34.818347 v 6.363306 C 252,42.18629 251.10481,43 250.0018,43 h -6.0036 C 242.89519,43 242,42.18629 242,41.181653 V 34.818347 C 242,33.814619 242.89519,33 243.9982,33"/><path opacity="0.7" fill="black" d="m 15.000545,16 v 0 C 18.313938,16 21,18.686062 21,21.999454 21,25.313938 18.313938,28 15.000545,28 11.686062,28 9,25.313938 9,21.999454 9,18.686062 11.686062,16 15.000545,16 m 0,16 v 0 C 18.313938,32 21,34.686062 21,37.999454 21,41.313938 18.313938,44 15.000545,44 11.686062,44 9,41.313938 9,37.999454 9,34.686062 11.686062,32 15.000545,32 m 0,16 v 0 C 18.313938,48 21,50.686062 21,53.999454 21,57.313938 18.313938,60 15.000545,60 11.686062,60 9,57.313938 9,53.999454 9,50.686062 11.686062,48 15.000545,48"/><path opacity="0.1" fill="black" d="m 243.9982,49 h 6.0036 C 251.10481,49 252,49.814619 252,50.818347 v 6.363306 C 252,58.18629 251.10481,59 250.0018,59 h -6.0036 C 242.89519,59 242,58.18629 242,57.181653 V 50.818347 C 242,49.814619 242.89519,49 243.9982,49"/><path opacity="0.5" fill="black" d="M 1.99181,68 H 150.00819 C 151.10767,68 152,68.977543 152,70.182017 v 7.635966 C 152,79.023548 151.10767,80 150.00819,80 H 1.99181 C 0.89233088,80 0,79.023548 0,77.817983 V 70.182017 C 0,68.977543 0.89233088,68 1.99181,68 M 1.99025,88 h 180.0195 C 183.10936,88 184,88.977454 184,90.181818 v 7.636364 C 184,99.022546 183.10936,100 182.00975,100 H 1.9902542 C 0.8916339,100 0,99.022546 0,97.818182 V 90.181818 C 0,88.977454 0.8916339,88 1.9902542,88"/><path opacity="0.3" fill="black" d="M 2.0029898,116 H 133.99701 c 1.10565,0 2.00299,0.97754 2.00299,2.18202 v 7.63596 C 136,127.02355 135.10266,128 133.99701,128 H 2.0029898 C 0.89733941,128 0,127.02355 0,125.81798 v -7.63596 C 0,116.97754 0.89733941,116 2.0029898,116"/><path opacity="0.1" fill="black" d="M 26.973276,132 H 93.026724 C 94.116959,132 95,132.97754 95,134.18202 v 7.63596 C 95,143.02355 94.116959,144 93.026724,144 H 26.973276 C 25.884028,144 25,143.02355 25,141.81798 v -7.63596 C 25,132.97754 25.884028,132 26.973276,132 m 0.01922,16 H 155.0075 c 1.10086,0 1.9925,0.97754 1.9925,2.18202 v 7.63596 C 157,159.02355 156.10836,160 155.0075,160 H 26.992498 C 25.892639,160 25,159.02355 25,157.81798 v -7.63596 C 25,148.97754 25.892639,148 26.992498,148 m 0.03026,16 H 54.977244 C 56.093805,164 57,164.97754 57,166.18202 v 7.63596 C 57,175.02355 56.093805,176 54.977244,176 H 27.022756 C 25.906195,176 25,175.02355 25,173.81798 v -7.63596 C 25,164.97754 25.906195,164 27.022756,164"/><path opacity="0.7" fill="black" d="m 15.000545,132 v 0 C 18.313938,132 21,134.68606 21,137.99945 21,141.31394 18.313938,144 15.000545,144 11.686062,144 9,141.31394 9,137.99945 9,134.68606 11.686062,132 15.000545,132 m 0,16 v 0 C 18.313938,148 21,150.68606 21,153.99945 21,157.31394 18.313938,160 15.000545,160 11.686062,160 9,157.31394 9,153.99945 9,150.68606 11.686062,148 15.000545,148 m 0,16 v 0 C 18.313938,164 21,166.68606 21,169.99945 21,173.31394 18.313938,176 15.000545,176 11.686062,176 9,173.31394 9,169.99945 9,166.68606 11.686062,164 15.000545,164"/></g><path fill="black" d="M20.007 14C18 14 16 16 16 18.752L16 45C16 48 18 49.007 20.007 49.007L40 49.007C40.665 49.007 41.6021 47.8696 41.4171 47.2296L41 45 48 51C49 52 50 51.858 50 51L50 18C50 16 49 14 46 14L20.007 14zM210.028855 18L259.971145 18C261.092087 18 262 18.9775434 262 20.1820165L262 27.8179835C262 29.0235476 261.092087 30 259.971145 30L210.028855 30C208.908927 30 208 29.0235476 208 27.8179835L208 20.1820165C208 18.9775434 208.908927 18 210.028855 18M199.992497 34L260.007503 34C261.108358 34 262 34.9775434 262 36.1820165L262 43.8179835C262 45.0235476 261.108358 46 260.007503 46L199.992497 46C198.892639 46 198 45.0235476 198 43.8179835L198 36.1820165C198 34.9775434 198.892639 34 199.992497 34"/></svg>