<svg xmlns="http://www.w3.org/2000/svg" width="85.333344" height="85.333344" viewBox="0 0 85.333344 85.333344"><path fill="black" opacity="0.6" d="M 0 0 L 0 85.333984 L 85.333984 85.333984 L 85.333984 0 L 0 0 z M 48.816406 18.017578 C 50.329944 17.91235 52.053959 18.287771 52.896484 19.21875 C 53.503314 19.889288 54 20.821805 54 21.291016 C 54 21.868106 54.538595 22.009528 55.666016 21.726562 C 56.627114 21.485342 57.333984 21.594565 57.333984 21.986328 C 57.333984 22.359981 56.648779 22.666016 55.8125 22.666016 C 54.75797 22.666016 54.076512 23.241335 53.585938 24.541016 C 53.148019 25.701196 51.884524 26.889529 50.271484 27.660156 C 48.838474 28.344775 46.167317 29.016289 44.333984 29.152344 C 41.541095 29.359609 40.420275 29.059601 37.423828 27.308594 C 33.636584 25.095477 33.628986 24.737275 37.333984 23.324219 C 38.617318 22.834767 40.445568 21.899492 41.396484 21.246094 C 42.623971 20.402657 43.331705 20.265299 43.837891 20.771484 C 44.682249 21.615843 46 20.962227 46 19.699219 C 46 18.709663 47.302869 18.122806 48.816406 18.017578 z M 29.042969 38.015625 C 31.121343 38.04005 44.705904 41.868437 45.730469 42.71875 C 46.397064 43.271974 46.666016 45.092033 46.666016 49.033203 C 46.666016 54.220486 46.555888 54.656639 44.910156 55.951172 C 43.944042 56.711118 42.729199 57.056818 42.320312 57.023438 C 40.277482 56.856664 26.252655 53.152696 25.515625 52.541016 C 24.953707 52.074664 24.666016 49.984543 24.666016 46.367188 C 24.666016 41.512664 24.839336 40.735936 26.208984 39.449219 C 27.057616 38.65197 28.333268 38.007325 29.042969 38.015625 z M 27.072266 50.087891 C 26.729912 50.126506 26.664695 50.330021 26.794922 50.720703 C 26.961578 51.22067 27.827314 51.815615 28.716797 52.042969 C 29.606279 52.270324 30.583677 52.319303 30.890625 52.152344 C 31.731849 51.694776 30.568422 50.820048 28.412109 50.287109 C 28.045318 50.196456 27.748243 50.134046 27.509766 50.103516 C 27.330908 50.080618 27.186383 50.075019 27.072266 50.087891 z M 36.109375 52.347656 C 35.676089 52.340183 35.311403 52.421019 35.111328 52.621094 C 34.660949 53.071473 34.970261 53.504828 36.052734 53.9375 C 38.20572 54.798063 39.333984 54.814689 39.333984 53.984375 C 39.333984 53.190513 37.409234 52.370075 36.109375 52.347656 z"/><path fill="black" opacity="1" d="m 53.333335,68.348409 c -1.65,-0.49064 -10.2,-2.745234 -19.000001,-5.01022 C 15.05416,58.376024 14.571315,58.07837 14.112505,50.872891 13.863904,46.968688 13.961438,47.255429 12.569682,45.460988 11.332049,43.865261 10.39801,42.508679 10,37.155767 9.651571,32.469679 10.231061,31.2194 11.38172,29.756574 c 0.759946,-0.966116 1.816378,-1.756573 2.347626,-1.756573 0.531248,0 1.315092,-0.766379 1.741874,-1.703065 1.036164,-2.274131 8.050679,-7.480159 10.764656,-7.989304 1.292592,-0.242492 4.267975,0.131719 7.374086,0.927431 l 5.207157,1.333948 3.758108,-2.055459 c 5.10098,-2.78993 9.548683,-2.943013 11.733986,-0.403865 0.840845,0.976994 2.240255,1.876994 3.109799,2 1.14189,0.161532 1.637753,0.713911 1.785365,1.988856 0.164928,1.424513 -0.155192,1.885064 -1.658609,2.386202 -1.678866,0.559622 -1.237859,0.774916 4.462292,2.178441 5.090982,1.253531 6.748075,1.97823 8.491942,3.713797 2.007774,1.998217 2.166667,2.479021 2.166667,6.556351 0,3.367233 -0.390072,3.722833 0.692907,4.300499 0.937635,0.500138 1.832093,0.889959 2.59204,1.856074 1.149093,1.460834 1.38172,2.700585 1.38172,7.363637 0,5.06429 -0.238002,6.163476 -1.715969,7.641438 -0.9,0.9 -2.238941,1.357756 -2.586268,1.357756 -0.347327,0 -0.79639,0.769625 -1.484363,1.856213 -0.68798,1.086588 -3.003541,3.336588 -5.145684,5 -3.381329,2.625658 -4.301719,3.018264 -6.981263,2.977951 -1.69755,-0.02554 -4.436454,-0.44786 -6.086454,-0.938493 z m 6.79126,-13.514308 c -0.256424,-15.356318 0.01741,-16.492026 4.89503,-20.301493 2.005877,-1.566608 3.647044,-3.029174 3.647044,-3.250149 0,-0.655021 -2.78725,-1.731295 -6.821821,-2.634192 -3.776552,-0.845155 -3.778315,-0.844805 -6.130322,1.220285 -4.036311,3.543928 -9.787187,3.703928 -16.574313,0.461128 -4.002105,-1.912154 -7.806879,-4.975097 -7.806879,-6.284743 0,-0.414397 0.525,-0.922814 1.166667,-1.129816 0.641667,-0.207001 1.616667,-0.536095 2.166667,-0.73132 1.628472,-0.578034 -6.091742,-2.314978 -8.380755,-1.885556 -1.22967,0.230688 -3.72285,1.870443 -6.025132,3.962706 0,0 -2.376423,2.10785 -3.092212,3.725554 -1.807321,4.0846 -1.399968,8.844316 -1.341819,13.299663 0.06451,4.94249 0.586174,13.423057 1.87308,14.70996 0.969847,0.969846 6.775196,2.795295 20.000001,6.288849 6.484957,1.182596 16.189156,5.338099 22.394698,5.049918 0.296336,-3.16764 0.03007,-12.500767 0.03007,-12.500767 z m -28.021406,1.793975 c -9.223332,-2.500348 -9.436522,-2.726574 -9.436522,-10.013583 0,-5.260749 0.166534,-6.043438 1.664702,-7.82391 2.503717,-2.975499 4.12095,-3.063607 13.188014,-0.718486 10.857903,2.808307 11.354722,3.322741 11.042862,11.434377 -0.218982,5.695836 -0.315649,6.023444 -2.22891,7.553817 -2.586711,2.069051 -5.308361,1.986386 -14.230146,-0.432215 z m 12.806906,-0.676461 c 1.645732,-1.294533 1.756573,-1.731087 1.756573,-6.91837 0,-3.94117 -0.269853,-5.76061 -0.936448,-6.313834 -1.024565,-0.850313 -14.608878,-4.67982 -16.687252,-4.704245 -0.709701,-0.0083 -1.984701,0.637129 -2.833333,1.434378 -1.369648,1.286717 -1.542968,2.063848 -1.542968,6.91837 0,3.617356 0.287608,5.70752 0.849526,6.173872 0.73703,0.61168 14.76664,4.324863 16.809471,4.491637 0.408886,0.03338 1.618317,-0.321862 2.584431,-1.081808 z m -8.856438,-2.014193 c -1.082473,-0.432672 -1.392272,-0.865471 -0.941893,-1.31585 0.800298,-0.800298 4.221571,0.303446 4.221571,1.361929 0,0.830314 -1.126692,0.814484 -3.279678,-0.04608 z m -7.337563,-1.89416 c -0.889483,-0.227354 -1.753596,-0.822436 -1.920252,-1.322403 -0.231515,-0.694545 0.150074,-0.797051 1.617241,-0.434436 2.156313,0.532939 3.319563,1.409082 2.478339,1.86665 -0.306948,0.166959 -1.285846,0.117544 -2.175328,-0.109811 z m 24.922714,-3.542134 c -0.56267,-1.466293 -0.111488,-4.512074 0.694527,-4.688519 0.913647,-0.200008 1.264568,4.189491 0.40375,5.050309 -0.480053,0.480054 -0.817944,0.368747 -1.098277,-0.36179 z M 19.593023,40.381819 c -0.556931,-1.45134 -0.02821,-3.910504 0.906978,-4.218488 0.575418,-0.189503 0.833333,0.568079 0.833333,2.447782 0,2.653134 -1.008093,3.678834 -1.740311,1.770706 z m 55.050193,15.66201 c 0.99612,-1.861267 0.88542,-11.054668 -0.143214,-11.893348 -0.458333,-0.373696 -2.098813,-1.055064 -3.645513,-1.51415 -4.31375,-1.280396 -4.854487,-0.490323 -4.854487,7.092906 v 6.232642 l 2.166667,0.625603 c 3.61122,1.042702 5.722393,0.865486 6.476547,-0.543653 z M 14,36.918371 c 0,-6.219193 -0.121784,-6.980557 -1,-6.251703 -1.749768,1.452178 -1.134809,13.333333 0.690123,13.333333 0.170433,0 0.309877,-3.186733 0.309877,-7.08163 z m 36.272142,-9.258965 c 1.61304,-0.770627 2.874906,-1.95857 3.312825,-3.11875 0.490575,-1.299681 1.17333,-1.873989 2.22786,-1.873989 0.836279,0 1.520508,-0.305715 1.520508,-0.679368 0,-0.391763 -0.705569,-0.502281 -1.666667,-0.261061 -1.127421,0.282965 -1.666666,0.142285 -1.666666,-0.434805 0,-0.469211 -0.496496,-1.401734 -1.103326,-2.072272 -1.68505,-1.861959 -6.896675,-1.499624 -6.896675,0.479488 0,1.263008 -1.318124,1.916561 -2.162482,1.072202 -0.506186,-0.506185 -1.214425,-0.368412 -2.441912,0.475025 -0.950916,0.653398 -2.778939,1.588459 -4.062273,2.077911 -3.704998,1.413056 -3.696854,1.772168 0.09039,3.985285 2.996447,1.751007 4.116726,2.049733 6.909615,1.842468 1.833333,-0.136055 4.505797,-0.807515 5.938807,-1.492134 z"/><path fill="black" opacity="1" d="m 53.333335,68.348409 c -1.65,-0.49064 -10.2,-2.745234 -19.000001,-5.01022 C 15.05416,58.376024 14.571315,58.07837 14.112505,50.872891 13.863904,46.968688 13.961438,47.255429 12.569682,45.460988 11.332049,43.865261 10.39801,42.508679 10,37.155767 9.651571,32.469679 10.231061,31.2194 11.38172,29.756574 c 0.759946,-0.966116 1.816378,-1.756573 2.347626,-1.756573 0.531248,0 1.315092,-0.766379 1.741874,-1.703065 1.036164,-2.274131 8.050679,-7.480159 10.764656,-7.989304 1.292592,-0.242492 4.267975,0.131719 7.374086,0.927431 l 5.207157,1.333948 3.758108,-2.055459 c 5.10098,-2.78993 9.548683,-2.943013 11.733986,-0.403865 0.840845,0.976994 2.240255,1.876994 3.109799,2 1.14189,0.161532 1.637753,0.713911 1.785365,1.988856 0.164928,1.424513 -0.155192,1.885064 -1.658609,2.386202 -1.678866,0.559622 -1.237859,0.774916 4.462292,2.178441 5.090982,1.253531 6.748075,1.97823 8.491942,3.713797 2.007774,1.998217 2.166667,2.479021 2.166667,6.556351 0,3.367233 -0.390072,3.722833 0.692907,4.300499 0.937635,0.500138 1.832093,0.889959 2.59204,1.856074 1.149093,1.460834 1.38172,2.700585 1.38172,7.363637 0,5.06429 -0.238002,6.163476 -1.715969,7.641438 -0.9,0.9 -2.238941,1.357756 -2.586268,1.357756 -0.347327,0 -0.79639,0.769625 -1.484363,1.856213 -0.68798,1.086588 -3.003541,3.336588 -5.145684,5 -3.381329,2.625658 -4.301719,3.018264 -6.981263,2.977951 -1.69755,-0.02554 -4.436454,-0.44786 -6.086454,-0.938493 z m 6.79126,-13.514308 c -0.256424,-15.356318 0.01741,-16.492026 4.89503,-20.301493 2.005877,-1.566608 3.647044,-3.029174 3.647044,-3.250149 0,-0.655021 -2.78725,-1.731295 -6.821821,-2.634192 -3.776552,-0.845155 -3.778315,-0.844805 -6.130322,1.220285 -4.036311,3.543928 -9.787187,3.703928 -16.574313,0.461128 -4.002105,-1.912154 -7.806879,-4.975097 -7.806879,-6.284743 0,-0.414397 0.525,-0.922814 1.166667,-1.129816 0.641667,-0.207001 1.616667,-0.536095 2.166667,-0.73132 1.628472,-0.578034 -6.091742,-2.314978 -8.380755,-1.885556 -1.22967,0.230688 -3.72285,1.870443 -6.025132,3.962706 0,0 -2.376423,2.10785 -3.092212,3.725554 -1.807321,4.0846 -1.399968,8.844316 -1.341819,13.299663 0.06451,4.94249 0.586174,13.423057 1.87308,14.70996 0.969847,0.969846 6.775196,2.795295 20.000001,6.288849 6.484957,1.182596 16.189156,5.338099 22.394698,5.049918 0.296336,-3.16764 0.03007,-12.500767 0.03007,-12.500767 z m -28.021406,1.793975 c -9.223332,-2.500348 -9.436522,-2.726574 -9.436522,-10.013583 0,-5.260749 0.166534,-6.043438 1.664702,-7.82391 2.503717,-2.975499 4.12095,-3.063607 13.188014,-0.718486 10.857903,2.808307 11.354722,3.322741 11.042862,11.434377 -0.218982,5.695836 -0.315649,6.023444 -2.22891,7.553817 -2.586711,2.069051 -5.308361,1.986386 -14.230146,-0.432215 z m 12.806906,-0.676461 c 1.645732,-1.294533 1.756573,-1.731087 1.756573,-6.91837 0,-3.94117 -0.269853,-5.76061 -0.936448,-6.313834 -1.024565,-0.850313 -14.608878,-4.67982 -16.687252,-4.704245 -0.709701,-0.0083 -1.984701,0.637129 -2.833333,1.434378 -1.369648,1.286717 -1.542968,2.063848 -1.542968,6.91837 0,3.617356 0.287608,5.70752 0.849526,6.173872 0.73703,0.61168 14.76664,4.324863 16.809471,4.491637 0.408886,0.03338 1.618317,-0.321862 2.584431,-1.081808 z m -8.856438,-2.014193 c -1.082473,-0.432672 -1.392272,-0.865471 -0.941893,-1.31585 0.800298,-0.800298 4.221571,0.303446 4.221571,1.361929 0,0.830314 -1.126692,0.814484 -3.279678,-0.04608 z m -7.337563,-1.89416 c -0.889483,-0.227354 -1.753596,-0.822436 -1.920252,-1.322403 -0.231515,-0.694545 0.150074,-0.797051 1.617241,-0.434436 2.156313,0.532939 3.319563,1.409082 2.478339,1.86665 -0.306948,0.166959 -1.285846,0.117544 -2.175328,-0.109811 z m 24.922714,-3.542134 c -0.56267,-1.466293 -0.111488,-4.512074 0.694527,-4.688519 0.913647,-0.200008 1.264568,4.189491 0.40375,5.050309 -0.480053,0.480054 -0.817944,0.368747 -1.098277,-0.36179 z M 19.593023,40.381819 c -0.556931,-1.45134 -0.02821,-3.910504 0.906978,-4.218488 0.575418,-0.189503 0.833333,0.568079 0.833333,2.447782 0,2.653134 -1.008093,3.678834 -1.740311,1.770706 z m 55.050193,15.66201 c 0.99612,-1.861267 0.88542,-11.054668 -0.143214,-11.893348 -0.458333,-0.373696 -2.098813,-1.055064 -3.645513,-1.51415 -4.31375,-1.280396 -4.854487,-0.490323 -4.854487,7.092906 v 6.232642 l 2.166667,0.625603 c 3.61122,1.042702 5.722393,0.865486 6.476547,-0.543653 z M 14,36.918371 c 0,-6.219193 -0.121784,-6.980557 -1,-6.251703 -1.749768,1.452178 -1.134809,13.333333 0.690123,13.333333 0.170433,0 0.309877,-3.186733 0.309877,-7.08163 z m 36.272142,-9.258965 c 1.61304,-0.770627 2.874906,-1.95857 3.312825,-3.11875 0.490575,-1.299681 1.17333,-1.873989 2.22786,-1.873989 0.836279,0 1.520508,-0.305715 1.520508,-0.679368 0,-0.391763 -0.705569,-0.502281 -1.666667,-0.261061 -1.127421,0.282965 -1.666666,0.142285 -1.666666,-0.434805 0,-0.469211 -0.496496,-1.401734 -1.103326,-2.072272 -1.68505,-1.861959 -6.896675,-1.499624 -6.896675,0.479488 0,1.263008 -1.318124,1.916561 -2.162482,1.072202 -0.506186,-0.506185 -1.214425,-0.368412 -2.441912,0.475025 -0.950916,0.653398 -2.778939,1.588459 -4.062273,2.077911 -3.704998,1.413056 -3.696854,1.772168 0.09039,3.985285 2.996447,1.751007 4.116726,2.049733 6.909615,1.842468 1.833333,-0.136055 4.505797,-0.807515 5.938807,-1.492134 z"/><path fill="black" opacity="0.3" d="m 44.910095,55.951616 c 1.645732,-1.294533 1.756573,-1.731087 1.756573,-6.91837 0,-3.94117 -0.269853,-5.76061 -0.936448,-6.313834 -1.024565,-0.850313 -14.608878,-4.67982 -16.687252,-4.704245 -0.709701,-0.0083 -1.984701,0.637129 -2.833333,1.434378 -1.369648,1.286717 -1.542968,2.063848 -1.542968,6.91837 0,3.617356 0.287608,5.70752 0.849526,6.173872 0.73703,0.61168 14.761519,4.315327 16.80435,4.482101 0.408886,0.03338 1.623438,-0.312326 2.589552,-1.072272 z m -8.856438,-2.014193 c -1.082473,-0.432672 -1.392272,-0.865471 -0.941893,-1.31585 0.800298,-0.800298 4.221571,0.303446 4.221571,1.361929 0,0.830314 -1.126692,0.814484 -3.279678,-0.04608 z m -7.337563,-1.89416 c -0.889483,-0.227354 -1.753596,-0.822436 -1.920252,-1.322403 -0.231515,-0.694545 0.150074,-0.797051 1.617241,-0.434436 2.156313,0.532939 3.319563,1.409082 2.478339,1.86665 -0.306948,0.166959 -1.285846,0.117544 -2.175328,-0.109811 z"/></svg>