<svg xmlns="http://www.w3.org/2000/svg" width="50" height="50"><g transform="translate(0,-100)"><path opacity="0.5" fill="black" d="M 24.693359 1 L 3.2246094 22.441406 L 2 23.666016 L 2 26.306641 L 3.2246094 27.53125 L 7.6621094 31.96875 L 24.693359 49 L 29.669922 49 L 33.148438 45.410156 L 33.160156 40.720703 L 24.628906 32.189453 L 42.230469 32.189453 L 46.162109 28.257812 L 48.527344 25.892578 L 48.527344 24.095703 L 42.230469 17.796875 L 24.642578 17.796875 L 33.160156 9.2792969 L 33.148438 4.5898438 L 29.669922 1 L 24.693359 1 z M 24.572266 6.1816406 L 28.171875 6.1816406 L 28.171875 9.1523438 L 19.535156 17.787109 L 19.535156 20.095703 L 15.363281 24.265625 L 15.363281 25.707031 L 19.535156 29.876953 L 19.535156 32.185547 L 28.171875 40.822266 L 28.171875 43.791016 L 24.572266 43.791016 L 10.207031 29.423828 L 5.7675781 24.986328 L 10.207031 20.548828 L 24.572266 6.1816406 z M 20.041016 21.394531 L 30.296875 21.394531 L 27.417969 24.273438 L 27.417969 25.712891 L 30.296875 28.591797 L 20.041016 28.591797 L 17.162109 25.712891 L 17.162109 24.273438 L 20.041016 21.394531 z M 32.15625 21.394531 L 40.019531 21.394531 L 42.898438 24.273438 L 42.898438 25.712891 L 40.019531 28.591797 L 32.15625 28.591797 L 31.708984 28.144531 L 29.277344 25.712891 L 29.277344 24.273438 L 31.708984 21.841797 L 32.15625 21.394531 z" transform="translate(0,100)"/><path fill="none" stroke="black" stroke-width="2" d="m 3.2238,122.4419 -1.224,1.224 v 2.641 l 1.224,1.224 4.438,4.438 17.031,17.031 h 4.978 l 3.478,-3.589 0.012,-4.69 -8.532,-8.531 h 17.601 l 3.932,-3.933 2.366,-2.365 v -1.797 l -6.298,-6.299 h -17.587 l 8.518,-8.517 -0.012,-4.689 -3.478,-3.59 h -4.978 z"/></g></svg>