<svg xmlns="http://www.w3.org/2000/svg" height="84" viewBox="0 0 124 84" width="124"><path opacity="0.4" fill="black" fill-rule="evenodd" d="M 36.611328 49.648438 C 36.520837 49.647663 36.430218 49.651461 36.339844 49.658203 C 36.205565 49.668278 36.07207 49.688084 35.939453 49.714844 C 35.853749 49.732129 35.768026 49.749149 35.683594 49.773438 C 35.547162 49.812755 35.414765 49.866121 35.283203 49.923828 C 35.206412 49.957505 35.129304 49.98737 35.054688 50.027344 C 34.914043 50.102727 34.78136 50.197041 34.650391 50.294922 C 34.59298 50.337841 34.531761 50.372657 34.476562 50.419922 C 34.315554 50.5578 34.165963 50.7175 34.027344 50.892578 C 34.017039 50.905861 34.00226 50.916276 33.992188 50.929688 C 33.862814 51.101945 33.751023 51.284516 33.660156 51.474609 C 33.573763 51.655345 33.508283 51.84374 33.457031 52.035156 C 33.441557 52.095664 33.433707 52.15755 33.421875 52.21875 C 33.398337 52.332479 33.380438 52.447117 33.369141 52.5625 C 33.356357 52.71745 33.352076 52.87378 33.361328 53.029297 C 33.361839 53.040406 33.362657 53.051395 33.363281 53.0625 C 33.40129 53.609124 33.57224 54.14989 33.869141 54.628906 C 33.881367 54.648631 33.897509 54.666036 33.910156 54.685547 C 34.002211 54.827566 34.1008 54.964797 34.214844 55.09375 L 37.554688 58.871094 L 37.558594 58.876953 L 37.667969 59 C 37.75884 59.102643 37.82669 59.218688 37.90625 59.328125 C 37.942267 59.379376 37.981608 59.42796 38.015625 59.480469 C 38.127579 59.649849 38.223306 59.825836 38.308594 60.007812 C 38.33183 60.056315 38.353561 60.105042 38.375 60.154297 C 38.440895 60.310457 38.498753 60.46784 38.544922 60.630859 C 38.579292 60.745757 38.603092 60.862731 38.626953 60.980469 C 38.648945 61.095514 38.671338 61.208981 38.683594 61.326172 C 38.689148 61.377542 38.705573 61.426759 38.708984 61.478516 C 38.720651 61.658264 38.719116 61.835801 38.708984 62.011719 C 38.708678 62.016982 38.70931 62.022079 38.708984 62.027344 C 38.708172 62.04066 38.70406 62.053117 38.703125 62.066406 C 38.68564 62.314254 38.64505 62.556635 38.585938 62.792969 C 38.579961 62.816896 38.576704 62.841449 38.570312 62.865234 C 38.507373 63.099213 38.420376 63.323 38.318359 63.541016 C 38.299641 63.581087 38.281716 63.620708 38.261719 63.660156 C 38.154185 63.872032 38.03003 64.07402 37.886719 64.265625 C 37.866406 64.292809 37.845229 64.318974 37.824219 64.345703 C 37.668165 64.544117 37.497918 64.733484 37.304688 64.904297 C 37.1163 65.07091 36.911698 65.21338 36.701172 65.341797 C 36.665093 65.363774 36.630397 65.387374 36.59375 65.408203 C 36.390786 65.523728 36.179143 65.619858 35.960938 65.699219 C 35.913605 65.716435 35.866295 65.732571 35.818359 65.748047 C 35.594041 65.820465 35.365971 65.876837 35.130859 65.910156 C 35.102407 65.914209 35.073498 65.914501 35.044922 65.917969 C 34.809406 65.946408 34.569843 65.955511 34.328125 65.943359 C 34.310994 65.942507 34.294495 65.946373 34.277344 65.945312 C 34.269977 65.94485 34.263218 65.941906 34.255859 65.941406 C 34.084012 65.929834 33.911309 65.909702 33.738281 65.876953 C 33.689863 65.867796 33.645504 65.846979 33.597656 65.835938 C 33.477596 65.808476 33.362506 65.77206 33.246094 65.734375 C 33.133641 65.696682 33.02255 65.65886 32.914062 65.611328 C 32.756374 65.544874 32.605266 65.468331 32.457031 65.382812 C 32.414646 65.357757 32.373605 65.331167 32.332031 65.304688 C 32.157483 65.195504 31.989989 65.076736 31.832031 64.941406 C 31.789648 64.905806 31.752145 64.865163 31.710938 64.828125 C 31.607564 64.732237 31.496879 64.646262 31.402344 64.539062 L 31.296875 64.419922 C 31.294426 64.417162 31.291506 64.414874 31.289062 64.412109 L 23.671875 55.796875 C 23.097875 55.147875 22.306359 54.761984 21.443359 54.708984 C 21.142359 54.689984 20.842641 54.712438 20.556641 54.773438 C 20.546555 54.775619 20.537405 54.780926 20.527344 54.783203 C 20.384373 54.815566 20.244483 54.858723 20.107422 54.910156 C 20.061047 54.927548 20.016265 54.949213 19.970703 54.96875 C 19.867578 55.012998 19.766435 55.060203 19.667969 55.115234 C 19.624385 55.139596 19.581628 55.164954 19.539062 55.191406 C 19.439678 55.253136 19.343242 55.321673 19.25 55.394531 C 19.211716 55.424496 19.171925 55.452549 19.134766 55.484375 C 19.090709 55.522048 19.05214 55.567185 19.009766 55.607422 C 18.903602 55.70877 18.804297 55.813922 18.714844 55.925781 C 18.659301 55.994526 18.611107 56.066503 18.5625 56.138672 C 18.495334 56.238408 18.431942 56.339991 18.376953 56.445312 C 18.330575 56.535741 18.290762 56.628859 18.253906 56.722656 C 18.223241 56.797963 18.194744 56.874101 18.169922 56.951172 C 18.122181 57.108006 18.079622 57.265844 18.056641 57.427734 C 17.920373 58.387667 18.214745 59.409878 18.888672 60.179688 L 27.080078 69.445312 L 27.947266 70.425781 L 27.949219 70.427734 C 28.107494 70.606691 28.219838 70.8091 28.304688 71.019531 C 28.320189 71.05794 28.342393 71.093744 28.355469 71.132812 C 28.482908 71.513819 28.495683 71.923348 28.396484 72.308594 C 28.363502 72.436768 28.317383 72.560883 28.259766 72.681641 C 28.201981 72.802958 28.13316 72.919568 28.050781 73.029297 C 27.968783 73.138705 27.875656 73.239859 27.769531 73.333984 L 27.767578 73.333984 L 26.177734 74.740234 C 25.727234 75.138734 25.479688 75.684437 25.445312 76.242188 C 25.428125 76.521062 25.464609 76.803547 25.554688 77.072266 C 25.599648 77.205783 25.656668 77.33601 25.728516 77.460938 C 25.72895 77.461695 25.730033 77.462134 25.730469 77.462891 C 25.802475 77.587737 25.889145 77.708132 25.988281 77.820312 L 28.095703 80.205078 C 28.192203 80.314078 28.296813 80.411719 28.410156 80.498047 C 28.453692 80.531292 28.503114 80.554252 28.548828 80.583984 C 28.622191 80.631589 28.693106 80.684392 28.771484 80.722656 C 28.771982 80.7229 28.772939 80.722413 28.773438 80.722656 C 28.900066 80.784343 29.032673 80.833094 29.169922 80.869141 C 29.308321 80.905616 29.451528 80.928712 29.597656 80.9375 C 29.887478 80.955201 30.172308 80.915886 30.439453 80.824219 C 30.707203 80.732219 30.957781 80.587531 31.175781 80.394531 L 59.111328 55.701172 C 59.552328 55.312172 59.546953 54.641469 59.126953 54.230469 C 58.994953 54.101469 58.865234 53.966219 58.740234 53.824219 C 58.466484 53.513719 58.419656 53.079656 58.587891 52.728516 C 58.643953 52.611469 58.722672 52.503359 58.826172 52.412109 L 57.339844 50.730469 C 57.336461 50.733483 57.333473 50.735364 57.330078 50.738281 C 57.264334 50.794775 57.196392 50.828519 57.126953 50.851562 C 56.346456 51.242517 55.8366 50.547635 55.621094 50.273438 C 55.604094 50.253438 55.587313 50.230938 55.570312 50.210938 C 55.214745 49.748104 54.554311 49.666857 54.113281 50.046875 L 46.841797 56.474609 C 46.738797 56.565609 46.627844 56.643359 46.511719 56.710938 C 46.163477 56.913583 45.763368 57.009909 45.351562 56.986328 C 45.214062 56.977828 45.0795 56.95625 44.949219 56.921875 C 44.559207 56.818871 44.207206 56.60139 43.933594 56.292969 C 43.933273 56.292607 43.931961 56.29333 43.931641 56.292969 L 39.013672 50.730469 C 38.855126 50.551196 38.6801 50.397278 38.494141 50.261719 C 38.433734 50.217697 38.367452 50.185863 38.304688 50.146484 C 38.176197 50.065892 38.046871 49.986804 37.910156 49.925781 C 37.828719 49.889435 37.743875 49.865304 37.660156 49.835938 C 37.533453 49.791512 37.405966 49.74905 37.275391 49.720703 C 37.185686 49.701267 37.094782 49.689545 37.003906 49.677734 C 36.87348 49.660798 36.742838 49.649579 36.611328 49.648438 z"/><path fill="black" fill-rule="evenodd" d="M 56.542969 42.115234 C 56.167968 42.159543 55.827014 42.411809 55.71875 42.839844 C 55.652063 43.162759 55.604016 43.490102 55.580078 43.818359 C 55.575103 43.886605 55.577338 43.955079 55.574219 44.023438 C 55.561545 44.301348 55.56393 44.579431 55.582031 44.857422 C 55.58891 44.962956 55.598041 45.068557 55.609375 45.173828 C 55.639844 45.456544 55.685333 45.736864 55.748047 46.015625 C 55.76252 46.079973 55.770912 46.144943 55.787109 46.208984 C 55.870806 46.539768 55.981442 46.86597 56.111328 47.185547 C 56.149692 47.279923 56.19587 47.371727 56.238281 47.464844 C 56.347912 47.705537 56.470659 47.941155 56.607422 48.171875 C 56.674539 48.285101 56.738823 48.399341 56.8125 48.509766 C 56.853945 48.571876 56.895929 48.634154 56.939453 48.695312 C 57.077513 48.889288 57.22377 49.080257 57.382812 49.263672 C 57.398961 49.282297 57.413322 49.301805 57.429688 49.320312 C 57.522324 49.425385 57.585889 49.544694 57.626953 49.669922 C 57.62723 49.670764 57.628632 49.671033 57.628906 49.671875 C 57.668231 49.792713 57.685506 49.917954 57.677734 50.042969 C 57.677712 50.043611 57.677758 50.04428 57.677734 50.044922 C 57.667663 50.315886 57.556974 50.574863 57.341797 50.730469 C 57.341278 50.730845 57.340362 50.730093 57.339844 50.730469 L 58.826172 52.412109 C 58.826612 52.411718 58.827684 52.4125 58.828125 52.412109 C 58.9313 52.320717 59.047243 52.254152 59.169922 52.212891 C 59.539344 52.088719 59.965734 52.1895 60.240234 52.5 C 60.416393 52.699435 60.603025 52.88255 60.794922 53.058594 C 60.851497 53.110473 60.908967 53.161095 60.966797 53.210938 C 61.069405 53.299393 61.176856 53.378914 61.283203 53.460938 C 61.502297 53.629897 61.729785 53.784206 61.962891 53.925781 C 62.036071 53.97021 62.107235 54.018827 62.181641 54.060547 C 62.490532 54.233795 62.808173 54.387302 63.134766 54.513672 C 63.189837 54.534957 63.247248 54.548412 63.302734 54.568359 C 63.581047 54.668514 63.863648 54.751994 64.150391 54.818359 C 64.244382 54.840087 64.338928 54.858866 64.433594 54.876953 C 64.718552 54.931431 65.005978 54.970858 65.294922 54.992188 C 65.356778 54.996753 65.418517 55.004769 65.480469 55.007812 C 65.81031 55.023978 66.140943 55.015493 66.470703 54.988281 C 67.367147 54.876584 67.638729 53.691172 66.875 53.171875 C 66.305109 52.783718 65.750874 52.364694 65.205078 51.931641 C 65.036261 51.797727 64.871395 51.657759 64.705078 51.519531 C 64.311141 51.192095 63.924103 50.853649 63.544922 50.501953 C 63.343784 50.315381 63.140089 50.132876 62.943359 49.939453 C 62.85088 49.848541 62.759449 49.75649 62.667969 49.664062 C 62.29294 49.285095 61.923882 48.896704 61.566406 48.492188 C 61.094756 47.958759 60.65334 47.40671 60.226562 46.845703 C 60.0885 46.664224 59.957539 46.479108 59.824219 46.294922 C 59.525655 45.882457 59.237616 45.464531 58.962891 45.039062 C 58.844168 44.855192 58.723614 44.672498 58.609375 44.486328 C 58.249883 43.900512 57.906677 43.306409 57.591797 42.699219 C 57.585636 42.687338 57.578409 42.675951 57.572266 42.664062 C 57.571599 42.662773 57.570979 42.661446 57.570312 42.660156 C 57.354812 42.242656 56.933344 42.069109 56.542969 42.115234 z"/><path opacity="0.6" fill="black" fill-rule="evenodd" d="M 82.738281 3 C 82.482302 3.0020386 82.226612 3.0140534 81.970703 3.0234375 C 81.789054 3.0300931 81.607337 3.03066 81.425781 3.0410156 C 81.09472 3.0599255 80.764024 3.0898248 80.433594 3.1210938 C 80.313872 3.1324048 80.193826 3.1394091 80.074219 3.1523438 C 79.733539 3.1892449 79.39417 3.2389458 79.054688 3.2890625 C 78.938935 3.3061281 78.822609 3.3173326 78.707031 3.3359375 C 78.257068 3.4084555 77.808139 3.4919828 77.361328 3.5878906 C 76.81452 3.7051405 76.270786 3.8419155 75.730469 3.9941406 C 75.460642 4.0702326 75.193661 4.1612658 74.925781 4.2460938 C 74.643343 4.3354695 74.360104 4.4204235 74.080078 4.5195312 C 73.805682 4.6166966 73.535506 4.7294183 73.263672 4.8359375 C 73.007561 4.9362526 72.749725 5.0319903 72.496094 5.140625 C 72.216316 5.2605071 71.940562 5.3934212 71.664062 5.5234375 C 71.409265 5.6432159 71.15414 5.7602715 70.902344 5.8886719 C 70.639744 6.0226086 70.382143 6.1691745 70.123047 6.3125 C 69.875657 6.4493286 69.6268 6.5831127 69.382812 6.7285156 C 69.127326 6.8807981 68.876514 7.0433815 68.625 7.2050781 C 68.369544 7.3692775 68.114398 7.5350583 67.863281 7.7089844 C 67.628447 7.871676 67.396835 8.0416794 67.166016 8.2128906 C 66.925691 8.3911052 66.686926 8.5723036 66.451172 8.7597656 C 66.204161 8.9562439 65.960471 9.1585856 65.71875 9.3652344 C 65.471967 9.5761331 65.227329 9.7902073 64.986328 10.011719 C 64.822274 10.162635 64.657452 10.312675 64.498047 10.466797 C 64.383287 10.577742 64.270531 10.690099 64.158203 10.802734 C 63.962429 10.99891 63.768519 11.197486 63.580078 11.398438 C 63.450192 11.537233 63.323631 11.677274 63.197266 11.818359 C 63.037873 11.995793 62.880401 12.174651 62.726562 12.355469 C 62.577557 12.531305 62.430846 12.709639 62.287109 12.888672 C 62.175422 13.027123 62.065566 13.166399 61.957031 13.306641 C 61.77479 13.543393 61.597078 13.781619 61.423828 14.023438 C 61.365895 14.103779 61.308891 14.184759 61.251953 14.265625 C 55.18989 22.934028 54.833086 34.677244 60.478516 43.707031 C 60.486101 43.719164 60.492393 43.732018 60.5 43.744141 C 60.665067 44.007199 60.840348 44.265151 61.015625 44.523438 C 61.099956 44.647064 61.180903 44.771984 61.267578 44.894531 C 61.400441 45.083232 61.541263 45.267229 61.679688 45.453125 C 61.815488 45.634884 61.950682 45.816964 62.091797 45.996094 C 62.204059 46.138908 62.321845 46.278946 62.4375 46.419922 C 62.606851 46.626102 62.776544 46.832804 62.953125 47.035156 C 63.095571 47.198375 63.241189 47.35674 63.386719 47.515625 C 63.545143 47.688606 63.703258 47.861458 63.865234 48.029297 C 64.014233 48.183676 64.166443 48.332399 64.318359 48.482422 C 64.498808 48.66064 64.678845 48.839657 64.863281 49.011719 C 64.994311 49.133942 65.128738 49.25198 65.261719 49.371094 C 65.461525 49.550081 65.663116 49.728434 65.867188 49.900391 C 66.000697 50.012877 66.13621 50.120995 66.271484 50.230469 C 66.487414 50.405237 66.70356 50.579012 66.923828 50.746094 C 67.050283 50.842002 67.178806 50.933971 67.306641 51.027344 C 67.533509 51.193071 67.761135 51.357896 67.992188 51.515625 C 68.139999 51.616517 68.289999 51.712933 68.439453 51.810547 C 68.650007 51.948082 68.860531 52.085775 69.074219 52.216797 C 69.244972 52.321484 69.41913 52.419008 69.591797 52.519531 C 69.797107 52.63907 70.001087 52.761356 70.208984 52.875 C 70.36984 52.962919 70.532977 53.04452 70.695312 53.128906 C 70.92572 53.248694 71.155428 53.369761 71.388672 53.482422 C 71.560506 53.565407 71.73491 53.641591 71.908203 53.720703 C 72.11178 53.813653 72.314043 53.908495 72.519531 53.996094 C 72.738435 54.089405 72.960699 54.174487 73.181641 54.261719 C 73.367166 54.334965 73.551406 54.411515 73.738281 54.480469 C 73.927231 54.550193 74.118345 54.612403 74.308594 54.677734 C 74.531172 54.754167 74.754281 54.831933 74.978516 54.902344 C 75.16086 54.959593 75.343984 55.01119 75.527344 55.064453 C 75.752336 55.129823 75.976721 55.196499 76.203125 55.255859 C 76.400082 55.307486 76.598942 55.351365 76.796875 55.398438 C 77.01743 55.450901 77.23733 55.505932 77.458984 55.552734 C 77.660594 55.595298 77.863982 55.630094 78.066406 55.667969 C 78.2781 55.707577 78.488687 55.750682 78.701172 55.785156 C 78.923275 55.821198 79.146287 55.848481 79.369141 55.878906 C 79.574805 55.906978 79.78012 55.937655 79.986328 55.960938 C 80.180166 55.982827 80.37412 55.997972 80.568359 56.015625 C 80.80033 56.036712 81.033201 56.059182 81.265625 56.074219 C 81.444404 56.08577 81.623755 56.091641 81.802734 56.099609 C 82.054366 56.110823 82.304754 56.124785 82.556641 56.128906 C 82.725758 56.131675 82.895283 56.127386 83.064453 56.126953 C 83.322807 56.126288 83.581512 56.125327 83.839844 56.117188 C 84.017724 56.111586 84.195248 56.098994 84.373047 56.089844 C 84.616012 56.077336 84.858877 56.06797 85.101562 56.048828 C 85.324054 56.031282 85.545441 56.005551 85.767578 55.982422 C 85.969923 55.961359 86.173039 55.94367 86.375 55.917969 C 86.624135 55.886248 86.872689 55.845428 87.121094 55.806641 C 87.293105 55.779787 87.465123 55.756809 87.636719 55.726562 C 87.896444 55.68078 88.155444 55.62583 88.414062 55.572266 C 88.57795 55.538324 88.742868 55.507773 88.90625 55.470703 C 89.190071 55.406298 89.471806 55.331671 89.753906 55.257812 C 89.88533 55.223409 90.017427 55.192707 90.148438 55.15625 C 90.408778 55.08379 90.667219 55.000503 90.925781 54.919922 C 91.08711 54.869646 91.249582 54.824926 91.410156 54.771484 C 91.642304 54.694222 91.871113 54.607323 92.101562 54.523438 C 92.278051 54.459196 92.455441 54.400163 92.630859 54.332031 C 92.836024 54.252344 93.038584 54.163139 93.242188 54.078125 C 93.445876 53.993079 93.651493 53.912648 93.853516 53.822266 C 93.861213 53.818822 93.869258 53.815952 93.876953 53.8125 C 94.030122 53.743797 94.179876 53.665527 94.332031 53.59375 C 94.568955 53.481985 94.806689 53.373132 95.041016 53.253906 C 95.046695 53.251016 95.052916 53.248988 95.058594 53.246094 C 95.435047 53.054208 95.808575 52.853766 96.177734 52.642578 C 96.191357 52.634785 96.205138 52.62696 96.21875 52.619141 C 96.590716 52.405459 96.958467 52.180619 97.322266 51.947266 C 97.332553 51.940666 97.343235 51.934349 97.353516 51.927734 C 97.504568 51.830546 97.651232 51.723637 97.800781 51.623047 C 98.021437 51.474629 98.243694 51.32966 98.460938 51.173828 C 98.822046 50.9148 99.178231 50.646739 99.529297 50.367188 C 99.532538 50.364607 99.535823 50.361957 99.539062 50.359375 C 99.893308 50.07702 100.24272 49.783781 100.58594 49.480469 C 110.06994 41.095469 112.12877 27.396187 106.25977 16.742188 C 106.01977 16.824188 105.78416 16.911844 105.53516 16.964844 C 105.37216 16.999844 105.20897 17.027781 105.04297 17.050781 C 104.49497 17.124781 103.99097 16.740359 103.91797 16.193359 C 103.88097 15.919859 103.95987 15.658215 104.11523 15.455078 C 104.2706 15.251941 104.50244 15.107312 104.77344 15.070312 C 105.03405 15.034484 105.28633 14.969788 105.53125 14.890625 C 105.57158 14.877571 105.61251 14.865755 105.65234 14.851562 C 105.88549 14.768575 106.10841 14.667621 106.32227 14.546875 C 106.36137 14.524788 106.39912 14.499873 106.4375 14.476562 C 106.63109 14.359001 106.81692 14.225767 106.99023 14.078125 C 107.01427 14.057624 107.04084 14.040595 107.06445 14.019531 C 107.24488 13.858786 107.40697 13.676741 107.56055 13.484375 C 107.59916 13.435904 107.63706 13.386342 107.67383 13.335938 C 107.82436 13.129294 107.95968 12.915921 108.06836 12.693359 C 108.08509 12.659687 108.09559 12.623863 108.11133 12.589844 C 108.20622 12.381713 108.28413 12.167898 108.34375 11.951172 C 108.36186 11.885179 108.3758 11.818594 108.39062 11.751953 C 108.43218 11.566447 108.45992 11.379363 108.47656 11.191406 C 108.48313 11.114479 108.4917 11.038039 108.49414 10.960938 C 108.5009 10.765748 108.4902 10.570808 108.4707 10.376953 C 108.4643 10.314586 108.46413 10.251491 108.45508 10.189453 C 108.41964 9.9445211 108.36399 9.7027959 108.28711 9.4667969 C 108.26635 9.4028827 108.23659 9.342234 108.21289 9.2792969 C 108.14492 9.0996505 108.06871 8.9241417 107.97656 8.7539062 C 107.93955 8.6851222 107.89631 8.6195313 107.85547 8.5527344 C 107.75579 8.3905791 107.64579 8.2334838 107.52344 8.0839844 C 107.47806 8.0285756 107.43319 7.9731396 107.38477 7.9199219 C 107.21125 7.7285238 107.02505 7.5449852 106.8125 7.3828125 C 106.59643 7.2179539 106.36728 7.0828064 106.13281 6.9648438 C 106.09191 6.9442679 106.05111 6.9234594 106.00977 6.9042969 C 105.77423 6.7951485 105.53355 6.7044452 105.28711 6.640625 C 105.2722 6.6367618 105.25713 6.634558 105.24219 6.6308594 C 105.00969 6.573328 104.77365 6.5395776 104.53711 6.5214844 C 104.48759 6.5177127 104.43823 6.5137792 104.38867 6.5117188 C 104.14001 6.5013142 103.89065 6.5088503 103.64453 6.5410156 C 103.62285 6.5438604 103.60172 6.5495623 103.58008 6.5527344 C 103.35306 6.5859086 103.12966 6.6401598 102.91016 6.7089844 C 102.86343 6.7236696 102.81578 6.7356688 102.76953 6.7519531 C 102.53983 6.8326891 102.31634 6.9330327 102.10156 7.0527344 C 102.06096 7.0754075 102.02238 7.1029019 101.98242 7.1269531 C 101.80233 7.2352208 101.62959 7.3581743 101.46484 7.4941406 C 101.41987 7.5313055 101.37374 7.5662601 101.33008 7.6054688 C 101.14595 7.7706213 100.97405 7.9532646 100.81641 8.1542969 C 100.74303 8.2480299 100.67421 8.3478131 100.60742 8.4492188 C 100.57206 8.5029538 100.53275 8.5544947 100.5 8.609375 C 100.4386 8.712019 100.38642 8.8237826 100.33203 8.9335938 C 100.29456 9.010501 100.25138 9.0855111 100.21875 9.1640625 C 100.21851 9.1646345 100.21899 9.1654436 100.21875 9.1660156 C 100.00706 9.6762953 99.895899 10.219158 99.892578 10.767578 C 99.89257 10.768877 99.892585 10.770186 99.892578 10.771484 C 99.891776 10.927452 99.905457 11.083998 99.921875 11.240234 C 99.944232 11.415365 99.967983 11.590794 100.00977 11.763672 C 100.06404 11.988215 100.13334 12.210484 100.21484 12.427734 C 100.23692 12.486758 100.23367 12.547416 100.24414 12.607422 C 100.25611 12.675527 100.27956 12.74304 100.27734 12.810547 C 100.27564 12.862857 100.25389 12.91002 100.24414 12.960938 C 100.2301 13.034376 100.22316 13.109517 100.19336 13.177734 C 100.19285 13.178904 100.19388 13.180473 100.19336 13.181641 C 100.14294 13.296041 100.07081 13.400998 99.980469 13.490234 C 99.888043 13.581702 99.776746 13.655809 99.648438 13.707031 C 99.140438 13.914031 98.555609 13.663391 98.349609 13.150391 C 98.271909 12.956207 98.205441 12.75951 98.148438 12.560547 C 98.126208 12.482956 98.110915 12.404315 98.091797 12.326172 C 98.062128 12.204885 98.033935 12.083298 98.011719 11.960938 C 97.996968 11.879747 97.986104 11.798326 97.974609 11.716797 C 97.956475 11.588047 97.941715 11.45937 97.931641 11.330078 C 97.925175 11.247363 97.921159 11.16483 97.917969 11.082031 C 97.913124 10.955715 97.911345 10.829345 97.914062 10.703125 C 97.915691 10.626877 97.917504 10.550711 97.921875 10.474609 C 97.92917 10.347741 97.942182 10.221875 97.957031 10.095703 C 97.967085 10.010228 97.974782 9.9248522 97.988281 9.8398438 C 98.008845 9.7103524 98.037926 9.5831508 98.066406 9.4550781 C 98.081761 9.3860792 98.091735 9.3165417 98.109375 9.2480469 C 98.110045 9.245442 98.110655 9.2428384 98.111328 9.2402344 C 98.15861 9.0574067 98.213969 8.8756407 98.277344 8.6972656 C 98.410838 8.3222099 98.274822 7.9089996 97.978516 7.6503906 C 97.750971 7.4947298 97.522417 7.3412676 97.291016 7.1933594 C 97.018611 7.0192287 96.746201 6.8449999 96.46875 6.6816406 C 96.15356 6.4960814 95.832984 6.3239797 95.511719 6.1523438 C 95.220504 5.9967537 94.930604 5.8394296 94.634766 5.6953125 C 94.301878 5.5331557 93.963275 5.3858859 93.625 5.2382812 C 93.336089 5.1122239 93.048364 4.9826014 92.755859 4.8671875 C 92.411812 4.7314306 92.063397 4.6112392 91.714844 4.4902344 C 91.414673 4.3860402 91.115666 4.2787721 90.8125 4.1855469 C 90.464053 4.078382 90.111712 3.9871771 89.759766 3.8945312 C 89.453119 3.8138265 89.146848 3.7278593 88.837891 3.6582031 C 88.460362 3.5730816 88.079659 3.5080415 87.699219 3.4394531 C 87.415886 3.3883809 87.134275 3.3289911 86.849609 3.2871094 C 86.465883 3.2306415 86.078983 3.1959801 85.693359 3.15625 C 85.393822 3.1254117 85.095288 3.0851716 84.794922 3.0644531 C 84.439958 3.0399405 84.084207 3.0376894 83.728516 3.0273438 C 83.398429 3.0177635 83.068617 2.9973568 82.738281 3 z M 82.244141 10.1875 C 82.882797 10.164557 83.5255 10.172891 84.171875 10.212891 C 86.11025 10.332141 87.987311 10.731116 89.757812 11.388672 C 90.347939 11.607857 90.925579 11.85714 91.490234 12.132812 C 93.749621 13.235554 95.790952 14.782195 97.505859 16.722656 C 99.22086 18.662656 100.50704 20.878684 101.32422 23.255859 C 101.73305 24.444385 102.0237 25.673028 102.19336 26.927734 C 102.36302 28.182441 102.41153 29.463609 102.33203 30.755859 C 102.29228 31.401984 102.22042 32.041042 102.11914 32.671875 C 101.91659 33.933541 101.5929 35.161692 101.1543 36.341797 C 100.71615 37.521902 100.16272 38.655207 99.501953 39.726562 C 98.840946 40.798306 98.071778 41.806487 97.201172 42.742188 C 96.765957 43.209895 96.305312 43.659266 95.820312 44.087891 C 95.504063 44.367516 95.179997 44.635947 94.849609 44.892578 C 94.5195 45.148881 94.183064 45.393908 93.839844 45.626953 C 93.152534 46.093634 92.440986 46.513441 91.707031 46.884766 C 91.706523 46.885023 91.705587 46.884508 91.705078 46.884766 C 91.338612 47.070127 90.966457 47.245181 90.589844 47.40625 C 89.835534 47.728851 89.062519 48.001546 88.273438 48.224609 C 87.878897 48.336141 87.479875 48.435359 87.078125 48.521484 C 85.364125 48.890484 83.588064 49.025062 81.789062 48.914062 C 76.620062 48.596063 71.885078 46.284297 68.455078 42.404297 C 66.74099 40.464763 65.454415 38.249086 64.636719 35.873047 C 64.636516 35.872456 64.636922 35.871685 64.636719 35.871094 C 64.590873 35.737835 64.562425 35.599095 64.519531 35.464844 C 64.179915 34.401897 63.91821 33.315085 63.767578 32.201172 C 63.597921 30.94657 63.549406 29.665297 63.628906 28.373047 C 63.668781 27.726922 63.740451 27.087892 63.841797 26.457031 C 64.044489 25.195309 64.36806 23.967362 64.806641 22.787109 C 65.245221 21.606857 65.797842 20.473908 66.458984 19.402344 C 67.450699 17.794997 68.685625 16.325312 70.140625 15.039062 C 70.988746 14.288894 71.889944 13.619921 72.833984 13.037109 C 73.306226 12.745631 73.790521 12.47493 74.283203 12.226562 C 75.1405 11.794389 76.03224 11.442604 76.941406 11.144531 C 77.599281 10.928877 78.264016 10.735259 78.943359 10.591797 C 80.022457 10.363976 81.126492 10.227651 82.244141 10.1875 z M 83.365234 21.560547 C 83.017578 21.543633 82.669715 21.548295 82.322266 21.576172 C 81.974816 21.604049 81.627781 21.655141 81.285156 21.728516 C 79.984156 22.008516 78.735922 22.613641 77.669922 23.556641 C 77.463337 23.739266 77.269109 23.930489 77.085938 24.128906 C 76.902431 24.327735 76.730208 24.535299 76.570312 24.748047 C 75.451046 26.237281 74.912067 28.043067 74.972656 29.839844 C 75.007444 30.866649 75.237713 31.890519 75.667969 32.849609 C 75.883056 33.329121 76.147512 33.792764 76.462891 34.232422 C 76.620587 34.452258 76.791672 34.666047 76.974609 34.873047 C 77.157672 35.080109 77.349966 35.275431 77.548828 35.458984 C 78.145415 36.009645 78.807261 36.454013 79.511719 36.791016 C 79.746553 36.903338 79.985496 37.003436 80.228516 37.091797 C 80.229077 37.092001 80.229907 37.091593 80.230469 37.091797 C 80.287636 37.112567 80.346743 37.127044 80.404297 37.146484 C 81.324889 37.457443 82.292119 37.604831 83.257812 37.572266 C 84.415354 37.533135 85.565312 37.236154 86.626953 36.693359 C 86.741954 36.634628 86.859917 36.582284 86.972656 36.517578 C 86.973431 36.517133 86.973835 36.51607 86.974609 36.515625 C 87.056675 36.468488 87.134079 36.411638 87.214844 36.361328 C 87.5875 36.128948 87.94927 35.870607 88.289062 35.570312 C 88.496125 35.387375 88.691432 35.196835 88.875 34.998047 C 89.609272 34.202893 90.156101 33.288639 90.509766 32.316406 C 90.86343 31.344173 91.024692 30.313958 90.990234 29.287109 C 90.946617 28.003943 90.596751 26.7257 89.933594 25.572266 C 89.933323 25.571795 89.933865 25.570784 89.933594 25.570312 C 89.668499 25.10945 89.351954 24.669312 88.986328 24.255859 C 88.613953 23.834547 88.207286 23.460684 87.773438 23.136719 C 87.408822 22.864451 87.020593 22.636384 86.623047 22.433594 C 86.547212 22.395019 86.475261 22.348536 86.398438 22.3125 C 85.440351 21.863089 84.407364 21.611248 83.365234 21.560547 z"/><path fill="black" fill-rule="evenodd" d="m 14.8029,20.6617 c 0.834,0 1.51,0.676 1.51,1.51 v 10e-4 c 0,0.552 0.447,1 1,1 0.552,0 1,-0.448 1,-1 v -10e-4 c 0,-0.834 0.676,-1.51 1.51,-1.51 0.552,0 1,-0.447 1,-1 0,-0.552 -0.448,-1 -1,-1 -0.834,0 -1.51,-0.676 -1.51,-1.51 0,-0.552 -0.448,-1 -1,-1 -0.553,0 -1,0.448 -1,1 0,0.834 -0.676,1.51 -1.51,1.51 -0.553,0 -1,0.448 -1,1 0,0.553 0.447,1 1,1"/></svg>