<svg xmlns="http://www.w3.org/2000/svg" height="85" viewBox="0 0 88 85" width="88"><path opacity="0.3" fill="black" d="M33.34 72.4458C19.8428 63.5078 11.774 49.002 11.774 33.627V27.2228L13.8404 26.8128C20.5562 25.468 25.427 19.8756 25.427 13.5124V11.0524H62.573V13.5124C62.573 19.8756 67.4438 25.468 74.1596 26.8128L76.226 27.2228V33.627C76.226 49.002 68.1572 63.5078 54.66 72.4458L44 79.4814L33.34 72.4458Z"/><path fill="black" d="M59.949 13.5124C59.949 21.204 65.7956 27.6246 73.602 29.1826V33.627C73.602 48.2476 65.976 61.9744 53.102 70.4696L44 76.4966L34.8816 70.4696C22.024 61.9744 14.3816 48.2476 14.3816 33.627V29.1826C22.2044 27.6 28.051 21.204 28.051 13.5124H59.949ZM65.197 8.66617H22.803V13.5124C22.803 18.744 18.8014 23.3524 13.291 24.443L9.15002 25.263V33.627C9.15002 49.781 17.6288 65.0248 31.8312 74.422L40.9496 80.449L44 82.4662L47.0504 80.449L56.1688 74.422C70.3712 65.0248 78.85 49.822 78.85 33.627V25.263L74.75 24.443C69.2396 23.336 65.238 18.744 65.238 13.5124V8.66617H65.197Z"/><path opacity="0.3" fill="black" d="M44 13.5124H28.051C28.051 21.204 22.2044 27.6246 14.398 29.1826V33.627C14.398 48.2476 22.024 61.9744 34.898 70.4696L44 76.4966V13.5124Z"/><path fill="black" d="M55.3826 32.1217C53.2209 31.1446 50.9395 30.4515 48.5964 30.06C48.2739 30.6243 47.9843 31.2065 47.7288 31.8035C45.245 31.4344 42.7195 31.4344 40.2357 31.8035C39.9979 31.2563 39.6509 30.5691 39.3617 30.06C37.0222 30.4528 34.745 31.1481 32.5883 32.128C28.7782 37.482 27.0589 44.0228 27.7493 50.5367C30.256 52.3712 33.0623 53.7659 36.0457 54.66C36.7161 53.7648 37.3094 52.8155 37.8194 51.822C36.8494 51.4672 35.9138 51.0264 35.0239 50.5048C35.2553 50.333 35.4866 50.1612 35.7115 49.9767C38.3052 51.1836 41.1357 51.8093 44.0015 51.8093C46.8673 51.8093 49.6979 51.1836 52.2915 49.9767C52.5164 50.1612 52.7414 50.333 52.9791 50.5048C52.0852 51.0247 51.1478 51.4675 50.1773 51.8284C50.6864 52.8203 51.2797 53.7676 51.9509 54.66C54.9375 53.7687 57.7463 52.3738 60.2538 50.5367C60.9377 44.0166 59.2066 37.4726 55.3826 32.1217ZM38.5648 46.8269C37.7552 46.7399 37.0066 46.3599 36.4628 45.7598C35.9189 45.1596 35.6181 44.3817 35.6181 43.5754C35.6181 42.769 35.9189 41.9911 36.4628 41.391C37.0066 40.7908 37.7552 40.4108 38.5648 40.3238C39.3744 40.4108 40.123 40.7908 40.6669 41.391C41.2108 41.9911 41.5116 42.769 41.5116 43.5754C41.5116 44.3817 41.2108 45.1596 40.6669 45.7598C40.123 46.3599 39.3744 46.7399 38.5648 46.8269ZM49.4511 46.8269C48.7863 46.8978 48.1154 46.7672 47.5271 46.4524C46.9389 46.1376 46.4609 45.6534 46.1566 45.0638C45.8522 44.4743 45.7357 43.8072 45.8224 43.1507C45.9092 42.4942 46.1951 41.8792 46.6424 41.3871C47.0897 40.8949 47.6774 40.5488 48.3276 40.3945C48.9779 40.2401 49.6601 40.2848 50.2842 40.5227C50.9082 40.7605 51.4447 41.1803 51.8226 41.7265C52.2005 42.2727 52.4021 42.9196 52.4008 43.5817C52.4375 44.4019 52.1454 45.2032 51.5881 45.8111C51.0307 46.419 50.2534 46.7841 49.4254 46.8269H49.4511Z"/></svg>