<svg xmlns="http://www.w3.org/2000/svg" height="84" viewBox="0 0 124 84" width="124"><path fill="#FFFFFF" fill-rule="evenodd" d="M 82.867188 2.9960938 C 81.022655 3.001906 79.177078 3.1981406 77.361328 3.5878906 C 73.048328 4.5138906 68.909953 6.5254375 65.376953 9.6484375 C 54.394953 19.355438 53.357453 36.187969 63.064453 47.167969 C 72.771453 58.149969 89.602931 59.186469 100.58594 49.480469 C 110.06994 41.094469 112.12877 27.397188 106.25977 16.742188 C 106.01977 16.824188 105.78416 16.911844 105.53516 16.964844 C 105.37216 16.999844 105.20897 17.027781 105.04297 17.050781 C 104.49497 17.124781 103.99097 16.740359 103.91797 16.193359 C 103.84497 15.647359 104.23144 15.144312 104.77344 15.070312 C 105.91544 14.913312 106.928 14.329016 107.625 13.416016 C 109.064 11.529016 108.6985 8.8218125 106.8125 7.3828125 C 104.9265 5.9438125 102.2203 6.3073594 100.7793 8.1933594 C 99.851291 9.4083594 99.638033 10.985203 100.20703 12.408203 C 100.41203 12.921203 100.16144 13.502031 99.648438 13.707031 C 99.141436 13.914031 98.555609 13.662391 98.349609 13.150391 C 97.683609 11.484391 97.782641 9.6172031 98.556641 8.0332031 C 93.919391 4.6784531 88.400779 2.9786561 82.867188 2.9960938 z M 82.244141 10.1875 C 82.882822 10.164531 83.5255 10.172891 84.171875 10.212891 C 89.340875 10.530891 94.075859 12.842656 97.505859 16.722656 C 100.93486 20.603656 102.65003 25.586859 102.33203 30.755859 C 102.01403 35.924859 99.700312 40.658891 95.820312 44.087891 C 93.290312 46.324891 90.292125 47.831484 87.078125 48.521484 C 85.363125 48.889484 83.588062 49.026064 81.789062 48.914062 C 76.620064 48.596063 71.885078 46.284297 68.455078 42.404297 C 65.025078 38.525297 63.311859 33.542047 63.630859 28.373047 C 63.948859 23.204047 66.260625 18.469062 70.140625 15.039062 C 73.533875 12.037814 77.773369 10.348281 82.244141 10.1875 z M 83.365234 21.558594 C 82.669984 21.524891 81.972109 21.581516 81.287109 21.728516 C 79.985109 22.007516 78.736875 22.614641 77.671875 23.556641 C 74.359875 26.484641 74.047609 31.561047 76.974609 34.873047 C 79.902609 38.185047 84.978016 38.497312 88.291016 35.570312 C 91.604016 32.642314 91.914328 27.566859 88.986328 24.255859 C 87.496828 22.570609 85.450984 21.659703 83.365234 21.558594 z M 1 37.589844 C 0.744125 37.589844 0.48846875 37.687812 0.29296875 37.882812 C -0.09703125 38.272813 -0.09703125 38.906875 0.29296875 39.296875 L 1.4765625 40.480469 C 1.6715625 40.675469 1.9275938 40.773438 2.1835938 40.773438 C 2.4395938 40.773438 2.695625 40.675469 2.890625 40.480469 C 3.281625 40.089469 3.281625 39.457406 2.890625 39.066406 L 1.7070312 37.882812 C 1.5120313 37.687812 1.255875 37.589844 1 37.589844 z M 8.0976562 37.589844 C 7.8416563 37.589844 7.5870781 37.687812 7.3925781 37.882812 L 6.2089844 39.066406 C 5.8179844 39.457406 5.8179844 40.089469 6.2089844 40.480469 C 6.4039844 40.675469 6.6600156 40.773438 6.9160156 40.773438 C 7.1720156 40.773438 7.4280469 40.675469 7.6230469 40.480469 L 8.8066406 39.296875 C 9.1966406 38.906875 9.1966406 38.272813 8.8066406 37.882812 C 8.6111406 37.687812 8.3536563 37.589844 8.0976562 37.589844 z M 56.589844 40.556641 C 54.988844 43.275641 55.229688 46.832313 57.429688 49.320312 C 57.794688 49.734313 57.753844 50.365469 57.339844 50.730469 C 56.926844 51.098469 56.420685 50.744078 56.054688 50.330078 C 55.680687 49.907078 55.236172 49.771641 54.951172 49.306641 L 46.841797 56.474609 C 46.429797 56.838609 45.901564 57.017328 45.351562 56.986328 C 44.801564 56.952328 44.297594 56.704969 43.933594 56.292969 L 39.015625 50.730469 C 37.831625 49.392469 35.7785 49.264266 34.4375 50.447266 C 33.0975 51.633266 32.97125 53.687344 34.15625 55.027344 L 37.667969 59 C 38.408969 59.837 38.777984 60.912344 38.708984 62.027344 C 38.640984 63.142344 38.141686 64.164297 37.304688 64.904297 C 36.468688 65.642297 35.393344 66.014314 34.277344 65.945312 C 33.161344 65.875315 32.141344 65.377065 31.402344 64.539062 L 23.671875 55.796875 C 23.098875 55.147875 22.306359 54.761984 21.443359 54.708984 C 21.142359 54.689984 20.844594 54.712437 20.558594 54.773438 C 20.020594 54.889437 19.51775 55.142578 19.09375 55.517578 C 17.75475 56.701578 17.6275 58.75275 18.8125 60.09375 L 27.947266 70.425781 C 28.699266 71.275781 28.618531 72.580984 27.769531 73.333984 L 26.177734 74.740234 C 25.276734 75.537234 25.190281 76.919314 25.988281 77.820312 L 28.095703 80.205078 C 28.481703 80.641078 29.015656 80.9025 29.597656 80.9375 C 30.177656 80.9735 30.739781 80.780531 31.175781 80.394531 L 59.955078 54.955078 C 59.528078 54.614078 59.114234 54.248219 58.740234 53.824219 C 58.374234 53.410219 58.412172 52.777109 58.826172 52.412109 C 59.240172 52.044109 59.873234 52.086 60.240234 52.5 C 62.443234 54.992 65.949656 55.662437 68.847656 54.398438 C 66.179656 52.882438 63.709406 50.917186 61.566406 48.492188 C 59.450406 46.099187 57.785844 43.419641 56.589844 40.556641 z M 2.1835938 43.505859 C 1.9277187 43.505859 1.6715625 43.603828 1.4765625 43.798828 L 0.29296875 44.982422 C -0.09803125 45.373422 -0.09803125 46.005484 0.29296875 46.396484 C 0.48796875 46.591484 0.744 46.689453 1 46.689453 C 1.256 46.689453 1.5120312 46.591484 1.7070312 46.396484 L 2.890625 45.212891 C 3.280625 44.822891 3.280625 44.189828 2.890625 43.798828 C 2.695125 43.603828 2.4394688 43.505859 2.1835938 43.505859 z M 6.9160156 43.505859 C 6.6601406 43.505859 6.4044844 43.603828 6.2089844 43.798828 C 5.8189844 44.189828 5.8189844 44.822891 6.2089844 45.212891 L 7.3925781 46.396484 C 7.5875781 46.591484 7.8436094 46.689453 8.0996094 46.689453 C 8.3556094 46.689453 8.6116406 46.591484 8.8066406 46.396484 C 9.1976406 46.005484 9.1976406 45.373422 8.8066406 44.982422 L 7.6230469 43.798828 C 7.4280469 43.603828 7.1718906 43.505859 6.9160156 43.505859 z M 116.36719 71.927734 L 110.36719 82.318359 L 122.36719 82.318359 L 116.36719 71.927734 z"/><path fill="#000000" fill-rule="evenodd" d="M 83.333984 1.0019531 C 76.48242 0.91148071 69.578734 3.2650781 64.052734 8.1503906 C 58.331734 13.206391 54.924078 20.185641 54.455078 27.806641 C 54.254078 31.068641 54.60675 34.279937 55.46875 37.335938 C 55.62575 37.890937 55.574094 38.495703 55.246094 38.970703 C 53.531094 41.445703 53.105781 44.587484 54.050781 47.396484 L 46.179688 54.3125 C 45.765687 54.6765 45.136484 54.635656 44.771484 54.222656 L 40.667969 49.580078 C 38.854969 47.529078 35.737484 47.018047 33.521484 48.623047 C 30.977484 50.465047 30.629203 54.055563 32.658203 56.351562 L 36.169922 60.324219 C 36.555922 60.762219 36.748891 61.322297 36.712891 61.904297 C 36.676891 62.485297 36.416516 63.02025 35.978516 63.40625 C 35.542516 63.79225 34.982391 63.985219 34.400391 63.949219 C 33.819391 63.914219 33.284438 63.650844 32.898438 63.214844 L 25.294922 54.613281 C 24.491922 53.706281 23.436094 53.020875 22.246094 52.796875 C 20.614094 52.490875 18.990531 52.939531 17.769531 54.019531 C 15.604531 55.934531 15.3985 59.251969 17.3125 61.417969 L 25.787109 71.087891 C 26.149109 71.501891 26.109266 72.132094 25.697266 72.496094 L 24.851562 73.242188 C 23.122563 74.771187 22.961234 77.415484 24.490234 79.146484 L 26.523438 81.447266 C 27.050438 82.042266 27.712656 82.525859 28.472656 82.755859 C 29.193656 82.972859 29.928234 82.997562 30.615234 82.851562 C 31.308234 82.701562 31.954 82.376531 32.5 81.894531 L 61.710938 56.070312 C 63.623937 56.994312 65.793516 57.253547 67.853516 56.810547 C 68.666516 56.636547 69.459844 56.348125 70.214844 55.953125 C 70.740844 55.678125 71.360203 55.676297 71.908203 55.904297 C 77.317203 58.169297 83.309484 58.720141 89.021484 57.494141 C 93.658484 56.500141 98.111156 54.336516 101.91016 50.978516 C 111.73516 42.292516 114.14892 28.303828 108.66992 17.048828 C 108.32892 16.348828 108.4547 15.503875 108.9707 14.921875 C 109.0547 14.826875 109.13584 14.729906 109.21484 14.628906 C 111.32184 11.865906 110.79034 7.9019687 108.02734 5.7929688 C 105.83334 4.1199687 102.88308 4.1124531 100.70508 5.5644531 C 100.04808 6.0034531 99.216734 6.0364688 98.552734 5.6054688 C 93.959422 2.6217187 88.662979 1.0723206 83.333984 1.0019531 z M 82.671875 2.9980469 C 88.009391 2.9420781 93.341578 4.4836094 97.892578 7.5683594 C 98.255578 7.8143594 98.424344 8.2842656 98.277344 8.6972656 C 97.770344 10.124266 97.774609 11.713391 98.349609 13.150391 C 98.555609 13.663391 99.140438 13.914031 99.648438 13.707031 C 100.15444 13.505031 100.40484 12.935734 100.21484 12.427734 C 99.888844 11.558734 99.755625 10.615609 100.01562 9.7246094 C 101.00262 6.3506094 104.99844 5.4911094 107.27344 7.7871094 C 108.55244 9.0781094 108.87783 11.123234 108.04883 12.740234 C 107.38183 14.041234 106.17544 14.877313 104.77344 15.070312 C 104.23144 15.144312 103.84397 15.646359 103.91797 16.193359 C 103.99097 16.740359 104.49497 17.124781 105.04297 17.050781 C 105.20897 17.027781 105.37216 16.999844 105.53516 16.964844 C 105.78416 16.911844 106.01977 16.824188 106.25977 16.742188 C 112.12877 27.396187 110.06994 41.095469 100.58594 49.480469 C 89.503938 59.274469 72.467734 58.131141 62.802734 46.869141 C 53.659734 36.214141 54.502078 19.904766 64.705078 10.259766 C 68.381078 6.7857656 72.772328 4.5718906 77.361328 3.5878906 C 79.112578 3.2121406 80.892703 3.0167031 82.671875 2.9980469 z M 82.244141 10.1875 C 77.773547 10.348104 73.53475 12.036938 70.140625 15.039062 C 66.260625 18.469062 63.947906 23.204047 63.628906 28.373047 C 63.310906 33.542047 65.026078 38.524297 68.455078 42.404297 C 71.885078 46.284297 76.620062 48.596062 81.789062 48.914062 C 83.588063 49.025062 85.364125 48.890484 87.078125 48.521484 C 90.292125 47.832484 93.291266 46.324891 95.822266 44.087891 C 99.702266 40.658891 102.01208 35.924859 102.33008 30.755859 C 102.64908 25.586859 100.93586 20.602656 97.505859 16.722656 C 94.076859 12.842656 89.340875 10.530891 84.171875 10.212891 C 83.5255 10.172891 82.882797 10.164557 82.244141 10.1875 z M 82.84375 12.175781 C 83.243813 12.173328 83.645828 12.183984 84.048828 12.208984 C 87.527828 12.422984 90.778375 13.655563 93.484375 15.726562 C 94.493375 16.496562 94.562328 17.991031 93.611328 18.832031 L 90.414062 21.658203 C 90.053062 21.978203 89.526484 21.966922 89.146484 21.669922 C 85.418484 18.755922 80.014656 18.815547 76.347656 22.060547 C 72.677656 25.304547 71.954672 30.657844 74.388672 34.714844 C 74.636672 35.127844 74.583656 35.652656 74.222656 35.972656 C 74.222656 35.972656 72.438391 37.550781 71.025391 38.800781 C 70.073391 39.643781 68.600031 39.387062 67.957031 38.289062 C 65.303031 33.758063 64.785203 28.187547 66.908203 22.810547 C 67.199203 22.074547 67.554656 21.363406 67.972656 20.691406 C 70.666656 16.352406 74.745641 13.5405 79.306641 12.5625 C 80.460141 12.31425 81.643563 12.183141 82.84375 12.175781 z M 96.154297 19.832031 C 96.875234 19.796865 97.601328 20.150938 98.001953 20.835938 C 99.724953 23.775938 100.54798 27.153813 100.33398 30.632812 C 99.958984 36.728813 96.492781 42.153 90.800781 45.125 C 89.491781 45.808 88.082766 46.301844 86.634766 46.589844 C 81.418766 47.628844 76.382516 46.390297 72.478516 43.404297 C 71.468516 42.633297 71.394656 41.138875 72.347656 40.296875 C 73.769656 39.039875 75.568359 37.449219 75.568359 37.449219 C 75.924359 37.135219 76.446312 37.146453 76.820312 37.439453 C 79.194312 39.301453 82.243609 39.965516 85.099609 39.353516 C 86.724609 39.004516 88.285234 38.246359 89.615234 37.068359 C 93.285234 33.823359 94.006266 28.471063 91.572266 24.414062 C 91.324266 24.000062 91.378234 23.474297 91.740234 23.154297 L 94.935547 20.330078 C 95.292172 20.014703 95.721734 19.853131 96.154297 19.832031 z M 83.365234 21.560547 C 85.451172 21.662031 87.498031 22.569406 88.988281 24.253906 C 91.915281 27.564906 91.602063 32.643313 88.289062 35.570312 C 84.977063 38.497312 79.903609 38.186047 76.974609 34.873047 C 74.047609 31.561047 74.358922 26.483641 77.669922 23.556641 C 78.735922 22.613641 79.984156 22.008516 81.285156 21.728516 C 81.970406 21.581766 82.669922 21.526719 83.365234 21.560547 z M 56.542969 42.115234 C 56.933344 42.069109 57.354812 42.242656 57.570312 42.660156 C 58.643313 44.737156 59.978406 46.696187 61.566406 48.492188 C 63.171406 50.308188 64.959 51.866875 66.875 53.171875 C 67.653 53.700875 67.360828 54.928 66.423828 55 C 64.162828 55.172 61.852234 54.325 60.240234 52.5 C 59.874234 52.086 59.241125 52.045109 58.828125 52.412109 C 58.414125 52.777109 58.375234 53.410219 58.740234 53.824219 C 58.865234 53.966219 58.994953 54.101469 59.126953 54.230469 C 59.546953 54.641469 59.552328 55.312172 59.111328 55.701172 L 31.175781 80.396484 C 30.738781 80.781484 30.176703 80.9735 29.595703 80.9375 C 29.013703 80.9025 28.481703 80.641078 28.095703 80.205078 L 25.988281 77.820312 C 25.190281 76.917312 25.274734 75.538234 26.177734 74.740234 L 27.767578 73.333984 C 28.616578 72.583984 28.699219 71.275734 27.949219 70.427734 L 18.898438 60.193359 C 17.807437 58.959359 17.699156 57.067125 18.785156 55.828125 C 19.263156 55.281125 19.881641 54.919437 20.556641 54.773438 C 20.842641 54.712438 21.142359 54.689984 21.443359 54.708984 C 22.306359 54.761984 23.097875 55.147875 23.671875 55.796875 L 31.289062 64.412109 C 31.934062 65.142109 32.781281 65.695953 33.738281 65.876953 C 35.043281 66.123953 36.335688 65.761297 37.304688 64.904297 C 38.278687 64.043297 38.794984 62.803516 38.708984 61.478516 C 38.644984 60.507516 38.198687 59.600094 37.554688 58.871094 L 34.214844 55.09375 C 33.189844 53.93475 33.041703 52.187172 33.970703 50.951172 C 35.251703 49.251172 37.682672 49.225469 39.013672 50.730469 L 43.931641 56.292969 C 44.296641 56.704969 44.800609 56.952328 45.349609 56.986328 C 45.899609 57.018328 46.428797 56.836656 46.841797 56.472656 L 54.103516 50.052734 C 54.544516 49.663734 55.212313 49.744937 55.570312 50.210938 C 55.587313 50.230938 55.604094 50.253438 55.621094 50.273438 C 55.856094 50.572437 56.436797 51.387469 57.341797 50.730469 C 57.760797 50.427469 57.793734 49.734312 57.427734 49.320312 C 55.817734 47.499313 55.258172 45.105672 55.701172 42.888672 C 55.793172 42.427672 56.152594 42.161359 56.542969 42.115234 z M 116.36914 70.962891 C 116.02539 70.962891 115.68095 71.118234 115.50195 71.427734 L 109.50195 81.818359 C 109.32395 82.128359 109.32395 82.508359 109.50195 82.818359 C 109.68095 83.128359 110.01114 83.318359 110.36914 83.318359 L 122.36914 83.318359 C 122.72614 83.318359 123.05537 83.128359 123.23438 82.818359 C 123.41337 82.508359 123.41338 82.128359 123.23438 81.818359 L 117.23438 71.427734 C 117.05537 71.118234 116.71289 70.962891 116.36914 70.962891 z M 116.36914 73.927734 L 120.63477 81.318359 L 112.10156 81.318359 L 116.36914 73.927734 z"/></svg>