<svg xmlns="http://www.w3.org/2000/svg" height="85" viewBox="0 0 88 85" width="88"><path d="M83.0028 1.0838C83.0028 0.485233 82.5176 0 81.919 0C81.3204 0 80.8352 0.485233 80.8352 1.0838V2.18566C80.8352 2.78422 81.3204 3.26946 81.919 3.26946C82.5176 3.26946 83.0028 2.78422 83.0028 2.18566V1.0838Z" fill="#3BA55C"/><path d="M83.0028 9.81424C83.0028 9.21567 82.5176 8.73044 81.919 8.73044C81.3204 8.73044 80.8352 9.21567 80.8352 9.81424V10.9161C80.8352 11.5147 81.3204 11.9999 81.919 11.9999C82.5176 11.9999 83.0028 11.5147 83.0028 10.9161V9.81424Z" fill="#3BA55C"/><path d="M86.9164 7.10531C87.515 7.10531 88.0002 6.62008 88.0002 6.02151C88.0002 5.42295 87.515 4.93771 86.9164 4.93771H85.8146C85.216 4.93771 84.7308 5.42295 84.7308 6.02151C84.7308 6.62008 85.216 7.10531 85.8146 7.10531H86.9164Z" fill="#3BA55C"/><path d="M78.1857 7.04525C78.7843 7.04525 79.2695 6.56002 79.2695 5.96145C79.2695 5.36289 78.7843 4.87766 78.1857 4.87766H77.0839C76.4853 4.87766 76.0001 5.36289 76.0001 5.96145C76.0001 6.56002 76.4853 7.04525 77.0839 7.04525H78.1857Z" fill="#3BA55C"/><path d="M8.36261 75.843L11.486 74.8013C11.6394 74.731 11.7694 74.6181 11.8605 74.4761C11.9516 74.334 12 74.1688 12 74C12 73.8312 11.9516 73.666 11.8605 73.5239C11.7694 73.3819 11.6394 73.269 11.486 73.1987L8.36261 72.157C8.14925 72.0606 7.97838 71.8897 7.88207 71.6762L6.76084 68.5511C6.70818 68.3908 6.60626 68.2512 6.46964 68.1522C6.33302 68.0533 6.16866 68 5.99999 68C5.83133 68 5.66698 68.0533 5.53036 68.1522C5.39374 68.2512 5.29182 68.3908 5.23916 68.5511L4.11793 71.6762C4.02162 71.8897 3.85075 72.0606 3.63739 72.157L0.513957 73.1987C0.360602 73.269 0.230643 73.3819 0.139534 73.5239C0.0484247 73.666 0 73.8312 0 74C0 74.1688 0.0484247 74.334 0.139534 74.4761C0.230643 74.6181 0.360602 74.731 0.513957 74.8013L3.63739 75.843C3.75083 75.8774 3.85403 75.9393 3.93785 76.0232C4.02167 76.107 4.08352 76.2103 4.11793 76.3238L5.23916 79.4489C5.29182 79.6092 5.39374 79.7488 5.53036 79.8478C5.66698 79.9467 5.83133 80 5.99999 80C6.16866 80 6.33302 79.9467 6.46964 79.8478C6.60626 79.7488 6.70818 79.6092 6.76084 79.4489L7.88207 76.3238C7.91648 76.2103 7.97834 76.107 8.06215 76.0232C8.14597 75.9393 8.24917 75.8774 8.36261 75.843Z" fill="#FFD01A"/><path ="M 22.802734 8.6660156 L 22.802734 13.511719 C 22.802734 18.743304 18.801398 23.352762 13.291016 24.443359 L 9.1503906 25.263672 L 9.1503906 33.626953 C 9.1503906 49.780905 17.629673 65.024702 31.832031 74.421875 L 40.949219 80.449219 L 44 82.466797 L 47.050781 80.449219 L 56.167969 74.421875 C 70.370327 65.024702 78.849609 49.821905 78.849609 33.626953 L 78.849609 25.263672 L 74.75 24.443359 C 69.239618 23.336362 65.238281 18.743304 65.238281 13.511719 L 65.238281 8.6660156 L 65.197266 8.6660156 L 22.802734 8.6660156 z " fill="#FFFFFF"/></svg>