<svg xmlns="http://www.w3.org/2000/svg" width="660" height="240" viewBox="0 0 660 240"><path fill="black" d="M 0 0 L 0 197.63086 C 2.3684758e-15 197.63086 9.8502347 197.13055 16.740234 214.06055 C 16.740234 214.06055 20.58 201.00055 35 208.06055 C 35 208.06055 26.790859 176.51977 61.880859 168.75977 C 96.970859 160.99977 110.17969 194.75977 110.17969 194.75977 C 110.17969 194.75977 126.20055 182.16 149.56055 199 C 149.56055 199 162.94055 172.00016 190.56055 193.16016 C 190.56055 193.16016 211.39937 169.53953 242.85938 190.26953 C 242.85938 190.26953 267.88047 173.93945 274.23047 197.68945 L 274.90039 197.81055 C 278.20039 196.80055 295.11 192.56023 308 206.49023 C 306.88 200.00023 304.75086 175.40094 335.13086 168.71094 C 352.41086 164.92094 364.37008 171.17 372.08008 178.5 C 387.00008 169 386.7207 191.57031 386.7207 191.57031 C 392.2107 187.16031 404.32938 181.07016 421.10938 193.16016 C 421.10938 193.16016 452.4707 172.16 477.4707 205 C 477.4707 205 483.6307 180 511.4707 191 C 511.4707 191 539.31055 161 555.81055 204 C 555.81055 204 573.81055 188.48 587.81055 216 C 587.81055 216 601.21931 179.99953 635.5293 202.26953 C 635.5293 202.26953 633.15055 189.53953 646.06055 190.26953 C 646.06055 190.26953 640.41 159.99922 660 155.69922 L 660 0 L 0 0 z"/><path fill="black" opacity="0.5" d="m 646.05999,190.27 c -12.91,-0.73 -10.53,12 -10.53,12 C 601.22,180 587.81,216 587.81,216 c -14,-27.52 -32,-12 -32,-12 -16.5,-43 -44.34,-13 -44.34,-13 -27.84,-11 -34,14 -34,14 -25,-32.84 -56.36,-11.84 -56.36,-11.84 -16.78,-12.09 -28.9,-6 -34.39,-1.59 0,0 0.28,-22.57 -14.64,-13.07 -7.71,-7.33 -19.67,-13.58 -36.95,-9.79 -30.38,6.69 -28.25,31.29 -27.13,37.78 -12.89,-13.93 -29.8,-9.69 -33.1,-8.68 l -0.67,-0.12 c -6.35,-23.75 -31.37,-7.42 -31.37,-7.42 -31.46,-20.73 -52.3,2.89 -52.3,2.89 -27.62,-21.16 -41,5.84 -41,5.84 -23.36,-16.84 -39.38,-4.24 -39.38,-4.24 0,0 -13.21,-33.76 -48.3,-26 -35.09,7.76 -26.88,39.3 -26.88,39.3 -14.42,-7.06 -18.26,6 -18.26,6 C 9.8500003,197.13 0,197.63 0,197.63 V 240 h 659.99999 v -84.3 c -19.59,4.3 -13.94,34.57 -13.94,34.57 z"/></svg>