<svg width="80" height="80" viewBox="0 0 80 80" fill="none" xmlns="http://www.w3.org/2000/svg"><g clip-path="url(#clip0)"><path d="M20.5699 33.71C20.5699 33.71 7.27989 37.42 12.7799 46.23" stroke="#D6812F" stroke-width="1.44" stroke-miterlimit="10" stroke-linecap="round"/><path d="M26.2899 38.67C30.0786 38.67 33.1499 35.5987 33.1499 31.81C33.1499 28.0213 30.0786 24.95 26.2899 24.95C22.5013 24.95 19.4299 28.0213 19.4299 31.81C19.4299 35.5987 22.5013 38.67 26.2899 38.67Z" fill="#FFB54B"/><path d="M27.4301 38.67C31.2187 38.67 34.2901 35.5987 34.2901 31.81C34.2901 28.0213 31.2187 24.95 27.4301 24.95C23.6414 24.95 20.5701 28.0213 20.5701 31.81C20.5701 35.5987 23.6414 38.67 27.4301 38.67Z" fill="#FF9A38"/><path d="M64.1601 45.72L67.6701 45.38C67.6701 45.5 67.6701 45.61 67.6701 45.72C67.6721 46.4186 67.4667 47.1021 67.0801 47.6839C66.6934 48.2657 66.1428 48.7197 65.4979 48.9884C64.8531 49.2571 64.143 49.3285 63.4576 49.1934C62.7722 49.0583 62.1422 48.7229 61.6476 48.2296C61.1529 47.7364 60.8157 47.1074 60.6787 46.4224C60.5417 45.7373 60.611 45.0271 60.8779 44.3815C61.1447 43.7359 61.5972 43.1839 62.1779 42.7956C62.7586 42.4073 63.4415 42.2 64.1401 42.2C64.7888 42.1962 65.4259 42.3728 65.9801 42.71L64.1601 45.72Z" fill="#C25F79"/><path d="M2.75 54.57C5.68642 62.0759 10.8218 68.5196 17.4833 73.0568C24.1447 77.594 32.0215 80.013 40.0813 79.9968C48.1411 79.9806 56.0081 77.5299 62.6512 72.966C69.2943 68.402 74.4038 61.9376 77.31 54.42C72.71 50.14 68.45 47.59 62.06 47.59C54.5987 47.4817 47.1372 47.7889 39.71 48.51C39.71 48.51 34 52.34 21.08 53.22L23.34 46.92C23.34 46.92 12.7 52.75 2.75 54.57Z" fill="#F8D99F"/><path d="M44.72 16.49C45.11 13.93 45.58 11.67 46.03 9.80999C46.227 9.03516 46.5877 8.31151 47.0877 7.6877C47.5878 7.06388 48.2156 6.55437 48.929 6.19342C49.6423 5.83247 50.4247 5.62845 51.2235 5.59509C52.0223 5.56172 52.819 5.69978 53.56 5.99999L53.72 6.06999C54.5407 6.40447 55.2702 6.92931 55.8482 7.60123C56.4262 8.27314 56.8361 9.07286 57.0442 9.9344C57.2522 10.7959 57.2524 11.6946 57.0448 12.5562C56.8372 13.4179 56.4276 14.2178 55.85 14.89C53.861 17.3591 51.5773 19.5756 49.05 21.49L44.72 16.49Z" fill="#232243"/><path d="M51.11 41.32L20.4 44.54C14.4 59.08 18.63 67.78 21.73 73.54C22.3137 74.5929 22.9826 75.5962 23.73 76.54C28.8488 78.8273 34.3934 80.0064 40 80C41.4565 79.9957 42.9118 79.9156 44.36 79.76C45.47 77.63 46.67 74.9 48.07 71.44C52.51 60.44 53.34 54.38 62.07 47.59C60.86 43.58 60.79 42.83 51.11 41.32Z" fill="#DE819A"/><path d="M54.68 16.16C54.041 14.3965 52.8026 12.9137 51.1813 11.9705C49.56 11.0273 47.6589 10.6838 45.81 11H45.76C45.39 12.61 45.03 14.45 44.76 16.49L49.09 21.49C51.1423 19.9227 53.0168 18.1354 54.68 16.16Z" fill="#2E2C56"/><path d="M47.3801 13.3C41.7701 12.3 36.7301 12.65 29.4801 15.3C23.8901 17.38 22.8901 22.78 22.6401 26.69C22.3901 30.6 22.3201 32.89 22.3201 32.89C16.4201 39.79 14.8101 47.8 18.0501 54.89C21.2901 61.98 31.6001 65.17 43.7501 59.6C55.9001 54.03 58.2101 48.17 57.8601 44C57.5101 39.83 55.6901 27.33 55.0001 23.3C54.3101 19.27 54.0001 14.47 47.3801 13.3Z" fill="#557FF6"/><path d="M25.7002 43.9196C26.0038 42.005 25.3081 40.3035 24.1462 40.1193C22.9844 39.9351 21.7964 41.3378 21.4928 43.2524C21.1892 45.167 21.885 46.8685 23.0468 47.0527C24.2087 47.2369 25.3967 45.8342 25.7002 43.9196Z" fill="#4873F5"/><path d="M46.7159 43.6607C48.8563 43.3006 50.2758 41.1322 49.8864 38.8175C49.4969 36.5029 47.4461 34.9184 45.3057 35.2785C43.1653 35.6386 41.7459 37.8069 42.1353 40.1216C42.5247 42.4363 44.5755 44.0208 46.7159 43.6607Z" fill="#4873F5"/><path d="M27.53 16.32C29.35 19.25 37.53 18.32 52.36 15.8C51.1939 14.2607 49.5103 13.1951 47.62 12.8C42.01 11.8 36.73 12.65 29.48 15.35C28.798 15.6044 28.1444 15.9295 27.53 16.32Z" fill="#232243"/><path d="M48.7201 13.08L48.5601 15.47C44.5601 22.63 46.1401 24.47 48.5601 26.24C50.5601 27.72 52.7301 26.87 55.1701 24.65C54.2601 17.87 54.1101 15.31 48.7201 13.08Z" fill="#232243"/><path d="M29.1101 25.62C29.827 25.1017 30.6921 24.8285 31.5767 24.8411C32.4613 24.8537 33.3182 25.1515 34.0201 25.69C34.6101 26.09 35.3101 25.24 34.9301 24.69C34.6258 24.0763 34.1527 23.5621 33.5664 23.2078C32.9801 22.8536 32.3049 22.6739 31.6201 22.69C29.8401 22.69 28.3401 23.58 28.3201 25.07C28.3201 25.47 28.7601 25.83 29.1101 25.62Z" fill="#232243"/><path d="M28.0601 32.73C28.0896 31.9544 28.3127 31.1985 28.7092 30.5313C29.1057 29.864 29.6629 29.3067 30.3301 28.91C32.2601 27.91 34.5001 29.3 35.3301 31.91C35.4324 32.2369 35.5093 32.5712 35.5601 32.91" stroke="#2B2951" stroke-width="1.44" stroke-miterlimit="10" stroke-linecap="round"/><path d="M32.8867 56.6006C33.0865 54.9892 31.2802 53.4388 28.8522 53.1377C26.4242 52.8366 24.2939 53.8987 24.094 55.5101C23.8942 57.1215 25.7005 58.6719 28.1285 58.973C30.5565 59.2741 32.6868 58.212 32.8867 56.6006Z" fill="#436FF5"/><path d="M23.22 64.08C26.6 67.85 33.28 69.66 45.89 61.18C45.9783 61.128 46.0819 61.1085 46.1831 61.1247C46.2842 61.141 46.3765 61.192 46.444 61.269C46.5116 61.3461 46.5501 61.4442 46.553 61.5466C46.556 61.649 46.5231 61.7492 46.46 61.83C43.52 65.1 38.55 70.5 34.41 74.25C33.8688 74.7349 33.2317 75.1006 32.54 75.3232C31.8483 75.5458 31.1174 75.6204 30.395 75.5421C29.6726 75.4639 28.9747 75.2345 28.3467 74.8688C27.7188 74.5032 27.1747 74.0096 26.75 73.42C24.7913 70.7649 23.2252 67.8416 22.1 64.74C22.0456 64.5946 22.0441 64.4348 22.0959 64.2885C22.1477 64.1421 22.2493 64.0188 22.383 63.94C22.5167 63.8612 22.6739 63.832 22.827 63.8576C22.9801 63.8832 23.1192 63.962 23.22 64.08Z" fill="#C25F79"/><path d="M43.9999 40.32C42.8899 38.47 38.7799 38.69 35.1399 40.61C33.5916 41.5356 31.8008 41.9746 29.9999 41.87C27.4699 41.61 24.2899 42.5 24.4599 45.13C24.5999 47.22 28.9999 49.34 37.9999 47.2C42.4699 46.13 45.7099 43.23 43.9999 40.32Z" fill="#2445A1"/><path d="M35.0899 40.61C33.5559 41.5259 31.7841 41.9645 29.9999 41.87C29.1447 41.7768 28.2799 41.8241 27.4399 42.01L27.5299 42.41C27.5747 42.6091 27.6888 42.7858 27.8518 42.9086C28.0148 43.0313 28.2162 43.0921 28.4199 43.08C30.9699 42.94 39.5399 42.28 43.4199 39.79C41.9399 38.54 38.3299 38.9 35.0899 40.61Z" fill="#BCCEFA"/><path d="M30 48.05C29.3241 46.8616 28.7294 45.6288 28.22 44.36C28.1908 44.2451 28.1224 44.1439 28.0266 44.0739C27.9308 44.004 27.8136 43.9696 27.6952 43.9767C27.5768 43.9838 27.4646 44.0319 27.3779 44.1129C27.2911 44.1938 27.2353 44.3024 27.22 44.42C26.9446 45.3969 26.7967 46.4052 26.78 47.42C27.817 47.7857 28.9017 47.9979 30 48.05Z" fill="#BCCEFA"/><path d="M40.6101 42.47C40.5348 42.3605 40.4217 42.2826 40.2926 42.2512C40.1634 42.2198 40.0272 42.2372 39.9101 42.3C39.822 42.3472 39.7473 42.416 39.6931 42.5C39.6389 42.5839 39.6069 42.6803 39.6001 42.78C39.5603 44.0462 39.7155 45.3109 40.0601 46.53C40.9691 46.1693 41.8238 45.6848 42.6001 45.09C41.7901 44.17 41.0701 43.09 40.6101 42.47Z" fill="#BCCEFA"/><path d="M36.29 13.23C36.29 13.23 49.57 10.34 51.83 27L54.68 25.79C54.68 25.79 52.57 13.14 42.6 12.39C40.464 12.3047 38.3293 12.5889 36.29 13.23Z" fill="#FFB54B"/><path d="M54.42 38.29C57.5459 38.29 60.08 35.2187 60.08 31.43C60.08 27.6413 57.5459 24.57 54.42 24.57C51.2941 24.57 48.76 27.6413 48.76 31.43C48.76 35.2187 51.2941 38.29 54.42 38.29Z" fill="#FF9A38"/><path d="M55.68 38.29C58.806 38.29 61.34 35.2187 61.34 31.43C61.34 27.6413 58.806 24.57 55.68 24.57C52.5541 24.57 50.02 27.6413 50.02 31.43C50.02 35.2187 52.5541 38.29 55.68 38.29Z" fill="#FFB54B"/><path d="M12.95 47.8C13.9994 47.8 14.85 46.9493 14.85 45.9C14.85 44.8507 13.9994 44 12.95 44C11.9007 44 11.05 44.8507 11.05 45.9C11.05 46.9493 11.9007 47.8 12.95 47.8Z" fill="#D6812F"/></g><defs><clipPath id="clip0"><rect width="80" height="80" fill="white"/></clipPath></defs></svg>