<svg xmlns="http://www.w3.org/2000/svg" width="660" height="240" viewBox="0 0 660 240"><path fill="#fff" opacity="0.5" d="M 634.2,197.85 C 618,195.7 614.32,210 614.32,210 c -2.06,-21 -19.59,-18 -19.59,-18 -14.14,-31 -55.39,-26 -55.39,-26 -32,5 -34,24 -34,24 -17.53,-25 -43.31,-6 -43.31,-6 -7.22,-41 -43.34,-67.72 -53.62,-71 C 305,79.999996 273.85,135 273.85,135 c -17,-17 -24.29,7.83 -24.29,7.83 -22.7,-31.18 -37.12,0 -37.12,0 -26.83,-18.18 -29.56,7 -29.56,7 -31.65,-9.23 -35.95,22 -35.95,22 0,0 -8.72,-45.83 -49.93,-37.83 -41.21,8 -32,62 -32,62 -12.37,-6 -14.44,6 -14.44,6 C 46.44,179 29.24,187.71 29.24,187.71 18.58,151 0,155.7 0,155.7 V 240 h 660 v -84.3 c -24.45,4.7 -25.8,42.15 -25.8,42.15 z"/><path fill-rule="evenodd" clip-rule="evenodd" d="M480.53 164.5L478.19 165.5C478.177 165.5 478.164 165.505 478.155 165.515C478.145 165.524 478.14 165.537 478.14 165.55C478.14 165.563 478.145 165.576 478.155 165.585C478.164 165.595 478.177 165.6 478.19 165.6L480.53 166.6L481.53 168.95C481.535 168.958 481.543 168.965 481.552 168.97C481.56 168.974 481.57 168.977 481.58 168.977C481.59 168.977 481.6 168.974 481.608 168.97C481.617 168.965 481.624 168.958 481.63 168.95L482.63 166.6L484.97 165.6C484.983 165.6 484.996 165.595 485.005 165.585C485.015 165.576 485.02 165.563 485.02 165.55C485.02 165.537 485.015 165.524 485.005 165.515C484.996 165.505 484.983 165.5 484.97 165.5L482.63 164.5L481.63 162.16C481.624 162.152 481.617 162.145 481.608 162.14C481.6 162.136 481.59 162.133 481.58 162.133C481.57 162.133 481.56 162.136 481.552 162.14C481.543 162.145 481.535 162.152 481.53 162.16L480.53 164.5C480.53 164.5 480.54 164.5 480.53 164.5Z" fill="#CCCCCC"/><path d="M525.39 64.33C521.53 62.4 511.99 60.66 502.71 63.95C501.866 64.258 500.935 64.2207 500.119 63.8462C499.303 63.4718 498.667 62.7904 498.35 61.95C495.18 53.3 488.06 46.15 483.82 44.55C483.419 44.3938 483.055 44.1568 482.75 43.8536C482.445 43.5504 482.206 43.1877 482.047 42.788C481.889 42.3883 481.814 41.9602 481.829 41.5304C481.843 41.1006 481.945 40.6784 482.13 40.29L489.64 29.82L533 50.2L529.63 62.85C529.454 63.2298 529.203 63.5703 528.892 63.8514C528.582 64.1325 528.218 64.3484 527.823 64.4864C527.427 64.6244 527.008 64.6817 526.591 64.6548C526.173 64.6279 525.764 64.5175 525.39 64.33Z" fill="#FFBE6E"/><g style="mix-blend-mode:multiply" opacity="0.43"><path d="M530.31 60.21L506 52.67L532.98 50.2L530.31 60.21Z" fill="#FFBE6E"/></g><path d="M521.2 17.67L477.57 16.67C477.356 16.6324 477.135 16.6655 476.942 16.7644C476.748 16.8633 476.592 17.0226 476.497 17.2181C476.402 17.4136 476.374 17.6348 476.416 17.848C476.458 18.0613 476.568 18.255 476.73 18.4L504.93 52.19C505.062 52.3457 505.225 52.4711 505.41 52.5574C505.595 52.6437 505.796 52.689 506 52.69L550 52.89C550.215 52.9231 550.435 52.8851 550.627 52.7817C550.818 52.6784 550.971 52.5153 551.061 52.3174C551.152 52.1194 551.175 51.8973 551.128 51.6848C551.081 51.4723 550.966 51.281 550.8 51.14L522.21 18.14C522.081 17.9989 521.925 17.8848 521.752 17.8041C521.579 17.7235 521.391 17.6779 521.2 17.67Z" fill="#FFFEBD"/><path d="M520.561 35.0342C521.269 33.53 519.4 31.1611 516.386 29.7432C513.373 28.3252 510.356 28.3951 509.649 29.8993C508.941 31.4034 510.81 33.7723 513.823 35.1903C516.836 36.6082 519.853 36.5383 520.561 35.0342Z" fill="#FFBE6E"/><path d="M518.68 34.73L538.29 52.82L538.98 76.62" fill="none" stroke="#FFBE6E" stroke-width="1.37" stroke-miterlimit="10"/><path d="M541.21 81.32L540.36 78.22C540.529 78.0608 540.663 77.8685 540.754 77.6552C540.845 77.4418 540.891 77.212 540.89 76.98C540.893 76.6936 540.825 76.4109 540.692 76.1575C540.558 75.9041 540.363 75.688 540.125 75.529C539.887 75.3699 539.613 75.2728 539.328 75.2466C539.042 75.2204 538.755 75.2658 538.492 75.3787C538.229 75.4917 537.998 75.6686 537.82 75.8934C537.643 76.1182 537.524 76.3837 537.475 76.666C537.426 76.9482 537.449 77.2382 537.54 77.5096C537.632 77.7809 537.79 78.0252 538 78.22L537.15 81.32C537.121 81.4278 537.117 81.5409 537.138 81.6504C537.16 81.76 537.206 81.8632 537.274 81.9521C537.341 82.0409 537.429 82.1131 537.528 82.163C537.628 82.2129 537.738 82.2393 537.85 82.24H540.54C540.649 82.2348 540.756 82.2052 540.852 82.1534C540.948 82.1016 541.031 82.0289 541.095 81.9406C541.16 81.8523 541.203 81.7507 541.223 81.6433C541.243 81.5359 541.239 81.4254 541.21 81.32Z" fill="#FFFEBD"/><path d="M97.25 127.35L94.32 128.65C94.3096 128.656 94.301 128.665 94.2951 128.676C94.2891 128.686 94.286 128.698 94.286 128.71C94.286 128.722 94.2891 128.734 94.2951 128.744C94.301 128.755 94.3096 128.764 94.32 128.77L97.25 130.07L98.55 133C98.5562 133.01 98.565 133.019 98.5755 133.025C98.586 133.031 98.5979 133.034 98.61 133.034C98.622 133.034 98.6339 133.031 98.6444 133.025C98.6549 133.019 98.6637 133.01 98.67 133L99.97 130.07L102.9 128.77C102.91 128.764 102.919 128.755 102.925 128.744C102.931 128.734 102.934 128.722 102.934 128.71C102.934 128.698 102.931 128.686 102.925 128.676C102.919 128.665 102.91 128.656 102.9 128.65L99.97 127.35L98.67 124.42C98.6637 124.41 98.6549 124.401 98.6444 124.395C98.6339 124.389 98.622 124.386 98.61 124.386C98.5979 124.386 98.586 124.389 98.5755 124.395C98.565 124.401 98.5562 124.41 98.55 124.42L97.25 127.35Z" fill="#FFFEBD"/><path d="M115.46 87.14C115.44 87.166 115.43 87.1976 115.43 87.23C115.43 87.2625 115.44 87.294 115.46 87.32L119 93.4C119 93.48 119.08 93.48 119.1 93.4L122.64 87.32C122.663 87.2958 122.676 87.2636 122.676 87.23C122.676 87.1965 122.663 87.1642 122.64 87.14L119.1 81.06C119.1 80.98 119.02 80.98 119 81.06L115.46 87.14Z" fill="#FFCF5E"/><path d="M161.65 137C161.65 137 167.82 151.21 187.65 148.69" fill="none" stroke="#D0E3FF" stroke-width="1.65" stroke-miterlimit="10"/><path d="M133.7 122.36C132.319 118.524 132.072 114.371 132.988 110.398C133.905 106.425 135.946 102.8 138.868 99.9559C141.79 97.1121 145.469 95.1698 149.465 94.3613C153.462 93.5528 157.606 93.9121 161.404 95.3965C165.201 96.8808 168.491 99.4273 170.88 102.732C173.269 106.036 174.656 109.958 174.875 114.03C175.094 118.101 174.135 122.149 172.115 125.691C170.094 129.232 167.096 132.117 163.48 134L166.03 137.23L158.21 140L158.11 135.89C153.093 136.972 147.853 136.196 143.364 133.708C138.875 131.22 135.442 127.188 133.7 122.36Z" fill="#00B5AB"/><g style="mix-blend-mode:overlay" opacity="0.44"><path d="M146.46 95.19C150.967 93.5576 155.894 93.5006 160.437 95.0284C164.98 96.5562 168.872 99.5784 171.476 103.602C174.081 107.626 175.245 112.414 174.779 117.184C174.313 121.955 172.244 126.426 168.91 129.87C166.675 130.431 164.372 130.67 162.07 130.58C155.583 130.33 149.461 127.514 145.05 122.751C140.639 117.987 138.301 111.667 138.55 105.18C138.641 103.199 138.977 101.238 139.55 99.34C141.568 97.5291 143.913 96.1205 146.46 95.19Z" fill="#83F9D4"/></g><path d="M429.08 121.37C429.08 121.37 426.85 133.37 417.53 139.88" fill="none" stroke="#D0E3FF" stroke-width="2.09" stroke-miterlimit="10"/><path fill-rule="evenodd" clip-rule="evenodd" d="M452.27 105.11C453.004 101.579 452.706 97.911 451.41 94.5452C450.114 91.1793 447.877 88.258 444.964 86.1307C442.052 84.0035 438.588 82.7603 434.987 82.5501C431.387 82.3399 427.802 83.1714 424.662 84.9453C421.521 86.7191 418.959 89.3601 417.28 92.5523C415.601 95.7445 414.878 99.3528 415.196 102.945C415.515 106.538 416.862 109.963 419.075 112.81C421.289 115.657 424.277 117.806 427.68 119L425.86 122.15L433.05 123.62L432.62 120.01C437.143 120.32 441.625 118.981 445.237 116.242C448.849 113.503 451.348 109.549 452.27 105.11Z" fill="#FF93E7"/><path d="M452.05 94.23C452.05 94.23 445.65 93.64 440.57 120.33C436.39 142.25 413.92 139.33 413.92 139.33" fill="none" stroke="#D0E3FF" stroke-width="2.09" stroke-miterlimit="10"/><path fill-rule="evenodd" clip-rule="evenodd" d="M481.88 84.34C483.823 79.554 484.346 74.3096 483.388 69.234C482.429 64.1584 480.029 59.4663 476.474 55.7188C472.919 51.9713 468.36 49.327 463.342 48.1021C458.324 46.8772 453.059 47.1235 448.177 48.8116C443.295 50.4996 439.003 53.558 435.814 57.6211C432.624 61.6841 430.672 66.5798 430.192 71.7228C429.711 76.8657 430.722 82.0383 433.103 86.622C435.484 91.2057 439.136 95.0065 443.62 97.57L440.23 101.57L449.99 105.52L450.31 100.31C456.614 101.922 463.288 101.191 469.094 98.2541C474.9 95.3171 479.443 90.3731 481.88 84.34Z" fill="#8D7CE6"/><g style="mix-blend-mode:overlay" opacity="0.35"><path fill-rule="evenodd" clip-rule="evenodd" d="M483.77 72.27C483.454 67.9209 482.085 63.714 479.781 60.0118C477.477 56.3095 474.308 53.2231 470.545 51.0186C466.783 48.8141 462.541 47.5575 458.185 47.3573C453.829 47.1571 449.49 48.0193 445.541 49.8694C441.593 51.7195 438.154 54.5022 435.52 57.9774C432.886 61.4527 431.137 65.5164 430.423 69.8181C429.71 74.1199 430.053 78.5306 431.423 82.6702C432.794 86.8098 435.15 90.554 438.29 93.58C447.141 95.1228 456.253 93.9055 464.389 90.0934C472.525 86.2812 479.291 80.0587 483.77 72.27Z" fill="#B699FF"/></g><path d="M221.935 12.232L146.771 36.5525C145.368 37.0065 144.599 38.5119 145.053 39.9148L175.98 135.496C176.434 136.899 177.939 137.668 179.342 137.214L254.506 112.894C255.909 112.44 256.678 110.934 256.224 109.531L225.297 13.9504C224.843 12.5474 223.338 11.778 221.935 12.232Z" fill="#CCCCCC"/><path d="M247.95 107.28L181.44 129.06L152.78 40.5L219.37 18.95L247.95 107.28Z" fill="#FFFEE0"/><path opacity="0.5" d="M174.84 108.36L241.42 86.81" stroke="#9385FF" stroke-width="1.58" stroke-miterlimit="10"/><path fill-rule="evenodd" clip-rule="evenodd" d="M189.76 112.72L177.42 116.76L193.74 125.03L189.76 112.72Z" fill="#AAAAAA"/><path fill-rule="evenodd" clip-rule="evenodd" d="M177.42 116.76L193.74 125.03L180.43 131.47L177.42 116.76Z" fill="#CCCCCC"/><path d="M180.33 52.87L178.65 52.02L172.39 64.37L168.74 62.52L167.89 64.2L173.22 66.9L180.33 52.87Z" fill="#7BC0BB"/><path d="M185.41 68.35L183.72 67.5L177.46 79.85L173.81 78L172.96 79.69L178.29 82.39L185.41 68.35Z" fill="#7BC0BB"/><path d="M203.05 13L189.65 17.33L189.4 16.57C189.144 15.6014 188.693 14.6952 188.074 13.9067C187.456 13.1183 186.683 12.4643 185.804 11.9845C184.924 11.5048 183.956 11.2094 182.958 11.1165C181.961 11.0236 180.955 11.1351 180.002 11.4442C179.049 11.7533 178.168 12.2534 177.415 12.9141C176.662 13.5748 176.051 14.3821 175.621 15.2868C175.19 16.1915 174.948 17.1744 174.91 18.1757C174.872 19.1769 175.039 20.1753 175.4 21.11L175.65 21.87L162.25 26.21C161.614 26.4083 161.024 26.7317 160.515 27.1612C160.005 27.5907 159.587 28.1176 159.284 28.711C158.982 29.3045 158.8 29.9524 158.752 30.6168C158.703 31.2812 158.787 31.9487 159 32.58L162.13 42.3L212.53 26L209.4 16.28C209.205 15.6436 208.884 15.0526 208.457 14.5417C208.031 14.0308 207.506 13.6102 206.915 13.3047C206.323 12.9992 205.677 12.8149 205.013 12.7626C204.349 12.7102 203.682 12.791 203.05 13ZM183.05 20.78C182.444 20.9761 181.794 20.9883 181.181 20.815C180.569 20.6416 180.021 20.2906 179.608 19.8062C179.195 19.3219 178.935 18.7259 178.86 18.0936C178.786 17.4613 178.9 16.8212 179.189 16.254C179.479 15.6868 179.929 15.2181 180.485 14.907C181.04 14.596 181.676 14.4566 182.31 14.5065C182.945 14.5563 183.551 14.7932 184.051 15.1872C184.551 15.5812 184.923 16.1146 185.12 16.72C185.254 17.1276 185.306 17.5579 185.272 17.9858C185.238 18.4136 185.119 18.8303 184.921 19.2114C184.724 19.5924 184.452 19.9301 184.122 20.2047C183.792 20.4792 183.411 20.685 183 20.81L183.05 20.78Z" fill="#D0E3FF"/><path d="M162.12 42.3L212.53 25.99L210.59 20.18L160.13 36.1L162.12 42.3Z" fill="#C4DBFF"/><path d="M170.248 74.4897L168.104 73.551L168.907 71.719L171.05 72.6577C171.293 72.7641 171.484 72.9626 171.58 73.2096C171.677 73.4567 171.671 73.7319 171.565 73.9749C171.459 74.2178 171.26 74.4085 171.013 74.5051C170.766 74.6016 170.491 74.5961 170.248 74.4897Z" fill="#F5872C"/><path d="M101.275 44.2087L102.029 42.4866C102.116 42.2874 102.279 42.131 102.482 42.0518C102.684 41.9726 102.91 41.9772 103.109 42.0644L111.591 45.779L110.175 49.0126L101.702 45.3019C101.501 45.2136 101.342 45.0489 101.262 44.8438C101.182 44.6388 101.187 44.4103 101.275 44.2087Z" fill="#F5DB8C"/><path d="M164.25 66.79L169.6 71.79L168.65 74L161.33 73.48L107.17 49.76C107.006 49.6876 106.878 49.5535 106.812 49.3869C106.747 49.2203 106.749 49.0345 106.82 48.87L109.2 43.42C109.274 43.2555 109.41 43.1268 109.579 43.0613C109.747 42.9959 109.934 42.999 110.1 43.07L164.25 66.79Z" fill="#BC6D83"/><path d="M132.13 52.28C132.305 51.8686 132.31 51.4049 132.145 50.9895C131.981 50.574 131.659 50.2401 131.25 50.06L118.38 44.43C118.126 44.3181 117.845 44.2831 117.571 44.3293C117.297 44.3755 117.043 44.5009 116.84 44.69C116.69 44.8201 116.507 44.9058 116.311 44.9376C116.115 44.9694 115.913 44.946 115.73 44.87L114.56 44.46C114.506 44.4351 114.447 44.4213 114.387 44.4194C114.327 44.4175 114.268 44.4276 114.212 44.449C114.156 44.4704 114.105 44.5028 114.062 44.5442C114.018 44.5855 113.984 44.6351 113.96 44.69L110.96 51.5C110.935 51.5544 110.921 51.6132 110.919 51.673C110.918 51.7328 110.928 51.7924 110.949 51.8483C110.97 51.9042 111.003 51.9552 111.044 51.9984C111.086 52.0416 111.135 52.0762 111.19 52.1L113.55 53.1C113.605 53.1246 113.664 53.1379 113.725 53.1391C113.785 53.1403 113.845 53.1294 113.901 53.107C113.957 53.0846 114.008 53.0512 114.05 53.0088C114.093 52.9664 114.127 52.9158 114.15 52.86L116.87 46.59L131.26 52.59C131.338 52.6259 131.422 52.6456 131.508 52.6479C131.593 52.6501 131.679 52.6349 131.758 52.603C131.838 52.5712 131.91 52.5235 131.97 52.4628C132.031 52.4021 132.078 52.3297 132.11 52.25L132.13 52.28Z" fill="#F5DB8C"/><path d="M164.25 66.79L169.6 71.82L168.65 73.99L161.33 73.47L164.25 66.79Z" fill="#F5DB8C"/><path d="M506.17 113L504.24 108.68C504.232 108.663 504.219 108.649 504.203 108.639C504.187 108.629 504.169 108.624 504.15 108.624C504.131 108.624 504.113 108.629 504.097 108.639C504.081 108.649 504.068 108.663 504.06 108.68L502.14 113C502.129 113.021 502.111 113.039 502.09 113.05L497.77 115C497.753 115.008 497.739 115.021 497.729 115.037C497.719 115.053 497.714 115.071 497.714 115.09C497.714 115.109 497.719 115.127 497.729 115.143C497.739 115.159 497.753 115.172 497.77 115.18L502.09 117.11C502.102 117.114 502.112 117.121 502.121 117.129C502.129 117.138 502.136 117.148 502.14 117.16L504.06 121.48C504.068 121.497 504.081 121.511 504.097 121.521C504.113 121.531 504.131 121.536 504.15 121.536C504.169 121.536 504.187 121.531 504.203 121.521C504.219 121.511 504.232 121.497 504.24 121.48L506.17 117.16C506.172 117.147 506.178 117.136 506.187 117.127C506.196 117.118 506.207 117.112 506.22 117.11L510.54 115.18C510.557 115.172 510.571 115.159 510.581 115.143C510.591 115.127 510.596 115.109 510.596 115.09C510.596 115.071 510.591 115.053 510.581 115.037C510.571 115.021 510.557 115.008 510.54 115L506.22 113C506.204 113.005 506.186 113.005 506.17 113Z" fill="#FFFEBD"/><path d="M446.732 42.2642C447.251 41.7448 447.251 40.9027 446.732 40.3833C446.212 39.8639 445.37 39.8639 444.851 40.3833L442.461 42.7733C441.942 43.2927 441.942 44.1348 442.461 44.6542C442.98 45.1736 443.822 45.1736 444.342 44.6542L446.732 42.2642Z" fill="white"/><path d="M439.384 49.6213C439.904 49.1019 439.904 48.2598 439.384 47.7404C438.865 47.221 438.023 47.221 437.504 47.7404L435.113 50.1304C434.594 50.6498 434.594 51.4919 435.113 52.0113C435.633 52.5307 436.475 52.5307 436.994 52.0113L439.384 49.6213Z" fill="white"/><path d="M444.849 52.0047C445.368 52.5241 446.21 52.524 446.729 52.0047C447.249 51.4853 447.249 50.6432 446.729 50.1238L444.339 47.7337C443.82 47.2143 442.978 47.2143 442.459 47.7337C441.939 48.2531 441.939 49.0952 442.459 49.6146L444.849 52.0047Z" fill="white"/><path d="M437.496 44.6717C438.015 45.1911 438.857 45.1911 439.377 44.6717C439.896 44.1523 439.896 43.3102 439.377 42.7908L436.987 40.4008C436.467 39.8814 435.625 39.8814 435.106 40.4008C434.586 40.9202 434.587 41.7623 435.106 42.2817L437.496 44.6717Z" fill="white"/></svg>