<svg xmlns="http://www.w3.org/2000/svg" width="660" height="240" viewBox="0 0 660 240"><path fill="black" d="M 0 0 L 0 155.69922 C -2.3684758e-15 155.69922 28.9 153 32 207 C 32 207 46.429141 203 52.619141 219 C 52.619141 219 66.340156 194.59078 105.91016 199.80078 C 105.91016 199.80078 116.48016 172.64031 145.91016 182.32031 C 145.91016 182.32031 175.72914 162.15031 203.36914 192.57031 C 203.36914 192.57031 224.79016 177 252.66016 190 C 252.66016 190 261.37078 174.26055 273.55078 174.81055 C 273.55078 174.81055 294.48914 153.75023 302.61914 186.49023 C 307.61914 189.66023 312.74914 195 316.61914 204 C 316.61914 204 332.99937 187.20008 343.60938 204.33008 C 361.03938 186.00008 378.91961 198.70992 380.09961 198.41992 C 382.73961 193.02992 394.1 173.96031 419.5 182.32031 C 419.5 182.32031 455.84 171 477.5 200 C 477.5 200 495.71914 173.38 522.86914 198 C 522.86914 198 541.44 174 560 194 C 560 194 579.84914 180 590.11914 204 C 590.11914 204 608.68 185 619 208 C 619 208 628.31969 201.00094 633.92969 213.21094 C 633.92969 213.21094 643.21 197.63086 660 197.63086 L 660 0 L 0 0 z"/><path fill="black" opacity="0.5" d="M 633.93,213.21 C 628.32,201 619,208 619,208 608.68,185 590.12,204 590.12,204 579.85,180 560,194 560,194 c -18.56,-20 -37.13,4 -37.13,4 -27.15,-24.62 -45.37,2 -45.37,2 -21.66,-29 -58,-17.68 -58,-17.68 -25.4,-8.36 -36.76,10.71 -39.4,16.1 -1.18,0.29 -19.06,-12.42 -36.49,5.91 C 333,187.2 316.62,204 316.62,204 c -3.87,-9 -9,-14.34 -14,-17.51 -8.13,-32.74 -29.07,-11.68 -29.07,-11.68 -12.18,-0.55 -20.89,15.19 -20.89,15.19 -27.87,-13 -49.29,2.57 -49.29,2.57 -27.64,-30.42 -57.46,-10.25 -57.46,-10.25 -29.43,-9.68 -40,17.48 -40,17.48 C 66.34,194.59 52.62,219 52.62,219 46.43,203 32,207 32,207 28.9,153 0,155.7 0,155.7 V 240 h 660 v -42.37 c -16.79,0 -26.07,15.58 -26.07,15.58 z"/></svg>