<svg xmlns="http://www.w3.org/2000/svg" width="660" height="240" viewBox="0 0 660 240"><path fill="#fff" opacity="0.5" d="M 633.93,213.21 C 628.32,201 619,208 619,208 608.68,185 590.12,204 590.12,204 579.85,180 560,194 560,194 c -18.56,-20 -37.13,4 -37.13,4 -27.15,-24.62 -45.37,2 -45.37,2 -21.66,-29 -58,-17.68 -58,-17.68 -25.4,-8.36 -36.76,10.71 -39.4,16.1 -1.18,0.29 -19.06,-12.42 -36.49,5.91 C 333,187.2 316.62,204 316.62,204 c -3.87,-9 -9,-14.34 -14,-17.51 -8.13,-32.74 -29.07,-11.68 -29.07,-11.68 -12.18,-0.55 -20.89,15.19 -20.89,15.19 -27.87,-13 -49.29,2.57 -49.29,2.57 -27.64,-30.42 -57.46,-10.25 -57.46,-10.25 -29.43,-9.68 -40,17.48 -40,17.48 C 66.34,194.59 52.62,219 52.62,219 46.43,203 32,207 32,207 28.9,153 0,155.7 0,155.7 V 240 h 660 v -42.37 c -16.79,0 -26.07,15.58 -26.07,15.58 z"/><path d="M117.06 42.78L113.59 44.32C113.571 44.32 113.554 44.3274 113.541 44.3405C113.527 44.3536 113.52 44.3714 113.52 44.39C113.52 44.4085 113.527 44.4264 113.541 44.4395C113.554 44.4526 113.571 44.46 113.59 44.46L117.06 46L118.6 49.47C118.607 49.4825 118.617 49.4929 118.629 49.5002C118.642 49.5074 118.656 49.5112 118.67 49.5112C118.684 49.5112 118.698 49.5074 118.711 49.5002C118.723 49.4929 118.733 49.4825 118.74 49.47L120.29 46L123.76 44.45C123.773 44.4431 123.783 44.4329 123.79 44.4206C123.797 44.4083 123.801 44.3943 123.801 44.38C123.801 44.3657 123.797 44.3517 123.79 44.3394C123.783 44.327 123.773 44.3169 123.76 44.31L120.29 42.77L118.74 39.3C118.74 39.2814 118.733 39.2636 118.72 39.2505C118.706 39.2374 118.689 39.23 118.67 39.23C118.651 39.23 118.634 39.2374 118.621 39.2505C118.607 39.2636 118.6 39.2814 118.6 39.3L117.06 42.77V42.78Z" fill="#FFB5BB"/><path d="M510 117.43C510 117.43 510 117.51 510 117.52L512 120.94C512 120.94 512.05 120.94 512.06 120.94L514.06 117.52C514.06 117.52 514.06 117.45 514.06 117.43L512 114C512 114 512 114 511.94 114L510 117.43Z" fill="#FFB5BB"/><path d="M140.69 89.22L161.93 94.76L177.36 79.14L171.54 57.97L150.3 52.43L134.88 68.05L140.69 89.22Z" fill="#83F9D4"/><path d="M177.36 79.14L171.54 57.97L152.56 60.54L146.63 83.24L161.93 94.76L177.36 79.14Z" fill="#57E6CA"/><path d="M161.93 94.76L168.44 76.78L171.54 57.97L177.36 79.14L161.93 94.76Z" fill="#6DEFCF"/><path d="M152.56 60.54L168.44 76.78L146.63 83.24L152.56 60.54Z" fill="#42DDC5"/><path d="M177.36 79.14L168.44 76.78L161.93 94.76L177.36 79.14Z" fill="#83F9D4"/><path d="M152.56 60.54L134.88 68.05L146.63 83.24L152.56 60.54Z" fill="#00C0B5"/><path d="M140.69 89.22L146.63 83.24L134.88 68.05L140.69 89.22Z" fill="#03A79F"/><path d="M150.3 52.43L152.56 60.54L134.88 68.05L150.3 52.43Z" fill="#42DDC5"/><path d="M161.93 94.76L168.44 76.78L146.63 83.24L161.93 94.76Z" fill="#57E6CA"/><path d="M140.69 89.22L161.93 94.76L146.63 83.24L140.69 89.22Z" fill="#6DEFCF"/><path d="M441.25 165.66C412.45 144.66 415.07 93.58 415.79 84.42L454.53 68.14L487.53 94.23C486 103.17 475.94 153.35 441.25 165.66Z" fill="#FFDCB0"/><path d="M454.15 70.9999L484.86 95.2899C482.74 106.71 472.62 150.93 441.65 162.96C416.22 143.22 417.36 97.8799 418.12 86.1399L454.12 70.9999H454.15ZM454.89 65.3699L413.49 82.7299C413.49 82.7299 406.59 144.83 440.85 168.38C481.72 155.08 490.16 93.1999 490.16 93.1999L454.92 65.3199L454.89 65.3699Z" fill="#FFB54B"/><path d="M438.67 105.64L446.97 106.77L448.11 98.47L452.6 99.08L451.46 107.38L459.77 108.52L459.15 113.01L450.85 111.88L449.72 120.18L445.23 119.57L446.36 111.26L438.06 110.13L438.67 105.64Z" fill="#FFFEBD"/><g style="mix-blend-mode:multiply" opacity="0.2" ><path d="M454.92 65.3199L440.85 168.38C406.59 144.83 413.49 82.7299 413.49 82.7299L454.92 65.3199Z" fill="#F59A4F"/></g><path d="M239.34 102.26L255.18 59.73L226.26 24.75L181.51 32.3L165.68 74.83L194.59 109.81L239.34 102.26Z" fill="#FFA742"/><path d="M226.26 24.75L181.51 32.3L182.83 71.88L228.29 88.8L255.18 59.73L226.26 24.75Z" fill="#FFB54B"/><path d="M255.18 59.73L219.54 42.59L181.51 32.3L226.26 24.75L255.18 59.73Z" fill="#FFCF5E"/><path d="M182.83 71.88L219.54 42.59L228.29 88.8L182.83 71.88Z" fill="#FF9A38"/><path d="M226.26 24.75L219.54 42.59L255.18 59.73L226.26 24.75Z" fill="#FFFEBD"/><path d="M182.83 71.8799L194.59 109.81L228.29 88.7999L182.83 71.8799Z" fill="#FF8D2F"/><path d="M239.34 102.26L228.29 88.8L194.59 109.81L239.34 102.26Z" fill="#EC7F47"/><path d="M165.68 74.8299L182.83 71.8799L194.59 109.81L165.68 74.8299Z" fill="#FF9A38"/><path d="M255.18 59.73L219.54 42.59L228.29 88.8L255.18 59.73Z" fill="#FFB54B"/><path d="M239.34 102.26L255.18 59.73L228.29 88.8L239.34 102.26Z" fill="#F5DB8C"/><path fill-rule="evenodd" clip-rule="evenodd" d="M182.24 136.26L166.91 137.65L160.44 151.63L169.32 164.22L184.66 162.82L191.12 148.84L182.24 136.26Z" fill="#AFA1FF"/><g style="mix-blend-mode:overlay" opacity="0.35" ><path fill-rule="evenodd" clip-rule="evenodd" d="M191.12 148.84L175.57 150.26L166.91 137.65L182.24 136.26L191.12 148.84Z" fill="#B699FF"/></g><path d="M191.12 148.84L175.57 150.26L169.32 164.22L184.66 162.82" fill="#FF93CE"/><path d="M171.9 152.601C172.604 152.537 173.092 151.571 172.989 150.443C172.887 149.316 172.233 148.454 171.529 148.518C170.825 148.582 170.337 149.547 170.44 150.675C170.542 151.803 171.196 152.665 171.9 152.601Z" fill="#D0C7FF"/><path d="M164.614 154.085C165.321 154.022 165.812 153.052 165.71 151.92C165.608 150.788 164.952 149.922 164.245 149.985C163.538 150.049 163.048 151.018 163.15 152.15C163.252 153.283 163.907 154.149 164.614 154.085Z" fill="#D0C7FF"/><path fill-rule="evenodd" clip-rule="evenodd" d="M179.08 145.7C179.58 146.42 179.28 147.06 178.4 147.14C177.923 147.16 177.449 147.066 177.016 146.866C176.583 146.666 176.204 146.366 175.91 145.99C175.42 145.28 175.72 144.63 176.59 144.55C177.067 144.53 177.541 144.624 177.974 144.824C178.407 145.024 178.786 145.324 179.08 145.7Z" fill="#D0C7FF"/><path fill-rule="evenodd" clip-rule="evenodd" d="M185.75 145.1C186.25 145.81 185.95 146.46 185.07 146.54C184.594 146.56 184.119 146.466 183.686 146.266C183.253 146.066 182.874 145.766 182.58 145.39C182.459 145.266 182.379 145.108 182.351 144.937C182.322 144.766 182.347 144.591 182.42 144.434C182.494 144.277 182.615 144.147 182.765 144.061C182.915 143.974 183.087 143.935 183.26 143.95C183.737 143.93 184.211 144.024 184.644 144.224C185.077 144.424 185.456 144.724 185.75 145.1Z" fill="#D0C7FF"/><path fill-rule="evenodd" clip-rule="evenodd" d="M175.39 140.52C175.89 141.23 175.59 141.88 174.71 141.96C174.234 141.98 173.759 141.886 173.326 141.686C172.893 141.486 172.514 141.186 172.22 140.81C171.73 140.1 172.03 139.45 172.9 139.37C173.377 139.35 173.851 139.444 174.284 139.644C174.717 139.844 175.096 140.144 175.39 140.52Z" fill="#D0C7FF"/><path fill-rule="evenodd" clip-rule="evenodd" d="M182.06 139.91C182.56 140.63 182.26 141.27 181.38 141.35C180.903 141.37 180.429 141.276 179.996 141.076C179.563 140.876 179.184 140.576 178.89 140.2C178.769 140.076 178.689 139.918 178.661 139.747C178.632 139.576 178.656 139.401 178.73 139.244C178.804 139.087 178.924 138.957 179.074 138.871C179.225 138.784 179.397 138.745 179.57 138.76C180.047 138.74 180.521 138.834 180.954 139.034C181.387 139.234 181.766 139.534 182.06 139.91Z" fill="#D0C7FF"/><path fill-rule="evenodd" clip-rule="evenodd" d="M191.12 148.84L175.57 150.26L169.32 164.22L184.66 162.82L191.12 148.84Z" fill="#9E8CFA"/><path fill-rule="evenodd" clip-rule="evenodd" d="M181.87 156.72C182.33 155.72 181.81 155.01 180.71 155.11C180.121 155.198 179.561 155.425 179.078 155.773C178.594 156.121 178.201 156.579 177.93 157.11C177.49 158.11 178.01 158.81 179.09 158.71C179.677 158.621 180.235 158.394 180.719 158.048C181.202 157.702 181.596 157.247 181.87 156.72Z" fill="#D0C7FF"/><path d="M457.22 152.13L458.54 155.13C458.546 155.14 458.555 155.149 458.565 155.155C458.576 155.161 458.588 155.164 458.6 155.164C458.612 155.164 458.624 155.161 458.634 155.155C458.645 155.149 458.654 155.14 458.66 155.13L459.98 152.13L462.98 150.81C462.996 150.81 463.011 150.804 463.022 150.792C463.034 150.781 463.04 150.766 463.04 150.75C463.04 150.734 463.034 150.719 463.022 150.708C463.011 150.696 462.996 150.69 462.98 150.69L459.98 149.37L458.66 146.37C458.66 146.354 458.654 146.339 458.642 146.328C458.631 146.316 458.616 146.31 458.6 146.31C458.584 146.31 458.569 146.316 458.558 146.328C458.546 146.339 458.54 146.354 458.54 146.37L457.22 149.37L454.22 150.69C454.21 150.696 454.201 150.705 454.195 150.715C454.189 150.726 454.186 150.738 454.186 150.75C454.186 150.762 454.189 150.774 454.195 150.784C454.201 150.795 454.21 150.804 454.22 150.81L457.22 152.13Z" fill="white"/><path d="M159 128.05L158.42 129.56C158.42 129.56 158.42 129.61 158.42 129.56L160 129L161.51 129.58L160.93 128.07L161.51 126.56L160 127.14L158.49 126.56L159 128V128.05Z" fill="#FFCF5E"/><path d="M461.46 36.9704L455.441 38.5393L487.15 160.184L493.169 158.616L461.46 36.9704Z" fill="#BC6D83"/><path d="M457.42 42.75C462.38 42.75 466.4 38.7295 466.4 33.77C466.4 28.8105 462.38 24.79 457.42 24.79C452.461 24.79 448.44 28.8105 448.44 33.77C448.44 38.7295 452.461 42.75 457.42 42.75Z" fill="#D0C7FF"/><path fill-rule="evenodd" clip-rule="evenodd" d="M466.25 32.18C465.761 30.8206 464.895 29.6288 463.753 28.7441C462.611 27.8594 461.241 27.3185 459.802 27.1847C458.364 27.0509 456.917 27.3299 455.632 27.9888C454.346 28.6477 453.275 29.6594 452.544 30.9052C451.813 32.1511 451.452 33.5795 451.503 35.0231C451.555 36.4668 452.017 37.8658 452.835 39.0564C453.653 40.2469 454.794 41.1796 456.123 41.7453C457.452 42.3109 458.915 42.4859 460.34 42.25C462.361 41.548 464.067 40.1488 465.15 38.3034C466.233 36.458 466.623 34.287 466.25 32.18Z" fill="#C8BEFA"/><path d="M452.04 34.38C453.183 34.38 454.11 33.4532 454.11 32.31C454.11 31.1668 453.183 30.24 452.04 30.24C450.897 30.24 449.97 31.1668 449.97 32.31C449.97 33.4532 450.897 34.38 452.04 34.38Z" fill="#DDD6FF"/><path d="M490.16 164.27C492.833 164.27 495 162.103 495 159.43C495 156.757 492.833 154.59 490.16 154.59C487.487 154.59 485.32 156.757 485.32 159.43C485.32 162.103 487.487 164.27 490.16 164.27Z" fill="#BC6D83"/><path d="M490.16 161.5C491.303 161.5 492.23 160.573 492.23 159.43C492.23 158.287 491.303 157.36 490.16 157.36C489.017 157.36 488.09 158.287 488.09 159.43C488.09 160.573 489.017 161.5 490.16 161.5Z" fill="#DE6D8B"/><path d="M456.182 42.6361L462.811 40.9083C463.085 40.8367 463.377 40.8771 463.622 41.0207C463.867 41.1643 464.044 41.3992 464.116 41.6738L467.064 52.9858C467.099 53.1192 467.107 53.2582 467.089 53.3948C467.07 53.5314 467.024 53.6629 466.954 53.7818C466.884 53.9008 466.792 54.0048 466.682 54.088C466.572 54.1712 466.447 54.2319 466.313 54.2667L459.665 55.9996C459.396 56.0698 459.11 56.0301 458.869 55.8893C458.629 55.7484 458.455 55.5179 458.385 55.2484L455.433 43.9267C455.362 43.6521 455.402 43.3603 455.546 43.1155C455.689 42.8707 455.924 42.693 456.199 42.6214L456.182 42.6361Z" fill="#AFA1FF"/><path d="M456.182 42.6361L462.811 40.9083C463.085 40.8367 463.377 40.8771 463.622 41.0207C463.867 41.1643 464.044 41.3992 464.116 41.6738L467.064 52.9858C467.099 53.1192 467.107 53.2582 467.089 53.3948C467.07 53.5314 467.024 53.6629 466.954 53.7818C466.884 53.9008 466.792 54.0048 466.682 54.088C466.572 54.1712 466.447 54.2319 466.313 54.2667L459.665 55.9996C459.396 56.0698 459.11 56.0301 458.869 55.8893C458.629 55.7484 458.455 55.5179 458.385 55.2484L455.433 43.9267C455.362 43.6521 455.402 43.3603 455.546 43.1155C455.689 42.8707 455.924 42.693 456.199 42.6214L456.182 42.6361Z" fill="#AFA1FF"/><path d="M458.122 54.2567L466.831 51.9866L467.083 52.9542C467.153 53.2237 467.114 53.51 466.973 53.7503C466.832 53.9905 466.601 54.1649 466.332 54.2351L459.684 55.968C459.415 56.0382 459.128 55.9986 458.888 55.8577C458.648 55.7168 458.473 55.4863 458.403 55.2168L458.151 54.2491L458.122 54.2567Z" fill="#9785FF"/><path d="M465.937 48.659L457.247 50.9241L457.77 52.9272L466.459 50.6621L465.937 48.659Z" fill="#9785FF"/><path d="M469.778 21.2428L469.771 21.2357C469.415 20.8803 468.839 20.8803 468.484 21.2357L466.836 22.8833C466.481 23.2386 466.481 23.8148 466.836 24.1702L466.843 24.1772C467.198 24.5326 467.775 24.5326 468.13 24.1772L469.778 22.5297C470.133 22.1743 470.133 21.5981 469.778 21.2428Z" fill="#83F9D4"/><path d="M464.719 26.2857L464.712 26.2786C464.356 25.9232 463.78 25.9232 463.425 26.2786L461.777 27.9262C461.422 28.2815 461.422 28.8577 461.777 29.2131L461.784 29.2202C462.14 29.5755 462.716 29.5756 463.071 29.2202L464.719 27.5726C465.074 27.2172 465.074 26.6411 464.719 26.2857Z" fill="#83F9D4"/><path d="M469.766 29.2366L469.773 29.2296C470.129 28.8742 470.129 28.298 469.773 27.9427L468.126 26.2951C467.77 25.9397 467.194 25.9397 466.839 26.2951L466.832 26.3022C466.476 26.6575 466.476 27.2337 466.832 27.5891L468.479 29.2366C468.835 29.592 469.411 29.592 469.766 29.2366Z" fill="#83F9D4"/><path d="M464.715 24.1696L464.722 24.1625C465.078 23.8071 465.078 23.231 464.722 22.8756L463.075 21.228C462.719 20.8726 462.143 20.8726 461.788 21.228L461.781 21.2351C461.425 21.5905 461.425 22.1667 461.781 22.522L463.428 24.1696C463.784 24.525 464.36 24.525 464.715 24.1696Z" fill="#83F9D4"/></svg>