<svg xmlns="http://www.w3.org/2000/svg" width="660" height="240" viewBox="0 0 660 240"><path fill="black" d="M 0 0 L 0 155.69922 C 3.5527137e-15 155.69922 18.580234 151.00094 29.240234 187.71094 C 29.240234 187.71094 46.440547 179 50.560547 202 C 50.560547 202 52.63 190 65 196 C 65 196 55.79 142 97 134 C 138.21 126 146.92969 171.83008 146.92969 171.83008 C 146.92969 171.83008 151.23086 140.60008 182.88086 149.83008 C 182.88086 149.83008 185.60945 124.65008 212.43945 142.83008 C 212.43945 142.83008 226.86055 111.65008 249.56055 142.83008 C 249.56055 142.83008 256.84961 118 273.84961 135 C 273.84961 135 305.00016 79.999996 408.41016 113 C 418.69016 116.28 454.8093 143 462.0293 184 C 462.0293 184 487.80984 165 505.33984 190 C 505.33984 190 507.33984 171 539.33984 166 C 539.33984 166 580.59047 161 594.73047 192 C 594.73047 192 612.26031 189 614.32031 210 C 614.32031 210 617.99922 195.69961 634.19922 197.84961 C 634.19922 197.84961 635.55 160.39922 660 155.69922 L 660 0 L 0 0 z"/><path fill="black" opacity="0.5" d="M 634.2,197.85 C 618,195.7 614.32,210 614.32,210 c -2.06,-21 -19.59,-18 -19.59,-18 -14.14,-31 -55.39,-26 -55.39,-26 -32,5 -34,24 -34,24 -17.53,-25 -43.31,-6 -43.31,-6 -7.22,-41 -43.34,-67.72 -53.62,-71 C 305,79.999996 273.85,135 273.85,135 c -17,-17 -24.29,7.83 -24.29,7.83 -22.7,-31.18 -37.12,0 -37.12,0 -26.83,-18.18 -29.56,7 -29.56,7 -31.65,-9.23 -35.95,22 -35.95,22 0,0 -8.72,-45.83 -49.93,-37.83 -41.21,8 -32,62 -32,62 -12.37,-6 -14.44,6 -14.44,6 C 46.44,179 29.24,187.71 29.24,187.71 18.58,151 0,155.7 0,155.7 V 240 h 660 v -84.3 c -24.45,4.7 -25.8,42.15 -25.8,42.15 z"/></svg>