<svg xmlns="http://www.w3.org/2000/svg" width="660" height="240" viewBox="0 0 660 240"><path fill="#fff" opacity="0.5" d="m 646.05999,190.27 c -12.91,-0.73 -10.53,12 -10.53,12 C 601.22,180 587.81,216 587.81,216 c -14,-27.52 -32,-12 -32,-12 -16.5,-43 -44.34,-13 -44.34,-13 -27.84,-11 -34,14 -34,14 -25,-32.84 -56.36,-11.84 -56.36,-11.84 -16.78,-12.09 -28.9,-6 -34.39,-1.59 0,0 0.28,-22.57 -14.64,-13.07 -7.71,-7.33 -19.67,-13.58 -36.95,-9.79 -30.38,6.69 -28.25,31.29 -27.13,37.78 -12.89,-13.93 -29.8,-9.69 -33.1,-8.68 l -0.67,-0.12 c -6.35,-23.75 -31.37,-7.42 -31.37,-7.42 -31.46,-20.73 -52.3,2.89 -52.3,2.89 -27.62,-21.16 -41,5.84 -41,5.84 -23.36,-16.84 -39.38,-4.24 -39.38,-4.24 0,0 -13.21,-33.76 -48.3,-26 -35.09,7.76 -26.88,39.3 -26.88,39.3 -14.42,-7.06 -18.26,6 -18.26,6 C 9.8500003,197.13 0,197.63 0,197.63 V 240 h 659.99999 v -84.3 c -19.59,4.3 -13.94,34.57 -13.94,34.57 z"/><path d="M220.925 28.4264L144.898 51.7716L174.675 148.743L250.701 125.398L220.925 28.4264Z" fill="#f2f2f2"/><path d="M139 161.4C138.765 161.443 138.545 161.545 138.361 161.697C138.177 161.85 138.036 162.047 137.95 162.27L132.59 176.47C131.665 176.048 130.64 175.892 129.631 176.021C128.622 176.15 127.669 176.559 126.88 177.2C124.46 178.92 123.55 181.78 124.88 183.59C126.21 185.4 129.18 185.48 131.59 183.76C132.567 183.061 133.332 182.106 133.8 181L140.51 163.22C140.592 162.995 140.613 162.753 140.572 162.517C140.531 162.282 140.43 162.061 140.277 161.877C140.124 161.693 139.926 161.552 139.702 161.468C139.478 161.385 139.236 161.361 139 161.4Z" fill="#363C4C"/><path d="M535.57 180.86H521.29C520.887 180.857 520.49 180.959 520.139 181.158C519.788 181.356 519.495 181.643 519.29 181.99L512.56 193.45C511.789 192.926 510.888 192.628 509.956 192.589C509.025 192.55 508.102 192.772 507.29 193.23C504.85 194.4 503.59 196.84 504.47 198.68C505.35 200.52 508.05 201.04 510.47 199.86C511.471 199.396 512.323 198.662 512.93 197.74L518.57 188.13C518.625 188.045 518.7 187.974 518.789 187.925C518.879 187.876 518.978 187.851 519.08 187.85H528.79C528.892 187.85 528.991 187.878 529.079 187.929C529.167 187.98 529.24 188.053 529.291 188.141C529.341 188.229 529.368 188.329 529.368 188.431C529.368 188.532 529.341 188.632 529.29 188.72L526.51 193.45C525.74 192.928 524.84 192.631 523.911 192.592C522.982 192.553 522.06 192.774 521.25 193.23C518.8 194.4 517.54 196.84 518.42 198.68C519.3 200.52 522 201.04 524.42 199.86C525.421 199.396 526.273 198.662 526.88 197.74L536.21 182C536.275 181.888 536.309 181.76 536.309 181.63C536.309 181.5 536.275 181.373 536.21 181.26C536.145 181.148 536.052 181.055 535.94 180.99C535.827 180.925 535.7 180.89 535.57 180.89V180.86Z" fill="#363C4C"/><path d="M493.5 153.13C493.433 152.903 493.299 152.701 493.114 152.552C492.93 152.402 492.705 152.312 492.469 152.294C492.232 152.276 491.996 152.329 491.791 152.448C491.586 152.567 491.421 152.746 491.32 152.96L488.43 160.04C487.953 159.802 487.419 159.703 486.888 159.754C486.358 159.806 485.852 160.005 485.43 160.33C484.16 161.19 483.65 162.65 484.29 163.61C484.93 164.57 486.48 164.61 487.75 163.79C488.272 163.448 488.687 162.966 488.95 162.4L492.11 154.68C492.48 154.95 493.05 155.68 492.81 157.4C492.797 157.479 492.815 157.561 492.86 157.627C492.905 157.694 492.973 157.742 493.051 157.761C493.129 157.78 493.211 157.769 493.282 157.729C493.352 157.69 493.405 157.626 493.43 157.55C493.93 156.123 493.955 154.572 493.5 153.13Z" fill="#363C4C"/><path d="M430.76 55.3201H413.8V107.08H430.76V55.3201Z" fill="#55E0C5"/><path d="M447.73 55.3201H430.77V107.08H447.73V55.3201Z" fill="#55E0C5"/><path d="M464.69 55.3201H447.73V107.08H464.69V55.3201Z" fill="#55E0C5"/><path d="M481.66 55.3201H464.7V107.08H481.66V55.3201Z" fill="#55E0C5"/><path d="M430.76 105.93H413.8V110.53H430.76V105.93Z" fill="#39BDA8"/><path d="M447.73 105.93H430.77V110.53H447.73V105.93Z" fill="#39BDA8"/><path d="M464.69 105.93H447.73V110.53H464.69V105.93Z" fill="#39BDA8"/><path d="M481.66 105.93H464.7V110.53H481.66V105.93Z" fill="#39BDA8"/><path d="M430.77 110.53V55.3201" stroke="#00ADA3" stroke-width="1.15" stroke-miterlimit="10"/><path d="M447.73 110.53V55.3201" stroke="#00ADA3" stroke-width="1.15" stroke-miterlimit="10"/><path d="M464.98 110.53V55.3201" stroke="#00ADA3" stroke-width="1.15" stroke-miterlimit="10"/><path d="M427.89 55.3201H433.64V78.4901C433.64 78.7553 433.535 79.0096 433.347 79.1972C433.16 79.3847 432.905 79.4901 432.64 79.4901H428.86C428.595 79.4901 428.34 79.3847 428.153 79.1972C427.965 79.0096 427.86 78.7553 427.86 78.4901V55.3201H427.89Z" fill="#0A7473"/><path d="M444.86 55.3201H450.61V78.4901C450.61 78.7553 450.505 79.0096 450.317 79.1972C450.13 79.3847 449.875 79.4901 449.61 79.4901H445.83C445.565 79.4901 445.31 79.3847 445.123 79.1972C444.935 79.0096 444.83 78.7553 444.83 78.4901V55.3201H444.86Z" fill="#0A7473"/><path d="M462.11 55.3201H467.86V78.4901C467.86 78.7553 467.755 79.0096 467.567 79.1972C467.38 79.3847 467.125 79.4901 466.86 79.4901H463.08C462.815 79.4901 462.56 79.3847 462.373 79.1972C462.185 79.0096 462.08 78.7553 462.08 78.4901V55.3201H462.11Z" fill="#0A7473"/><path d="M496.9 37.45C496.758 36.9755 496.476 36.5552 496.09 36.2444C495.705 35.9336 495.234 35.747 494.74 35.7091C494.246 35.6712 493.753 35.7838 493.324 36.0321C492.896 36.2804 492.553 36.6528 492.34 37.1L486.34 51.88C484.74 50.88 482.27 51.08 480.17 52.49C477.52 54.28 476.45 57.33 477.78 59.32C479.11 61.31 482.35 61.48 485.01 59.7C486.096 58.9858 486.965 57.9858 487.52 56.81L494.12 40.69C494.88 41.24 496.07 42.69 495.58 46.36C495.561 46.5218 495.602 46.685 495.695 46.8189C495.788 46.9528 495.926 47.0483 496.084 47.0875C496.242 47.1267 496.409 47.107 496.554 47.032C496.699 46.957 496.811 46.8319 496.87 46.68C497.865 43.6854 497.876 40.451 496.9 37.45Z" fill="#363C4C"/><path d="M91.64 54.3701L189.48 120.1L202.93 124.57C203.132 124.628 203.348 124.621 203.546 124.55C203.744 124.479 203.915 124.346 204.033 124.172C204.152 123.998 204.213 123.791 204.207 123.581C204.201 123.37 204.128 123.167 204 123L195.18 111.57L97.38 45.8301L91.64 54.3701Z" fill="#F5E191"/><path d="M95.4722 48.6609L193.306 114.402L195.219 111.555L97.3853 45.814L95.4722 48.6609Z" fill="#EDBC56"/><path d="M91.6503 54.356L189.484 120.097L191.397 117.25L93.5634 51.5091L91.6503 54.356Z" fill="#E59A53"/><path d="M93.5655 51.5163L191.399 117.258L193.312 114.411L95.4786 48.6693L93.5655 51.5163Z" fill="#E9A951"/><path fill-rule="evenodd" clip-rule="evenodd" d="M204 123C204.141 123.169 204.222 123.379 204.231 123.599C204.24 123.819 204.176 124.035 204.05 124.215C203.924 124.395 203.742 124.528 203.532 124.594C203.322 124.66 203.097 124.655 202.89 124.58L200.49 123.78L202.41 120.94L204 123Z" fill="#A594FF"/><path d="M91.6381 54.3624L100.179 60.1016L105.918 51.5607L97.3773 45.8215L91.6381 54.3624Z" fill="#C6C2FF"/><path d="M95.3003 58.1385L95.3086 58.1441C95.9503 58.5753 96.8202 58.4047 97.2514 57.7629L102.712 49.6371C103.143 48.9953 102.972 48.1255 102.331 47.6942L102.322 47.6887C101.681 47.2574 100.811 47.4281 100.379 48.0698L94.9191 56.1956C94.4878 56.8374 94.6585 57.7073 95.3003 58.1385Z" fill="#A59EFF"/><path d="M92.4257 54.8882L90.7075 53.7337C90.342 53.4849 90.0893 53.1021 90.0042 52.6683C89.9191 52.2344 90.0084 51.7845 90.2528 51.4161L94.1013 45.689C94.3498 45.3192 94.735 45.0632 95.1723 44.9775C95.6095 44.8917 96.0629 44.9831 96.4327 45.2316L98.1425 46.3806L92.4257 54.8882Z" fill="#A594FF"/><path d="M501.76 127.35L497.76 129.13C497.745 129.138 497.733 129.149 497.724 129.163C497.716 129.177 497.711 129.194 497.711 129.21C497.711 129.227 497.716 129.243 497.724 129.257C497.733 129.271 497.745 129.283 497.76 129.29L501.76 131.07C501.776 131.066 501.794 131.066 501.81 131.07L503.58 135.07C503.586 135.088 503.598 135.103 503.613 135.114C503.628 135.125 503.646 135.131 503.665 135.131C503.684 135.131 503.702 135.125 503.717 135.114C503.732 135.103 503.744 135.088 503.75 135.07L505.52 131.07C505.536 131.066 505.554 131.066 505.57 131.07L509.57 129.29C509.585 129.283 509.597 129.271 509.606 129.257C509.614 129.243 509.619 129.227 509.619 129.21C509.619 129.194 509.614 129.177 509.606 129.163C509.597 129.149 509.585 129.138 509.57 129.13L505.57 127.35C505.554 127.354 505.536 127.354 505.52 127.35L503.75 123.35C503.744 123.332 503.732 123.317 503.717 123.306C503.702 123.295 503.684 123.29 503.665 123.29C503.646 123.29 503.628 123.295 503.613 123.306C503.598 123.317 503.586 123.332 503.58 123.35L501.81 127.35C501.794 127.354 501.776 127.354 501.76 127.35Z" fill="#FFCF5E"/><path d="M142.07 126L139.52 125C139.51 124.996 139.499 124.995 139.488 124.997C139.477 124.999 139.467 125.004 139.459 125.011C139.45 125.018 139.444 125.027 139.441 125.038C139.438 125.048 139.437 125.059 139.44 125.07L140.44 127.63L139.44 130.18C139.438 130.191 139.439 130.202 139.442 130.213C139.446 130.223 139.452 130.233 139.46 130.24C139.467 130.248 139.477 130.254 139.487 130.257C139.498 130.261 139.509 130.262 139.52 130.26L142.07 129.26L144.63 130.26C144.641 130.263 144.652 130.262 144.662 130.259C144.673 130.256 144.682 130.249 144.689 130.241C144.696 130.233 144.701 130.223 144.703 130.212C144.705 130.201 144.704 130.19 144.7 130.18L143.7 127.63L144.7 125.07C144.707 125.06 144.711 125.048 144.71 125.036C144.709 125.024 144.704 125.013 144.695 125.005C144.687 124.996 144.675 124.991 144.663 124.99C144.651 124.989 144.64 124.993 144.63 125L142.07 126Z" fill="#AEA8FF"/><path d="M116.87 38.2401C116.851 38.2645 116.841 38.2943 116.841 38.3251C116.841 38.3558 116.851 38.3856 116.87 38.4101L120.32 44.3401C120.32 44.4201 120.4 44.4201 120.42 44.3401L123.87 38.4101C123.881 38.3989 123.89 38.3857 123.896 38.3711C123.902 38.3565 123.905 38.3409 123.905 38.3251C123.905 38.3093 123.902 38.2936 123.896 38.279C123.89 38.2645 123.881 38.2512 123.87 38.2401L120.42 32.3001C120.42 32.2301 120.34 32.2301 120.32 32.3001L116.87 38.2401Z" fill="#ECB5CF"/><path d="M178.18 88.0001C177.444 87.057 176.948 85.9488 176.736 84.7713C176.524 83.5938 176.602 82.3824 176.963 81.2416C177.324 80.1009 177.957 79.0653 178.808 78.2241C179.659 77.3829 180.701 76.7614 181.846 76.4135C182.991 76.0656 184.203 76.0015 185.378 76.227C186.553 76.4524 187.656 76.9605 188.59 77.7074C189.525 78.4544 190.264 79.4176 190.743 80.5139C191.222 81.6103 191.427 82.8068 191.34 84.0001C191.303 84.5389 191.454 85.0738 191.768 85.5134C192.082 85.953 192.538 86.27 193.06 86.4101C193.61 86.5137 194.116 86.7823 194.51 87.1801C194.946 87.7411 195.142 88.4523 195.053 89.1574C194.965 89.8625 194.601 90.5037 194.04 90.9401C184.51 98.3101 178.18 88.0001 178.18 88.0001Z" fill="#F3DF8C"/><path d="M183.05 85.35C183.691 85.35 184.21 84.8307 184.21 84.19C184.21 83.5494 183.691 83.03 183.05 83.03C182.409 83.03 181.89 83.5494 181.89 84.19C181.89 84.8307 182.409 85.35 183.05 85.35Z" fill="#00C0B5"/><path d="M181 91.0801C181.41 89.9101 183.35 88.6001 186.22 89.9901C183.83 86.3201 186.62 80.5801 191.35 82.5501C191.4 83.0254 191.4 83.5047 191.35 83.9801C191.313 84.5189 191.464 85.0538 191.778 85.4934C192.092 85.933 192.548 86.2499 193.07 86.3901C193.62 86.4937 194.126 86.7623 194.52 87.1601C194.956 87.7211 195.152 88.4323 195.063 89.1374C194.975 89.8425 194.611 90.4837 194.05 90.9201C188.28 95.3901 183.69 93.3701 181 91.0801Z" fill="#00C0B5"/><g style="mix-blend-mode:soft-light" ><path d="M193.06 86.39C192.542 86.2506 192.088 85.9366 191.775 85.5012C191.461 85.0657 191.308 84.5355 191.34 84C191.425 82.9704 191.29 81.9345 190.946 80.9606C190.601 79.9868 190.054 79.097 189.34 78.35C188.524 77.513 187.521 76.881 186.414 76.5056C185.307 76.1302 184.127 76.0221 182.97 76.19C181.47 77.5953 180.458 79.4429 180.081 81.4636C179.704 83.4843 179.982 85.5725 180.875 87.424C181.768 89.2755 183.229 90.7936 185.045 91.757C186.86 92.7204 188.936 93.0788 190.97 92.78C192.055 92.2913 193.073 91.6663 194 90.92C194.561 90.4837 194.925 89.8424 195.013 89.1373C195.102 88.4323 194.906 87.721 194.47 87.16C194.087 86.7692 193.596 86.5012 193.06 86.39Z" fill="#F3DF8C"/></g><path d="M178.47 79.6801C181.259 79.6801 183.52 77.4191 183.52 74.6301C183.52 71.841 181.259 69.5801 178.47 69.5801C175.681 69.5801 173.42 71.841 173.42 74.6301C173.42 77.4191 175.681 79.6801 178.47 79.6801Z" fill="#965769"/><path d="M137.7 11.7C138.511 11.1686 139.497 10.9757 140.449 11.1626C141.4 11.3495 142.24 11.9014 142.79 12.7L181.68 69.76C182.079 70.3471 182.357 71.0081 182.497 71.704C182.637 72.3999 182.637 73.1169 182.496 73.8127C182.356 74.5085 182.077 75.1693 181.678 75.7561C181.278 76.3429 180.766 76.8441 180.17 77.23C179.574 77.6165 178.908 77.8798 178.209 78.0045C177.51 78.1292 176.793 78.1128 176.101 77.9563C175.408 77.7997 174.754 77.5061 174.177 77.0929C173.6 76.6796 173.111 76.1551 172.74 75.55L136.55 16.75C136.045 15.9245 135.883 14.9346 136.098 13.9912C136.313 13.0478 136.888 12.2256 137.7 11.7Z" fill="#BC6D83"/><path opacity="0.35" d="M180 77.3601L137.52 11.8301C136.764 12.3777 136.241 13.1898 136.056 14.1049C135.871 15.0201 136.036 15.9714 136.52 16.7701L172.71 75.5701C173.443 76.7696 174.621 77.6308 175.986 77.9661C177.352 78.3013 178.794 78.0835 180 77.3601Z" fill="#E9978F"/><path d="M462.089 36.4708L462.082 36.4637C461.711 36.0927 461.11 36.0927 460.739 36.4637L459.021 38.182C458.65 38.553 458.65 39.1545 459.021 39.5255L459.028 39.5326C459.399 39.9036 460 39.9036 460.371 39.5326L462.089 37.8143C462.46 37.4433 462.46 36.8418 462.089 36.4708Z" fill="white"/><path d="M456.817 41.7407L456.809 41.7336C456.438 41.3627 455.837 41.3626 455.466 41.7336L453.748 43.4519C453.377 43.8229 453.377 44.4244 453.748 44.7954L453.755 44.8025C454.126 45.1735 454.727 45.1735 455.098 44.8025L456.817 43.0842C457.188 42.7132 457.188 42.1117 456.817 41.7407Z" fill="white"/><path d="M462.073 44.7931L462.08 44.786C462.451 44.415 462.451 43.8135 462.08 43.4425L460.362 41.7242C459.991 41.3532 459.389 41.3532 459.018 41.7242L459.011 41.7313C458.64 42.1023 458.64 42.7038 459.011 43.0748L460.729 44.7931C461.1 45.1641 461.702 45.1641 462.073 44.7931Z" fill="white"/><path d="M456.806 39.5231L456.813 39.516C457.184 39.145 457.184 38.5435 456.813 38.1725L455.094 36.4542C454.723 36.0832 454.122 36.0832 453.751 36.4542L453.744 36.4613C453.373 36.8323 453.373 37.4338 453.744 37.8048L455.462 39.5231C455.833 39.8941 456.435 39.8941 456.806 39.5231Z" fill="white"/></svg>