<svg width="80" height="80" viewBox="0 0 80 80" fill="none" xmlns="http://www.w3.org/2000/svg"><g clip-path="url(#clip0)"><path d="M19.9099 46C19.6864 45.8638 19.4358 45.7782 19.1757 45.7494C18.9156 45.7205 18.6523 45.749 18.4045 45.8329C18.1566 45.9168 17.9301 46.0541 17.741 46.235C17.5519 46.4159 17.4047 46.6361 17.3099 46.88L15.4099 50.54L22.9299 51.67C21.9152 50.6455 21.2712 49.3117 21.0999 47.88C21.0383 47.5027 20.9012 47.1416 20.6967 46.8186C20.4922 46.4956 20.2246 46.2171 19.9099 46Z" fill="#C34989"/><path d="M47.08 66.23H47.31C49.008 65.8862 50.5032 64.8895 51.4738 63.4543C52.4443 62.0191 52.8126 60.2603 52.4993 58.5563C52.186 56.8523 51.2163 55.3394 49.7988 54.3433C48.3812 53.3472 46.6293 52.9474 44.92 53.23H44.7C33.84 55.23 27.56 54.17 18.95 48.99C17.4485 48.111 15.661 47.8595 13.9753 48.2899C12.2895 48.7203 10.8414 49.798 9.94513 51.2892C9.04883 52.7804 8.7766 54.5648 9.18748 56.2555C9.59836 57.9461 10.6592 59.4065 12.14 60.32C23.55 67.18 33 68.79 47.08 66.23Z" fill="#C34989"/><path d="M47.08 66.23H47.31C49.008 65.8862 50.5032 64.8895 51.4738 63.4543C52.4443 62.0191 52.8126 60.2603 52.4993 58.5563C52.186 56.8523 51.2163 55.3394 49.7988 54.3433C48.3812 53.3472 46.6293 52.9474 44.92 53.23H44.7C33.84 55.23 27.56 54.17 18.95 48.99C17.4485 48.111 15.661 47.8595 13.9753 48.2899C12.2895 48.7203 10.8414 49.798 9.94513 51.2892C9.04883 52.7804 8.7766 54.5648 9.18748 56.2555C9.59836 57.9461 10.6592 59.4065 12.14 60.32C23.55 67.18 33 68.79 47.08 66.23Z" fill="#C34989"/><path d="M38.7301 67.28C35.231 67.5201 31.7158 67.3388 28.2601 66.74C29.3801 62.48 29.2601 56.31 27.8201 53.07C30.8008 53.9271 33.9021 54.2886 37.0001 54.14L38.7301 67.28Z" fill="white"/><path d="M32.6599 60.17C32.4599 57.24 31.7399 54.77 30.8899 53.77C34.8899 54.45 39.2299 54.22 44.6999 53.23H44.9199C46.6292 52.9474 48.3812 53.3471 49.7987 54.3433C51.2162 55.3394 52.186 56.8523 52.4993 58.5563C52.8125 60.2602 52.4443 62.0191 51.4737 63.4543C50.5032 64.8894 49.008 65.8862 47.3099 66.23H47.0799C41.92 67.2783 36.6381 67.5948 31.3899 67.17C32.3399 66.49 32.8899 63.59 32.6599 60.17Z" fill="#F8D99F"/><path d="M20.22 36.07C20.3032 36.693 20.2338 37.3269 20.0177 37.9171C19.8017 38.5074 19.4455 39.0363 18.9797 39.4584C18.514 39.8805 17.9527 40.1831 17.3441 40.3402C16.7356 40.4974 16.0979 40.5043 15.4861 40.3604C14.8742 40.2166 14.3065 39.9262 13.8317 39.5144C13.3569 39.1025 12.9893 38.5815 12.7604 37.9961C12.5316 37.4107 12.4484 36.7784 12.518 36.1538C12.5876 35.5291 12.8079 34.9307 13.16 34.41C13.3172 34.1714 13.3871 33.8858 13.3579 33.6015C13.3288 33.3172 13.2024 33.0518 13 32.85C12.7757 32.6594 12.6151 32.4046 12.54 32.12C12.5147 31.9361 12.5259 31.749 12.5731 31.5695C12.6202 31.3899 12.7024 31.2214 12.8148 31.0737C12.9272 30.926 13.0677 30.8019 13.2282 30.7086C13.3887 30.6153 13.566 30.5546 13.75 30.53C20.07 29.68 20.22 36.07 20.22 36.07Z" fill="#F3DF8C"/><path d="M19.78 33.91C19.28 34.34 18.05 34.43 17.11 33.03C16.94 35.03 15.68 34.87 14.42 34.71C14.27 35.97 13.01 35.82 12.8 35.07C12.9002 34.8397 13.0207 34.6188 13.16 34.41C13.3172 34.1713 13.3871 33.8857 13.358 33.6015C13.3288 33.3172 13.2024 33.0518 13 32.85C12.7757 32.6594 12.6152 32.4046 12.54 32.12C12.5147 31.9361 12.5259 31.749 12.5731 31.5694C12.6202 31.3899 12.7024 31.2214 12.8148 31.0737C12.9272 30.9259 13.0677 30.8019 13.2282 30.7086C13.3887 30.6153 13.566 30.5546 13.75 30.53C17.58 30 19.14 32.15 19.78 33.91Z" fill="#8D85FF"/><path d="M16.58 42.43C17.8393 42.43 18.86 41.4092 18.86 40.15C18.86 38.8908 17.8393 37.87 16.58 37.87C15.3208 37.87 14.3 38.8908 14.3 40.15C14.3 41.4092 15.3208 42.43 16.58 42.43Z" fill="#5A2851"/><path d="M13.23 58.49L13.94 41.07C13.9851 40.3632 14.3091 39.7033 14.8407 39.2353C15.104 39.0037 15.4103 38.8261 15.7422 38.7128C16.0741 38.5995 16.425 38.5527 16.775 38.575C17.125 38.5973 17.4671 38.6884 17.7819 38.8429C18.0967 38.9975 18.3779 39.2125 18.6096 39.4758C18.8413 39.739 19.0189 40.0453 19.1322 40.3772C19.2455 40.7091 19.2923 41.06 19.27 41.41L18.27 52.89L13.23 58.49Z" fill="#713855"/><path d="M13.97 60.17C17.8305 60.17 20.96 57.0405 20.96 53.18C20.96 49.3195 17.8305 46.19 13.97 46.19C10.1095 46.19 6.97998 49.3195 6.97998 53.18C6.97998 57.0405 10.1095 60.17 13.97 60.17Z" fill="#DD6FAA"/><path d="M40.5899 53.39C37.3999 61.16 38.9999 72.27 40.8299 80C49.305 79.824 57.505 76.9601 64.2468 71.8214C70.9887 66.6828 75.9237 59.5353 78.3399 51.41C77.9799 50.41 77.5999 49.41 77.1899 48.34L40.5899 53.39Z" fill="#F8D99F"/><path d="M65 50.85C64.6373 51.6384 64.4337 52.4907 64.4007 53.3579C64.3678 54.2252 64.5063 55.0904 64.8081 55.9041C65.11 56.7177 65.5694 57.4639 66.16 58.0998C66.7506 58.7357 67.4608 59.2489 68.25 59.61C69.9381 60.4415 71.5805 61.3628 73.17 62.37C75.6684 58.6624 77.5275 54.5623 78.67 50.24C75.87 48.58 73.94 47.68 73.77 47.6C72.1758 46.8698 70.3571 46.8019 68.7129 47.4112C67.0687 48.0205 65.7334 49.2572 65 50.85Z" fill="#F8D99F"/><path d="M55.52 3.12C54.79 5.34 54.06 8.01 53.36 11.18C52.9 13.26 52.57 15.05 52.36 16.6C51.78 15.13 51.05 13.46 50.12 11.51C48.3117 7.47349 46.0398 3.66118 43.35 0.15C42.24 0.06 41.13 0 40 0C38.87 0 37.47 0.07 36.23 0.18C36.15 3.18 37.56 8.18 41.23 15.78C46.88 27.67 49.52 28.06 52 26.88C52.5339 26.6577 53.0095 26.3155 53.39 25.88C53.8764 26.2556 54.4456 26.5093 55.05 26.62C57.71 27.2 60.19 26.22 63.05 13.34C63.48 11.41 63.81 9.66 64.05 8.05C61.4181 6.06533 58.5536 4.40972 55.52 3.12Z" fill="#DD6FAA"/><path d="M56.5 12.88C54.93 20.01 55.81 21.05 57.11 21.34C58.41 21.63 59.66 21.05 61.23 13.92C61.8018 11.566 62.1368 9.16068 62.23 6.74C61.23 6.08 60.23 5.46 59.16 4.88C57.8827 7.40051 56.9863 10.0965 56.5 12.88Z" fill="#EF90BC"/><path d="M43.0601 16C46.2101 22.59 47.2501 23 48.0601 22.61C48.8701 22.22 49.2101 21.14 46.0601 14.61C42.9101 8.07999 41.0001 5.65999 40.1701 6.05999C39.3401 6.45999 39.9101 9.38999 43.0601 16Z" fill="#EF90BC"/><path d="M66 62.45L41.66 65.13C41.47 66.35 39.4 73.13 37.54 79.92C38.35 79.92 39.17 80 40 80C45.801 80.0065 51.5336 78.7473 56.7979 76.3103C62.0622 73.8733 66.7315 70.3172 70.48 65.89C69.77 65.1 69.08 64.3 68.48 63.52C68.1892 63.1484 67.8098 62.8557 67.3765 62.6688C66.9432 62.4818 66.4699 62.4066 66 62.45Z" fill="#713855"/><path d="M65.0001 50.85C59.4101 53.35 57.1401 53.33 53.3301 60.95C49.0601 56.81 49.7101 55.95 48.3301 52.06L65.0001 50.85Z" fill="#C34989"/><path d="M41.22 54.3L44.49 54C42.96 57.81 43.12 62.38 45.32 71.59C45.355 71.7359 45.3586 71.8875 45.3306 72.0348C45.3026 72.1822 45.2436 72.3219 45.1576 72.4448C45.0716 72.5677 44.9605 72.6709 44.8316 72.7476C44.7027 72.8244 44.5591 72.8729 44.41 72.89H44.07C43.8227 72.9142 43.5747 72.8516 43.3685 72.713C43.1623 72.5743 43.0109 72.3682 42.94 72.13C40.07 62.18 40.09 58.84 41.22 54.3Z" fill="#5A2851"/><path d="M72.7501 51.19L70.6501 50C64.1201 52.25 63.7501 60.38 64.0601 69.5C64.0651 69.6621 64.1028 69.8214 64.171 69.9685C64.2393 70.1156 64.3366 70.2473 64.4572 70.3557C64.5778 70.4641 64.719 70.547 64.8725 70.5993C65.026 70.6516 65.1884 70.6722 65.3501 70.66H65.6601C66.3201 70.11 66.9501 69.53 67.5701 68.94C67.3001 58 67.8101 53.21 72.7501 51.19Z" fill="#5A2851"/><path d="M71.4601 15.31L33.5101 19.7C31.4017 19.9433 29.4235 20.8446 27.8564 22.2759C26.2893 23.7073 25.213 25.5959 24.7801 27.6737C24.3473 29.7515 24.58 31.9128 25.4452 33.8508C26.3105 35.7889 27.7642 37.4051 29.6001 38.47C28.0526 39.9251 27.0032 41.8311 26.6012 43.917C26.1993 46.0028 26.4652 48.1623 27.3612 50.0883C28.2572 52.0143 29.7376 53.6088 31.592 54.645C33.4464 55.6812 35.5802 56.1063 37.6901 55.86L76.8701 51.33C77.4056 51.2675 77.9344 51.1571 78.4501 51C80.1933 44.9202 80.4678 38.5133 79.2508 32.3067C78.0338 26.1001 75.3602 20.2713 71.4501 15.3L71.4601 15.31Z" fill="#DD6FAA"/><path d="M47.5751 35.1639C48.4006 34.6939 48.4475 33.2196 47.6797 31.8709C46.912 30.5222 45.6204 29.8098 44.7948 30.2797C43.9693 30.7497 43.9224 32.224 44.6902 33.5727C45.4579 34.9214 46.7495 35.6338 47.5751 35.1639Z" fill="#1B1925"/><path d="M50.53 38.57C53.0866 37.8389 55.7095 37.3632 58.36 37.15C57.94 39.59 57.06 41.39 55.44 41.91C53.82 42.43 51.56 42 50.53 38.57Z" fill="#731E36"/><path d="M55.4399 41.91C54.8923 42.1073 54.3028 42.1584 53.7294 42.0585C53.156 41.9585 52.6185 41.7109 52.1699 41.34C52.3489 40.7832 52.65 40.2734 53.0511 39.8477C53.4522 39.4221 53.9433 39.0913 54.4884 38.8795C55.0336 38.6678 55.6192 38.5804 56.2025 38.6237C56.7858 38.6671 57.352 38.84 57.8599 39.13C57.703 39.7508 57.4021 40.3259 56.9817 40.8089C56.5613 41.2918 56.0331 41.669 55.4399 41.91Z" fill="#9D2B4C"/><path d="M63.3499 29C62.8406 28.9389 62.3241 28.9838 61.833 29.1319C61.3418 29.2799 60.8866 29.528 60.4959 29.8604C60.1053 30.1929 59.7876 30.6026 59.5628 31.0637C59.3381 31.5248 59.2111 32.0275 59.1899 32.54" stroke="#1B1925" stroke-width="1.27" stroke-miterlimit="10" stroke-linecap="round"/><path d="M38.7299 62.35C38.7299 62.1405 38.6467 61.9395 38.4985 61.7914C38.3504 61.6432 38.1494 61.56 37.9399 61.56C37.7304 61.56 37.5294 61.6432 37.3813 61.7914C37.2331 61.9395 37.1499 62.1405 37.1499 62.35C37.1499 62.35 37.2299 64.52 37.3199 67.29L38.8899 67.22L38.7299 62.35Z" fill="#F8C35E"/></g><defs><clipPath id="clip0"><rect width="80" height="80" fill="white"/></clipPath></defs></svg>