<svg xmlns="http://www.w3.org/2000/svg" width="80" height="80" viewBox="0 0 80 80"><defs id="defs2359"><linearGradient id="paint0_linear" x1="52.41" y1="56.25" x2="75.93" y2="56.25" gradientUnits="userSpaceOnUse" gradientTransform="translate(-136.14802,-6.2321276)"><stop stop-color="#7196FF" id="stop2346"/><stop offset="1" stop-color="#567EF7" id="stop2348"/></linearGradient><linearGradient id="paint1_linear" x1="3409.53" y1="604.803" x2="4044.51" y2="403.984" gradientUnits="userSpaceOnUse" gradientTransform="translate(-136.14802,-6.2321276)"><stop stop-color="#7196FF" id="stop2351"/><stop offset="1" stop-color="#567EF7" id="stop2353"/></linearGradient><clipPath id="clip0"><rect width="80" height="80" fill="white" id="rect2356"/></clipPath><linearGradient gradientTransform="matrix(1.1115744,0,0,1.1115744,-1013.5568,-209.12481)" id="paint13_linear-0-4" x1="950.14502" y1="205.58501" x2="947.38" y2="195.575" gradientUnits="userSpaceOnUse"><stop stop-color="#9E2FAD" id="stop2173-2-2"/><stop offset="1" stop-color="#922DA8" id="stop2175-4-3"/></linearGradient><linearGradient gradientTransform="matrix(1.1115744,0,0,1.1115744,-1013.5568,-209.12481)" id="paint14_linear-3-1" x1="959.38202" y1="231.10201" x2="945.16302" y2="213.59801" gradientUnits="userSpaceOnUse"><stop stop-color="#9E2FAD" id="stop2178-5-0"/><stop offset="1" stop-color="#AE3DC6" id="stop2180-8-8"/></linearGradient><linearGradient gradientTransform="matrix(1.1115744,0,0,1.1115744,-1013.5568,-209.12481)" id="paint15_linear-0-1" x1="11176.2" y1="7958.3999" x2="10963.7" y2="7777.8999" gradientUnits="userSpaceOnUse"><stop stop-color="#9E2FAD" id="stop2183-3-7"/><stop offset="1" stop-color="#AE3DC6" id="stop2185-3-5"/></linearGradient><linearGradient gradientTransform="matrix(1.1115744,0,0,1.1115744,-1013.5568,-209.12481)" id="paint16_linear-6-6" x1="25229.301" y1="8014.5601" x2="25067.699" y2="7965.48" gradientUnits="userSpaceOnUse"><stop stop-color="#9E2FAD" id="stop2188-3-6"/><stop offset="1" stop-color="#AE3DC6" id="stop2190-1-2"/></linearGradient></defs><path style="fill:#ffffff;stroke-width:1.11157441" id="path1964" d="M 51.075824,46.157149 H 29.393482 l -2.81562,27.714885 13.610118,1.966372 c 1.824097,0.35793 3.678201,0.545782 5.537863,0.561344 0.88593,-0.03112 1.750732,-0.277889 2.519939,-0.718072 0.769215,-0.440182 1.418393,-1.061557 1.891867,-1.809644 3.284774,-5.336671 3.472574,-10.299853 3.472574,-14.980692 -0.13785,-4.355151 -0.994875,-8.656939 -2.534399,-12.734193 z"/><path style="fill:#2f4e75;stroke-width:1.11157441" id="path1966" d="m 30.143796,64.041267 -2.627759,0.935948 -0.938175,8.894819 13.610118,1.966372 c 1.824097,0.35793 3.678201,0.545782 5.537863,0.561344 0.88593,-0.03112 1.751842,-0.277889 2.519939,-0.718072 0.769215,-0.440182 1.418393,-1.061557 1.891867,-1.809644 1.664025,-2.707799 2.720024,-5.741287 3.098024,-8.894819 C 48.635947,63.478813 39.7189,62.542866 30.143796,64.041267 Z"/><path style="fill:#ffffff;stroke-width:1.11157441" id="path1968" d="m 28.736542,48.404748 c -5.350013,3.183555 -6.852855,5.804646 -6.852855,5.804646 l 4.882035,4.119494 6.100319,-4.119494 z"/><path style="fill:url(#paint13_linear-0-4);stroke-width:1.11157441" id="path1970" d="M 41.314007,2.245513 C 33.993178,1.964285 33.0539,11.327072 35.119204,21.907041 l 9.386135,-0.561346 C 49.198425,10.016529 48.635947,2.432255 41.314007,2.245513 Z"/><path style="fill:#8c1c9c;stroke-width:1.11157441" id="path1972" d="m 41.68972,20.315264 h -0.09337 c -0.07005,0.01 -0.142283,0 -0.206753,-0.02888 -0.0645,-0.02888 -0.118935,-0.07558 -0.158955,-0.133388 -0.03892,-0.05895 -0.06112,-0.127837 -0.06225,-0.197865 -0.0022,-0.0711 0.0156,-0.140054 0.05228,-0.201194 0.339029,-2.872305 0.872587,-5.719049 1.596224,-8.520215 0.04222,-0.107827 0.123383,-0.196747 0.226763,-0.248993 0.104482,-0.05228 0.224535,-0.06338 0.336802,-0.03225 0.0645,0.02002 0.1245,0.05445 0.174517,0.09892 0.05115,0.0456 0.09115,0.101153 0.117826,0.164513 0.0267,0.06225 0.04005,0.128947 0.0378,0.196754 -0.0022,0.0678 -0.0189,0.134498 -0.0489,0.195638 -0.65694,2.746694 -1.158255,5.528968 -1.50285,8.332362 -0.04222,0.0956 -0.10671,0.178958 -0.188963,0.244545 -0.08115,0.0645 -0.177854,0.110047 -0.280117,0.13005 z"/><path style="fill:#8c1c9c;stroke-width:1.11157441" id="path1974" d="M 47.50881,8.986097 C 47.322068,7.488806 46.758496,6.551748 45.913703,6.365006 45.068903,6.177153 42.1588,7.488806 41.220633,9.173957 L 40.84492,9.360699 c -0.09337,0.09338 -0.281227,0 -0.375713,-0.09337 C 40.24801,8.941641 39.928983,8.694869 39.558828,8.560372 39.187563,8.425867 38.784064,8.411422 38.403904,8.518152 36.996649,9.26735 36.057371,12.73213 37.560221,20.22192 c 0.09337,0.187853 -0.09448,0.46797 -0.375712,0.561346 h -0.09448 c -0.102263,-0.02002 -0.197857,-0.0645 -0.280117,-0.130058 -0.08115,-0.06555 -0.145613,-0.14895 -0.18897,-0.243435 -1.408365,-6.929555 -0.938168,-11.517019 1.313887,-12.734193 0.462412,-0.213427 0.97818,-0.282345 1.480612,-0.198975 0.502432,0.08337 0.968181,0.31569 1.336117,0.666945 1.219394,-1.778519 3.565926,-3.276921 5.443377,-2.715577 l 0.65694,0.374603 c 0.391276,1.019309 0.61359,2.094202 0.65694,3.183546 z"/><path style="fill:url(#paint14_linear-3-1);stroke-width:1.11157441" id="path1976" d="M 42.351107,49.888706 C 58.912421,48.936086 71.946816,41.384046 71.463292,33.020559 70.979767,24.65819 57.161697,18.650129 40.600375,19.602748 24.039031,20.555368 11.005819,28.1074 11.489351,36.470888 c 0.483533,8.362376 14.300405,14.370437 30.861756,13.417818 z"/><path style="fill:#9b28ab;stroke-width:1.11157441" id="path1978" d="m 48.581482,42.566765 c 2.058667,-0.247882 3.597066,-1.531754 3.434766,-2.866754 -0.1623,-1.333889 -1.961924,-2.215364 -4.020568,-1.966371 -2.058637,0.247875 -3.595941,1.531747 -3.434767,2.866746 0.162293,1.335 1.961933,2.215372 4.020569,1.966379 z"/><path style="fill:#a72cb8;stroke-width:1.11157441" id="path1980" d="m 25.002766,42.296645 c 0.215647,-1.117131 -1.260525,-2.339864 -3.296934,-2.731131 -2.036406,-0.390165 -3.861606,0.197857 -4.077252,1.31499 -0.215648,1.117132 1.260524,2.339863 3.29693,2.731139 2.035289,0.391274 3.861608,-0.197858 4.077256,-1.314998 z"/><path style="fill:#f0c795;stroke-width:1.11157441" id="path1982" d="m 26.765722,43.910653 h -0.18786 c -1.224952,-0.137836 -2.411001,-0.514658 -3.490343,-1.108238 -1.07934,-0.594689 -2.029732,-1.395021 -2.798947,-2.356536 -3.00347,-3.463664 -3.567042,-7.958877 -1.501731,-10.205366 0.430177,-0.427958 0.943725,-0.765878 1.508407,-0.990413 0.564674,-0.225652 1.168259,-0.334582 1.776291,-0.32013 v 0 c 1.220513,0.0767 2.409894,0.407948 3.493681,0.971513 1.083788,0.564682 2.035289,1.350562 2.795609,2.305409 v 0 c 3.191332,3.463663 3.848272,8.238987 1.50174,10.486586 -0.833685,0.793665 -1.94526,1.230517 -3.096847,1.217175 z M 22.071539,29.86591 c -0.471307,-0.02002 -0.942614,0.06112 -1.379459,0.238995 -0.436852,0.177848 -0.831464,0.44796 -1.154932,0.791437 -1.782958,1.871894 -1.126019,5.898013 1.501739,8.894817 1.350562,1.750732 3.342504,2.895652 5.538975,3.182436 0.964853,0.04672 1.909687,-0.290114 2.627767,-0.935939 1.970819,-1.96638 1.220505,-6.085873 -1.50174,-9.176052 -0.685844,-0.854797 -1.538421,-1.561762 -2.506596,-2.076419 -0.968182,-0.515768 -2.031961,-0.82812 -3.125754,-0.919275 z"/><path style="fill:#ffffff;stroke-width:1.11157441" id="path1984" d="m 18.129902,35.390438 c -0.1245,0 -0.244552,-0.05002 -0.332362,-0.137835 -0.08782,-0.08782 -0.136726,-0.206752 -0.136726,-0.331252 -0.172297,-0.814785 -0.160064,-1.657357 0.03442,-2.466585 0.194527,-0.809219 0.568019,-1.566201 1.091571,-2.214253 0.103374,-0.09226 0.23676,-0.143393 0.375713,-0.143393 0.138944,0 0.272332,0.05115 0.375712,0.143393 0.187852,0.09337 0.187852,0.467976 0,0.654719 -0.460192,0.533557 -0.785887,1.16826 -0.949289,1.852994 -0.163402,0.683618 -0.160065,1.39725 0.01,2.079757 0.01448,0.06225 0.01448,0.125602 0.003,0.187852 -0.01222,0.06112 -0.03555,0.120053 -0.07118,0.173408 -0.03442,0.05228 -0.08003,0.09671 -0.133388,0.131168 -0.05228,0.03442 -0.112267,0.05895 -0.174517,0.07005 z"/><path style="fill:#f0c795;stroke-width:1.11157441" id="path1986" d="m 40.563693,43.442683 c -1.120463,0.02115 -2.214255,-0.342368 -3.097957,-1.030432 -2.627759,-2.153115 -2.441016,-6.928438 0.375712,-10.861189 1.499512,-2.273174 3.818257,-3.882734 6.476031,-4.494096 1.343894,-0.227873 2.724471,0.07448 3.849381,0.842572 0.563572,0.397942 1.032689,0.913718 1.372815,1.512855 0.341249,0.599137 0.544649,1.264972 0.597974,1.951919 0.141225,1.385024 0.0075,2.784494 -0.396824,4.118383 -0.402376,1.33389 -1.064858,2.575522 -1.949677,3.652634 -0.74364,1.09824 -1.69848,2.036407 -2.811172,2.760044 -1.112685,0.72363 -2.358756,1.217174 -3.665969,1.452824 z M 38.591764,32.113516 c -2.439907,3.463665 -2.721135,7.771018 -0.469088,9.549538 0.430178,0.344587 0.93039,0.589132 1.465057,0.719189 0.535777,0.12894 1.092674,0.138945 1.6329,0.03 2.369879,-0.46797 4.45964,-1.846319 5.819089,-3.839376 1.6896,-2.246489 2.534377,-4.868698 2.158703,-7.021813 -0.05002,-0.566902 -0.21789,-1.118249 -0.49245,-1.618454 -0.27456,-0.499095 -0.650273,-0.937057 -1.10268,-1.283872 -0.908159,-0.611362 -2.018616,-0.845902 -3.097956,-0.655822 -2.422125,0.579127 -4.534116,2.050851 -5.913575,4.120603 z"/><path style="fill:#ffffff;stroke-width:1.11157441" id="path1988" d="m 36.996649,34.360006 h -0.187852 c -0.0567,-0.02888 -0.10671,-0.07005 -0.14784,-0.118935 -0.04005,-0.05002 -0.07005,-0.10671 -0.08782,-0.16785 -0.01778,-0.06225 -0.0222,-0.12561 -0.01448,-0.18897 0.0088,-0.06338 0.03,-0.124492 0.06225,-0.180075 0.31458,-0.76587 0.724747,-1.489507 1.220512,-2.153114 0.554678,-0.832575 1.217174,-1.588439 1.970819,-2.246497 0.1056,-0.0567 0.225653,-0.0778 0.343478,-0.06 0.118942,0.01665 0.227872,0.07005 0.313462,0.153398 0.08671,0.08782 0.134505,0.204532 0.134505,0.327914 0,0.122273 -0.04778,0.240098 -0.134505,0.326806 -0.695842,0.619146 -1.324995,1.310542 -1.877445,2.060856 -0.444629,0.61248 -0.822569,1.27164 -1.126026,1.965262 -0.03892,0.09004 -0.1056,0.165622 -0.18897,0.216758 -0.08448,0.05002 -0.182295,0.07222 -0.280117,0.0645 z"/><path style="stroke:#2b2f33;stroke-width:2.3172214;stroke-linecap:round;stroke-miterlimit:10" id="path1990" stroke-miterlimit="10" d="m 39.7189,37.3557 c 1.12491,-1.154925 2.617754,-1.883009 4.223976,-2.059747"/><path style="fill:#2b2f33;stroke-width:1.11157441" id="path1992" d="m 27.140325,39.135329 c -0.245663,-0.01222 -0.477983,-0.112268 -0.656947,-0.281228 -0.390158,-0.435734 -0.867022,-0.784769 -1.40058,-1.027094 -0.533557,-0.241207 -1.111575,-0.370155 -1.697379,-0.376822 -0.248993,-0.04222 -0.477975,-0.165623 -0.648045,-0.352373 -0.17007,-0.186742 -0.272339,-0.42573 -0.290122,-0.67806 0.02332,-0.256769 0.142282,-0.494647 0.333472,-0.668054 0.19119,-0.173407 0.441292,-0.269003 0.699182,-0.267885 1.621785,0.0711 3.160206,0.738082 4.317359,1.872997 0.10671,0.08003 0.19341,0.183412 0.25677,0.300127 0.06338,0.117825 0.100042,0.247883 0.108937,0.38016 0.0088,0.133388 -0.01,0.266775 -0.0567,0.391275 -0.04778,0.124493 -0.120053,0.237877 -0.214537,0.332363 -0.1923,0.216756 -0.462413,0.351254 -0.751418,0.374594 z"/><path style="fill:#782aa1;stroke-width:1.11157441" id="path1994" d="m 33.71084,44.471997 c -0.54801,-0.03 -1.074892,-0.224535 -1.510635,-0.559117 -0.435734,-0.333473 -0.760312,-0.791445 -0.929272,-1.313879 -0.03,-0.06 -0.04665,-0.12672 -0.0489,-0.194528 -0.0022,-0.0678 0.0111,-0.135615 0.0378,-0.197865 0.0267,-0.06225 0.06668,-0.117825 0.116715,-0.163395 0.05116,-0.0456 0.111158,-0.07893 0.175628,-0.09893 0.281227,-0.18786 0.563565,0 0.751425,0.281227 0.09337,0.306795 0.27789,0.578017 0.52911,0.779213 0.251212,0.200084 0.558007,0.320136 0.878144,0.343476 v 0 c 0.563565,0 1.032653,-0.46797 1.313879,-1.310541 0.06225,-0.140063 0.17118,-0.254558 0.307906,-0.322358 0.137834,-0.06892 0.294569,-0.08671 0.443519,-0.05228 0.0645,0.02002 0.124493,0.05445 0.175628,0.100042 0.05002,0.04448 0.09004,0.101153 0.116714,0.163403 0.0267,0.06225 0.04005,0.12894 0.0378,0.196747 -7.5e-4,0.0678 -0.01778,0.134497 -0.0489,0.195637 -0.100042,0.565793 -0.384607,1.08267 -0.808117,1.471725 -0.42351,0.389048 -0.964844,0.629152 -1.538414,0.68139 z"/><path style="fill:#4f9bff;stroke-width:1.11157441" id="path1996" d="M 43.191459,49.808666 29.486856,54.490621 18.598982,50.464495 c -0.09449,-0.09337 -0.187853,0.09337 -0.09449,0.18675 l 7.885514,11.235791 0.46908,0.281228 10.137559,4.307353 13.51675,-4.213979 c 0.06225,-0.0068 0.121125,-0.02888 0.172275,-0.0645 0.051,-0.03668 0.09337,-0.08448 0.1212,-0.140062 0.02775,-0.05558 0.04125,-0.117825 0.039,-0.180075 0,-0.06225 -0.02025,-0.123383 -0.051,-0.176737 L 43.755249,50.08987 c -0.06338,-0.09004 -0.14784,-0.163402 -0.245655,-0.212317 -0.09893,-0.0489 -0.20787,-0.07222 -0.31791,-0.06892 z"/><path style="fill:#e0c26e;stroke-width:1.11157441" id="path1998" d="m 29.205629,52.617617 c 1.032653,-3.370297 6.006943,-5.336668 10.043074,-5.148816 l 1.784077,3.089069 -11.545924,3.932751 z"/><path style="fill:#4781ff;stroke-width:1.11157441" id="path2000" d="M 36.996649,66.475617 29.486856,54.490621 43.191459,49.808666 c 0.11004,-0.003 0.218977,0.02002 0.31791,0.06892 0.09781,0.0489 0.182295,0.12228 0.245655,0.212317 l 7.039625,11.610394 c 0.0315,0.05332 0.04875,0.114487 0.051,0.176737 0,0.06225 -0.01125,0.1245 -0.039,0.180075 -0.02775,0.05558 -0.06975,0.10338 -0.1212,0.140062 -0.051,0.03555 -0.11115,0.05782 -0.172275,0.0645 z"/><path style="fill:#ffeb9e;stroke-width:1.11157441" id="path2002" d="m 18.974694,50.55787 0.750314,-1.1238 c 0.143392,-0.202312 0.33792,-0.363487 0.563564,-0.467977 4.036134,-1.1238 7.79103,1.685152 8.917057,3.651524 2.722244,-3.183547 8.917047,-5.05544 12.577466,-3.838266 0.187852,0 0.282337,0.09338 0.375705,0.281227 l 0.563572,0.935948 -13.235516,4.494095 z"/><path style="fill:url(#paint15_linear-0-1);stroke-width:1.11157441" d="M 27.417969 58.291016 C 27.205561 58.293373 26.988495 58.304712 26.765625 58.328125 C 24.385967 58.578031 23.193244 59.810204 22.707031 61.949219 L 32.261719 61.949219 C 31.51619 59.562025 29.80606 58.264512 27.417969 58.291016 z " id="path2004"/><path style="fill:#fc5199;stroke-width:1.11157441" id="path2010" d="m 31.364301,74.995833 c 0.469087,0.09338 0.469087,0.561346 0.751424,0.561346 0.01666,-0.503543 0.07893,-1.004866 0.18786,-1.498402 -3.84938,-1.497293 -6.852859,-1.685145 -9.480621,0 v 0.84369 c 1.331672,-0.6525 2.797839,-0.983746 4.281788,-0.968183 1.48395,0.01665 2.94234,0.380153 4.259549,1.061549 z"/><path style="fill:url(#paint16_linear-6-6);stroke-width:1.11157441" d="M 39.681641 57.802734 C 39.385289 57.800939 39.084355 57.820408 38.779297 57.861328 C 35.476991 58.30504 33.72427 60.436634 32.265625 67.296875 L 50.048828 67.296875 C 47.298244 62.152384 43.938616 57.828527 39.681641 57.802734 z " id="path2012"/><path style="fill:#9b28ab;stroke-width:1.11157441" id="path2014" d="m 43.285936,65.163957 c -0.06668,-0.03 -0.140054,-0.04335 -0.21453,-0.04004 -0.07335,0.0045 -0.144502,0.02558 -0.20898,0.06112 -0.06338,0.03668 -0.117824,0.08782 -0.158954,0.14895 -0.04005,0.06225 -0.06555,0.132277 -0.07448,0.204533 -0.187853,1.030424 -0.939277,5.243293 -1.220505,6.180352 -0.281227,0.935947 -1.032651,4.119494 -1.032651,4.119494 l 0.751424,0.18675 c 0.984855,-3.117967 1.706265,-6.312638 2.158672,-9.549539 0.100042,-0.204533 0.152287,-0.429068 0.152287,-0.65583 0,-0.226763 -0.05228,-0.451297 -0.152287,-0.65583 z"/><path style="fill:#2f4e75;stroke-width:1.11157441" id="path2016" d="m 50.418899,67.972909 c -1.689577,-3.276922 -3.660403,-6.365991 -6.006936,-8.238994 2.252047,2.340981 1.31388,8.801448 -3.003471,11.984997 l -1.032652,4.119494 c 1.76073,0.362377 3.552591,0.55023 5.350003,0.561344 0.961515,-0.0567 1.894125,-0.354592 2.710019,-0.867021 0.815887,-0.511328 1.488412,-1.220512 1.956337,-2.060865 0.468,-0.840344 0.715875,-1.784077 0.720299,-2.745586 0.0075,-0.961515 -0.233399,-1.908577 -0.693599,-2.753369 z"/><path style="fill:#9e2fad;stroke-width:1.11157441" id="path2018" d="m 51.827248,48.404748 -1.970774,0.374603 0.37455,5.243293 -6.288148,-0.374595 c -4.880916,-0.281227 -4.787548,2.24649 -2.159781,3.651516 2.628868,1.403925 11.639328,5.524528 15.018452,3.651524 3.379199,-1.873004 1.127174,-7.209673 -4.974299,-12.546341 z"/><path style="fill:#9e2fad;stroke-width:1.11157441" id="path2020" d="m 25.076131,55.239819 c -0.470198,-0.655823 -1.032652,-1.030425 -2.534394,-0.842573 -1.50174,0.18675 -3.942755,1.029323 -4.694181,2.340974 -0.750314,1.31055 -0.187852,5.430044 5.538973,1.96527 2.439909,-1.497292 2.252057,-2.621092 1.689602,-3.463671 z"/><path style="fill:#e0c26e;stroke-width:1.11157441" id="path2022" d="m 28.736542,54.302761 0.750314,0.18786 0.65805,-0.18786 -0.939277,-0.842572 z"/><path style="fill:#fc5199;stroke-width:1.11157441" id="path2026" d="m 31.176448,73.029462 c 1.597335,-0.553568 3.300262,-0.731415 4.977629,-0.520215 1.676257,0.211193 3.281369,0.80589 4.690843,1.73739 l -0.281227,0.935939 C 38.217161,74.058777 34.36778,72.841602 30.988588,74.058777 Z"/><path style="fill:#2d415c;stroke-width:1.11157441" id="path2030" d="m 42.53563,70.688486 -1.127138,1.030426 c -0.187859,0.935948 -1.032652,4.119494 -1.032652,4.119494 l 0.751425,0.18675 c 0.591352,-1.744065 1.061549,-3.527032 1.408365,-5.33667 z"/><path style="fill:#2d415c;stroke-width:1.11157441" id="path2032" d="m 48.35472,63.946783 h -0.375712 c 0.813674,1.159372 1.536217,2.379884 2.159766,3.651524 l 0.8448,-0.467978 c -0.6336,-1.239405 -1.530599,-2.325412 -2.628854,-3.183546 z"/><path style="fill:#ffffff;stroke-width:1.11157441" id="path2034" d="m 51.827248,48.404748 -1.970774,0.374603 -1.596239,4.775323 1.970789,0.46797 h 1.7841 c 1.142699,-0.84702 2.334299,-1.629562 3.567074,-2.340975 -1.078275,-1.276086 -2.34435,-2.380986 -3.75495,-3.276921 z"/><path style="fill:#8c1c9c;stroke-width:1.11157441" id="path2036" d="m 52.015124,54.116019 h 2.159774 c 0.938174,0.09338 0.8448,-0.749197 0,-0.749197 l -1.50285,0.187852 z"/><path style="clip-rule:evenodd;fill:#ac9393;fill-rule:evenodd" id="path2330" d="m 6.56006,61.9492 c 3.64004,5.5457 8.60214,10.099 14.43954,13.25 C 26.837,78.3502 33.3665,80 40.0001,80 c 6.6335,0 13.163,-1.6498 19.0004,-4.8008 5.8374,-3.151 10.7995,-7.7043 14.4396,-13.25 z"/><path style="fill:#d3cfff" id="path2332" d="m 52.6801,73.4492 h -15.61 l -6.5,-9.43 h 15.61 z"/><path style="fill:#f5872c" id="path2334" d="m 37.1285,66.059 -0.4787,0.1444 -0.1242,-0.4116 0.4787,-0.1445 c 0.0558,-0.0168 0.1161,-0.0108 0.1675,0.0168 0.0514,0.0276 0.0898,0.0745 0.1067,0.1303 0.0138,0.0549 0.006,0.1131 -0.0219,0.1624 -0.028,0.0493 -0.0739,0.0859 -0.1281,0.1022 z"/><path style="fill:#f5db8c" id="path2336" d="m 23.5,69.5527 0.2195,0.7276 -1.9147,0.5778 c -0.0457,0.0137 -0.095,0.0088 -0.1371,-0.0138 -0.0421,-0.0225 -0.0734,-0.0609 -0.0872,-0.1066 l -0.1156,-0.3829 c -0.0138,-0.0457 -0.009,-0.095 0.0137,-0.1371 0.0226,-0.0421 0.061,-0.0735 0.1067,-0.0873 z"/><path style="fill:#ffb458" id="path2338" d="m 35.52,67.1492 1.28,-0.94 -0.15,-0.49 -1.58,-0.08 -12.19,3.68 c -0.0365,0.0116 -0.0671,0.0367 -0.0857,0.0701 -0.0186,0.0335 -0.0237,0.0728 -0.0143,0.1099 l 0.37,1.23 c 0.005,0.0188 0.013,0.0365 0.0247,0.0519 0.0117,0.0154 0.0265,0.0282 0.0434,0.0376 0.0169,0.0094 0.0356,0.0151 0.0549,0.017 0.0192,0.0018 0.0387,-4e-4 0.057,-0.0065 z"/><path style="fill:#f5db8c" id="path2340" d="m 28.2801,69.4192 c 0.0152,0.0466 0.0208,0.0958 0.0164,0.1446 -0.005,0.0489 -0.0188,0.0963 -0.0422,0.1393 -0.0235,0.0431 -0.0554,0.0809 -0.094,0.1112 -0.0385,0.0303 -0.0828,0.0524 -0.1302,0.0649 l -2.89,0.87 c -0.0588,0.0166 -0.1212,0.016 -0.1796,-0.0017 -0.0585,-0.0177 -0.1107,-0.0518 -0.1504,-0.0983 -0.0298,-0.0291 -0.0667,-0.0499 -0.1071,-0.0604 -0.0403,-0.0106 -0.0827,-0.0104 -0.1229,4e-4 l -0.26,0.06 c -0.0252,0.0062 -0.0518,0.0023 -0.0742,-0.0107 -0.0223,-0.0131 -0.0388,-0.0343 -0.0458,-0.0593 l -0.46,-1.53 c -0.002,-0.0208 0.003,-0.0417 0.0139,-0.0596 0.0108,-0.018 0.0269,-0.0321 0.0461,-0.0404 l 0.53,-0.16 c 0.0252,-0.0061 0.0517,-0.0023 0.0741,0.0108 0.0224,0.013 0.0389,0.0343 0.0459,0.0592 l 0.42,1.41 3.24,-0.91 c 0.0345,-0.0095 0.0713,-0.0055 0.1029,0.0112 0.0316,0.0167 0.0556,0.0449 0.0671,0.0788 z"/><path style="fill:#f5db8c" id="path2342" d="m 35.5201,67.1492 1.28,-0.94 -0.15,-0.49 -1.58,-0.08 z"/></svg>