<svg xmlns="http://www.w3.org/2000/svg" width="300" height="120"><path fill="#EBF0F7" d="M214.75 88.46H273a6.44 6.44 0 0 1 6.44 6.44V120h-71.13V94.89a6.44 6.44 0 0 1 6.44-6.43z"/><path fill="#EBF0F7" d="M38.3 106.64h183l-8-54.54a9.78 9.78 0 0 0-9.68-8.37H47.35a9 9 0 0 0-9.05 9.05z"/><circle fill="#FFD836" cx="228.2" cy="84.86" r="3.97"/><circle fill="#FFD836" cx="198.86" cy="84.86" r="2.5"/><circle fill="#FFD836" cx="204.67" cy="84.19" r="4.05"/><circle fill="#FFD836" cx="221.62" cy="84.19" r="4.05"/><circle fill="#FFD836" cx="217.14" cy="80.22" r="4.05"/><circle fill="#FFD836" cx="215.1" cy="84.86" r="4.05"/><circle fill="#FFD836" cx="210.55" cy="82.36" r="4.05"/><path fill="#83ddc5" d="M192.45 84.86a21.78 21.78 0 1 0 43.55 0z"/><path d="M193.55 87.61l.64-2.74a4.38 4.38 0 0 0-3.26-5.26 4.37 4.37 0 0 0-5.25 3.26l-.64 2.7a5.8 5.8 0 0 1-2 3.18 7 7 0 1 0 10.88 2.54 5.75 5.75 0 0 1-.37-3.68z"/><path d="M190.3 93.91a1 1 0 0 1-1-1 1 1 0 0 1 1-1l9.26-.25a1 1 0 0 1 0 2l-9.25.25zM180.07 107.64a1.06 1.06 0 0 1-.42-.09 1 1 0 0 1-.49-1.33l4.68-10.31a1 1 0 1 1 1.82.83L181 107.05a1 1 0 0 1-.93.59zM190.7 107.64a1 1 0 0 1-.6-.21 1 1 0 0 1-.2-1.4c1.49-2 2.06-3.1 1.92-3.84s-1.42-1.78-3.55-3.08a1 1 0 0 1-.33-1.37 1 1 0 0 1 1.38-.33c2.33 1.42 4.14 2.65 4.47 4.41.3 1.6-.65 3.26-2.29 5.42a1 1 0 0 1-.8.4z"/><path fill="#51bc9d" d="M205.63 104.87h17.19v1.76h-17.19z"/><circle fill="#FFD836" cx="212.05" cy="78.31" r="2.17"/><circle fill="#FF9A15" cx="210.55" cy="83.22" r=".59"/><circle fill="#FF9A15" cx="216.86" cy="78.9" r=".59"/><circle fill="#FF9A15" cx="221.9" cy="82.36" r=".59"/><circle fill="#FF9A15" cx="203.02" cy="83.22" r=".59"/><path fill="none" stroke="#FF9A15" d="M214.48 81.24a2.4 2.4 0 0 0-3-1.7" stroke-linecap="round" stroke-miterlimit="10" stroke-width=".75"/><path fill="#DAE1EA" d="M47.35 43.73a9.05 9.05 0 0 1 9.05 9.05v53.85H38.3V52.78a9.05 9.05 0 0 1 9.05-9.05z"/><path fill="#FFFFFF" d="M273 88.46a6.44 6.44 0 0 1 6.44 6.44V120h-12.88V94.89a6.44 6.44 0 0 1 6.44-6.43z"/><path fill="#FFFFFF" d="M 208.7207 16.359375 C 208.18886 16.359375 207.75977 16.788473 207.75977 17.320312 L 207.75977 18.279297 C 207.75977 18.811137 208.18886 19.240234 208.7207 19.240234 C 209.25254 19.240234 209.67969 18.811137 209.67969 18.279297 L 209.67969 17.320312 C 209.67969 16.788473 209.25254 16.359375 208.7207 16.359375 z M 83.839844 18.513672 A 0.7 0.7 0 0 0 83.539062 18.580078 L 81 19.800781 A 0.7 0.7 0 0 1 80.400391 19.800781 L 77.869141 18.580078 A 0.7 0.7 0 0 0 76.939453 19.509766 L 78.160156 22 A 0.72 0.72 0 0 1 78.160156 22.650391 L 76.939453 25.179688 A 0.7 0.7 0 0 0 77.869141 26.109375 L 80.400391 24.890625 A 0.7 0.7 0 0 1 81 24.890625 L 83.539062 26.109375 A 0.7 0.7 0 0 0 84.470703 25.179688 L 83.25 22.650391 A 0.66 0.66 0 0 1 83.25 22.039062 L 84.470703 19.509766 A 0.7 0.7 0 0 0 83.839844 18.513672 z M 204.40039 20.679688 C 203.86855 20.679688 203.43945 21.108785 203.43945 21.640625 C 203.43945 22.172465 203.86855 22.599609 204.40039 22.599609 L 205.35938 22.599609 C 205.89121 22.599609 206.32031 22.172465 206.32031 21.640625 C 206.32031 21.108785 205.89119 20.679688 205.35938 20.679688 L 204.40039 20.679688 z M 212.07031 20.679688 C 211.53847 20.679688 211.10938 21.108785 211.10938 21.640625 C 211.10938 22.172465 211.53847 22.599609 212.07031 22.599609 L 213.0293 22.599609 C 213.56114 22.599609 213.99023 22.172465 213.99023 21.640625 C 213.99023 21.108785 213.56114 20.679688 213.0293 20.679688 L 212.07031 20.679688 z M 106.81055 23.039062 C 100.22384 23.039063 94.840148 27.985826 94.142578 34.380859 L 93.369141 34.380859 A 5.67 5.67 0 0 0 87.679688 40.050781 L 87.679688 52.839844 A 5.67 5.67 0 0 0 93.369141 58.470703 L 94.386719 58.470703 C 95.672394 64.156239 100.72523 68.380859 106.81055 68.380859 L 105.39062 68.380859 A 11.33 11.33 0 0 0 94.060547 79.710938 L 94.060547 95.300781 A 11.34 11.34 0 0 0 105.36914 106.66992 L 138.66992 106.66992 A 5.67 5.67 0 0 0 138.66797 106.64062 L 143.65039 106.64062 L 143.65039 106.66992 L 176.24023 106.66992 A 5.67 5.67 0 0 0 170.57031 101 L 164.90039 101 L 164.90039 95.300781 A 8.5 8.5 0 0 0 156.40039 86.800781 L 156.40039 84.019531 A 15.59 15.59 0 0 0 156.40039 84 L 162.07031 84 A 2.83 2.83 0 0 0 164.90039 81.160156 A 2.83 2.83 0 0 0 162.07031 78.330078 L 155.3418 78.330078 A 15.59 15.59 0 0 0 140.81641 68.380859 L 143.65039 68.380859 L 151.44922 68.380859 C 157.59731 68.380859 162.69808 64.071314 163.91797 58.296875 A 11.34 11.34 0 0 0 168.43945 49.259766 L 168.43945 40.759766 A 4.25 4.25 0 0 0 164.19922 36.509766 L 164.19922 35.789062 C 164.19922 28.725563 158.51272 23.039062 151.44922 23.039062 L 143.65039 23.039062 L 106.81055 23.039062 z M 208.7207 24.029297 C 208.18886 24.029297 207.75977 24.458394 207.75977 24.990234 L 207.75977 25.949219 C 207.75977 26.481059 208.18886 26.910156 208.7207 26.910156 C 209.25254 26.910156 209.67969 26.481059 209.67969 25.949219 L 209.67969 24.990234 C 209.67969 24.458394 209.25254 24.029297 208.7207 24.029297 z M 14.460938 43.509766 C 13.929098 43.509766 13.5 43.938863 13.5 44.470703 L 13.5 45.429688 C 13.5 45.961527 13.929098 46.390625 14.460938 46.390625 C 14.992777 46.390625 15.419922 45.961527 15.419922 45.429688 L 15.419922 44.470703 C 15.419922 43.938863 14.992777 43.509766 14.460938 43.509766 z M 10.140625 47.820312 C 9.608785 47.820313 9.1796875 48.247457 9.1796875 48.779297 C 9.1796875 49.311137 9.608785 49.740234 10.140625 49.740234 L 11.099609 49.740234 C 11.631449 49.740234 12.060547 49.311137 12.060547 48.779297 C 12.060547 48.247457 11.631449 47.820312 11.099609 47.820312 L 10.140625 47.820312 z M 17.810547 47.830078 C 17.278707 47.830078 16.849609 48.257223 16.849609 48.789062 C 16.849609 49.320902 17.278707 49.75 17.810547 49.75 L 18.769531 49.75 C 19.301371 49.75 19.730469 49.320902 19.730469 48.789062 C 19.730469 48.257223 19.301371 47.830078 18.769531 47.830078 L 17.810547 47.830078 z M 14.460938 51.179688 C 13.929098 51.179688 13.5 51.608785 13.5 52.140625 L 13.5 53.099609 C 13.5 53.631449 13.929098 54.060547 14.460938 54.060547 C 14.992777 54.060547 15.419922 53.631449 15.419922 53.099609 L 15.419922 52.140625 C 15.419922 51.608785 14.992777 51.179688 14.460938 51.179688 z M 81.599609 82.929688 A 5.69 5.69 0 0 0 80.009766 94.089844 L 89.009766 96.699219 A 0.55 0.55 0 0 0 89.570312 96.560547 A 0.57 0.57 0 0 0 89.720703 96 L 87.099609 87 A 5.72 5.72 0 0 0 82.039062 82.929688 L 81.599609 82.929688 z"/><circle fill="#202225" cx="120.27" cy="44.29" r="4.25"/><path fill="#FFFFFF" d="M 140.19922 74.109375 A 7.43 7.43 0 0 0 133.91992 78.210938 L 133.88086 78.300781 L 134.30078 78.300781 A 2.91 2.91 0 0 1 137.24023 80.849609 A 2.84 2.84 0 0 1 134.43945 84 L 131.37695 84 L 131.31055 84.150391 C 130.32055 86.410391 131.53 88.25 134 88.25 L 135.75 88.25 A 10.38 10.38 0 0 0 141.85938 86.25 L 143.57031 85 A 3.21 3.21 0 0 1 148.28906 86.099609 A 4.1 4.1 0 0 0 151.91992 88.269531 A 7.49 7.49 0 0 0 158.21094 84.169922 L 160.81055 78.230469 C 161.79055 76.000469 160.58922 74.129375 158.19922 74.109375 L 140.19922 74.109375 z"/><rect fill="#B2C1D1" x="139.56" y="75.59" width="2.34" height="3.58" rx="1.17"/><rect fill="#B2C1D1" x="157.25" y="75.59" width="2.34" height="3.58" rx="1.17"/><path fill="#83DDC5" d="M152.93 78.06h-5.27a2.46 2.46 0 0 0-2.21 1.39l-.18.38a1.06 1.06 0 0 0 1 1.52h5.26A2.43 2.43 0 0 0 153.7 80l.19-.38a1.07 1.07 0 0 0-.96-1.56z"/><path d="M50.82 70.9a1 1 0 0 1-.85-.49l-4-6.64a1 1 0 0 1 1.71-1l4 6.64a1 1 0 0 1-.34 1.37 1 1 0 0 1-.52.12zM60.68 69.85a1 1 0 0 1-.81-.43A1 1 0 0 1 60.1 68a6.53 6.53 0 0 0 2.72-5.86 1 1 0 0 1 2-.28 8.5 8.5 0 0 1-3.54 7.77 1 1 0 0 1-.6.22z"/><path d="M59.21 64.21l-.36-2.79A4.38 4.38 0 0 0 54 57.65a4.36 4.36 0 0 0-3.77 4.9l.35 2.75a5.78 5.78 0 0 1-.81 3.7 7 7 0 1 0 11.08-1.44 5.74 5.74 0 0 1-1.64-3.35zM249.25 89.46a1 1 0 0 1-1-.88c0-.07-.87-7-1.43-10.56a1 1 0 0 1 2-.31c.57 3.61 1.44 10.55 1.44 10.62a1 1 0 0 1-.86 1.12zM243.1 89.31a1 1 0 0 1-1-1s.21-4.68.81-9.89a1 1 0 0 1 1.09-.92 1 1 0 0 1 .88 1.1c-.6 5.15-.8 9.71-.8 9.76a1 1 0 0 1-.98.95z"/><path d="M251.28 65.05l.08-2.81a4.36 4.36 0 0 0-4.25-4.49 4.37 4.37 0 0 0-4.49 4.25l-.08 2.77a5.77 5.77 0 0 1-1.33 3.52 7 7 0 1 0 12.5 4.61 6.92 6.92 0 0 0-1.33-4.31 5.83 5.83 0 0 1-1.1-3.54zM105.28 92.64l-.29-2.8a4.37 4.37 0 0 0-4.78-3.91 4.37 4.37 0 0 0-3.92 4.78l.28 2.77a5.8 5.8 0 0 1-.87 3.65A7 7 0 1 0 106.82 96a5.74 5.74 0 0 1-1.54-3.36z"/><path d="M104.63 97.88a1 1 0 0 1-.82-1.57l4.51-6.52a1 1 0 0 1 1.68 1.14l-4.52 6.52a1 1 0 0 1-.85.43zM62.93 88.1a1 1 0 0 1-1-.73A48.63 48.63 0 0 0 58.26 78a1 1 0 1 1 1.72-1 50.07 50.07 0 0 1 3.91 9.9 1 1 0 0 1-.7 1.23 1.15 1.15 0 0 1-.26-.03z"/><path fill="#DAE1EA" d="M50.38 106.64h207.7a8.48 8.48 0 0 1 8.48 8.48V120H50.38v-13.36z"/><path d="M105.6 114.32a1 1 0 0 1-1-.83l-.51-2.82c-.71-3.49-1-4.15-4.45-4.15a1 1 0 0 1 0-2c4.77 0 5.58 1.67 6.41 5.78l.51 2.84a1 1 0 0 1-.8 1.16z"/><path d="M111.8 112.6a1 1 0 0 1-1-.7c-1.42-4.6-2.8-5.38-6.21-5.38a1 1 0 0 1 0-2c4.56 0 6.53 1.65 8.12 6.79a1 1 0 0 1-.65 1.25 1 1 0 0 1-.26.04zM92.21 107.44a1.26 1.26 0 0 1-.27 0 1 1 0 0 1-.7-1.23c.06-.23 1.58-5.62 4.91-8.17a1 1 0 0 1 1.4.19 1 1 0 0 1-.18 1.4c-2.8 2.15-4.19 7.06-4.2 7.11a1 1 0 0 1-.96.7z"/><path fill="#EBF0F7" d="M31.93 88.46h44.94a6.44 6.44 0 0 1 6.44 6.44V120H25.49V94.89a6.44 6.44 0 0 1 6.44-6.44z"/><path fill="#FFFFFF" d="M76.87 88.46a6.44 6.44 0 0 1 6.44 6.44V120H70.43V94.89a6.44 6.44 0 0 1 6.44-6.43z"/><path d="M55 89.46a1 1 0 0 1-1-1 41.57 41.57 0 0 0-.83-11 1 1 0 1 1 2-.34A44.46 44.46 0 0 1 56 88.5a1 1 0 0 1-1 .96z"/><circle fill="#FFD836" cx="242.56" cy="69.39" r="4.74"/><circle fill="#FFD836" cx="244.56" cy="72.78" r="2.23"/><circle fill="#FFD836" cx="239.2" cy="73.26" r="1.75"/><circle fill="#FFD836" cx="238.78" cy="69.08" r="2.44"/><path fill="none" stroke="#FF9A15" d="M245.55 70.86a2.88 2.88 0 0 0-4 .7" stroke-linecap="round" stroke-miterlimit="10" stroke-width=".75"/><path d="M238.05 70a1 1 0 0 1-.3 0l-1.7-.52a1 1 0 0 1 .58-1.92l1.71.52a1 1 0 0 1-.29 2zM247.68 70.76a11.79 11.79 0 0 1-1.74-.12 1 1 0 0 1-.85-1.13 1 1 0 0 1 1.13-.85 9.48 9.48 0 0 0 6.34-1.2 1 1 0 0 1 1.39.26 1 1 0 0 1-.26 1.39 10.85 10.85 0 0 1-6.01 1.65z"/><path fill="#FF9A15" d="M43.47356279 48.98103893a2.2 2.2 0 0 1 2.8975577 1.13320753l5.40532737 12.34879897-4.03076524 1.76435018-5.40532737-12.34879897a2.2 2.2 0 0 1 1.13320754-2.89755771z"/><path fill="#FF9A15" d="M41.67984597 58.12010616l4.86440078-2.12924987 3.20790941 7.32866407-7.05383917 3.08761282-2.25355637-5.14838652a2.39 2.39 0 0 1 1.23508535-3.1386405z"/><path fill="#FFD836" d="M45.7866 58.2026l.0882-.4802 3.8514.7074-.3474 1.8914-2.4402-.4482a1.43480664 1.43480664 0 0 1-1.152-1.6704z"/><path fill="#FFD836" d="M49.93 58.23l1.85 4.24-4 1.76v-.1a3.26 3.26 0 0 1 1.68-4.29z"/></svg>