<svg xmlns="http://www.w3.org/2000/svg" width="300" height="120"><path opacity="0.2" fill="black" d="M 97.160156 0.36914062 A 30 30 0 0 0 75.900391 9.1699219 A 30.07 30.07 0 0 1 54.640625 18 L 49.929688 18 A 24.91 24.91 0 0 0 25 42.890625 L 25 63.380859 A 10.25 10.25 0 0 1 19.539062 72.439453 A 36.79 36.79 0 0 0 0 104.93945 L 0 120 L 25.490234 120 L 25.490234 94.890625 A 6.44 6.44 0 0 1 31.929688 88.449219 L 31.929688 88.460938 L 38.300781 88.460938 L 38.300781 52.779297 A 9 9 0 0 1 38.34375 51.898438 A 9.05 9.05 0 0 1 38.357422 51.798828 A 9 9 0 0 1 45.792969 43.867188 A 9.05 9.05 0 0 1 45.878906 43.853516 A 9 9 0 0 1 46.654297 43.759766 A 9.05 9.05 0 0 1 47.349609 43.730469 L 87.679688 43.730469 L 87.679688 40.050781 A 5.67 5.67 0 0 1 93.369141 34.380859 L 94.142578 34.380859 C 94.840148 27.985826 100.22384 23.039063 106.81055 23.039062 L 114.60938 23.039062 L 143.65039 23.039062 L 151.44922 23.039062 C 158.51272 23.039062 164.19922 28.725563 164.19922 35.789062 L 164.19922 36.509766 A 4.25 4.25 0 0 0 164.18945 36.509766 L 135.85938 36.509766 A 4.25 4.25 0 0 0 131.60938 40.759766 L 131.60938 47.839844 A 12.75 12.75 0 0 0 144.35938 60.589844 L 157.10938 60.589844 A 11.34 11.34 0 0 0 168.43945 49.259766 L 168.43945 43.730469 L 203.61914 43.730469 A 9.78 9.78 0 0 1 213.30078 52.099609 L 216.83203 76.181641 A 4.0500002 4.0500002 0 0 1 217.14062 76.169922 A 4.0500002 4.0500002 0 0 1 221.1875 80.167969 A 4.0500002 4.0500002 0 0 1 221.61914 80.140625 A 4.0500002 4.0500002 0 0 1 225.18555 82.279297 A 3.97 3.97 0 0 1 228.19922 80.890625 A 3.97 3.97 0 0 1 232.16992 84.859375 L 236 84.859375 A 21.78 21.78 0 0 1 235.76172 88.460938 L 242.11328 88.460938 A 1 1 0 0 1 242.09961 88.310547 C 242.09961 88.310547 242.30986 83.665082 242.9043 78.480469 A 7 7 0 0 1 240.07227 74.775391 A 1.75 1.75 0 0 1 239.19922 75.009766 A 1.75 1.75 0 0 1 237.44922 73.259766 A 1.75 1.75 0 0 1 238.42383 71.693359 A 4.7399998 4.7399998 0 0 1 238.30469 71.472656 A 2.4400001 2.4400001 0 0 1 236.39648 69.585938 L 236.05078 69.480469 A 1.002846 1.002846 0 0 1 236.2832 67.517578 A 1.002846 1.002846 0 0 1 236.28516 67.517578 A 1.002846 1.002846 0 0 1 236.29102 67.517578 A 1.002846 1.002846 0 0 1 236.63086 67.560547 L 236.82812 67.621094 A 2.4400001 2.4400001 0 0 1 238.70117 66.642578 A 4.7399998 4.7399998 0 0 1 242.54297 64.650391 L 242.61914 62 A 4.37 4.37 0 0 1 247.10938 57.75 A 4.36 4.36 0 0 1 251.35938 62.240234 L 251.2793 65.050781 A 5.83 5.83 0 0 0 251.90625 67.806641 A 9.48 9.48 0 0 0 252.56055 67.460938 A 1 1 0 0 1 253.94922 67.720703 A 1 1 0 0 1 253.68945 69.109375 A 10.85 10.85 0 0 1 252.94531 69.525391 A 6.92 6.92 0 0 1 253.71094 72.900391 A 7 7 0 0 1 249.03125 79.214844 C 249.58363 82.968816 250.25977 88.268009 250.25977 88.330078 A 1 1 0 0 1 250.26758 88.460938 L 273 88.460938 A 6.44 6.44 0 0 1 274.90234 88.748047 A 6.44 6.44 0 0 1 275.50781 88.96875 A 6.44 6.44 0 0 1 277.61914 90.414062 A 6.44 6.44 0 0 1 278.04492 90.896484 A 6.44 6.44 0 0 1 278.04492 90.898438 A 6.44 6.44 0 0 1 279.00195 92.566406 A 6.44 6.44 0 0 1 279.00195 92.568359 A 6.44 6.44 0 0 1 279.20508 93.177734 A 6.44 6.44 0 0 1 279.20508 93.179688 A 6.44 6.44 0 0 1 279.3457 93.804688 A 6.44 6.44 0 0 1 279.3457 93.806641 A 6.44 6.44 0 0 1 279.43945 94.900391 L 279.43945 120 L 300.25977 120 L 300.25977 98.699219 A 60.34 60.34 0 0 0 282.58008 56 A 60.36 60.36 0 0 0 239.90039 38.339844 L 205.38086 38.339844 A 14.48 14.48 0 0 1 193.66992 32.339844 L 180.17969 13.740234 A 32.33 32.33 0 0 0 154 0.36914062 L 97.160156 0.36914062 z M 83.808594 18.513672 A 0.7 0.7 0 0 1 83.839844 18.513672 A 0.7 0.7 0 0 1 84.470703 19.509766 L 83.25 22.039062 A 0.66 0.66 0 0 0 83.25 22.650391 L 84.470703 25.179688 A 0.7 0.7 0 0 1 83.539062 26.109375 L 81 24.890625 A 0.7 0.7 0 0 0 80.400391 24.890625 L 77.869141 26.109375 A 0.7 0.7 0 0 1 76.939453 25.179688 L 78.160156 22.650391 A 0.72 0.72 0 0 0 78.160156 22 L 76.939453 19.509766 A 0.7 0.7 0 0 1 77.869141 18.580078 L 80.400391 19.800781 A 0.7 0.7 0 0 0 81 19.800781 L 83.539062 18.580078 A 0.7 0.7 0 0 1 83.808594 18.513672 z M 164.55664 36.527344 A 4.25 4.25 0 0 1 164.79492 36.556641 A 4.25 4.25 0 0 0 164.55664 36.527344 z M 164.96094 36.583984 A 4.25 4.25 0 0 1 165.18555 36.632812 A 4.25 4.25 0 0 0 164.96094 36.583984 z M 165.40039 36.689453 A 4.25 4.25 0 0 1 165.58008 36.75 A 4.25 4.25 0 0 0 165.40039 36.689453 z M 165.78906 36.826172 A 4.25 4.25 0 0 1 165.99023 36.916016 A 4.25 4.25 0 0 0 165.78906 36.826172 z M 166.17188 37.003906 A 4.25 4.25 0 0 1 166.36133 37.111328 A 4.25 4.25 0 0 0 166.17188 37.003906 z M 166.54492 37.224609 A 4.25 4.25 0 0 1 166.69531 37.332031 A 4.25 4.25 0 0 0 166.54492 37.224609 z M 166.89062 37.480469 A 4.25 4.25 0 0 1 167.02734 37.603516 A 4.25 4.25 0 0 0 166.89062 37.480469 z M 167.20508 37.771484 A 4.25 4.25 0 0 1 167.33203 37.904297 A 4.25 4.25 0 0 0 167.20508 37.771484 z M 167.47461 38.066406 A 4.25 4.25 0 0 1 167.61523 38.251953 A 4.25 4.25 0 0 0 167.47461 38.066406 z M 167.73633 38.421875 A 4.25 4.25 0 0 1 167.84375 38.597656 A 4.25 4.25 0 0 0 167.73633 38.421875 z M 95.480469 38.630859 A 2.83 2.83 0 0 0 92.650391 41.460938 L 92.650391 51.380859 A 2.83 2.83 0 0 0 95.480469 54.210938 L 101.15039 54.210938 L 101.15039 38.630859 L 95.480469 38.630859 z M 167.94336 38.773438 A 4.25 4.25 0 0 1 168.05664 39.007812 A 4.25 4.25 0 0 0 167.94336 38.773438 z M 168.12109 39.154297 A 4.25 4.25 0 0 1 168.20117 39.371094 A 4.25 4.25 0 0 0 168.12109 39.154297 z M 168.26758 39.576172 A 4.25 4.25 0 0 1 168.31445 39.753906 A 4.25 4.25 0 0 0 168.26758 39.576172 z M 168.36719 39.992188 A 4.25 4.25 0 0 1 168.39648 40.185547 A 4.25 4.25 0 0 0 168.36719 39.992188 z M 168.42188 40.396484 A 4.25 4.25 0 0 1 168.43945 40.759766 A 4.25 4.25 0 0 0 168.42188 40.396484 z M 14.460938 43.509766 C 13.929096 43.509766 13.5 43.938863 13.5 44.470703 L 13.5 45.429688 C 13.5 45.961526 13.929096 46.390625 14.460938 46.390625 C 14.992775 46.390625 15.419922 45.961526 15.419922 45.429688 L 15.419922 44.470703 C 15.419922 43.938863 14.992776 43.509766 14.460938 43.509766 z M 10.140625 47.820312 C 9.608785 47.820313 9.1796875 48.247457 9.1796875 48.779297 C 9.1796875 49.311137 9.608785 49.740234 10.140625 49.740234 L 11.099609 49.740234 C 11.631449 49.740234 12.060547 49.311137 12.060547 48.779297 C 12.060547 48.247457 11.631449 47.820314 11.099609 47.820312 L 10.140625 47.820312 z M 17.810547 47.830078 C 17.278707 47.830078 16.849609 48.257223 16.849609 48.789062 C 16.849609 49.320902 17.278707 49.75 17.810547 49.75 L 18.769531 49.75 C 19.301371 49.75 19.730469 49.320902 19.730469 48.789062 C 19.730469 48.257224 19.301371 47.830078 18.769531 47.830078 L 17.810547 47.830078 z M 145.48047 51.029297 L 150.43945 51.029297 C 151.42003 51.029297 152.21094 51.820201 152.21094 52.800781 C 152.21094 53.781361 151.42003 54.570313 150.43945 54.570312 L 145.48047 54.570312 C 144.49989 54.570312 143.71094 53.781361 143.71094 52.800781 C 143.71094 51.820201 144.49989 51.029297 145.48047 51.029297 z M 157.4707 51.029297 L 161.00977 51.029297 C 161.99035 51.029297 162.7793 51.820201 162.7793 52.800781 C 162.7793 53.781361 161.99035 54.570312 161.00977 54.570312 L 157.4707 54.570312 C 156.49012 54.570312 155.69922 53.781361 155.69922 52.800781 C 155.69922 51.820201 156.49012 51.029297 157.4707 51.029297 z M 14.460938 51.179688 C 13.929096 51.179688 13.5 51.608785 13.5 52.140625 L 13.5 53.099609 C 13.5 53.631449 13.929096 54.060547 14.460938 54.060547 C 14.992775 54.060547 15.419922 53.631449 15.419922 53.099609 L 15.419922 52.140625 C 15.419922 51.608785 14.992776 51.179688 14.460938 51.179688 z M 116 68.380859 A 8.5 8.5 0 0 1 124.5 76.880859 L 124.5 78.300781 L 133.88086 78.300781 L 133.91992 78.210938 A 7.43 7.43 0 0 1 140.19922 74.109375 L 152.875 74.109375 A 15.59 15.59 0 0 0 140.76953 68.380859 L 116 68.380859 z M 244.80469 79.34375 C 244.27273 84.16829 244.08008 88.311895 244.08008 88.359375 A 1 1 0 0 1 244.07031 88.460938 L 248.23438 88.460938 C 248.21201 88.224221 247.57511 83.251219 247.04102 79.599609 A 7 7 0 0 1 244.80469 79.34375 z M 114.59961 84 L 114.59961 86.800781 L 116 86.800781 A 8.5 8.5 0 0 1 124.5 95.300781 L 124.5 101 L 133 101 A 5.67 5.67 0 0 1 138.66797 106.64062 L 146.48047 106.64062 A 9.92 9.92 0 0 0 156.40039 96.720703 L 156.40039 86.466797 A 7.49 7.49 0 0 1 151.91992 88.269531 A 4.1 4.1 0 0 1 148.28906 86.099609 A 3.21 3.21 0 0 0 143.57031 85 L 141.85938 86.25 A 10.38 10.38 0 0 1 135.75 88.25 L 134 88.25 C 131.53 88.25 130.32055 86.410391 131.31055 84.150391 L 131.37695 84 L 114.59961 84 z"/><path opacity="0.8" fill="black" d="m 114.60938,68.380859 h -9.21876 c -6.257446,-4e-5 -11.330117,5.072633 -11.330073,11.330079 v 15.589843 c -0.0025,1.378508 0.246358,2.745921 0.734375,4.035157 0.02331,-0.02675 0.04676,-0.05356 0.07031,-0.08008 0.159846,-0.749196 0.441586,-1.467073 0.833985,-2.125 0.686883,-1.086637 0.993294,-2.370681 0.871093,-3.65039 l -0.28125,-2.769531 c -0.238871,-2.403776 1.517806,-4.54538 3.921878,-4.78125 2.3989,-0.237949 4.53739,1.511647 4.77929,3.910156 l 0.28907,2.800781 c 0.0422,0.401647 0.12663,0.797721 0.25195,1.181641 l 2.78906,-4.033204 c 0.76042,-1.119793 2.44011,0.02083 1.67969,1.140626 l -3.36914,4.859374 c 0.0614,0.07186 0.12457,0.142196 0.18945,0.210938 2.24943,2.436835 2.4802,6.11771 0.55274,8.81641 1.26068,0.31443 2.25059,0.90431 3.07031,1.85351 h 28.22656 C 138.66988,103.53853 136.13139,101.00004 133,101 h -8.5 v -5.699219 c 0,-4.69442 -3.80558,-8.5 -8.5,-8.5 h -1.40039 V 84 h 19.83984 c 1.68249,-0.01315 2.98472,-1.477938 2.80078,-3.150391 -0.18438,-1.476005 -1.45221,-2.575353 -2.93945,-2.548828 H 124.5 v -1.419922 c 0,-4.69442 -3.80558,-8.5 -8.5,-8.5 z m 46.1582,9.949219 L 158.28516,84 h 3.78515 c 1.56685,5.4e-5 2.83553,-1.273004 2.83008,-2.839844 4e-5,-1.563028 -1.26705,-2.830122 -2.83008,-2.830078 z m -79.167971,4.59961 c -3.120181,-0.01178 -5.667818,2.491422 -5.710937,5.611328 0.324303,-0.05165 0.652082,-0.07842 0.980469,-0.08008 3.557049,-7.77e-4 6.441104,2.882404 6.441406,6.439453 v 0.146484 l 5.699219,1.652344 c 0.198039,0.06347 0.41494,0.0098 0.560546,-0.138672 C 89.718935,96.415117 89.776571,96.200293 89.720703,96 L 87.099609,87 C 86.421185,84.724323 84.40727,83.104486 82.039062,82.929688 Z m 74.800781,3.871093 v 9.919922 c -5e-5,5.478597 -4.44132,9.919877 -9.91992,9.919917 h -2.83008 v 0.0293 h 32.58984 c -4e-5,-3.13139 -2.53853,-5.66988 -5.66992,-5.66992 h -5.66992 v -5.699219 c 0,-4.69442 -3.80558,-8.5 -8.5,-8.5 z m -0.54492,0.08984 c -0.0593,0.03992 -0.11924,0.07898 -0.17969,0.117187 0.0605,-0.0382 0.12036,-0.07727 0.17969,-0.117187 z m -6.88086,0.144531 c 0.19095,0.195592 0.40098,0.371598 0.62695,0.525391 -0.22597,-0.153793 -0.436,-0.329799 -0.62695,-0.525391 z m 6.26758,0.246094 c -0.0825,0.0465 -0.16582,0.09143 -0.25,0.134766 0.0842,-0.04334 0.16753,-0.08827 0.25,-0.134766 z m -0.65625,0.335938 c -0.0962,0.04175 -0.19319,0.08147 -0.29102,0.11914 0.0978,-0.03767 0.19486,-0.07739 0.29102,-0.11914 z m -0.69532,0.271484 c -0.10412,0.03354 -0.20896,0.0648 -0.31445,0.09375 0.10549,-0.02895 0.21033,-0.06021 0.31445,-0.09375 z m -0.70898,0.199219 c -0.11857,0.02568 -0.23774,0.04847 -0.35742,0.06836 0.11968,-0.01989 0.23885,-0.04268 0.35742,-0.06836 z m -0.74609,0.130859 c -0.17124,0.02287 -0.34322,0.03981 -0.51563,0.05078 0.17241,-0.01098 0.34439,-0.02791 0.51563,-0.05078 z m -46.8418,18.33789 c -0.0561,0.0386 -0.11273,0.0764 -0.16992,0.11328 h 1.08398 c -0.28642,-0.0515 -0.58749,-0.0917 -0.91406,-0.11328 z"/><path opacity="1" fill="black" d="M 208.7207 16.359375 C 208.18886 16.359375 207.75977 16.788473 207.75977 17.320312 L 207.75977 18.279297 C 207.75977 18.811137 208.18886 19.240234 208.7207 19.240234 C 209.25254 19.240234 209.67969 18.811137 209.67969 18.279297 L 209.67969 17.320312 C 209.67969 16.788473 209.25254 16.359375 208.7207 16.359375 z M 204.40039 20.679688 C 203.86855 20.679688 203.43945 21.108785 203.43945 21.640625 C 203.43945 22.172465 203.86855 22.599609 204.40039 22.599609 L 205.35938 22.599609 C 205.89121 22.599609 206.32031 22.172465 206.32031 21.640625 C 206.32031 21.108785 205.8912 20.679688 205.35938 20.679688 L 204.40039 20.679688 z M 212.07031 20.679688 C 211.53847 20.679688 211.10938 21.108785 211.10938 21.640625 C 211.10938 22.172465 211.53847 22.599609 212.07031 22.599609 L 213.0293 22.599609 C 213.56114 22.599609 213.99023 22.172465 213.99023 21.640625 C 213.99023 21.108785 213.56114 20.679688 213.0293 20.679688 L 212.07031 20.679688 z M 106.81055 23.039062 C 100.22384 23.039063 94.840148 27.985826 94.142578 34.380859 L 101.94141 34.380859 C 102.06759 33.224095 102.35115 32.117348 102.76367 31.076172 C 102.78015 31.034537 102.79169 30.990634 102.80859 30.949219 C 102.91941 30.677961 103.04723 30.415722 103.17578 30.154297 C 103.22392 30.056306 103.26781 29.955914 103.31836 29.859375 C 103.43454 29.637721 103.5628 29.42459 103.69141 29.210938 C 103.76892 29.082028 103.84389 28.952033 103.92578 28.826172 C 104.05729 28.62426 104.19741 28.43004 104.33984 28.236328 C 104.42944 28.114351 104.51754 27.991637 104.61133 27.873047 C 104.75151 27.695979 104.89959 27.526634 105.04883 27.357422 C 105.16659 27.223738 105.28499 27.091476 105.4082 26.962891 C 105.55305 26.811885 105.70141 26.665189 105.85352 26.521484 C 105.98587 26.396305 106.12015 26.273739 106.25781 26.154297 C 106.41594 26.017222 106.57734 25.885107 106.74219 25.755859 C 106.89184 25.638387 107.04424 25.52485 107.19922 25.414062 C 107.36249 25.29748 107.52639 25.183149 107.69531 25.074219 C 107.86535 24.964439 108.03932 24.861528 108.21484 24.759766 C 108.37681 24.665969 108.53865 24.573098 108.70508 24.486328 C 108.89275 24.388364 109.08426 24.297731 109.27734 24.208984 C 109.4518 24.128875 109.62605 24.048934 109.80469 23.976562 C 110.01446 23.891502 110.23007 23.818202 110.44531 23.744141 C 110.60207 23.690246 110.75652 23.631893 110.91602 23.583984 C 111.15756 23.511361 111.40489 23.45303 111.65234 23.394531 C 111.80748 23.35789 111.95988 23.316104 112.11719 23.285156 C 112.41968 23.22558 112.72718 23.182424 113.03711 23.144531 C 113.13533 23.132527 113.23117 23.11329 113.33008 23.103516 C 113.75073 23.061946 114.17739 23.039063 114.60938 23.039062 L 106.81055 23.039062 z M 208.7207 24.029297 C 208.18886 24.029297 207.75977 24.458394 207.75977 24.990234 L 207.75977 25.949219 C 207.75977 26.481059 208.18886 26.910156 208.7207 26.910156 C 209.25254 26.910156 209.67969 26.481059 209.67969 25.949219 L 209.67969 24.990234 C 209.67969 24.458394 209.25254 24.029297 208.7207 24.029297 z M 95.384766 38.634766 A 2.83 2.83 0 0 0 95.191406 38.648438 A 2.83 2.83 0 0 1 95.384766 38.634766 z M 95.076172 38.662109 A 2.83 2.83 0 0 0 95 38.671875 A 2.83 2.83 0 0 1 94.998047 38.671875 A 2.83 2.83 0 0 0 94.888672 38.695312 A 2.83 2.83 0 0 1 95.076172 38.662109 z M 94.820312 38.710938 A 2.83 2.83 0 0 0 94.59375 38.775391 A 2.83 2.83 0 0 1 94.820312 38.710938 z M 94.556641 38.787109 A 2.83 2.83 0 0 0 94.455078 38.822266 A 2.83 2.83 0 0 0 94.320312 38.882812 A 2.83 2.83 0 0 1 94.556641 38.787109 z M 94.306641 38.886719 A 2.83 2.83 0 0 0 94.070312 39.011719 A 2.83 2.83 0 0 1 94.306641 38.886719 z M 94.197266 53.894531 A 2.83 2.83 0 0 0 94.355469 53.972656 A 2.83 2.83 0 0 1 94.197266 53.894531 z M 94.355469 53.972656 A 2.83 2.83 0 0 0 94.472656 54.017578 A 2.83 2.83 0 0 1 94.355469 53.972656 z M 94.472656 54.017578 A 2.83 2.83 0 0 0 94.644531 54.083984 A 2.83 2.83 0 0 0 94.917969 54.154297 A 2.83 2.83 0 0 0 95.480469 54.210938 A 2.83 2.83 0 0 1 94.472656 54.017578 z M 94.386719 58.470703 C 95.672394 64.156239 100.72523 68.380859 106.81055 68.380859 L 114.60938 68.380859 C 114.19261 68.380859 113.78121 68.357116 113.375 68.318359 C 113.2499 68.306433 113.1279 68.285018 113.00391 68.269531 C 112.7358 68.236012 112.46957 68.198244 112.20703 68.148438 C 112.04045 68.116889 111.87707 68.078938 111.71289 68.041016 C 111.48652 67.988633 111.26249 67.931406 111.04102 67.867188 C 110.88 67.820592 110.72079 67.771428 110.5625 67.71875 C 110.36214 67.651955 110.16447 67.580224 109.96875 67.503906 C 109.78796 67.433546 109.60827 67.361447 109.43164 67.283203 C 109.25799 67.206119 109.08932 67.121624 108.91992 67.037109 C 108.74799 66.951533 108.57362 66.870344 108.40625 66.777344 C 108.25194 66.691394 108.10531 66.594055 107.95508 66.501953 C 107.48268 66.213049 107.02653 65.902783 106.59766 65.556641 C 106.41211 65.406889 106.23725 65.245705 106.06055 65.085938 C 105.9545 64.989847 105.84687 64.896459 105.74414 64.796875 C 105.56987 64.628331 105.40464 64.45166 105.24023 64.273438 C 105.16022 64.186492 105.07955 64.100883 105.00195 64.011719 C 104.82721 63.811409 104.66013 63.605649 104.49805 63.394531 C 104.44118 63.320289 104.38534 63.245449 104.33008 63.169922 C 104.16158 62.940132 104.00073 62.70608 103.84766 62.464844 C 103.81577 62.414492 103.78511 62.36333 103.75391 62.3125 C 103.03504 61.143587 102.49792 59.852104 102.18555 58.470703 L 94.386719 58.470703 z"/><path opacity="0.6" fill="black" d="m 83.839844,18.513672 c -0.103948,-4.72e-4 -0.206696,0.02221 -0.300782,0.06641 L 81,19.800781 c -0.189753,0.08994 -0.409856,0.08994 -0.599609,0 l -2.53125,-1.220703 c -0.591711,-0.274731 -1.204419,0.337977 -0.929688,0.929688 L 78.160156,22 c 0.103498,0.204445 0.103498,0.445946 0,0.650391 l -1.220703,2.529297 c -0.274729,0.591711 0.337978,1.204417 0.929688,0.929687 l 2.53125,-1.21875 c 0.189753,-0.08994 0.409856,-0.08994 0.599609,0 l 2.539062,1.21875 c 0.592441,0.277907 1.208303,-0.336664 0.931641,-0.929687 L 83.25,22.650391 c -0.100064,-0.191492 -0.100064,-0.419837 0,-0.611329 l 1.220703,-2.529296 c 0.216022,-0.462747 -0.120179,-0.993591 -0.630859,-0.996094 z m 30.769536,4.52539 c -6.58666,10e-7 -11.97033,4.946838 -12.66797,11.341797 h -8.572269 c -3.139018,-0.01077 -5.689428,2.530885 -5.689453,5.669922 v 12.789063 c 0.02155,3.12376 2.565637,5.641651 5.689453,5.630859 h 8.816409 c 1.28621,5.684803 6.33901,9.910156 12.42383,9.910156 H 116 151.44922 c 6.15025,0 11.25311,-4.312353 12.4707,-10.089843 -1.96083,1.484534 -4.35114,2.291359 -6.81054,2.298828 h -12.75 c -7.04163,0 -12.75,-5.708369 -12.75,-12.75 v -7.080078 c 0,-2.34721 1.90279,-4.25 4.25,-4.25 h 28.33007 c 0.003,-4e-6 0.007,-4e-6 0.01,0 v -0.720704 c 0,-7.063499 -5.6865,-12.75 -12.75,-12.75 z M 95.480469,38.630859 h 5.669921 v 15.580079 h -5.669921 c -0.188921,-5.8e-5 -0.377361,-0.01903 -0.5625,-0.05664 -0.09226,-0.01887 -0.183519,-0.04234 -0.273438,-0.07031 -0.322222,-0.100591 -0.623849,-0.258019 -0.890625,-0.464843 -0.03243,-0.02405 -0.06433,-0.0488 -0.0957,-0.07422 h -0.002 c -0.06655,-0.0569 -0.130418,-0.116863 -0.191406,-0.179688 -0.0046,-0.0039 -0.0091,-0.0078 -0.01367,-0.01172 -0.0079,-0.0091 -0.01568,-0.01818 -0.02344,-0.02734 -0.05741,-0.06006 -0.112154,-0.122622 -0.164062,-0.1875 -0.05844,-0.07341 -0.113197,-0.149671 -0.164063,-0.228516 v -0.002 c -0.01811,-0.02898 -0.03569,-0.05828 -0.05273,-0.08789 -0.07953,-0.1322 -0.148119,-0.270682 -0.205078,-0.414062 -0.03372,-0.08768 -0.06305,-0.176982 -0.08789,-0.267578 v -0.002 c -0.0254,-0.0907 -0.04626,-0.182611 -0.0625,-0.275391 -0.02732,-0.158698 -0.04104,-0.319437 -0.04102,-0.480469 V 41.46085 c 2.18e-4,-0.283431 0.04301,-0.565221 0.126953,-0.835938 v -0.002 c 0.02752,-0.08942 0.05946,-0.177417 0.0957,-0.263672 v -0.002 c 0.07382,-0.17334 0.164766,-0.338875 0.271484,-0.494141 v -0.002 c 0.05357,-0.07702 0.110928,-0.151332 0.171875,-0.222656 v -0.002 c 0.06037,-0.07148 0.124253,-0.139925 0.191406,-0.205078 0.06778,-0.06602 0.138837,-0.128598 0.212891,-0.1875 0.222245,-0.176665 0.469808,-0.318883 0.734375,-0.421875 0.175537,-0.06807 0.357427,-0.118447 0.542969,-0.150391 H 95 c 0.158698,-0.02732 0.319437,-0.04104 0.480469,-0.04102 z m 24.789061,1.408203 c 0.14155,9.9e-5 0.283,0.0073 0.42383,0.02148 0.38581,0.04003 0.76432,0.132687 1.125,0.275391 0.0353,0.01255 0.0705,0.02558 0.10547,0.03906 h 0.002 c 0.0413,0.01952 0.0824,0.0397 0.12305,0.06055 0.34516,0.157467 0.66769,0.360442 0.95898,0.603515 0.10826,0.09112 0.21191,0.187599 0.31055,0.289063 0.099,0.101365 0.19287,0.207617 0.28125,0.318359 v 0.002 c 0.0877,0.11043 0.16981,0.225155 0.24609,0.34375 0.0269,0.04444 0.0529,0.08937 0.0781,0.134765 0.11904,0.19897 0.22159,0.407348 0.30664,0.623047 0.0516,0.131787 0.0966,0.266069 0.13476,0.402344 0.0707,0.256795 0.11716,0.51967 0.13868,0.785156 0.002,0.01691 0.004,0.03384 0.006,0.05078 0.007,0.100114 0.0101,0.200437 0.01,0.300781 -1e-4,0.141546 -0.007,0.282999 -0.0215,0.423829 v 0.002 c -0.0139,0.140273 -0.0348,0.279768 -0.0625,0.417968 v 0.002 c -0.0283,0.138386 -0.0635,0.275275 -0.10547,0.410156 v 0.002 c -0.0422,0.134509 -0.0911,0.266834 -0.14649,0.396484 v 0.002 c -0.0548,0.129921 -0.11611,0.257031 -0.18359,0.38086 -0.0681,0.12474 -0.14241,0.245986 -0.22266,0.363281 -0.16021,0.233842 -0.34341,0.45107 -0.54687,0.648438 -0.10137,0.099 -0.20762,0.192865 -0.31836,0.28125 -0.44566,0.353402 -0.95773,0.613753 -1.50586,0.765625 -0.27313,0.07594 -0.55317,0.124355 -0.83594,0.144531 -0.10011,0.0068 -0.20044,0.01006 -0.30078,0.0098 -0.28335,2.02e-4 -0.566,-0.02793 -0.84375,-0.08398 -0.13904,-0.02826 -0.27659,-0.06346 -0.41211,-0.105469 -0.27077,-0.0837 -0.53249,-0.194278 -0.78125,-0.330078 -0.12474,-0.0681 -0.24599,-0.14241 -0.36328,-0.222656 -0.049,-0.03607 -0.0972,-0.07319 -0.14453,-0.111328 -0.17911,-0.131777 -0.34759,-0.277406 -0.50391,-0.435547 -0.0448,-0.04846 -0.0884,-0.09795 -0.13086,-0.148438 -0.14514,-0.161494 -0.27769,-0.333874 -0.39648,-0.515624 -0.0764,-0.119451 -0.14683,-0.242652 -0.21094,-0.369141 -0.0643,-0.125934 -0.12236,-0.255001 -0.17383,-0.386719 v -0.002 c -0.0509,-0.131183 -0.0952,-0.264811 -0.13281,-0.400391 -0.0382,-0.137015 -0.0695,-0.275862 -0.0937,-0.416015 -0.0414,-0.238664 -0.0623,-0.48043 -0.0625,-0.722657 1e-4,-0.141546 0.007,-0.282998 0.0215,-0.423828 0.0281,-0.282254 0.0844,-0.560987 0.16796,-0.832031 0.0422,-0.13517 0.0911,-0.268148 0.14649,-0.398437 0.11028,-0.260968 0.24637,-0.510255 0.40625,-0.744141 v -0.002 c 0.0803,-0.116194 0.16634,-0.228312 0.25781,-0.335938 v -0.002 c 0.0912,-0.107597 0.18765,-0.210588 0.28906,-0.308593 0.20313,-0.19816 0.4256,-0.375477 0.66407,-0.529297 0.11945,-0.07643 0.24265,-0.146828 0.36914,-0.210938 0.12657,-0.0644 0.25629,-0.122415 0.38867,-0.173828 0.26391,-0.102526 0.53741,-0.178424 0.81641,-0.226563 0.23866,-0.04139 0.48043,-0.0623 0.72265,-0.0625 z m 25.21094,10.990235 c -0.98058,0 -1.76953,0.790904 -1.76953,1.771484 0,0.98058 0.78895,1.769531 1.76953,1.769531 h 4.95898 c 0.98058,10e-7 1.77149,-0.788951 1.77149,-1.769531 0,-0.98058 -0.79091,-1.771484 -1.77149,-1.771484 z m 11.99023,0 c -0.98058,0 -1.77148,0.790904 -1.77148,1.771484 0,0.98058 0.7909,1.769531 1.77148,1.769531 h 3.53907 c 0.98058,0 1.76953,-0.788951 1.76953,-1.769531 0,-0.98058 -0.78895,-1.771484 -1.76953,-1.771484 z"/></svg>