<svg xmlns="http://www.w3.org/2000/svg" width="216" height="128" viewBox="0 0 216 128"><path fill="black" d="M 107.86133 68.886719 L 107.86133 100.73828 L 119.12109 89.480469 L 119.12109 73.5625 L 107.86133 68.886719 z M 150.6875 106.08984 C 149.7825 106.08984 149.04883 106.82256 149.04883 107.72656 L 149.04883 109.36328 C 149.04883 110.26828 149.7825 111.00195 150.6875 111.00195 C 151.5915 111.00195 152.32422 110.26828 152.32422 109.36328 L 152.32422 107.72656 C 152.32422 106.82256 151.5915 106.08984 150.6875 106.08984 z M 143.32617 113.48242 C 142.42217 113.48242 141.68945 114.21609 141.68945 115.12109 C 141.68945 116.02509 142.42217 116.75781 143.32617 116.75781 L 144.96484 116.75781 C 145.86884 116.75781 146.60156 116.02509 146.60156 115.12109 C 146.60156 114.21609 145.86884 113.48242 144.96484 113.48242 L 143.32617 113.48242 z M 156.42578 113.48242 C 155.52178 113.48242 154.78711 114.21609 154.78711 115.12109 C 154.78711 116.02509 155.52178 116.75781 156.42578 116.75781 L 158.0625 116.75781 C 158.9665 116.75781 159.70117 116.02509 159.70117 115.12109 C 159.70117 114.21609 158.9665 113.48242 158.0625 113.48242 L 156.42578 113.48242 z M 150.6875 119.22266 C 149.7825 119.22266 149.04883 119.95537 149.04883 120.85938 L 149.04883 122.49609 C 149.04883 123.40009 149.7825 124.13477 150.6875 124.13477 C 151.5915 124.13477 152.32422 123.40009 152.32422 122.49609 L 152.32422 120.85938 C 152.32422 119.95538 151.5915 119.22266 150.6875 119.22266 z"/><path fill="black" opacity="0.4" d="M 197.83203 6.3476562 L 197.83203 46.65625 C 199.05603 46.08655 200.24916 45.455625 201.41016 44.765625 L 201.41016 6.3476562 L 197.83203 6.3476562 z M 65.392578 12.457031 C 64.730678 12.457031 64.193359 12.99435 64.193359 13.65625 L 64.193359 14.871094 C 64.193359 15.532994 64.730678 16.070313 65.392578 16.070312 L 65.410156 16.070312 C 66.072056 16.070312 66.607422 15.532994 66.607422 14.871094 L 66.607422 13.65625 C 66.607422 12.99435 66.072056 12.457031 65.410156 12.457031 L 65.392578 12.457031 z M 59.974609 17.859375 C 59.312709 17.859375 58.775391 18.394741 58.775391 19.056641 L 58.775391 19.074219 C 58.775391 19.736119 59.312709 20.273437 59.974609 20.273438 L 61.189453 20.273438 C 61.851353 20.273438 62.388672 19.736119 62.388672 19.074219 L 62.388672 19.056641 C 62.388672 18.394741 61.851353 17.859375 61.189453 17.859375 L 59.974609 17.859375 z M 69.628906 17.875 C 68.967006 17.875 68.431641 18.412319 68.431641 19.074219 L 68.431641 19.091797 C 68.431641 19.753697 68.967006 20.289063 69.628906 20.289062 L 70.845703 20.289062 C 71.507603 20.289062 72.042969 19.753697 72.042969 19.091797 L 72.042969 19.074219 C 72.042969 18.412319 71.507603 17.875 70.845703 17.875 L 69.628906 17.875 z M 65.392578 22.095703 C 64.730678 22.095703 64.193359 22.633022 64.193359 23.294922 L 64.193359 24.509766 C 64.193359 25.171666 64.730678 25.707031 65.392578 25.707031 L 65.410156 25.707031 C 66.072056 25.707031 66.607422 25.171666 66.607422 24.509766 L 66.607422 23.294922 C 66.607422 22.633022 66.072056 22.095703 65.410156 22.095703 L 65.392578 22.095703 z M 134.95312 57.728516 L 119.12109 73.5625 L 123.4082 69.291016 L 150.87109 69.291016 L 150.87109 66.292969 C 149.10721 66.210261 147.4311 65.482538 146.17773 64.228516 C 144.84473 62.895816 144.0957 61.087825 144.0957 59.203125 C 144.0957 58.703319 144.15164 58.210079 144.25391 57.728516 L 134.95312 57.728516 z M 150.87109 71.587891 L 150.85547 73.630859 L 150.82227 73.664062 L 119.12109 73.630859 L 119.12109 89.480469 L 135.03906 89.480469 L 150.87109 73.646484 L 150.87109 71.587891 z M 119.13867 79.623047 L 144.88086 79.623047 L 140.49023 83.994141 L 119.13867 83.994141 L 119.13867 79.623047 z"/><path fill="black" opacity="0.6" d="M 157.80078 31.837891 C 156.64478 31.831591 155.53113 32.278284 154.70312 33.083984 L 149.91211 37.875 C 149.53384 38.946469 149.32422 40.080273 149.32422 41.238281 C 149.32422 43.101757 149.84882 44.904697 150.80078 46.470703 L 153.74023 46.470703 L 160.88281 39.330078 C 161.29081 38.922478 161.61494 38.43915 161.83594 37.90625 C 162.05694 37.37325 162.16992 36.801609 162.16992 36.224609 C 162.16992 35.647609 162.05694 35.075969 161.83594 34.542969 C 161.61494 34.010069 161.29081 33.526741 160.88281 33.119141 C 160.06281 32.304341 158.95578 31.844291 157.80078 31.837891 z M 37.119141 39.080078 C 36.968266 39.059341 36.815912 39.061541 36.664062 39.087891 C 36.360464 39.140691 36.080281 39.287059 35.863281 39.505859 C 35.646281 39.724759 35.501372 40.006547 35.451172 40.310547 C 35.400972 40.614647 35.446831 40.926125 35.582031 41.203125 L 38.181641 46.638672 C 38.281141 46.837872 38.333984 47.05855 38.333984 47.28125 C 38.333984 47.50385 38.281141 47.722675 38.181641 47.921875 L 35.582031 53.339844 C 35.446831 53.616844 35.400972 53.930275 35.451172 54.234375 C 35.501372 54.538475 35.646281 54.818309 35.863281 55.037109 C 36.080281 55.256009 36.360462 55.402278 36.664062 55.455078 C 36.967763 55.507878 37.278541 55.464731 37.556641 55.332031 L 42.992188 52.714844 C 43.193688 52.623444 43.413566 52.576172 43.634766 52.576172 C 43.856066 52.576172 44.073891 52.623444 44.275391 52.714844 L 49.710938 55.332031 C 49.989037 55.464731 50.301869 55.507878 50.605469 55.455078 C 50.909169 55.402278 51.18925 55.256009 51.40625 55.037109 C 51.62325 54.818309 51.766206 54.538475 51.816406 54.234375 C 51.866606 53.930275 51.820747 53.616844 51.685547 53.339844 L 49.070312 47.921875 C 48.978913 47.720375 48.931641 47.50245 48.931641 47.28125 C 48.931641 47.05995 48.978912 46.840172 49.070312 46.638672 L 51.685547 41.203125 C 51.820747 40.926125 51.866606 40.614647 51.816406 40.310547 C 51.766206 40.006547 51.62325 39.724759 51.40625 39.505859 C 51.18925 39.287059 50.909169 39.140691 50.605469 39.087891 C 50.301869 39.035191 49.989038 39.078136 49.710938 39.210938 L 44.275391 41.828125 C 44.076191 41.927625 43.857466 41.980469 43.634766 41.980469 C 43.412166 41.980469 43.191385 41.927625 42.992188 41.828125 L 37.556641 39.210938 C 37.417591 39.144537 37.270016 39.100816 37.119141 39.080078 z M 187.85156 49.585938 C 186.02107 49.861949 184.1679 50.01506 182.30273 50.015625 L 177.42383 50.015625 C 175.27223 50.022527 173.1747 50.455244 171.21484 51.234375 L 171.20312 51.222656 C 171.10038 51.263331 171.00235 51.314816 170.90039 51.357422 C 170.69589 51.443414 170.49407 51.535045 170.29297 51.628906 C 170.03303 51.749317 169.77537 51.87268 169.52148 52.005859 C 169.38723 52.076836 169.25548 52.152029 169.12305 52.226562 C 168.81738 52.397273 168.51605 52.574284 168.2207 52.763672 C 168.15955 52.803135 168.09975 52.844516 168.03906 52.884766 C 167.68935 53.115327 167.34688 53.356595 167.01367 53.613281 C 166.71826 53.84085 166.42184 54.06862 166.14062 54.316406 L 162.17383 58.283203 L 168.55859 64.667969 C 169.62559 65.734769 171.07303 66.333984 172.58203 66.333984 C 174.09003 66.333984 175.53652 65.734769 176.60352 64.667969 C 177.66452 63.607369 178.26353 62.171875 178.26953 60.671875 C 178.27653 59.171975 177.69163 57.730156 176.64062 56.660156 L 175.38086 55.400391 L 182.48828 55.400391 C 183.91628 55.400391 185.28684 54.832166 186.29688 53.822266 C 187.30687 52.812466 187.87305 51.443725 187.87305 50.015625 C 187.87305 49.871778 187.86294 49.728286 187.85156 49.585938 z M 162.13086 58.326172 L 156.22852 64.228516 C 154.89552 65.561216 153.08712 66.310547 151.20312 66.310547 C 151.09184 66.310547 150.98176 66.298158 150.87109 66.292969 L 150.87109 73.646484 L 162.13086 78.304688 L 162.13086 58.326172 z"/><path fill="black" opacity="0.8" d="M 130.29688 46.470703 L 107.87305 68.892578 L 119.12109 73.5625 L 135.03906 57.728516 L 144.25391 57.728516 C 144.53729 56.394075 145.19822 55.157032 146.17773 54.177734 L 153.88477 46.470703 L 130.29688 46.470703 z M 150.93164 73.671875 L 135.03906 89.462891 L 119.12109 89.462891 L 119.12109 89.480469 L 107.86133 100.73828 L 139.69727 100.73828 L 162.13086 78.304688 L 150.93164 73.671875 z"/></svg>