<svg xmlns="http://www.w3.org/2000/svg" width="216" height="128" viewBox="0 0 216 128"><path fill="#282b30" id="path1218" d="M 107.744,36.6294 82.0361,62.3374 V 98.5616 L 107.744,124.27 133.452,98.5616 V 62.3374 Z"/><path fill="#1e2024" id="path1220" d="m 107.744,36.6294 -25.7079,25.708 12.8625,5.3341 12.8454,-12.8625 12.863,12.8625 v 25.5729 l 12.845,5.3172 V 62.3374 Z"/><path fill="#3b3f47" id="path1222" d="m 94.8986,93.2446 -12.8625,5.3172 25.7079,25.7252 v -18.18 z"/><path fill="#303339" id="path1224" d="m 94.8987,67.6715 v 25.573 L 107.744,106.107 120.607,93.2445 V 67.6715 L 107.744,54.8091 Z"/><path fill="#ff9a15" id="path1228" d="m 33.6417,85.885 v -4.5576 l -1.688,0.7258 c -1.0825,0.4654 -2.0048,1.2379 -2.6528,2.2219 -0.648,0.984 -0.9934,2.1365 -0.9933,3.3147 v 3.1397 c -0.0029,1.4985 -0.3028,2.9816 -0.8823,4.3636 -0.5794,1.382 -1.427,2.6355 -2.4937,3.6881 L 23.48,100.25 v 6.583 h 15.9008 v -3.376 c -0.0036,-3.503 -1.1339,-6.9119 -3.224,-9.7229 l -0.152,-0.2194 C 34.4022,91.2992 33.5719,88.6185 33.6417,85.885 Z"/><path fill="#ff9a15" id="path1230" d="m 30.1473,116.15 c 5.146,0 9.3177,-4.171 9.3177,-9.317 0,-5.146 -4.1717,-9.3181 -9.3177,-9.3181 -5.146,0 -9.3177,4.1721 -9.3177,9.3181 0,5.146 4.1717,9.317 9.3177,9.317 z"/><path fill="#ffd836" id="path1232" d="m 34.5192,98.5107 h -0.6583 v -3.6291 c 0,-0.6492 0.2579,-1.2717 0.7169,-1.7307 0.459,-0.459 1.0815,-0.7169 1.7307,-0.7169 h 0.6583 v 3.6292 c 0,0.6491 -0.2579,1.2716 -0.7169,1.7307 -0.459,0.459 -1.0816,0.7168 -1.7307,0.7168 z"/><path fill="#ffd836" id="path1234" d="m 30.1886,101.417 2.6856,2.685 c 0.7122,0.713 1.1124,1.679 1.1124,2.686 0,1.007 -0.4002,1.973 -1.1124,2.685 -0.7123,0.713 -1.6783,1.113 -2.6856,1.113 -1.0073,0 -1.9733,-0.4 -2.6856,-1.113 -0.7122,-0.712 -1.1124,-1.678 -1.1124,-2.685 0,-1.007 0.4002,-1.973 1.1124,-2.686 z"/><path fill="#b2c1d1" id="path1236" d="m 38.8236,115.121 c -0.8798,1.525 -2.1457,2.791 -3.6702,3.672 -1.5245,0.88 -3.254,1.344 -5.0145,1.344 -1.7605,0 -3.49,-0.464 -5.0145,-1.344 -1.5245,-0.881 -2.7903,-2.147 -3.6702,-3.672 z"/><path fill="#dae1ea" id="path1238" d="M 39.8026,112.926 H 20.492 c -0.6898,0 -1.2491,0.56 -1.2491,1.249 v 0.017 c 0,0.69 0.5593,1.249 1.2491,1.249 h 19.3106 c 0.6899,0 1.2491,-0.559 1.2491,-1.249 v -0.017 c 0,-0.689 -0.5592,-1.249 -1.2491,-1.249 z"/><path fill="#b2c1d1" id="path1240" d="m 31.5146,117.18 c 0,-0.755 -0.6122,-1.367 -1.3673,-1.367 -0.7551,0 -1.3673,0.612 -1.3673,1.367 v 9.453 c 0,0.755 0.6122,1.367 1.3673,1.367 0.7551,0 1.3673,-0.612 1.3673,-1.367 z"/><path fill="#ff9a15" id="path1242" d="m 188.835,85.885 v -4.5576 l -1.688,0.7258 c -1.082,0.4654 -2.005,1.2379 -2.653,2.2219 -0.648,0.984 -0.993,2.1365 -0.993,3.3147 v 3.1397 c -0.003,1.4985 -0.303,2.9816 -0.882,4.3636 -0.58,1.382 -1.427,2.6355 -2.494,3.6881 l -1.452,1.4688 v 6.583 h 15.901 v -3.376 c -0.003,-3.503 -1.134,-6.9119 -3.224,-9.7229 l -0.152,-0.2194 c -1.602,-2.2155 -2.433,-4.8962 -2.363,-7.6297 z"/><path fill="#ff9a15" id="path1244" d="m 185.341,116.15 c 5.146,0 9.317,-4.171 9.317,-9.317 0,-5.146 -4.171,-9.3181 -9.317,-9.3181 -5.146,0 -9.318,4.1721 -9.318,9.3181 0,5.146 4.172,9.317 9.318,9.317 z"/><path fill="#ffd836" id="path1246" d="m 189.713,98.5107 h -0.659 v -3.6292 c 0,-0.6491 0.258,-1.2717 0.717,-1.7307 0.459,-0.459 1.082,-0.7169 1.731,-0.7169 h 0.675 v 3.6292 c 0,0.3228 -0.064,0.6425 -0.188,0.9406 -0.124,0.298 -0.306,0.5686 -0.535,0.7961 -0.229,0.2275 -0.5,0.4074 -0.799,0.5294 -0.299,0.122 -0.619,0.1837 -0.942,0.1815 z"/><path fill="#ffd836" id="path1248" d="m 185.396,101.414 2.686,2.686 c 0.689,0.727 1.064,1.696 1.041,2.698 -0.022,1.001 -0.439,1.954 -1.16,2.649 -0.713,0.712 -1.679,1.112 -2.686,1.112 -1.007,0 -1.973,-0.4 -2.685,-1.112 -0.713,-0.712 -1.113,-1.678 -1.113,-2.686 0,-1.007 0.4,-1.973 1.113,-2.685 l 2.733,-2.733 z"/><path fill="#b2c1d1" id="path1250" d="m 194.118,115.121 c -0.879,1.525 -2.145,2.791 -3.67,3.672 -1.524,0.88 -3.254,1.344 -5.014,1.344 -1.761,0 -3.49,-0.464 -5.015,-1.344 -1.524,-0.881 -2.79,-2.147 -3.67,-3.672 z"/><path fill="#dae1ea" id="path1252" d="m 194.996,112.926 h -19.31 c -0.69,0 -1.25,0.56 -1.25,1.249 v 0.017 c 0,0.69 0.56,1.249 1.25,1.249 h 19.31 c 0.69,0 1.249,-0.559 1.249,-1.249 v -0.017 c 0,-0.689 -0.559,-1.249 -1.249,-1.249 z"/><path fill="#b2c1d1" id="path1254" d="m 186.708,117.18 c 0,-0.755 -0.612,-1.367 -1.367,-1.367 -0.755,0 -1.367,0.612 -1.367,1.367 v 9.453 c 0,0.755 0.612,1.367 1.367,1.367 0.755,0 1.367,-0.612 1.367,-1.367 z"/><defs id="defs1287"><clipPath id="clip0"><rect width="215.488" height="128" fill="white" id="rect1284"/></clipPath></defs><path fill="#ffffff" d="M 207.96094 0 C 204.20569 0 201.10094 2.7521844 200.5332 6.3476562 L 197.83203 6.3476562 L 172.35938 6.3476562 C 169.40537 6.3330063 166.47809 6.9031637 163.74609 8.0273438 C 161.01309 9.1515236 158.53136 10.806884 156.44336 12.896484 L 149.35352 19.986328 L 149.36523 19.996094 L 126.90234 42.419922 C 125.67834 43.644822 124.99219 45.303856 124.99219 47.035156 C 124.99219 48.338697 125.38292 49.602163 126.09766 50.669922 L 107.87305 68.892578 L 107.86133 68.886719 L 107.86133 68.904297 L 107.86133 100.73828 L 139.69727 100.73828 L 162.13086 78.304688 L 162.13086 58.326172 L 162.17383 58.283203 L 168.55859 64.667969 C 169.62559 65.734769 171.07303 66.333984 172.58203 66.333984 C 174.09003 66.333984 175.53652 65.734769 176.60352 64.667969 C 177.66452 63.607369 178.26353 62.171875 178.26953 60.671875 C 178.27653 59.171975 177.69163 57.730156 176.64062 56.660156 L 175.38086 55.400391 L 182.48828 55.400391 C 183.91628 55.400391 185.28684 54.832166 186.29688 53.822266 C 187.30687 52.812466 187.87305 51.443725 187.87305 50.015625 C 187.87305 49.87243 187.86284 49.729605 187.85156 49.587891 C 191.30062 49.068022 194.65802 48.063623 197.83203 46.609375 L 197.83203 46.65625 C 198.76102 46.223863 199.66548 45.744164 200.55859 45.242188 C 201.19736 48.752409 204.26618 51.416016 207.96094 51.416016 C 212.11894 51.416016 215.48828 48.044519 215.48828 43.886719 L 215.48828 7.5292969 C 215.48828 3.3714669 212.11894 5.9211895e-16 207.96094 0 z M 65.392578 12.457031 C 64.730678 12.457031 64.193359 12.99435 64.193359 13.65625 L 64.193359 14.871094 C 64.193359 15.532994 64.730678 16.070313 65.392578 16.070312 L 65.410156 16.070312 C 66.072056 16.070312 66.607422 15.532994 66.607422 14.871094 L 66.607422 13.65625 C 66.607422 12.99435 66.072056 12.457031 65.410156 12.457031 L 65.392578 12.457031 z M 59.974609 17.859375 C 59.312709 17.859375 58.775391 18.394741 58.775391 19.056641 L 58.775391 19.074219 C 58.775391 19.736119 59.312709 20.273437 59.974609 20.273438 L 61.189453 20.273438 C 61.851353 20.273438 62.388672 19.736119 62.388672 19.074219 L 62.388672 19.056641 C 62.388672 18.394741 61.851353 17.859375 61.189453 17.859375 L 59.974609 17.859375 z M 69.628906 17.875 C 68.967006 17.875 68.431641 18.412319 68.431641 19.074219 L 68.431641 19.091797 C 68.431641 19.753697 68.967006 20.289063 69.628906 20.289062 L 70.845703 20.289062 C 71.507603 20.289062 72.042969 19.753697 72.042969 19.091797 L 72.042969 19.074219 C 72.042969 18.412319 71.507603 17.875 70.845703 17.875 L 69.628906 17.875 z M 65.392578 22.095703 C 64.730678 22.095703 64.193359 22.633022 64.193359 23.294922 L 64.193359 24.509766 C 64.193359 25.171666 64.730678 25.707031 65.392578 25.707031 L 65.410156 25.707031 C 66.072056 25.707031 66.607422 25.171666 66.607422 24.509766 L 66.607422 23.294922 C 66.607422 22.633022 66.072056 22.095703 65.410156 22.095703 L 65.392578 22.095703 z M 149.91211 37.875 C 149.53408 38.946902 149.32422 40.080014 149.32422 41.238281 C 149.32422 43.101139 149.84813 44.904568 150.79883 46.470703 L 141.31836 46.470703 L 149.91211 37.875 z M 37.119141 39.080078 C 36.968266 39.059341 36.815912 39.061541 36.664062 39.087891 C 36.360464 39.140691 36.080281 39.287059 35.863281 39.505859 C 35.646281 39.724759 35.501372 40.006547 35.451172 40.310547 C 35.400972 40.614647 35.446831 40.926125 35.582031 41.203125 L 38.181641 46.638672 C 38.281141 46.837872 38.333984 47.05855 38.333984 47.28125 C 38.333984 47.50385 38.281141 47.722675 38.181641 47.921875 L 35.582031 53.339844 C 35.446831 53.616844 35.400972 53.930275 35.451172 54.234375 C 35.501372 54.538475 35.646281 54.818309 35.863281 55.037109 C 36.080281 55.256009 36.360462 55.402278 36.664062 55.455078 C 36.967763 55.507878 37.278541 55.464731 37.556641 55.332031 L 42.992188 52.714844 C 43.193688 52.623444 43.413566 52.576172 43.634766 52.576172 C 43.856066 52.576172 44.073891 52.623444 44.275391 52.714844 L 49.710938 55.332031 C 49.989037 55.464731 50.301869 55.507878 50.605469 55.455078 C 50.909169 55.402278 51.18925 55.256009 51.40625 55.037109 C 51.62325 54.818309 51.766206 54.538475 51.816406 54.234375 C 51.866606 53.930275 51.820747 53.616844 51.685547 53.339844 L 49.070312 47.921875 C 48.978913 47.720375 48.931641 47.50245 48.931641 47.28125 C 48.931641 47.05995 48.978912 46.840172 49.070312 46.638672 L 51.685547 41.203125 C 51.820747 40.926125 51.866606 40.614647 51.816406 40.310547 C 51.766206 40.006547 51.62325 39.724759 51.40625 39.505859 C 51.18925 39.287059 50.909169 39.140691 50.605469 39.087891 C 50.301869 39.035191 49.989038 39.078136 49.710938 39.210938 L 44.275391 41.828125 C 44.076191 41.927625 43.857466 41.980469 43.634766 41.980469 C 43.412166 41.980469 43.191381 41.927625 42.992188 41.828125 L 37.556641 39.210938 C 37.417591 39.144537 37.270016 39.100816 37.119141 39.080078 z M 150.87109 73.646484 L 150.93164 73.671875 L 137.74219 86.777344 L 150.87109 73.646484 z M 150.6875 106.08984 C 149.7825 106.08984 149.04883 106.82256 149.04883 107.72656 L 149.04883 109.36328 C 149.04883 110.26828 149.7825 111.00195 150.6875 111.00195 C 151.5915 111.00195 152.32422 110.26828 152.32422 109.36328 L 152.32422 107.72656 C 152.32422 106.82256 151.5915 106.08984 150.6875 106.08984 z M 143.32617 113.48242 C 142.42217 113.48242 141.68945 114.21609 141.68945 115.12109 C 141.68945 116.02509 142.42217 116.75781 143.32617 116.75781 L 144.96484 116.75781 C 145.86884 116.75781 146.60156 116.02509 146.60156 115.12109 C 146.60156 114.21609 145.86884 113.48242 144.96484 113.48242 L 143.32617 113.48242 z M 156.42578 113.48242 C 155.52178 113.48242 154.78711 114.21609 154.78711 115.12109 C 154.78711 116.02509 155.52178 116.75781 156.42578 116.75781 L 158.0625 116.75781 C 158.9665 116.75781 159.70117 116.02509 159.70117 115.12109 C 159.70117 114.21609 158.9665 113.48242 158.0625 113.48242 L 156.42578 113.48242 z M 150.6875 119.22266 C 149.7825 119.22266 149.04883 119.95533 149.04883 120.85938 L 149.04883 122.49609 C 149.04883 123.40009 149.7825 124.13477 150.6875 124.13477 C 151.5915 124.13477 152.32422 123.40009 152.32422 122.49609 L 152.32422 120.85938 C 152.32422 119.95538 151.5915 119.22266 150.6875 119.22266 z" id="path1202"/></svg>