<svg xmlns="http://www.w3.org/2000/svg" width="130" height="98"><path fill="#FFFFFF" fill-rule="evenodd" d="M 51.755859 32.626953 C 41.507859 32.626953 33.199219 40.872922 33.199219 51.044922 L 33.199219 51.964844 L 24.851562 51.964844 L 24.851562 74.066406 L 33.199219 74.066406 L 61.960938 74.066406 L 70.310547 74.066406 L 70.310547 51.044922 C 70.310547 40.872922 62.003859 32.626953 51.755859 32.626953 z M 14.726562 35.558594 A 0.7 0.7 0 0 0 14.220703 35.761719 A 0.687 0.687 0 0 0 14.220703 36.738281 L 14.876953 37.388672 A 0.696 0.696 0 0 0 15.369141 37.591797 A 0.696 0.696 0 0 0 15.861328 37.388672 A 0.688 0.688 0 0 0 15.861328 36.412109 L 15.205078 35.761719 A 0.7 0.7 0 0 0 14.726562 35.558594 z M 19.648438 35.560547 A 0.7 0.7 0 0 0 19.142578 35.761719 L 18.484375 36.412109 A 0.688 0.688 0 0 0 18.484375 37.388672 A 0.696 0.696 0 0 0 18.978516 37.591797 A 0.696 0.696 0 0 0 19.470703 37.388672 L 20.126953 36.738281 A 0.687 0.687 0 0 0 20.126953 35.761719 A 0.7 0.7 0 0 0 19.648438 35.560547 z M 15.384766 39.792969 A 0.7 0.7 0 0 0 14.878906 39.994141 L 14.220703 40.644531 A 0.688 0.688 0 0 0 14.220703 41.621094 A 0.696 0.696 0 0 0 14.712891 41.824219 A 0.696 0.696 0 0 0 15.205078 41.621094 L 15.861328 40.970703 A 0.687 0.687 0 0 0 15.861328 39.994141 A 0.7 0.7 0 0 0 15.384766 39.792969 z M 18.992188 39.792969 A 0.7 0.7 0 0 0 18.484375 39.994141 A 0.687 0.687 0 0 0 18.484375 40.970703 L 19.140625 41.621094 A 0.696 0.696 0 0 0 19.634766 41.824219 A 0.696 0.696 0 0 0 20.126953 41.621094 A 0.688 0.688 0 0 0 20.126953 40.644531 L 19.46875 39.994141 A 0.7 0.7 0 0 0 18.992188 39.792969 z M 106.72266 45.289062 A 0.693 0.693 0 0 0 106.02539 45.978516 L 106.02539 46.208984 C 106.02539 46.971984 105.40277 47.591797 104.63477 47.591797 L 104.40234 47.591797 A 0.694 0.694 0 0 0 103.70703 48.28125 C 103.70703 48.66325 104.01834 48.972656 104.40234 48.972656 L 104.63477 48.972656 C 105.40277 48.972656 106.02539 49.591516 106.02539 50.353516 L 106.02539 50.582031 C 106.02539 50.964031 106.33866 51.273438 106.72266 51.273438 C 107.10666 51.273438 107.41797 50.963984 107.41797 50.583984 L 107.41797 50.353516 C 107.41797 49.590516 108.04155 48.972656 108.81055 48.972656 L 109.04297 48.972656 C 109.42697 48.972656 109.73633 48.66125 109.73633 48.28125 A 0.694 0.694 0 0 0 109.04297 47.591797 L 109.04297 47.589844 L 108.81055 47.589844 A 1.387 1.387 0 0 1 107.41797 46.210938 L 107.41797 45.980469 A 0.693 0.693 0 0 0 106.72266 45.289062 z M 119.85742 58.640625 A 0.697 0.697 0 0 0 119.28906 58.992188 L 115.11523 66.359375 A 0.686 0.686 0 0 0 115.12109 67.046875 A 0.696 0.696 0 0 0 115.72266 67.388672 L 124.07227 67.388672 A 0.696 0.696 0 0 0 124.67188 67.046875 A 0.686 0.686 0 0 0 124.67773 66.359375 L 120.50391 58.992188 A 0.697 0.697 0 0 0 119.85742 58.640625 z M 119.89648 60.740234 L 122.88281 66.007812 L 116.91211 66.007812 L 119.89648 60.740234 z"/><path fill="#202225" d="M 51.755859 32.626953 C 62.003859 32.626953 70.310547 40.872922 70.310547 51.044922 L 70.310547 74.066406 L 68.455078 74.066406 L 70.310547 78.669922 L 116.69922 78.669922 L 116.69922 67.388672 L 115.72266 67.388672 A 0.696 0.696 0 0 1 115.12109 67.046875 A 0.686 0.686 0 0 1 115.11523 66.359375 L 116.69922 63.564453 L 116.69922 51.044922 C 116.69922 40.873922 108.39253 32.626953 98.144531 32.626953 L 51.755859 32.626953 z M 106.72266 45.289062 A 0.693 0.693 0 0 1 107.41797 45.980469 L 107.41797 46.210938 A 1.387 1.387 0 0 0 108.81055 47.589844 L 109.04297 47.589844 L 109.04297 47.591797 A 0.694 0.694 0 0 1 109.73633 48.28125 C 109.73633 48.66125 109.42697 48.972656 109.04297 48.972656 L 108.81055 48.972656 C 108.04155 48.972656 107.41797 49.590516 107.41797 50.353516 L 107.41797 50.583984 C 107.41797 50.963984 107.10666 51.273438 106.72266 51.273438 C 106.33866 51.273438 106.02539 50.964031 106.02539 50.582031 L 106.02539 50.353516 C 106.02539 49.591516 105.40277 48.972656 104.63477 48.972656 L 104.40234 48.972656 C 104.01834 48.972656 103.70703 48.66325 103.70703 48.28125 A 0.694 0.694 0 0 1 104.40234 47.591797 L 104.63477 47.591797 C 105.40277 47.591797 106.02539 46.971984 106.02539 46.208984 L 106.02539 45.978516 A 0.693 0.693 0 0 1 106.72266 45.289062 z"/><path fill="#FF7150" fill-rule="evenodd" d="M 100,25.72 H 83.762 v 29.928 h 4.64 V 37.231 h 5.102 c 3.587,0 6.494,-2.886 6.494,-6.446 V 25.72 Z" /><path fill="#FFE83D" fill-rule="evenodd" d="M 19.284,78.67 H 70.311 V 74.066 H 19.284 Z" /></svg>