<svg xmlns="http://www.w3.org/2000/svg" width="130" height="98"><path opacity="0.1" fill="black" d="M 34.849609 18.603516 C 14.767644 18.981876 -4.3117969 46.844844 6.9160156 64.78125 C 9.8287368 69.434553 14.615642 72.340481 19.939453 74.066406 L 24.851562 74.066406 L 24.851562 51.964844 L 33.199219 51.964844 L 33.199219 51.044922 C 33.199219 40.872922 41.507859 32.626953 51.755859 32.626953 L 60.636719 32.626953 C 53.503932 26.693051 46.654397 19.356789 36.796875 18.654297 C 36.147969 18.608047 35.497415 18.59131 34.849609 18.603516 z M 14.726562 35.558594 A 0.7 0.7 0 0 1 15.205078 35.761719 L 15.861328 36.412109 A 0.688 0.688 0 0 1 15.861328 37.388672 A 0.696 0.696 0 0 1 15.369141 37.591797 A 0.696 0.696 0 0 1 14.876953 37.388672 L 14.220703 36.738281 A 0.687 0.687 0 0 1 14.220703 35.761719 A 0.7 0.7 0 0 1 14.726562 35.558594 z M 19.648438 35.560547 A 0.7 0.7 0 0 1 20.126953 35.761719 A 0.687 0.687 0 0 1 20.126953 36.738281 L 19.470703 37.388672 A 0.696 0.696 0 0 1 18.978516 37.591797 A 0.696 0.696 0 0 1 18.484375 37.388672 A 0.688 0.688 0 0 1 18.484375 36.412109 L 19.142578 35.761719 A 0.7 0.7 0 0 1 19.648438 35.560547 z M 15.384766 39.792969 A 0.7 0.7 0 0 1 15.861328 39.994141 A 0.687 0.687 0 0 1 15.861328 40.970703 L 15.205078 41.621094 A 0.696 0.696 0 0 1 14.712891 41.824219 A 0.696 0.696 0 0 1 14.220703 41.621094 A 0.688 0.688 0 0 1 14.220703 40.644531 L 14.878906 39.994141 A 0.7 0.7 0 0 1 15.384766 39.792969 z M 18.990234 39.792969 A 0.7 0.7 0 0 1 18.992188 39.792969 A 0.7 0.7 0 0 1 19.46875 39.994141 L 20.126953 40.644531 A 0.688 0.688 0 0 1 20.126953 41.621094 A 0.696 0.696 0 0 1 19.634766 41.824219 A 0.696 0.696 0 0 1 19.140625 41.621094 L 18.484375 40.970703 A 0.687 0.687 0 0 1 18.484375 39.994141 A 0.7 0.7 0 0 1 18.990234 39.792969 z M 115.57422 44.78125 C 116.28871 46.739106 116.69922 48.842317 116.69922 51.044922 L 116.69922 63.564453 L 119.28906 58.992188 A 0.697 0.697 0 0 1 120.50391 58.992188 L 123.88867 64.96875 C 126.92045 59.085771 124.83587 51.725929 119.27344 47.142578 A 17.673 17.673 0 0 0 116.75 45.402344 C 116.3631 45.183058 115.97078 44.976167 115.57422 44.78125 z M 119.89648 60.740234 L 116.91211 66.007812 L 122.88281 66.007812 L 119.89648 60.740234 z M 116.69922 67.388672 L 116.69922 71.589844 C 117.88374 70.994089 119.02109 70.31365 120.07031 69.496094 C 120.9096 68.841992 121.63501 68.134561 122.26367 67.388672 L 116.69922 67.388672 z"/><path opacity="0.6" fill="black" fill-rule="evenodd" d="M 14.726562 35.558594 A 0.7 0.7 0 0 0 14.220703 35.761719 A 0.687 0.687 0 0 0 14.220703 36.738281 L 14.876953 37.388672 A 0.696 0.696 0 0 0 15.369141 37.591797 A 0.696 0.696 0 0 0 15.861328 37.388672 A 0.688 0.688 0 0 0 15.861328 36.412109 L 15.205078 35.761719 A 0.7 0.7 0 0 0 14.726562 35.558594 z M 19.648438 35.560547 A 0.7 0.7 0 0 0 19.142578 35.761719 L 18.484375 36.412109 A 0.688 0.688 0 0 0 18.484375 37.388672 A 0.696 0.696 0 0 0 18.978516 37.591797 A 0.696 0.696 0 0 0 19.470703 37.388672 L 20.126953 36.738281 A 0.687 0.687 0 0 0 20.126953 35.761719 A 0.7 0.7 0 0 0 19.648438 35.560547 z M 15.384766 39.792969 A 0.7 0.7 0 0 0 14.878906 39.994141 L 14.220703 40.644531 A 0.688 0.688 0 0 0 14.220703 41.621094 A 0.696 0.696 0 0 0 14.712891 41.824219 A 0.696 0.696 0 0 0 15.205078 41.621094 L 15.861328 40.970703 A 0.687 0.687 0 0 0 15.861328 39.994141 A 0.7 0.7 0 0 0 15.384766 39.792969 z M 18.992188 39.792969 A 0.7 0.7 0 0 0 18.484375 39.994141 A 0.687 0.687 0 0 0 18.484375 40.970703 L 19.140625 41.621094 A 0.696 0.696 0 0 0 19.634766 41.824219 A 0.696 0.696 0 0 0 20.126953 41.621094 A 0.688 0.688 0 0 0 20.126953 40.644531 L 19.46875 39.994141 A 0.7 0.7 0 0 0 18.992188 39.792969 z M 24.851562 51.964844 L 24.851562 74.066406 L 61.960938 74.066406 L 61.960938 51.964844 L 43.40625 66.699219 L 24.851562 51.964844 z M 119.85742 58.640625 A 0.697 0.697 0 0 0 119.28906 58.992188 L 115.11523 66.359375 A 0.686 0.686 0 0 0 115.12109 67.046875 A 0.696 0.696 0 0 0 115.72266 67.388672 L 124.07227 67.388672 A 0.696 0.696 0 0 0 124.67188 67.046875 A 0.686 0.686 0 0 0 124.67773 66.359375 L 120.50391 58.992188 A 0.697 0.697 0 0 0 119.85742 58.640625 z M 119.89648 60.740234 L 122.88281 66.007812 L 116.91211 66.007812 L 119.89648 60.740234 z"/><path opacity="1" fill="black" fill-rule="evenodd" d="M 51.755859 32.626953 C 41.507859 32.626953 33.199219 40.872922 33.199219 51.044922 L 33.199219 51.964844 L 61.960938 51.964844 L 61.960938 74.066406 L 70.310547 74.066406 L 70.310547 51.044922 C 70.310547 40.872922 62.003859 32.626953 51.755859 32.626953 z M 106.72266 45.289062 A 0.693 0.693 0 0 0 106.02539 45.978516 L 106.02539 46.208984 C 106.02539 46.971984 105.40277 47.591797 104.63477 47.591797 L 104.40234 47.591797 A 0.694 0.694 0 0 0 103.70703 48.28125 C 103.70703 48.66325 104.01834 48.972656 104.40234 48.972656 L 104.63477 48.972656 C 105.40277 48.972656 106.02539 49.591516 106.02539 50.353516 L 106.02539 50.582031 C 106.02539 50.964031 106.33866 51.273438 106.72266 51.273438 C 107.10666 51.273438 107.41797 50.963984 107.41797 50.583984 L 107.41797 50.353516 C 107.41797 49.590516 108.04155 48.972656 108.81055 48.972656 L 109.04297 48.972656 C 109.42697 48.972656 109.73633 48.66125 109.73633 48.28125 A 0.694 0.694 0 0 0 109.04297 47.591797 L 109.04297 47.589844 L 108.81055 47.589844 A 1.387 1.387 0 0 1 107.41797 46.210938 L 107.41797 45.980469 A 0.693 0.693 0 0 0 106.72266 45.289062 z"/></svg>