<svg xmlns="http://www.w3.org/2000/svg" viewBox="0 0 120 90"><path fill="black" d="M 60.691406 0.01953125 A 23.7 23.7 0 0 0 36.300781 23.710938 L 36.300781 33.330078 L 49.210938 33.330078 L 49.210938 23.710938 A 10.79 10.79 0 0 1 70.789062 23.710938 L 70.789062 33.330078 L 83.699219 33.330078 L 83.699219 23.710938 A 23.7 23.7 0 0 0 60.691406 0.01953125 z M 54.130859 4.3144531 C 54.821128 4.3718357 55.156986 4.8005599 55.347656 5.1835938 C 55.832578 6.1577428 55.907014 7.2303738 54.78125 7.8085938 C 47.69023 11.450716 46.184935 14.49647 44.832031 16.8125 C 44.189799 17.911935 42.790588 17.613353 42.208984 17.316406 C 41.673296 17.042902 40.611665 16.11351 41.818359 14.136719 C 43.244864 11.799837 44.517029 10.177179 46.107422 8.6777344 C 47.697814 7.1782894 49.636292 5.950523 52.458984 4.703125 C 53.174698 4.3799956 53.716698 4.2800236 54.130859 4.3144531 z"/><path fill="black" d="m 9.13,17.87 3.39,-1.19 a 0.89,0.89 0 0 0 0,-1.68 L 9.13,13.82 A 0.88,0.88 0 0 1 8.58,13.27 L 7.4,9.88 a 0.89,0.89 0 0 0 -1.68,0 L 4.53,13.27 A 0.89,0.89 0 0 1 3.99,13.82 L 0.59,15 a 0.89,0.89 0 0 0 0,1.68 L 4,17.87 a 0.9,0.9 0 0 1 0.54,0.54 l 1.18,3.39 a 0.89,0.89 0 0 0 1.68,0 l 1.18,-3.39 a 0.89,0.89 0 0 1 0.55,-0.54 z"/><path opacity="0.5" fill="black" d="m 42.208489,17.315765 c -0.535688,-0.273504 -1.595913,-1.202343 -0.389219,-3.179134 1.426505,-2.336882 2.697534,-3.960285 4.287927,-5.45973 1.590392,-1.499445 3.529831,-2.7265189 6.352523,-3.9739169 1.908571,-0.8616783 2.582689,-0.1316033 2.887762,0.4812508 0.484922,0.9741491 0.559066,2.0453809 -0.566698,2.6236008 -7.09102,3.6421223 -8.59579,6.6881673 -9.948694,9.0041973 -0.642232,1.099435 -2.041997,0.800679 -2.623601,0.503732 z"/></svg>