<svg xmlns="http://www.w3.org/2000/svg" width="154" height="86" viewBox="0 0 154 86"><path fill="#FFD836" d="M 110.24023 0 L 91.863281 19.410156 L 97.025391 19.410156 L 97.035156 26.119141 L 109.10547 26.119141 L 109.10547 45.736328 L 109.10547 86 L 123.55859 86 L 123.55859 79.806641 L 120.46094 76.708984 L 120.46094 61.222656 L 123.55859 58.125 L 123.55859 19.410156 L 128.7207 19.410156 L 110.24023 0 z"/><path fill="#FFFFFF" d="M 24.447266,26.119141 V 86 H 109.10547 V 26.119141 Z m 105.306644,25.810547 -9.29297,9.292968 V 76.708984 L 129.75391,86 139.04492,76.708984 V 61.222656 Z m 0,6.607421 4.64453,4.646485 v 11.666015 l -4.64453,4.646485 -4.64649,-4.646485 V 63.183594 Z m 0,2.167969 -3.09766,3.097656 v 10.427735 l 3.09766,3.097656 3.0957,-3.097656 V 63.802734 Z M 11.925781,67.033203 c -0.549044,-0.07904 -1.067862,0.473106 -0.796875,1.105469 l 1.341797,2.685547 c 0.1032,0.1032 0.1032,0.41264 0,0.61914 l -1.341797,2.683594 c -0.3097,0.6194 0.310503,1.342903 1.033203,1.033203 l 2.683594,-1.341797 c 0.2065,-0.1033 0.412741,-0.1033 0.619141,0 l 2.683594,1.341797 c 0.619499,0.3097 1.343003,-0.310503 1.033203,-1.033203 l -1.341797,-2.683594 c -0.1032,-0.2065 -0.1032,-0.41274 0,-0.61914 l 1.341797,-2.685547 c 0.3098,-0.6195 -0.310504,-1.34095 -1.033203,-1.03125 l -2.683594,1.341797 c -0.2064,0.1033 -0.412641,0.1033 -0.619141,0 l -2.683594,-1.341797 c -0.07742,-0.03871 -0.157893,-0.06293 -0.236328,-0.07422 z"/><path fill="#B3B3B3" d="M 14.298828 20.041016 C 13.679828 20.041016 13.267578 20.454719 13.267578 21.074219 L 13.267578 22.105469 C 13.267578 22.724869 13.679828 23.138672 14.298828 23.138672 C 14.918828 23.138672 15.332031 22.621669 15.332031 22.105469 L 15.332031 21.074219 C 15.332031 20.454719 14.918828 20.041016 14.298828 20.041016 z M 9.6542969 24.6875 C 9.0352969 24.6875 8.6210938 25.09935 8.6210938 25.71875 C 8.6210938 26.23495 9.1382969 26.751953 9.6542969 26.751953 L 10.6875 26.751953 C 11.3065 26.751953 11.71875 26.33825 11.71875 25.71875 C 11.71875 25.09935 11.3065 24.6875 10.6875 24.6875 L 9.6542969 24.6875 z M 17.914062 24.6875 C 17.294062 24.6875 16.880859 25.09935 16.880859 25.71875 C 16.880859 26.23495 17.397063 26.751953 17.914062 26.751953 L 18.945312 26.751953 C 19.564312 26.751953 19.978516 26.33825 19.978516 25.71875 C 19.978516 25.09935 19.564312 24.6875 18.945312 24.6875 L 17.914062 24.6875 z M 14.298828 28.300781 C 13.679828 28.300781 13.267578 28.712631 13.267578 29.332031 L 13.267578 30.365234 C 13.267578 30.984734 13.679828 31.398437 14.298828 31.398438 C 14.918828 31.398438 15.332031 30.881534 15.332031 30.365234 L 15.332031 29.332031 C 15.332031 28.712631 14.918828 28.300781 14.298828 28.300781 z M 145.23828 41.8125 C 144.61928 41.8125 144.20703 42.226203 144.20703 42.845703 L 144.20703 43.876953 C 144.20703 44.496353 144.61928 44.910156 145.23828 44.910156 C 145.85828 44.910156 146.27148 44.393153 146.27148 43.876953 L 146.27148 42.845703 C 146.27148 42.226203 145.85828 41.8125 145.23828 41.8125 z M 140.59375 46.458984 C 139.97475 46.458984 139.56055 46.870834 139.56055 47.490234 C 139.56055 48.006434 140.07775 48.523438 140.59375 48.523438 L 141.62695 48.523438 C 142.24595 48.523438 142.6582 48.109734 142.6582 47.490234 C 142.6582 46.870834 142.24595 46.458984 141.62695 46.458984 L 140.59375 46.458984 z M 148.85352 46.458984 C 148.23352 46.458984 147.82031 46.870834 147.82031 47.490234 C 147.82031 48.006434 148.33652 48.523438 148.85352 48.523438 L 149.88477 48.523438 C 150.50377 48.523438 150.91797 48.109734 150.91797 47.490234 C 150.91797 46.870834 150.50377 46.458984 149.88477 46.458984 L 148.85352 46.458984 z M 145.23828 50.072266 C 144.61928 50.072266 144.20703 50.484116 144.20703 51.103516 L 144.20703 52.136719 C 144.20703 52.756219 144.61928 53.169922 145.23828 53.169922 C 145.85828 53.169922 146.27148 52.653019 146.27148 52.136719 L 146.27148 51.103516 C 146.27148 50.484116 145.85828 50.072266 145.23828 50.072266 z"/><path fill="#999999" d="m 61.408203,18.789062 c -5.690417,0 -10.731009,2.918164 -13.705078,7.330079 h 49.332031 l -0.0098,-6.708985 h -5.16211 l 0.587891,-0.621094 z m 62.150387,1.070313 V 58.125 l 6.19532,-6.195312 4.54297,4.542968 V 35.308594 c 0,-7.050983 -4.48611,-13.090496 -10.73829,-15.449219 z M 24.447266,55.986328 C 17.946047,56.283967 11.797201,59.124845 7.3085935,63.90625 2.9724634,68.55205 0.597656,74.643706 0.597656,80.941406 V 86 86.103516 H 153.60156 V 73.714844 c 0,-5.6783 -4.6457,-10.220703 -10.2207,-10.220703 h -4.33594 V 76.708984 L 129.75391,86 123.55859,79.806641 V 86 H 109.10547 24.447266 Z m 105.306644,2.550781 -4.64649,4.646485 v 11.666015 l 4.64649,4.646485 4.64453,-4.646485 V 63.183594 Z m 0,2.167969 3.0957,3.097656 v 10.427735 l -3.0957,3.097656 -3.09766,-3.097656 V 63.802734 Z M 11.722656,67.03125 c 0.0662,-0.0088 0.134495,-0.0079 0.203125,0.002 0.07843,0.01129 0.158903,0.03551 0.236328,0.07422 l 2.683594,1.341797 c 0.2065,0.1033 0.412741,0.1033 0.619141,0 l 2.683594,-1.341797 c 0.722699,-0.3097 1.343003,0.41175 1.033203,1.03125 l -1.341797,2.685547 c -0.1032,0.2064 -0.1032,0.41264 0,0.61914 l 1.341797,2.683594 c 0.3098,0.7227 -0.413704,1.342903 -1.033203,1.033203 l -2.683594,-1.341797 c -0.2064,-0.1033 -0.412641,-0.1033 -0.619141,0 l -2.683594,1.341797 c -0.7227,0.3097 -1.342903,-0.413803 -1.033203,-1.033203 l 1.341797,-2.683594 c 0.1032,-0.2065 0.1032,-0.51594 0,-0.61914 L 11.128906,68.13872 c -0.237113,-0.553318 0.130334,-1.046041 0.59375,-1.107422 z"/></svg>