<svg xmlns="http://www.w3.org/2000/svg" width="168" height="102" viewBox="0 0 168 102" transform="scale(1.05) translate(0 2.5)"><path opacity="0.5" fill="black" d="M 100.95898,17.015625 72.871094,32.082031 c 0.01452,0.01239 0.03115,0.02197 0.04492,0.03516 0.1102,0.105798 0.192834,0.234498 0.240234,0.375 0.03435,0.131548 0.0084,0.234915 -0.06055,0.296874 l -1.474609,1.328126 3.173828,6.271484 9.013672,17.80664 2.6875,-1.441406 -6.800782,-13.316406 c 0,-3e-6 -0.128384,-0.390737 0.234376,-0.617188 0.276428,-0.172556 0.48901,-0.02985 0.597656,0.05859 0.04435,0.01906 0.134942,0.05758 0.289062,0.125 0.187505,0.08203 0.547668,0.194817 0.683594,0.21875 0.122978,0.02165 0.343848,0.03632 0.595703,-0.002 0.01411,-0.02743 0.0032,-0.0575 0.01953,-0.08398 L 81.71875,42.363281 c 0,0 -0.128385,-0.414179 0.234375,-0.640625 0.09069,-0.05661 0.179163,-0.07569 0.261719,-0.07422 0.07052,0.0013 0.133313,0.01928 0.191406,0.04297 0.01497,-0.07509 0.01955,-0.15239 0.05273,-0.222656 0.0562,-0.1191 0.137182,-0.226606 0.238282,-0.316406 0.1012,-0.0898 0.221062,-0.160331 0.351562,-0.207032 0.1304,-0.0467 0.268403,-0.06795 0.408203,-0.06445 0.1396,0.0029 0.27845,0.03158 0.40625,0.08398 0.1278,0.0524 0.243344,0.126803 0.339844,0.220703 0.0965,0.0939 0.172156,0.205072 0.222656,0.326172 0.0505,0.121 0.07351,0.249106 0.07031,0.378906 v 0.462891 c 0.110523,-0.06954 0.332301,-0.216002 0.441406,-0.369141 0.08686,-0.121912 0.195021,-0.257171 0.201172,-0.410156 0.0032,-0.0797 0.09265,-0.205381 0.158203,-0.253907 0.140024,-0.103658 0.247731,-0.129884 0.421875,-0.109374 0.174144,0.02051 0.360672,0.152683 0.421875,0.382812 0.0612,0.230129 -0.08893,0.571852 -0.285156,0.9375 -0.09064,0.154827 -0.34158,0.388922 -0.570313,0.558594 -0.224793,0.166749 -0.42774,0.270198 -0.480468,0.296875 0.0052,0.0072 0.0064,0.01625 0.01172,0.02344 0.1913,0.2694 0.288997,0.587558 0.279297,0.910156 -0.0084,0.231601 -0.07089,0.457263 -0.183594,0.664063 -0.101001,0.185244 -0.245151,0.345159 -0.414062,0.480469 l 4.779297,9.351562 0.179687,0.347656 3.716797,-1.99414 V 39.873047 l -0.259766,-0.138672 c -0.0429,-0.0301 -0.07641,-0.07003 -0.09961,-0.115234 -0.0232,-0.0451 -0.0349,-0.09453 -0.0332,-0.144532 0.0076,-0.1497 0.05156,-0.295281 0.130859,-0.425781 0.0794,-0.1306 0.192072,-0.242872 0.326172,-0.326172 0.0466,-0.0304 0.09955,-0.04949 0.15625,-0.05469 0.0566,-0.0053 0.113916,0.0042 0.166016,0.02539 l 12.845706,6.894532 0.48437,-0.955079 0.004,-0.0098 0.004,0.002 c 0.0451,-0.07543 0.14126,-0.129805 0.27929,-0.140625 0.157,-3e-4 0.31408,0.03441 0.45508,0.09961 0.141,0.0652 0.26342,0.160344 0.35742,0.277344 0.0813,0.101303 0.0958,0.194286 0.0664,0.271484 l 0.006,0.002 -0.01,0.01953 v 0.002 l -0.002,0.002 -0.0176,0.03516 5.66211,-3.039062 z M 84.568359,42.912109 c 0.0067,0.02204 0.01575,0.04268 0.02344,0.06445 z m -3.273437,1.339844 0.365234,0.712891 0.152344,-0.08203 c -0.05868,-0.132337 -0.106605,-0.270522 -0.125,-0.414062 -0.0077,-0.05632 -0.0046,-0.111767 -0.0059,-0.167969 h -0.01367 c 0,0 -0.167536,-0.01545 -0.373047,-0.04883 z m 1.230469,1.4375 -0.386719,0.208985 L 82.5,46.605469 Z m 1.822265,1.8125 -1.08789,0.589844 0.638672,1.248047 1.089843,-0.585938 z m 1.115235,2.181641 -1.085938,0.589844 0.642578,1.257812 1.089844,-0.585938 z m 1.121093,2.191406 -1.08789,0.589844 0.636718,1.24414 1.089844,-0.585937 z m 1.113282,2.177734 -1.085938,0.589844 0.644531,1.261719 1.089844,-0.585938 z"/><path opacity="1" fill="black" d="m 89.5,12.713407 c 0.114886,0.05002 0.210694,0.143817 0.281247,0.251437 0.07055,0.107619 0.185944,0.440291 -0.20703,0.716797 -0.162406,0.108537 -0.655324,0.127112 -0.935863,-0.24035 -0.09414,-0.123306 -0.193245,-0.258896 -0.194402,-0.40699 l -0.01141,-1.460372 v 0 C 86.177394,10.365607 81.941339,8.1002112 81.941339,8.1002112 v 0 l 0.004,0.5579747 c 0,0 0.177452,0.088472 0.225383,0.1636748 0.195342,0.3064869 0.09606,0.6078878 -0.104466,0.7738326 -0.214164,0.1772317 -0.594923,0.09894 -0.832749,-0.044991 C 81.033793,9.4298162 80.875523,9.1820851 80.875638,8.9486053 l 7.03e-4,-1.4225444 c -0.101075,-0.053555 -0.174308,-0.07169 -0.261107,-0.078796 -0.260395,-0.021315 -0.441406,0.1547788 -0.441406,0.4648438 v 4.8867193 l 0.0293,0.01563 c 9.79e-4,3.04395 2.3247,6.782808 5.158203,8.304688 2.832843,1.521423 5.158095,0.27563 5.160156,-2.765625 v -0.0039 -4.886718 c -0.0142,-0.2333 -0.08834,-0.46021 -0.214843,-0.662109 -0.12015,-0.19167 -0.374682,-0.432548 -0.536807,-0.525545 -0.01069,-0.0061 -0.199222,-0.121094 -0.269837,-0.128752"/><path opacity="01" fill="black" d="M 133.4043 41.863281 L 129.10352 44.537109 L 129.10352 46.341797 L 133.41211 42.033203 C 133.41054 42.025795 133.40492 42.01929 133.4043 42.011719 L 133.4043 41.863281 z"/><path opacity="0.8" fill="black" d="M 133.41211 42.033203 L 129.10352 46.341797 L 132.17969 47.994141 L 133.70312 42.21875 C 133.6461 42.206986 133.58548 42.206287 133.5332 42.181641 C 133.4972 42.166541 133.46831 42.142981 133.44531 42.113281 C 133.42711 42.089776 133.41805 42.061312 133.41211 42.033203 z"/><path opacity="0.6" fill="black" d="M 134.04102 42.208984 C 133.97828 42.225673 133.9177 42.251953 133.85156 42.251953 C 133.80024 42.251953 133.75299 42.229038 133.70312 42.21875 L 132.17969 47.994141 L 135.57227 47.994141 L 134.04102 42.208984 z"/><path opacity="0.4" fill="black" d="M 134.29883 41.998047 L 134.29883 42.011719 C 134.29583 42.048319 134.28277 42.083481 134.25977 42.113281 C 134.23677 42.143081 134.20592 42.167141 134.16992 42.181641 C 134.12991 42.200313 134.08357 42.197664 134.04102 42.208984 L 135.57227 47.994141 L 138.64844 46.341797 L 134.29883 41.998047 z"/><path opacity="0.6" fill="black" d="M 134.29883 41.835938 L 134.29883 41.998047 L 138.64844 46.341797 L 138.64844 44.537109 L 134.29883 41.835938 z " id="path1338"/><path opacity="1" fill="black" d="m 113.69922,42.150391 -5.66406,3.041015 -0.36328,0.716797 6.23437,-3.347656 z m -20.525392,11.019531 -3.722656,1.99414 0.214843,0.408203 c 1.171795,-0.623232 2.340216,-1.25328 3.509766,-1.880859 l 7.187499,3.859375 0.20703,-0.408203 -6.910154,-3.71289 z m -6.681641,3.582032 -2.68164,1.443358 0.207031,0.41211 2.6875,-1.466797 z"/><path opacity="0.8" fill="black" d="M 93.173828 39.873047 L 93.173828 53.169922 L 100.57031 57.142578 L 105.32031 47.740234 L 103.95703 46.511719 L 103.95508 46.509766 C 103.88738 46.447549 103.86224 46.3432 103.89844 46.212891 C 103.94544 46.072391 104.02767 45.945644 104.13867 45.839844 C 104.15797 45.821264 104.18233 45.807986 104.20312 45.791016 L 93.173828 39.873047 z"/><path opacity="1" fill="black" d="M 120.89648 67.865234 C 120.89748 68.013034 120.96027 68.155566 121.07227 68.259766 C 121.15508 68.336129 121.2626 68.376201 121.375 68.398438 L 120.60156 69.789062 C 120.50656 69.956862 120.47195 70.148737 120.50195 70.335938 C 120.53295 70.523138 120.62653 70.695778 120.76953 70.830078 C 120.85853 70.913178 120.96503 70.980291 121.08203 71.025391 C 121.19803 71.070391 121.32222 71.09375 121.44922 71.09375 C 121.57522 71.09375 121.70041 71.070391 121.81641 71.025391 C 121.93341 70.980291 122.03991 70.913178 122.12891 70.830078 C 122.27391 70.696878 122.36939 70.525391 122.40039 70.337891 C 122.43139 70.150391 122.39773 69.956963 122.30273 69.789062 L 121.52539 68.402344 C 121.64461 68.382321 121.75712 68.340439 121.84375 68.259766 C 121.95675 68.155466 122.01953 68.012734 122.01953 67.865234 C 121.86053 67.865234 121.7087 67.924997 121.5957 68.029297 C 121.53043 68.090078 121.4882 68.164267 121.45898 68.244141 C 121.42918 68.164243 121.38615 68.08805 121.32031 68.027344 C 121.20731 67.923144 121.05548 67.865234 120.89648 67.865234 z"/></svg>