<svg xmlns="http://www.w3.org/2000/svg" width="65" height="44"><path opacity="0.5" fill="black" d="M 51.171875 19.052734 L 47.384766 19.070312 L 47.384766 20.990234 C 47.384766 21.411634 47.870072 21.647119 48.201172 21.386719 L 51.171875 19.052734 z M 14.074219 19.224609 L 14.074219 22.830078 L 14.076172 22.830078 L 14.076172 20.830078 L 14.076172 19.224609 L 14.074219 19.224609 z M 13.066406 19.228516 L 9.5234375 19.246094 L 13.066406 22.035156 L 13.066406 19.228516 z M 51.882812 19.880859 C 51.790739 19.888734 51.698009 19.921353 51.615234 19.986328 L 47.246094 23.421875 C 47.227394 23.441575 47.204794 23.455456 47.183594 23.472656 L 46.880859 23.708984 L 38.720703 30.123047 C 38.206403 30.527247 38.207356 31.306638 38.722656 31.710938 L 46.880859 38.107422 L 51.617188 41.818359 C 51.948284 42.078259 52.431641 41.842775 52.431641 41.421875 L 52.431641 35.490234 C 51.412972 34.870814 50.730469 33.752117 50.730469 32.472656 C 50.730469 31.193489 51.413207 30.076606 52.431641 29.457031 L 52.431641 20.384766 C 52.431641 20.069091 52.159042 19.857234 51.882812 19.880859 z M 8.5839844 19.884766 C 8.4971756 19.875178 8.4112666 19.889075 8.3320312 19.921875 C 8.1558814 19.995575 8.0195312 20.165219 8.0195312 20.386719 L 8.0195312 41.421875 C 8.0195314 41.643375 8.1558816 41.811066 8.3320312 41.884766 C 8.4900015 41.950366 8.6775244 41.940459 8.8339844 41.818359 L 13.570312 38.107422 L 21.716797 31.720703 C 22.231597 31.316903 22.23255 30.539466 21.71875 30.134766 L 13.570312 23.71875 L 8.8359375 19.990234 C 8.7577075 19.928684 8.6707931 19.894353 8.5839844 19.884766 z M 30.226562 26.333984 L 11.277344 41.1875 C 10.521744 41.7795 10.941491 42.990234 11.900391 42.990234 L 48.550781 42.990234 C 49.509681 42.990234 49.928328 41.7795 49.173828 41.1875 L 30.226562 26.333984 z M 36.269531 29.789062 C 36.452206 29.931885 36.671072 30.004319 36.890625 30.003906 C 36.671167 30.003914 36.451998 29.931995 36.269531 29.789062 z M 24.169922 29.798828 C 23.986722 29.942178 23.766924 30.014035 23.546875 30.013672 C 23.767175 30.013922 23.986722 29.942178 24.169922 29.798828 z"/><path opacity="1" fill="black" d="M 30.226562 1.1464844 L 24.644531 5.5214844 C 24.550156 5.5955519 24.492759 5.6886677 24.466797 5.7871094 C 24.414681 5.983707 24.488257 6.199733 24.650391 6.3222656 C 24.651129 6.322831 24.651602 6.3236573 24.652344 6.3242188 C 24.72781 6.3806258 24.824457 6.4134838 24.933594 6.4179688 C 24.941235 6.4182828 24.947292 6.421875 24.955078 6.421875 C 24.955758 6.4218774 24.95635 6.421875 24.957031 6.421875 L 37.777344 6.421875 L 35.818359 4.8886719 C 35.646634 5.1077446 35.330873 5.1454218 35.111328 4.9746094 L 35.109375 4.9746094 L 30.226562 1.1464844 z M 12.517578 15.128906 C 12.425525 15.136648 12.3329 15.171603 12.25 15.236328 L 8.8378906 17.912109 C 8.7735406 17.962584 8.72559 18.023725 8.6933594 18.091797 C 8.6288981 18.227941 8.6272925 18.387294 8.6914062 18.523438 C 8.7235578 18.591469 8.7717125 18.654603 8.8359375 18.705078 L 13.066406 22.035156 L 13.066406 15.632812 C 13.066406 15.53654 13.03343 15.454073 12.990234 15.380859 C 12.979326 15.362521 12.966144 15.346665 12.953125 15.330078 C 12.913971 15.280335 12.868239 15.23883 12.814453 15.207031 C 12.794955 15.195568 12.776683 15.182651 12.755859 15.173828 C 12.681125 15.142318 12.600094 15.121943 12.517578 15.128906 z M 47.933594 15.128906 C 47.850285 15.12222 47.768508 15.143338 47.693359 15.175781 C 47.674749 15.183769 47.658175 15.19497 47.640625 15.205078 C 47.584957 15.237597 47.536174 15.280381 47.496094 15.332031 C 47.484045 15.347554 47.471152 15.36186 47.460938 15.378906 C 47.417186 15.452533 47.386719 15.537657 47.386719 15.634766 L 47.386719 20.990234 C 47.386719 21.095584 47.416108 21.188298 47.466797 21.265625 C 47.517412 21.342293 47.587055 21.404076 47.667969 21.443359 C 47.74968 21.483364 47.842969 21.502145 47.935547 21.494141 C 48.027031 21.485906 48.118917 21.45141 48.201172 21.386719 L 51.615234 18.705078 C 51.679584 18.654478 51.727774 18.591676 51.759766 18.523438 C 51.855741 18.318724 51.806331 18.061581 51.613281 17.910156 L 48.201172 15.236328 C 48.118272 15.171603 48.025647 15.136639 47.933594 15.128906 z"/><path opacity="0.75" fill="black" d="M 30.226562 0 C 30.116537 0 30.005413 0.035501815 29.914062 0.10742188 L 22.816406 5.6699219 C 22.194606 6.1574719 21.428472 6.421875 20.638672 6.421875 L 13.570312 6.421875 C 13.291714 6.421875 13.066406 6.6491344 13.066406 6.9277344 L 13.066406 11.130859 C 13.066406 12.509659 12.432256 13.809756 11.347656 14.660156 L 7.203125 17.910156 C 7.199085 17.913656 7.1973994 17.918275 7.1933594 17.921875 C 7.1479394 17.959175 7.1093481 18.002234 7.0800781 18.052734 C 7.0730081 18.064834 7.06856 18.077244 7.0625 18.089844 C 7.04282 18.130744 7.0295544 18.17385 7.0214844 18.21875 C 7.0184544 18.23645 7.016635 18.251931 7.015625 18.269531 C 7.014615 18.282131 7.0097656 18.293941 7.0097656 18.306641 L 7.0097656 43.496094 C 7.0097656 43.774694 7.2350719 44 7.5136719 44 L 52.9375 44 C 53.2167 44 53.441406 43.774694 53.441406 43.496094 L 53.441406 35.898438 C 53.078481 35.811552 52.741389 35.667775 52.431641 35.478516 L 52.431641 41.421875 C 52.431641 41.842775 51.948285 42.078259 51.617188 41.818359 L 46.880859 38.107422 L 38.722656 31.710938 C 38.207356 31.306638 38.206403 30.527247 38.720703 30.123047 L 46.880859 23.708984 L 47.183594 23.472656 C 47.204794 23.455456 47.227394 23.441575 47.246094 23.421875 L 51.615234 19.986328 C 51.698009 19.921353 51.790738 19.888734 51.882812 19.880859 C 52.159042 19.857234 52.431641 20.069091 52.431641 20.384766 L 52.431641 29.464844 C 52.741364 29.275685 53.078539 29.13174 53.441406 29.044922 L 53.441406 18.306641 C 53.441406 18.293941 53.436547 18.282131 53.435547 18.269531 C 53.434547 18.251931 53.432287 18.23645 53.429688 18.21875 C 53.421188 18.17385 53.407772 18.130744 53.388672 18.089844 C 53.382572 18.077244 53.378194 18.064834 53.371094 18.052734 C 53.341794 18.002234 53.303312 17.957722 53.257812 17.919922 C 53.253813 17.916822 53.252047 17.913656 53.248047 17.910156 L 47.384766 13.314453 L 47.384766 6.9277344 C 47.384766 6.6491344 47.159959 6.421875 46.880859 6.421875 L 24.955078 6.421875 C 24.475078 6.421875 24.267531 5.8177444 24.644531 5.5214844 L 30.226562 1.1464844 L 35.109375 4.9746094 C 35.328975 5.1467094 35.646259 5.1082219 35.818359 4.8886719 C 35.990459 4.6696319 35.952022 4.3517875 35.732422 4.1796875 L 30.537109 0.10742188 C 30.445759 0.035501815 30.336589 3.7007434e-17 30.226562 0 z M 55.96875 2.2792969 C 55.839613 2.2792969 55.710028 2.3293194 55.611328 2.4277344 C 55.414528 2.6250744 55.414528 2.943795 55.611328 3.140625 L 56.207031 3.7382812 C 56.305431 3.8367012 56.435253 3.8867187 56.564453 3.8867188 C 56.693653 3.8867188 56.823475 3.8367012 56.921875 3.7382812 C 57.119275 3.5414413 57.119275 3.2227306 56.921875 3.0253906 L 56.324219 2.4277344 C 56.225769 2.3293194 56.097887 2.2792969 55.96875 2.2792969 z M 59.550781 2.2792969 C 59.421569 2.2792969 59.291509 2.3293194 59.193359 2.4277344 L 58.597656 3.0253906 C 58.400356 3.2227306 58.400356 3.5414413 58.597656 3.7382812 C 58.696156 3.8367012 58.823925 3.8867188 58.953125 3.8867188 C 59.082325 3.8867188 59.212147 3.8367012 59.310547 3.7382812 L 59.908203 3.140625 C 60.105003 2.943795 60.105003 2.6250744 59.908203 2.4277344 C 59.809503 2.3293194 59.679994 2.2792969 59.550781 2.2792969 z M 56.564453 5.265625 C 56.435316 5.265625 56.307384 5.3156425 56.208984 5.4140625 L 55.611328 6.0097656 C 55.414028 6.2071056 55.414028 6.5272694 55.611328 6.7246094 C 55.709728 6.8230294 55.83955 6.8710936 55.96875 6.8710938 C 56.09795 6.8710938 56.225719 6.8230294 56.324219 6.7246094 L 56.921875 6.1269531 C 57.118775 5.9301131 57.118775 5.6114025 56.921875 5.4140625 C 56.823225 5.3156425 56.693591 5.265625 56.564453 5.265625 z M 58.953125 5.265625 C 58.823975 5.265625 58.696356 5.3156425 58.597656 5.4140625 C 58.400856 5.6114025 58.400856 5.9301131 58.597656 6.1269531 L 59.193359 6.7246094 C 59.291759 6.8230294 59.421581 6.8710936 59.550781 6.8710938 C 59.679981 6.8710938 59.809703 6.8230294 59.908203 6.7246094 C 60.105503 6.5272694 60.105503 6.2071056 59.908203 6.0097656 L 59.310547 5.4140625 C 59.212147 5.3156425 59.082275 5.265625 58.953125 5.265625 z M 14.074219 7.4316406 L 14.076172 7.4316406 L 46.376953 7.4316406 L 46.376953 22.822266 L 37.513672 29.787109 C 37.331504 29.93054 37.112047 30.003077 36.892578 30.003906 C 36.892578 30.003906 36.890625 30.003906 36.890625 30.003906 C 36.671072 30.004319 36.452206 29.931885 36.269531 29.789062 L 36.267578 29.789062 L 30.537109 25.296875 C 30.491709 25.260975 30.441672 25.233044 30.388672 25.214844 C 30.283772 25.179044 30.168 25.179044 30.0625 25.214844 C 30.01 25.233044 29.960062 25.260975 29.914062 25.296875 L 24.169922 29.798828 C 23.986722 29.942178 23.767175 30.013922 23.546875 30.013672 C 23.436167 30.013546 23.324655 29.995375 23.21875 29.958984 C 23.113777 29.923107 23.01481 29.868255 22.923828 29.796875 L 22.921875 29.796875 L 15.638672 24.0625 L 14.076172 22.830078 L 14.074219 22.830078 L 14.074219 7.4316406 z M 12.517578 15.128906 C 12.793738 15.10568 13.066406 15.317512 13.066406 15.632812 L 13.066406 22.035156 L 8.8359375 18.705078 C 8.5790375 18.503178 8.5785375 18.114009 8.8359375 17.912109 L 12.25 15.236328 C 12.3329 15.171603 12.425525 15.136648 12.517578 15.128906 z M 47.933594 15.128906 C 48.025647 15.136639 48.118272 15.171603 48.201172 15.236328 L 51.613281 17.910156 C 51.870681 18.112056 51.872634 18.502678 51.615234 18.705078 L 48.201172 21.386719 C 47.870072 21.647119 47.384766 21.411634 47.384766 20.990234 L 47.384766 15.632812 C 47.384766 15.317063 47.657434 15.105708 47.933594 15.128906 z M 8.5839844 19.884766 C 8.6707931 19.894353 8.7577075 19.928684 8.8359375 19.990234 L 13.570312 23.71875 L 21.71875 30.134766 C 22.23255 30.539466 22.231597 31.316903 21.716797 31.720703 L 13.570312 38.107422 L 8.8339844 41.818359 C 8.6775244 41.940459 8.4900014 41.950366 8.3320312 41.884766 C 8.1558815 41.811066 8.0195314 41.643375 8.0195312 41.421875 L 8.0195312 20.386719 C 8.0195312 20.165219 8.1558814 19.995575 8.3320312 19.921875 C 8.4112665 19.889075 8.4971756 19.875178 8.5839844 19.884766 z M 30.226562 26.333984 L 49.173828 41.1875 C 49.928328 41.7795 49.509681 42.990234 48.550781 42.990234 L 11.900391 42.990234 C 10.941491 42.990234 10.521744 41.7795 11.277344 41.1875 L 30.226562 26.333984 z M 61.080078 38.25 L 58.050781 43.496094 L 64.107422 43.496094 L 61.080078 38.25 z"/></svg>