<svg xmlns="http://www.w3.org/2000/svg" width="128" height="128" viewBox="0 0 128 128"><circle fill="#4BD963" cx="41" cy="62" r="5"/><circle fill="#4BD963" cx="86" cy="62" r="5"/><rect fill="#36393D" width="71" height="44" x="28" y="39" rx="18"/><rect fill="#FFFFFF" width="94" height="78" x="17" y="28" rx="27" ry="24"/><rect fill="#FFFFFF" width="108" height="27" x="10" y="50" rx="9" ry="10"/><rect fill="#282B2F" width="71" height="44" x="28" y="39" rx="18" ry="18"/><rect fill="#36393D" width="71" height="42" x="28" y="46" rx="18" ry="17"/><path fill="#4BD963" d="M 41 57 A 5 5 0 0 0 36 62 A 5 5 0 0 0 41 67 A 5 5 0 0 0 46 62 A 5 5 0 0 0 41 57 z M 86 57 A 5 5 0 0 0 81 62 A 5 5 0 0 0 86 67 A 5 5 0 0 0 91 62 A 5 5 0 0 0 86 57 z"/><rect fill="#FFFFFF" width="29" height="9" x="49" y="23" rx="5" ry="5"/><path fill="#FFFFFF" d="m 19,128 h 90 c 0,-10.61934 -12.740675,-14 -45,-14 -32.259325,0 -45,3.63337 -45,14 z"/><path fill="#DBDDE0" d="M 51,105.85198 V 97 c 0,-1.017367 1.080569,-2 2,-2 h 21 c 1.090933,0 2,0.936061 2,2 v 9 z"/></svg>