<svg xmlns="http://www.w3.org/2000/svg" width="200" height="120"><path fill="#000000" d="M 62.64,118.29 50.89,99.1 a 4,4 0 0 0 -3,-1.71 H 44.3 L 58.11,120 h 3.56 c 1.11,0 1.54,-0.77 0.97,-1.71 z"/><path fill="#FFFFFF" d="M 75.320312 0 A 4 4 0 0 0 71.320312 4 L 71.320312 28.841797 A 21 21 0 0 0 54.660156 20.599609 A 21.05 21.05 0 0 0 33.660156 41.599609 A 21 21 0 0 0 54.660156 62.599609 L 75.660156 62.599609 L 75.660156 41.599609 A 21 21 0 0 0 75.212891 37.40625 A 4 4 0 0 0 75.320312 37.410156 A 4 4 0 0 0 75.330078 37.410156 L 88.369141 37.410156 L 99.939453 37.410156 L 99.939453 55.400391 A 3.76 3.76 0 0 0 103.69922 59.160156 L 137.16992 59.160156 L 147.44922 69.400391 L 147.44922 35.820312 A 3.771 3.771 0 0 0 146.3457 33.158203 A 3.76 3.76 0 0 0 143.67969 32.060547 L 128.67969 32.060547 L 128.67969 4 A 3.999 3.999 0 0 0 124.67969 0 L 88.369141 0 L 75.320312 0 z M 137.66016 18.720703 A 0.81 0.81 0 0 0 136.84961 19.529297 L 136.84961 20.339844 A 0.819 0.819 0 0 0 137.66016 21.160156 A 0.822 0.822 0 0 0 138.48047 20.339844 L 138.48047 19.529297 A 0.833 0.833 0 0 0 137.66016 18.720703 z M 134 22.349609 A 0.823 0.823 0 0 0 133.17578 23.175781 A 0.824 0.824 0 0 0 134 24 L 134.81055 24 A 0.81 0.81 0 0 0 134.81055 22.380859 L 134.82031 22.349609 L 134 22.349609 z M 140.49023 22.349609 A 0.810547 0.810547 0 0 0 140.49023 23.970703 L 141.31055 23.970703 A 0.810547 0.810547 0 0 0 141.31055 22.349609 L 140.49023 22.349609 z M 137.66016 25.169922 A 0.81 0.81 0 0 0 136.84961 25.980469 L 136.84961 26.789062 A 0.81 0.81 0 0 0 137.66016 27.599609 A 0.818 0.818 0 0 0 138.48047 26.789062 L 138.48047 26 A 0.828 0.828 0 0 0 137.66016 25.169922 z M 177.41406 56.080078 A 0.55 0.55 0 0 0 176.93945 56.880859 L 177.93945 58.880859 C 177.99945 59.034859 177.99945 59.205375 177.93945 59.359375 L 176.93945 61.359375 A 0.55 0.55 0 0 0 177.67969 62.099609 L 179.67969 61.099609 A 0.569 0.569 0 0 1 180.16016 61.099609 L 182.16016 62.099609 A 0.55 0.55 0 0 0 182.90039 61.359375 L 181.90039 59.359375 A 0.514 0.514 0 0 1 181.90039 58.880859 L 182.90039 56.880859 C 182.95339 56.776859 182.97213 56.659922 182.95312 56.544922 A 0.55 0.55 0 0 0 182.16016 56.140625 L 180.16016 57.140625 A 0.57 0.57 0 0 1 179.67969 57.140625 L 177.67969 56.140625 A 0.55 0.55 0 0 0 177.41406 56.080078 z M 75.230469 67.640625 A 3.932 3.932 0 0 0 71.279297 71.550781 L 72 71.550781 A 11.802 11.802 0 0 0 60.109375 83.320312 L 60.109375 84 A 3.93 3.93 0 0 0 56.169922 87.900391 L 56.169922 95.75 A 10.492 10.492 0 0 0 60.382812 104.11719 A 11.797 11.797 0 0 0 67.464844 112.55078 C 68.832844 113.10653 70.291941 113.39233 71.767578 113.41016 L 59.652344 113.41016 L 61.673828 116.71094 L 58.0625 116.71094 L 47.279297 99.099609 A 4 4 0 0 0 44.279297 97.390625 L 21.560547 97.390625 C 20.410547 97.390625 19.980547 98.159609 20.560547 99.099609 L 32.349609 118.28906 A 4.001 4.001 0 0 0 35.349609 120 L 57.410156 120 L 58.029297 120 L 58.109375 120 L 61.669922 120 L 85.509766 120 L 100.74023 120 L 124.83008 120 L 128.86914 120 L 166.60938 120 L 166.60938 118.86914 A 5.46 5.46 0 0 0 161.15039 113.41016 L 150.85938 113.41016 L 150.85938 95.220703 C 150.85537 93.590703 150.5313 91.976656 149.9043 90.472656 A 12.406 12.406 0 0 0 138.41992 82.839844 L 127.76562 82.839844 A 16.4 16.4 0 0 0 127.73828 82.615234 A 16.401 16.401 0 0 0 127.63477 81.777344 A 16.4 16.4 0 0 0 127.51172 80.976562 A 16.401 16.401 0 0 0 127.32617 80.164062 A 16.4 16.4 0 0 0 127.13086 79.408203 A 16.401 16.401 0 0 0 126.8457 78.554688 A 16.4 16.4 0 0 0 126.58789 77.857422 A 16.401 16.401 0 0 0 126.24414 77.091797 A 16.4 16.4 0 0 0 125.88477 76.351562 A 16.401 16.401 0 0 0 125.48047 75.652344 A 16.4 16.4 0 0 0 125.04883 74.951172 A 16.401 16.401 0 0 0 124.55273 74.263672 A 16.4 16.4 0 0 0 124.08594 73.650391 A 16.401 16.401 0 0 0 123.50977 72.998047 A 16.4 16.4 0 0 0 122.9707 72.423828 A 16.401 16.401 0 0 0 122.36719 71.863281 A 16.4 16.4 0 0 0 121.75781 71.330078 A 16.401 16.401 0 0 0 121.0918 70.826172 A 16.4 16.4 0 0 0 120.43164 70.357422 A 16.401 16.401 0 0 0 119.73047 69.929688 A 16.4 16.4 0 0 0 119.02539 69.527344 A 16.401 16.401 0 0 0 118.25586 69.158203 A 16.4 16.4 0 0 0 117.54492 68.84375 A 16.401 16.401 0 0 0 116.73828 68.550781 A 16.4 16.4 0 0 0 115.99219 68.304688 A 16.401 16.401 0 0 0 115.19141 68.101562 A 16.4 16.4 0 0 0 114.37891 67.921875 A 16.401 16.401 0 0 0 113.60742 67.808594 A 16.4 16.4 0 0 0 112.75391 67.707031 A 16.401 16.401 0 0 0 111.38086 67.640625 L 108.08008 67.640625 L 83.119141 67.640625 L 75.230469 67.640625 z M 37.71875 68.050781 A 0.59 0.59 0 0 0 37.169922 68.640625 L 37.169922 70.089844 A 0.59 0.59 0 0 0 37.759766 70.679688 L 37.900391 70.679688 A 0.6 0.6 0 0 0 38.490234 70.089844 L 38.490234 68.640625 A 0.6 0.6 0 0 0 37.900391 68.050781 L 37.759766 68.050781 A 0.59 0.59 0 0 0 37.71875 68.050781 z M 157.4707 70.369141 A 5.552 5.552 0 0 0 152.57031 74.369141 L 150 83.070312 A 0.56 0.56 0 0 0 150.68945 83.759766 L 150.69922 83.759766 L 159.43945 81.220703 A 5.553 5.553 0 0 0 163.43945 76.339844 A 5.493 5.493 0 0 0 161.81055 72 A 5.58 5.58 0 0 0 157.89062 70.369141 C 157.75063 70.359141 157.6107 70.359141 157.4707 70.369141 z M 33.757812 71.990234 A 0.59 0.59 0 0 0 33.199219 72.570312 L 33.199219 72.720703 A 0.59 0.59 0 0 0 33.789062 73.300781 L 35.25 73.300781 A 0.59 0.59 0 0 0 35.839844 72.720703 L 35.839844 72.570312 A 0.59 0.59 0 0 0 35.25 71.990234 L 33.789062 71.990234 A 0.59 0.59 0 0 0 33.757812 71.990234 z M 40.357422 71.990234 A 0.59 0.59 0 0 0 39.800781 72.570312 L 39.800781 72.720703 A 0.6 0.6 0 0 0 40.390625 73.300781 L 41.849609 73.300781 A 0.58 0.58 0 0 0 42.439453 72.720703 L 42.439453 72.570312 A 0.58 0.58 0 0 0 41.849609 71.990234 L 40.390625 71.990234 A 0.59 0.59 0 0 0 40.357422 71.990234 z M 37.759766 74.619141 A 0.59 0.59 0 0 0 37.169922 75.210938 L 37.169922 76.660156 A 0.579 0.579 0 0 0 37.759766 77.25 L 37.900391 77.25 A 0.591 0.591 0 0 0 38.490234 76.660156 L 38.490234 75.210938 A 0.6 0.6 0 0 0 37.900391 74.619141 L 37.759766 74.619141 z"/><path fill="#9DEFD6" d="m 126.48,99.89 a 6.762,6.762 0 0 1 -6.63,-8.079 6.764,6.764 0 0 1 5.311,-5.311 6.76,6.76 0 1 1 1.319,13.39 z m 0,-11.26 a 4.5,4.5 0 1 0 4.5,4.5 4.513,4.513 0 0 0 -4.5,-4.5 z"/><path fill="none" stroke="#202225" stroke-width="2" stroke-miterlimit="10" d="m 97.73,93.26 a 3.1,3.1 0 0 1 6.19,0"/><path fill="#FFD836" d="M 68.3,41.6 A 13.7,13.7 0 1 1 54.61,27.91 13.69,13.69 0 0 1 68.3,41.6 z"/><path fill="#A63A0C" d="m 50.63,36.21 a 1.61,1.61 0 1 0 -3.22,0 v 1.69 a 1.61,1.61 0 1 0 3.22,0 z m 11.16,0 a 1.61,1.61 0 1 0 -3.22,0 v 1.69 a 1.61,1.61 0 1 0 3.22,0 z"/><path fill="#36393F" d="m 49,42.38 h 11.19 v 1.29 A 5.58,5.58 0 0 1 54.61,49.25 5.578,5.578 0 0 1 49,43.68 z"/><path fill="#DE420D" d="m 54.61,49.26 a 5.59,5.59 0 0 0 5.35,-4 10.81,10.81 0 0 0 -10.71,0 5.59,5.59 0 0 0 5.36,4 z"/></svg>