<svg width="640" height="560" viewBox="0 0 640 560" xmlns="http://www.w3.org/2000/svg"><g fill="black"><path stroke-width="0.93541437" d="M 8 0 C 3.58172 -1.1842379e-15 0 3.134005 0 7 L 0 553 C 0 556.86575 3.58172 560 8 560 L 40 560 L 40 0 L 8 0 z M 20 8 A 12 12 0 0 1 32 20 A 12 12 0 0 1 20 32 A 12 12 0 0 1 8 20 A 12 12 0 0 1 20 8 z M 20 40 A 12 12 0 0 1 32 52 A 12 12 0 0 1 20 64 A 12 12 0 0 1 8 52 A 12 12 0 0 1 20 40 z M 20 72 A 12 12 0 0 1 32 84 A 12 12 0 0 1 20 96 A 12 12 0 0 1 8 84 A 12 12 0 0 1 20 72 z" opacity="0.8"/><circle cx="20" cy="20" r="12" opacity="0.1"/><circle cx="20" cy="52" r="12" opacity="0.1"/><circle cx="20" cy="84" r="12" opacity="0.1"/><path stroke-width="0.93541437" d="M 40 0 L 40 24 L 160 24 L 160 0 L 40 0 z M 50 8 L 150 8 C 151.108 8 152 8.892 152 10 L 152 14 C 152 15.108 151.108 16 150 16 L 50 16 C 48.892 16 48 15.108 48 14 L 48 10 C 48 8.892 48.892 8 50 8 z M 40 25 L 40 560 L 160 560 L 160 25 L 40 25 z M 50 33 L 94 33 C 95.108 33 96 33.892 96 35 L 96 39 C 96 40.108 95.108 41 94 41 L 50 41 C 48.892 41 48 40.108 48 39 L 48 35 C 48 33.892 48.892 33 50 33 z M 50 49 L 126 49 C 127.108 49 128 49.892 128 51 L 128 55 C 128 56.108 127.108 57 126 57 L 50 57 C 48.892 57 48 56.108 48 55 L 48 51 C 48 49.892 48.892 49 50 49 z M 50 65 L 118 65 C 119.108 65 120 65.892 120 67 L 120 71 C 120 72.108 119.108 73 118 73 L 50 73 C 48.892 73 48 72.108 48 71 L 48 67 C 48 65.892 48.892 65 50 65 z M 50 81 L 142 81 C 143.108 81 144 81.892 144 83 L 144 87 C 144 88.108 143.108 89 142 89 L 50 89 C 48.892 89 48 88.108 48 87 L 48 83 C 48 81.892 48.892 81 50 81 z M 50 105 L 94 105 C 95.108 105 96 105.892 96 107 L 96 111 C 96 112.108 95.108 113 94 113 L 50 113 C 48.892 113 48 112.108 48 111 L 48 107 C 48 105.892 48.892 105 50 105 z M 50 121 L 126 121 C 127.108 121 128 121.892 128 123 L 128 127 C 128 128.108 127.108 129 126 129 L 50 129 C 48.892 129 48 128.108 48 127 L 48 123 C 48 121.892 48.892 121 50 121 z M 50 137 L 118 137 C 119.108 137 120 137.892 120 139 L 120 143 C 120 144.108 119.108 145 118 145 L 50 145 C 48.892 145 48 144.108 48 143 L 48 139 C 48 137.892 48.892 137 50 137 z" opacity="0.6"/><rect x="48" y="33" width="48" height="8" rx="2" opacity="0.1"/><rect x="48" y="49" width="80" height="8" rx="2" opacity="0.1"/><rect x="48" y="65" width="72" height="8" rx="2" opacity="0.1"/><rect x="48" y="81" width="96" height="8" rx="2" opacity="0.1"/><rect x="48" y="105" width="48" height="8" rx="2" opacity="0.1"/><rect x="48" y="121" width="80" height="8" rx="2" opacity="0.1"/><rect x="48" y="137" width="72" height="8" rx="2" opacity="0.1"/><rect x="48" y="8" width="104" height="8" rx="2" opacity="0.1"/><rect x="40" y="24" width="120" height="1" opacity="0.1"/><path stroke-width="0.93541437" d="M 160 0 L 160 24 L 640 24 L 640 7 C 640 3.134005 636.418 0 632 0 L 160 0 z M 170 8 L 270 8 C 271.108 8 272 8.892 272 10 L 272 14 C 272 15.108 271.108 16 270 16 L 170 16 C 168.892 16 168 15.108 168 14 L 168 10 C 168 8.892 168.892 8 170 8 z M 602 8 L 606 8 C 607.108 8 608 8.892 608 10 L 608 14 C 608 15.108 607.108 16 606 16 L 602 16 C 600.892 16 600 15.108 600 14 L 600 10 C 600 8.892 600.892 8 602 8 z M 614 8 L 618 8 C 619.108 8 620 8.892 620 10 L 620 14 C 620 15.108 619.108 16 618 16 L 614 16 C 612.892 16 612 15.108 612 14 L 612 10 C 612 8.892 612.892 8 614 8 z M 626 8 L 630 8 C 631.108 8 632 8.892 632 10 L 632 14 C 632 15.108 631.108 16 630 16 L 626 16 C 624.892 16 624 15.108 624 14 L 624 10 C 624 8.892 624.892 8 626 8 z M 160 25 L 160 560 L 169.08398 560 A 8 8 0 0 1 168 556 A 8 8 0 0 1 176 548 A 8 8 0 0 1 184 556 A 8 8 0 0 1 182.91992 560 L 188 560 C 188 558.892 188.892 558 190 558 L 306 558 C 307.108 558 308 558.892 308 560 L 632 560 C 636.418 560 640 556.86575 640 553 L 640 25 L 160 25 z M 176 428 A 8 8 0 0 1 184 436 A 8 8 0 0 1 176 444 A 8 8 0 0 1 168 436 A 8 8 0 0 1 176 428 z M 190 430 L 226 430 C 227.108 430 228 430.892 228 432 C 228 433.108 227.108 434 226 434 L 190 434 C 188.892 434 188 433.108 188 432 C 188 430.892 188.892 430 190 430 z M 190 438 L 306 438 C 307.108 438 308 438.892 308 440 C 308 441.108 307.108 442 306 442 L 190 442 C 188.892 442 188 441.108 188 440 C 188 438.892 188.892 438 190 438 z M 176 460 A 8 8 0 0 1 184 468 A 8 8 0 0 1 176 476 A 8 8 0 0 1 168 468 A 8 8 0 0 1 176 460 z M 190 460 L 226 460 C 227.108 460 228 460.892 228 462 C 228 463.108 227.108 464 226 464 L 190 464 C 188.892 464 188 463.108 188 462 C 188 460.892 188.892 460 190 460 z M 190 468 L 346 468 C 347.108 468 348 468.892 348 470 C 348 471.108 347.108 472 346 472 L 190 472 C 188.892 472 188 471.108 188 470 C 188 468.892 188.892 468 190 468 z M 190 476 L 306 476 C 307.108 476 308 476.892 308 478 C 308 479.108 307.108 480 306 480 L 190 480 C 188.892 480 188 479.108 188 478 C 188 476.892 188.892 476 190 476 z M 176 496 A 8 8 0 0 1 184 504 A 8 8 0 0 1 176 512 A 8 8 0 0 1 168 504 A 8 8 0 0 1 176 496 z M 190 496 L 226 496 C 227.108 496 228 496.892 228 498 C 228 499.108 227.108 500 226 500 L 190 500 C 188.892 500 188 499.108 188 498 C 188 496.892 188.892 496 190 496 z M 190 504 L 266 504 C 267.108 504 268 504.892 268 506 C 268 507.108 267.108 508 266 508 L 190 508 C 188.892 508 188 507.108 188 506 C 188 504.892 188.892 504 190 504 z M 190 512 L 306 512 C 307.108 512 308 512.892 308 514 C 308 515.108 307.108 516 306 516 L 190 516 C 188.892 516 188 515.108 188 514 C 188 512.892 188.892 512 190 512 z M 190 520 L 246 520 C 247.108 520 248 520.892 248 522 C 248 523.108 247.108 524 246 524 L 190 524 C 188.892 524 188 523.108 188 522 C 188 520.892 188.892 520 190 520 z M 190 528 L 266 528 C 267.108 528 268 528.892 268 530 C 268 531.108 267.108 532 266 532 L 190 532 C 188.892 532 188 531.108 188 530 C 188 528.892 188.892 528 190 528 z M 190 550 L 226 550 C 227.108 550 228 550.892 228 552 C 228 553.108 227.108 554 226 554 L 190 554 C 188.892 554 188 553.108 188 552 C 188 550.892 188.892 550 190 550 z" opacity="0.4"/><rect x="168" y="8" width="104" height="8" rx="2" opacity="0.1"/><rect x="600" y="8" width="8" height="8" rx="2" opacity="0.1"/><rect x="612" y="8" width="8" height="8" rx="2" opacity="0.1"/><rect x="624" y="8" width="8" height="8" rx="2" opacity="0.1"/><rect x="160" y="24" width="480" height="1" opacity="0.1"/><circle cx="176" cy="436" r="8" opacity="0.1"/><rect x="188" y="430" width="40" height="4" rx="2" opacity="0.1"/><rect x="188" y="438" width="120" height="4" rx="2" opacity="0.1"/><circle cx="176" cy="468" r="8" opacity="0.1"/><rect x="188" y="460" width="40" height="4" rx="2" opacity="0.1"/><rect x="188" y="468" width="160" height="4" rx="2" opacity="0.1"/><rect x="188" y="476" width="120" height="4" rx="2" opacity="0.1"/><circle cx="176" cy="504" r="8" opacity="0.1"/><rect x="188" y="496" width="40" height="4" rx="2" opacity="0.1"/><rect x="188" y="504" width="80" height="4" rx="2" opacity="0.1"/><rect x="188" y="512" width="120" height="4" rx="2" opacity="0.1"/><rect x="188" y="520" width="60" height="4" rx="2" opacity="0.1"/><rect x="188" y="528" width="80" height="4" rx="2" opacity="0.1"/><circle cx="176" cy="556" r="8" opacity="0.1"/><rect x="188" y="550" width="40" height="4" rx="2" opacity="0.1"/><rect x="188" y="558" width="120" height="4" rx="2" opacity="0.1"/></g></svg>