<svg xmlns="http://www.w3.org/2000/svg" width="16" height="16" viewBox="0 0 24 24"><path fill="currentColor" d="M19.6, 9l-4.2-0.4c-0.4, 0-0.7-0.3-0.8-0.6l-1.6-3.9c-0.3-0.8-1.5-0.8-1.8, 0L9.4, 8.1C9.3, 8.4, 9, 8.6, 8.6, 8.7L4.4, 9 c-0.9, 0.1-1.2, 1.2-0.6, 1.8L7, 13.6c0.3, 0.2, 0.4, 0.6, 0.3, 1l-1, 4.1c-0.2, 0.9, 0.7, 1.5, 1.5, 1.1l3.6-2.2c0.3-0.2, 0.7-0.2, 1, 0l3.6, 2.2 c0.8, 0.5, 1.7-0.2, 1.5-1.1l-1-4.1c-0.1-0.4, 0-0.7, 0.3-1l3.2-2.8C20.9, 10.2, 20.5, 9.1, 19.6, 9z M12, 15.4l-3.8, 2.3l1-4.3l-3.3-2.9 l4.4-0.4l1.7-4l1.7, 4l4.4, 0.4l-3.3, 2.9l1, 4.3L12, 15.4z"/></svg>