<svg xmlns="http://www.w3.org/2000/svg" width="100" height="130" viewBox="0 0 100 130"><path opacity="0.6" fill="black" d="M 41 85.48 c 0-.54.015-1.04.045-1.5 l .09-1.35.09-1.335 c .03-.45.045-.925.045-1.425 0-.28-.06-.56-.18-.84-.12-.28-.34-.525-.66-.735-.32-.21-.76-.385-1.32-.525 s -1.27-.21-2.13-.21 v -1.8 c .86 0 1.57-.07 2.13-.21.56-.14 1-.315 1.32-.525.32-.21.54-.455.66-.735.12-.28.18-.56.18-.84 0-.96-.045-1.875-.135-2.745-.09-.87-.135-1.825-.135-2.865 0-.78.11-1.435.33-1.965.22-.53.56-.95 1.02-1.26.46-.31 1.04-.53 1.74-.66 s 1.52-.195 2.46-.195 h 1.95 v 1.68 h -1.47 c -.72 0-1.31.045-1.77.135-.46.09-.82.235-1.08.435-.26.2-.44.46-.54.78-.1.32-.15.72-.15 1.2 0 .84.03 1.7.09 2.58.06.88.09 1.78.09 2.7 0 1.02-.205 1.785-.615 2.295-.41.51-1.145.855-2.205 1.035 v .12 c 1.06.18 1.795.525 2.205 1.035.41.51.615 1.275.615 2.295 0 1-.03 1.905-.09 2.715-.06.81-.09 1.665-.09 2.565 0 .48.05.88.15 1.2.1.32.28.58.54.78.26.2.62.345 1.08.435.46.09 1.05.135 1.77.135 h 1.47 v 1.68 h -1.95 c -.94 0-1.76-.065-2.46-.195 s -1.28-.35-1.74-.66 c -.46-.31-.8-.73-1.02-1.26-.22-.53-.33-1.185-.33-1.965 z  m 12.97 2.4 c .72 0 1.315-.045 1.785-.135.47-.09.835-.235 1.095-.435 s .44-.46.54-.78 c .1-.32.15-.72.15-1.2 0-.9-.03-1.755-.09-2.565 s -.09-1.715-.09-2.715 c 0-1.02.2-1.785.6-2.295.4-.51 1.13-.855 2.19-1.035 v -.12 c -1.06-.18-1.79-.525-2.19-1.035-.4-.51-.6-1.275-.6-2.295 0-.92.03-1.82.09-2.7.06-.88.09-1.74.09-2.58 0-.48-.05-.88-.15-1.2-.1-.32-.28-.58-.54-.78-.26-.2-.625-.345-1.095-.435-.47-.09-1.065-.135-1.785-.135 H 52.5 v -1.68 h 1.95 c .96 0 1.785.065 2.475.195.69.13 1.265.35 1.725.66.46.31.8.73 1.02 1.26.22.53.33 1.185.33 1.965 0 1.04-.045 1.995-.135 2.865-.09.87-.135 1.785-.135 2.745 0 .28.06.56.18.84.12.28.34.525.66.735.32.21.755.385 1.305.525.55.14 1.265.21 2.145.21 v 1.8 c -.88 0-1.595.07-2.145.21-.55.14-.985.315-1.305.525-.32.21-.54.455-.66.735-.12.28-.18.56-.18.84 0 .5.015.975.045 1.425 l .09 1.335.09 1.35 c .03.46.045.96.045 1.5 0 .78-.11 1.435-.33 1.965-.22.53-.56.95-1.02 1.26-.46.31-1.035.53-1.725.66-.69.13-1.515.195-2.475.195 H 52.5 v -1.68 h 1.47 z"/></svg>