<svg xmlns="http://www.w3.org/2000/svg" width="184" height="110" viewBox="0 0 184 110"><path fill="#FFFFFF" d="M 65.384766 6.1933594 L 65.384766 7.8828125 L 59.048828 7.8828125 L 59.048828 15.486328 L 65.384766 15.486328 L 65.384766 17.175781 L 68.787109 17.175781 L 68.787109 20.974609 L 2 20.974609 L 2 93.328125 L 60.439453 93.328125 L 60.439453 99.269531 L 31.841797 99.269531 L 31.841797 102.74609 L 29.753906 102.74609 L 29.753906 107.61719 L 120.31641 107.4668 L 128.85156 107.4668 C 130.07456 107.4668 131.06445 106.47591 131.06445 105.25391 C 131.06445 104.03091 130.07456 103.04102 128.85156 103.04102 L 126.63867 103.04102 L 126.63867 93.328125 L 141.14258 93.328125 L 141.14258 86.029297 C 141.14581 86.029921 141.14911 86.030627 141.15234 86.03125 L 141.15234 89.222656 C 141.15234 89.724656 141.55855 90.130859 142.06055 90.130859 L 147.83203 90.130859 C 148.33403 90.130859 148.74023 89.724656 148.74023 89.222656 L 148.74023 86.044922 C 158.06822 84.269283 165.12109 76.077658 165.12109 66.232422 C 165.12109 55.088422 156.08831 46.056641 144.94531 46.056641 C 143.64478 46.056641 142.37462 46.184862 141.14258 46.419922 L 141.14258 20.974609 L 72.962891 20.974609 L 72.962891 17.175781 L 76.367188 17.175781 L 76.367188 15.486328 L 82.703125 15.486328 L 82.703125 7.8828125 L 76.367188 7.8828125 L 76.367188 6.1933594 L 65.384766 6.1933594 z M 84.789062 93.328125 L 120.31641 93.328125 L 120.31641 102.74609 L 118.10938 102.74609 L 118.10938 99.269531 L 84.789062 99.269531 L 84.789062 93.328125 z"/></svg>