<svg xmlns="http://www.w3.org/2000/svg" width="428" height="241" viewBox="0 0 428 241"><path opacity="0.6" fill="black" d="M 137.26953 2.2695312 L 125.78125 17.884766 C 125.82165 17.883366 125.86195 17.880359 125.90234 17.880859 C 126.90109 17.893779 127.89936 18.005897 128.88086 18.216797 C 132.07586 18.929297 134.93953 20.689197 137.01953 23.216797 C 137.14553 23.372997 137.23706 23.554047 137.28906 23.748047 C 137.34006 23.941947 137.35036 24.143697 137.31836 24.341797 C 137.28636 24.539797 137.21352 24.728584 137.10352 24.896484 C 136.99352 25.064283 136.84869 25.207906 136.67969 25.316406 L 130.67969 29.175781 C 130.45669 29.320885 130.19569 29.398084 129.92969 29.396484 L 128.76953 29.396484 C 128.64217 29.416834 128.51267 29.433712 128.38281 29.419922 C 128.05881 29.385522 127.75453 29.245131 127.51953 29.019531 C 126.95453 28.493031 126.26653 28.115522 125.51953 27.919922 C 125.2368 27.840112 124.94697 27.791738 124.65625 27.763672 C 124.0356 27.883323 123.44104 28.111001 122.91016 28.457031 L 120.83984 29.796875 L 113.46289 34.630859 L 99.839844 53.148438 C 102.37984 53.868538 105.84094 53.689297 107.71094 55.029297 C 109.09712 56.036889 109.98485 58.234606 110.96875 60.195312 C 114.14254 58.963296 117.72019 57.378063 121.5 55.544922 L 128.67188 45.794922 C 127.78462 45.962036 126.88183 46.055999 125.9707 46.056641 C 125.8915 46.056562 125.81302 46.048739 125.73438 46.042969 C 125.35778 46.072129 124.97916 46.090044 124.59961 46.089844 C 122.42261 46.086944 120.27369 45.601875 118.30469 44.671875 C 116.33569 43.741875 114.59594 42.388884 113.21094 40.708984 C 113.08294 40.553984 112.98855 40.373486 112.93555 40.179688 C 112.88255 39.985886 112.87134 39.784436 112.90234 39.585938 C 112.93434 39.387436 113.00719 39.197497 113.11719 39.029297 C 113.22619 38.861097 113.37006 38.717675 113.53906 38.609375 L 119.53906 34.759766 C 119.81606 34.586365 120.1457 34.510575 120.4707 34.546875 C 120.7957 34.583175 121.09808 34.728684 121.33008 34.958984 C 122.13208 35.699784 123.15809 36.149228 124.24609 36.236328 C 125.33409 36.323328 126.42108 36.043353 127.33008 35.439453 L 130.2207 33.570312 L 139.0293 27.830078 L 140.25 27.048828 C 140.994 26.573128 141.85136 26.306691 142.73438 26.275391 C 142.82978 26.271991 142.92445 26.283056 143.01953 26.285156 L 143.04102 26.255859 C 143.01742 26.255249 142.9943 26.2503 142.9707 26.25 L 142.9707 26.216797 L 143.07031 26.216797 L 152.26953 13.708984 C 152.18353 13.204884 151.98545 12.726094 151.68945 12.308594 C 149.74945 9.6986416 143.94984 10.839169 141.33984 8.9492188 C 139.56984 7.6592179 138.62953 4.4495317 137.26953 2.2695312 z M 217.08008 7.46875 C 220.08008 14.66879 229.67945 16.46875 229.68945 16.46875 C 225.48945 18.86875 215.89066 15.869141 215.89062 15.869141 C 231.89918 29.803457 245.21226 23.318686 248.61914 21.238281 L 251.16602 10.03125 C 229.54429 18.227221 217.08008 7.46875 217.08008 7.46875 z M 125.75195 17.925781 L 125.73438 17.949219 C 126.32926 18.004529 126.92281 18.082682 127.50977 18.208984 C 130.70377 18.923684 133.56839 20.683184 135.65039 23.208984 C 135.78339 23.365984 135.87955 23.549947 135.93555 23.748047 C 135.96235 23.844507 135.97797 23.943481 135.98438 24.042969 C 135.97938 23.932204 135.96535 23.822106 135.93555 23.714844 C 135.87955 23.516744 135.78339 23.332781 135.65039 23.175781 C 133.56839 20.649981 130.70377 18.890481 127.50977 18.175781 C 126.9287 18.050749 126.34111 17.977699 125.75195 17.925781 z M 245.30078 18.548828 C 245.27078 18.518828 239.5207 26.190078 229.9707 19.830078 C 229.9707 19.830078 238.59078 22.388828 245.30078 18.548828 z M 151.49023 21.330078 L 147.17773 27.191406 C 147.64588 27.541897 148.05221 27.971255 148.36914 28.466797 L 148.41016 28.466797 C 148.76416 29.007297 149.00695 29.611094 149.12695 30.246094 C 149.24598 30.880994 149.23749 31.534016 149.10352 32.166016 C 148.97052 32.797916 148.71366 33.397588 148.34766 33.929688 C 147.98066 34.461787 147.5137 34.915025 146.9707 35.265625 L 136.0332 42.341797 L 129.23438 51.583984 C 134.6147 48.680607 140.16254 45.384044 145.46289 41.873047 L 155.66992 27.888672 C 154.06992 26.378672 152.20945 24.909219 151.68945 23.199219 C 151.51445 22.592419 151.44723 21.960378 151.49023 21.330078 z M 146.62695 27.941406 L 146.61328 27.958984 C 146.66168 28.014094 146.71576 28.063821 146.76172 28.121094 C 146.71432 28.063154 146.67612 27.997858 146.62695 27.941406 z M 146.79688 28.169922 C 146.92292 28.330991 147.04268 28.497343 147.14844 28.673828 C 147.59973 29.427015 147.83891 30.286344 147.84766 31.164062 C 147.84768 31.158162 147.84961 31.152404 147.84961 31.146484 C 147.84361 30.263283 147.60244 29.398325 147.14844 28.640625 C 147.04705 28.471438 146.91934 28.322708 146.79688 28.169922 z M 120.28906 34.505859 L 121.58984 34.505859 C 121.96384 34.518159 122.31984 34.667581 122.58984 34.925781 C 123.16284 35.441781 123.84684 35.817891 124.58984 36.025391 C 124.82122 36.090191 125.05778 36.130156 125.29492 36.160156 C 124.94847 36.207626 124.59879 36.231325 124.24609 36.203125 C 123.15809 36.116025 122.13208 35.666581 121.33008 34.925781 C 121.09808 34.695481 120.7957 34.549972 120.4707 34.513672 C 120.4098 34.506872 120.34996 34.522438 120.28906 34.523438 L 120.28906 34.505859 z M 142.08984 46.492188 C 137.5064 49.402437 132.27328 52.44781 126.43164 55.394531 L 122.35938 60.929688 C 123.06037 60.635587 123.81031 60.472419 124.57031 60.449219 C 126.37031 60.449219 128.32047 61.730334 130.23047 62.740234 L 142.08984 46.492188 z M 119.03906 58.890625 C 116.73566 59.921849 114.3847 60.935697 111.93359 61.902344 C 111.93159 61.903323 111.93073 61.903271 111.92773 61.904297 C 112.5521 62.850863 113.26433 63.579702 114.17969 63.818359 C 114.55769 63.917259 114.94984 63.952622 115.33984 63.919922 L 119.03906 58.890625 z M 118.11914 84.318359 C 117.52914 84.318359 116.94539 84.436863 116.40039 84.664062 C 115.85539 84.891163 115.36131 85.223278 114.94531 85.642578 C 114.52931 86.061878 114.20052 86.560422 113.97852 87.107422 C 113.75552 87.654322 113.64539 88.239778 113.65039 88.830078 L 138.56055 88.830078 C 138.56555 88.242278 138.45538 87.658281 138.23438 87.113281 C 138.01437 86.568281 137.68739 86.071244 137.27539 85.652344 C 136.86239 85.233444 136.37108 84.900775 135.83008 84.671875 C 135.28808 84.442975 134.70714 84.322359 134.11914 84.318359 L 118.11914 84.318359 z M 248.66016 88.148438 C 249.33916 88.148438 249.9907 88.418338 250.4707 88.898438 C 250.9507 89.378536 251.2207 90.029984 251.2207 90.708984 L 251.24023 90.708984 C 251.24023 91.044684 251.17393 91.3775 251.04492 91.6875 C 250.91592 91.9975 250.72723 92.278725 250.49023 92.515625 C 250.25223 92.752535 249.9682 92.940859 249.6582 93.068359 C 249.3472 93.195959 249.01569 93.260766 248.67969 93.259766 L 361.7207 93.259766 C 360.2197 91.644366 358.40091 90.355963 356.37891 89.476562 C 354.35691 88.597262 352.1757 88.144537 349.9707 88.148438 L 248.66016 88.148438 z M 205.55664 93.244141 C 205.59154 93.247741 205.62504 93.257566 205.66016 93.259766 L 205.76953 93.259766 C 205.69783 93.260866 205.62765 93.248861 205.55664 93.244141 z M 208.2207 93.259766 L 208.2207 94.539062 L 243.99023 96.458984 L 243.99023 93.259766 L 208.2207 93.259766 z M 216.38086 94.119141 L 243.14062 94.119141 L 243.14062 95.548828 L 216.38086 94.119141 z M 43.720703 148.83984 C 42.483603 148.83984 41.480469 149.84115 41.480469 151.07812 C 41.480469 152.31512 42.483603 153.31836 43.720703 153.31836 C 44.957803 153.31836 45.960933 152.31517 45.960938 151.07812 C 45.960938 149.84114 44.957803 148.83984 43.720703 148.83984 z M 381.91992 161.7793 C 380.50592 161.7793 379.35931 162.92684 379.35938 164.33984 C 379.35938 165.75384 380.50592 166.89844 381.91992 166.89844 C 383.33392 166.89844 384.48047 165.75384 384.48047 164.33984 C 384.48047 162.92684 383.33392 161.7793 381.91992 161.7793 z M 393.31055 167.12891 C 392.25055 167.12891 391.39066 167.98883 391.39062 169.04883 C 391.39062 170.10983 392.25055 170.96875 393.31055 170.96875 C 394.37055 170.96875 395.23047 170.10983 395.23047 169.04883 C 395.23047 167.98883 394.37055 167.12891 393.31055 167.12891 z M 363.85938 184.66992 C 361.92138 184.66992 360.34961 186.24169 360.34961 188.17969 C 360.34961 190.11869 361.92135 191.68945 363.85938 191.68945 C 365.79836 191.68945 367.36914 190.11869 367.36914 188.17969 C 367.36914 186.24169 365.79835 184.66992 363.85938 184.66992 z"/><path opacity="0.4" fill="black" d="m 151.28125,11.861335 c 0.14992,0.135659 0.2868,0.283937 0.4082,0.447266 -0.12125,-0.163122 -0.25852,-0.311789 -0.4082,-0.447266 z m -6.39844,30.384766 c -0.99915,0.657194 -2.00434,1.306889 -3.01758,1.947265 1.01284,-0.639968 2.01841,-1.290514 3.01758,-1.947265 z m -13.78515,2.3125 c -0.0973,0.04807 -0.19272,0.100634 -0.29102,0.146484 0.0983,-0.04608 0.19372,-0.09818 0.29102,-0.146484 z m 5.70898,2.732421 c -0.97389,0.57752 -1.94674,1.144545 -2.91992,1.701172 0.9728,-0.556594 1.94637,-1.12374 2.91992,-1.701172 z m -3.98828,2.308594 c -1.19965,0.677133 -2.39643,1.343734 -3.58398,1.984375 1.18721,-0.640673 2.38489,-1.307336 3.58398,-1.984375 z m -7.99414,4.289063 c -0.99809,0.5079 -1.98343,0.999949 -2.95703,1.474609 0.97374,-0.47473 1.96039,-0.967949 2.95703,-1.474609 z m -6.56055,3.183593 c -0.2469,0.11382 -0.48606,0.220852 -0.73047,0.332032 0.24424,-0.11111 0.48379,-0.218342 0.73047,-0.332032 z M 243.9707,93.261726 v 3.199218 l -35.75,-1.917968 v 20.988284 h -20.4414 c -1.013,0.008 -1.98132,0.41476 -2.69532,1.13476 -0.714,0.719 -1.11328,1.69208 -1.11328,2.70508 v 3.91992 h -6.41992 v -1.83008 c 0,-0.586 -0.23444,-1.1485 -0.64844,-1.5625 -0.415,-0.415 -0.9765,-0.64843 -1.5625,-0.64843 H 164.7793 c -0.338,0 -0.6705,0.0673 -0.98242,0.19726 -0.31201,0.13 -0.59599,0.32055 -0.83399,0.56055 -0.238,0.24 -0.42769,0.52489 -0.55469,0.83789 -0.127,0.312 -0.1905,0.64741 -0.1875,0.98437 v 8.49024 h 39.58985 v -8.03906 c 0,-0.748 0.29717,-1.46514 0.82617,-1.99414 0.529,-0.529 1.24614,-0.82618 1.99414,-0.82618 h 11.03906 V 106.0918 c 0.003,-2.215 0.88417,-4.34025 2.45117,-5.90625 1.568,-1.565139 3.69221,-2.443356 5.90821,-2.443356 2.214,0 4.33829,0.879361 5.90429,2.445316 1.566,1.566 2.44727,3.69029 2.44727,5.90429 v 13.36914 h 2.09961 c 0.749,0 1.46705,0.29718 1.99805,0.82618 0.53,0.528 0.82903,1.24614 0.83203,1.99414 v 2.91992 h 6.67968 V 93.261726 Z m -27.60937,0.859375 26.75976,1.429687 v -0.002 l -26.74023,-1.427734 z m 2.89844,7.378909 c -0.13724,0.14261 -0.26755,0.29024 -0.39063,0.44336 0.12296,-0.15297 0.25354,-0.30085 0.39063,-0.44336 z m -0.58399,0.70312 c -0.0833,0.11462 -0.16469,0.23029 -0.24023,0.34961 0.0755,-0.11931 0.15698,-0.235 0.24023,-0.34961 z m -0.41016,0.63477 c -0.0708,0.12525 -0.13484,0.25341 -0.19726,0.38281 0.0624,-0.12952 0.12646,-0.25745 0.19726,-0.38281 z m -0.32226,0.64453 c -0.0883,0.20541 -0.16721,0.41352 -0.23438,0.62695 0.0669,-0.21285 0.14649,-0.42212 0.23438,-0.62695 z m 20.9375,3.19726 c 0.834,0 1.50977,0.67577 1.50976,1.50977 v 5.2793 c 3e-5,0.834 -0.67576,1.50976 -1.50976,1.50976 -0.834,0 -1.51172,-0.67576 -1.51172,-1.50976 v -5.2793 c 0,-0.834 0.67772,-1.50977 1.51172,-1.50977 z m -0.004,1.87891 c -0.353,0 -0.63867,0.28763 -0.63867,0.64063 0,0.007 0.004,0.0127 0.004,0.0195 0.007,-0.34731 0.28981,-0.62696 0.63867,-0.62696 0.34606,0 0.62378,0.27572 0.63476,0.61914 8e-5,-0.004 0.002,-0.008 0.002,-0.0117 0,-0.353 -0.28763,-0.64063 -0.64063,-0.64063 z m 0.004,1.95117 c -0.0737,0 -0.14105,0.02 -0.20703,0.043 0.0655,-0.0227 0.13391,-0.041 0.20703,-0.041 0.0882,0 0.1715,0.0164 0.24805,0.0488 -0.0764,-0.0323 -0.1598,-0.0508 -0.24805,-0.0508 z m 0.24805,0.0508 c 0.0765,0.0324 0.14518,0.0807 0.20312,0.13868 -0.058,-0.0583 -0.1262,-0.10617 -0.20312,-0.13868 z m -0.58008,0.0547 c -0.0419,0.0261 -0.0864,0.0492 -0.1211,0.084 0.0347,-0.0347 0.0792,-0.0579 0.1211,-0.084 z m -21.14844,8.84375 v 0.002 h 13.25977 v -0.002 z m 181.06055,48.67969 c 0.0136,0.26086 -1.8e-4,0.519 -0.0254,0.77539 -0.01,0.10819 -0.0189,0.21516 -0.0352,0.32227 -0.0334,0.20837 -0.0797,0.4143 -0.13672,0.61718 -0.0444,0.16182 -0.0951,0.31956 -0.15429,0.47656 -5.2e-4,0.001 -9.6e-4,0.003 -0.002,0.004 l 4.46485,0.25391 c -0.19645,-0.30118 -0.3125,-0.66024 -0.3125,-1.04688 0,-0.43851 0.15277,-0.83879 0.40039,-1.16211 z m 4.49609,2.87109 -0.40039,6.90235 2.25977,-0.75586 0.34179,-5.97071 c -0.28721,0.17111 -0.61999,0.27539 -0.97851,0.27539 -0.467,0 -0.88976,-0.17391 -1.22266,-0.45117 z m -14.29883,0.86914 -2.7832,4.76563 c 0.012,-2.2e-4 0.0231,-0.004 0.0352,-0.004 0.82509,0 1.52347,0.52307 1.79492,1.25391 l 2.77734,-4.75586 c -0.21914,-0.11947 -0.43984,-0.2384 -0.64258,-0.38867 z m -0.85742,6.97657 c -0.13011,0.83748 -0.79751,1.48877 -1.64062,1.5996 l 3.35742,1.9629 c 0.33704,-0.20256 0.69539,-0.37327 1.07422,-0.5 0.10118,-0.0337 0.20421,-0.0583 0.30664,-0.0859 l -0.008,-0.0234 1.25,-0.41797 z m -36.41016,17.89453 c -1.70699,0.014 -3.33996,0.70206 -4.54296,1.91406 -1.202,1.212 -1.87696,2.84964 -1.87696,4.55664 v 2.48047 h 29.33985 v -2.48047 c 0,-1.716 -0.68349,-3.36022 -1.89649,-4.57422 -1.213,-1.213 -2.85822,-1.89648 -4.57422,-1.89648 z m 7.26954,3.83007 c 0.177,0 0.32031,0.14432 0.32031,0.32032 0,0.177 -0.14331,0.32031 -0.32031,0.32031 -0.177,0 -0.32032,-0.14331 -0.32032,-0.32031 0,-0.176 0.14332,-0.32028 0.32032,-0.32032 z m 9.58007,0 c 0.177,0 0.32032,0.14432 0.32032,0.32032 0,0.177 -0.14332,0.32031 -0.32032,0.32031 -0.177,0 -0.32031,-0.14331 -0.32031,-0.32031 0,-0.176 0.14331,-0.32028 0.32031,-0.32032 z m -9.58007,2.56055 c 0.177,0 0.32031,0.14431 0.32031,0.32031 0,0.177 -0.14331,0.32032 -0.32031,0.32032 -0.177,0 -0.32032,-0.14332 -0.32032,-0.32032 0,-0.176 0.14332,-0.32031 0.32032,-0.32031 z m 9.58007,0 c 0.177,0 0.32032,0.14431 0.32032,0.32031 0,0.177 -0.14332,0.32032 -0.32032,0.32032 -0.177,0 -0.32031,-0.14332 -0.32031,-0.32032 0,-0.176 0.14331,-0.32031 0.32031,-0.32031 z"/><path opacity="0.1" fill="black" d="M 375.05664 148.77734 C 374.45764 148.83234 373.90453 149.12489 373.51953 149.58789 L 370.96484 152.66406 C 370.57984 153.12706 370.39322 153.72327 370.44922 154.32227 C 370.50422 154.92227 370.79677 155.47537 371.25977 155.85938 L 371.67383 156.20312 C 371.80757 155.84202 371.98598 155.49868 372.23047 155.19922 L 376.23047 150.35938 C 376.47863 150.06124 376.78283 149.82101 377.11328 149.62109 L 376.7168 149.29102 C 376.2538 148.90602 375.65664 148.72134 375.05664 148.77734 z M 381.84961 159.1582 C 381.80997 159.1602 381.77017 159.16597 381.73047 159.16797 C 381.58532 159.17567 381.43989 159.18414 381.29492 159.20312 C 380.67882 159.28364 380.08848 159.47074 379.54102 159.74023 C 379.2682 159.87453 379.00364 160.02454 378.75586 160.20117 C 378.30886 160.51982 377.90766 160.90516 377.56641 161.34766 L 376.42188 162.84375 L 363.13477 180.18945 L 363.13672 180.18945 C 363.41057 180.16375 363.68441 180.15034 363.95898 180.15234 C 364.99961 180.16234 366.03717 180.37406 367.01367 180.78906 C 368.96667 181.61906 370.50973 183.1902 371.30273 185.1582 C 371.4312 185.47644 371.53135 185.80228 371.61719 186.13086 L 371.61719 186.13281 C 371.63674 186.20827 371.65454 186.28351 371.67188 186.35938 C 371.67233 186.36137 371.67337 186.36323 371.67383 186.36523 C 371.74638 186.68177 371.80245 187.00087 371.83594 187.32227 C 371.83662 187.32886 371.83917 187.3352 371.83984 187.3418 L 385.48242 169.53125 L 386.49414 168.21094 C 386.83427 167.76667 387.10403 167.27804 387.29688 166.76367 L 387.29688 166.76172 C 387.61831 165.90341 387.72797 164.97249 387.60547 164.04688 C 387.48297 163.12187 387.13384 162.25092 386.59961 161.50586 C 386.38592 161.20784 386.14313 160.92878 385.87305 160.67578 C 385.738 160.54928 385.59539 160.42991 385.44727 160.31641 C 384.41214 159.52453 383.14103 159.1174 381.84961 159.1582 z M 381.92773 161.76953 C 383.34173 161.76953 384.48828 162.91708 384.48828 164.33008 C 384.48828 165.74408 383.34173 166.88867 381.92773 166.88867 C 380.51373 166.88867 379.36719 165.74408 379.36719 164.33008 C 379.36715 162.91708 380.51373 161.76953 381.92773 161.76953 z M 364.27344 184.70117 C 364.32214 184.70686 364.37185 184.70914 364.41992 184.7168 C 364.3719 184.70908 364.32209 184.70692 364.27344 184.70117 z M 364.82812 184.81055 C 364.87676 184.82446 364.92491 184.83953 364.97266 184.85547 C 364.92475 184.83943 364.87693 184.82455 364.82812 184.81055 z M 366.5332 185.91016 C 366.5554 185.93633 366.57622 185.96341 366.59766 185.99023 C 366.5762 185.96343 366.55543 185.93631 366.5332 185.91016 z"/><path opacity="0.2" fill="black" d="M 378.68555 149.11133 C 378.21255 149.14133 377.75117 149.26742 377.32812 149.48242 C 376.90612 149.69642 376.53347 149.99537 376.23047 150.35938 L 372.23047 155.19922 C 371.93247 155.56422 371.71108 155.9855 371.58008 156.4375 C 371.44908 156.8895 371.41175 157.36112 371.46875 157.82812 C 371.52575 158.29512 371.67711 158.7473 371.91211 159.1543 C 372.14811 159.5623 372.46384 159.91722 372.83984 160.19922 L 375.10156 161.86914 L 360.52148 180.90234 C 358.72945 181.73393 357.29823 183.19379 356.52148 185.02148 L 351.53711 196.74805 L 367.83984 196.74805 C 368.19202 196.74805 368.53967 196.78565 368.88281 196.8418 L 371.24609 191.28125 C 372.07609 189.32925 372.09673 187.1252 371.30273 185.1582 C 370.50973 183.1902 368.96667 181.61906 367.01367 180.78906 C 366.03717 180.37406 364.99961 180.16234 363.95898 180.15234 C 363.68441 180.14984 363.41057 180.16378 363.13672 180.18945 L 363.13477 180.18945 L 376.42188 162.84375 L 377.56641 161.34766 C 378.47641 160.16766 379.81792 159.39613 381.29492 159.20312 C 381.43989 159.18412 381.58532 159.17564 381.73047 159.16797 C 381.77018 159.16587 381.80998 159.15949 381.84961 159.1582 C 383.14103 159.11737 384.41214 159.52453 385.44727 160.31641 C 386.63227 161.22441 387.40947 162.56688 387.60547 164.04688 C 387.80147 165.52787 387.40214 167.02494 386.49414 168.21094 L 385.48242 169.53125 L 389.83984 172.74805 C 390.94884 173.57005 392.32822 173.9393 393.69922 173.7793 C 395.07022 173.6193 396.3307 172.94367 397.2207 171.88867 C 398.1067 170.82267 398.55089 169.45917 398.46289 168.07617 C 398.37589 166.69317 397.763 165.39522 396.75 164.44922 L 381.2793 150.03906 C 380.9333 149.71606 380.52416 149.46664 380.07812 149.30664 C 379.63214 149.14764 379.15855 149.08133 378.68555 149.11133 z M 393.31055 167.12891 C 394.37055 167.12891 395.23047 167.98883 395.23047 169.04883 C 395.23047 170.10983 394.37055 170.96875 393.31055 170.96875 C 392.25055 170.96875 391.39063 170.10983 391.39062 169.04883 C 391.39067 167.98883 392.25055 167.12891 393.31055 167.12891 z M 404.17969 167.61914 C 403.11969 167.61914 402.25977 168.47906 402.25977 169.53906 C 402.25977 170.60006 403.11969 171.45898 404.17969 171.45898 C 405.23969 171.45898 406.09961 170.60006 406.09961 169.53906 C 406.09961 168.47906 405.23969 167.61914 404.17969 167.61914 z M 385.91016 176.63867 C 384.85016 176.63867 383.99023 177.49859 383.99023 178.55859 C 383.99023 179.61959 384.85016 180.47852 385.91016 180.47852 C 386.97016 180.47852 387.83008 179.61959 387.83008 178.55859 C 387.83008 177.49859 386.97016 176.63867 385.91016 176.63867 z M 363.85938 184.66992 C 365.79834 184.66992 367.36914 186.24169 367.36914 188.17969 C 367.36914 188.44155 367.33558 188.69399 367.28125 188.93945 C 367.20694 189.27517 367.07494 189.58697 366.91211 189.87891 C 366.70071 190.25792 366.42499 190.58937 366.09375 190.86523 C 366.05617 190.89698 366.01937 190.92882 365.98047 190.95898 C 365.89027 191.02793 365.79991 191.09421 365.70312 191.1543 C 365.59565 191.2221 365.48214 191.28198 365.36719 191.33789 C 365.27877 191.38018 365.18998 191.42016 365.09766 191.45508 C 364.95656 191.50936 364.81153 191.55422 364.66211 191.58984 C 364.60129 191.60413 364.54051 191.61587 364.47852 191.62695 C 364.27686 191.66356 364.07211 191.68945 363.85938 191.68945 C 361.92136 191.68945 360.34961 190.11869 360.34961 188.17969 C 360.34961 187.93592 360.37649 187.69853 360.42383 187.46875 C 360.44102 187.38563 360.47311 187.30936 360.49609 187.22852 C 360.53714 187.08352 360.57424 186.9375 360.63281 186.80078 C 360.65197 186.75622 360.68025 186.71742 360.70117 186.67383 C 360.78098 186.50699 360.86658 186.34241 360.9707 186.19141 C 361.10073 186.00285 361.24863 185.82933 361.41211 185.66992 C 361.41211 185.66992 361.41211 185.66797 361.41211 185.66797 C 361.65546 185.43085 361.94037 185.24095 362.24414 185.08203 C 362.47307 184.96227 362.71363 184.86606 362.96875 184.79883 C 362.99524 184.79185 363.02014 184.78176 363.04688 184.77539 C 363.12177 184.75754 363.19677 184.74344 363.27344 184.73047 C 363.46502 184.69807 363.65859 184.66992 363.85938 184.66992 z M 363.52148 205.69922 L 364.87305 206.27344 L 365.11719 205.69922 L 363.52148 205.69922 z"/><path opacity="1" fill="black" d="M 119.84766 0.00390625 C 119.70099 -0.0029059185 119.55452 -0.00082135031 119.41016 0.009765625 L 114.9707 0.009765625 L 114.97266 0.025390625 C 115.10618 0.017008435 115.23963 0.0051465845 115.375 0.01171875 C 118.27316 0.15240175 121.58156 3.5292969 124.53906 3.5292969 C 125.27908 3.5292969 126.04876 3.3212567 126.83008 3.015625 C 124.49324 2.070309 122.04762 0.10608878 119.84766 0.00390625 z M 134.16016 0.048828125 L 134.16016 0.0703125 C 134.42204 0.076232382 134.67986 0.10066248 134.92969 0.16992188 C 136.88567 0.71217286 137.91363 3.4257786 139.0957 5.7910156 C 138.49269 4.5953486 137.92574 3.3213942 137.26953 2.2695312 C 138.59092 4.3876359 139.52232 7.4633339 141.19727 8.8203125 C 141.19938 8.8220475 141.20102 8.8244138 141.20312 8.8261719 C 141.25545 8.8698122 141.30516 8.9195914 141.35938 8.9589844 C 141.51655 9.0732448 141.68616 9.1759213 141.86523 9.2695312 C 144.28958 10.519961 148.53152 10.046558 150.80078 11.496094 C 151.1559 11.720024 151.46542 11.990006 151.71094 12.320312 C 153.40844 14.60407 151.36824 18.815508 151.50195 21.943359 C 151.51366 22.202497 151.54502 22.458033 151.59375 22.712891 C 151.59425 22.715557 151.5952 22.718037 151.5957 22.720703 C 151.6269 22.886827 151.66114 23.052225 151.71094 23.208984 C 152.71094 26.358984 158.16016 28.670234 158.16016 31.990234 C 158.16016 32.199172 158.13786 32.404809 158.09766 32.607422 C 159.33656 31.588196 160.54585 30.566131 161.68359 29.541016 C 160.05779 27.387567 156.83728 25.531317 156.11914 23.199219 C 155.11914 20.049219 158.05914 14.918594 156.11914 12.308594 C 154.17914 9.6985518 148.3893 10.839259 145.7793 8.9492188 C 143.1693 7.059218 142.37961 1.0001563 139.34961 0.16015625 C 139.09761 0.09353655 138.84008 0.055290025 138.58008 0.048828125 L 134.16016 0.048828125 z M 151.28125 11.861328 C 151.43093 11.996805 151.5682 12.145472 151.68945 12.308594 C 151.56805 12.145265 151.43117 11.996987 151.28125 11.861328 z M 108.44922 14.740234 L 108.76953 15.558594 L 108.44922 16.378906 L 109.26953 16.058594 L 110.08984 16.378906 L 109.7793 15.558594 L 110.08984 14.740234 L 109.26953 15.048828 L 108.44922 14.740234 z M 105.91016 16.439453 L 105.25977 17.919922 L 103.7793 18.580078 L 103.7793 18.638672 L 105.25977 19.298828 C 105.25977 19.298828 105.25953 19.320078 105.26953 19.330078 L 105.9707 20.830078 L 106.0293 20.830078 L 106.68945 19.349609 L 108.16992 18.689453 L 108.16992 18.628906 L 106.68945 17.96875 L 105.9707 16.439453 L 105.91016 16.439453 z M 125.90234 17.880859 C 125.86195 17.880359 125.82165 17.883366 125.78125 17.884766 L 125.75195 17.925781 C 126.34111 17.977699 126.9287 18.050749 127.50977 18.175781 C 130.70377 18.890481 133.56839 20.649981 135.65039 23.175781 C 135.78339 23.332781 135.87955 23.516744 135.93555 23.714844 C 135.96232 23.811208 135.97232 23.910396 135.97852 24.009766 C 135.97947 24.02097 135.98365 24.031748 135.98438 24.042969 C 135.99116 24.1478 135.98763 24.253216 135.9707 24.357422 C 135.9387 24.560622 135.86205 24.754581 135.74805 24.925781 C 135.63505 25.097081 135.48555 25.241509 135.31055 25.349609 L 129.31055 29.208984 C 129.14457 29.311565 128.95993 29.366068 128.76953 29.396484 L 129.92969 29.396484 C 130.19569 29.398084 130.45669 29.320885 130.67969 29.175781 L 136.67969 25.316406 C 136.84869 25.207906 136.99352 25.064283 137.10352 24.896484 C 137.21352 24.728584 137.28636 24.539797 137.31836 24.341797 C 137.35036 24.143697 137.34006 23.941947 137.28906 23.748047 C 137.23706 23.554047 137.14553 23.372997 137.01953 23.216797 C 134.93953 20.689197 132.07586 18.929297 128.88086 18.216797 C 127.89936 18.005897 126.90109 17.893779 125.90234 17.880859 z M 125.74023 17.941406 C 125.71483 17.942543 125.68946 17.942359 125.66406 17.943359 C 125.83893 17.958793 126.01299 17.981902 126.1875 18.001953 C 126.03643 17.98451 125.88569 17.963289 125.73438 17.949219 L 125.74023 17.941406 z M 142.9707 26.216797 L 142.9707 26.25 C 142.9943 26.2503 143.01742 26.255249 143.04102 26.255859 L 143.07031 26.216797 L 142.9707 26.216797 z M 143.0293 26.271484 L 143.01953 26.285156 C 143.80487 26.302595 144.57733 26.494846 145.26953 26.871094 C 145.7821 27.14964 146.23115 27.523876 146.61328 27.958984 L 146.62695 27.941406 C 146.67612 27.997858 146.71432 28.063154 146.76172 28.121094 C 146.77427 28.136734 146.78451 28.154124 146.79688 28.169922 C 146.79948 28.173172 146.80208 28.17644 146.80469 28.179688 C 146.92475 28.329065 147.0492 28.475037 147.14844 28.640625 C 147.60244 29.398325 147.84361 30.263283 147.84961 31.146484 C 147.84961 31.151105 147.8482 31.155588 147.84766 31.160156 C 147.8475 31.161441 147.84766 31.162767 147.84766 31.164062 C 147.84771 31.169322 147.84957 31.174426 147.84961 31.179688 C 147.84897 31.998114 147.64534 32.802656 147.25391 33.521484 C 146.86091 34.243284 146.29061 34.854328 145.59961 35.298828 L 137.23242 40.712891 L 137.20117 40.753906 L 132.59961 43.730469 C 131.45658 44.477569 130.21895 45.049356 128.92773 45.447266 L 128.94336 45.425781 C 127.90356 45.749215 126.82935 45.956784 125.73828 46.042969 C 125.81562 46.048708 125.89281 46.056563 125.9707 46.056641 C 126.88183 46.055999 127.78462 45.962036 128.67188 45.794922 L 128.62695 45.857422 C 130.52245 45.506508 132.34114 44.792561 133.9707 43.730469 L 135.95703 42.445312 L 136.0332 42.341797 L 146.9707 35.265625 C 147.5137 34.915025 147.98066 34.461787 148.34766 33.929688 C 148.71366 33.397588 148.97052 32.797916 149.10352 32.166016 C 149.23749 31.534016 149.24598 30.880994 149.12695 30.246094 C 149.00695 29.611094 148.76416 29.007297 148.41016 28.466797 L 148.36914 28.466797 C 148.05221 27.971255 147.64588 27.541897 147.17773 27.191406 L 147.15234 27.226562 C 146.97526 27.095796 146.79195 26.973322 146.59766 26.867188 C 145.87767 26.473889 145.07 26.269984 144.25 26.271484 L 143.0293 26.271484 z M 123.97266 27.740234 C 123.79909 27.747905 123.62563 27.764691 123.45312 27.791016 C 122.76315 27.896216 122.10453 28.148097 121.51953 28.529297 L 119.51953 29.830078 L 114.68945 32.962891 L 114.66016 33.001953 L 108.61914 36.919922 C 108.07614 37.271222 107.46998 37.512206 106.83398 37.628906 C 106.54887 37.681266 106.25942 37.699372 105.9707 37.701172 L 105.9707 37.75 L 107.35938 37.75 C 108.29335 37.7433 109.20723 37.470036 109.99023 36.960938 L 113.38477 34.736328 L 113.46289 34.630859 L 120.83984 29.796875 L 122.91016 28.457031 C 123.44104 28.111001 124.0356 27.883323 124.65625 27.763672 C 124.42874 27.741707 124.20126 27.730131 123.97266 27.740234 z M 162.56836 31.34375 C 162.56219 31.349068 162.56284 31.348171 162.55664 31.353516 C 160.70529 32.950606 156.3935 36.638987 149.97852 41.189453 C 150.9066 40.530207 151.80255 39.886024 152.64258 39.265625 C 152.25616 39.759801 151.94444 40.261495 151.76953 40.779297 C 150.75953 43.769297 153.61953 49.189922 151.76953 51.669922 C 149.91953 54.149922 144.02969 53.139297 141.42969 55.029297 C 138.82969 56.919297 138.1007 62.770078 134.9707 63.830078 C 134.67923 63.928788 134.37969 63.967715 134.07617 63.978516 L 138.48047 63.978516 L 138.48047 63.925781 C 138.79891 63.917945 139.11395 63.881287 139.41992 63.779297 C 142.56992 62.729297 143.29039 56.880234 145.90039 54.990234 C 148.51039 53.100234 154.39023 54.108906 156.24023 51.628906 C 158.09023 49.148906 155.24023 43.720234 156.24023 40.740234 C 157.24023 37.760234 162.63086 35.269219 162.63086 31.949219 C 162.63086 31.743687 162.60844 31.541763 162.56836 31.34375 z M 120.28906 34.505859 L 120.28906 34.523438 C 120.34996 34.522438 120.4098 34.506872 120.4707 34.513672 C 120.7957 34.549972 121.09808 34.695481 121.33008 34.925781 C 122.13208 35.666581 123.15809 36.116025 124.24609 36.203125 C 124.59879 36.231325 124.94847 36.207626 125.29492 36.160156 C 125.05778 36.130156 124.82122 36.090191 124.58984 36.025391 C 123.84684 35.817891 123.16284 35.441781 122.58984 34.925781 C 122.31984 34.667581 121.96384 34.518159 121.58984 34.505859 L 120.28906 34.505859 z M 145.94922 41.542969 C 145.79236 41.647663 145.63389 41.751148 145.47656 41.855469 L 145.47461 41.857422 L 145.46289 41.873047 C 145.62701 41.764331 145.78563 41.652084 145.94922 41.542969 z M 144.88281 42.246094 C 143.88364 42.902845 142.87807 43.553391 141.86523 44.193359 C 142.87847 43.552983 143.88366 42.903288 144.88281 42.246094 z M 131.09766 44.558594 C 131.00034 44.606893 130.90493 44.659 130.80664 44.705078 C 130.9049 44.659229 131.00036 44.606665 131.09766 44.558594 z M 141.26758 44.572266 C 140.04673 45.337797 138.82011 46.091335 137.58984 46.828125 C 138.82055 46.091192 140.04662 45.338006 141.26758 44.572266 z M 136.80664 47.291016 C 135.83309 47.868445 134.85952 48.435594 133.88672 48.992188 C 134.8599 48.435561 135.83275 47.868535 136.80664 47.291016 z M 132.81836 49.599609 C 131.61927 50.276648 130.42161 50.943315 129.23438 51.583984 C 130.42195 50.943347 131.61871 50.276742 132.81836 49.599609 z M 124.82422 53.888672 C 123.82758 54.395326 122.84093 54.888547 121.86719 55.363281 C 122.84079 54.888619 123.82613 54.396569 124.82422 53.888672 z M 118.26367 57.072266 C 118.01699 57.185957 117.77744 57.29319 117.5332 57.404297 C 117.77761 57.293118 118.01677 57.186087 118.26367 57.072266 z M 114.9668 58.542969 C 114.87202 58.583932 114.77788 58.623567 114.68359 58.664062 C 114.68424 58.665385 114.6849 58.666646 114.68555 58.667969 C 114.77662 58.628984 114.87524 58.582425 114.9668 58.542969 z M 119.75781 58.560547 C 118.38239 59.183752 116.98997 59.80181 115.56055 60.404297 C 115.56164 60.406417 115.56336 60.408037 115.56445 60.410156 C 116.7384 59.9102 117.89502 59.402808 119.03906 58.890625 C 119.28226 58.781746 119.51588 58.669841 119.75781 58.560547 z M 124.58984 60.458984 C 121.71456 60.458984 118.40682 63.495674 115.61719 63.888672 L 119.46094 63.888672 C 121.66114 63.888672 124.2485 61.903669 126.70703 60.933594 C 126.38584 60.804814 126.06775 60.702668 125.75195 60.621094 C 125.74931 60.620431 125.74678 60.6198 125.74414 60.619141 C 125.74289 60.618818 125.74149 60.619462 125.74023 60.619141 C 125.35224 60.522318 124.96731 60.458984 124.58984 60.458984 z M 238.47656 72.136719 C 237.33448 72.136719 236.38247 72.697229 236.16211 73.443359 C 236.13063 73.549949 236.11328 73.660365 236.11328 73.773438 C 236.11328 74.678008 237.17132 75.412109 238.47656 75.412109 L 247.83984 75.412109 C 249.14508 75.412109 250.20117 74.678005 250.20117 73.773438 C 250.20117 72.868865 249.14508 72.136719 247.83984 72.136719 L 238.47656 72.136719 z M 196.30859 72.146484 C 195.16651 72.146484 194.2145 72.708575 193.99414 73.455078 C 193.96266 73.561722 193.94531 73.672085 193.94531 73.785156 C 193.94531 74.689727 195.00335 75.421875 196.30859 75.421875 L 224.60156 75.421875 C 225.9068 75.421875 226.96484 74.689727 226.96484 73.785156 C 226.96484 72.880585 225.9068 72.146484 224.60156 72.146484 L 196.30859 72.146484 z M 61.039062 87.037109 C 60.755904 87.037109 60.527344 87.265669 60.527344 87.548828 C 60.527344 87.831987 60.755903 88.0625 61.039062 88.0625 C 61.322221 88.0625 61.552734 87.831987 61.552734 87.548828 C 61.552734 87.265669 61.322223 87.037109 61.039062 87.037109 z M 205.66016 88.148438 C 205.30316 88.149438 204.951 88.225844 204.625 88.371094 C 204.299 88.516394 204.00853 88.727576 203.76953 88.992188 C 203.52953 89.256687 203.34833 89.569503 203.23633 89.908203 C 203.12533 90.246903 203.08414 90.603984 203.11914 90.958984 C 203.20014 91.601284 203.51686 92.190834 204.00586 92.615234 C 204.49486 93.039634 205.12253 93.269766 205.76953 93.259766 L 248.67969 93.259766 C 249.01569 93.260766 249.3472 93.195969 249.6582 93.068359 C 249.9682 92.940859 250.25223 92.752535 250.49023 92.515625 C 250.72723 92.278725 250.91592 91.9975 251.04492 91.6875 C 251.17392 91.3775 251.24023 91.044684 251.24023 90.708984 L 251.2207 90.708984 C 251.2207 90.029984 250.9507 89.378538 250.4707 88.898438 C 249.9907 88.418338 249.33916 88.148438 248.66016 88.148438 L 205.66016 88.148438 z M 61.259766 92.148438 L 57.710938 92.580078 C 57.641537 92.592678 57.576697 92.627384 57.529297 92.679688 C 57.488367 92.734087 57.471669 92.801741 57.480469 92.869141 L 57.580078 93.728516 C 57.589478 93.791316 57.620369 93.850578 57.667969 93.892578 C 57.715469 93.934678 57.776344 93.957284 57.839844 93.958984 L 61.429688 93.529297 C 61.496988 93.518597 61.557609 93.483288 61.599609 93.429688 C 61.623899 93.404984 61.641844 93.374797 61.652344 93.341797 C 61.662744 93.308794 61.665856 93.274434 61.660156 93.240234 L 61.550781 92.378906 C 61.545781 92.316106 61.517003 92.257544 61.470703 92.214844 C 61.424303 92.172244 61.363781 92.148235 61.300781 92.148438 L 61.259766 92.148438 z M 224.0293 99.458984 C 222.2713 99.461584 220.5887 100.1613 219.3457 101.4043 C 218.56883 102.18117 218.00431 103.1301 217.68945 104.16211 L 217.68945 104.16406 C 217.56381 104.5763 217.4772 105.00285 217.43359 105.43555 C 217.41176 105.65221 217.40077 105.87022 217.40039 106.08984 L 217.40039 119.45898 L 230.66016 119.45898 L 230.66016 106.08984 C 230.65716 104.33284 229.95784 102.6473 228.71484 101.4043 C 227.47184 100.1613 225.7863 99.461584 224.0293 99.458984 z M 238.88086 106.67969 C 238.04686 106.67969 237.36914 107.35545 237.36914 108.18945 L 237.36914 113.46875 C 237.36914 114.30275 238.04686 114.97852 238.88086 114.97852 C 239.71486 114.97852 240.39063 114.30275 240.39062 113.46875 L 240.39062 108.18945 C 240.39062 107.35545 239.71486 106.67969 238.88086 106.67969 z M 238.87695 108.55859 C 239.22995 108.55859 239.51758 108.84622 239.51758 109.19922 C 239.51758 109.55322 239.22995 109.83984 238.87695 109.83984 C 238.52395 109.83984 238.23828 109.55322 238.23828 109.19922 C 238.23828 108.84622 238.52395 108.55859 238.87695 108.55859 z M 238.88086 110.50977 C 239.23386 110.50977 239.51953 110.79544 239.51953 111.14844 C 239.51953 111.50244 239.23386 111.78906 238.88086 111.78906 C 238.52786 111.78906 238.24023 111.50244 238.24023 111.14844 C 238.24023 110.79544 238.52786 110.50977 238.88086 110.50977 z M 281.53711 210.18164 C 281.10863 210.19504 280.67863 210.2273 280.25 210.2793 L 280.92969 219.35938 C 281.65469 219.21035 282.40395 219.21266 283.12695 219.36914 C 283.84995 219.52614 284.53286 219.83353 285.13086 220.26953 L 290.00977 212.61914 C 287.50114 210.93389 284.5365 210.08815 281.53711 210.18164 z M 254.51953 218.85938 C 252.22653 219.93237 250.39714 221.79638 249.36914 224.10938 L 255.36914 227.10938 C 255.54714 226.59735 255.83117 226.12842 256.20117 225.73242 C 256.57217 225.33542 257.02053 225.02059 257.51953 224.80859 L 254.51953 218.85938 z M 268.32031 223.43945 L 262.32031 226.43945 C 262.66531 227.03145 262.84761 227.70367 262.84961 228.38867 C 262.85061 228.66467 262.82077 228.93998 262.75977 229.20898 L 268.79102 230.1875 C 269.56557 232.00055 270.70768 233.64152 272.16016 234.99805 L 278.32031 228.33984 C 277.98531 228.02184 277.69594 227.65777 277.46094 227.25977 C 277.11294 226.68377 276.8803 226.04491 276.7793 225.37891 L 269.49805 227.69141 C 269.40435 226.20861 269.01798 224.75757 268.32031 223.43945 z M 286.58984 227.09961 C 286.14284 227.92461 285.48269 228.61561 284.67969 229.09961 C 284.36369 229.28861 284.02869 229.44159 283.67969 229.55859 L 286.9707 237.99805 C 287.7917 237.69505 288.58384 237.32091 289.33984 236.87891 C 291.34884 235.67191 293.034 233.99228 294.25 231.98828 L 286.58984 227.09961 z M 257.53906 231.97852 L 256.11719 238.01953 L 261.75 238.0293 L 259.9707 232.11914 C 259.6457 232.21114 259.3087 232.25877 258.9707 232.25977 C 258.4807 232.25977 257.99306 232.16357 257.53906 231.97852 z"/><path opacity="0.8" fill="black" d="m 115.375,0.01171875 c -0.41402,-0.02009757 -0.81984,0.02695309 -1.21484,0.15820313 -3.16,1.04999702 -3.77969,6.76906252 -6.42969,8.78906252 -2.65,2.0200396 -8.579689,0.8812916 -10.429689,3.3613276 -1.85,2.480001 1.01,7.898672 0,10.888672 -1.01,2.99 -6.390625,5.471016 -6.390625,8.791016 0,3.32 5.470703,5.639063 6.470703,8.789062 1,3.15 -1.94,8.29062 0,10.890626 0.555861,0.744967 1.434223,1.177447 2.458985,1.46875 l 13.544926,-18.41211 -3.39454,2.22461 c -0.783,0.5091 -1.69687,0.782362 -2.63085,0.789062 h -1.38868 v -0.04883 c 0.28872,-0.0018 0.57817,-0.01991 0.86328,-0.07227 0.636,-0.1167 1.24216,-0.357684 1.78516,-0.708984 l 6.04102,-3.917969 0.0293,-0.03906 -6.07031,3.935547 c -0.543,0.3513 -1.14916,0.592284 -1.78516,0.708984 -0.636,0.116804 -1.28987,0.108256 -1.92187,-0.02734 -0.633,-0.1356 -1.23067,-0.394519 -1.76367,-0.761719 -0.532,-0.3673 -0.98689,-0.835906 -1.33789,-1.378906 -0.351,-0.543 -0.59199,-1.149056 -0.70899,-1.785156 -0.117,-0.6361 -0.1067,-1.289475 0.0293,-1.921875 0.135,-0.6324 0.39276,-1.231272 0.75976,-1.763672 0.36702,-0.5323 0.83591,-0.988544 1.37891,-1.339844 l 12.75,-8.259765 c 1.675,-1.1062 3.55434,-1.867382 5.52735,-2.238282 0.98649,-0.185452 1.98757,-0.270872 2.98632,-0.257812 0.37795,0.0049 0.75428,0.03708 1.13086,0.07031 0.0254,-10e-4 0.0508,-8.63e-4 0.0762,-0.002 l 11.5293,-15.6718748 c 0.65621,1.0518625 1.22316,2.3258167 1.82617,3.5214844 -1.18207,-2.3652376 -2.21003,-5.07884205 -4.16601,-5.62109372 -3.03,-0.84000004 -7.01063,3.35937502 -10.39063,3.35937502 -2.9575,0 -6.2659,-3.37689513 -9.16406,-3.51757815 z m 25.16797,8.15429685 c 0.0916,0.1096757 0.18495,0.2156771 0.28125,0.3144532 -0.0959,-0.099379 -0.19004,-0.2041789 -0.28125,-0.3144532 z m 0.6543,0.6542969 c 0.0489,0.039654 0.0923,0.09228 0.14257,0.1289063 0.16313,0.1181219 0.33907,0.2242107 0.52539,0.3203124 -0.17907,-0.09361 -0.34868,-0.1962867 -0.50585,-0.3105468 -0.0564,-0.040976 -0.1074,-0.093872 -0.16211,-0.1386719 z m 9.60351,2.6757815 c 0.3468,0.221525 0.64757,0.488134 0.88867,0.8125 0.296,0.4175 0.49408,0.89629 0.58008,1.40039 l -9.24023,12.5625 h 1.2207 c 0.82,-0.0015 1.62767,0.202406 2.34766,0.595704 0.19429,0.106135 0.3776,0.228607 0.55468,0.359374 l 4.33789,-5.896484 c -0.014,0.204882 0.002,0.408958 0.0117,0.613281 -0.13371,-3.127851 1.90649,-7.339294 0.20899,-9.623047 -0.24552,-0.330306 -0.55504,-0.600288 -0.91016,-0.824218 z m -42.35156,3.24414 0.82031,0.308594 0.82031,-0.308594 -0.31054,0.81836 0.31054,0.820312 -0.82031,-0.320312 -0.82031,0.320312 0.32031,-0.820312 z m -2.53906,1.699219 h 0.0605 l 0.71875,1.529297 1.48047,0.660156 v 0.06055 l -1.48047,0.660156 -0.66015,1.480469 h -0.0586 l -0.70117,-1.5 c -0.0102,-0.01 -0.01,-0.03125 -0.01,-0.03125 l -1.48047,-0.660156 v -0.05859 l 1.48047,-0.660156 z m 139.39062,2.109375 c -6.71,3.84 -15.33008,1.28125 -15.33008,1.28125 9.55,6.36 15.30008,-1.31125 15.33008,-1.28125 z m -93.70703,4.164063 c 0.031,0.162393 0.0497,0.326929 0.0957,0.486328 0.52,1.71 2.38047,3.179453 3.98047,4.689453 l -10.20703,13.984375 c 4.4871,-2.972289 8.78037,-6.094726 12.63477,-9.265625 0.0402,-0.202613 0.0625,-0.40825 0.0625,-0.617188 0,-3.32 -5.44922,-5.63125 -6.44922,-8.78125 -0.0506,-0.159275 -0.0856,-0.327275 -0.11719,-0.496093 z m 1.04883,16.552734 c -2.96999,2.193475 -6.4929,4.649963 -10.55078,7.226563 l -11.85352,16.238281 c 1.65406,0.885504 3.27506,1.593156 4.73242,1.099609 3.13,-1.06 3.85899,-6.910781 6.45899,-8.800781 2.6,-1.89 8.48984,-0.879375 10.33984,-3.359375 1.85,-2.48 -1.01,-7.900625 0,-10.890625 0.17491,-0.517802 0.48663,-1.019496 0.87305,-1.513672 z m -15.41016,1.447266 -4.63281,2.996093 c -1.13844,0.744105 -2.37072,1.316925 -3.65625,1.716797 l -0.0156,0.02148 c 1.29122,-0.39791 2.52885,-0.969697 3.67188,-1.716797 l 4.60156,-2.976563 z m -1.27539,1.732421 -1.98633,1.285157 c -1.6301,1.062442 -3.44953,1.776162 -5.3457,2.126953 l -7.12695,9.689453 c 2.50523,-1.214951 5.09402,-2.537026 7.73633,-3.962891 z m 10.20313,5.884766 0.82031,0.31836 0.82031,-0.31836 -0.32031,0.81836 0.32031,0.820312 -0.82031,-0.308594 -0.82031,0.308594 0.31054,-0.820312 z m -40.13477,5.935547 c 0.0269,0.0077 0.0515,0.01749 0.0781,0.02539 -0.0266,-0.0079 -0.0513,-0.01765 -0.0781,-0.02539 z m 0.83008,0.296875 c 0.0469,0.02002 0.0929,0.04143 0.13867,0.0625 -0.0457,-0.02112 -0.0919,-0.04242 -0.13867,-0.0625 z m 19.57617,0.832031 c -2.36007,1.190497 -4.8429,2.354615 -7.39258,3.496094 l -3.69922,5.029297 c -0.39,0.0327 -0.78215,-0.0027 -1.16015,-0.101563 -0.0954,-0.02487 -0.18227,-0.07035 -0.27344,-0.105468 0.0974,0.03985 0.19076,0.08885 0.29297,0.117187 3.03,0.84 7.01062,-3.371094 10.39062,-3.371094 0.38125,0 0.77016,0.06362 1.16211,0.16211 -0.39924,-0.103128 -0.7944,-0.171875 -1.18164,-0.171875 -0.76,0.0232 -1.50995,0.186366 -2.21093,0.480469 z m -0.5293,5.261719 c 0.0798,0.02212 0.16015,0.0528 0.24024,0.07813 -0.0801,-0.02588 -0.1605,-0.05544 -0.24024,-0.07813 z m 110.74805,9.699219 c -1.47381,0 -2.66992,1.529308 -2.66992,3.417969 0,1.88866 1.19611,3.419921 2.66992,3.419921 h 13.01563 c 1.47381,0 2.66796,-1.531261 2.66796,-3.419921 0,-1.888661 -1.19415,-3.417969 -2.66796,-3.417969 z m -42.16797,0.0098 c -1.47381,0 -2.66992,1.531262 -2.66992,3.419922 0,1.88866 1.19611,3.417969 2.66992,3.417969 h 31.94531 c 1.47381,0 2.66797,-1.529309 2.66797,-3.417969 0,-1.88866 -1.19416,-3.419922 -2.66797,-3.419922 z m 43.99414,1.771485 h 9.36328 c 1.30524,0 2.36133,0.732146 2.36133,1.636719 0,0.904567 -1.05609,1.638671 -2.36133,1.638671 h -9.36328 c -1.30524,0 -2.36328,-0.734101 -2.36328,-1.638671 0,-0.904573 1.05804,-1.636719 2.36328,-1.636719 z m -42.16797,0.0098 h 28.29297 c 1.30524,0 2.36328,0.734101 2.36328,1.638672 0,0.904571 -1.05804,1.636719 -2.36328,1.636719 h -28.29297 c -1.30524,0 -2.36328,-0.732148 -2.36328,-1.636719 0,-0.904571 1.05804,-1.638672 2.36328,-1.638672 z M 61.039062,86.517578 c -0.569932,0 -1.03125,0.461318 -1.03125,1.03125 0,0.569932 0.461318,1.033203 1.03125,1.033203 0.569933,0 1.033204,-0.463271 1.033204,-1.033203 0,-0.569932 -0.463272,-1.03125 -1.033204,-1.03125 z m 0,0.519531 c 0.283159,0 0.513672,0.22856 0.513672,0.511719 0,0.283159 -0.230509,0.513672 -0.513672,0.513672 -0.283158,0 -0.511718,-0.230513 -0.511718,-0.513672 0,-0.283159 0.22856,-0.511719 0.511718,-0.511719 z m 0.140626,4.761719 -3.560547,0.429688 c -0.1578,0.02 -0.300838,0.102815 -0.398438,0.228515 -0.0975,0.1256 -0.140894,0.283607 -0.121094,0.441407 l 0.09961,0.871093 c 0.0193,0.1458 0.09087,0.279553 0.201172,0.376953 0.1103,0.0974 0.25329,0.151244 0.40039,0.152344 h 0.169922 l 3.5,-0.46875 c 0.1585,-0.02 0.301291,-0.101362 0.400391,-0.226562 0.0991,-0.1253 0.145906,-0.28456 0.128906,-0.44336 l -0.09961,-0.861328 c -0.017,-0.1477 -0.08872,-0.283412 -0.199219,-0.382812 -0.1105,-0.0995 -0.292806,-0.115688 -0.441406,-0.117188 z m 0.08008,0.34961 h 0.04102 c 0.063,-2.03e-4 0.123522,0.02381 0.169922,0.06641 0.0463,0.0427 0.07508,0.101262 0.08008,0.164062 l 0.109375,0.861328 c 0.0057,0.0342 0.0026,0.06856 -0.0078,0.101563 -0.0105,0.033 -0.02844,0.06319 -0.05273,0.08789 -0.042,0.0536 -0.102621,0.08891 -0.169921,0.09961 l -3.589844,0.429687 c -0.0635,-0.0017 -0.124375,-0.02431 -0.171875,-0.06641 -0.0476,-0.042 -0.07849,-0.101262 -0.08789,-0.164062 l -0.09961,-0.859375 c -0.0088,-0.0674 0.0079,-0.135054 0.04883,-0.189453 0.0474,-0.0523 0.11224,-0.08701 0.181641,-0.09961 z m 182.730462,1.111328 v 31.939454 h 1.29102 V 93.259766 Z m 35.375,0 v 26.199214 h 1.29102 V 93.259766 Z m 39.625,0 v 26.199214 h 1.29102 V 93.259766 Z m -102.60937,0.859375 26.75976,1.429687 V 94.119141 Z M 69.429688,94.410156 49.910156,96.830078 c -0.1712,0.0197 -0.337881,0.07185 -0.488281,0.15625 -0.1503,0.0844 -0.280619,0.198184 -0.386719,0.333984 -0.1061,0.135903 -0.185069,0.292685 -0.230468,0.458985 -0.0454,0.1663 -0.05746,0.338765 -0.03516,0.509765 L 49.9707,108.35938 c 0.0368,0.319 0.188031,0.61412 0.427735,0.82812 0.239699,0.214 0.549893,0.33203 0.871093,0.33203 h 0.160157 L 70.9707,107.13867 c 0.1716,-0.019 0.337481,-0.0723 0.488281,-0.15625 0.1508,-0.084 0.283825,-0.19898 0.390625,-0.33398 0.1069,-0.136 0.185822,-0.29103 0.232422,-0.45703 0.0465,-0.166 0.05801,-0.33972 0.03711,-0.51172 L 70.890625,95.558594 c -0.039,-0.3173 -0.194194,-0.608513 -0.433594,-0.820313 -0.2395,-0.2118 -0.547487,-0.328125 -0.867187,-0.328125 z m 0.04102,0.34961 h 0.119141 c 0.2412,-0.0028 0.474403,0.08208 0.658203,0.238281 0.1837,0.1562 0.305697,0.372828 0.341797,0.611328 l 1.230468,10.109375 c 0.0314,0.26 -0.04032,0.52052 -0.199218,0.72852 -0.1588,0.207 -0.391791,0.34387 -0.650391,0.38085 l -19.509765,2.3711 h -0.121094 c -0.2412,0.003 -0.474503,-0.0813 -0.658203,-0.23828 -0.1838,-0.156 -0.305597,-0.37233 -0.341797,-0.61133 L 49.109375,98.240234 c -0.0312,-0.2609 0.04223,-0.524717 0.203125,-0.732422 0.161,-0.2077 0.397803,-0.344006 0.658203,-0.378906 z M 224.0293,97.740234 c -2.216,0 -4.34021,0.878188 -5.90821,2.443356 -1.567,1.566 -2.44817,3.69125 -2.45117,5.90625 v 13.36914 h 1.73047 v -13.36914 c 0.003,-1.757 0.70231,-3.44254 1.94531,-4.68554 1.243,-1.243 2.9256,-1.942716 4.6836,-1.945316 1.757,0.0026 3.44254,0.702316 4.68554,1.945316 1.243,1.243 1.94232,2.92854 1.94532,4.68554 v 13.36914 h 1.7207 v -13.36914 c 0,-2.214 -0.88127,-4.33829 -2.44727,-5.90429 -1.566,-1.565924 -3.69029,-2.445316 -5.90429,-2.445316 z"/></svg>