<svg xmlns="http://www.w3.org/2000/svg" width="95" height="60"><path fill="#FFFFFF" d="M 47.515625,0 38.898438,8.6152344 38.302734,7.359375 c -0.116255,-0.1758852 -0.116255,-0.4041929 0,-0.5800781 l 1.09961,-2.3183594 c 0.05757,-0.1683926 0.05757,-0.3511387 0,-0.5195313 -0.174,-0.29 -0.521141,-0.4650156 -0.869141,-0.2910156 l -2.316406,1.1015625 c -0.175885,0.1162546 -0.404193,0.1162546 -0.580078,0 l -2.31836,-1.1015625 c -0.168405,-0.057494 -0.351126,-0.057494 -0.519531,0 -0.29,0.174 -0.465015,0.5211407 -0.291016,0.8691406 l 1.101563,2.3183594 c 0.116255,0.1758853 0.116255,0.4041929 0,0.5800782 L 32.507812,9.734375 c -0.0581,0.1889944 -0.0581,0.391084 0,0.580078 0.174,0.29 0.579141,0.463063 0.869141,0.289063 l 2.318359,-1.0996098 c 0.173,-0.116 0.405485,-0.1165937 0.521485,-0.058594 l 1.255859,0.5976565 -4.328125,4.326172 V 34.59375 L 47.515625,48.90625 61.884766,34.535156 V 14.369141 Z m 31.84375,8.4765625 C 78.905812,8.4739531 78.443141,8.5615 77.994141,8.75 v -0.00195 c -1.738,0.754 -2.607516,2.7821251 -1.853516,4.5781251 l 0.619141,1.5 c -0.344393,-0.22498 -0.74232,-0.342807 -1.199219,-0.457031 l 0.0332,0.07813 c -0.631026,-0.111952 -1.301932,-0.05722 -1.945312,0.21289 -1.738001,0.753 -2.607516,2.780172 -1.853516,4.576172 l 1.054687,2.546875 c -0.0039,0.0016 -0.0078,0.0023 -0.01172,0.0039 h -0.002 c -0.20461,0.08213 -0.401619,0.196718 -0.585938,0.316407 -0.02486,0.01631 -0.04986,0.03197 -0.07422,0.04883 -0.04926,0.03361 -0.105195,0.06557 -0.15039,0.09961 l 0.0078,0.01953 c -1.225783,0.94688 -1.73751,2.595569 -1.109375,4.09375 l 2.894531,6.994141 c -5.469382,2.483061 -9.037109,7.952421 -9.037109,13.980469 v 0.002 2.490234 0.984375 c -1.796,-0.232 -3.418797,1.04325 -3.591797,2.78125 -0.232,1.738 1.04325,3.360797 2.78125,3.591797 l 21.554688,2.783203 c 1.739,0.232 3.361796,-1.04225 3.591797,-2.78125 0.233,-1.738 -1.041297,-3.36075 -2.779297,-3.59375 v -0.984375 c 0,-3.476 0.927015,-6.836609 2.666015,-9.849609 l 3.824219,-6.490234 c 1.391,-2.433 2.086531,-5.156501 2.144531,-7.9375 v -7.417969 -7.242188 c -0.0047,-1.919195 -1.55932,-3.473851 -3.478515,-3.478515 -1.926957,-0.0149 -3.492548,1.551567 -3.476563,3.478515 v 10.103516 c -0.01031,-0.0054 -0.02091,-0.01031 -0.03125,-0.01563 L 82.513672,10.603516 c -0.522,-1.3042504 -1.79361,-2.1191254 -3.154297,-2.1269535 z m -63.658203,0.050781 c -1.339313,-0.00539 -2.620797,0.7877656 -3.185547,2.1347652 l -5.4316406,13.06836 c -0.00909,0.0045 -0.018281,0.0091 -0.027344,0.01367 L 7.0097656,13.675781 C 7.005106,11.757345 5.451636,10.203003 3.5332031,10.197266 c -1.9184329,0.0057 -3.47190286,1.560079 -3.47656248,3.478515 v 7.242188 H 0 v 7.417969 c 0.05883224,2.788213 0.8156172,5.517205 2.2011719,7.9375 l 3.8242187,6.490234 c 1.739,3.013 2.6660156,6.373609 2.6660156,9.849609 v 1 C 6.9835142,53.87355 5.7393708,55.47304 5.96875,57.191406 c 0.232,1.739 1.8537969,3.015203 3.5917969,2.783203 L 31.115234,57.191406 c 1.738,-0.173 3.01325,-1.794797 2.78125,-3.591797 -0.232,-1.737 -1.853797,-3.01325 -3.591796,-2.78125 l -0.05859,0.0078 v -0.994141 -2.492187 -0.05664 h -0.002 C 30.221669,41.250177 26.632057,35.783357 21.136719,33.324219 l 2.851562,-6.958985 c 0.623005,-1.437958 0.164897,-3.064796 -1.02539,-4.013672 l 0.04102,-0.09961 V 22.25 c -0.249499,-0.187985 -0.52186,-0.343526 -0.810547,-0.462891 l -0.03125,0.07422 c -0.0099,-0.0042 -0.01742,-0.01146 -0.02734,-0.01563 -0.01275,-0.0055 -0.02628,-0.0064 -0.03906,-0.01172 l 1.083985,-2.654296 c 0.753,-1.739 -0.05947,-3.766532 -1.855469,-4.519532 -1.030529,-0.446226 -2.156422,-0.33253 -3.064453,0.199219 l 0.630859,-1.53125 c 0.753,-1.739 -0.05947,-3.7665312 -1.855469,-4.5195312 -0.43475,-0.1882501 -0.887547,-0.2794532 -1.333984,-0.28125 z"/></svg>