<svg xmlns="http://www.w3.org/2000/svg" width="40" height="40" viewBox="0 0 40 40"><path d="M 16.324219 0 C 15.329719 0 14.377028 0.3943943 13.673828 1.0976562 C 12.970528 1.8009162 12.574219 2.75544 12.574219 3.75 C 12.561919 3.8538 12.561919 3.9587 12.574219 4.0625 C 12.574219 4.0664937 12.576159 4.0702264 12.576172 4.0742188 L 12.5625 4.0878906 L 11.212891 5.4375 L 2.2617188 5.4375 C 1.0121786 5.4375 -2.9605947e-16 6.4496788 0 7.6992188 L 0 37.738281 C 0 38.987881 1.0121787 40 2.2617188 40 L 30.6875 40 C 31.937 40 32.949219 38.987881 32.949219 37.738281 L 32.949219 27.023438 L 36.617188 23.355469 L 36.621094 23.359375 L 37.761719 22.21875 L 37.757812 22.214844 L 40.003906 19.966797 L 35.205078 15.167969 L 32.957031 17.414062 L 32.953125 17.410156 L 32.949219 17.414062 L 32.949219 7.6992188 C 32.949219 6.4496787 31.937 5.4375 30.6875 5.4375 L 21.433594 5.4375 L 20.074219 4.0742188 L 20.072266 4.0722656 C 20.072275 4.0689274 20.074219 4.0658391 20.074219 4.0625 C 20.086319 3.96286 20.086319 3.8613587 20.074219 3.7617188 C 20.075919 3.2682087 19.980669 2.7806287 19.792969 2.3242188 C 19.605169 1.8677987 19.328869 1.4530556 18.980469 1.1035156 C 18.632069 0.75396565 18.219472 0.47634536 17.763672 0.28710938 C 17.307872 0.09787287 16.817719 -2.74168e-06 16.324219 0 z M 16.337891 2.125 C 16.775491 2.125 17.194506 2.2979919 17.503906 2.6074219 C 17.813406 2.9168619 17.988281 3.3377806 17.988281 3.7753906 C 17.994381 3.8042406 17.994381 3.8344314 17.988281 3.8632812 L 17.962891 3.8632812 C 17.962891 4.0741071 17.920717 4.2787412 17.84375 4.4707031 C 17.756864 4.6628817 17.633177 4.8371841 17.476562 4.984375 C 17.165463 5.276755 16.751019 5.4359412 16.324219 5.4257812 C 15.901719 5.4293413 15.495153 5.2682625 15.189453 4.9765625 C 14.883753 4.6848725 14.7038 4.2855014 14.6875 3.8632812 C 14.6814 3.8344314 14.6814 3.8042406 14.6875 3.7753906 C 14.6875 3.3377806 14.860522 2.9168619 15.169922 2.6074219 C 15.479322 2.2979919 15.900291 2.125 16.337891 2.125 z" fill="#FFFFFF"/><path d="M40.0044 19.9749L35.196 15.1666L32.951 17.4117L37.7593 22.22L40.0044 19.9749Z" fill="#F5B312"/><path d="M 12.417969 18.523438 L 9.8496094 21.091797 L 7.2871094 18.527344 L 5.6601562 20.154297 L 8.2226562 22.71875 L 5.6660156 25.275391 L 7.2910156 26.902344 L 9.8496094 24.34375 L 12.412109 26.90625 L 14.039062 25.28125 L 11.476562 22.716797 L 14.044922 20.148438 L 12.417969 18.523438 z" fill="#F04747"/></svg>