<svg xmlns="http://www.w3.org/2000/svg" width="82" height="72" viewBox="0 0 82 72"><path d="M 52.787109 2.2207031 C 52.053273 2.2146637 51.305869 2.3182669 50.566406 2.5429688 L 25.392578 10.193359 C 21.515089 11.37158 19.300907 15.438894 20.359375 19.345703 L 19.236328 19.693359 C 18.398428 19.952659 17.695356 20.535153 17.285156 21.314453 C 16.874956 22.093853 16.791028 23.006709 17.048828 23.849609 L 19.234375 31 C 19.492175 31.8429 20.072856 32.548336 20.847656 32.960938 C 21.622356 33.373637 22.529288 33.460472 23.367188 33.201172 L 24.746094 32.773438 C 25.920343 34.503206 27.760923 35.654918 29.794922 35.964844 C 29.533765 36.169871 29.291077 36.401194 29.095703 36.677734 C 24.499203 43.175734 23.323981 48.349194 22.988281 54.121094 L 22.988281 54.345703 C 22.990598 55.246984 23.341258 56.112217 23.966797 56.757812 C 24.593697 57.404713 25.447903 57.780786 26.345703 57.804688 C 27.243503 57.828688 28.115291 57.499219 28.775391 56.886719 C 29.435491 56.274119 29.832359 55.425538 29.880859 54.523438 C 29.993278 52.600172 30.210528 50.838312 30.652344 49.085938 C 30.927357 49.8455 31.296389 50.574503 31.753906 51.251953 C 32.735706 52.706553 34.086516 53.870147 35.666016 54.623047 C 36.052637 54.807374 36.449003 54.964408 36.853516 55.095703 C 36.861136 58.603929 36.872744 62.669147 36.880859 65.707031 C 36.881959 66.229631 36.985547 66.748169 37.185547 67.230469 C 37.385647 67.712769 37.678475 68.151131 38.046875 68.519531 C 38.415375 68.888031 38.851331 69.178553 39.332031 69.376953 C 39.810827 69.574508 40.324184 69.675049 40.841797 69.673828 C 41.359305 69.671961 41.871912 69.569485 42.349609 69.369141 C 42.829209 69.168141 43.264359 68.872353 43.630859 68.501953 C 43.997359 68.131553 44.286675 67.692284 44.484375 67.208984 C 44.681975 66.725684 44.78265 66.208147 44.78125 65.685547 C 44.773285 62.675272 44.761843 58.660156 44.755859 55.171875 L 51.410156 54.572266 C 52.868499 57.877371 54.655157 61.92292 55.957031 64.865234 C 56.382831 65.828934 57.171991 66.583891 58.150391 66.962891 C 59.128691 67.341891 60.217381 67.314219 61.175781 66.886719 C 61.650981 66.675119 62.079 66.370687 62.4375 65.992188 C 62.796 65.613687 63.076572 65.169341 63.263672 64.681641 C 63.450772 64.193941 63.542097 63.672991 63.529297 63.150391 C 63.516397 62.627791 63.400153 62.112666 63.189453 61.634766 C 62.104486 59.181929 60.705061 56.011368 59.402344 53.058594 C 59.896983 52.778396 60.368672 52.456906 60.804688 52.082031 C 62.193888 50.887731 63.1806 49.287006 63.625 47.503906 C 64.0855 45.653706 63.938684 43.703759 63.208984 41.943359 L 61.339844 37.392578 C 66.989541 33.624425 69.844066 29.661487 72.232422 24.962891 C 72.266022 24.896991 72.295972 24.829572 72.326172 24.763672 L 72.326172 24.769531 C 72.675272 23.943731 72.694653 23.014281 72.376953 22.175781 C 72.059253 21.337281 71.429947 20.656038 70.623047 20.273438 C 69.816147 19.890837 68.893928 19.835847 68.048828 20.123047 C 67.203728 20.410147 66.500844 21.0161 66.089844 21.8125 C 64.277941 25.3794 62.339561 28.139061 58.646484 30.837891 L 57.595703 28.279297 L 58.236328 28.083984 C 61.506173 27.090379 63.59232 24.043134 63.533203 20.769531 L 65.501953 20.160156 C 66.339953 19.900856 67.040872 19.316409 67.451172 18.537109 C 67.861372 17.757809 67.947253 16.846706 67.689453 16.003906 L 65.501953 8.8515625 C 65.374453 8.4338925 65.165472 8.0457144 64.888672 7.7089844 C 64.611872 7.3722544 64.272572 7.095085 63.888672 6.890625 C 63.504772 6.686175 63.084844 6.5585881 62.652344 6.5175781 C 62.219944 6.4765681 61.784141 6.5217006 61.369141 6.6503906 L 59.728516 7.1582031 C 58.645962 4.1637178 55.83326 2.245773 52.787109 2.2207031 z M 70.650391 44.376953 C 70.18052 44.387092 69.715356 44.492956 69.285156 44.691406 C 68.711556 44.955906 68.221288 45.374991 67.867188 45.900391 L 64.787109 50.46875 C 64.733809 50.55065 64.703519 50.646341 64.699219 50.744141 C 64.694819 50.841941 64.717872 50.939091 64.763672 51.025391 C 64.809572 51.111791 64.877737 51.183575 64.960938 51.234375 C 65.044137 51.285175 65.139028 51.313453 65.236328 51.314453 L 70.726562 51.314453 C 71.285263 51.313753 71.833725 51.175863 72.328125 50.914062 C 72.822525 50.652362 73.247653 50.273447 73.564453 49.810547 C 73.881353 49.347647 74.081736 48.813859 74.148438 48.255859 C 74.215237 47.697859 74.145966 47.132722 73.947266 46.607422 C 73.721766 46.014522 73.338344 45.494769 72.839844 45.105469 C 72.341444 44.716169 71.747894 44.471437 71.121094 44.398438 C 70.964369 44.380212 70.807014 44.373573 70.650391 44.376953 z" fill="#FFFFFF"/><path d="M53.8005 14.4989C55.0327 14.4989 56.0316 13.4941 56.0316 12.2546C56.0316 11.0152 55.0327 10.0104 53.8005 10.0104C52.5683 10.0104 51.5695 11.0152 51.5695 12.2546C51.5695 13.4941 52.5683 14.4989 53.8005 14.4989Z" fill="#202225"/><path d="M26.2354 23.0267C27.4676 23.0267 28.4665 22.0219 28.4665 20.7825C28.4665 19.543 27.4676 18.5382 26.2354 18.5382C25.0033 18.5382 24.0044 19.543 24.0044 20.7825C24.0044 22.0219 25.0033 23.0267 26.2354 23.0267Z" fill="#202225"/><path d="M74.8636 5.89347C74.8636 5.51389 74.5577 5.20618 74.1803 5.20618C73.803 5.20618 73.4971 5.51389 73.4971 5.89347V6.58076C73.4971 6.96034 73.803 7.26804 74.1803 7.26804C74.5577 7.26804 74.8636 6.96034 74.8636 6.58076V5.89347Z" fill="#ECECEC"/><path d="M74.8636 11.3918C74.8636 11.0122 74.5577 10.7045 74.1803 10.7045C73.803 10.7045 73.4971 11.0122 73.4971 11.3918V12.0791C73.4971 12.4586 73.803 12.7663 74.1803 12.7663C74.5577 12.7663 74.8636 12.4586 74.8636 12.0791V11.3918Z" fill="#ECECEC"/><path d="M77.2558 9.67274C77.6332 9.67274 77.9391 9.36503 77.9391 8.98545C77.9391 8.60587 77.6332 8.29816 77.2558 8.29816H76.5726C76.1952 8.29816 75.8893 8.60587 75.8893 8.98545C75.8893 9.36503 76.1952 9.67274 76.5726 9.67274H77.2558Z" fill="#ECECEC"/><path d="M71.7883 9.67439C72.1657 9.67439 72.4716 9.36668 72.4716 8.9871C72.4716 8.60752 72.1657 8.2998 71.7883 8.2998H71.105C70.7277 8.2998 70.4218 8.60752 70.4218 8.9871C70.4218 9.36668 70.7277 9.67439 71.105 9.67439H71.7883Z" fill="#ECECEC"/><path d="M4.72064 46.7662L3.68149 48.9395C3.62762 49.0506 3.60953 49.1759 3.62976 49.2979C3.64999 49.4198 3.70751 49.5324 3.79434 49.6199C3.88116 49.7075 3.99295 49.7656 4.11415 49.7862C4.23534 49.8068 4.35991 49.7888 4.4705 49.7349L6.63105 48.6879C6.71132 48.6496 6.79905 48.6297 6.8879 48.6297C6.97674 48.6297 7.06447 48.6496 7.14475 48.6879L9.30529 49.7349C9.41595 49.7883 9.54037 49.8059 9.66138 49.7851C9.78238 49.7644 9.89399 49.7063 9.98078 49.619C10.0676 49.5317 10.1253 49.4194 10.1459 49.2977C10.1666 49.176 10.1491 49.0508 10.096 48.9395L9.05516 46.7662C9.01708 46.6854 8.99733 46.5972 8.99733 46.5078C8.99733 46.4184 9.01708 46.3302 9.05516 46.2494L10.096 44.0744C10.1491 43.9631 10.1666 43.838 10.1459 43.7162C10.1253 43.5945 10.0676 43.4822 9.98078 43.3949C9.89399 43.3076 9.78238 43.2496 9.66138 43.2288C9.54037 43.2081 9.41595 43.2256 9.30529 43.2791L7.14475 44.3277C7.06471 44.3669 6.97689 44.3872 6.8879 44.3872C6.79891 44.3872 6.71108 44.3669 6.63105 44.3277L4.4705 43.2824C4.35991 43.2285 4.23534 43.2105 4.11415 43.2312C3.99295 43.2518 3.88116 43.3099 3.79434 43.3974C3.70751 43.4849 3.64999 43.5975 3.62976 43.7194C3.60953 43.8414 3.62762 43.9667 3.68149 44.0778L4.72064 46.2494C4.75954 46.33 4.77975 46.4183 4.77975 46.5078C4.77975 46.5973 4.75954 46.6857 4.72064 46.7662Z" fill="#FFCDF9"/><path d="M5.3988 24.6394L5.32158 24.6107L2.19407 23.2598C2.06948 23.2064 1.95659 23.1288 1.86187 23.0315C1.76715 22.9341 1.69246 22.8189 1.64209 22.6925C1.59171 22.566 1.56664 22.4308 1.56832 22.2946C1.56999 22.1584 1.59837 22.0239 1.65184 21.8987C1.76214 21.6487 1.96505 21.4518 2.21742 21.35C2.4698 21.2481 2.75172 21.2493 3.00323 21.3533L6.13073 22.7042C6.37152 22.812 6.56212 23.0084 6.66337 23.2532C6.76462 23.498 6.76881 23.7724 6.6751 24.0202C6.58139 24.268 6.39688 24.4703 6.1595 24.5854C5.92212 24.7006 5.64991 24.7199 5.3988 24.6394Z" fill="#F7E080"/><path d="M78.891 32.2385C78.6873 32.2383 78.4881 32.1775 78.3187 32.0635C78.1493 31.9496 78.0172 31.7877 77.9393 31.5983C77.8613 31.4089 77.8409 31.2005 77.8806 30.9995C77.9203 30.7984 78.0184 30.6137 78.1625 30.4687L78.8877 29.7392C79.0811 29.5449 79.3434 29.4358 79.6169 29.4359C79.8903 29.4361 80.1524 29.5455 80.3457 29.7401C80.5389 29.9347 80.6474 30.1985 80.6472 30.4736C80.6471 30.7486 80.5383 31.0123 80.3448 31.2067L79.6196 31.9345C79.5241 32.0309 79.4105 32.1074 79.2855 32.1596C79.1604 32.2118 79.0264 32.2386 78.891 32.2385Z" fill="#60CFAC"/></svg>