<svg xmlns="http://www.w3.org/2000/svg" width="95" height="60"><path opacity="0.75" fill="black" d="M 47.515625 0 L 38.898438 8.6152344 L 39.402344 9.6777344 C 39.576344 9.9677344 39.403281 10.371875 39.113281 10.546875 A 0.988 0.988 0 0 1 38.533203 10.546875 L 37.472656 10.042969 L 33.144531 14.369141 L 33.144531 34.59375 L 40.330078 31.580078 L 40.330078 27.755859 L 40.330078 17.326172 L 47.515625 10.140625 L 47.515625 0 z M 3.5332031 10.197266 A 3.487 3.487 0 0 0 0.056640625 13.675781 L 0.056640625 20.917969 L 0 20.917969 L 0 28.335938 A 16.685 16.685 0 0 0 2.2011719 36.273438 L 6.0253906 42.763672 C 7.7643906 45.776672 8.6914062 49.137281 8.6914062 52.613281 L 8.6914062 53.613281 L 8.6953125 52.613281 L 30.246094 49.832031 L 30.246094 47.339844 L 30.246094 47.283203 L 30.244141 47.283203 C 30.221676 41.250283 26.631771 35.783403 21.136719 33.324219 C 21.005109 33.26532 20.87792 33.199936 20.744141 33.144531 L 18.824219 32.349609 L 18.470703 32.203125 L 18.046875 31.779297 L 13.955078 27.6875 L 13.238281 26.970703 L 11.472656 25.205078 C 11.329478 25.067772 11.176102 24.946817 11.017578 24.837891 C 10.959942 24.798318 10.899175 24.766293 10.839844 24.730469 C 10.733035 24.665953 10.625184 24.605108 10.513672 24.552734 C 10.44835 24.522061 10.381108 24.497211 10.314453 24.470703 C 10.204431 24.426966 10.09338 24.385914 9.9804688 24.353516 C 9.9093657 24.333122 9.8375729 24.316679 9.765625 24.300781 C 9.6581012 24.277027 9.5501727 24.257862 9.4414062 24.244141 C 9.3621767 24.234154 9.2826593 24.225366 9.203125 24.220703 C 9.0898207 24.214081 8.9764665 24.214578 8.8632812 24.21875 C 8.7955404 24.221246 8.7276084 24.222153 8.6601562 24.228516 C 8.5268846 24.241106 8.394734 24.265297 8.2636719 24.292969 C 8.2136043 24.303552 8.162883 24.309481 8.1132812 24.322266 C 7.9327251 24.368762 7.7559094 24.426322 7.5839844 24.501953 C 7.4031297 24.581513 7.2274893 24.677293 7.0605469 24.789062 L 7.0605469 24.787109 C 6.8812218 24.908979 6.7077342 25.046019 6.5488281 25.205078 C 5.1869225 26.564595 5.1869225 28.771342 6.5488281 30.130859 L 7.0117188 30.595703 L 11.910156 35.494141 L 12.400391 35.984375 C 12.472495 36.063624 12.513425 36.166319 12.515625 36.273438 L 12.515625 41.314453 C 12.515625 41.547453 12.342328 41.777344 12.111328 41.777344 C 11.879328 41.777344 11.646484 41.604047 11.646484 41.373047 L 11.646484 36.505859 L 5.96875 30.826172 C 4.1727498 29.029172 4.1721563 26.248359 5.9101562 24.568359 C 6.2501955 24.216379 6.6437844 23.956412 7.0566406 23.748047 L 7.0097656 13.675781 A 3.487 3.487 0 0 0 3.5332031 10.197266 z M 8.6914062 53.613281 C 6.9834635 53.873464 5.7393631 55.472982 5.96875 57.191406 C 6.20075 58.930406 7.8225469 60.206609 9.5605469 59.974609 L 31.115234 57.191406 C 32.853234 57.018406 34.128484 55.396609 33.896484 53.599609 C 33.693484 52.079734 32.427176 50.91315 30.949219 50.800781 C 30.738082 50.784729 30.521937 50.789359 30.304688 50.818359 L 30.246094 50.826172 L 8.6914062 53.613281 z M 91.494141 10.197266 A 3.45 3.45 0 0 0 88.017578 13.675781 L 88.017578 23.759766 C 88.402411 23.962837 88.770517 24.208523 89.089844 24.539062 C 90.827844 26.219062 90.827246 28.999875 89.03125 30.796875 L 83.353516 36.476562 L 83.353516 41.34375 C 83.353516 41.57475 83.120672 41.748047 82.888672 41.748047 C 82.657672 41.748047 82.484375 41.518156 82.484375 41.285156 L 82.484375 36.244141 C 82.486575 36.137023 82.527509 36.034328 82.599609 35.955078 L 88.451172 30.101562 C 89.813078 28.742047 89.813078 26.535298 88.451172 25.175781 C 87.091877 23.815179 84.886639 23.815179 83.527344 25.175781 L 81.789062 26.914062 L 81.072266 27.632812 L 76.966797 31.738281 L 76.460938 32.244141 L 76.207031 32.349609 L 74.285156 33.144531 C 74.126324 33.210324 73.974135 33.286712 73.818359 33.357422 C 68.34851 35.840288 64.78125 41.311524 64.78125 47.339844 L 64.78125 47.341797 L 64.78125 49.802734 L 86.335938 52.568359 L 86.337891 53.597656 L 86.337891 52.613281 C 86.337891 49.137281 87.264906 45.776672 89.003906 42.763672 L 92.828125 36.273438 C 94.219125 33.840438 94.914656 31.116936 94.972656 28.335938 L 94.972656 26.423828 L 94.972656 20.917969 L 94.972656 13.675781 A 3.487 3.487 0 0 0 91.494141 10.197266 z M 86.337891 53.597656 L 64.78125 50.816406 C 64.55675 50.787406 64.33574 50.782773 64.119141 50.798828 C 62.602943 50.911211 61.340828 52.076906 61.189453 53.597656 C 60.957453 55.335656 62.232703 56.958453 63.970703 57.189453 L 85.525391 59.972656 C 87.264391 60.204656 88.887186 58.930406 89.117188 57.191406 C 89.350188 55.453406 88.075891 53.830656 86.337891 53.597656 z M 61.884766 14.369141 L 54.699219 17.326172 L 54.699219 17.382812 L 54.699219 22.716797 L 54.699219 26.654297 L 54.699219 31.580078 L 47.515625 38.765625 L 47.515625 48.90625 L 61.884766 34.535156 L 61.884766 14.369141 z M 72.244141 22.107422 C 72.222218 22.121724 72.200974 22.135895 72.179688 22.150391 C 72.200992 22.135683 72.222444 22.121713 72.244141 22.107422 z"/><path opacity="0.5" fill="black" d="M 47.515625 0 L 47.515625 10.140625 L 54.699219 17.326172 L 61.884766 14.369141 L 47.515625 0 z M 38.792969 3.5820312 C 38.708781 3.5856562 38.620203 3.6068906 38.533203 3.6503906 L 36.216797 4.7519531 A 0.526 0.526 0 0 1 35.636719 4.7519531 L 33.318359 3.6503906 A 0.804 0.804 0 0 0 32.798828 3.6503906 C 32.508828 3.8243906 32.333813 4.1715313 32.507812 4.5195312 L 33.609375 6.8378906 A 0.526 0.526 0 0 1 33.609375 7.4179688 L 32.507812 9.734375 A 0.987 0.987 0 0 0 32.507812 10.314453 C 32.681812 10.604453 33.086953 10.777516 33.376953 10.603516 L 35.695312 9.5039062 C 35.868313 9.3879063 36.100797 9.3873125 36.216797 9.4453125 L 38.533203 10.546875 A 0.988 0.988 0 0 0 39.113281 10.546875 C 39.403281 10.371875 39.576344 9.9677344 39.402344 9.6777344 L 38.302734 7.359375 A 0.526 0.526 0 0 1 38.302734 6.7792969 L 39.402344 4.4609375 A 0.803 0.803 0 0 0 39.402344 3.9414062 C 39.271844 3.7239063 39.045531 3.5711564 38.792969 3.5820312 z M 75.560547 14.369141 L 81.072266 27.632812 L 81.789062 26.914062 L 76.777344 14.833984 C 76.429344 14.601984 76.024547 14.485141 75.560547 14.369141 z M 19.412109 14.486328 C 19.006109 14.486328 18.600953 14.659625 18.251953 14.890625 L 18.253906 14.892578 L 13.238281 26.970703 L 13.955078 27.6875 L 19.412109 14.486328 z M 22.193359 21.787109 L 18.046875 31.779297 L 18.470703 32.203125 L 18.824219 32.349609 L 23.003906 22.251953 L 23.003906 22.25 A 3.69 3.69 0 0 0 22.193359 21.787109 z M 72.835938 21.787109 C 72.546937 21.903109 72.256391 22.077953 72.025391 22.251953 L 76.207031 32.349609 L 76.460938 32.244141 L 76.966797 31.738281 L 72.835938 21.787109 z"/><path opacity="1" fill="black" d="M40.33 31.58l-7.185 3.013 14.37 14.313v-10.14L40.33 31.58z"/><path opacity="0.25" fill="black" d="M 79.359375 8.4765625 C 78.905812 8.4739531 78.443141 8.5615 77.994141 8.75 L 77.994141 8.7480469 C 76.256141 9.5020469 75.386625 11.530172 76.140625 13.326172 L 76.759766 14.826172 C 76.765118 14.829669 76.772018 14.830434 76.777344 14.833984 L 81.789062 26.914062 L 83.527344 25.175781 C 84.886639 23.815179 87.091877 23.815179 88.451172 25.175781 C 89.813078 26.535298 89.813078 28.742047 88.451172 30.101562 L 82.599609 35.955078 C 82.527509 36.034328 82.486575 36.137023 82.484375 36.244141 L 82.484375 41.285156 C 82.484375 41.518156 82.657672 41.748047 82.888672 41.748047 C 83.120672 41.748047 83.353516 41.57475 83.353516 41.34375 L 83.353516 36.476562 L 89.03125 30.796875 C 90.827246 28.999875 90.827844 26.219062 89.089844 24.539062 C 88.757314 24.194855 88.372916 23.940082 87.970703 23.732422 L 82.513672 10.603516 C 81.991672 9.2992628 80.720062 8.4843906 79.359375 8.4765625 z M 15.701172 8.5273438 C 14.361859 8.5219525 13.080375 9.3151118 12.515625 10.662109 L 7.0839844 23.732422 C 6.6609102 23.943053 6.2578689 24.208436 5.9101562 24.568359 C 4.1721563 26.248359 4.1727498 29.029172 5.96875 30.826172 L 11.646484 36.505859 L 11.646484 41.373047 C 11.646484 41.604047 11.879328 41.777344 12.111328 41.777344 C 12.342328 41.777344 12.515625 41.547453 12.515625 41.314453 L 12.515625 36.273438 C 12.513425 36.166319 12.472495 36.063624 12.400391 35.984375 L 6.5488281 30.130859 C 5.1869225 28.771342 5.1869225 26.564595 6.5488281 25.205078 C 6.7077342 25.046019 6.8812218 24.908979 7.0605469 24.787109 L 7.0605469 24.789062 C 7.2274893 24.677293 7.4031297 24.581513 7.5839844 24.501953 C 8.8499669 23.945036 10.401398 24.177749 11.472656 25.205078 L 13.238281 26.970703 L 18.253906 14.892578 L 18.251953 14.890625 C 18.370223 14.812343 18.501844 14.755842 18.630859 14.695312 C 18.506813 14.749792 18.377201 14.790604 18.259766 14.859375 L 18.890625 13.328125 C 19.643625 11.589125 18.831156 9.5615938 17.035156 8.8085938 C 16.600406 8.6203435 16.147609 8.5291403 15.701172 8.5273438 z M 47.515625 10.140625 L 40.330078 17.326172 L 40.330078 27.755859 L 52.730469 15.355469 L 47.515625 10.140625 z M 19.746094 14.392578 C 19.452942 14.414469 19.167321 14.482759 18.890625 14.578125 C 19.061543 14.522573 19.236391 14.486328 19.412109 14.486328 L 13.955078 27.6875 L 18.046875 31.779297 L 22.162109 21.861328 C 22.152258 21.857095 22.144677 21.849859 22.134766 21.845703 C 22.122017 21.84018 22.108483 21.839341 22.095703 21.833984 L 23.179688 19.179688 C 23.932688 17.440688 23.120219 15.413156 21.324219 14.660156 C 20.808954 14.437043 20.269887 14.353464 19.746094 14.392578 z M 75.285156 14.404297 C 74.747328 14.356071 74.187973 14.433647 73.648438 14.660156 C 71.910437 15.413156 71.040922 17.440328 71.794922 19.236328 L 72.849609 21.783203 C 72.845706 21.784824 72.841792 21.785474 72.837891 21.787109 L 72.835938 21.787109 L 76.966797 31.738281 L 81.072266 27.632812 L 75.603516 14.470703 C 75.496594 14.450754 75.394186 14.414073 75.285156 14.404297 z M 54.699219 17.382812 L 40.388672 31.638672 L 45.080078 36.330078 L 43.111328 34.302734 L 54.699219 22.716797 L 54.699219 17.382812 z M 45.080078 36.330078 L 47.515625 38.765625 L 54.699219 31.580078 L 54.699219 26.654297 L 45.080078 36.330078 z M 72.244141 22.107422 C 72.222444 22.121713 72.200992 22.135683 72.179688 22.150391 C 72.200975 22.135895 72.222218 22.121724 72.244141 22.107422 z M 72.033203 22.271484 C 70.807394 23.218393 70.295693 24.867053 70.923828 26.365234 L 73.818359 33.357422 C 73.974135 33.286712 74.126324 33.210324 74.285156 33.144531 L 76.207031 32.349609 L 72.033203 22.271484 z M 22.962891 22.353516 L 18.824219 32.349609 L 20.744141 33.144531 C 20.87792 33.199936 21.005109 33.26532 21.136719 33.324219 L 23.988281 26.365234 C 24.611142 24.927609 24.152444 23.302379 22.962891 22.353516 z M 64.78125 49.802734 L 64.78125 50.816406 L 86.337891 53.597656 L 86.335938 52.568359 L 64.78125 49.802734 z M 30.246094 49.832031 L 8.6953125 52.613281 L 8.6914062 53.613281 L 30.246094 50.826172 L 30.246094 49.832031 z"/></svg>