<svg xmlns="http://www.w3.org/2000/svg" width="85.333344" height="85.333344" viewBox="0 0 85.333344 85.333344"><path fill="#ACDD5E" d="m 50.272142,27.659406 c 1.61304,-0.770627 2.874906,-1.95857 3.312825,-3.11875 0.490575,-1.299681 1.17333,-1.873989 2.22786,-1.873989 0.836279,0 1.520508,-0.305715 1.520508,-0.679368 0,-0.391763 -0.705569,-0.502281 -1.666667,-0.261061 -1.127421,0.282965 -1.666666,0.142285 -1.666666,-0.434805 0,-0.469211 -0.496496,-1.401734 -1.103326,-2.072272 -1.68505,-1.861959 -6.896675,-1.499624 -6.896675,0.479488 0,1.263008 -1.318124,1.916561 -2.162482,1.072202 -0.506186,-0.506185 -1.214425,-0.368412 -2.441912,0.475025 -0.950916,0.653398 -2.778939,1.588459 -4.062273,2.077911 -3.704998,1.413056 -3.696854,1.772168 0.09039,3.985285 2.996447,1.751007 4.116726,2.049733 6.909615,1.842468 1.833333,-0.136055 4.505797,-0.807515 5.938807,-1.492134 z"/></svg>