<svg xmlns="http://www.w3.org/2000/svg" width="184" height="110" viewBox="0 0 184 110"><path opacity="0.5" fill="black" d="M 68.787109 17.175781 L 68.787109 20.974609 L 72.962891 20.974609 L 72.962891 17.175781 L 68.787109 17.175781 z M 141.15234 81.400391 L 141.15234 81.404297 C 141.64625 81.527475 142.14893 81.62617 142.66016 81.701172 C 142.15037 81.622356 141.64592 81.524194 141.15234 81.400391 z M 148.74023 81.402344 C 148.24603 81.525646 147.74244 81.622673 147.23242 81.701172 C 147.74375 81.62617 148.24624 81.527475 148.74023 81.404297 L 148.74023 81.402344 z M 143.08008 81.763672 C 143.26736 81.785961 143.45528 81.804697 143.64453 81.820312 C 143.45571 81.803467 143.26685 81.787364 143.08008 81.763672 z M 146.8125 81.763672 C 146.62476 81.787384 146.43394 81.803486 146.24414 81.820312 C 146.43461 81.804642 146.62403 81.786099 146.8125 81.763672 z M 141.15234 86.046875 L 141.15234 89.222656 C 141.15234 89.724656 141.55855 90.130859 142.06055 90.130859 L 147.83203 90.130859 C 148.33403 90.130859 148.74023 89.724656 148.74023 89.222656 L 148.74023 86.046875 C 147.51068 86.280922 146.24304 86.40625 144.94531 86.40625 C 143.64824 86.40625 142.38131 86.280689 141.15234 86.046875 z M 60.439453 93.328125 L 60.439453 99.269531 L 31.841797 99.269531 L 31.841797 104.83594 L 118.10938 104.83594 L 118.10938 99.269531 L 84.789062 99.269531 L 84.789062 93.328125 L 60.439453 93.328125 z M 120.31641 93.328125 L 120.31641 103.04102 L 126.63867 103.04102 L 126.63867 93.328125 L 120.31641 93.328125 z"/><path opacity="1" fill="black" d="M 59.048828 7.8828125 L 59.048828 15.486328 L 65.384766 15.486328 L 65.384766 7.8828125 L 59.048828 7.8828125 z M 76.367188 7.8828125 L 76.367188 15.486328 L 82.703125 15.486328 L 82.703125 7.8828125 L 76.367188 7.8828125 z M 70.875 9.25 C 69.531 9.25 68.441406 10.340547 68.441406 11.685547 C 68.441406 13.030547 69.531 14.121094 70.875 14.121094 C 72.22 14.121094 73.310547 13.030547 73.310547 11.685547 C 73.310547 10.340547 72.22 9.25 70.875 9.25 z M 8.9570312 27.931641 L 8.9570312 86.369141 L 114.23633 86.369141 C 114.10901 85.795662 114.03711 85.201628 114.03711 84.589844 L 114.03711 75.023438 C 114.03711 74.019436 114.84952 73.205078 115.85352 73.205078 L 126 73.205078 C 125.21904 71.055446 124.76953 68.745832 124.76953 66.326172 C 124.76953 59.143319 128.53401 52.85426 134.18555 49.279297 L 134.18555 27.931641 L 8.9570312 27.931641 z M 144.94531 50.671875 C 136.30131 50.671875 129.29297 57.680172 129.29297 66.326172 C 129.29297 68.797683 129.88227 71.126737 130.90234 73.205078 L 131.01367 73.205078 C 131.56331 74.296756 132.22669 75.319231 133.00586 76.246094 L 133.00586 76.435547 C 133.3749 76.870956 133.77169 77.281243 134.18555 77.673828 L 134.18555 77.582031 C 136.99155 80.242907 140.77354 81.884766 144.94531 81.884766 C 153.57548 81.884766 160.57206 74.902467 160.59766 66.279297 C 160.57209 57.655102 153.5755 50.671875 144.94531 50.671875 z M 133.00586 82.5625 L 133.00586 84.589844 C 133.00586 85.201628 132.93396 85.795662 132.80664 86.369141 L 134.18555 86.369141 L 134.18555 83.371094 C 133.78151 83.115543 133.3898 82.845281 133.00586 82.5625 z"/></svg>