<svg xmlns="http://www.w3.org/2000/svg" width="282" height="160"><path opacity="0.3" fill="black" d="M 84.539062 35.060547 A 29.64 29.64 0 0 0 54.910156 64.699219 L 54.910156 91.609375 A 7 7 0 0 1 47.910156 98.609375 L 35.199219 98.609375 A 14.508 14.508 0 0 0 20.720703 113.08008 L 20.720703 123.08008 A 12.916 12.916 0 0 1 16.919922 132.23047 L 3 146.16016 A 10.062 10.062 0 0 0 0 153.30078 L 0 160 L 33.070312 160 A 28.26 28.26 0 0 1 29.796875 156.06055 L 29.779297 156.06055 A 29.27 29.27 0 0 1 28.722656 154.36328 A 28.26 28.26 0 0 1 28.068359 153.17773 A 29.27 29.27 0 0 1 27.599609 152.33008 L 27.644531 152.33008 A 28.26 28.26 0 0 1 27.636719 127.67969 L 27.599609 127.67969 A 28.038 28.038 0 0 1 27.943359 127.02539 A 28.26 28.26 0 0 1 28.164062 126.60352 A 28.038 28.038 0 0 1 28.605469 125.86133 A 28.26 28.26 0 0 1 33.070312 120 L 34.859375 120 L 38.169922 120 L 41.099609 120 L 41.099609 108.5957 L 41.089844 108.58984 L 44.490234 108.58984 L 44.490234 107.27148 A 2.183 2.183 0 0 1 44.1875 107.17578 A 2.18 2.18 0 0 1 43.478516 103.61914 L 45.025391 102.07031 L 45.0625 102.10547 L 46.568359 103.61133 A 2.18 2.18 0 0 1 46.568359 106.69531 A 2.183 2.183 0 0 1 45.589844 107.26172 L 45.589844 108.58984 L 47.359375 108.58984 A 1.64 1.64 0 0 1 47.486328 108.5957 A 1.638 1.638 0 0 1 47.570312 108.60547 A 1.64 1.64 0 0 1 47.673828 108.62109 A 1.638 1.638 0 0 1 47.685547 108.62305 A 1.64 1.64 0 0 1 47.816406 108.65625 A 1.638 1.638 0 0 1 47.894531 108.68164 A 1.64 1.64 0 0 1 47.974609 108.70898 A 1.638 1.638 0 0 1 48.054688 108.74609 A 1.64 1.64 0 0 1 48.095703 108.76367 A 1.638 1.638 0 0 1 48.201172 108.82227 A 1.64 1.64 0 0 1 48.259766 108.85938 A 1.638 1.638 0 0 1 48.347656 108.92188 A 1.64 1.64 0 0 1 48.371094 108.93945 A 1.638 1.638 0 0 1 48.462891 109.01758 A 1.64 1.64 0 0 1 48.515625 109.06641 A 1.638 1.638 0 0 1 48.585938 109.14258 A 1.64 1.64 0 0 1 48.607422 109.16602 A 1.638 1.638 0 0 1 48.685547 109.26758 A 1.64 1.64 0 0 1 48.720703 109.31836 A 1.638 1.638 0 0 1 48.765625 109.38867 A 1.64 1.64 0 0 1 48.804688 109.45703 A 1.638 1.638 0 0 1 48.847656 109.54102 A 1.64 1.64 0 0 1 48.873047 109.59961 A 1.638 1.638 0 0 1 48.914062 109.70703 A 1.64 1.64 0 0 1 48.923828 109.73633 A 1.638 1.638 0 0 1 48.960938 109.87695 A 1.64 1.64 0 0 1 48.964844 109.89453 A 1.638 1.638 0 0 1 48.988281 110.04297 A 1.64 1.64 0 0 1 48.990234 110.05664 A 1.638 1.638 0 0 1 49 110.2207 L 49 113.06055 L 49 120 L 51.070312 120 L 52.859375 120 A 28.276 28.276 0 0 1 56.736328 124.88867 A 28.038 28.038 0 0 1 57.181641 125.62695 A 28.276 28.276 0 0 1 58.064453 127.2168 A 28.038 28.038 0 0 1 58.320312 127.67969 L 58.283203 127.67969 A 28.276 28.276 0 0 1 58.992188 129.17578 A 28.276 28.276 0 0 1 59.542969 130.72656 A 58.435 58.435 0 0 0 88.767578 140.4082 C 88.825376 140.40733 88.881432 140.40039 88.939453 140.40039 A 0.508 0.508 0 0 1 89.076172 140.42188 A 58.435 58.435 0 0 0 92 140.55078 L 98.640625 140.55078 A 0.498 0.498 0 0 1 99.132812 141.13281 A 7.64 7.64 0 0 1 100.65039 140.98047 L 101.77539 140.98047 C 104.16264 138.03079 106 134.51855 106 129.11914 C 106 113.66914 90.910156 113.61914 90.910156 98.119141 C 90.910156 82.619141 106 82.630859 106 67.130859 C 106 58.370859 93.240625 47.12953 96.390625 39.519531 C 97.207316 37.557482 98.880604 36.154497 101.02344 35.060547 L 84.539062 35.060547 z M 139.63281 35.083984 A 42.222 42.222 0 0 0 136.50391 37.394531 A 42.222 42.222 0 0 1 139.63281 35.083984 z M 136.50391 37.394531 A 42.222 42.222 0 0 0 134.95703 38.751953 A 42.222 42.222 0 0 1 136.50391 37.394531 z M 134.95703 38.751953 A 42.222 42.222 0 0 0 133.35742 40.203125 A 42.222 42.222 0 0 1 134.95703 38.751953 z M 133.35742 40.203125 A 42.222 42.222 0 0 0 131.92188 41.742188 A 42.222 42.222 0 0 1 133.35742 40.203125 z M 131.92188 41.742188 A 42.222 42.222 0 0 0 130.51367 43.300781 A 42.222 42.222 0 0 1 131.92188 41.742188 z M 130.51367 43.300781 A 42.222 42.222 0 0 0 129.21875 45.001953 A 42.222 42.222 0 0 1 130.51367 43.300781 z M 129.21875 45.001953 A 42.222 42.222 0 0 0 127.98242 46.681641 A 42.222 42.222 0 0 1 129.21875 45.001953 z M 127.98242 46.681641 A 42.222 42.222 0 0 0 126.85938 48.513672 A 42.222 42.222 0 0 1 127.98242 46.681641 z M 126.85938 48.513672 A 42.222 42.222 0 0 0 125.80664 50.291016 A 42.222 42.222 0 0 1 126.85938 48.513672 z M 125.80664 50.291016 A 42.222 42.222 0 0 0 124.86719 52.232422 A 42.222 42.222 0 0 1 125.80664 50.291016 z M 124.86719 52.232422 A 42.222 42.222 0 0 0 124 54.101562 A 42.222 42.222 0 0 1 124.86719 52.232422 z M 124 54.101562 A 42.222 42.222 0 0 0 123.26758 56.101562 A 42.222 42.222 0 0 1 124 54.101562 z M 123.26758 56.101562 A 42.222 42.222 0 0 0 122.57812 58.082031 A 42.222 42.222 0 0 1 123.26758 56.101562 z M 122.57812 58.082031 A 42.222 42.222 0 0 0 122.04688 60.162109 A 42.222 42.222 0 0 1 122.57812 58.082031 z M 122.04688 60.162109 A 42.222 42.222 0 0 0 121.56836 62.166016 A 42.222 42.222 0 0 1 122.04688 60.162109 z M 121.56836 62.166016 A 42.222 42.222 0 0 0 121.24609 64.285156 A 42.222 42.222 0 0 1 121.56836 62.166016 z M 121.24609 64.285156 A 42.222 42.222 0 0 0 120.96484 66.353516 A 42.222 42.222 0 0 1 121.24609 64.285156 z M 120.96484 66.353516 A 42.222 42.222 0 0 0 120.76953 70.230469 A 42.222 42.222 0 0 1 120.96484 66.353516 z M 163.875 39.259766 C 160.1825 39.259766 156.48992 41.470625 153.66992 45.890625 C 159.30992 54.730625 168.44008 54.730625 174.08008 45.890625 C 171.26008 41.470625 167.5675 39.259766 163.875 39.259766 z M 163.18945 40.779297 A 5.1103515 5.1103515 0 0 1 163.18945 51 A 5.1103515 5.1103515 0 0 1 163.18945 40.779297 z M 78.869141 45.300781 L 78.869141 48.230469 A 7.93 7.93 0 0 0 80.0625 52.529297 A 1.58 1.58 0 0 1 80.609375 52.429688 L 81.029297 52.429688 L 81.029297 53.974609 A 10.52 10.52 0 0 1 82.609375 59.490234 L 82.609375 61.164062 A 0.75 0.75 0 0 1 82.880859 61.740234 L 82.880859 64.039062 L 84.720703 64.039062 A 0.75 0.75 0 0 1 84.720703 65.539062 L 82.880859 65.539062 A 6.12 6.12 0 0 1 77.380859 71.611328 L 77.380859 75.451172 A 4.19 4.19 0 0 1 77.929688 75.410156 A 4.19 4.19 0 1 1 77.929688 83.789062 A 4.19 4.19 0 0 1 77.380859 83.751953 L 77.380859 86.550781 A 0.76 0.76 0 0 1 76.630859 87.300781 A 0.75 0.75 0 0 1 75.880859 86.550781 L 75.880859 83.25 A 4.19 4.19 0 0 1 75.880859 75.949219 L 75.880859 71.619141 A 6.12 6.12 0 0 1 70.380859 65.539062 L 68.539062 65.539062 A 0.75 0.75 0 0 1 68.539062 64.039062 L 70.380859 64.039062 L 70.380859 61.740234 A 0.75 0.75 0 0 1 70.677734 61.142578 A 5.98 5.98 0 0 1 72.359375 57.496094 L 72.359375 57.429688 L 73.289062 56.490234 A 7.311 7.311 0 0 0 75.429688 51.320312 L 75.429688 49.320312 A 3.88 3.88 0 0 1 77.779297 45.769531 L 78.869141 45.300781 z M 30.189453 57.980469 C 29.549453 57.980469 29.029297 58.500625 29.029297 59.140625 L 29.029297 60.310547 C 29.029297 60.950547 29.549453 61.470703 30.189453 61.470703 L 30.199219 61.470703 C 30.839219 61.470703 31.359375 60.950547 31.359375 60.310547 L 31.359375 59.140625 C 31.359375 58.500625 30.839219 57.980469 30.199219 57.980469 L 30.189453 57.980469 z M 24.949219 63.210938 C 24.309219 63.210938 23.789063 63.729141 23.789062 64.369141 L 23.789062 64.380859 C 23.789062 65.020859 24.309219 65.539064 24.949219 65.539062 L 26.119141 65.539062 C 26.759141 65.539062 27.279297 65.020859 27.279297 64.380859 L 27.279297 64.369141 C 27.279297 63.729141 26.759141 63.210935 26.119141 63.210938 L 24.949219 63.210938 z M 34.259766 63.210938 C 33.619766 63.210938 33.099609 63.729141 33.099609 64.369141 L 33.099609 64.380859 C 33.099609 65.020859 33.619766 65.539064 34.259766 65.539062 L 35.429688 65.539062 C 36.069688 65.539062 36.589844 65.020859 36.589844 64.380859 L 36.589844 64.369141 C 36.589844 63.729141 36.069687 63.210935 35.429688 63.210938 L 34.259766 63.210938 z M 183.40039 64.529297 A 2.051 2.051 0 0 0 181.92969 65.089844 L 179.12305 67.896484 A 2.051 2.051 0 0 0 182.02148 70.796875 L 184.83008 67.988281 A 2.051 2.051 0 0 0 183.40039 64.529297 z M 175.44922 64.53125 A 2.05 2.05 0 0 0 173.46094 66.580078 L 173.46094 68.730469 A 2.05 2.05 0 0 0 177.56055 68.730469 L 177.56055 66.580078 A 2.05 2.05 0 0 0 175.44922 64.53125 z M 71.880859 65.539062 A 4.61 4.61 0 0 0 75.880859 70.103516 L 75.880859 67.607422 A 5.98 5.98 0 0 1 72.068359 65.539062 L 71.880859 65.539062 z M 81.189453 65.539062 A 5.98 5.98 0 0 1 77.380859 67.607422 L 77.380859 70.101562 A 4.62 4.62 0 0 0 81.380859 65.539062 L 81.189453 65.539062 z M 150.38477 66.363281 A 2.0502561 2.0502561 0 0 0 148.96484 69.863281 L 150.48438 71.384766 A 2.0508858 2.0508858 0 0 0 153.38477 68.484375 L 151.86328 66.964844 A 2.0502561 2.0502561 0 0 0 150.38477 66.363281 z M 30.189453 67.289062 C 29.549453 67.289062 29.029297 67.809219 29.029297 68.449219 L 29.029297 69.619141 C 29.029297 70.259141 29.549453 70.779297 30.189453 70.779297 L 30.199219 70.779297 C 30.839219 70.779297 31.359375 70.259141 31.359375 69.619141 L 31.359375 68.449219 C 31.359375 67.809219 30.839219 67.289062 30.199219 67.289062 L 30.189453 67.289062 z M 187.74609 67.576172 A 2.051 2.051 0 0 0 186.29688 68.130859 L 183.82812 70.597656 A 2.0502561 2.0502561 0 1 0 186.72656 73.498047 L 189.19531 71.029297 A 2.051 2.051 0 0 0 187.74609 67.576172 z M 143.70508 67.582031 A 2.0502561 2.0502561 0 0 0 142.28516 71.082031 L 145.93359 74.730469 A 2.0502561 2.0502561 0 1 0 148.83203 71.830078 L 145.18359 68.181641 A 2.0502561 2.0502561 0 0 0 143.70508 67.582031 z M 220.05664 68.679688 C 221.02904 82.645038 235.08984 83.166679 235.08984 98.130859 C 235.08984 113.63086 220 113.61914 220 129.11914 C 220 136.16669 223.12072 140.00764 226.52148 143.56055 L 235.08984 143.56055 L 235.08008 151.5 L 249.62109 151.5 L 249.63086 160 L 281.69922 160 L 281.69922 155.91992 A 12.229 12.229 0 0 0 269.48047 143.71094 L 266.69922 143.71094 A 5.451 5.451 0 0 1 261.26953 138.2793 L 261.26953 83.150391 A 14.51 14.51 0 0 0 251.36523 69.449219 A 6.123 6.123 0 0 1 247.30078 71.611328 L 247.30078 75.451172 A 4.19 4.19 0 0 1 247.84961 75.410156 A 4.19 4.19 0 1 1 247.84961 83.789062 A 4.19 4.19 0 0 1 247.30078 83.751953 L 247.30078 86.550781 A 0.762 0.762 0 0 1 246.55078 87.300781 A 0.748 0.748 0 0 1 245.80078 86.550781 L 245.80078 83.25 A 4.19 4.19 0 0 1 245.80078 75.949219 L 245.80078 71.619141 A 6.122 6.122 0 0 1 241.17188 68.679688 L 220.05664 68.679688 z M 243.03906 68.679688 A 4.622 4.622 0 0 0 245.80078 70.103516 L 245.80078 68.679688 L 243.03906 68.679688 z M 247.30078 68.697266 L 247.30078 70.103516 A 4.618 4.618 0 0 0 249.7168 69.001953 A 14.51 14.51 0 0 0 247.30078 68.697266 z M 141.79102 73.103516 A 2.051 2.051 0 0 0 140.38281 76.576172 L 142.85156 79.042969 A 2.0502561 2.0502561 0 1 0 145.75 76.142578 L 143.2832 73.675781 A 2.051 2.051 0 0 0 141.79102 73.103516 z M 190.56055 73.214844 A 2.051 2.051 0 0 0 189.12695 73.761719 L 187.2168 75.669922 A 2.051 2.051 0 0 0 190.11719 78.568359 L 192.02539 76.658203 A 2.051 2.051 0 0 0 190.56055 73.214844 z M 136.49609 76.25 A 2.0502561 2.0502561 0 0 0 135.07617 79.75 L 136.98633 81.660156 A 2.0502561 2.0502561 0 1 0 139.88477 78.759766 L 137.97656 76.849609 A 2.0502561 2.0502561 0 0 0 136.49609 76.25 z M 275.65039 105.10938 A 0.721 0.721 0 0 0 275.2793 105.23047 L 272.59961 106.50977 A 0.704 0.704 0 0 1 271.9707 106.50977 L 269.30078 105.23047 A 0.727 0.727 0 0 0 268.20312 105.76562 A 0.732 0.732 0 0 0 268.30078 106.23047 L 269.58008 108.91016 A 0.7 0.7 0 0 1 269.58008 109.53906 L 268.30078 112.21094 A 0.727 0.727 0 0 0 268.41211 113.09766 A 0.734 0.734 0 0 0 269.30078 113.21094 L 272 111.90039 A 0.76 0.76 0 0 1 272.63086 111.90039 L 275.31055 113.18945 A 0.734 0.734 0 0 0 276.19727 113.07617 A 0.73 0.73 0 0 0 276.31055 112.18945 L 275 109.53906 A 0.705 0.705 0 0 1 275 108.91016 L 276.2793 106.23047 A 0.721 0.721 0 0 0 275.65039 105.10938 z M 65.082031 106.46484 A 0.77 0.77 0 0 1 65.369141 106.51953 L 68.179688 107.88086 A 0.874 0.874 0 0 0 68.849609 107.88086 L 71.650391 106.51953 A 0.77 0.77 0 0 1 72.650391 107.51953 L 71.310547 110.33008 A 0.717 0.717 0 0 0 71.359375 111 L 72.699219 113.81055 A 0.768 0.768 0 0 1 71.699219 114.81055 L 68.900391 113.44922 A 0.777 0.777 0 0 0 68.230469 113.44922 L 65.419922 114.81055 A 0.77 0.77 0 0 1 64.419922 113.81055 L 65.720703 111 A 0.793 0.793 0 0 0 65.720703 110.33008 L 64.369141 107.51953 A 0.773 0.773 0 0 1 64.929688 106.48047 A 0.77 0.77 0 0 1 65.082031 106.46484 z M 61 132.90039 L 66.701172 138.12109 A 2.9 2.9 0 0 1 68.148438 136.56445 A 60.012 60.012 0 0 1 61 132.90039 z M 60.388672 133.67188 A 28.276 28.276 0 0 1 61.03125 138.40234 A 5.66 5.66 0 0 1 64.6875 137.60742 L 60.388672 133.67188 z M 69.755859 137.20898 A 0.5 0.5 0 0 1 69.5 137.2793 A 1.898 1.898 0 0 0 67.523438 138.875 L 72.017578 142.99023 A 5.509 5.509 0 0 1 75.298828 139.12305 A 60.012 60.012 0 0 1 69.757812 137.20898 A 60.012 60.012 0 0 1 69.755859 137.20898 z M 64.152344 138.55664 A 4.652 4.652 0 0 0 61.089844 139.57031 A 28.276 28.276 0 0 1 60.835938 143.65234 C 63.541336 142.08813 66.89554 141.63468 70.017578 142.48828 L 66.738281 139.48633 A 0.5 0.5 0 0 1 66.601562 139.36328 A 4.652 4.652 0 0 0 64.152344 138.55664 z M 77.589844 139.71094 A 4.513 4.513 0 0 0 72.896484 143.79492 L 78.560547 148.98242 C 78.972943 145.39948 81.539377 142.40174 85.044922 141.09961 A 60.012 60.012 0 0 1 77.591797 139.71094 A 60.012 60.012 0 0 1 77.589844 139.71094 z M 88.980469 141.39844 A 0.497 0.497 0 0 1 88.939453 141.40039 C 83.794455 141.40039 79.596196 145.18045 79.507812 149.85156 L 81.113281 151.32031 L 91.650391 151.32031 L 91.650391 143.56055 L 94.943359 143.56055 A 7.64 7.64 0 0 1 97.765625 141.55078 L 92 141.55078 A 60.012 60.012 0 0 1 88.988281 141.39844 A 0.497 0.497 0 0 1 88.980469 141.39844 z M 66.972656 143.03125 A 10.809 10.809 0 0 0 60.658203 144.99609 A 28.276 28.276 0 0 1 58.28125 152.33008 L 58.296875 152.33008 C 62.748561 147.6264 69.967763 145.99387 76.251953 148.19531 L 72.087891 144.38477 A 10.809 10.809 0 0 0 66.972656 143.03125 z M 70.183594 148.22266 C 65.302051 148.32129 60.542187 150.55859 57.710938 154.58984 A 0.536 0.536 0 0 1 57.310547 154.80078 A 0.498 0.498 0 0 1 56.988281 154.6875 A 28.276 28.276 0 0 1 56.263672 155.86133 A 29.283 29.283 0 0 1 56.140625 156.06055 L 56.117188 156.06055 A 28.276 28.276 0 0 1 52.859375 160 L 77.150391 160 L 77.140625 151.32031 L 79.664062 151.32031 L 78.664062 150.4043 C 76.050421 148.86703 73.095343 148.16382 70.183594 148.22266 z M 209.69141 151.5 L 209.74023 160 L 209.74023 151.5 L 209.69141 151.5 z"/><path opacity="0.6" fill="black" d="M 138.35547 0.005859375 C 138.11765 -0.0028965656 137.88147 -0.0020484258 137.64844 0.009765625 C 136.877 0.048874207 136.13242 0.2046875 135.41992 0.5 C 127.51992 3.82 128.64922 20.880312 122.69922 26.820312 C 116.74922 32.760312 99.670625 31.639531 96.390625 39.519531 C 93.240625 47.129531 106 58.370859 106 67.130859 C 106 82.630859 90.910156 82.619141 90.910156 98.119141 C 90.910156 113.61914 106 113.66914 106 129.11914 C 106 134.51855 104.16264 138.03079 101.77539 140.98047 L 104.7793 140.98047 A 7.64 7.64 0 0 1 109.64258 142.74219 A 7.64 7.64 0 0 0 109.375 142.51953 C 112.81367 137.02011 118.66992 134.26019 118.66992 124.88086 C 118.66992 111.65086 106.92969 111.59983 106.92969 98.339844 C 106.92969 85.079844 118.66992 85.070778 118.66992 71.800781 C 118.66992 64.300781 108.73945 54.680156 111.18945 48.160156 C 113.73945 41.410156 127.02039 42.369065 131.65039 37.289062 C 136.28039 32.209063 135.3893 17.56 141.5293 14.75 C 142.08336 14.496875 142.66378 14.363528 143.26367 14.330078 C 143.44489 14.319978 143.62757 14.318672 143.8125 14.326172 C 149.54546 14.55967 157.01252 23 163 23 C 169.82 23 178.55094 12.069531 184.46094 14.769531 C 190.60094 17.579531 189.71984 32.210547 194.33984 37.310547 C 198.95984 42.410547 212.25077 41.429687 214.80078 48.179688 C 217.25078 54.699688 207.33008 64.320313 207.33008 71.820312 C 207.33008 85.090313 219.06055 85.089375 219.06055 98.359375 C 219.06055 111.62937 207.31055 111.60086 207.31055 124.88086 C 207.31055 134.84554 213.91379 137.32797 217.21094 143.56055 L 226.52148 143.56055 C 223.12072 140.00764 220 136.16669 220 129.11914 C 220 113.61914 235.08984 113.63086 235.08984 98.130859 C 235.08984 82.630859 220 82.630859 220 67.130859 C 220 58.370859 232.75914 47.139531 229.61914 39.519531 C 226.33914 31.639531 209.22906 32.770314 203.28906 26.820312 C 197.34906 20.870312 198.48008 3.78 190.58008 0.5 C 183.00008 -2.65 171.75977 10.119141 163.00977 10.119141 C 155.32788 10.119141 145.72772 0.27729353 138.35547 0.005859375 z M 227.78125 10.220703 A 1.31 1.31 0 0 0 226.50977 11.529297 L 226.50977 12.849609 A 1.31 1.31 0 0 0 229.13086 12.849609 L 229.13086 11.529297 A 1.31 1.31 0 0 0 227.78125 10.220703 z M 232.40039 16.119141 A 1.31 1.31 0 0 0 232.40039 18.740234 L 233.7207 18.740234 A 1.31 1.31 0 1 0 233.7207 16.119141 L 232.40039 16.119141 z M 221.91016 16.130859 A 1.31 1.31 0 0 0 221.91016 18.75 L 223.23047 18.75 A 1.31 1.31 0 0 0 223.23047 16.130859 L 221.91016 16.130859 z M 227.78125 20.720703 A 1.31 1.31 0 0 0 226.50977 22.029297 L 226.50977 23.349609 A 1.31 1.31 0 0 0 229.13086 23.349609 L 229.13086 22.029297 A 1.31 1.31 0 0 0 227.78125 20.720703 z M 134.80273 110.63086 A 0.479 0.479 0 0 0 134.35938 110.92969 L 133.16992 113 A 0.483 0.483 0 0 0 133.34961 113.65625 A 0.482 0.482 0 0 0 133.58984 113.7207 L 136 113.7207 A 0.488 0.488 0 0 0 136.41992 113.48242 A 0.479 0.479 0 0 0 136.41992 113 L 135.23047 110.89062 A 0.479 0.479 0 0 0 134.80273 110.63086 z M 109.73828 142.82422 A 7.64 7.64 0 0 1 110.21484 143.26953 A 7.64 7.64 0 0 0 109.73828 142.82422 z M 110.30859 143.36328 A 7.64 7.64 0 0 1 110.49023 143.56055 L 110.5 143.56055 A 7.64 7.64 0 0 0 110.30859 143.36328 z"/><path opacity="0.8" fill="black" d="M 143.8125 14.326172 C 143.62757 14.31864 143.44489 14.319972 143.26367 14.330078 C 142.66378 14.363531 142.08336 14.496875 141.5293 14.75 C 135.3893 17.56 136.28039 32.209063 131.65039 37.289062 C 127.02039 42.369063 113.73945 41.410156 111.18945 48.160156 C 108.73945 54.680156 118.66992 64.300781 118.66992 71.800781 C 118.66992 85.070781 106.92969 85.079844 106.92969 98.339844 C 106.92969 111.59984 118.66992 111.65086 118.66992 124.88086 C 118.66992 134.26019 112.81367 137.02011 109.375 142.51953 A 7.64 7.64 0 0 1 110.5 143.56055 L 120.76953 143.56055 L 120.76953 70.230469 A 42.222 42.222 0 0 1 163 28 A 42.22 42.22 0 0 1 205.19922 70.230469 L 205.19922 143.56055 L 217.21094 143.56055 C 213.91379 137.32797 207.31055 134.84554 207.31055 124.88086 C 207.31055 111.60086 219.06055 111.62937 219.06055 98.359375 C 219.06055 85.089375 207.33008 85.090312 207.33008 71.820312 C 207.33008 64.320313 217.25078 54.699688 214.80078 48.179688 C 212.25078 41.429687 198.95984 42.410547 194.33984 37.310547 C 189.71984 32.210547 190.60094 17.579531 184.46094 14.769531 C 178.55094 12.069531 169.82 23 163 23 C 157.01252 23 149.54545 14.55967 143.8125 14.326172 z M 163.18945 40.779297 A 5.1103515 5.1103515 0 0 0 163.18945 51 A 5.1103515 5.1103515 0 0 0 163.18945 40.779297 z M 162.98047 43.519531 C 164.17347 43.519531 165.14063 44.581625 165.14062 45.890625 C 165.14062 47.199625 164.17347 48.259766 162.98047 48.259766 C 161.78747 48.259766 160.82031 47.199625 160.82031 45.890625 C 160.82031 44.581625 161.78747 43.519531 162.98047 43.519531 z M 176.79883 64.986328 A 2.05 2.05 0 0 1 177.56055 66.580078 L 177.56055 68.730469 A 2.05 2.05 0 0 1 176.52148 70.484375 L 178.40625 72.369141 L 170.26953 72.369141 A 2.42 2.42 0 0 0 168.55859 76.496094 A 2.412 2.412 0 0 0 170.26953 77.199219 L 174.57031 77.199219 L 176.4707 79.109375 A 7.33 7.33 0 0 0 186.91992 79.009766 A 4.128 4.128 0 0 0 187.2793 78.546875 A 2.051 2.051 0 0 1 187.2168 75.669922 L 189.12695 73.761719 A 2.051 2.051 0 0 1 189.7793 73.355469 L 189.7793 69.380859 L 189.73633 69.410156 A 2.051 2.051 0 0 1 189.19531 71.029297 L 186.72656 73.498047 A 2.0502561 2.0502561 0 1 1 183.82812 70.597656 L 185.41992 69.007812 L 185.41992 66.490234 L 185.38867 66.490234 A 2.051 2.051 0 0 1 184.83008 67.988281 L 182.02148 70.796875 A 2.051 2.051 0 0 1 179.12305 67.896484 L 179.42773 67.591797 L 176.9668 65.130859 A 2.051 2.051 0 0 0 176.79883 64.986328 z M 155.94727 67.212891 A 2.42 2.42 0 0 0 154.19922 67.919922 L 153.5 68.615234 A 2.0508858 2.0508858 0 0 1 150.48438 71.384766 L 148.96484 69.863281 A 2.0502561 2.0502561 0 0 1 148.36914 68.542969 L 148.36914 71.367188 L 148.83203 71.830078 A 2.0502561 2.0502561 0 1 1 145.93359 74.730469 L 144.29297 73.089844 L 141.63086 73.089844 L 141.63086 73.117188 A 2.051 2.051 0 0 1 141.79102 73.103516 A 2.051 2.051 0 0 1 143.2832 73.675781 L 145.75 76.142578 A 2.0502561 2.0502561 0 1 1 142.85156 79.042969 L 140.38281 76.576172 A 2.051 2.051 0 0 1 140.12109 76.240234 L 136.5 76.240234 L 136.51172 76.25 A 2.0502561 2.0502561 0 0 1 137.97656 76.849609 L 139.88477 78.759766 A 2.0502561 2.0502561 0 0 1 140.32812 79.412109 L 141.63086 80.490234 L 141.64844 80.478516 L 144.30078 83.109375 A 4.131 4.131 0 0 0 147.11914 84.339844 A 7.29 7.29 0 0 0 154.57031 77.029297 L 154.57031 74.330078 L 157.61914 71.330078 A 2.406 2.406 0 0 0 158.14258 70.548828 A 2.415 2.415 0 0 0 158.14258 68.701172 A 2.42 2.42 0 0 0 155.94727 67.212891 z"/><path opacity="1" fill="black" d="M 185.00977 49.339844 A 1.76 1.76 0 0 0 185.00977 52.859375 A 1.76 1.76 0 1 0 185.00977 49.339844 z M 138.66992 58.669922 A 0.88 0.88 0 0 0 138.66992 60.429688 A 0.88 0.88 0 1 0 138.66992 58.669922 z M 170.93945 128.16992 A 5.76 5.76 0 0 0 170.93945 139.68945 A 5.76 5.76 0 0 0 175.20312 137.73242 A 3.9 3.9 0 0 1 174.34961 137.83008 A 3.9 3.9 0 0 1 174.34961 130.0293 A 3.9 3.9 0 0 1 175.21094 130.12891 A 5.76 5.76 0 0 0 170.93945 128.16992 z"/></svg>