<svg xmlns="http://www.w3.org/2000/svg" width="40" height="40" viewBox="0 0 40 40"><path opacity="0.5" fill="black" d="M 2.265625 5.4335938 C 1.0160848 5.4335938 0.00390625 6.4457725 0.00390625 7.6953125 L 0.00390625 37.734375 C 0.00390625 38.983975 1.0160849 39.996094 2.265625 39.996094 L 30.691406 39.996094 C 31.940906 39.996094 32.953125 38.983975 32.953125 37.734375 L 32.953125 27.019531 L 29.279297 30.691406 L 29.279297 36.595703 L 23.375 36.595703 L 23.369141 36.601562 L 23.363281 36.595703 L 3.6660156 36.595703 L 3.6660156 8.8203125 L 7.828125 8.8203125 L 11.216797 5.4335938 L 2.265625 5.4335938 z M 21.4375 5.4335938 L 24.816406 8.8203125 L 29.279297 8.8203125 L 29.279297 21.091797 L 31.816406 18.554688 L 32.953125 19.691406 L 32.953125 19.683594 L 31.816406 18.546875 L 32.953125 17.410156 L 32.953125 7.6953125 C 32.953125 6.4457724 31.940906 5.4335938 30.691406 5.4335938 L 21.4375 5.4335938 z"/><path opacity="0.3" fill="black" d="m 16.328125,-0.0039063 c -0.9945,0 -1.947191,0.39439435 -2.650391,1.0976562 -0.7033,0.70326 -1.099609,1.6577838 -1.099609,2.6523438 -0.0123,0.1038 -0.0123,0.2087 0,0.3125 0,0.00399 0.0019,0.00773 0.002,0.011719 l -0.01367,0.013672 -4.7382812,4.7363282 V 10.507813 H 24.816406 V 8.8203125 l -4.738281,-4.75 -0.002,-0.00195 c 9e-6,-0.00334 0.002,-0.00643 0.002,-0.00977 0.0121,-0.09964 0.0121,-0.2011413 0,-0.3007812 0.0017,-0.4935101 -0.09355,-0.9810902 -0.28125,-1.4375 -0.1878,-0.4564202 -0.4641,-0.8711632 -0.8125,-1.2207032 -0.3484,-0.34954992 -0.760997,-0.62717024 -1.216797,-0.81640622 -0.4558,-0.18923651 -0.945953,-0.28711212 -1.439453,-0.28710938 z m 0.01367,2.125 c 0.4376,0 0.856615,0.1729919 1.166015,0.4824219 0.3095,0.30944 0.484375,0.7303587 0.484375,1.1679687 0.0061,0.02885 0.0061,0.059041 0,0.087891 h -0.02539 c 0,0.2108259 -0.04217,0.41546 -0.119141,0.6074219 -0.08689,0.1921786 -0.210573,0.366481 -0.367188,0.5136719 -0.311099,0.29238 -0.725543,0.4515662 -1.152343,0.4414062 -0.4225,0.00356 -0.829066,-0.1575187 -1.134766,-0.4492187 -0.3057,-0.29169 -0.485653,-0.6910611 -0.501953,-1.1132813 -0.0061,-0.02885 -0.0061,-0.059041 0,-0.087891 0,-0.43761 0.173022,-0.8585287 0.482422,-1.1679687 0.3094,-0.30943 0.730369,-0.4824219 1.167969,-0.4824219 z M 7.6171872,13.632813 v 4.488281 h 4.4863278 v -4.488281 z m 9.6874998,0 c -1.2357,0 -2.238281,1.002481 -2.238281,2.238281 v 0.01172 c 0,1.2357 1.002581,2.238281 2.238281,2.238281 h 5.273438 c 1.2357,0 2.238281,-1.002581 2.238281,-2.238281 v -0.01172 c 0,-1.2358 -1.002581,-2.238281 -2.238281,-2.238281 z m 15.652344,3.773437 -1.140625,1.140625 4.808594,4.808594 1.140625,-1.140625 z m -23.71875,3.064453 0.6152344,0.617188 0.6171876,-0.617188 z m 8.066406,0 c -1.2357,0 -2.238281,1.002482 -2.238281,2.238282 v 0.01172 c 0,1.2357 1.002581,2.238282 2.238281,2.238282 h 5.273438 c 1.2357,0 2.238281,-1.002582 2.238281,-2.238282 v -0.01172 c 0,-1.2358 -1.002581,-2.238282 -2.238281,-2.238282 z m -5.201172,1.619141 -0.623047,0.623047 0.623047,0.625 z m -4.4863278,0.01367 v 1.220703 l 0.609375,-0.609375 z m 2.2363282,2.236328 -0.6191406,0.619141 h 1.2382812 z m -2.2363282,2.96875 v 4.488281 h 4.4863278 v -4.488281 z m 9.6874998,0 c -1.2357,0 -2.238281,1.002581 -2.238281,2.238281 v 0.01172 c 0,1.2358 1.002581,2.238281 2.238281,2.238281 h 1.271485 l 4.443359,-4.443359 c -0.142747,-0.02857 -0.290254,-0.04492 -0.441406,-0.04492 z"/><path opacity="0.8" fill="black" d="M 31.816406,18.554688 18.570312,31.802734 23.369141,36.601562 36.617188,23.355469 Z"/><path opacity="1" fill="black" d="m 18.570312,36.602734 h 4.8 l -4.8,-4.8 z"/></svg>