<svg xmlns="http://www.w3.org/2000/svg" width="24" height="24" viewBox="0 0 24 24"><path fill="black" d="m 19.889203,2.4815697 c -0.451297,-0.451296 -1.177932,-0.451296 -1.629228,0 l -0.814614,0.8146138 3.258455,3.2584552 0.814614,-0.8146138 c 0.451296,-0.4512961 0.451296,-1.1779315 0,-1.6292276 z M 13.046128,0.5261785 c -0.722073,-0.7220737 -1.908062,-0.6980646 -2.660222,0.054095 L 4.9540867,6.0120928 C 4.2019261,6.7642535 4.1779174,7.9502426 4.899991,8.6723163 L 15.327684,19.10001 c 0.722074,0.722073 1.908063,0.698064 2.660224,-0.0541 l 5.431818,-5.431819 c 0.752161,-0.75216 0.776169,-1.93815 0.0541,-2.660223 z M 7.669996,13.071549 0.338472,20.403073 c -0.451296,0.451296 -0.451296,1.177931 0,1.629228 l 1.6292276,1.629227 c 0.451296,0.451296 1.1779315,0.451296 1.6292276,0 l 7.3315238,-7.331524 z"/></svg>