<svg xmlns="http://www.w3.org/2000/svg" width="24" height="24" viewBox="0 0 24 24"><path fill="black" d="m 14.392514,0.8598 c 0.342633,0.1713 0.664714,0.3636 0.96484,0.5723 0.910682,0.6324 1.625168,1.4361 2.121084,2.3867 0.51395,0.9867 0.792053,2.1329 0.828121,3.4082 v 0.016 0.016 9.4941 0.016 0.016 c -0.03478,1.2752 -0.312883,2.4215 -0.828121,3.4081 -0.495916,0.9507 -1.209112,1.7543 -2.121084,2.3868 -0.29111,0.2022 -0.602548,0.3872 -0.93359,0.5546 h 0.93359 c 4.459384,0.024 8.642539,-2.2045 8.642539,-7.3144 V 8.3535 C 24.024363,3.1431 19.840176,0.8613 15.38079,0.8613 Z M 0,0.8676 v 9.1972 l 5.693334,5.127 V 5.4399 h 3.310532 c 3.53582,0 3.53582,4.4433 0,4.4433 H 6.8163759 v 4.2441 H 9.003866 c 3.53582,0 3.53582,4.4414 0,4.4414 H 0 v 4.5703 h 8.9042572 c 4.5894828,0 8.1510738,-1.8365 8.2773068,-6.3886 0,-2.0945 -0.574111,-3.6596 -1.583977,-4.7481 1.009866,-1.0871 1.583977,-2.6516 1.583977,-4.746 C 17.056618,2.7041 13.495028,0.8676 8.9042572,0.8676 Z"/></svg>