<?xml version="1.0" encoding="UTF-8" standalone="no"?>
<svg
   xmlns:dc="http://purl.org/dc/elements/1.1/"
   xmlns:cc="http://creativecommons.org/ns#"
   xmlns:rdf="http://www.w3.org/1999/02/22-rdf-syntax-ns#"
   xmlns:svg="http://www.w3.org/2000/svg"
   xmlns="http://www.w3.org/2000/svg"
   xmlns:sodipodi="http://sodipodi.sourceforge.net/DTD/sodipodi-0.dtd"
   xmlns:inkscape="http://www.inkscape.org/namespaces/inkscape"
   width="24"
   height="24"
   viewBox="0 0 24 24"
   version="1.1"
   id="svg872"
   sodipodi:docname="settings_icons_questiomark.svg"
   inkscape:version="0.92.4 (5da689c313, 2019-01-14)">
  <metadata
     id="metadata878">
    <rdf:RDF>
      <cc:Work
         rdf:about="">
        <dc:format>image/svg+xml</dc:format>
        <dc:type
           rdf:resource="http://purl.org/dc/dcmitype/StillImage" />
        <dc:title></dc:title>
      </cc:Work>
    </rdf:RDF>
  </metadata>
  <defs
     id="defs876" />
  <sodipodi:namedview
     pagecolor="#ffffff"
     bordercolor="#666666"
     borderopacity="1"
     objecttolerance="10"
     gridtolerance="10"
     guidetolerance="10"
     inkscape:pageopacity="0"
     inkscape:pageshadow="2"
     inkscape:window-width="1366"
     inkscape:window-height="705"
     id="namedview874"
     showgrid="false"
     inkscape:zoom="9.8333333"
     inkscape:cx="12"
     inkscape:cy="12"
     inkscape:window-x="-8"
     inkscape:window-y="-8"
     inkscape:window-maximized="1"
     inkscape:current-layer="svg872" />
  <path
     d="M 12,0 C 5.3832,0 0,5.3844 0,12 0,18.618 5.3832,24 12,24 18.6168,24 24,18.618 24,12 24,5.3844 18.6168,0 12,0 Z m 0,19.5 c -0.828,0 -1.5,-0.6708 -1.5,-1.5 0,-0.828 0.672,-1.5 1.5,-1.5 0.828,0 1.5,0.672 1.5,1.5 0,0.8292 -0.672,1.5 -1.5,1.5 z m 1.2,-5.25 V 15.6 H 10.8 V 12 H 12 c 1.3248,0 2.4,-1.0764 2.4,-2.4 C 14.4,8.2752 13.3248,7.2 12,7.2 10.6752,7.2 9.6,8.2752 9.6,9.6 H 7.2 c 0,-2.646 2.154,-4.8 4.8,-4.8 2.646,0 4.8,2.154 4.8,4.8 0,2.2332 -1.5324,4.1148 -3.6,4.65 z"
     id="path870"
     inkscape:connector-curvature="0"
     style="fill:#000000;stroke-width:1.20000005" />
</svg>
