<svg xmlns="http://www.w3.org/2000/svg" width="24" height="24" viewBox="0 0 24 24"><path fill="black" d="M 4.0800781 0 C 2.4895961 5.9211895e-16 1.1992188 1.343249 1.1992188 3 L 1.1992188 21 C 1.1992188 22.656722 2.4895961 24 4.0800781 24 L 22.800781 24 L 22.800781 3 L 21.359375 3 L 21.359375 22.5 L 4.0800781 22.5 C 3.2848371 22.5 2.640625 21.829081 2.640625 21 C 2.640625 20.170919 3.2848371 19.5 4.0800781 19.5 L 19.919922 19.5 L 19.919922 0 L 4.0800781 0 z M 10.166016 2.5 C 11.086017 2.5 11.832031 3.2460149 11.832031 4.1660156 L 11.832031 5.1660156 L 14.501953 5.1660156 C 15.235286 5.1660157 15.833984 5.7647143 15.833984 6.4980469 L 15.833984 9.1679688 L 16.833984 9.1679688 C 17.753984 9.1679688 18.5 9.9139846 18.5 10.833984 C 18.5 11.753984 17.753984 12.501953 16.833984 12.501953 L 15.833984 12.501953 L 15.833984 15.166016 C 15.833984 15.89935 15.235286 16.5 14.501953 16.5 L 11.966797 16.5 L 11.966797 15.5 C 11.966797 14.506668 11.15935 13.699219 10.166016 13.699219 C 9.1726836 13.699219 8.3671875 14.506668 8.3671875 15.5 L 8.3671875 16.5 L 5.8320312 16.5 C 5.0986973 16.5 4.5 15.89935 4.5 15.166016 L 4.5 12.632812 L 5.5 12.632812 C 6.4933326 12.632812 7.3007812 11.827316 7.3007812 10.833984 C 7.3007812 9.8406502 6.4933326 9.0332031 5.5 9.0332031 L 4.5058594 9.0332031 L 4.5058594 6.4980469 C 4.5058594 5.7647143 5.0986972 5.1660156 5.8320312 5.1660156 L 8.4980469 5.1660156 L 8.4980469 4.1660156 C 8.4980469 3.2460149 9.2460166 2.5 10.166016 2.5 z"/></svg>