<svg xmlns="http://www.w3.org/2000/svg" width="24" height="24" viewBox="0 0 24 24"><path fill="black" d="M 15.234287,-2.5000473e-7 C 15.02721,-2.5000473e-7 14.820056,0.07834478 14.662059,0.23631857 L 8.2386669,6.6598939 17.339613,15.761099 23.763006,9.337523 c 0.315992,-0.3159477 0.315992,-0.8284847 0,-1.1444862 L 22.548244,6.9801939 C 22.273625,6.705567 21.84214,6.6642856 21.52097,6.8825414 l -2.552561,1.7343068 1.724492,-2.5702114 c 0.21539,-0.3210182 0.173831,-0.750065 -0.0996,-1.0233972 L 17.958711,2.3905307 C 17.715539,2.147353 17.344681,2.0830719 17.034946,2.2323338 L 16.579898,2.4530282 16.798634,1.9686723 C 16.936887,1.6620029 16.870459,1.3023022 16.632629,1.0644109 L 15.806514,0.23631857 C 15.648545,0.07834478 15.441364,-2.5000473e-7 15.234287,-2.5000473e-7 Z M 7.0434355,7.8551595 5.1841865,9.7144613 c -0.151739,0.1517432 -0.2363122,0.3576557 -0.2363122,0.5722437 0,0.214587 0.084519,0.420554 0.2363122,0.572243 l 1.7635523,1.763603 c 0.3397809,0.33979 0.505526,0.80928 0.4530942,1.287058 -0.052377,0.477455 -0.3168012,0.899444 -0.7226072,1.158157 -5.1821053,3.303397 -5.6651266,3.786402 -5.82382411,3.945158 -1.13920225,1.139181 -1.13920225,2.993361 0,4.13265 1.14033501,1.140368 2.99457091,1.138102 4.13253241,0 0.1588054,-0.158756 0.6419574,-0.642006 3.9450452,-5.823989 0.2580588,-0.404847 0.680468,-0.668188 1.1581247,-0.720676 0.479168,-0.05227 0.94805,0.112228 1.287022,0.451154 l 1.763552,1.763603 c 0.315939,0.315948 0.828515,0.315948 1.144454,0 l 1.859249,-1.859302 z M 2.9714457,19.885937 c 0.2926829,0 0.5852459,0.110645 0.808539,0.333971 0.4466403,0.446598 0.4466403,1.170471 0,1.617124 -0.4466402,0.446653 -1.1704915,0.446653 -1.6170779,0 -0.4466401,-0.446653 -0.4466401,-1.170526 0,-1.617124 0.2233201,-0.223326 0.5158561,-0.333971 0.8085389,-0.333971 z"/></svg>