<?xml version="1.0" encoding="UTF-8" standalone="no"?>
<svg
   xmlns:dc="http://purl.org/dc/elements/1.1/"
   xmlns:cc="http://creativecommons.org/ns#"
   xmlns:rdf="http://www.w3.org/1999/02/22-rdf-syntax-ns#"
   xmlns:svg="http://www.w3.org/2000/svg"
   xmlns="http://www.w3.org/2000/svg"
   xmlns:sodipodi="http://sodipodi.sourceforge.net/DTD/sodipodi-0.dtd"
   xmlns:inkscape="http://www.inkscape.org/namespaces/inkscape"
   width="24"
   height="24"
   viewBox="0 0 24 24"
   version="1.1"
   id="svg2638"
   sodipodi:docname="settings_icons_integrations.svg"
   inkscape:version="0.92.4 (5da689c313, 2019-01-14)">
  <metadata
     id="metadata2644">
    <rdf:RDF>
      <cc:Work
         rdf:about="">
        <dc:format>image/svg+xml</dc:format>
        <dc:type
           rdf:resource="http://purl.org/dc/dcmitype/StillImage" />
      </cc:Work>
    </rdf:RDF>
  </metadata>
  <defs
     id="defs2642" />
  <sodipodi:namedview
     pagecolor="#ffffff"
     bordercolor="#666666"
     borderopacity="1"
     objecttolerance="10"
     gridtolerance="10"
     guidetolerance="10"
     inkscape:pageopacity="0"
     inkscape:pageshadow="2"
     inkscape:window-width="1366"
     inkscape:window-height="705"
     id="namedview2640"
     showgrid="false"
     inkscape:zoom="9.8333333"
     inkscape:cx="12"
     inkscape:cy="12"
     inkscape:window-x="-8"
     inkscape:window-y="-8"
     inkscape:window-maximized="1"
     inkscape:current-layer="svg2638" />
  <path
     d="M 4.4479735,3.4653965 H 19.551929 c 1.915074,0 3.504552,1.4799939 3.640996,3.390201 L 23.994144,18.07267 c 0.08916,1.248237 -0.850458,2.332412 -2.098696,2.421572 -0.05373,0.0038 -0.107574,0.0058 -0.161438,0.0058 -1.430193,0 -2.676856,-0.973365 -3.023729,-2.360856 L 18.083738,15.63297 H 5.9161645 L 5.2896212,18.139144 C 4.9427483,19.526635 3.6960857,20.5 2.2658923,20.5 1.0144746,20.5 0,19.485525 0,18.234108 0,18.180248 0.00192,18.126397 0.00576,18.07267 L 0.8069777,6.8555975 C 0.9434211,4.9453904 2.5328995,3.4653965 4.4479735,3.4653965 Z m 10.5938715,6.083787 c 1.007994,0 1.825136,-0.8171413 1.825136,-1.8251361 0,-1.0079949 -0.817142,-1.8251361 -1.825136,-1.8251361 -1.007995,0 -1.825137,0.8171412 -1.825137,1.8251361 0,1.0079948 0.817142,1.8251361 1.825137,1.8251361 z m 4.867029,3.6502725 c 1.007995,0 1.825136,-0.817142 1.825136,-1.825136 0,-1.007995 -0.817141,-1.8251365 -1.825136,-1.8251365 -1.007995,0 -1.825136,0.8171415 -1.825136,1.8251365 0,1.007994 0.817141,1.825136 1.825136,1.825136 z M 4.6994071,8.3324261 H 2.2658923 v 2.4335149 h 2.4335148 v 2.433515 H 7.1329219 V 10.765941 H 9.5664364 V 8.3324261 H 7.1329219 V 5.8989113 H 4.6994071 Z"
     id="path2636"
     inkscape:connector-curvature="0"
     style="fill:#000000;stroke-width:1.21675742" />
</svg>
