<svg xmlns="http://www.w3.org/2000/svg" width="24" height="24" viewBox="0 0 24 24"><path fill="black" d="M 4.0800781 0 C 2.4895958 5.9211895e-16 1.1992188 1.343249 1.1992188 3 L 1.1992188 21 C 1.1992188 22.656722 2.4895958 24 4.0800781 24 L 22.800781 24 L 22.800781 3 L 21.359375 3 L 21.359375 22.5 L 4.0800781 22.5 C 3.2848368 22.5 2.640625 21.829081 2.640625 21 C 2.640625 20.170919 3.2848368 19.5 4.0800781 19.5 L 19.919922 19.5 L 19.919922 0 L 4.0800781 0 z M 13.386719 2.5 C 13.507524 2.5 13.626592 2.5445557 13.71875 2.6367188 L 14.203125 3.1191406 C 14.341867 3.2579236 14.37949 3.4695295 14.298828 3.6484375 L 14.169922 3.9296875 L 14.4375 3.8007812 C 14.618197 3.7137013 14.832745 3.7526712 14.974609 3.8945312 L 16.513672 5.4296875 C 16.673194 5.5891474 16.69597 5.8400649 16.570312 6.0273438 L 15.566406 7.5273438 L 17.052734 6.5136719 C 17.240101 6.3863417 17.492135 6.412051 17.652344 6.5722656 L 18.361328 7.2773438 C 18.545673 7.4616964 18.545673 7.7609913 18.361328 7.9453125 L 14.615234 11.695312 L 9.3046875 6.3847656 L 13.052734 2.6367188 C 13.144904 2.5445588 13.265911 2.5 13.386719 2.5 z M 8.6074219 7.0820312 L 13.917969 12.392578 L 12.833984 13.476562 C 12.649668 13.660884 12.350331 13.660883 12.166016 13.476562 L 11.138672 12.447266 C 10.940919 12.249547 10.664308 12.153094 10.384766 12.183594 C 10.106106 12.214214 9.8614876 12.367332 9.7109375 12.603516 C 7.7839475 15.626636 7.5028018 15.909334 7.4101562 16.001953 C 6.7462802 16.665911 5.6633073 16.667233 4.9980469 16.001953 C 4.3334463 15.337303 4.3334463 14.254432 4.9980469 13.589844 C 5.0906289 13.497224 5.3732927 13.216233 8.3964844 11.289062 C 8.6332284 11.138133 8.7878015 10.893776 8.8183594 10.615234 C 8.8489525 10.336503 8.7509614 10.059558 8.5527344 9.8613281 L 7.5234375 8.8339844 C 7.4348865 8.7454894 7.3867188 8.6251874 7.3867188 8.5 C 7.3867188 8.3748114 7.4349143 8.2545393 7.5234375 8.1660156 L 8.6074219 7.0820312 z M 6.234375 14.101562 C 6.0636263 14.101562 5.8920017 14.164628 5.7617188 14.294922 C 5.5011532 14.555463 5.5011533 14.977709 5.7617188 15.238281 C 6.022253 15.498855 6.4445126 15.498855 6.7050781 15.238281 C 6.9656438 14.977709 6.9656438 14.555463 6.7050781 14.294922 C 6.5748112 14.164632 6.4051234 14.101562 6.234375 14.101562 z"/></svg>