<svg xmlns="http://www.w3.org/2000/svg" width="24" height="24" viewBox="0 0 24 24"><path fill="black" d="M 12,0 C 5.3733333,0 0,5.3733333 0,12 c 0,6.626667 5.3733333,12 12,12 1.106667,0 2,-0.893333 2,-2 0,-0.52 -0.2,-0.986667 -0.52,-1.346667 -0.306667,-0.346666 -0.506667,-0.813333 -0.506667,-1.32 0,-1.106666 0.893334,-2 2,-2 h 2.36 C 21.013333,17.333333 24,14.346667 24,10.666667 24,4.7733333 18.626667,0 12,0 Z M 4.6666667,12 c -1.1066667,0 -2,-0.893333 -2,-2 0,-1.1066667 0.8933333,-2 2,-2 1.1066666,0 2,0.8933333 2,2 0,1.106667 -0.8933334,2 -2,2 z M 8.666667,6.6666667 c -1.106667,0 -2.0000003,-0.8933334 -2.0000003,-2 0,-1.1066667 0.8933333,-2 2.0000003,-2 1.106666,0 2,0.8933333 2,2 0,1.1066666 -0.893334,2 -2,2 z m 6.666666,0 c -1.106666,0 -2,-0.8933334 -2,-2 0,-1.1066667 0.893334,-2 2,-2 1.106667,0 2,0.8933333 2,2 0,1.1066666 -0.893333,2 -2,2 z m 4,5.3333333 c -1.106666,0 -2,-0.893333 -2,-2 0,-1.1066667 0.893334,-2 2,-2 1.106667,0 2,0.8933333 2,2 0,1.106667 -0.893333,2 -2,2 z"/></svg>