<svg xmlns="http://www.w3.org/2000/svg" width="24" height="24" viewBox="0 0 24 24"><path fill="black" d="M 12.018182,0 A 3.2727272,3.2727272 0 0 0 8.936683,2.1818182 H 4.109091 C 3.0514546,2.1818182 2.2,3.0332728 2.2,4.090909 v 18 C 2.2,23.148545 3.0514546,24 4.109091,24 h 15.818182 c 1.057636,0 1.909091,-0.851455 1.909091,-1.909091 v -18 c 0,-1.0576362 -0.851455,-1.9090908 -1.909091,-1.9090908 H 15.09968 A 3.2727272,3.2727272 0 0 0 12.018182,0 Z m 0,2.1818182 a 1.0909091,1.0909091 0 0 1 1.090909,1.090909 1.0909091,1.0909091 0 0 1 -1.090909,1.0909092 1.0909091,1.0909091 0 0 1 -1.090909,-1.0909092 1.0909091,1.0909091 0 0 1 1.090909,-1.090909 z m -7.090909,6 H 15.836364 V 10.909091 H 4.927273 Z m 0,4.0909088 H 15.836364 V 15 H 4.927273 Z m 0,4.090909 h 8.181818 v 2.727273 H 4.927273 Z"/></svg>