<svg xmlns="http://www.w3.org/2000/svg" width="24" height="24" viewBox="0 0 24 24"><path fill="black" d="M 2.0109343,23.939814 C 1.6603911,23.828637 1.3603462,23.548204 1.2177168,23.198446 l -0.066585,-0.163279 v -4.349173 -4.349176 h 4.9132311 4.9132291 l 0.0075,4.831591 L 10.992615,24 6.5913984,23.99833 C 2.340002,23.99673 2.1840821,23.99473 2.0109343,23.93981 Z m 11.0075637,-4.771405 0.0075,-4.831591 h 4.913231 4.913229 v 4.349176 4.349173 l -0.06658,0.163279 c -0.14468,0.35479 -0.444479,0.631961 -0.803498,0.742849 C 21.796672,23.998657 21.691771,24 17.401653,24 H 13.010988 Z M 0.13338381,10.232565 0.1417674,8.1618831 0.20898997,7.9986036 C 0.34682389,7.6638131 0.59368744,7.4169496 0.92847815,7.2791154 1.0916704,7.2119289 1.0928987,7.2118848 3.227886,7.1970494 L 5.3640141,7.1822057 5.1575538,7.0486732 C 4.8861765,6.8731551 4.3620914,6.3504249 4.1695381,6.0632118 3.8712878,5.6183432 3.656453,5.1016295 3.5362488,4.5400455 c -0.050311,-0.2350518 -0.050311,-1.1305588 0,-1.3656108 C 3.7161743,2.333837 4.0583046,1.687883 4.6223516,1.1238369 5.1863986,0.55978987 5.8323533,0.21765982 6.6729499,0.03773316 c 0.2350513,-0.05031088 1.1305588,-0.05031088 1.3656101,0 0.5621745,0.1203311 1.0794686,0.33551723 1.5231667,0.63361524 0.2574882,0.17299098 0.7745823,0.6756185 0.9258823,0.8999779 0.05505,0.08164 0.126345,0.1763684 0.158422,0.2105078 0.100754,0.1072285 0.443031,0.7530243 0.643684,1.2144775 0.11346,0.2609263 0.321521,0.8642836 0.400844,1.1624052 0.148123,0.5566959 0.279754,1.3368557 0.280976,1.6652999 3.12e-4,0.085722 0.01394,0.1558577 0.03026,0.1558577 0.01633,0 0.02995,-0.070136 0.03027,-0.1558577 0.0012,-0.3284442 0.132853,-1.108604 0.280976,-1.6652999 0.07932,-0.2981216 0.287384,-0.9014789 0.400841,-1.1624052 0.200656,-0.4614532 0.542933,-1.107249 0.643686,-1.2144775 0.03208,-0.034139 0.103367,-0.1288679 0.158423,-0.2105078 0.1513,-0.2243594 0.668394,-0.72698692 0.925882,-0.8999779 0.443698,-0.29809801 0.960992,-0.51328414 1.523164,-0.63361524 0.235054,-0.05031088 1.130559,-0.05031088 1.365613,0 0.840596,0.17992666 1.486551,0.52205671 2.050598,1.08610374 0.564044,0.5640461 0.906174,1.2100001 1.086101,2.0505978 0.05031,0.235052 0.05031,1.130559 0,1.3656108 -0.120204,0.561584 -0.335038,1.0782977 -0.633288,1.5231663 -0.192555,0.2872131 -0.71664,0.8099433 -0.988016,0.9854614 l -0.20646,0.1335325 2.136126,0.014844 c 2.134987,0.014835 2.136216,0.01488 2.299408,0.082066 0.334791,0.1378342 0.581655,0.3846977 0.719488,0.7194882 l 0.06722,0.1632795 0.0084,2.0706816 0.0084,2.070681 H 12.0018 0.125 Z M 9.101599,5.6795695 C 9.1247305,5.6426506 9.0277313,5.3965416 8.6803689,4.6108305 8.4321654,4.0494042 8.18752,3.5299389 8.136717,3.4564631 7.8710107,3.072182 7.646393,2.9384427 7.2666945,2.9384427 c -0.2953816,0 -0.4808145,0.075281 -0.6767277,0.2747376 -0.199852,0.2034647 -0.2722746,0.382316 -0.2728201,0.673747 -3.785e-4,0.1986038 0.0127,0.2642371 0.079819,0.4007771 0.1434069,0.2917417 0.2634219,0.3777334 1.0181631,0.7295204 0.3755437,0.1750418 0.8765151,0.4093305 1.1132697,0.5206417 0.2367568,0.1113114 0.4558194,0.1995226 0.4868084,0.1960254 0.030987,-0.0035 0.069864,-0.027942 0.086392,-0.054322 z m 6.335469,-0.1265456 c 2.026812,-0.9378296 2.001265,-0.9229305 2.169569,-1.2653195 0.108455,-0.220636 0.113527,-0.5634318 0.01164,-0.7867105 -0.08865,-0.1942707 -0.303671,-0.4102361 -0.492704,-0.4948713 -0.213436,-0.09556 -0.566249,-0.095721 -0.774596,-3.54e-4 -0.346434,0.1585732 -0.472402,0.3543945 -1.014674,1.5773259 -0.250145,0.5641292 -0.454817,1.0397169 -0.454826,1.0568613 -2.2e-5,0.042878 0.06323,0.1024208 0.108802,0.1024208 0.02066,0 0.221719,-0.085209 0.446791,-0.1893529 z"/></svg>