<svg xmlns="http://www.w3.org/2000/svg" width="24" height="24" viewBox="0 0 24 24"><path fill="black" d="M 23.4312,7.3788 C 23.0772,7.1592 22.6344,7.1412 22.2636,7.326 L 19.2,8.8584 V 6 C 19.2,4.6764 18.1236,3.6 16.8,3.6 H 2.4 C 1.0764,3.6 0,4.6764 0,6 v 12 c 0,1.3248 1.0764,2.4 2.4,2.4 h 14.4 c 1.3236,0 2.4,-1.0752 2.4,-2.4 v -2.8584 l 3.0636,1.5312 C 22.4328,16.758 22.6164,16.8 22.8,16.8 c 0.2196,0 0.438,-0.0612 0.6312,-0.1788 C 23.784,16.4016 24,16.0164 24,15.6 V 8.4 C 24,7.9836 23.784,7.5984 23.4312,7.3788 Z"/></svg>