<svg xmlns="http://www.w3.org/2000/svg" width="24" height="24" viewBox="0 0 24 24"><path fill="black" d="M 2.3283062,23.392769 C 1.6427994,23.030848 0.97200784,22.340697 0.60330621,21.617981 0.0412983,20.516354 0,19.858758 0,12.011501 0,4.1608615 0.04110592,3.5070235 0.60403723,2.4035868 0.99282417,1.6415015 1.6300007,1.0043249 2.3920861,0.61553823 3.4955229,0.05260669 4.149361,0.01150077 11.999999,0.01150077 c 7.850639,0 8.504478,0.04110592 9.607914,0.60403746 0.762086,0.38878667 1.399263,1.02596327 1.78805,1.78804857 C 23.958895,3.5070235 24,4.1608615 24,12.011501 c 0,7.850639 -0.04111,8.504478 -0.604037,9.607913 -0.388787,0.762087 -1.025964,1.399261 -1.78805,1.788048 -1.106113,0.564297 -1.742371,0.603164 -9.670961,0.590777 -7.8562185,-0.01229 -8.5703142,-0.05727 -9.6086458,-0.60547 z M 19.199999,17.081864 c 0,-2.043119 -3.21514,-3.691588 -7.2,-3.691588 C 8.015141,13.390276 4.8,15.038745 4.8,17.081864 v 0.929637 h 7.199999 7.2 z m -5.671833,-5.534927 c 1.059725,-0.548006 2.06959,-2.0779562 2.06959,-3.1354366 0,-1.1776637 -1.097903,-2.6886597 -2.329326,-3.2057447 -0.97274,-0.4084623 -1.273473,-0.4158806 -2.308651,-0.056947 -1.3188596,0.4572956 -2.5597791,1.994984 -2.5597791,3.1719547 0,1.1010836 0.8230153,2.4525696 1.8895651,3.1028826 1.160251,0.707447 2.043911,0.741087 3.238601,0.123291 z"/></svg>