<svg xmlns="http://www.w3.org/2000/svg" width="24" height="24" viewBox="0 0 24 24"><path fill="black" d="M 2.4003906 0 A 2.4 2.4 0 0 0 0 2.4003906 L 0 16.800781 A 2.4 2.4 0 0 0 2.4003906 19.199219 L 4.8007812 19.199219 L 4.8007812 24 L 11.199219 19.199219 L 21.599609 19.199219 A 2.4 2.4 0 0 0 24 16.800781 L 24 2.4003906 A 2.4 2.4 0 0 0 21.599609 0 L 2.4003906 0 z M 2.4003906 2.4003906 L 21.599609 2.4003906 L 21.599609 16.800781 L 10.400391 16.800781 L 7.1992188 19.199219 L 7.1992188 16.800781 L 2.4003906 16.800781 L 2.4003906 2.4003906 z M 6 4.8007812 L 6 14.400391 L 8.4003906 14.400391 L 8.4003906 4.8007812 L 6 4.8007812 z M 15.599609 7.1992188 L 15.599609 14.400391 L 18 14.400391 L 18 7.1992188 L 15.599609 7.1992188 z M 10.800781 9.5996094 L 10.800781 14.400391 L 13.199219 14.400391 L 13.199219 9.5996094 L 10.800781 9.5996094 z"/></svg>