<svg xmlns="http://www.w3.org/2000/svg" width="24" height="24" viewBox="0 0 24 24"><path fill="black" d="M 10.413066,22.472382 C 9.3280446,22.350012 8.342478,21.899705 7.542378,21.16076 6.7970726,20.472421 6.2547842,19.516599 6.0540394,18.537452 5.7732506,17.167889 6.0268744,15.828398 6.7833501,14.685661 c 0.7149377,-1.07999 1.8679918,-1.863174 3.121425,-2.120154 2.4110899,-0.494322 4.7427559,0.719742 5.6933269,2.964432 0.04502,0.106321 0.08942,0.215058 0.09866,0.241638 0.01589,0.04574 0.238897,0.04833 4.160019,0.04833 H 24 v 1.629328 1.629327 h -0.676586 -0.676585 v 1.656943 1.656944 H 20.838 19.029171 v -1.656944 -1.656943 h -1.643728 -1.643727 l -0.02564,0.06214 c -0.238546,0.578169 -0.345544,0.790282 -0.56867,1.127338 -0.714938,1.079989 -1.867992,1.863174 -3.121425,2.120154 -0.537368,0.110174 -1.115172,0.140333 -1.612919,0.0842 z m 0.948717,-3.269191 c 0.61852,-0.131048 1.155697,-0.609521 1.348598,-1.201222 0.08078,-0.247789 0.100388,-0.750951 0.03885,-0.9969 -0.163111,-0.651855 -0.663796,-1.160384 -1.303594,-1.324017 -0.370846,-0.09485 -0.825072,-0.06508 -1.156837,0.07582 -0.7030941,0.298591 -1.1630854,1.03947 -1.1101007,1.78797 0.078352,1.106857 1.1050297,1.886757 2.1830887,1.658349 z M 1.7969602,19.037058 C 0.88019419,18.851621 0.17351449,18.119482 0.03266767,17.209209 c -0.04355689,-0.281502 -0.04355689,-13.6538568 0,-13.9353598 0.14492476,-0.936628 0.90199253,-1.693697 1.83862163,-1.838622 0.1427843,-0.02209 2.7285479,-0.03073 9.2005097,-0.03073 7.649604,0 9.032352,0.0059 9.204552,0.0391 0.932802,0.179962 1.644908,0.909129 1.787434,1.830255 0.02182,0.141043 0.03073,1.855759 0.03073,5.916668 v 5.7180678 h -1.237837 -1.237839 l 0.06347,-0.189249 c 0.153051,-0.45634 0.149608,-0.341236 0.141413,-4.7283588 l -0.0076,-4.043693 -0.07341,-0.265652 c -0.271713,-0.98322 -0.99671,-1.708892 -1.978165,-1.98001 l -0.268091,-0.07406 h -6.50346 -6.5035027 l -0.2680917,0.07406 c -0.9986773,0.275875 -1.7337058,1.025317 -1.9891948,2.028201 l -0.062434,0.245077 v 4.1285498 4.128551 l 0.062434,0.245076 c 0.2583236,1.014013 1.0108789,1.774384 2.0104457,2.03133 l 0.1121636,0.02883 -0.012008,0.547116 c -0.015788,0.719317 0.045818,1.303249 0.2023792,1.91826 l 0.019333,0.07594 -1.294029,-0.0026 c -0.9508154,-0.0019 -1.3416381,-0.01222 -1.4735311,-0.0389 z m 2.4582786,-8.30535 c 4.069e-4,-2.8868108 0.00664,-3.4329908 0.041066,-3.5969478 0.1305,-0.621569 0.6486328,-1.139702 1.2702019,-1.270202 0.2907979,-0.06105 10.6174123,-0.06105 10.9082103,0 0.621569,0.1305 1.139701,0.648633 1.270202,1.270202 0.03442,0.163957 0.04066,0.710137 0.04107,3.5969478 l 4.76e-4,3.403637 H 17.37731 16.968161 l -0.06501,-0.117366 c -0.344917,-0.622762 -0.876549,-1.278148 -1.451093,-1.788882 -0.955456,-0.849344 -2.231147,-1.417358 -3.602979,-1.604262 -0.338072,-0.04606 -1.291255,-0.04606 -1.629327,0 -0.6950474,0.0947 -1.3746017,0.28816 -1.9824426,0.564387 -0.3433391,0.156027 -0.7809754,0.401803 -0.989983,0.555975 -0.062809,0.04633 -0.1426792,0.102877 -0.1774895,0.12566 -0.03481,0.02278 -0.1822547,0.140211 -0.3276536,0.260951 -0.4796316,0.39829 -0.9301607,0.893863 -1.2440003,1.368376 -0.095434,0.144292 -0.195129,0.293798 -0.2215455,0.332236 -0.026416,0.03844 -0.074779,0.12232 -0.1074733,0.186406 l -0.059444,0.116519 H 4.6822421 4.2547596 Z"/></svg>