<svg xmlns="http://www.w3.org/2000/svg" width="24" height="24" viewBox="0 0 24 24"><path fill="black" d="M 12,0 C 5.3832,0 0,5.3844 0,12 0,18.618 5.3832,24 12,24 18.6168,24 24,18.618 24,12 24,5.3844 18.6168,0 12,0 Z m 0,19.5 c -0.828,0 -1.5,-0.6708 -1.5,-1.5 0,-0.828 0.672,-1.5 1.5,-1.5 0.828,0 1.5,0.672 1.5,1.5 0,0.8292 -0.672,1.5 -1.5,1.5 z m 1.2,-5.25 V 15.6 H 10.8 V 12 H 12 c 1.3248,0 2.4,-1.0764 2.4,-2.4 C 14.4,8.2752 13.3248,7.2 12,7.2 10.6752,7.2 9.6,8.2752 9.6,9.6 H 7.2 c 0,-2.646 2.154,-4.8 4.8,-4.8 2.646,0 4.8,2.154 4.8,4.8 0,2.2332 -1.5324,4.1148 -3.6,4.65 z"/></svg>