<svg xmlns="http://www.w3.org/2000/svg" width="24" height="24" viewBox="0 0 24 24"><path fill="black" d="M 8.1,0 0,6.6 V 24 H 3 V 21.832031 21.313477 19.044141 C 3,16.886332 4.179753,15.13887 5.677149,15.012305 5.734353,15.004789 5.791914,15 5.85,15 c 0.058086,0 0.115647,0.0048 0.172852,0.0123 C 7.520247,15.13887 8.7,16.886332 8.7,19.044141 V 21.313477 21.832031 24 h 2.7 v -0.9 -7.5 l 4.8,-2.594532 V 6.6 L 13.8,4.6447265 V 0 h -2.1 v 2.9332032 z m -6,7.8 H 6.6 V 12 H 2.1 Z m 7.2,0 h 4.5 V 12 H 9.3 Z m 9.15,5.7 -5.55,3 V 24 H 24 v -7.5 z m -2.25,3.909961 h 4.5 v 4.2 h -4.5 z"/></svg>