<svg xmlns="http://www.w3.org/2000/svg" width="24" height="24" viewBox="0 0 24 24"><path fill="black" d="m 12.949117,15.354466 v 0 l -2.770928,-2.738201 0.03273,-0.03273 c 1.898181,-2.116379 3.250892,-4.549091 4.04729,-7.1236554 h 3.196383 V 3.2726224 H 9.8181888 V 1.0907856 H 7.636352 V 3.2726224 H 0 V 5.443516 H 12.185446 C 11.449082,7.548955 10.298155,9.54532 8.7272448,11.29081 7.7126987,10.161718 6.872681,8.9344446 6.2072431,7.6362448 H 4.0254574 c 0.7963472,1.7781661 1.8872911,3.4582012 3.2508944,4.9745492 l -5.5472767,5.481822 1.5436545,1.543654 5.4545664,-5.454566 3.392747,3.392747 z"/><path fill="black" d="M 19.090906,9.8180816 H 16.909069 L 11.999974,22.909 h 2.181837 l 1.227274,-3.27273 H 20.59089 L 21.818163,22.909 H 24 Z m -2.863639,7.6363524 1.772746,-4.729095 1.772745,4.729095 z"/></svg>