<svg xmlns="http://www.w3.org/2000/svg" width="24" height="24" viewBox="0 0 24 24"><path fill="black" d="M 2 4 C 0.89200007 4 0 4.8920001 0 6 L 0 18 C 0 19.108 0.89200007 20 2 20 L 22 20 C 23.108 20 24 19.108 24 18 L 24 6 C 24 4.8920001 23.108 4 22 4 L 2 4 z M 3.6660156 6 L 20.333984 6 C 21.257318 6 22 6.669 22 7.5 L 22 16.5 C 22 17.331 21.257318 18 20.333984 18 L 3.6660156 18 C 2.7426823 18 2 17.331 2 16.5 L 2 7.5 C 2 6.669 2.7426823 6 3.6660156 6 z M 13.666016 7 C 13.296682 7 13 7.2672094 13 7.5996094 L 13 11.199219 C 13 11.531619 13.296682 11.800781 13.666016 11.800781 L 20.333984 11.800781 C 20.703318 11.800781 21 11.531619 21 11.199219 L 21 7.5996094 C 21 7.2672094 20.703318 7 20.333984 7 L 13.666016 7 z"/></svg>