<svg xmlns="http://www.w3.org/2000/svg" width="24" height="24" viewBox="0 0 24 24"><path fill="black" d="M 15.46875 0.859375 C 15.772992 1.030675 16.059675 1.2229406 16.326172 1.4316406 C 17.134815 2.0640406 17.768634 2.8677594 18.208984 3.8183594 C 18.665347 4.8050594 18.913286 5.9512625 18.945312 7.2265625 L 18.945312 7.2421875 L 18.945312 7.2597656 L 18.945312 16.753906 L 18.945312 16.769531 L 18.945312 16.785156 C 18.914433 18.060356 18.666491 19.206759 18.208984 20.193359 C 17.768634 21.144059 17.135961 21.947578 16.326172 22.580078 C 16.06768 22.782278 15.790044 22.967366 15.496094 23.134766 L 16.326172 23.134766 C 20.285895 23.158766 24 20.930212 24 15.820312 L 24 8.3535156 C 24.021728 3.1431156 20.305428 0.86132812 16.345703 0.86132812 L 15.46875 0.859375 z M 0 0.8671875 L 0 10.064453 L 4.4492188 15.191406 L 4.4492188 5.4394531 L 8.4394531 5.4394531 C 11.753741 5.4394531 11.753741 9.8828125 8.4394531 9.8828125 L 7.0234375 9.8828125 L 7.0234375 14.126953 L 8.4394531 14.126953 C 11.753741 14.126953 11.753741 18.568359 8.4394531 18.568359 L 0 18.568359 L 0 23.138672 L 8.3457031 23.138672 C 12.647637 23.138672 15.987145 21.3021 16.105469 16.75 C 16.105469 14.6555 15.567688 13.090453 14.621094 12.001953 C 15.567688 10.914853 16.105469 9.3502594 16.105469 7.2558594 C 15.988351 2.7036594 12.648845 0.8671875 8.3457031 0.8671875 L 0 0.8671875 z"/></svg>