<svg xmlns="http://www.w3.org/2000/svg" width="24" height="24" viewBox="0 0 24 24"><path fill="black" d="m 4.2160084,0 c -1.09331,0 -2.18645,0.39826 -2.9826,1.19476 -1.64452,1.64522 -1.64452,4.3217 0,5.96622 1.05675,1.05675 2.62163,1.48179 4.07592,1.0925 l 2.71317,2.75189 2.9831496,-2.98288 -2.7135296,-2.7518 c 0.38794,-1.45223 -0.0309,-3.01435 -1.0924,-4.07593 C 6.4028684,0.39826 5.3093284,0 4.2160084,0 Z M 19.763128,1.9e-4 c -1.10296,0.006 -2.17211,0.44331 -2.96411,1.23413 -1.06153,1.06223 -1.48044,2.62369 -1.0925,4.07593 l -10.3958996,10.39562 -7.5e-4,-7.3e-4 c -1.44675,-0.38381 -3.01709,0.035 -4.0752,1.09314 -0.93248,0.93249 -1.37878,2.27073 -1.19339,3.57944 0.0378,0.26367 0.22113,0.48348 0.47379,0.5679 0.25064,0.0845 0.53075,0.0185 0.7196,-0.16965 l 0.99427,-0.99499 c 0.53146,-0.53147 1.45778,-0.53147 1.98925,0 0.54994,0.54984 0.54966,1.43896 0,1.98861 l -0.99426,0.99427 c -0.18815,0.18815 -0.25412,0.4669 -0.16965,0.7196 0.0845,0.2527 0.30423,0.43605 0.56791,0.47379 1.30875,0.18623 2.62563,-0.24049 3.57879,-1.19275 1.06153,-1.06224 1.48044,-2.6237 1.0925,-4.07593 L 18.689378,8.29303 l 7.5e-4,7.4e-4 c 1.4543,0.38521 3.01709,-0.035 4.0752,-1.09314 0.93248,-0.93249 1.37878,-2.27069 1.19339,-3.57944 -0.0378,-0.26367 -0.22113,-0.48348 -0.47379,-0.5679 -0.25129,-0.0851 -0.53074,-0.0185 -0.7196,0.16965 l -0.99427,0.9949 c -0.53147,0.53147 -1.45779,0.53147 -1.98926,0 -0.54993,-0.54994 -0.54965,-1.43896 0,-1.98853 l 0.99427,-0.99426 c 0.18816,-0.18815 0.25411,-0.4669 0.16965,-0.7196 -0.0845,-0.25271 -0.30423,-0.43605 -0.5679,-0.47379 -0.20503,-0.029 -0.41044,-0.0426 -0.61469,-0.0415 z M 4.6337684,1.93946 c 0.18339,2.3e-4 0.36228,0.073 0.49566,0.20636 l 1.14185,1.14184 c 0.17784,0.17785 0.24721,0.43666 0.18201,0.67905 l -0.41821,1.56006 c -0.0652,0.24239 -0.2547,0.43193 -0.49705,0.49713 l -1.56005,0.41821 c -0.22917,0.0632 -0.49394,0.003 -0.67905,-0.18201 l -1.14194,-1.14184 c -0.17784,-0.17784 -0.24711,-0.43675 -0.18191,-0.67914 l 0.41812,-1.55996 c 0.0652,-0.2424 0.25479,-0.43193 0.49713,-0.49714 l 1.56006,-0.41821 c 0.0606,-0.0165 0.12225,-0.0244 0.18338,-0.0243 z m 11.3441996,11.05471 -2.9837,2.98343 2.72479,2.72498 c -0.10645,0.40303 -0.15655,0.74567 -0.15655,1.07867 0,2.32636 1.89239,4.21875 4.21875,4.21875 2.32636,0 4.21875,-1.89239 4.21875,-4.21875 0,-2.32636 -1.89239,-4.21875 -4.21875,-4.21875 -0.333,0 -0.67566,0.0501 -1.07803,0.15656 z m 4.29016,4.61838 c 0.18305,3e-5 0.36253,0.0736 0.4964,0.207 l 1.14194,1.14185 c 0.17784,0.17784 0.24712,0.43665 0.18192,0.67904 l -0.41813,1.56006 c -0.0652,0.24239 -0.25478,0.43193 -0.49713,0.49713 l -1.56006,0.41821 c -0.22917,0.0632 -0.49393,0.003 -0.67904,-0.182 l -1.14194,-1.14185 c -0.17784,-0.17784 -0.24712,-0.43674 -0.18191,-0.67914 l 0.41812,-1.55996 c 0.0652,-0.24239 0.25478,-0.43193 0.49713,-0.49713 l 1.56005,-0.41822 c 0.0603,-0.0168 0.12164,-0.025 0.18265,-0.025 z"/></svg>