<svg xmlns="http://www.w3.org/2000/svg" width="24" height="24" viewBox="0 0 24 24"><path fill="black" d="M 12.037109 4.5644531 C 10.515007 4.5542257 8.963827 5.0040687 7.65625 5.8222656 L 1.1171875 10.185547 C 0.02754564 11.05829 -0.40882727 12.586805 0.46289062 13.677734 C 1.1166844 14.986849 2.6435842 15.205339 3.9511719 14.550781 L 9.3984375 10.839844 L 10.488281 10.185547 C 11.142075 9.7491747 11.796251 9.5318142 12.667969 9.75 C 12.885915 9.9681859 13.321138 10.186112 13.539062 10.404297 C 13.974933 10.622483 14.193036 10.622483 14.628906 10.404297 L 17.679688 8.4414062 C 17.897655 8.2232205 18.115623 7.785981 17.679688 7.3496094 C 16.590067 6.0404944 15.282519 5.1687936 13.539062 4.7324219 C 13.048723 4.6233289 12.544477 4.5678623 12.037109 4.5644531 z M 21.486328 8.9453125 C 20.98576 8.9453125 20.486815 9.0670409 20.078125 9.3125 L 19.423828 9.75 L 15.064453 12.804688 L 13.539062 13.677734 C 12.885269 14.114106 12.231093 14.113281 11.359375 14.113281 C 11.141451 13.895095 10.705379 13.67717 10.269531 13.458984 C 10.051586 13.240799 9.6163615 13.240799 9.3984375 13.458984 L 6.3476562 15.421875 C 6.1297104 15.640061 5.9109822 16.077191 6.1289062 16.513672 C 7.21857 17.822787 8.5260738 18.694488 10.269531 19.130859 C 10.923325 19.349045 11.359878 19.349609 12.013672 19.349609 C 13.539184 19.349609 14.846731 18.913759 16.154297 18.041016 L 22.910156 13.677734 C 23.564059 13.241363 24 12.368837 24 11.496094 C 24 11.059722 24.00017 10.623308 23.564453 9.96875 C 23.155764 9.2869193 22.320608 8.9453125 21.486328 8.9453125 z"/></svg>