<svg xmlns="http://www.w3.org/2000/svg" width="24" height="24" viewBox="0 0 24 24"><path fill="black" d="M 4.4479735,3.4653965 H 19.551929 c 1.915074,0 3.504552,1.4799939 3.640996,3.390201 L 23.994144,18.07267 c 0.08916,1.248237 -0.850458,2.332412 -2.098696,2.421572 -0.05373,0.0038 -0.107574,0.0058 -0.161438,0.0058 -1.430193,0 -2.676856,-0.973365 -3.023729,-2.360856 L 18.083738,15.63297 H 5.9161645 L 5.2896212,18.139144 C 4.9427483,19.526635 3.6960857,20.5 2.2658923,20.5 1.0144746,20.5 0,19.485525 0,18.234108 0,18.180248 0.00192,18.126397 0.00576,18.07267 L 0.8069777,6.8555975 C 0.9434211,4.9453904 2.5328995,3.4653965 4.4479735,3.4653965 Z m 10.5938715,6.083787 c 1.007994,0 1.825136,-0.8171413 1.825136,-1.8251361 0,-1.0079949 -0.817142,-1.8251361 -1.825136,-1.8251361 -1.007995,0 -1.825137,0.8171412 -1.825137,1.8251361 0,1.0079948 0.817142,1.8251361 1.825137,1.8251361 z m 4.867029,3.6502725 c 1.007995,0 1.825136,-0.817142 1.825136,-1.825136 0,-1.007995 -0.817141,-1.8251365 -1.825136,-1.8251365 -1.007995,0 -1.825136,0.8171415 -1.825136,1.8251365 0,1.007994 0.817141,1.825136 1.825136,1.825136 z M 4.6994071,8.3324261 H 2.2658923 v 2.4335149 h 2.4335148 v 2.433515 H 7.1329219 V 10.765941 H 9.5664364 V 8.3324261 H 7.1329219 V 5.8989113 H 4.6994071 Z"/></svg>