<svg xmlns="http://www.w3.org/2000/svg" width="24" height="24" viewBox="0 0 24 24"><path fill="black" d="m 12,1.0908172 a 2.2,2.2 0 0 0 -0.184304,0.00906 2.2,2.2 0 0 0 -0.116655,0.014382 2.2,2.2 0 0 0 -0.100142,0.015447 2.2,2.2 0 0 0 -0.102272,0.022373 2.2,2.2 0 0 0 -0.114525,0.029297 2.2,2.2 0 0 0 -0.09322,0.031427 2.2,2.2 0 0 0 -0.108,0.038885 2.2,2.2 0 0 0 -0.108,0.049006 2.2,2.2 0 0 0 -0.08523,0.041016 2.2,2.2 0 0 0 -0.106002,0.060192 2.2,2.2 0 0 0 -0.08469,0.052202 2.2,2.2 0 0 0 -0.09215,0.065519 2.2,2.2 0 0 0 -0.08416,0.064453 2.2,2.2 0 0 0 -0.08416,0.074041 2.2,2.2 0 0 0 -0.0783,0.072443 2.2,2.2 0 0 0 -0.07244,0.078302 2.2,2.2 0 0 0 -0.07404,0.084162 2.2,2.2 0 0 0 -0.06445,0.084162 2.2,2.2 0 0 0 -0.066,0.092152 2.2,2.2 0 0 0 -0.0522,0.084695 2.2,2.2 0 0 0 -0.06019,0.106001 2.2,2.2 0 0 0 -0.04102,0.085228 2.2,2.2 0 0 0 -0.049005,0.1082 2.2,2.2 0 0 0 -0.038885,0.108 2.2,2.2 0 0 0 -0.031427,0.093217 2.2,2.2 0 0 0 -0.029297,0.1145242 2.2,2.2 0 0 0 -0.022373,0.1022728 2.2,2.2 0 0 0 -0.015447,0.1001417 2.2,2.2 0 0 0 -0.01438,0.116655 2.2,2.2 0 0 0 -0.00906,0.184304 2.2,2.2 0 0 0 0.00799,0.155007 2.2,2.2 0 0 0 0.010653,0.113459 2.2,2.2 0 0 0 0.015448,0.1006748 2.2,2.2 0 0 0 0.025036,0.1241119 2.2,2.2 0 0 0 0.020772,0.081499 2.2,2.2 0 0 0 0.037287,0.1225142 2.2,2.2 0 0 0 0.032493,0.088956 2.2,2.2 0 0 0 0.050071,0.1182527 2.2,2.2 0 0 0 0.03622,0.074574 2.2,2.2 0 0 0 0.06392,0.118253 2.2,2.2 0 0 0 0.04581,0.074041 2.2,2.2 0 0 0 0.07351,0.108 2.2,2.2 0 0 0 0.05007,0.066051 2.2,2.2 0 0 0 0.09002,0.1075995 2.2,2.2 0 0 0 0.05007,0.053267 2.2,2.2 0 0 0 0.105468,0.103338 2.2,2.2 0 0 0 0.05114,0.044744 2.2,2.2 0 0 0 0.116122,0.093217 2.2,2.2 0 0 0 0.057,0.040483 2.2,2.2 0 0 0 0.151812,0.099076 V 6.545367 h -0.71005 c -4.4414396,0 -8.0172238,3.3127829 -8.0172238,7.428089 0,0.04733 0.00278,0.09404 0.00374,0.141158 -8.25e-4,0.02189 -0.00374,0.04343 -0.00374,0.066 v 0.0016 H 1.09091 C 0.48654499,14.181728 0,14.668273 0,15.272637 v 3.272727 c 0,0.604363 0.48654499,1.091 1.09091,1.091 h 1.0909082 v 1.462713 c 0,1.002873 0.973092,1.810014 2.1818193,1.810014 H 19.636364 c 1.208727,0 2.181818,-0.807141 2.181818,-1.810014 v -1.462713 h 1.091 C 23.513455,19.636273 24,19.149727 24,18.545364 v -3.272718 c 0,-0.604364 -0.486545,-1.091 -1.091,-1.091 h -1.091 v -0.0016 c 0,-0.02209 -0.0028,-0.04363 -0.0037,-0.066 9.5e-4,-0.04711 0.0037,-0.09383 0.0037,-0.141158 0,-4.1153061 -3.575783,-7.428089 -8.017223,-7.428089 H 13.09091 V 5.1598952 a 2.2,2.2 0 0 0 0.151811,-0.099077 2.2,2.2 0 0 0 0.057,-0.040483 2.2,2.2 0 0 0 0.116122,-0.093217 2.2,2.2 0 0 0 0.05114,-0.044744 2.2,2.2 0 0 0 0.105469,-0.103338 2.2,2.2 0 0 0 0.05007,-0.053267 2.2,2.2 0 0 0 0.09002,-0.1075995 2.2,2.2 0 0 0 0.05007,-0.066051 2.2,2.2 0 0 0 0.07351,-0.108 2.2,2.2 0 0 0 0.04581,-0.074041 2.2,2.2 0 0 0 0.06392,-0.118253 2.2,2.2 0 0 0 0.03622,-0.074574 2.2,2.2 0 0 0 0.05007,-0.1182527 2.2,2.2 0 0 0 0.03249,-0.088956 2.2,2.2 0 0 0 0.03729,-0.1225142 2.2,2.2 0 0 0 0.02078,-0.081499 2.2,2.2 0 0 0 0.02504,-0.1241119 2.2,2.2 0 0 0 0.01545,-0.100675 2.2,2.2 0 0 0 0.01065,-0.1134588 2.2,2.2 0 0 0 0.008,-0.155007 2.2,2.2 0 0 0 -0.0091,-0.184304 2.2,2.2 0 0 0 -0.01438,-0.116655 2.2,2.2 0 0 0 -0.01545,-0.1001417 2.2,2.2 0 0 0 -0.02237,-0.1022728 2.2,2.2 0 0 0 -0.0293,-0.1145242 2.2,2.2 0 0 0 -0.03143,-0.093217 2.2,2.2 0 0 0 -0.03888,-0.108 2.2,2.2 0 0 0 -0.04901,-0.1082 2.2,2.2 0 0 0 -0.04101,-0.085227 A 2.2,2.2 0 0 0 13.870722,2.154037 2.2,2.2 0 0 0 13.818522,2.069342 2.2,2.2 0 0 0 13.753002,1.97719 2.2,2.2 0 0 0 13.688552,1.893028 2.2,2.2 0 0 0 13.614512,1.808866 2.2,2.2 0 0 0 13.542072,1.730563 2.2,2.2 0 0 0 13.463772,1.65812 2.2,2.2 0 0 0 13.379612,1.584079 2.2,2.2 0 0 0 13.295452,1.519626 2.2,2.2 0 0 0 13.203302,1.454107 2.2,2.2 0 0 0 13.118612,1.401905 2.2,2.2 0 0 0 13.012611,1.341713 2.2,2.2 0 0 0 12.927381,1.300697 2.2,2.2 0 0 0 12.819248,1.251691 2.2,2.2 0 0 0 12.711116,1.212806 2.2,2.2 0 0 0 12.617896,1.181379 2.2,2.2 0 0 0 12.503372,1.152082 2.2,2.2 0 0 0 12.401099,1.129709 2.2,2.2 0 0 0 12.300957,1.114262 2.2,2.2 0 0 0 12.184302,1.09988 2.2,2.2 0 0 0 11.999998,1.09082 Z M 7.0917,13.090817 A 2.73,2.73 0 0 1 9.8181821,15.818089 2.73,2.73 0 0 1 7.0917,18.545362 2.73,2.73 0 0 1 4.363637,15.818089 2.73,2.73 0 0 1 7.0917,13.090817 Z m 9.8181813,0 a 2.73,2.73 0 0 1 2.727272,2.727272 2.73,2.73 0 0 1 -2.727272,2.73 2.73,2.73 0 0 1 -2.73,-2.73 2.73,2.73 0 0 1 2.73,-2.727272 z"/></svg>