<svg xmlns="http://www.w3.org/2000/svg" width="24" height="24" viewBox="0 0 24 24"><path fill="black" d="m 13.714286,1.9935714 c -5.6800003,0 -10.2857146,4.6057143 -10.2857146,10.2857146 H 0 l 4.4457143,4.445714 0.08,0.16 4.6171427,-4.605714 H 5.7142857 c 0,-4.4228574 3.5771433,-8.0000003 8.0000003,-8.0000003 4.422857,0 8,3.5771429 8,8.0000003 0,4.422857 -3.577143,8 -8,8 -2.205715,0 -4.205715,-0.902857 -5.6457146,-2.354286 L 6.4457143,19.547857 C 8.3085714,21.410714 10.868571,22.565 13.714286,22.565 19.394286,22.565 24,17.959286 24,12.279286 24,6.5992857 19.394286,1.9935714 13.714286,1.9935714 Z m -1.142857,5.7142857 v 5.7142859 l 4.891428,2.902857 0.822857,-1.382857 -4,-2.377143 V 7.7078571 Z"/></svg>