<svg xmlns="http://www.w3.org/2000/svg" width="24" height="24" viewBox="0 0 24 24"><path fill="black" d="M 7.2037394,23.037962 V 22.075924 H 8.1657775 9.1278138 V 23.037962 24 H 8.1657775 7.2037394 Z m 3.8481506,0 v -0.962038 h 0.962036 0.962038 V 23.037962 24 H 12.013926 11.05189 Z m 3.848147,0 v -0.962038 h 0.962038 0.962038 V 23.037962 24 h -0.962038 -0.962038 z m -3.854333,-5.030197 -0.0065,-2.144085 -0.32865,-0.0579 C 9.8530731,15.654718 8.9070025,15.285127 8.1910938,14.821524 7.4151963,14.319073 6.8032375,13.748092 6.2955588,13.052919 5.9891819,12.633392 5.8506081,12.408313 5.6394194,11.987192 5.3562719,11.422579 5.1250112,10.721136 5.015695,10.095359 4.9663338,9.8127874 4.9006075,9.2659129 4.9,9.1327264 c 0,-0.010443 0.3799912,-0.018988 0.84453,-0.018988 h 0.8446163 l 0.017158,0.1708883 c 0.0312,0.3107222 0.1389,0.7791879 0.2581969,1.1230509 0.2776012,0.800184 0.7099743,1.487821 1.3058343,2.076772 1.5671625,1.548995 3.9033785,1.988875 5.9410935,1.11863 0.618208,-0.264016 1.132886,-0.60923 1.632765,-1.09515 0.894705,-0.869728 1.437187,-1.975789 1.599538,-3.2612782 l 0.01678,-0.132913 h 0.871054 c 0.479079,0 0.871012,0.00854 0.870965,0.018988 -6e-4,0.1331865 -0.06633,0.680061 -0.115695,0.9626322 -0.152617,0.873662 -0.518372,1.814289 -0.986643,2.53741 -0.735077,1.135123 -1.66659,1.970026 -2.861601,2.564814 -0.564512,0.280974 -1.281904,0.514812 -1.890478,0.616213 l -0.272155,0.04535 V 18.0055 20.151852 H 12.014071 11.052175 Z M 11.50216,12.112494 C 11.06812,12.04491 10.522831,11.813626 10.164044,11.544933 9.5486162,11.084044 9.1030356,10.338284 8.9883062,9.577125 8.93254,9.2071558 8.93254,2.9442975 8.9883062,2.5743281 9.0571469,2.1176212 9.2809675,1.5822919 9.5574156,1.2131475 10.116421,0.4667063 11.051718,0 11.98861,0 c 0.936893,0 1.872188,0.4667063 2.431194,1.2131475 0.164862,0.2201419 0.358292,0.5954006 0.453713,0.8802169 0.154851,0.4621969 0.152807,0.40893 0.152807,3.9823622 0,3.5734335 0.002,3.5201657 -0.152807,3.9823614 -0.312028,0.931344 -1.011819,1.629404 -1.947808,1.942987 -0.427125,0.1431 -0.954829,0.184404 -1.423549,0.111419 z"/></svg>