<svg xmlns="http://www.w3.org/2000/svg" width="24" height="24" viewBox="0 0 24 24"><path fill="black" d="m 5,3.75 c -0.2731022,0 -0.5381532,0.02855 -0.7949219,0.078125 -0.031501,0.0063 -0.060573,0.018358 -0.091797,0.025391 -1.6854195,0.3646661 -2.9448029,1.6789599 -3.0175781,2.5625 L 0.00195313,17.115234 C 0.00384405,17.142864 0.00117676,17.196555 0,17.25 c 0,1.656854 1.3431458,3 3,3 1.4051749,-0.0013 2.6211442,-0.977853 2.9257812,-2.349609 L 6.3515625,15.25 H 17.648438 l 0.425781,2.650391 C 18.378856,19.272147 19.594825,20.2487 21,20.25 c 1.656854,0 3,-1.343146 3,-3 -0.0012,-0.05345 -0.0039,-0.107136 -0.002,-0.134766 L 22.904297,6.4160156 c -0.07278,-0.8835401 -1.332159,-2.1978339 -3.017578,-2.5625 -0.03122,-0.00703 -0.0603,-0.019089 -0.0918,-0.025391 C 19.538156,3.7785502 19.273102,3.75 19,3.75 Z m 9.8125,1.625 c 0.93198,0 1.6875,0.7555195 1.6875,1.6875 0,0.9319805 -0.75552,1.6875 -1.6875,1.6875 -0.93198,0 -1.6875,-0.7555195 -1.6875,-1.6875 0,-0.9319805 0.75552,-1.6875 1.6875,-1.6875 z M 5.25,5.9375 H 7.5 v 2.25 h 2.25 v 2.25 H 7.5 v 2.25 H 5.25 v -2.25 H 3 v -2.25 H 5.25 Z M 19.3125,9.875 c 0.93198,0 1.6875,0.755521 1.6875,1.6875 0,0.93198 -0.75552,1.6875 -1.6875,1.6875 -0.93198,0 -1.6875,-0.75552 -1.6875,-1.6875 0,-0.931979 0.75552,-1.6875 1.6875,-1.6875 z"/></svg>