<svg xmlns="http://www.w3.org/2000/svg" width="130" height="98"><path fill="#FF7150" fill-rule="evenodd" d="m 88.427,29.923 c 0.046,1.622 -0.02,3.254 0,4.885 h 4.64 v 0.395 c 0,6.565 -4.334,12.136 -10.288,13.994 v -8.155 a 29.815,29.815 0 0 1 -4.877,2.503 V 54.74 h 0.533 c 10.774,0 19.509,-8.747 19.509,-19.537 v -5.28 z M 50.193,42.585 v 6.611 C 44.239,47.339 39.905,41.769 39.905,35.203 v -0.395 h 4.634 v -4.884 h -9.51 v 5.28 c 0,10.789 8.734,19.536 19.508,19.536 H 55.07 V 42.563 c -1.626,0.003 -3.252,0.014 -4.877,0.022"/><path fill="#FFFFFF" fill-rule="evenodd" d="M 103.06641 21.542969 A 0.695 0.695 0 0 0 102.35547 22.275391 L 102.35547 22.507812 C 102.35547 23.275813 101.73575 23.898438 100.96875 23.898438 L 100.73633 23.898438 A 0.695 0.695 0 0 0 100.73633 25.287109 L 100.96875 25.287109 C 101.73475 25.287109 102.35547 25.909734 102.35547 26.677734 L 102.35547 26.908203 A 0.695 0.695 0 1 0 103.74219 26.908203 L 103.74219 26.677734 C 103.74219 25.909734 104.36486 25.287109 105.13086 25.287109 L 105.36133 25.287109 A 0.695 0.695 0 0 0 105.36133 23.898438 L 105.13281 23.898438 A 1.389 1.389 0 0 1 103.74219 22.507812 L 103.74219 22.275391 A 0.695 0.695 0 0 0 103.06641 21.542969 z M 61.607422 59.228516 L 61.607422 70.890625 L 55.671875 66.986328 C 55.448875 66.840328 55.176875 67.085266 55.296875 67.322266 L 57.15625 70.976562 L 56.099609 70.976562 C 53.755609 70.976562 51.853516 72.878563 51.853516 75.226562 L 51.853516 85.628906 L 81.117188 85.628906 L 81.117188 75.226562 A 4.248 4.248 0 0 0 76.873047 70.976562 L 75.8125 70.976562 L 77.673828 67.320312 C 77.793828 67.084312 77.522781 66.840328 77.300781 66.986328 L 71.363281 70.890625 L 71.363281 59.228516 L 61.607422 59.228516 z M 35.271484 61.478516 A 0.694 0.694 0 0 0 34.707031 61.830078 L 30.542969 69.244141 A 0.693 0.693 0 0 0 31.148438 70.279297 L 39.474609 70.279297 A 0.696 0.696 0 0 0 40.080078 69.244141 L 35.917969 61.830078 A 0.694 0.694 0 0 0 35.271484 61.478516 z M 35.3125 63.589844 L 38.289062 68.890625 L 32.335938 68.890625 L 35.3125 63.589844 z M 91.205078 69.662109 A 0.695 0.695 0 0 0 90.703125 70.826172 L 91.359375 71.482422 A 0.691 0.691 0 0 0 91.849609 71.685547 A 0.697 0.697 0 0 0 92.339844 70.498047 L 91.685547 69.84375 A 0.695 0.695 0 0 0 91.205078 69.662109 z M 96.050781 69.662109 A 0.695 0.695 0 0 0 95.611328 69.84375 L 94.957031 70.5 A 0.697 0.697 0 0 0 95.447266 71.685547 A 0.691 0.691 0 0 0 95.9375 71.482422 L 96.591797 70.826172 A 0.695 0.695 0 0 0 96.050781 69.662109 z M 91.798828 73.919922 A 0.695 0.695 0 0 0 91.359375 74.103516 L 90.705078 74.757812 A 0.697 0.697 0 0 0 91.195312 75.943359 A 0.691 0.691 0 0 0 91.685547 75.740234 L 92.339844 75.085938 A 0.695 0.695 0 0 0 91.798828 73.919922 z M 95.480469 73.929688 A 0.695 0.695 0 0 0 94.957031 75.085938 L 95.611328 75.740234 A 0.691 0.691 0 0 0 96.101562 75.943359 A 0.697 0.697 0 0 0 96.591797 74.757812 L 95.9375 74.103516 A 0.695 0.695 0 0 0 95.480469 73.929688 z"/><path fill="#FFE83D" fill-rule="evenodd" d="m 44.539,29.924 h 43.895 v 12.21 c 0,12.139 -9.827,21.979 -21.948,21.979 -12.121,0 -21.947,-9.84 -21.947,-21.98 v -12.21 z"/></svg>