<svg xmlns="http://www.w3.org/2000/svg" width="130" height="98"><path opacity="0.1" fill="black" fill-rule="evenodd" d="M 66.792969 8.4765625 C 66.423219 8.4584331 66.051331 8.4583108 65.677734 8.4785156 C 64.298299 8.5531179 62.891094 8.9033594 61.449219 9.6308594 C 55.939219 12.410859 54.678891 18.702844 51.712891 23.464844 C 50.116898 26.026131 47.927593 28.130934 45.478516 29.923828 L 88.427734 29.923828 L 88.433594 29.923828 L 97.943359 29.923828 L 97.943359 35.203125 C 97.943359 43.574758 92.676202 50.695718 85.287109 53.476562 C 82.237088 58.535926 77.204925 62.255089 71.271484 63.578125 C 71.301819 63.571357 71.332991 63.567435 71.363281 63.560547 L 71.363281 70.890625 L 77.300781 66.986328 C 77.522781 66.840328 77.793828 67.084312 77.673828 67.320312 L 75.8125 70.976562 L 76.873047 70.976562 A 4.248 4.248 0 0 1 81.117188 75.226562 L 81.117188 85.628906 L 59.652344 85.628906 C 63.788918 88.18955 68.050376 90.325914 73.287109 89.947266 C 78.237109 89.589266 83.004734 87.137453 86.177734 83.314453 C 88.116682 80.977952 89.41482 78.248358 90.523438 75.408203 A 0.697 0.697 0 0 1 90.705078 74.757812 L 90.816406 74.646484 C 91.186648 73.663965 91.545639 72.676145 91.896484 71.683594 A 0.697 0.697 0 0 1 91.849609 71.685547 A 0.691 0.691 0 0 1 91.359375 71.482422 L 90.703125 70.826172 A 0.695 0.695 0 0 1 91.685547 69.84375 L 92.330078 70.488281 C 92.630269 69.646372 92.925772 68.80035 93.246094 67.972656 C 98.369094 54.740656 116.59711 50.063187 114.78711 33.492188 A 18.711 18.711 0 0 0 113.82617 29.304688 L 113.82812 29.304688 C 112.11115 24.437687 108.43627 20.25075 103.69727 18.21875 C 97.041238 15.36475 89.557703 16.718828 82.720703 14.673828 C 77.470176 13.103926 72.339217 8.7485039 66.792969 8.4765625 z M 103.03125 21.542969 A 0.695 0.695 0 0 1 103.06641 21.542969 A 0.695 0.695 0 0 1 103.74219 22.275391 L 103.74219 22.507812 A 1.389 1.389 0 0 0 105.13281 23.898438 L 105.36133 23.898438 A 0.695 0.695 0 0 1 105.36133 25.287109 L 105.13086 25.287109 C 104.36486 25.287109 103.74219 25.909734 103.74219 26.677734 L 103.74219 26.908203 A 0.695 0.695 0 1 1 102.35547 26.908203 L 102.35547 26.677734 C 102.35547 25.909734 101.73475 25.287109 100.96875 25.287109 L 100.73633 25.287109 A 0.695 0.695 0 0 1 100.73633 23.898438 L 100.96875 23.898438 C 101.73575 23.898438 102.35547 23.275813 102.35547 22.507812 L 102.35547 22.275391 A 0.695 0.695 0 0 1 103.03125 21.542969 z M 88.433594 31.386719 L 88.433594 33.339844 C 88.439105 32.687861 88.432239 32.037263 88.433594 31.386719 z M 39.904297 34.808594 L 39.904297 35.203125 C 39.904297 39.598859 41.853259 43.540806 44.923828 46.228516 C 44.673899 44.900935 44.539063 43.533161 44.539062 42.132812 L 44.539062 34.808594 L 39.904297 34.808594 z M 88.433594 34.808594 L 88.433594 42.134766 C 88.433594 43.534335 88.298526 44.901637 88.048828 46.228516 C 91.118543 43.540309 93.066406 39.597485 93.066406 35.203125 L 93.066406 34.808594 L 88.433594 34.808594 z M 35.044922 35.787109 C 28.636794 38.884657 22.049507 42.156952 18.429688 48.185547 C 15.951688 52.308547 15.224828 57.552688 16.923828 62.054688 C 19.820828 69.726686 28.788641 71.470031 35.806641 73.457031 C 41.655941 75.112729 46.726369 77.81318 51.853516 80.814453 L 51.853516 75.226562 C 51.853516 72.878563 53.755609 70.976562 56.099609 70.976562 L 57.15625 70.976562 L 55.296875 67.322266 C 55.206875 67.144516 55.337281 66.963453 55.501953 66.945312 C 55.556844 66.939267 55.616125 66.949828 55.671875 66.986328 L 61.607422 70.890625 L 61.607422 63.560547 C 61.641634 63.568328 61.676667 63.574404 61.710938 63.582031 C 55.773082 62.26111 50.737321 58.53923 47.685547 53.476562 C 40.469514 50.760787 35.283404 43.904392 35.044922 35.787109 z M 35.271484 61.478516 A 0.694 0.694 0 0 1 35.917969 61.830078 L 40.080078 69.244141 A 0.696 0.696 0 0 1 39.474609 70.279297 L 31.148438 70.279297 A 0.693 0.693 0 0 1 30.542969 69.244141 L 34.707031 61.830078 A 0.694 0.694 0 0 1 35.271484 61.478516 z M 35.3125 63.589844 L 32.335938 68.890625 L 38.289062 68.890625 L 35.3125 63.589844 z M 62.632812 63.763672 C 62.753637 63.785321 62.874608 63.806473 62.996094 63.826172 C 62.874478 63.806687 62.753752 63.785149 62.632812 63.763672 z M 70.337891 63.763672 C 70.21758 63.785029 70.097543 63.806787 69.976562 63.826172 C 70.097341 63.806577 70.217759 63.785194 70.337891 63.763672 z M 63.857422 63.949219 C 64.049731 63.972666 64.24369 63.989398 64.4375 64.007812 C 64.243702 63.989821 64.049724 63.972225 63.857422 63.949219 z M 69.109375 63.949219 C 68.922891 63.971481 68.734766 63.988312 68.546875 64.005859 C 68.734613 63.987889 68.923049 63.971916 69.109375 63.949219 z M 65.160156 64.070312 C 65.598715 64.097251 66.040954 64.113281 66.486328 64.113281 C 66.040917 64.113281 65.598986 64.096517 65.160156 64.070312 z M 66.486328 64.113281 C 66.930966 64.113281 67.37087 64.097183 67.808594 64.070312 C 67.371033 64.096367 66.93043 64.113281 66.486328 64.113281 z"/><path opacity="1" fill="black" fill-rule="evenodd" d="M 103.06641 21.542969 A 0.695 0.695 0 0 0 102.35547 22.275391 L 102.35547 22.507812 C 102.35547 23.275813 101.73575 23.898438 100.96875 23.898438 L 100.73633 23.898438 A 0.695 0.695 0 0 0 100.73633 25.287109 L 100.96875 25.287109 C 101.73475 25.287109 102.35547 25.909734 102.35547 26.677734 L 102.35547 26.908203 A 0.695 0.695 0 1 0 103.74219 26.908203 L 103.74219 26.677734 C 103.74219 25.909734 104.36486 25.287109 105.13086 25.287109 L 105.36133 25.287109 A 0.695 0.695 0 0 0 105.36133 23.898438 L 105.13281 23.898438 A 1.389 1.389 0 0 1 103.74219 22.507812 L 103.74219 22.275391 A 0.695 0.695 0 0 0 103.06641 21.542969 z M 61.607422 63.560547 L 61.607422 70.890625 L 64.541016 72.820312 A 1.04 1.04 0 0 1 64.900391 73.224609 L 66.253906 75.941406 A 0.26 0.26 0 0 0 66.71875 75.941406 L 68.070312 73.224609 A 1.04 1.04 0 0 1 68.429688 72.820312 L 71.363281 70.890625 L 71.363281 63.560547 C 69.793686 63.91747 68.163759 64.113281 66.486328 64.113281 C 64.808614 64.113281 63.177229 63.91759 61.607422 63.560547 z"/><path opacity="0.6" fill="black" fill-rule="evenodd" d="M 35.271484 61.478516 A 0.694 0.694 0 0 0 34.707031 61.830078 L 30.542969 69.244141 A 0.693 0.693 0 0 0 31.148438 70.279297 L 39.474609 70.279297 A 0.696 0.696 0 0 0 40.080078 69.244141 L 35.917969 61.830078 A 0.694 0.694 0 0 0 35.271484 61.478516 z M 35.3125 63.589844 L 38.289062 68.890625 L 32.335938 68.890625 L 35.3125 63.589844 z M 91.205078 69.662109 A 0.695 0.695 0 0 0 90.703125 70.826172 L 91.359375 71.482422 A 0.691 0.691 0 0 0 91.849609 71.685547 A 0.697 0.697 0 0 0 92.339844 70.498047 L 91.685547 69.84375 A 0.695 0.695 0 0 0 91.205078 69.662109 z M 96.050781 69.662109 A 0.695 0.695 0 0 0 95.611328 69.84375 L 94.957031 70.5 A 0.697 0.697 0 0 0 95.447266 71.685547 A 0.691 0.691 0 0 0 95.9375 71.482422 L 96.591797 70.826172 A 0.695 0.695 0 0 0 96.050781 69.662109 z M 56.099609 70.976562 C 53.755609 70.976562 51.853516 72.878563 51.853516 75.226562 L 51.853516 85.628906 L 81.117188 85.628906 L 81.117188 75.226562 A 4.248 4.248 0 0 0 76.873047 70.976562 L 75.8125 70.976562 L 73.994141 74.550781 A 0.26 0.26 0 0 0 74.226562 74.929688 L 76.427734 74.929688 A 0.26 0.26 0 0 1 76.578125 75.398438 L 66.636719 82.53125 A 0.26 0.26 0 0 1 66.333984 82.53125 L 56.392578 75.398438 A 0.26 0.26 0 0 1 56.542969 74.929688 L 58.744141 74.929688 A 0.26 0.26 0 0 0 58.974609 74.552734 L 57.15625 70.976562 L 56.099609 70.976562 z M 91.798828 73.919922 A 0.695 0.695 0 0 0 91.359375 74.103516 L 90.705078 74.757812 A 0.697 0.697 0 0 0 91.195312 75.943359 A 0.691 0.691 0 0 0 91.685547 75.740234 L 92.339844 75.085938 A 0.695 0.695 0 0 0 91.798828 73.919922 z M 95.480469 73.929688 A 0.695 0.695 0 0 0 94.957031 75.085938 L 95.611328 75.740234 A 0.691 0.691 0 0 0 96.101562 75.943359 A 0.697 0.697 0 0 0 96.591797 74.757812 L 95.9375 74.103516 A 0.695 0.695 0 0 0 95.480469 73.929688 z"/></svg>