<svg xmlns="http://www.w3.org/2000/svg" width="24" height="24" viewBox="0 0 24 24"><path fill="black" d="m 5.25,1.9999987 c -0.6925,0 -1.25,0.5575 -1.25,1.25 V 16.75 C 4,17.4425 4.5575,18 5.25,18 h 17.5 C 23.4425,18 24,17.4425 24,16.75 V 3.2499987 c 0,-0.6925 -0.5575,-1.25 -1.25,-1.25 z m 2.1875,2.5 h 13.125 c 0.519375,0 0.9375,0.3832813 0.9375,0.859375 v 9.2812503 c 0,0.476094 -0.418125,0.859375 -0.9375,0.859375 H 7.4375 C 6.918125,15.499999 6.5,15.116718 6.5,14.640624 V 5.3593737 C 6.5,4.88328 6.918125,4.4999987 7.4375,4.4999987 Z m -6.1875,1.5 c -0.6925,0 -1.25,0.5575 -1.25,1.25 V 20.75 C 0,21.4425 0.5575,22 1.25,22 h 17.5 C 19.4425,22 20,21.4425 20,20.75 V 19 h -2.587891 c -0.148237,0.294863 -0.470973,0.5 -0.849609,0.5 H 3.4375 C 2.918125,19.5 2.5,19.116718 2.5,18.640625 V 9.3593737 C 2.5,9.029135 2.7034003,8.7470125 3,8.603026 V 5.9999987 Z"/></svg>