<svg xmlns="http://www.w3.org/2000/svg" width="130" height="98"><path fill="#FFFFFF" fill-rule="evenodd" d="M 44.548828 27.513672 L 27.09375 53.025391 L 44.548828 78.537109 L 82.876953 78.537109 L 100.33008 53.025391 L 90.554688 38.738281 L 93.046875 33.863281 C 93.322875 33.323281 92.703312 32.769563 92.195312 33.101562 L 88.398438 35.585938 L 82.876953 27.513672 L 44.548828 27.513672 z M 104.80664 35.1875 A 0.698 0.698 0 0 0 104.12891 35.884766 L 104.12891 36.117188 C 104.12891 36.886187 103.50342 37.509766 102.73242 37.509766 L 102.5 37.509766 A 0.697 0.697 0 0 0 101.80078 38.205078 C 101.80078 38.589078 102.114 38.900391 102.5 38.900391 L 102.73242 38.900391 C 103.50342 38.900391 104.12891 39.524969 104.12891 40.292969 L 104.12891 40.523438 A 0.698 0.698 0 0 0 105.52539 40.523438 L 105.52539 40.292969 C 105.52539 39.524969 106.15087 38.900391 106.92188 38.900391 L 107.1543 38.900391 A 0.697 0.697 0 0 0 107.85156 38.205078 A 0.697 0.697 0 0 0 107.1543 37.509766 L 106.92188 37.509766 A 1.394 1.394 0 0 1 105.52539 36.117188 L 105.52539 35.884766 A 0.698 0.698 0 0 0 104.80664 35.1875 z M 22.230469 40.710938 A 2.559 2.559 0 0 0 19.671875 43.263672 A 2.559 2.559 0 0 0 22.230469 45.8125 A 2.559 2.559 0 0 0 24.791016 43.261719 A 2.559 2.559 0 0 0 22.230469 40.710938 z M 22.230469 42.103516 C 22.872469 42.103516 23.394531 42.623672 23.394531 43.263672 A 1.1635 1.1635 0 0 1 21.066406 43.263672 C 21.066406 42.623672 21.589469 42.103516 22.230469 42.103516 z M 17.3125 64.246094 A 0.7 0.7 0 0 0 16.806641 64.449219 A 0.694 0.694 0 0 0 16.806641 65.431641 L 17.464844 66.089844 A 0.697 0.697 0 0 0 17.957031 66.292969 A 0.695 0.695 0 0 0 18.451172 65.103516 L 17.792969 64.449219 A 0.7 0.7 0 0 0 17.3125 64.246094 z M 22.248047 64.246094 A 0.7 0.7 0 0 0 21.742188 64.449219 L 21.085938 65.103516 A 0.697 0.697 0 0 0 21.578125 66.292969 A 0.697 0.697 0 0 0 22.072266 66.089844 L 22.730469 65.431641 A 0.694 0.694 0 0 0 22.730469 64.449219 A 0.7 0.7 0 0 0 22.248047 64.246094 z M 17.970703 68.507812 A 0.7 0.7 0 0 0 17.464844 68.712891 L 16.806641 69.367188 A 0.697 0.697 0 0 0 17.300781 70.556641 A 0.697 0.697 0 0 0 17.794922 70.353516 L 18.451172 69.695312 A 0.694 0.694 0 0 0 18.451172 68.712891 A 0.7 0.7 0 0 0 17.970703 68.507812 z M 21.589844 68.507812 A 0.7 0.7 0 0 0 21.085938 68.712891 A 0.694 0.694 0 0 0 21.085938 69.695312 L 21.742188 70.353516 A 0.697 0.697 0 0 0 22.236328 70.556641 A 0.695 0.695 0 0 0 22.730469 69.367188 L 22.072266 68.712891 A 0.7 0.7 0 0 0 21.589844 68.507812 z"/></svg>