<svg xmlns="http://www.w3.org/2000/svg" width="24" height="24" viewBox="0 0 24 24"><path fill="black" d="M 12,0 A 12,12 0 0 0 0,12 12,12 0 0 0 12,24 12,12 0 0 0 24,12 12,12 0 0 0 12,0 Z M 7.1625,4.643555 a 2.4,2.4 0 0 1 2.4,2.3999998 2.4,2.4 0 0 1 -2.4,2.4 2.4,2.4 0 0 1 -2.4,-2.4 2.4,2.4 0 0 1 2.4,-2.3999998 z m 9.6,0 a 2.4,2.4 0 0 1 2.4,2.3999998 2.4,2.4 0 0 1 -2.4,2.4 2.4,2.4 0 0 1 -2.4,-2.4 2.4,2.4 0 0 1 2.4,-2.3999998 z m -12.2894532,8.4 H 19.447266 a 7.5,7.5 0 0 1 -7.484766,7.2 7.5,7.5 0 0 1 -7.4894532,-7.2 z"/></svg>