<svg xmlns="http://www.w3.org/2000/svg" width="168" height="88"><path fill="#DAE2ED" d="M119.46 30.269l32.396-5.708-10.014 13.218c-1.953 2.604-4.807 4.306-8.011 4.907l-22.782 4.006-.651-3.555 9.062-12.868z"/><path fill="#ECEFF6" d="M109.546 26.964l47.918-8.462c.401-.05.701.4.451.7l-3.055 4.157c-.35.45-.851.8-1.452.901l-1.552.25-32.396 5.708-8.962 12.819.651 3.555.45 2.653-10.114 14.47-5.658-11.666-1.102-6.209 11.967-17.074c.601-.9 1.653-1.552 2.854-1.802z"/><path fill="#C5CEDD" d="M110.448 43.087l9.012-12.818 32.396-5.708-2.003 2.653-29.141 5.158-8.311 11.866.35 2.153-1.652.3-.651-3.604z"/><path fill="#DAE2ED" d="M151.405 23.659c.852 0 1.503-.65 1.503-1.502 0-.851-.651-1.502-1.503-1.502-.851 0-1.502.65-1.502 1.502 0 .851.651 1.502 1.502 1.502zM113.352 34.374c.851 0 1.502-.65 1.502-1.502 0-.851-.651-1.502-1.502-1.502s-1.502.651-1.502 1.502.651 1.502 1.502 1.502zM110.498 38.43c.851 0 1.502-.65 1.502-1.502 0-.851-.651-1.502-1.502-1.502s-1.502.65-1.502 1.502c0 .851.651 1.502 1.502 1.502zM51.014 30.269L18.618 24.56l10.014 13.218c1.953 2.604 4.807 4.306 8.011 4.907l22.783 4.006.65-3.555-9.062-12.868z"/><path fill="#ECEFF6" d="M60.928 26.964L13.01 18.552c-.4-.05-.701.4-.45.7l3.054 4.157c.35.45.85.8 1.452.9l1.552.251 32.396 5.708 8.962 12.818-.65 3.555-.451 2.654 10.114 14.47L74.647 52.1l1.102-6.209-11.967-17.074c-.601-.951-1.653-1.602-2.854-1.852z"/><path fill="#C5CEDD" d="M59.976 43.087l-8.962-12.818-32.396-5.708 2.003 2.653 29.09 5.158 8.363 11.866-.4 2.153 1.702.3.6-3.604z"/><path fill="#DAE2ED" d="M19.069 23.659c.85 0 1.502-.65 1.502-1.502 0-.851-.651-1.502-1.502-1.502-.852 0-1.502.65-1.502 1.502 0 .851.65 1.502 1.502 1.502zM57.122 34.374c.851 0 1.502-.65 1.502-1.502 0-.851-.65-1.502-1.502-1.502-.851 0-1.502.651-1.502 1.502s.651 1.502 1.502 1.502zM59.976 38.43c.852 0 1.502-.65 1.502-1.502 0-.851-.65-1.502-1.502-1.502-.85 0-1.502.65-1.502 1.502 0 .851.651 1.502 1.502 1.502z"/><path fill="#FFFFFF" d="M 40.923828 0.005859375 C 40.400701 -0.062486328 39.934766 0.5014687 40.197266 1.0273438 L 41.449219 3.6816406 C 41.599219 3.8816406 41.6 4.08125 41.5 4.28125 L 40.248047 6.9355469 C 39.948047 7.5365469 40.597219 8.1867187 41.199219 7.8867188 L 43.853516 6.6347656 C 44.053516 6.5347656 44.303906 6.5347656 44.503906 6.6347656 L 47.158203 7.8867188 C 47.759203 8.1867188 48.409375 7.5375469 48.109375 6.9355469 L 46.857422 4.28125 C 46.757422 4.08125 46.757422 3.8308594 46.857422 3.6308594 L 48.060547 1.0273438 C 48.360547 0.4273437 47.708422 -0.22482812 47.107422 0.076171875 L 44.453125 1.3261719 C 44.253125 1.4261719 44.004686 1.4261719 43.804688 1.3261719 L 41.150391 0.076171875 C 41.075266 0.038671875 40.998561 0.015623047 40.923828 0.005859375 z M 85.111328 12.644531 L 64.482422 33.273438 L 64.482422 62.3125 L 85.111328 82.943359 L 105.74023 62.3125 L 105.74023 33.273438 L 105.70508 33.238281 L 105.74023 33.224609 L 85.111328 12.644531 z M 5.5605469 27.939453 C 5.0105469 27.939453 4.5605469 28.391406 4.5605469 28.941406 L 4.5605469 29.941406 C 4.5605469 30.493406 5.0105469 30.943359 5.5605469 30.943359 C 6.1115469 30.943359 6.5625 30.492406 6.5625 29.941406 L 6.5625 28.941406 C 6.5625 28.390406 6.1125469 27.939453 5.5605469 27.939453 z M 1.0546875 32.445312 C 0.5036875 32.445312 0.052734375 32.896266 0.052734375 33.447266 C 0.052734375 33.998266 0.5046875 34.449219 1.0546875 34.449219 L 2.0566406 34.449219 C 2.6076406 34.449219 3.0566406 33.997266 3.0566406 33.447266 C 3.0566406 32.895266 2.6066406 32.445312 2.0566406 32.445312 L 1.0546875 32.445312 z M 9.0664062 32.445312 C 8.5144063 32.445312 8.0644531 32.896266 8.0644531 33.447266 C 8.0644531 33.998266 8.5154063 34.449219 9.0664062 34.449219 L 10.066406 34.449219 C 10.617406 34.449219 11.068359 33.997266 11.068359 33.447266 C 11.068359 32.895266 10.616406 32.445312 10.066406 32.445312 L 9.0664062 32.445312 z M 5.5605469 35.951172 C 5.0105469 35.951172 4.5605469 36.402125 4.5605469 36.953125 L 4.5605469 37.953125 C 4.5605469 38.504125 5.0105469 38.955078 5.5605469 38.955078 C 6.1115469 38.955078 6.5625 38.503125 6.5625 37.953125 L 6.5625 36.953125 C 6.5625 36.401125 6.1125469 35.951172 5.5605469 35.951172 z M 147.55078 48.945312 C 146.99978 48.945312 146.54883 49.395313 146.54883 49.945312 L 146.54883 50.947266 C 146.54883 51.497266 146.99978 51.949219 147.55078 51.949219 C 148.10178 51.949219 148.55273 51.497266 148.55273 50.947266 L 148.55273 49.945312 C 148.55273 49.394313 148.10178 48.945312 147.55078 48.945312 z M 143.04492 53.451172 C 142.49392 53.451172 142.04297 53.902125 142.04297 54.453125 C 142.04297 55.004125 142.49392 55.453125 143.04492 55.453125 L 144.04492 55.453125 C 144.59592 55.453125 145.04688 55.003125 145.04688 54.453125 C 145.04688 53.901125 144.59592 53.451172 144.04492 53.451172 L 143.04492 53.451172 z M 151.05469 53.451172 C 150.50369 53.451172 150.05469 53.902125 150.05469 54.453125 C 150.05469 55.004125 150.50369 55.453125 151.05469 55.453125 L 152.05664 55.453125 C 152.60764 55.453125 153.05859 55.003125 153.05859 54.453125 C 153.05859 53.901125 152.60764 53.451172 152.05664 53.451172 L 151.05469 53.451172 z M 147.55078 56.957031 C 146.99978 56.957031 146.54883 57.407031 146.54883 57.957031 L 146.54883 58.958984 C 146.54883 59.509984 146.99978 59.960938 147.55078 59.960938 C 148.10178 59.960938 148.55273 59.508984 148.55273 58.958984 L 148.55273 57.957031 C 148.55273 57.407031 148.10178 56.957031 147.55078 56.957031 z M 131.75195 65.498047 C 131.22884 65.429715 130.76397 65.992781 131.02734 66.519531 L 132.2793 69.173828 C 132.3793 69.373828 132.3793 69.624219 132.2793 69.824219 L 131.02734 72.478516 C 130.72634 73.079516 131.37752 73.729687 131.97852 73.429688 L 134.63281 72.177734 C 134.83281 72.077734 135.0832 72.077734 135.2832 72.177734 L 137.9375 73.429688 C 138.5375 73.729686 139.18867 73.079516 138.88867 72.478516 L 137.63672 69.824219 C 137.53672 69.624219 137.53672 69.373828 137.63672 69.173828 L 138.88867 66.519531 C 139.18867 65.918531 138.5375 65.268359 137.9375 65.568359 L 135.2832 66.820312 C 135.0832 66.920312 134.83281 66.920312 134.63281 66.820312 L 131.97852 65.568359 C 131.90339 65.530859 131.82668 65.507809 131.75195 65.498047 z"/></svg>
