<svg xmlns="http://www.w3.org/2000/svg" width="24" height="24" viewBox="0 0 24 24"><path fill="black" d="M 4.9765625 0 C 3.2930305 0 1.9238281 1.3696726 1.9238281 3.0527344 C 1.9238281 3.0753064 1.9274875 3.0973516 1.9296875 3.1191406 C 1.9274875 4.6738736 1.9084944 18.959828 1.9277344 20.837891 C 1.9265344 20.874621 1.921875 20.910171 1.921875 20.947266 C 1.921875 22.565641 3.1892821 23.890121 4.7832031 23.990234 C 4.8151731 23.995134 4.8457263 24 4.8789062 24 L 21.478516 24 C 21.827501 24 22.111328 23.716487 22.111328 23.367188 L 22.111328 20.986328 C 22.111328 20.63729 21.827449 20.353516 21.478516 20.353516 C 21.129583 20.353516 20.845703 20.637343 20.845703 20.986328 L 20.845703 22.734375 L 4.9746094 22.734375 C 4.0134494 22.734375 3.2299683 21.971129 3.1914062 21.019531 C 3.1923473 21.002551 3.1956125 20.988003 3.1953125 20.970703 C 3.1946855 20.942903 3.1940594 20.899273 3.1933594 20.841797 C 3.2486394 19.905248 4.0244224 19.158203 4.9746094 19.158203 L 21.324219 19.158203 C 21.374279 19.158203 21.422149 19.151805 21.46875 19.140625 L 21.478516 19.140625 C 21.827502 19.140625 22.111328 18.859013 22.111328 18.509766 L 22.111328 0.6328125 C 22.111349 0.2836703 21.827502 0 21.478516 0 L 21.324219 0 L 5.9863281 0 L 4.9765625 0 z M 14.617188 3 C 14.720725 3 14.823359 3.0382005 14.902344 3.1171875 L 15.316406 3.53125 C 15.435316 3.6501955 15.467567 3.8310405 15.398438 3.984375 L 15.289062 4.2265625 L 15.517578 4.1152344 C 15.672446 4.0406034 15.85693 4.073724 15.978516 4.1953125 L 17.296875 5.5117188 C 17.433595 5.6483853 17.453398 5.8629285 17.345703 6.0234375 L 16.484375 7.3085938 L 17.759766 6.4414062 C 17.920351 6.3322767 18.136129 6.3529207 18.273438 6.4902344 L 18.880859 7.0957031 C 19.038854 7.2537041 19.038854 7.5099947 18.880859 7.6679688 L 15.669922 10.880859 L 11.119141 6.3300781 L 14.330078 3.1171875 C 14.409076 3.038201 14.513649 3 14.617188 3 z M 10.521484 6.9277344 L 15.072266 11.478516 L 14.142578 12.408203 C 13.984609 12.566177 13.728281 12.566177 13.570312 12.408203 L 12.689453 11.525391 C 12.519967 11.355934 12.284506 11.274641 12.044922 11.300781 C 11.806094 11.327025 11.595827 11.457733 11.466797 11.660156 C 9.8152539 14.251148 9.5735436 14.492886 9.4941406 14.572266 C 8.9251598 15.141317 7.9979016 15.14245 7.4277344 14.572266 C 6.8581326 14.002622 6.8581326 13.07545 7.4277344 12.505859 C 7.5070828 12.426481 7.748791 12.184902 10.339844 10.533203 C 10.542747 10.403847 10.674982 10.193805 10.701172 9.9550781 C 10.727389 9.7161891 10.6445 9.4804419 10.474609 9.3105469 L 9.5917969 8.4296875 C 9.5159031 8.3538425 9.4746094 8.2498711 9.4746094 8.1425781 C 9.4746094 8.0352841 9.5159279 7.9332919 9.5917969 7.8574219 L 10.521484 6.9277344 z M 8.4863281 12.943359 C 8.3399865 12.943359 8.1936913 12.997712 8.0820312 13.109375 C 7.8587112 13.332674 7.8587112 13.694643 8.0820312 13.917969 C 8.3053243 14.141296 8.6673051 14.141296 8.890625 13.917969 C 9.1139451 13.694643 9.1139451 13.332674 8.890625 13.109375 C 8.7789786 12.997709 8.6326695 12.943359 8.4863281 12.943359 z"/></svg>