<svg xmlns="http://www.w3.org/2000/svg" width="130" height="98"><path opacity="0.1" fill="black" d="M 56.564453 10.804688 C 55.323172 10.777078 54.080703 10.813547 52.845703 10.904297 C 41.238703 11.754297 28.299922 17.840172 22.044922 27.826172 C 15.900922 37.640172 14.332563 50.385656 18.601562 61.222656 C 21.534562 68.666656 25.215953 72.750016 32.126953 76.666016 C 38.685953 80.383016 45.80525 83.102203 53.15625 84.783203 C 68.49525 88.290203 87.937479 87.891125 102.14648 80.453125 C 110.97648 75.830125 119.59317 66.850719 116.20117 56.136719 C 113.0067 46.047673 101.85166 44.574555 92.998047 42.306641 L 100.33008 53.025391 L 82.876953 78.537109 L 51.226562 78.537109 L 44.548828 78.537109 L 27.09375 53.025391 L 44.548828 27.513672 L 51.226562 27.513672 L 80.330078 27.513672 C 77.571771 21.398262 74.140661 15.859009 67.412109 12.996094 C 63.995109 11.542594 60.288297 10.887516 56.564453 10.804688 z M 22.230469 40.710938 C 23.641166 40.710077 24.786516 41.851029 24.791016 43.261719 C 24.786485 44.672409 23.641166 45.81336 22.230469 45.8125 C 20.821294 45.812288 19.677475 44.672836 19.671875 43.263672 C 19.675329 41.852981 20.819774 40.711157 22.230469 40.710938 z M 22.230469 42.103516 C 21.589469 42.103516 21.066406 42.623672 21.066406 43.263672 C 21.066406 44.815755 23.394531 44.815755 23.394531 43.263672 C 23.394531 42.623672 22.872469 42.103516 22.230469 42.103516 z M 22.248047 64.246094 C 22.429071 64.248869 22.60198 64.321672 22.730469 64.449219 C 23.002132 64.720352 23.002132 65.160508 22.730469 65.431641 L 22.072266 66.089844 C 21.94107 66.220499 21.76328 66.293582 21.578125 66.292969 C 20.957951 66.292021 20.647763 65.542401 21.085938 65.103516 L 21.742188 64.449219 C 21.876433 64.315944 22.058908 64.242694 22.248047 64.246094 z"/><path opacity="1" fill="black" fill-rule="evenodd" d="M 44.548828 27.513672 L 27.09375 53.025391 L 44.548828 78.537109 L 51.226562 78.537109 L 33.771484 53.025391 L 44.080078 37.960938 L 41.984375 33.861328 C 41.709375 33.323328 42.329891 32.769562 42.837891 33.101562 L 45.992188 35.166016 L 51.226562 27.513672 L 44.548828 27.513672 z M 104.80664 35.1875 A 0.698 0.698 0 0 0 104.12891 35.884766 L 104.12891 36.117188 C 104.12891 36.886187 103.50342 37.509766 102.73242 37.509766 L 102.5 37.509766 A 0.697 0.697 0 0 0 101.80078 38.205078 C 101.80078 38.589078 102.114 38.900391 102.5 38.900391 L 102.73242 38.900391 C 103.50342 38.900391 104.12891 39.524969 104.12891 40.292969 L 104.12891 40.523438 A 0.698 0.698 0 0 0 105.52539 40.523438 L 105.52539 40.292969 C 105.52539 39.524969 106.15087 38.900391 106.92188 38.900391 L 107.1543 38.900391 A 0.697 0.697 0 0 0 107.85156 38.205078 A 0.697 0.697 0 0 0 107.1543 37.509766 L 106.92188 37.509766 A 1.394 1.394 0 0 1 105.52539 36.117188 L 105.52539 35.884766 A 0.698 0.698 0 0 0 104.80664 35.1875 z M 17.3125 64.246094 A 0.7 0.7 0 0 0 16.806641 64.449219 A 0.694 0.694 0 0 0 16.806641 65.431641 L 17.464844 66.089844 A 0.697 0.697 0 0 0 17.957031 66.292969 A 0.695 0.695 0 0 0 18.451172 65.103516 L 17.792969 64.449219 A 0.7 0.7 0 0 0 17.3125 64.246094 z M 22.248047 64.246094 A 0.7 0.7 0 0 0 21.742188 64.449219 L 21.085938 65.103516 A 0.697 0.697 0 0 0 21.578125 66.292969 A 0.697 0.697 0 0 0 22.072266 66.089844 L 22.730469 65.431641 A 0.694 0.694 0 0 0 22.730469 64.449219 A 0.7 0.7 0 0 0 22.248047 64.246094 z M 17.970703 68.507812 A 0.7 0.7 0 0 0 17.464844 68.712891 L 16.806641 69.367188 A 0.697 0.697 0 0 0 17.300781 70.556641 A 0.697 0.697 0 0 0 17.794922 70.353516 L 18.451172 69.695312 A 0.694 0.694 0 0 0 18.451172 68.712891 A 0.7 0.7 0 0 0 17.970703 68.507812 z M 21.589844 68.507812 A 0.7 0.7 0 0 0 21.085938 68.712891 A 0.694 0.694 0 0 0 21.085938 69.695312 L 21.742188 70.353516 A 0.697 0.697 0 0 0 22.236328 70.556641 A 0.695 0.695 0 0 0 22.730469 69.367188 L 22.072266 68.712891 A 0.7 0.7 0 0 0 21.589844 68.507812 z"/><path opacity="0.6" fill="black" fill-rule="evenodd" d="M 51.226562 27.513672 L 45.992188 35.166016 L 63.080078 46.349609 A 2.361 2.361 0 0 1 63.900391 47.269531 L 66.986328 53.439453 A 0.592 0.592 0 0 0 68.044922 53.439453 L 71.132812 47.269531 C 71.318814 46.895531 71.601172 46.579609 71.951172 46.349609 L 88.398438 35.585938 L 82.876953 27.513672 L 51.226562 27.513672 z M 44.080078 37.958984 L 33.771484 53.025391 L 51.226562 78.537109 L 82.876953 78.537109 L 100.33008 53.025391 L 90.554688 38.738281 L 84.654297 50.28125 A 0.59 0.59 0 0 0 85.181641 51.138672 L 90.205078 51.138672 C 90.780078 51.138672 91.017781 51.873031 90.550781 52.207031 L 67.859375 68.40625 A 0.592 0.592 0 0 1 67.171875 68.40625 L 44.482422 52.207031 C 44.015422 51.873031 44.251172 51.138672 44.826172 51.138672 L 49.849609 51.138672 A 0.59 0.59 0 0 0 50.376953 50.28125 L 44.080078 37.958984 z M 22.230469 40.710938 A 2.559 2.559 0 0 0 19.671875 43.263672 A 2.559 2.559 0 0 0 22.230469 45.8125 A 2.559 2.559 0 0 0 24.791016 43.261719 A 2.559 2.559 0 0 0 22.230469 40.710938 z M 22.230469 42.103516 C 22.872469 42.103516 23.394531 42.623672 23.394531 43.263672 A 1.1635 1.1635 0 0 1 21.066406 43.263672 C 21.066406 42.623672 21.589469 42.103516 22.230469 42.103516 z"/></svg>