<svg xmlns="http://www.w3.org/2000/svg" width="24" height="24" viewBox="0 0 24 24"><path fill="black" d="M 11.879601,20.40816 1.6283278,13.017189 c 0,0 -0.4286542,-0.332086 -0.4548575,-0.400304 -0.062098,-0.161664 0.035212,-0.377491 0.1987625,-0.440662 l 2.4603396,-0.102025 c 0.1408382,-0.01475 0.1515623,-0.02107 0.1339763,-0.07885 C 2.6645682,9.3652411 1.369069,6.724457 0.07491429,4.0875925 c 0,0 -0.10060014,-0.3518096 0.03160056,-0.4839702 0.0743366,-0.074337 0.11051169,-0.088181 0.22994175,-0.088181 0.10332883,0 0.20914557,0.060793 0.20914557,0.060793 L 10.047731,10.03842 c 0,0 0.117264,0.08336 0.228939,0.18532 0.143828,0.131257 0.242261,0.304117 0.242261,0.304117 l 1.519257,2.860021 c 0,0 1.022128,-1.899352 1.519453,-2.86001 0.02779,-0.08417 0.09841,-0.172861 0.242261,-0.304118 0.111675,-0.101925 0.228949,-0.18532 0.228949,-0.18532 3.167673,-2.1501594 9.502118,-6.4621848 9.502118,-6.4621848 0,0 0.105817,-0.060794 0.209146,-0.060794 0.11943,0 0.155625,0.013844 0.229942,0.088181 0.13216,0.1321606 0.0316,0.4839702 0.0316,0.4839702 l -3.837261,7.8015166 c 0,0 -0.04384,0.07163 -0.05427,0.106239 -0.01756,0.05778 -0.007,0.0641 0.133967,0.07885 l 2.460339,0.102025 c 0.16352,0.0632 0.26087,0.278998 0.198773,0.440662 -0.02618,0.06822 -0.454858,0.400304 -0.454858,0.400304 L 12.197064,20.40817 c 0,0 -0.111354,0.04183 -0.159076,0.04183 -0.04775,0 -0.159086,-0.04183 -0.159086,-0.04183 z"/></svg>