<svg xmlns="http://www.w3.org/2000/svg" width="24" height="24" viewBox="0 0 24 24"><path fill="black" d="m 4.9773564,-3.377e-5 c -1.683532,0 -3.052734,1.36967257 -3.052734,3.05273437 0,0.022572 0.0037,0.044617 0.0059,0.066406 -0.0022,1.554733 -0.02124,15.8406874 -0.002,17.7187504 -0.0012,0.03673 -0.0059,0.07228 -0.0059,0.109375 0,1.618375 1.267407,2.942855 2.861328,3.042968 0.03197,0.0049 0.06252,0.0098 0.0957,0.0098 H 21.47926 c 0.348985,0 0.632812,-0.283513 0.632812,-0.632812 v -2.38086 c 0,-0.349038 -0.283879,-0.632812 -0.632812,-0.632812 -0.348933,0 -0.632813,0.283827 -0.632813,0.632812 v 1.748047 H 4.9754034 c -0.96116,0 -1.744641,-0.763246 -1.783203,-1.714844 9.41e-4,-0.01698 0.0042,-0.03153 0.0039,-0.04883 -6.27e-4,-0.0278 -0.0013,-0.07143 -0.002,-0.128906 0.05528,-0.936549 0.831063,-1.683594 1.78125,-1.683594 H 21.324953 c 0.05006,0 0.09793,-0.0064 0.144531,-0.01758 0.0037,0 0.0061,0 0.0098,0 0.348986,0 0.632812,-0.281612 0.632812,-0.630859 V 0.63277873 c 2.1e-5,-0.3491422 -0.28386,-0.6328125 -0.632846,-0.6328125 H 21.325013 5.9871224 Z M 11.887513,2.9999662 c 0.788572,0 1.427734,0.6391624 1.427734,1.4277344 v 0.8574218 h 2.28711 c 0.628571,1e-7 1.142578,0.5140072 1.142578,1.1425782 V 8.71481 h 0.857422 c 0.788571,0 1.427734,0.6391633 1.427734,1.427734 0,0.788572 -0.639163,1.429688 -1.427734,1.429688 h -0.857422 v 2.285156 c 0,0.628572 -0.514007,1.142578 -1.142578,1.142578 h -2.171875 v -0.857422 c 0,-0.851428 -0.69154,-1.542969 -1.542969,-1.542969 -0.851428,0 -1.542969,0.691541 -1.542969,1.542969 v 0.857422 H 8.1726694 c -0.628572,0 -1.142578,-0.514006 -1.142578,-1.142578 v -2.171875 h 0.857422 c 0.851428,0 1.542968,-0.691541 1.542968,-1.542969 0,-0.8514287 -0.69154,-1.5429684 -1.542968,-1.5429684 h -0.851563 v -2.171875 c 0,-0.628571 0.508147,-1.1425782 1.136719,-1.1425782 H 10.457825 V 4.4277006 c 0,-0.788572 0.641117,-1.4277344 1.429688,-1.4277344 z"/></svg>