<svg xmlns="http://www.w3.org/2000/svg" width="24" height="24" viewBox="0 0 24 24"><path fill="black" d="m 12,4.542969 c -5.1414517,0 -9.6135437,2.866635 -11.90625021,7.08789 -0.1250981,0.230353 -0.1250981,0.507929 0,0.738282 C 2.3864953,16.590436 6.8585093,19.457031 12,19.457031 c 5.141491,0 9.613504,-2.866595 11.90625,-7.08789 0.125098,-0.230353 0.125098,-0.507929 0,-0.738282 C 21.613544,7.409565 17.141451,4.542969 12,4.542969 Z m 0,1.736328 c 3.158981,0 5.720703,2.561722 5.720703,5.720703 0,3.158981 -2.561722,5.720703 -5.720703,5.720703 C 8.8410193,17.720703 6.2792963,15.158941 6.2792963,12 6.2792963,8.841059 8.8410193,6.279297 12,6.279297 Z m 0,2.806641 c -0.240627,0 -0.473619,0.02904 -0.697266,0.08398 0.229058,0.265098 0.367188,0.610438 0.367188,0.988281 0,0.835295 -0.676386,1.511719 -1.511719,1.511719 -0.3778437,0 -0.7231837,-0.13809 -0.9882817,-0.367188 -0.05494,0.223647 -0.08398,0.456639 -0.08398,0.697266 0,1.609883 1.3042197,2.914062 2.9140627,2.914062 1.609843,0 2.914063,-1.304218 2.914062,-2.914062 0,-1.609843 -1.304179,-2.914062 -2.914062,-2.914062 z"/></svg>