<svg xmlns="http://www.w3.org/2000/svg" width="24" height="24" viewBox="0 0 24 24"><path fill="black" d="M 9.5443927,23.78336 C 7.3390791,23.325082 5.1855352,22.130768 3.4686229,20.413855 -1.1454095,15.799823 -1.1214916,8.1581718 3.5215155,3.5151646 6.9967857,0.03989448 12.472103,-0.98779577 16.845356,1.0143457 c 7.6975,3.5240329 9.56144,13.5187043 3.627742,19.4524023 -2.739318,2.739319 -7.196923,4.0921 -10.9287053,3.316612 z m 1.0313903,-5.711945 c 0.544679,-1.418773 1.184366,-2.579589 1.421524,-2.579589 0.237159,0 0.877522,1.160816 1.42303,2.579589 0.855818,2.225835 1.116142,2.579589 1.898303,2.579589 1.316247,0 1.321205,-0.881615 0.02405,-4.278498 -1.184111,-3.100877 -1.459323,-5.409974 -0.673672,-5.652298 0.253352,-0.07815 1.206879,-0.363143 2.118948,-0.633331 1.254637,-0.371671 1.687025,-0.6934883 1.776282,-1.3220546 0.174727,-1.2304663 -0.769167,-1.3944519 -3.848225,-0.6685635 -2.582864,0.6089121 -2.85458,0.6089121 -5.4374437,0 C 6.1995235,7.3703705 5.2556291,7.5343561 5.4303564,8.7648224 5.5196134,9.3933887 5.9520001,9.715206 7.206638,10.086877 c 0.9120688,0.270188 1.8655954,0.555188 2.1189478,0.633331 0.7814422,0.241026 0.5125407,2.563075 -0.6448971,5.568895 -1.473107,3.8256 -1.4415885,4.701501 0.1608329,4.469574 0.5460359,-0.07903 1.00737,-0.793876 1.7342574,-2.687262 z M 13.534469,6.9589199 C 14.373577,6.1995375 14.403956,4.710586 13.598503,3.8205663 12.333077,2.4222869 9.7862341,3.406434 9.7862341,5.293698 c 0,1.9711765 2.2873019,2.9873515 3.7482389,1.6652219 z"/></svg>