<svg xmlns="http://www.w3.org/2000/svg" width="24" height="24" viewBox="0 0 24 24"><path fill="black" d="M 12 0 A 12 12 0 0 0 0 12 A 12 12 0 0 0 12 24 A 12 12 0 0 0 24 12 A 12 12 0 0 0 12 0 z M 12 2 A 10 10 0 0 1 22 12 A 10 10 0 0 1 12 22 A 10 10 0 0 1 2 12 A 10 10 0 0 1 12 2 z M 12.046875 4.0117188 C 11.570319 4.0046919 11.083001 4.204469 10.652344 4.609375 C 9.8189545 5.39293 9.8041191 6.4778388 10.613281 7.3398438 C 11.396209 8.1738998 12.47853 8.1887172 13.339844 7.3789062 C 14.173233 6.5953513 14.19002 5.5104415 13.380859 4.6484375 C 12.989395 4.231409 12.523431 4.0187456 12.046875 4.0117188 z M 7.0019531 8.0664062 C 6.6876739 8.0671288 6.5356476 8.1770595 6.3144531 8.3984375 C 5.5842811 9.1291935 6.1873923 9.7683713 8.2226562 10.419922 C 9.9496163 10.972775 9.9882812 11.007967 9.9882812 12.005859 C 9.9882812 12.567273 9.5240693 14.419964 8.9570312 16.123047 C 8.1291733 18.609496 7.9951776 19.30272 8.2753906 19.640625 C 8.7137966 20.169294 9.2473461 20.178354 9.6738281 19.664062 C 9.8551541 19.445404 10.302604 18.378912 10.667969 17.294922 C 11.230607 15.625656 11.43378 15.324219 11.990234 15.324219 C 12.548342 15.324219 12.758785 15.644189 13.396484 17.451172 C 14.235182 19.827705 14.862824 20.471757 15.609375 19.724609 C 16.043227 19.290408 16.000811 19.023345 15.041016 16.140625 C 14.470588 14.427353 14.003906 12.567273 14.003906 12.005859 C 14.003906 11.007967 14.044529 10.972775 15.771484 10.419922 C 17.806748 9.7683713 18.407905 9.1291935 17.677734 8.3984375 C 17.235344 7.9556935 17.071321 7.9568083 15.330078 8.3945312 C 12.957929 8.9908732 11.036213 8.9908732 8.6640625 8.3945312 C 7.793442 8.1756632 7.3162324 8.0656837 7.0019531 8.0664062 z"/></svg>