<svg xmlns="http://www.w3.org/2000/svg" width="24" height="24" viewBox="0 0 24 24"><path fill="black" d="m 11.48228,0.00259146 c -1.487848,0.0517 -2.962478,0.381425 -4.329697,1.00735904 -0.5194472,0.237811 -1.0103789,0.507217 -1.4761148,0.800702 -0.039927,0.02454 -0.077711,0.05274 -0.117369,0.07777 -0.1599679,0.103375 -0.3189644,0.207339 -0.4723567,0.316825 -0.5552073,0.3884757 -1.0834048,0.8205842 -1.569002,1.3061813 -2.1340314,2.1340313 -3.28923778,4.901755 -3.47067018,7.7175602 -0.014138,0.219417 -0.024372,0.439122 -0.026642,0.658851 -2.506e-4,0.01802 -0.00127,0.03598 -0.00144,0.05401 -0.00122,0.206933 0.00293,0.413994 0.012241,0.620688 0.00582,0.137617 0.017504,0.275093 0.028082,0.412592 0.005,0.06313 0.00842,0.126324 0.014401,0.189375 0.014552,0.156551 0.033942,0.312616 0.054724,0.468757 0.00526,0.03914 0.010203,0.07827 0.015841,0.117369 0.023611,0.164814 0.050031,0.329156 0.080646,0.493238 0.00441,0.0236 0.00985,0.04699 0.014401,0.07057 0.093799,0.486281 0.2182248,0.968124 0.3744292,1.443712 0.025521,0.07831 0.049875,0.156901 0.077046,0.234739 0.03412,0.09694 0.071235,0.193166 0.1080084,0.289462 0.047242,0.124798 0.09678,0.248883 0.1483315,0.372269 0.02805,0.06654 0.055616,0.133284 0.084967,0.199456 0.5703652,1.297567 1.3794275,2.509915 2.4330691,3.563557 1.7176377,1.717637 3.8717475,2.91211 6.0779925,3.370582 0.793655,0.164926 1.621037,0.228485 2.456832,0.208096 0.835794,0.02039 1.663176,-0.04317 2.45683,-0.208096 2.206246,-0.458472 4.360356,-1.652945 6.077993,-3.370582 1.053642,-1.053642 1.862704,-2.26599 2.43307,-3.563557 0.02935,-0.06617 0.05692,-0.132921 0.08497,-0.199456 0.05155,-0.123386 0.10109,-0.247471 0.148331,-0.372269 0.03678,-0.0963 0.07389,-0.192527 0.108009,-0.289462 0.02717,-0.07784 0.05152,-0.156434 0.07705,-0.234739 0.156204,-0.475588 0.28063,-0.957431 0.374429,-1.443712 0.0045,-0.02358 0.01,-0.04697 0.0144,-0.07057 0.03061,-0.164082 0.05703,-0.328424 0.08065,-0.493238 0.0056,-0.03909 0.01059,-0.07823 0.01584,-0.117369 0.02078,-0.156141 0.04017,-0.312206 0.05472,-0.468757 0.006,-0.06305 0.0094,-0.126244 0.0144,-0.189375 0.01058,-0.137499 0.02226,-0.274975 0.02808,-0.412592 0.0093,-0.206694 0.01346,-0.413755 0.01224,-0.620688 -1.7e-4,-0.01803 -0.0012,-0.03598 -0.0014,-0.05401 -0.0023,-0.219729 -0.01251,-0.439434 -0.02664,-0.658851 C 23.771543,8.4131838 22.616337,5.6454601 20.482305,3.5114288 19.996708,3.0258317 19.46851,2.5937232 18.913303,2.2052475 c -0.153392,-0.109486 -0.312389,-0.21345 -0.472357,-0.316825 -0.03966,-0.02502 -0.07744,-0.05322 -0.117369,-0.07777 -0.465735,-0.293485 -0.956667,-0.562891 -1.476114,-0.800702 -1.525645,-0.69846304 -3.185234,-1.01991704 -4.847418,-1.00591904 -0.172604,-0.0014 -0.345317,-0.0074 -0.51772,-0.0014 z m 0.51484,3.10056194 c 0.11465,0 0.229702,0.00566 0.344187,0.01728 0.801391,0.081371 1.594346,0.4471221 2.3229,1.0980855 1.41282,1.2772247 1.795895,3.886078 0,5.5905152 -0.788912,0.7048929 -1.400153,1.0000759 -2.274656,1.0628029 -0.123098,0.0088 -0.25192,0.01284 -0.386671,0.01296 -0.13695,0 -0.267501,-0.004 -0.39243,-0.01296 -0.874504,-0.06273 -1.485744,-0.35791 -2.274657,-1.0628029 -1.795894,-1.7044372 -1.412819,-4.3132905 0,-5.5905152 0.728554,-0.6509634 1.521509,-1.0167148 2.322901,-1.0980855 0.112813,-0.011285 0.225455,-0.01728 0.338426,-0.01728 z m 0,8.8876506 c 0.204905,0 0.408804,0.0058 0.611328,0.01728 3.037855,0.172507 5.782255,1.626351 7.45546,3.97615 l 0.744538,1.045521 -1.14849,1.392588 -1.144169,1.388268 -0.502599,-0.958394 c -0.308839,-0.589438 -0.535202,-0.891322 -0.667492,-0.91447 -0.171424,-0.03965 -0.190287,0.373145 -0.03024,1.226256 0.01198,0.06386 0.01946,0.114029 0.02952,0.172093 0.08522,0.557077 0.04534,0.944757 -0.240499,1.260098 -0.168425,0.145024 -0.408215,0.286665 -0.761819,0.470197 -0.789361,0.409704 -2.63958,0.688819 -4.342659,0.758219 C 10.296922,21.75521 8.446703,21.476095 7.657342,21.066391 7.303739,20.882859 7.063949,20.741218 6.895523,20.596194 6.6096804,20.280853 6.5698052,19.893173 6.6550244,19.336096 c 0.010061,-0.05806 0.017541,-0.108229 0.029523,-0.172093 0.1600446,-0.853111 0.1411824,-1.265904 -0.030242,-1.226256 -0.1322901,0.02315 -0.3586531,0.325032 -0.667492,0.914472 L 5.4842145,19.810613 4.3400454,18.422345 3.1915561,17.029757 3.936094,15.984235 c 1.6732043,-2.349799 4.417605,-3.803642 7.45546,-3.976149 0.200641,-0.01129 0.402591,-0.01728 0.605567,-0.01728 z"/></svg>