<svg xmlns="http://www.w3.org/2000/svg" width="24" height="24" viewBox="0 0 24 24"><path fill="black" d="M 11.976562 0.005859375 C 8.0630189 0.0013968754 4.1595419 1.8267287 1.8671875 5.4863281 C 1.8664248 5.4875458 1.8659968 5.4890163 1.8652344 5.4902344 C 1.5265227 6.0195884 1.2205543 6.5873997 0.953125 7.1933594 C 0.28675392 8.7032711 -0.016021643 10.316712 0 11.921875 C 3.8964042e-05 11.925779 -4.2725356e-05 11.92969 0 11.933594 C 7.7663428e-07 11.938138 -5.9616601e-06 11.942722 0 11.947266 C 0.0027846839 14.069802 0.57516841 16.12898 1.5996094 17.927734 C 2.8413935 20.168315 4.7515301 21.999272 7.1386719 22.951172 C 7.9885419 23.325313 8.8977915 23.605967 9.859375 23.775391 C 10.596172 23.927757 11.286841 23.994409 12 23.986328 C 12.713159 23.994409 13.403828 23.927757 14.140625 23.775391 C 15.102208 23.605967 16.011458 23.325313 16.861328 22.951172 C 19.24847 21.999272 21.158607 20.168314 22.400391 17.927734 C 23.424832 16.12898 23.997215 14.069802 24 11.947266 C 24.000055 11.942712 23.99995 11.938148 24 11.933594 C 24.000001 11.929698 24.000003 11.925771 24 11.921875 C 24.016022 10.316713 23.713246 8.7032711 23.046875 7.1933594 C 22.779446 6.5873997 22.473477 6.0195884 22.134766 5.4902344 C 22.133981 5.4890076 22.133598 5.4875545 22.132812 5.4863281 C 19.840458 1.8267287 15.936981 0.0013968768 12.023438 0.005859375 C 12.015627 0.0058682711 12.007811 0.0058358902 12 0.005859375 C 11.992189 0.0058358902 11.984373 0.0058682711 11.976562 0.005859375 z M 12 3.3710938 C 12.788481 3.3813094 13.584076 3.6705682 14.324219 4.2421875 C 14.810028 4.6173821 15.17034 5.0522162 15.408203 5.5175781 C 16.121791 6.9136638 15.733244 8.5878212 14.324219 9.7734375 C 13.600447 10.382452 12.560275 10.580693 12 10.583984 C 11.439725 10.580693 10.399553 10.382452 9.6757812 9.7734375 C 8.2667565 8.5878214 7.8782088 6.9136638 8.5917969 5.5175781 C 8.8296596 5.0522162 9.1899718 4.6173821 9.6757812 4.2421875 C 10.415925 3.6705682 11.211519 3.3813094 12 3.3710938 z M 12 12.185547 C 12.075373 12.185457 12.151185 12.186088 12.226562 12.1875 C 12.345182 12.190011 12.46367 12.192987 12.582031 12.199219 C 12.625037 12.201374 12.667963 12.204386 12.710938 12.207031 C 12.860817 12.216649 13.009141 12.228547 13.158203 12.244141 C 13.161436 12.244479 13.164737 12.2438 13.167969 12.244141 C 13.171898 12.244543 13.175759 12.245687 13.179688 12.246094 C 15.626116 12.506815 17.938742 13.572999 19.359375 15.435547 C 20.413265 16.817268 20.426497 16.913261 19.728516 17.978516 C 19.686817 18.042155 19.647877 18.090473 19.607422 18.148438 C 19.585755 18.175715 19.571435 18.196212 19.548828 18.224609 C 19.357436 18.465019 19.208474 18.643651 19.082031 18.775391 C 18.937762 18.906296 18.80139 18.999942 18.677734 19.033203 C 18.508604 19.035742 18.355632 18.866632 18.109375 18.546875 C 18.02963 18.443328 17.958837 18.362231 17.888672 18.28125 C 17.693726 17.868366 17.47541 17.724725 17.296875 17.841797 C 17.296168 17.84226 17.295627 17.843279 17.294922 17.84375 C 17.141466 17.854878 17.053206 18.061978 17.009766 18.445312 C 16.972247 18.632379 16.945312 18.845838 16.945312 19.107422 C 16.945312 19.987466 16.760745 20.384173 16.064453 20.773438 C 15.897118 20.862858 15.711507 20.952294 15.480469 21.048828 C 14.774859 21.343651 13.868229 21.52795 12.914062 21.599609 C 12.755035 21.611553 12.594554 21.619242 12.433594 21.625 C 12.289515 21.630154 12.144549 21.632611 12 21.632812 C 11.855451 21.632611 11.710485 21.630154 11.566406 21.625 C 11.405446 21.619242 11.244965 21.611553 11.085938 21.599609 C 10.131771 21.52795 9.2251407 21.343651 8.5195312 21.048828 C 8.2884928 20.952294 8.1028822 20.862858 7.9355469 20.773438 C 7.2392548 20.384173 7.0546875 19.987466 7.0546875 19.107422 C 7.0546875 18.845838 7.0277526 18.632379 6.9902344 18.445312 C 6.9467937 18.061978 6.8585345 17.854878 6.7050781 17.84375 C 6.7042718 17.843692 6.7039347 17.841845 6.703125 17.841797 C 6.5245899 17.724725 6.306274 17.868366 6.1113281 18.28125 C 6.0411634 18.362231 5.9703701 18.443328 5.890625 18.546875 C 5.6443676 18.866632 5.4913959 19.035742 5.3222656 19.033203 C 5.1986099 18.999942 5.0622377 18.906296 4.9179688 18.775391 C 4.7915264 18.643651 4.6425641 18.465019 4.4511719 18.224609 C 4.4285646 18.196212 4.414245 18.175715 4.3925781 18.148438 C 4.3521234 18.090473 4.3131827 18.042155 4.2714844 17.978516 C 3.5735024 16.913261 3.5867345 16.817268 4.640625 15.435547 C 6.0612582 13.572999 8.3738844 12.506815 10.820312 12.246094 C 10.824249 12.245674 10.828094 12.244556 10.832031 12.244141 C 10.835248 12.243811 10.83858 12.244468 10.841797 12.244141 C 10.990859 12.228547 11.139184 12.216649 11.289062 12.207031 C 11.332037 12.204386 11.374963 12.201374 11.417969 12.199219 C 11.53633 12.192987 11.654819 12.190011 11.773438 12.1875 C 11.848815 12.186088 11.924627 12.185457 12 12.185547 z"/></svg>