<svg xmlns="http://www.w3.org/2000/svg" width="24" height="24" viewBox="0 0 24 24"><path fill="black" d="M 12 0 C 10.595784 2.0724142e-15 3.0467119 4.5407379 2.3984375 5.7753906 C 1.4408295 7.5991738 2.0792289 13.081387 3.6308594 16.367188 C 4.7933742 18.828977 6.7928731 21.127836 9.1523438 22.716797 C 10.200074 23.42238 11.463209 24 11.960938 24 C 14.199991 24 18.679775 19.942712 20.353516 16.398438 C 21.919557 13.082227 22.561539 7.6074058 21.599609 5.7753906 C 20.951335 4.5407379 13.404216 0 12 0 z M 10.199219 6 L 13.800781 6 L 13.800781 9.3007812 L 12 11.099609 L 10.199219 9.3007812 L 10.199219 6 z M 6 10.199219 L 9.3007812 10.199219 L 11.099609 12 L 9.3007812 13.800781 L 6 13.800781 L 6 10.199219 z M 14.699219 10.199219 L 18 10.199219 L 18 13.800781 L 14.699219 13.800781 L 12.900391 12 L 14.699219 10.199219 z M 12 12.900391 L 13.800781 14.699219 L 13.800781 18 L 10.199219 18 L 10.199219 14.699219 L 12 12.900391 z"/></svg>