<svg xmlns="http://www.w3.org/2000/svg" width="24" height="24" viewBox="0 0 24 24"><path fill="black" d="M 11.986328 0 L 2.1679688 4.3632812 L 2.1679688 10.908203 C 2.1679688 16.962748 6.3572371 22.625455 11.986328 24 C 11.988328 23.999511 11.990187 23.998547 11.992188 23.998047 C 11.994787 23.998687 11.9974 23.9993 12 24 C 17.629091 22.625455 21.818359 16.962748 21.818359 10.908203 L 21.818359 4.3632812 L 12 0 L 11.992188 0.00390625 L 11.986328 0 z M 10.199219 6 L 13.800781 6 L 13.800781 9.3007812 L 12 11.099609 L 10.199219 9.3007812 L 10.199219 6 z M 6 10.199219 L 9.3007812 10.199219 L 11.099609 12 L 9.3007812 13.800781 L 6 13.800781 L 6 10.199219 z M 14.699219 10.199219 L 18 10.199219 L 18 13.800781 L 14.699219 13.800781 L 12.900391 12 L 14.699219 10.199219 z M 12 12.900391 L 13.800781 14.699219 L 13.800781 18 L 10.199219 18 L 10.199219 14.699219 L 12 12.900391 z"/></svg>