<svg xmlns="http://www.w3.org/2000/svg" width="24" height="24" viewBox="0 0 24 24"><path fill="black" d="M 11.980469 0 C 10.112876 0 2.6852962 4.5981851 2.3417969 5.9667969 C 2.3409264 5.9702669 2.3407037 5.9768948 2.3398438 5.9804688 C 2.3225138 6.0522787 2.3069907 6.1425019 2.2929688 6.2539062 C 2.2924619 6.2578762 2.2915156 6.2596419 2.2910156 6.2636719 C 2.2499727 6.5921598 2.2253977 7.0952265 2.2148438 7.6777344 C 2.214195 7.7125103 2.2114775 7.7360834 2.2109375 7.7714844 C 2.2109025 7.7738844 2.210972 7.7768969 2.2109375 7.7792969 C 2.1984285 8.6181203 2.2177374 9.6264049 2.2714844 10.605469 C 2.4056158 13.048975 2.8005469 14.835702 3.6972656 16.607422 C 4.3562689 18.012836 5.2452344 19.275914 6.3632812 20.410156 C 7.1121636 21.169886 7.9606638 21.875483 8.9199219 22.521484 C 9.2212246 22.724394 9.5314088 22.917271 9.8359375 23.09375 L 9.8378906 23.095703 C 10.443267 23.457024 11.00757 23.735579 11.457031 23.882812 C 11.483201 23.891412 11.50587 23.89858 11.53125 23.90625 C 11.706304 23.96381 11.856552 24 11.957031 24 C 11.969861 24 11.98666 23.996594 12 23.996094 C 12.01333 23.996618 12.030139 24 12.042969 24 C 12.143448 24 12.293696 23.96386 12.46875 23.90625 C 12.49413 23.89855 12.516799 23.891392 12.542969 23.882812 C 12.99243 23.735579 13.556733 23.457024 14.162109 23.095703 L 14.164062 23.09375 C 14.468592 22.917271 14.778774 22.724394 15.080078 22.521484 C 16.039336 21.875483 16.887836 21.169886 17.636719 20.410156 C 18.754766 19.275914 19.643731 18.012836 20.302734 16.607422 C 21.199453 14.835702 21.594384 13.048975 21.728516 10.605469 C 21.782266 9.626405 21.801572 8.6181203 21.789062 7.7792969 C 21.789028 7.7768869 21.789099 7.7738844 21.789062 7.7714844 C 21.789042 7.7700044 21.789084 7.7690681 21.789062 7.7675781 C 21.788542 7.7333992 21.785756 7.7113303 21.785156 7.6777344 C 21.774606 7.0952265 21.750024 6.5921598 21.708984 6.2636719 C 21.708482 6.2596519 21.707631 6.2578862 21.707031 6.2539062 C 21.701131 6.2069723 21.694 6.1788601 21.6875 6.1386719 C 21.6785 6.0841929 21.670286 6.0208312 21.660156 5.9804688 C 21.659294 5.9768988 21.659103 5.9702649 21.658203 5.9667969 C 21.31473 4.598239 13.887124 2.9605918e-16 12.019531 0 C 12.013631 0 12.00604 0.0018631251 12 0.001953125 C 11.994 0.0018590251 11.986399 2.1684022e-19 11.980469 0 z M 10.199219 6 L 13.800781 6 L 13.800781 9.3007812 L 12 11.099609 L 10.199219 9.3007812 L 10.199219 6 z M 6 10.199219 L 9.3007812 10.199219 L 11.099609 12 L 9.3007812 13.800781 L 6 13.800781 L 6 10.199219 z M 14.699219 10.199219 L 18 10.199219 L 18 13.800781 L 14.699219 13.800781 L 12.900391 12 L 14.699219 10.199219 z M 12 12.900391 L 13.800781 14.699219 L 13.800781 18 L 10.199219 18 L 10.199219 14.699219 L 12 12.900391 z"/></svg>