<svg xmlns="http://www.w3.org/2000/svg" width="24" height="24" viewBox="0 0 24 24"><path fill="black" d="m 2.9374744,8.9791825 c -0.7731007,0 -1.5461601,0.29488 -2.1360139,0.88474 -1.17970773,1.1796995 -1.17970773,3.0924095 0,4.2721195 1.1797076,1.1797 3.0924123,1.1797 4.2721201,0 1.1797076,-1.17971 1.1797076,-3.09242 0,-4.2721195 -0.5898539,-0.58986 -1.3630055,-0.88474 -2.1361062,-0.88474 z m 9.0625256,0 c -0.773101,0 -1.54616,0.29488 -2.1360142,0.88474 -1.1797077,1.1796995 -1.1797077,3.0924095 0,4.2721195 1.1797082,1.1797 3.0924122,1.1797 4.2721202,0 1.179708,-1.17971 1.179708,-3.09242 0,-4.2721195 C 13.546252,9.2740625 12.7731,8.9791825 12,8.9791825 Z m 9.062525,0 c -0.7731,0 -1.546252,0.29488 -2.136106,0.88474 -1.179707,1.1796995 -1.179707,3.0924095 0,4.2721195 1.179708,1.1797 3.092412,1.1797 4.272121,0 1.179707,-1.17971 1.179707,-3.09242 0,-4.2721195 -0.589854,-0.58986 -1.362914,-0.88474 -2.136015,-0.88474 z"/></svg>