<svg xmlns="http://www.w3.org/2000/svg" width="24" height="24" viewBox="0 0 24 24"><path fill="black" d="M 11.964844 0.12304688 C 7.1183102 0.12304688 3.3399746 2.479449 1.1933594 6.8398438 C 0.15538843 8.948263 -0.0070999668 9.6554423 0 12.060547 C 0.014075949 16.843487 2.3447358 20.669688 6.515625 22.753906 C 7.7519475 23.371706 8.9733351 23.876953 9.2285156 23.876953 C 10.897771 23.876953 11.964844 22.205546 11.964844 19.591797 C 11.964844 16.851436 12.501492 16.502653 16.722656 16.501953 C 20.899043 16.501276 22.487757 15.896607 23.503906 13.921875 C 24.388832 12.202156 24.084433 9.656839 22.636719 6.671875 C 20.610027 2.4931528 16.747596 0.12304688 11.964844 0.12304688 z M 11.941406 1.7460938 A 2 2 0 0 1 13.941406 3.7460938 A 2 2 0 0 1 11.941406 5.7460938 A 2 2 0 0 1 9.9414062 3.7460938 A 2 2 0 0 1 11.941406 1.7460938 z M 6.3515625 5.1699219 A 2 2 0 0 1 8.3515625 7.1699219 A 2 2 0 0 1 6.3515625 9.1699219 A 2 2 0 0 1 4.3515625 7.1699219 A 2 2 0 0 1 6.3515625 5.1699219 z M 17.619141 5.1992188 A 2 2 0 0 1 19.619141 7.1992188 A 2 2 0 0 1 17.619141 9.1992188 A 2 2 0 0 1 15.619141 7.1992188 A 2 2 0 0 1 17.619141 5.1992188 z M 3.6582031 11.169922 A 2 2 0 0 1 5.6582031 13.169922 A 2 2 0 0 1 3.6582031 15.169922 A 2 2 0 0 1 1.6582031 13.169922 A 2 2 0 0 1 3.6582031 11.169922 z"/></svg>