<svg xmlns="http://www.w3.org/2000/svg" width="24" height="24" viewBox="0 0 24 24"><path fill="black" d="M 0.29108426,18.427495 C -0.91743381,13.75936 3.3910437,8.8546523 8.1849139,10.07892 L 9.630214,10.448023 14.66298,5.4645651 c 5.278751,-5.22703273 6.029236,-5.65087973 7.46446,-4.2156557 0.924934,0.924934 0.974329,1.837713 0.162194,2.997198 -0.572331,0.8171172 -0.540689,0.9385679 0.575853,2.2102383 1.373269,1.5640664 1.48587,2.5500923 0.413658,3.6223043 -1.077708,1.077708 -2.059356,0.958628 -3.656336,-0.4435387 -1.263377,-1.1092592 -1.43129,-1.1596946 -1.992504,-0.5984806 -0.561214,0.5612145 -0.510779,0.7291274 0.59848,1.9925043 1.402167,1.59698 1.521248,2.578628 0.443539,3.656336 -1.077243,1.077244 -2.059262,0.958712 -3.653416,-0.440974 -1.67322,-1.469107 -2.262716,-1.121779 -1.679714,0.989679 0.885843,3.208258 -1.246827,6.673227 -4.3048284,7.754275 C 7.0590927,23.686739 4.6691109,23.338607 3.1810941,22.417423 1.6930773,21.496239 0.89765645,20.770497 0.29108426,18.427495 Z M 8.3727231,18.273037 C 9.8293949,16.954768 8.8041496,14.30157 6.8380736,14.30157 c -2.0534932,0 -3.1121034,2.382819 -1.7347618,3.904764 0.791094,0.874149 2.3422249,0.905796 3.2694113,0.0667 z"/></svg>