<svg xmlns="http://www.w3.org/2000/svg" width="24" height="24" viewBox="0 0 24 24"><g fill="black"><path d="M 1.8749999,3.7500001 C 0.83625005,3.7500001 0,4.5862501 0,5.6250005 V 18.375 c 0,1.03875 0.83625005,1.875 1.8749999,1.875 H 22.125 C 23.16375,20.25 24,19.41375 24,18.375 V 5.6250005 C 24,4.5862501 23.16375,3.7500001 22.125,3.7500001 Z m 7.059778,4.4701542 a 3.75,3.75 0 0 1 3.0540161,1.5819579 3.75,3.75 0 0 1 3.048047,-1.5708617 3.75,3.75 0 0 1 3.749999,3.7499995 3.75,3.75 0 0 1 -3.749999,3.75 3.75,3.75 0 0 1 -3.054016,-1.581921 3.75,3.75 0 0 1 -3.0480471,1.570825 3.75,3.75 0 0 1 -3.75,-3.75 3.75,3.75 0 0 1 3.75,-3.7499997 z"/><path opacity="0.6" d="m 8.9347779,8.2201543 a 3.75,3.75 0 0 0 -3.75,3.7499997 3.75,3.75 0 0 0 3.75,3.75 A 3.75,3.75 0 0 0 11.982825,14.149292 3.75,3.75 0 0 1 11.286841,11.98125 3.75,3.75 0 0 1 11.988794,9.8021122 3.75,3.75 0 0 0 8.9347779,8.2201543 Z"/><path opacity="0.4" d="m 15.036842,8.2312505 a 3.75,3.75 0 0 0 -3.048048,1.5708617 3.75,3.75 0 0 1 0.695984,2.1680418 3.75,3.75 0 0 1 -0.701953,2.179138 3.75,3.75 0 0 0 3.054017,1.581958 3.75,3.75 0 0 0 3.749998,-3.749999 3.75,3.75 0 0 0 -3.749998,-3.7500005 z"/><path opacity="0.2" d="m 11.988794,9.8021122 c -0.455415,0.6354498 -0.70084,1.3973468 -0.701953,2.1791378 0.0017,0.77735 0.244886,1.534966 0.695984,2.168042 0.455415,-0.63545 0.70084,-1.397346 0.701953,-2.179138 -0.0017,-0.777349 -0.244886,-1.534966 -0.695984,-2.1680418 z"/></g></svg>