<svg xmlns="http://www.w3.org/2000/svg" width="24" height="24" viewBox="0 0 24 24"><path fill="black" d="M 8.4597448,21.445261 C 6.700976,20.038836 5.0647842,18.443064 4.8237543,17.899099 4.2344514,16.569121 4.2344514,7.4308828 4.8237543,6.1009058 5.2170982,5.2131848 11.283337,-0.0058742 11.914979,4.8030797e-6 12.91878,0.0093048 18.823742,5.0718368 19.246978,6.2859338 c 0.494993,1.419937 0.494993,10.0082002 0,11.4281362 -0.423236,1.214097 -6.328198,6.276586 -7.331999,6.285929 -0.141613,0.0013 -1.696469,-1.148314 -3.4552342,-2.554738 z m 6.2891292,-1.856299 2.697361,-2.231179 V 12.000002 6.6422218 l -2.727817,-2.256372 -2.727816,-2.256372 -2.727817,2.256372 -2.7278167,2.256372 v 5.3558362 5.355835 l 2.6368895,2.21593 c 1.4502892,1.218761 2.6915112,2.223667 2.7582732,2.233125 0.06676,0.0095 1.335194,-0.986837 2.818743,-2.213986 z M 10.247785,16.623523 8.7172216,15.063994 V 11.971035 8.8780758 l 1.6366904,-1.606289 1.63669,-1.60629 1.63669,1.60629 1.63669,1.606289 v 3.0929592 3.092959 l -1.530564,1.559529 c -0.841808,0.857742 -1.626077,1.55953 -1.742816,1.55953 -0.11674,0 -0.901009,-0.701788 -1.742817,-1.55953 z"/></svg>