<svg xmlns="http://www.w3.org/2000/svg" width="24" height="24" viewBox="0 0 24 24"><path fill="black" d="M 12.000979,-8.8676194e-5 C 5.3736798,-8.8676194e-5 -5.1193583e-8,5.373591 -5.1193583e-8,12.000891 -5.1193583e-8,18.62813 5.3736798,23.999737 12.000979,23.999721 c 0.662738,0 1.198809,-0.538217 1.198809,-1.200957 0,-0.66274 -0.536071,-1.198809 -1.198809,-1.198809 -5.3018386,0 -9.601213,-4.297201 -9.601213,-9.599064 0,-5.3018395 4.2993744,-9.6012136 9.601213,-9.6012136 5.301878,0 9.599064,4.2993741 9.599064,9.6012136 0,0.662738 0.53607,1.198809 1.198809,1.198809 0.66274,0 1.200957,-0.536071 1.200957,-1.198809 0,-6.6273 -5.371591,-12.000979676194 -11.99883,-12.000979676194 z m 0,3.600723376194 c -0.66274,0 -1.200958,0.536106 -1.200958,1.1988089 v 7.2014474 c 0,0.318261 0.127209,0.621488 0.352338,0.84647 l 3.598575,3.600724 c 0.468593,0.468593 1.228647,0.468593 1.697239,0 0.468593,-0.468592 0.468593,-1.228647 0,-1.697239 L 13.199788,11.502461 V 4.7994436 c 0,-0.6627395 -0.53607,-1.1988089 -1.198809,-1.1988089 z"/><path fill="black" d="M 11.999021,24 C 18.62632,24 24,18.626321 24,11.999021 24,5.3717817 18.62632,1.746e-4 11.999021,1.906e-4 c -0.662738,0 -1.198809,0.538217 -1.198809,1.200957 0,0.66274 0.536071,1.198809 1.198809,1.198809 5.301839,0 9.601213,4.2972011 9.601213,9.5990644 0,5.301839 -4.299374,9.601213 -9.601213,9.601213 -5.3018784,0 -9.5990644,-4.299374 -9.5990644,-9.601213 0,-0.662738 -0.53607,-1.198809 -1.198809,-1.198809 -0.66273999,0 -1.20095699,0.536071 -1.20095699,1.198809 C 1.9061e-4,18.626321 5.3717816,24 11.999021,24 Z"/></svg>