<svg xmlns="http://www.w3.org/2000/svg" width="24" height="24" viewBox="0 0 24 24"><path fill="black" d="M 5.3138467,21.720706 C 3.9978873,20.991325 3.4003515,19.668623 3.3850304,17.451088 3.3724879,15.635708 3.2907827,15.468268 2.196226,15.014888 1.5088294,14.73016 0.76952832,14.000941 0.41542121,13.25837 c -0.55389455,-1.161533 -0.55389455,-1.377824 0,-2.539356 C 0.76952832,9.9764427 1.5088294,9.2472231 2.196226,8.9624949 3.2851008,8.5114683 3.3715597,8.3378568 3.3715597,6.6024422 c 0,-3.4792204 1.6250076,-5.046114 4.983809,-4.8055747 1.5654311,0.1121071 1.6749393,0.1933956 1.7846363,1.3247441 0.06471,0.6673816 0.554333,1.6427733 1.097078,2.1855183 2.030344,2.0303438 5.610925,0.701951 5.890897,-2.1855183 0.109698,-1.1313485 0.219205,-1.212637 1.784636,-1.3247441 2.141416,-0.1533575 3.880692,0.1668516 4.577502,1.5143336 0.719285,1.3909438 0.654083,15.3196259 -0.04778,16.8600489 -0.848874,1.863067 -1.89173,2.081081 -9.884496,2.066406 -5.3569221,-0.0099 -7.5806343,-0.149276 -8.2439993,-0.51695 z"/></svg>