<svg xmlns="http://www.w3.org/2000/svg" width="24" height="24" viewBox="0 0 24 24"><path fill="black" d="M 2.0921872,19.540099 0.39542016,19.535 0.33616576,19.512456 C 0.17129759,19.449731 0.05880674,19.324541 0.01532881,19.155399 0.00204868,19.103735 8.434866e-6,18.955194 8.434866e-6,18.04 8.434866e-6,16.889015 -0.00202716,16.932837 0.05714233,16.81 0.09156966,16.738528 0.1987437,16.631466 0.2702899,16.597074 0.39082807,16.539133 0.37642651,16.54 1.2183781,16.54 h 0.7737048 v -5.15941 c 0,-2.864345 0.00383,-5.161772 0.0086,-5.164719 0.00473,-0.0029 0.011507,-0.03366 0.01506,-0.06831 0.018431,-0.179705 0.082408,-0.388074 0.1830841,-0.596288 0.2655912,-0.5492832 0.80926,-0.9687972 1.399929,-1.0802337 0.033034,-0.00623 0.087091,-0.016652 0.1201251,-0.023155 0.087158,-0.017159 16.5101259,-0.017159 16.5972839,0 0.03303,0.0065 0.08709,0.016924 0.120125,0.023155 0.590669,0.1114365 1.134338,0.5309505 1.39993,1.0802367 0.100675,0.208214 0.164653,0.416583 0.183084,0.596288 0.0036,0.03465 0.01033,0.06539 0.01506,0.06831 0.0047,0.0029 0.0086,0.04931 0.0086,0.103084 v 0.09778 l -4.171845,0.0067 c -2.294514,0.0037 -5.839299,0.0069 -7.8773005,0.007 -3.877803,2.63e-4 -3.8055403,-4.65e-4 -4.0074128,0.04029 -0.1554583,0.03138 -0.3607554,0.08893 -0.4256054,0.119311 -0.011012,0.0052 -0.044606,0.01881 -0.074654,0.03033 C 5.4093793,6.649799 5.2459362,6.732661 5.1453678,6.793124 4.8358351,6.979221 4.5121144,7.300722 4.3156586,7.617144 4.2295876,7.755775 4.1334472,7.955711 4.0834237,8.100107 l -0.021879,0.06316 0.00994,1.745856 c 0.00556,0.976068 0.00684,2.667383 0.00289,3.835855 l -0.00705,2.09 0.027168,0.075 c 0.061047,0.168527 0.1680117,0.377426 0.2695893,0.526498 l 0.067119,0.0985 4.8117175,0.0025 4.8117175,0.0025 V 18.04501 19.55 L 8.921791,19.5476 C 6.0987265,19.5463 3.025401,19.5429 2.0921792,19.5401 Z m 14.5426848,-0.0104 c -0.296883,-0.0502 -0.529278,-0.268674 -0.603762,-0.567596 l -0.0242,-0.09711 -1.2e-4,-4.891846 c -1.28e-4,-5.327771 -0.0043,-4.941993 0.05464,-5.098329 0.06658,-0.176692 0.192444,-0.312698 0.370683,-0.400542 0.165197,-0.08142 -0.161789,-0.0749 3.608758,-0.07193 l 3.368508,0.0027 0.07786,0.02653 c 0.226344,0.07711 0.400798,0.250537 0.47903,0.476202 L 24,9.005 v 4.955 c 0,4.716434 -8.6e-4,4.95813 -0.01779,5.02 -0.07088,0.259039 -0.270723,0.460611 -0.532787,0.537401 -0.05676,0.01663 -0.244295,0.01767 -3.413555,0.01897 -1.84442,7.5e-4 -3.374871,-0.0022 -3.401,-0.0067 z m 5.470164,-2.710849 c 0.17223,-0.03619 0.321255,-0.185035 0.357268,-0.356846 0.008,-0.03814 0.01111,-0.898577 0.01111,-3.070399 0,-2.677197 -0.0017,-3.024035 -0.01533,-3.076193 -0.03574,-0.137072 -0.127645,-0.249384 -0.252365,-0.308401 L 22.138063,9.975 h -2.132221 -2.13222 l -0.06644,0.03247 c -0.09135,0.04464 -0.167624,0.12212 -0.215493,0.218874 l -0.0384,0.07762 V 13.394481 16.485 l 0.03719,0.0778 c 0.06049,0.126553 0.166692,0.215773 0.299207,0.251372 0.04633,0.01245 0.346104,0.0146 2.108158,0.01517 1.474137,4.73e-4 2.069124,-0.0025 2.107194,-0.01049 z"/></svg>