<svg xmlns="http://www.w3.org/2000/svg" width="24" height="24" viewBox="0 0 24 24"><path fill="black" d="M 8.2285156 0 L 8.2285156 2.5253906 L 0.65039062 2.5253906 L 0.65039062 5.0507812 L 23.388672 5.0507812 L 23.388672 2.5253906 L 15.808594 2.5253906 L 15.808594 0 L 8.2285156 0 z M 3.1757812 6.3144531 L 3.1757812 21.472656 C 3.1757812 22.86473 4.3097885 24 5.703125 24 L 18.335938 24 C 19.729274 24 20.861328 22.86473 20.861328 21.472656 L 20.861328 6.3144531 L 3.1757812 6.3144531 z M 8.2285156 11.369141 L 10.755859 11.369141 L 10.755859 18.949219 L 8.2285156 18.949219 L 8.2285156 11.369141 z M 13.283203 11.369141 L 15.808594 11.369141 L 15.808594 18.949219 L 13.283203 18.949219 L 13.283203 11.369141 z"/></svg>