<svg xmlns="http://www.w3.org/2000/svg" width="24" height="24" viewBox="0 0 24 24"><path fill="black" d="m 12,4.3632811 c -6.9294481,0 -12,7.6367179 -12,7.6367179 0,0 5.0705519,7.63672 12,7.63672 6.929448,0 12,-7.63672 12,-7.63672 C 24,12 18.929448,4.363281 12,4.3632811 Z m 0,3.2734373 c 2.409816,0 4.363282,1.9523746 4.363282,4.3632806 0,2.410908 -1.953466,4.363282 -4.363282,4.363282 -2.4098161,0 -4.3632813,-1.952374 -4.3632813,-4.363282 0,-2.410906 1.9534652,-4.3632806 4.3632813,-4.3632806 z m 0,2.1816406 c -1.205017,0 -2.1816406,0.976624 -2.1816406,2.18164 0,1.205018 0.9766236,2.181641 2.1816406,2.181641 1.205016,0 2.181641,-0.976623 2.181641,-2.181641 0,-1.205016 -0.976625,-2.18164 -2.181641,-2.18164 z"/></svg>