<svg xmlns="http://www.w3.org/2000/svg" width="24" height="24" viewBox="0 0 24 24"><path fill="black" d="m 0.49403453,23.248513 c -0.812021,-0.897272 -0.581154,-2.987362 0.58506697,-5.296736 2.5692047,-5.087595 9.7100985,-6.243168 14.0741255,-2.277542 2.164208,1.966633 3.438705,6.259402 2.248759,7.574278 -0.763706,0.843885 -1.378388,1.000299 -1.378388,0.350747 0,-0.229517 -0.306935,-1.09375 -0.682077,-1.920516 l -0.682076,-1.503211 -0.227642,1.819437 -0.227642,1.819436 H 8.9480099 3.6918591 L 3.4642172,21.99497 3.2365753,20.175533 2.5544988,21.678744 c -0.375142,0.826766 -0.6820766,1.690999 -0.6820766,1.920516 0,0.649552 -0.6146827,0.493138 -1.37838767,-0.350747 z M 20.214174,18.659335 c -0.195772,-0.277969 -0.700803,-1.186281 -1.12229,-2.01847 -0.421487,-0.832189 -1.639901,-2.317758 -2.707585,-3.301264 -1.845372,-1.699877 -1.922185,-1.854655 -1.555293,-3.133931 0.212274,-0.740156 0.385953,-1.392426 0.385953,-1.449488 0,-0.381577 2.697049,0.01295 3.760032,0.550024 2.682148,1.355156 4.335743,3.636437 4.904103,6.76564 0.216447,1.191686 0.11975,1.736907 -0.412319,2.324836 -0.786517,0.869091 -2.715768,1.024882 -3.252601,0.262653 z M 7.677234,11.494779 C 4.2583294,10.080725 5.2586012,4.851832 8.9480099,4.851832 c 2.9251321,0 4.4685081,3.409402 2.5269961,5.582269 -1.040045,1.163978 -2.5371,1.58209 -3.797772,1.060678 z M 14.81064,6.457087 c 0,-0.347907 -0.388023,-1.439863 -1.166338,-2.301365 C 12.865988,3.294221 12.112112,3.228523 11.834064,2.7544416 11.312143,1.8645522 13.557005,0 15.085306,0 17.935444,0 19.45886,3.453889 17.539795,5.564817 16.38265,6.837651 14.81064,7.351605 14.81064,6.457087 Z"/></svg>