<svg xmlns="http://www.w3.org/2000/svg" width="24" height="24" viewBox="0 0 24 24"><path fill="black" d="M 13.714285 4.9866071 C 5.7949164 4.9866071 0 13.714285 0 13.714285 C 0 13.714285 5.7949164 22.441964 13.714285 22.441964 C 21.633654 22.441964 27.428571 13.714285 27.428571 13.714285 C 27.428571 13.714286 21.633654 4.9866071 13.714285 4.9866071 z M 13.714285 8.7276784 C 16.468361 8.7276784 18.700893 10.958964 18.700893 13.714285 C 18.700893 16.469608 16.468361 18.700893 13.714285 18.700893 C 10.96021 18.700893 8.7276784 16.469608 8.7276784 13.714285 C 8.7276784 10.958964 10.96021 8.7276784 13.714285 8.7276784 z M 13.714285 11.220982 C 12.337123 11.220982 11.220982 12.337124 11.220982 13.714285 C 11.220982 15.091448 12.337123 16.207589 13.714285 16.207589 C 15.091447 16.207589 16.207589 15.091448 16.207589 13.714285 C 16.207589 12.337124 15.091447 11.220982 13.714285 11.220982 z"/></svg>