<svg xmlns="http://www.w3.org/2000/svg" width="24" height="24" viewBox="0 0 24 24"><path fill="black" d="M 6.8965159,24 C 5.9180302,23.696336 5.4091145,21.972637 5.4049692,19.239451 5.4020292,17.300313 5.0999082,16.354364 3.4357869,13.073859 0.62409223,7.5311347 -0.21591327,1.9801477 1.6487522,1.2646087 c 0.9743634,-0.37389701 1.6677056,0.503738 2.2884335,2.896699 0.6731841,2.595201 2.2606734,4.933339 4.3170805,6.3584303 1.2204449,0.845769 2.2897258,1.161944 4.7779148,1.412779 5.668228,0.571417 8.659861,2.693991 9.923501,7.040758 0.74504,2.562849 0.424978,4.165358 -0.9322,4.667411 -0.736764,0.272547 -1.00809,0.07725 -1.765858,-1.271013 -1.152881,-2.051274 -1.727833,-2.043606 -1.398066,0.01864 L 19.117276,24 c 0.01546,0.03057 -12.2207601,0 -12.2207601,0 z M 10.646415,8.8055457 c -3.8440666,-1.965122 -3.3489473,-7.380675 0.788102,-8.62016501 2.145827,-0.642906 5.085746,0.38253353 5.794177,2.73106001 0.450666,1.4940085 0.386531,1.9338751 0.05659,3.3110409 -0.708422,2.9569274 -4.085093,3.8835764 -6.638868,2.5780641 z"/></svg>