<svg xmlns="http://www.w3.org/2000/svg" width="24" height="24" viewBox="0 0 24 24"><path fill="black" d="M 6.9648438 0.013671875 C 6.4793484 0.03346108 6.0178172 0.20452136 5.3007812 0.5546875 C 3.2391585 1.5614868 2.0740304 3.8358841 2.6542969 5.7265625 C 2.927626 6.6171519 2.975066 6.9246043 2.6425781 7.1113281 C 2.6138038 7.1139114 2.5877363 7.1171875 2.5546875 7.1171875 C 2.3008206 7.1171875 2.0133468 7.2379893 1.7246094 7.4375 C 0.83062921 7.865123 0.13434258 8.9222134 0.0234375 9.9980469 C 0.023160711 9.9999882 0.023708031 10.001967 0.0234375 10.003906 C 0.018622837 10.051515 0.01419994 10.098871 0.01171875 10.146484 C 0.0099618017 10.176853 0.005859375 10.208637 0.005859375 10.238281 C 0.005859375 10.252161 0.0076958797 10.265415 0.0078125 10.279297 C 0.007350608 10.367648 0.011376234 10.455472 0.01953125 10.542969 C 0.030955698 10.733433 0.049400434 10.915608 0.078125 11.078125 L 0.15234375 11.724609 L 0.796875 11.730469 C 2.2353987 11.832949 6.7295756 11.877809 12 11.832031 C 17.270402 11.877792 21.76482 11.833156 23.203125 11.730469 L 23.847656 11.724609 L 23.921875 11.078125 C 23.950503 10.916288 23.968986 10.734487 23.980469 10.544922 C 23.98875 10.456787 23.992652 10.368302 23.992188 10.279297 C 23.992315 10.264816 23.994141 10.250807 23.994141 10.236328 C 23.994141 10.20601 23.988166 10.173652 23.986328 10.142578 C 23.983887 10.09693 23.981148 10.051502 23.976562 10.005859 C 23.976103 10.001286 23.97509 9.9967606 23.974609 9.9921875 C 23.861659 8.9175513 23.166754 7.861728 22.273438 7.4355469 C 21.985358 7.237027 21.698548 7.1171875 21.445312 7.1171875 C 21.412264 7.1171875 21.38619 7.1139102 21.357422 7.1113281 C 21.024346 6.9246394 21.070374 6.6173043 21.34375 5.7265625 C 21.924016 3.8358821 20.760844 1.5614878 18.699219 0.5546875 C 17.875177 0.15226461 17.387103 -0.012993664 16.814453 0.015625 C 16.461374 0.025918697 16.080552 0.10884733 15.570312 0.26171875 C 14.726537 0.51451952 13.571111 1.2712284 13.003906 1.9453125 L 12 3.1386719 L 10.996094 1.9453125 C 10.428889 1.2712278 9.2734621 0.51451977 8.4296875 0.26171875 C 7.9194472 0.10884717 7.5388594 0.025832329 7.1855469 0.015625 C 7.1823519 0.015465236 7.1789711 0.013819443 7.1757812 0.013671875 C 7.1047125 0.01038413 7.0342002 0.010844846 6.9648438 0.013671875 z M 7.3554688 2.3320312 C 7.4209412 2.3316046 7.486133 2.3336067 7.5527344 2.3378906 C 8.4477729 2.4401811 9.0850666 2.8339111 9.5195312 3.5664062 C 9.522723 3.5717875 9.5261269 3.5766135 9.5292969 3.5820312 C 9.5351695 3.5926975 9.5410224 3.602485 9.546875 3.6132812 C 9.5831248 3.6768191 9.6189691 3.7420744 9.6523438 3.8105469 C 9.7685135 4.0488844 9.866001 4.3175401 9.9492188 4.6171875 C 10.178019 5.4410395 10.365958 6.3397529 10.367188 6.6152344 C 10.36953 7.1412194 8.5875172 7.2541495 7.1386719 7.0273438 C 6.3972988 6.8993812 5.7457265 6.6821886 5.4765625 6.3847656 C 5.0010918 5.8593766 4.7939321 5.2937243 4.7871094 4.7558594 C 4.7883802 4.6908011 4.7886886 4.6254362 4.7949219 4.5605469 C 4.7956141 4.5533412 4.7961226 4.5462636 4.796875 4.5390625 C 4.8168267 4.3481126 4.8614175 4.1593487 4.921875 3.9765625 C 5.263781 3.0449932 6.2178704 2.3394448 7.3554688 2.3320312 z M 16.646484 2.3320312 C 17.786417 2.3394602 18.740326 3.0485166 19.080078 3.9824219 C 19.091979 4.0186775 19.102916 4.0550754 19.113281 4.0917969 C 19.127377 4.1377411 19.139301 4.1836041 19.150391 4.2304688 C 19.168305 4.3098676 19.182798 4.3901307 19.193359 4.4707031 C 19.19866 4.5147368 19.204457 4.5589489 19.207031 4.6035156 C 19.20976 4.637948 19.209602 4.67255 19.210938 4.7070312 C 19.216099 5.2588365 19.011079 5.841816 18.521484 6.3828125 C 18.240292 6.693527 17.544409 6.9177875 16.761719 7.0429688 C 15.331948 7.2494698 13.630521 7.1311987 13.632812 6.6171875 C 13.634042 6.3417057 13.821981 5.4410403 14.050781 4.6171875 C 14.133999 4.3175398 14.231484 4.0489584 14.347656 3.8105469 C 14.383124 3.7377597 14.422221 3.6687838 14.460938 3.6015625 C 14.466155 3.5925044 14.471285 3.5831765 14.476562 3.5742188 C 14.894241 2.8652067 15.49989 2.4705165 16.34375 2.3496094 C 16.445382 2.3394725 16.547371 2.3313854 16.646484 2.3320312 z M 1.3554688 14.529297 L 1.2402344 18.238281 C 1.1316342 21.733735 1.1801295 22.006302 2.1210938 22.947266 C 2.478747 23.304919 2.7573468 23.538333 3.1582031 23.691406 C 3.6329504 23.890306 4.3015839 23.94873 5.5898438 23.964844 C 5.6072162 23.965111 5.6191254 23.966546 5.6367188 23.966797 C 5.6445839 23.966887 5.6502912 23.966709 5.6582031 23.966797 C 5.9018216 23.969496 6.1895091 23.970114 6.4804688 23.970703 C 6.578255 23.970929 6.6544578 23.972656 6.7578125 23.972656 C 6.8146292 23.972688 6.8554484 23.972656 6.9140625 23.972656 C 9.4091537 23.97456 10.617785 24.009697 10.597656 23.972656 L 10.625 23.972656 L 10.625 14.529297 L 10.570312 14.529297 L 6.015625 14.529297 L 5.9609375 14.529297 L 1.4082031 14.529297 L 1.3554688 14.529297 z M 13.376953 14.529297 L 13.376953 23.972656 L 13.402344 23.972656 C 13.382215 24.009697 14.590854 23.97456 17.085938 23.972656 C 17.248594 23.972656 17.370469 23.971004 17.519531 23.970703 C 17.810482 23.970115 18.098201 23.969493 18.341797 23.966797 C 18.349708 23.966709 18.355417 23.966887 18.363281 23.966797 C 18.380913 23.966546 18.392747 23.965112 18.410156 23.964844 C 19.700016 23.94873 20.369077 23.89091 20.84375 23.691406 C 21.24336 23.538382 21.519917 23.304302 21.876953 22.947266 C 22.817917 22.006301 22.870319 21.735692 22.761719 18.240234 L 22.646484 14.529297 L 22.591797 14.529297 L 18.037109 14.529297 L 17.982422 14.529297 L 13.429688 14.529297 L 13.376953 14.529297 z"/></svg>