<svg xmlns="http://www.w3.org/2000/svg" width="24" height="24" viewBox="0 0 24 24"><path fill="black" d="m 23.988076,4.0407257 -4.020135,7.7588623 c -0.05567,0.147956 0.01528,0.313482 0.160804,0.375213 h 2.532686 c 0.154403,0.01365 0.265061,0.155051 0.241208,0.308211 0.0011,0.07406 -0.03389,0.144041 -0.0938,0.187607 L 12.19568,20.335677 c -0.100799,0.05243 -0.220819,0.05243 -0.321611,0 L 1.2073048,12.684018 c -0.1055339,-0.11322 -0.1055339,-0.288786 0,-0.402014 v 0 c 0.046769,-0.04879 0.1077235,-0.08162 0.1742059,-0.0938 h 2.3718807 c 0.162819,0 0.29481,-0.131994 0.29481,-0.29481 v 0 -0.0938 L 0.02806482,4.0407257 c -0.067899,-0.1444542 -0.0085,-0.3167117 0.1340046,-0.3886131 0.059633,-0.026948 0.127973,-0.026948 0.1876063,0 L 9.8907994,9.9101245 c 0.1746236,0.09447 0.3117316,0.2457635 0.3886126,0.4288145 l 1.46065,2.9213 c 0.06036,0.132342 0.219144,0.187311 0.34841,0.120604 0.05616,-0.02522 0.103024,-0.06739 0.134006,-0.120604 l 1.407047,-2.9079 c 0.09676,-0.169537 0.22939,-0.315887 0.388613,-0.4288145 l 9.541123,-6.2714119 c 0.140608,-0.066801 0.308733,-0.0067 0.375213,0.1340045 v 0 c 0.06062,0.069924 0.0809,0.1661763 0.0536,0.2546086 z"/></svg>