<svg xmlns="http://www.w3.org/2000/svg" width="24" height="24" viewBox="0 0 24 24"><path fill="black" d="m 2.1045459,12.559707 c -0.167167,0.167166 -0.324165,0.340229 -0.471565,0.518316 -0.0013,0.0018 -0.0029,0.0035 -0.0045,0.0054 -0.07285,0.08818 -0.142849,0.177788 -0.210833,0.268374 -0.05041,0.06731 -0.09836,0.136007 -0.146101,0.204539 -0.01794,0.02566 -0.03732,0.05057 -0.05484,0.07642 -0.0013,0.0019 -0.0023,0.0037 -0.0036,0.0054 -1.79443401,2.653373 -1.60730101,6.166088 0.622609,8.396004 0.07502,0.07502 0.15182,0.147676 0.229715,0.218025 l -0.0049,0.0049 c 2.56827,2.32311 6.628247,2.131417 9.2505601,-0.490897 l 4.056636,-4.056614 c 2.701631,-2.70163 2.823524,-6.929632 0.273319,-9.4798362 -0.07577,-0.07577 -0.152891,-0.148748 -0.231512,-0.219825 -0.516652,-0.436335 -1.281342,-0.404495 -1.759937,0.07327 -0.500954,0.501734 -0.508339,1.312213 -0.237358,1.597655 0.270989,0.2854386 0.331476,0.3341902 0.387495,0.3902072 1.530121,1.530122 1.389349,4.13456 -0.315575,5.839485 l -3.9721051,3.972103 c -1.704928,1.704928 -4.309361,1.845699 -5.839486,0.315576 -1.244808,-1.24481 -1.38281,-3.200115 -0.473361,-4.804203 0.06871,-0.121195 0.142764,-0.240662 0.22342,-0.357382 0.0013,-0.0019 0.0026,-0.004 0.004,-0.0059 0.08087,-0.116683 0.167502,-0.230832 0.260283,-0.342098 0.09414,-0.113248 0.194795,-0.223244 0.301188,-0.32996 0.0016,-0.0016 0.0029,-0.0037 0.0045,-0.0054 l 0.257145,-0.257121 c -0.388877,-1.088672 -0.471571,-2.270654 -0.25579,-3.425923 z m 6.527729,-6.2571062 c -2.701631,2.70163 -2.823524,6.9296322 -0.273319,9.4798372 0.07577,0.07577 0.152864,0.14877 0.231511,0.219824 0.516653,0.436334 1.281343,0.404496 1.7599381,-0.07327 0.50095,-0.501735 0.508339,-1.312212 0.237354,-1.597655 C 10.316777,14.045895 10.256287,13.997146 10.200268,13.941129 8.6701459,12.411006 8.8109189,9.8065688 10.515843,8.1016438 l 3.972111,-3.972111 c 1.704928,-1.704927 4.309361,-1.845697 5.839486,-0.315573 1.244808,1.244809 1.38281,3.200113 0.473361,4.804201 -0.06871,0.121196 -0.142764,0.240664 -0.22342,0.357383 -0.0013,0.002 -0.0026,0.0039 -0.004,0.0059 -0.08088,0.116674 -0.167502,0.230831 -0.260279,0.342097 -0.09415,0.113243 -0.194789,0.223252 -0.301188,0.329959 -0.0016,0.0016 -0.0029,0.0037 -0.0045,0.0054 l -0.257138,0.2571356 c 0.388877,1.0886686 0.471567,2.2706516 0.25579,3.4259186 l 1.889402,-1.889403 c 0.16717,-0.167167 0.324175,-0.340219 0.471564,-0.518316 0.0016,-0.0018 0.0029,-0.0036 0.0045,-0.0054 0.07284,-0.08818 0.142846,-0.177796 0.210836,-0.268374 0.05042,-0.0673 0.09836,-0.136006 0.146097,-0.20454 0.0179,-0.02568 0.0373,-0.05059 0.05485,-0.07642 0.0013,-0.002 0.0023,-0.0036 0.0036,-0.0054 1.794427,-2.6533792 1.607301,-6.1660882 -0.622609,-8.3960052 -0.07502,-0.07503 -0.15182,-0.147677 -0.229715,-0.218025 l 0.0049,-0.005 c -2.568309,-2.32313804 -6.628289,-2.13144304 -9.250602,0.490869 z"/></svg>