<svg xmlns="http://www.w3.org/2000/svg" width="24" height="24" viewBox="0 0 24 24"><path fill="black" d="M 1.8467972,20.226793 C 0.2212062,19.325797 0.0143012,18.412322 5.2420451e-4,12.07563 -0.0135658,5.5950825 0.2464512,4.4947995 1.9784972,3.7056265 3.4592075,3.0309695 20.800894,3.1030875 22.128116,3.7894165 23.758774,4.6326635 24,5.6910905 24,12.002737 c 0,6.311645 -0.241226,7.370073 -1.871884,8.213319 -1.401627,0.724811 -18.9761872,0.734111 -20.2813188,0.01073 z M 17.451173,16.368627 V 15.277155 H 11.993816 6.5364601 v 1.091472 1.091471 h 5.4573559 5.457357 z M 4.3535179,12.002742 c 0,-0.970197 -0.1212745,-1.091472 -1.0914716,-1.091472 -0.9701968,0 -1.0914713,0.121275 -1.0914713,1.091472 0,0.970196 0.1212745,1.091471 1.0914713,1.091471 0.9701971,0 1.0914716,-0.121275 1.0914716,-1.091471 z m 4.3658847,0 c 0,-0.970197 -0.1212734,-1.091472 -1.0914713,-1.091472 -0.9701968,0 -1.0914712,0.121275 -1.0914712,1.091472 0,0.970196 0.1212744,1.091471 1.0914712,1.091471 0.9701979,0 1.0914713,-0.121275 1.0914713,-1.091471 z m 4.3658854,0 c 0,-0.970197 -0.121274,-1.091472 -1.091472,-1.091472 -0.970197,0 -1.091471,0.121275 -1.091471,1.091472 0,0.970196 0.121274,1.091471 1.091471,1.091471 0.970198,0 1.091472,-0.121275 1.091472,-1.091471 z m 4.365885,0 c 0,-0.970197 -0.121274,-1.091472 -1.091471,-1.091472 -0.970198,0 -1.091472,0.121275 -1.091472,1.091472 0,0.970196 0.121274,1.091471 1.091472,1.091471 0.970197,0 1.091471,-0.121275 1.091471,-1.091471 z m 4.365885,0 c 0,-0.970197 -0.121274,-1.091472 -1.091471,-1.091472 -0.970198,0 -1.091472,0.121275 -1.091472,1.091472 0,0.970196 0.121274,1.091471 1.091472,1.091471 0.970197,0 1.091471,-0.121275 1.091471,-1.091471 z M 4.3535179,7.6368566 c 0,-0.9701971 -0.1212745,-1.0914711 -1.0914716,-1.0914711 -0.9701968,0 -1.0914713,0.121274 -1.0914713,1.0914711 0,0.9701968 0.1212745,1.0914713 1.0914713,1.0914713 0.9701971,0 1.0914716,-0.1212745 1.0914716,-1.0914713 z m 4.3658847,0 c 0,-0.9701971 -0.1212734,-1.0914711 -1.0914713,-1.0914711 -0.9701968,0 -1.0914712,0.121274 -1.0914712,1.0914711 0,0.9701968 0.1212744,1.0914713 1.0914712,1.0914713 0.9701979,0 1.0914713,-0.1212745 1.0914713,-1.0914713 z m 4.3658854,0 c 0,-0.9701971 -0.121274,-1.0914711 -1.091472,-1.0914711 -0.970197,0 -1.091471,0.121274 -1.091471,1.0914711 0,0.9701968 0.121274,1.0914713 1.091471,1.0914713 0.970198,0 1.091472,-0.1212745 1.091472,-1.0914713 z m 4.365885,0 c 0,-0.9701971 -0.121274,-1.0914711 -1.091471,-1.0914711 -0.970198,0 -1.091472,0.121274 -1.091472,1.0914711 0,0.9701968 0.121274,1.0914713 1.091472,1.0914713 0.970197,0 1.091471,-0.1212745 1.091471,-1.0914713 z m 4.365885,0 c 0,-0.9701971 -0.121274,-1.0914711 -1.091471,-1.0914711 -0.970198,0 -1.091472,0.121274 -1.091472,1.0914711 0,0.9701968 0.121274,1.0914713 1.091472,1.0914713 0.970197,0 1.091471,-0.1212745 1.091471,-1.0914713 z"/></svg>