<svg xmlns="http://www.w3.org/2000/svg" width="24" height="24" viewBox="0 0 24 24"><path fill="black" d="m 6.375,0.75 c -0.3886406,0 -0.703125,0.3144844 -0.703125,0.703125 v 14.0625 c 0,0.388641 0.3144844,0.703125 0.703125,0.703125 3.252375,0 4.608656,1.798453 4.921875,2.296875 V 2.3886719 C 10.323656,1.5753438 8.760938,0.75 6.375,0.75 Z M 3.5625,2.15625 c -0.3886406,0 -0.703125,0.3144844 -0.703125,0.703125 v 15.46875 c 0,0.388641 0.3144844,0.703125 0.703125,0.703125 H 9.929688 C 9.535891,18.553922 8.503875,17.625 6.375,17.625 5.2118437,17.625 4.265625,16.678781 4.265625,15.515625 V 2.15625 Z m 11.25,0 c -0.794437,0 -1.519969,0.2745469 -2.109375,0.7207031 V 19.734375 c 0,-0.387938 0.315188,-0.703125 0.703125,-0.703125 h 7.03125 c 0.388641,0 0.703125,-0.314484 0.703125,-0.703125 V 2.859375 c 0,-0.3886406 -0.314484,-0.703125 -0.703125,-0.703125 z M 0.703125,3.5625 C 0.3144844,3.5625 0,3.8769844 0,4.265625 v 16.875 c 0,0.388641 0.3144844,0.703125 0.703125,0.703125 H 8.605469 C 8.895906,22.662234 9.677063,23.25 10.59375,23.25 h 2.8125 c 0.916687,0 1.697797,-0.587766 1.988281,-1.40625 h 7.902344 C 23.685516,21.84375 24,21.529266 24,21.140625 v -16.875 C 24,3.8769844 23.685516,3.5625 23.296875,3.5625 H 22.59375 v 14.765625 c 0,1.163156 -0.993094,2.109375 -2.15625,2.109375 H 13.988281 C 13.697844,21.255984 12.916688,21.84375 12,21.84375 c -0.916687,0 -1.697797,-0.587766 -1.988281,-1.40625 H 3.5625 c -1.1631562,0 -2.15625,-0.946219 -2.15625,-2.109375 V 3.5625 Z"/></svg>