<svg xmlns="http://www.w3.org/2000/svg" width="24" height="24" viewBox="0 0 24 24"><path fill="black" d="m 4.1262045,22.708789 c 1.26575,0.151162 2.68792,0.971123 3.8781,1.115885 1.19657,0.151086 1.56685,-0.814856 1.56685,-0.814856 0,0 1.3465105,-0.301029 2.7621305,-0.335695 1.41699,-0.0397 2.75833,0.294704 2.75833,0.294704 0,0 0.26011,0.595733 0.74567,0.855847 0.48556,0.265143 1.53097,0.301029 2.20099,-0.404876 0.67131,-0.711009 2.4624,-1.606627 3.46811,-2.166475 1.01212,-0.561142 0.82636,-1.416913 0.19094,-1.677027 -0.63543,-0.260038 -1.15558,-0.670019 -1.11589,-1.456685 0.0346,-0.78019 -0.56114,-1.300343 -0.56114,-1.300343 0,0 0.52145,-1.716722 0.0359,-3.138817 -0.48556,-1.415618 -2.087,-3.6922652 -3.31817,-5.4038832 -1.23116,-1.716723 -0.18582,-3.698665 -1.30674,-6.231539 -1.12106,-2.53668497 -4.02796,-2.38674197 -5.5948105,-1.30552397 -1.56686,1.08129497 -1.08648,3.76274097 -1.0109,5.03496897 0.0756,1.265752 0.0346,2.171504 -0.11017,2.496989 -0.14476,0.330515 -1.15558,1.530971 -1.82689,2.5366852 -0.67002,1.010818 -1.15566,3.097827 -1.64633,3.958779 -0.48045,0.855847 -0.14476,1.636037 -0.14476,1.636037 0,0 -0.33562,0.115276 -0.60084,0.676495 -0.26011,0.554742 -0.78026,0.819885 -1.7168,1.000609 -0.93013,0.190857 -0.93013,0.790476 -0.7059,1.461789 0.22545,0.670019 0,1.045409 -0.26011,1.901257 -0.26004,0.855694 1.0416,1.115732 2.31245,1.265675 z M 17.283685,18.80502 c 0.66492,0.290819 1.62065,-0.114057 1.91147,-0.404876 0.2896,-0.289524 0.49455,-0.72 0.49455,-0.72 0,0 0.29082,0.144762 0.26133,0.604647 -0.0308,0.466362 0.19985,1.131276 0.63543,1.361905 0.43558,0.229333 1.1005,0.549561 0.75589,0.869866 -0.35109,0.320304 -2.29326,1.10179 -2.8736,1.711618 -0.57524,0.605942 -1.33113,1.10179 -1.79109,0.955733 -0.46499,-0.144762 -0.87116,-0.78019 -0.67124,-1.710323 0.20625,-0.926247 0.3805,-1.942247 0.35101,-2.522589 -0.0307,-0.580343 -0.14476,-1.361828 0,-1.477181 0.14477,-0.114057 0.37539,-0.05897 0.37539,-0.05897 0,0 -0.11542,1.100723 0.55086,1.39017 z M 12.968795,3.1263228 c 0.64053,0 1.15687,0.635428 1.15687,1.416914 0,0.554742 -0.26011,1.035199 -0.64061,1.265828 -0.0961,-0.0397 -0.19603,-0.08457 -0.30621,-0.130743 0.23063,-0.113981 0.39071,-0.4048 0.39071,-0.740495 0,-0.43939 -0.27025,-0.800685 -0.60983,-0.800685 -0.33051,0 -0.60602,0.361219 -0.60602,0.800685 0,0.160229 0.0398,0.320305 0.10507,0.445866 -0.19985,-0.08076 -0.3805,-0.149866 -0.52526,-0.204952 -0.0756,-0.190933 -0.12046,-0.406171 -0.12046,-0.635428 8e-5,-0.781485 0.51505,-1.41699 1.15574,-1.41699 z m -1.58613,2.441904 c 0.31519,0.05509 1.18118,0.430476 1.50156,0.545752 0.3203,0.110171 0.67512,0.315123 0.64053,0.520152 -0.0397,0.211352 -0.20495,0.211352 -0.64053,0.476571 -0.43048,0.260114 -1.37082,0.840457 -1.67193,0.880152 -0.29981,0.03969 -0.47017,-0.129448 -0.79055,-0.335695 -0.3203,-0.210133 -0.9210605,-0.7008 -0.7699805,-0.960838 0,0 0.4701705,-0.359999 0.6752005,-0.544456 0.20503,-0.190934 0.73539,-0.64061 1.0557,-0.581638 z m -1.38111,-2.21638 c 0.50476,0 0.91604,0.600838 0.91604,1.341333 0,0.134552 -0.0154,0.260038 -0.0397,0.385599 -0.12556,0.0397 -0.25104,0.105067 -0.37158,0.210134 -0.0589,0.04998 -0.11405,0.09478 -0.16396,0.144761 0.0794,-0.149866 0.11017,-0.365104 0.0743,-0.590628 -0.0692,-0.399695 -0.33951,-0.695619 -0.6047305,-0.655923 -0.26651,0.04488 -0.42537,0.411276 -0.36129,0.816152 0.0705,0.40998 0.33562,0.705828 0.6059405,0.661028 0.0154,-0.0051 0.0295,-0.01021 0.0449,-0.01539 -0.1293705,0.125562 -0.2498305,0.235734 -0.3753905,0.32541 -0.36511,-0.170438 -0.63543,-0.680305 -0.63543,-1.281142 7e-5,-0.7456 0.40487,-1.341333 0.9109305,-1.341333 z M 7.1894445,13.045023 c 0.52015,-0.819885 0.85577,-2.612265 1.37592,-3.2079992 0.52533,-0.594437 0.93013,-1.861484 0.74568,-2.421332 0,0 1.1209905,1.341333 1.9012505,1.12099 0.78149,-0.225523 2.53798,-1.53097 2.79802,-1.306742 0.26011,0.225448 2.49699,5.1450642 2.72244,6.7119202 0.22552,1.565562 -0.14987,2.762208 -0.14987,2.762208 0,0 -0.85577,-0.225523 -0.96602,0.294629 -0.11017,0.525257 -0.11017,2.427808 -0.11017,2.427808 0,0 -1.15687,1.601447 -2.94796,1.86659 -1.79108,0.260114 -2.6879205,0.07048 -2.6879205,0.07048 l -1.00571,-1.151771 c 0,0 0.78156,-0.115276 0.67131,-0.900647 -0.11017,-0.78019 -2.38811,-1.861561 -2.79809,-2.832684 -0.40983,-0.971124 -0.0754,-2.612266 0.45112,-3.433446 z m -4.42895,5.875349 c 0.0897,-0.384304 1.25036,-0.384304 1.69623,-0.654628 0.44586,-0.270324 0.53546,-1.046704 0.89554,-1.251657 0.35482,-0.210133 1.01082,0.535543 1.28114,0.955657 0.26522,0.409981 1.28122,2.202361 1.6963,2.648151 0.42019,0.449676 0.80587,1.045409 0.68541,1.580952 -0.11398,0.535466 -0.7456,0.926247 -0.7456,0.926247 -0.56495,0.174247 -2.1408,-0.506057 -2.85691,-0.805867 -0.71611,-0.301028 -2.53798,-0.39078 -2.77242,-0.655923 -0.24083,-0.270324 0.11528,-0.866057 0.21006,-1.431085 0.0845,-0.571352 -0.18065,-0.926247 -0.0897,-1.311847 z"/></svg>