<svg xmlns="http://www.w3.org/2000/svg" width="24" height="24" viewBox="0 0 24 24"><path fill="black" d="M 4.3574219 0 L -0.001953125 7.5 L 23.966797 7.5 L 19.609375 0 L 4.3574219 0 z M -0.001953125 9 C -0.015449742 9.3262497 -0.001953125 10.07325 -0.001953125 10.5 C -0.001953125 11.298749 0.28466319 12.171751 0.74804688 12.75 L 0.77148438 21 C 0.77148438 22.656748 2.15521 24 3.8632812 24 L 20.101562 24 C 21.809634 24 23.242188 22.656748 23.242188 21 L 23.242188 12.75 C 23.767056 12.132001 23.992187 11.497499 23.992188 10.5 L 23.992188 9 L 0.017578125 9 L -0.001953125 9 z M 17.59375 11.570312 C 18.273829 12.695311 19.241189 13.5 20.242188 13.5 C 20.461882 13.5 21.550236 13.536 21.742188 13.5 L 21.742188 18 L 2.25 18 L 2.2480469 13.5 L 3.7207031 13.5 C 4.526001 13.5 5.8031356 12.78114 6.34375 11.681641 C 6.9503478 12.75039 8.0808808 13.5 9.1621094 13.5 C 10.304072 13.5 11.562527 12.82039 11.982422 11.837891 C 12.403066 12.79714 13.633234 13.5 14.751953 13.5 C 15.861675 13.5 17.011897 12.684811 17.59375 11.570312 z"/></svg>