<svg xmlns="http://www.w3.org/2000/svg" width="24" height="24" viewBox="0 0 24 24"><path fill="black" d="M 12.746113,20.388252 C 10.540714,19.684668 8.57313,17.998018 7.5909878,15.969184 6.9868967,14.721298 6.5803443,14.311664 5.9459376,14.311664 c -0.4634607,0 -1.0489454,-0.248561 -1.3010747,-0.552358 C 3.9176431,12.88306 4.8191319,12.1565 6.7915737,12.02915 8.3509193,11.928472 8.5113686,11.832225 8.5113686,10.997516 8.5113686,10.185338 8.3378995,10.06536 7.038414,9.978768 4.5640898,9.8138899 3.9083856,9.5644549 3.9083856,8.7880841 c 0,-0.8646508 0.7184557,-1.0674222 4.2347444,-1.1951803 2.479048,-0.090072 2.57767,-0.1288773 2.57767,-1.0142515 0,-0.8706568 -0.123157,-0.9264998 -2.2703134,-1.0294188 -2.5156617,-0.120582 -3.509523,-0.758048 -2.7009078,-1.732371 0.6606915,-0.796085 9.4156132,-0.778469 12.1191152,0.02439 4.208303,1.249731 6.888179,5.7560731 5.940746,9.9896525 -1.110756,4.963376 -6.341554,8.063726 -11.063327,6.557347 z m 4.799156,-4.425747 c 0.594108,-0.307226 1.331562,-1.04468 1.638787,-1.638788 1.600454,-3.094934 -0.460623,-6.6403488 -3.860272,-6.6403488 -3.397905,0 -5.4607616,3.5453458 -3.861877,6.6372468 1.047557,2.025753 3.868651,2.787161 6.083362,1.64189 z m -4.382418,-3.876439 c -0.0068,-1.173917 0.620524,-2.2053611 2.160933,-2.1932659 1.540408,0.012097 2.258388,0.7985969 2.209432,2.2094319 -0.04896,1.410835 -0.808423,2.224732 -2.209432,2.209432 -1.401009,-0.0153 -2.154148,-1.051682 -2.160933,-2.225598 z M 0.21066207,9.321961 C -0.44997653,8.5259406 0.55685787,7.5050004 1.6578915,7.8544552 2.567706,8.1432187 2.6969247,9.3454229 1.8529549,9.6692833 0.98404417,10.002717 0.73127417,9.9492592 0.21066207,9.321961 Z"/></svg>