<svg xmlns="http://www.w3.org/2000/svg" width="24" height="24" viewBox="0 0 24 24"><path fill="black" d="M 11.882812 0.001953125 C 11.858469 0.0029557157 11.83483 0.0080205468 11.810547 0.009765625 C 11.046701 0.064658557 10.323369 0.48563765 10.041016 1.2578125 C 9.7996137 1.7231499 9.330433 2.1789807 8.9589844 2.296875 C 8.5647414 2.4220019 7.6039377 3.1024015 6.8222656 3.8085938 C 5.2769595 5.2046854 4.2988281 7.6909572 4.2988281 10.224609 C 4.2988281 11.152973 3.9954167 12.051864 3.4257812 12.8125 C 3.0710045 13.286236 2.8008914 13.729273 2.5976562 14.146484 C 2.5865619 14.167773 2.5751065 14.187914 2.5644531 14.208984 C 2.5410019 14.258656 2.5173724 14.308548 2.4960938 14.357422 C 2.2835194 14.813078 2.1740009 15.218494 2.1816406 15.582031 C 2.1819404 15.596298 2.1809972 15.610856 2.1816406 15.625 C 2.1756526 15.870337 2.2059847 16.103587 2.2753906 16.322266 C 2.5091994 17.058932 4.5976228 18.042348 7.0429688 18.568359 C 7.7487022 18.720168 9.8626522 18.799287 12 18.773438 C 14.137348 18.799287 16.251298 18.720168 16.957031 18.568359 C 19.402377 18.042348 21.490801 17.058932 21.724609 16.322266 C 21.794015 16.103587 21.824347 15.870337 21.818359 15.625 C 21.819003 15.610856 21.81806 15.596298 21.818359 15.582031 C 21.825999 15.218494 21.716481 14.813078 21.503906 14.357422 C 21.482628 14.308548 21.458998 14.258656 21.435547 14.208984 C 21.424893 14.187914 21.413438 14.167773 21.402344 14.146484 C 21.199109 13.729273 20.928995 13.286236 20.574219 12.8125 C 20.004583 12.051864 19.701172 11.152973 19.701172 10.224609 C 19.701172 7.6909575 18.723041 5.2046854 17.177734 3.8085938 C 16.396062 3.1024015 15.435259 2.4220019 15.041016 2.296875 C 14.669568 2.1789807 14.200387 1.7231499 13.958984 1.2578125 C 13.676631 0.48563764 12.953299 0.064658558 12.189453 0.009765625 C 12.126305 0.0052275732 12.063411 0.0053704739 12 0.005859375 C 11.960973 0.0055584777 11.921773 0.00034849242 11.882812 0.001953125 z M 11.984375 20.746094 C 11.951187 20.746094 11.923581 20.747965 11.890625 20.748047 C 10.139928 20.752326 8.7226562 20.839339 8.7226562 20.947266 C 8.7226562 20.960494 8.7257259 20.976395 8.7265625 20.990234 C 8.7120271 21.000817 8.7026092 21.010579 8.703125 21.021484 C 8.7351485 21.699286 9.7638566 23.087726 10.560547 23.529297 C 11.16484 23.864233 11.563815 24.012651 12 23.992188 C 12.436185 24.012651 12.83516 23.864233 13.439453 23.529297 C 14.236143 23.087726 15.264851 21.699286 15.296875 21.021484 C 15.297388 21.010579 15.287975 21.000817 15.273438 20.990234 C 15.274274 20.976395 15.277344 20.960494 15.277344 20.947266 C 15.277344 20.839339 13.860072 20.752326 12.109375 20.748047 C 12.065469 20.74794 12.028692 20.746094 11.984375 20.746094 z"/></svg>