<svg xmlns="http://www.w3.org/2000/svg" width="24" height="24" viewBox="0 0 24 24"><path fill="black" d="m 11.57238,23.96031 c -0.9137,-0.18232 -1.613096,-0.889577 -1.789043,-1.80916 -0.02227,-0.116413 -0.0405,-0.249118 -0.0405,-0.294903 v -0.08325 h 2.258343 2.25835 v 0.08325 c 0,0.155658 -0.0807,0.50585 -0.16991,0.737128 -0.20895,0.541809 -0.69789,1.030614 -1.24004,1.239691 -0.4262,0.164361 -0.86973,0.208549 -1.2772,0.127244 z M 1.71,19.977555 v -0.56622 l 0.07861,-0.0965 c 0.04324,-0.05307 0.583525,-0.655657 1.200638,-1.339071 l 1.122024,-1.242572 v -3.41263 c 0,-2.868393 0.007,-3.479309 0.04391,-3.8307331 C 4.307736,8.0371331 4.843152,6.6741781 5.714078,5.5215104 6.001822,5.1406833 6.363066,4.7534264 6.767404,4.392339 7.486735,3.7499546 8.366541,3.2275365 9.285454,2.8971559 9.601901,2.7833809 9.773901,2.7324053 10.21855,2.6206178 l 0.11837,-0.02976 -0.0732,-0.2212838 c -0.103146,-0.3115968 -0.107914,-0.7817437 -0.0111,-1.0931774 0.17504,-0.56303819 0.64105,-1.02888567 1.20545,-1.20503067 0.30487,-0.09515062 0.78142,-0.09515062 1.08629,0 0.5644,0.176145 1.03041,0.64199248 1.20545,1.20503067 0.0968,0.3114337 0.0921,0.7815806 -0.0111,1.0931774 l -0.0732,0.2212838 0.11837,0.02976 c 0.44465,0.1117875 0.61665,0.1627631 0.93309,0.2765381 0.78493,0.28221 1.56511,0.7196381 2.24843,1.2606393 0.33105,0.262095 0.92572,0.8567737 1.18782,1.1878175 0.95941,1.2117971 1.53359,2.6164421 1.69402,4.1442162 0.0369,0.3514241 0.0439,0.9623401 0.0439,3.8307331 v 3.41263 l 1.12202,1.242572 c 0.61712,0.683414 1.15741,1.285997 1.20064,1.339071 l 0.0786,0.0965 v 0.56622 0.566223 H 12.00118 1.71 Z m 11.43465,-4.02193 V 14.85504 h -1.15776 -1.15776 v 1.100585 1.100585 h 1.15776 1.15776 z m 0,-6.8179097 V 5.6787337 h -1.15776 -1.15776 v 3.4589816 3.4589817 h 1.15776 1.15776 z"/></svg>