<svg xmlns="http://www.w3.org/2000/svg" width="24" height="24" viewBox="0 0 24 24"><path fill="black" d="M 11.999999,0 C 5.3725824,5.5228472e-7 0,5.3725834 0,12 c 0,6.627417 5.3725824,11.999999 11.999999,12 6.627417,0 12,-5.372583 12,-12 0,-6.627417 -5.372583,-12 -12,-12 z m 0,2.4 c 5.301934,0 9.6,4.2980664 9.6,9.6 0,5.301934 -4.298066,9.6 -9.6,9.6 -5.301933,-1e-6 -9.5999986,-4.298067 -9.5999986,-9.6 0,-5.301933 4.2980656,-9.5999992 9.5999986,-9.6 z m -1.2,3.6 v 2.4 h 2.4 V 6 Z m -0.6,4.189831 v 2.4 h 0.6 V 14.4 H 8.9999994 v 2.4 h 1.7999996 2.4 1.8 v -2.4 h -1.8 v -1.810169 -2.4 h -2.4 z"/></svg>