<svg xmlns="http://www.w3.org/2000/svg" width="24" height="24" viewBox="0 0 24 24"><path fill="black" d="m 0.37614669,23.954702 c -0.05887,-0.02433 -0.162185,-0.103585 -0.229583,-0.176117 -0.251464,-0.270621 -0.233348,-0.355593 0.487463,-2.286362 0.36785801,-0.985345 0.68611801,-1.834795 0.70724601,-1.887668 0.03258,-0.08153 0.09632,-0.04044 0.419738,0.270623 0.870466,0.837211 2.138004,1.530388 3.59257,1.964667 0.264928,0.0791 0.517814,0.155779 0.561969,0.170403 0.09991,0.03309 -5.11438501,1.991191 -5.29855901,1.989745 -0.07359,-5.77e-4 -0.181971,-0.02096 -0.240844,-0.04529 z M 7.7620167,21.06328 c -1.933685,-0.349085 -3.263223,-0.817398 -4.335184,-1.527014 -0.571841,-0.378547 -0.928787,-0.700978 -1.249004,-1.128228 l -0.265562,-0.354328 0.121854,-0.326304 c 0.06702,-0.179467 0.320817,-0.863155 0.563994,-1.519307 l 0.442141,-1.193002 0.594694,0.580722 c 0.327082,0.319397 0.751243,0.702091 0.94258,0.850432 1.746505,1.354038 4.253846,2.543632 6.7436213,3.199472 0.580532,0.15292 0.651314,0.183128 0.535208,0.228406 -0.430906,0.168043 -3.5226013,1.296249 -3.5391703,1.291496 -0.01098,-0.0031 -0.260807,-0.0492 -0.555172,-0.102345 z M 13.610513,18.789834 C 9.6129587,18.245198 5.4651777,16.150436 3.7043647,13.786914 l -0.142704,-0.191552 0.820608,-2.21499 c 0.451334,-1.218245 0.89857,-2.4006761 0.993855,-2.6276251 0.190804,-0.454448 0.399367,-0.678572 0.80431,-0.864318 0.366776,-0.168239 1.108545,-0.148606 1.715385,0.0454 0.985533,0.315079 2.2056383,1.025829 3.4008413,1.981097 0.743649,0.5943631 2.158056,2.0151281 2.768313,2.7807551 0.99118,1.243534 1.714971,2.463489 2.030205,3.421928 0.09688,0.294561 0.123126,0.494036 0.123126,0.935877 0,0.521637 -0.0112,0.581734 -0.157694,0.845972 -0.217607,0.392516 -0.415394,0.548366 -0.985038,0.776184 -0.541547,0.216579 -0.650941,0.225105 -1.465059,0.114188 z m 1.285827,-1.426167 c 0.173187,-0.173051 -0.02321,-1.00642 -0.419676,-1.780841 -0.52518,-1.025829 -1.361405,-2.129963 -2.485736,-3.282118 -1.456225,-1.49226 -2.8563973,-2.5215951 -4.1324243,-3.0379441 -0.522061,-0.211254 -1.081254,-0.29301 -1.219573,-0.178306 -0.212523,0.17624 -0.02899,0.9811871 0.420839,1.8457201 1.342127,2.579459 4.5832293,5.593404 6.8416293,6.362126 0.417794,0.14221 0.890132,0.176089 0.994941,0.07136 z M 18.47,16.220751 c -0.120499,-0.120405 -0.120499,-0.995009 0,-1.115413 0.06981,-0.06975 0.237484,-0.08404 0.986312,-0.08404 1.107406,0 1.070416,-0.02218 1.070416,0.641744 0,0.663921 0.03699,0.641745 -1.070416,0.641745 -0.748828,0 -0.916506,-0.01429 -0.986312,-0.08404 z m -2.49254,-2.51831 c -0.676594,-0.132563 -0.73677,-0.264556 -0.529432,-1.161281 0.205209,-0.88752 0.577802,-1.479728 1.097996,-1.745183 0.211085,-0.107716 0.337785,-0.132836 0.662415,-0.131329 0.445349,0.0021 0.716502,0.111196 1.284499,0.51696 l 0.294364,0.210287 0.03866,-0.471513 c 0.07137,-0.870436 0.242805,-1.2844431 0.644983,-1.5576371 0.667643,-0.453522 1.236727,-0.379555 2.184298,0.283904 l 0.415958,0.29124 0.08064,-0.252557 c 0.04435,-0.138907 0.1087,-0.39695 0.143,-0.57343 0.110786,-0.570016 0.258473,-0.636987 1.049385,-0.475857 0.710651,0.144779 0.768633,0.280157 0.527262,1.231072 -0.2394,0.9431491 -0.542405,1.3961381 -1.125859,1.6831451 -0.307871,0.151445 -0.382302,0.167063 -0.681718,0.143048 -0.37223,-0.02986 -0.637963,-0.145775 -1.151721,-0.502409 -0.185388,-0.128691 -0.344403,-0.233983 -0.353366,-0.233983 -0.009,0 -0.03213,0.225042 -0.05148,0.500093 -0.06696,0.951848 -0.27828,1.355065 -0.860182,1.641309 -0.317497,0.156181 -0.385244,0.170127 -0.712404,0.146661 -0.4147,-0.02975 -0.650737,-0.13471 -1.253538,-0.557452 l -0.410309,-0.287747 -0.0813,0.254554 c -0.04471,0.140005 -0.109362,0.398947 -0.143661,0.575427 -0.110741,0.569785 -0.252587,0.632535 -1.06849,0.472678 z M 14.638726,9.5324389 c -0.392933,-0.260219 -0.534494,-0.393922 -0.534494,-0.504825 0,-0.135867 0.681973,-0.994172 1.29636,-1.631548 1.99751,-2.072256 4.468293,-3.38698 6.882939,-3.66247 0.787359,-0.08983 0.812196,-0.07159 0.812196,0.596431 0,0.336453 -0.02174,0.490925 -0.07685,0.54599 -0.04374,0.04371 -0.24549,0.09292 -0.468307,0.114221 -2.009241,0.192124 -4.147838,1.28246 -5.967847,3.04263 -0.329426,0.318595 -0.750902,0.774859 -0.936614,1.01392 -0.414667,0.533786 -0.553161,0.68012 -0.643685,0.68012 -0.03853,0 -0.202191,-0.08751 -0.363698,-0.194469 z m -4.159123,-0.995433 c -0.113193,-0.122797 -0.282389,-0.801537 -0.282389,-1.13282 0,-0.239266 0.174695,-0.381096 0.561968,-0.456247 0.176619,-0.03427 0.434865,-0.09857 0.573881,-0.142887 l 0.252756,-0.08057 -0.291469,-0.415631 c -0.663981,-0.946826 -0.738006,-1.515463 -0.284128,-2.18258 0.273409,-0.401862 0.687742,-0.573158 1.558863,-0.644476 l 0.471884,-0.03863 -0.210453,-0.294132 c -0.406082,-0.567551 -0.515297,-0.838491 -0.517366,-1.283489 -0.0015,-0.324374 0.02363,-0.450974 0.131433,-0.661894 0.265663,-0.51978503 0.858337,-0.89208503 1.746556,-1.09713303 0.911968,-0.21053 1.029347,-0.152679 1.166714,0.575033 0.04642,0.245909 0.0844,0.51245003 0.0844,0.59231303 0,0.2102 -0.193137,0.357748 -0.561968,0.42932 -0.176619,0.03427 -0.435764,0.09887 -0.57588,0.143551 l -0.254754,0.08124 0.295008,0.418288 c 0.162255,0.230059 0.354933,0.546913 0.428174,0.704119 0.324936,0.697448 0.03952,1.560452 -0.62254,1.882326 -0.292082,0.142002 -0.83205,0.24555 -1.290418,0.24746 -0.139823,5.83e-4 -0.254224,0.01194 -0.254224,0.02524 0,0.0133 0.105375,0.175739 0.234167,0.360981 0.354389,0.50972 0.472981,0.779573 0.502146,1.14261 0.02229,0.277482 0.0037,0.377999 -0.121401,0.656552 -0.268489,0.597803 -0.731134,0.910796 -1.714834,1.160135 -0.658894,0.167011 -0.880369,0.169457 -1.026126,0.01133 z M 7.7658397,3.8136899 c -0.124628,-0.124529 -0.124628,-1.846542 0,-1.971072 0.1205,-0.120404 0.995792,-0.120404 1.116291,0 0.124628,0.12453 0.124628,1.846543 0,1.971072 -0.120499,0.120405 -0.995791,0.120405 -1.116291,0 z M 20.270958,2.0111649 c -0.183962,-0.185466 -0.332959,-0.383258 -0.332959,-0.442002 0,-0.135512 1.275548,-1.41494403 1.41065,-1.41494403 0.128219,0 0.783703,0.656285 0.783703,0.784662 0,0.13732103 -1.282064,1.40796503 -1.42062,1.40796503 -0.06126,0 -0.251593,-0.144954 -0.440774,-0.335681 z"/></svg>