<svg xmlns="http://www.w3.org/2000/svg" width="24" height="24" viewBox="0 0 24 24"><path fill="black" d="M 9.1518213,22.71712 C 6.7923483,21.128158 4.7924663,18.828028 3.6299503,16.366236 2.0783183,13.080432 1.4410633,7.59899 2.3986723,5.775205 3.0469473,4.540551 10.595173,0 11.99939,0 c 1.404217,0 8.952443,4.540551 9.600718,5.775205 0.961931,1.832017 0.31946,7.307167 -1.246583,10.623381 C 18.679783,19.942864 14.200806,24 11.96175,24 11.464021,24 10.199553,23.422704 9.1518213,22.71712 Z M 14.95435,18.49333 c 1.487025,-1.487025 2.384791,-2.780041 2.913984,-4.196891 l 0.683761,-2.154793 H 15.327647 12.022132 L 11.917497,7.580179 11.812861,3.12588 8.5603353,5.075893 l -3.252526,1.950013 -0.01172,2.518135 -0.01172,2.597605 h 3.357512 3.3575127 l -1.02e-4,4.210685 c -6e-6,0.275421 0,4.290156 0,4.290156 0.221596,0 1.773026,-0.967121 2.955062,-2.149157 z"/></svg>