<svg xmlns="http://www.w3.org/2000/svg" width="24" height="24" viewBox="0 0 24 24"><path fill="black" d="M 11.980469 0 C 10.112874 0 2.6852965 4.5981838 2.3417969 5.9667969 C 2.3409264 5.9702652 2.3407062 5.9768952 2.3398438 5.9804688 C 2.3225135 6.0522785 2.3069909 6.1425017 2.2929688 6.2539062 C 2.2924619 6.2578787 2.2915181 6.2596505 2.2910156 6.2636719 C 2.2499731 6.5921602 2.2253973 7.0952259 2.2148438 7.6777344 C 2.214195 7.7125105 2.2114737 7.7360829 2.2109375 7.7714844 C 2.2109025 7.773887 2.210972 7.7768914 2.2109375 7.7792969 C 2.1984283 8.6181212 2.2177383 9.6264038 2.2714844 10.605469 C 2.405616 13.048978 2.800546 14.8357 3.6972656 16.607422 C 4.3562695 18.012837 5.2452332 19.275913 6.3632812 20.410156 C 7.1121643 21.169887 7.9606628 21.875482 8.9199219 22.521484 C 9.2212255 22.724394 9.531408 22.917271 9.8359375 23.09375 C 9.8366981 23.094191 9.8371301 23.095263 9.8378906 23.095703 C 10.443268 23.457024 11.007569 23.735578 11.457031 23.882812 C 11.483203 23.891386 11.505872 23.898583 11.53125 23.90625 C 11.706304 23.963856 11.856552 24 11.957031 24 C 11.969861 24 11.986666 23.996618 12 23.996094 C 12.013334 23.996618 12.030139 24 12.042969 24 C 12.143448 24 12.293696 23.963856 12.46875 23.90625 C 12.494128 23.898583 12.516797 23.891386 12.542969 23.882812 C 12.992431 23.735578 13.556732 23.457024 14.162109 23.095703 C 14.16287 23.095263 14.163302 23.094191 14.164062 23.09375 C 14.468592 22.917271 14.778774 22.724394 15.080078 22.521484 C 16.039337 21.875482 16.887836 21.169887 17.636719 20.410156 C 18.754767 19.275913 19.64373 18.012837 20.302734 16.607422 C 21.199454 14.8357 21.594384 13.048978 21.728516 10.605469 C 21.782262 9.6264038 21.801572 8.6181212 21.789062 7.7792969 C 21.789027 7.7768899 21.789099 7.7738885 21.789062 7.7714844 C 21.789041 7.7699997 21.789084 7.7690618 21.789062 7.7675781 C 21.788541 7.7333988 21.785783 7.7113297 21.785156 7.6777344 C 21.774603 7.0952259 21.750027 6.5921602 21.708984 6.2636719 C 21.708482 6.2596505 21.707538 6.2578787 21.707031 6.2539062 C 21.701124 6.2069722 21.693999 6.1788599 21.6875 6.1386719 C 21.678496 6.0841928 21.670288 6.0208313 21.660156 5.9804688 C 21.659294 5.9768952 21.659074 5.9702652 21.658203 5.9667969 C 21.314703 4.5981838 13.887126 0 12.019531 0 C 12.013604 1.8919663e-18 12.006041 0.0018589704 12 0.001953125 C 11.993959 0.0018589704 11.986396 1.8919663e-18 11.980469 0 z M 12.019531 3.4609375 L 12.019531 7.6210938 L 12.019531 11.78125 L 18.328125 11.78125 C 18.328125 12.771967 17.076768 16.061331 14.863281 18.300781 C 13.894055 19.281376 12.673472 19.777958 12.019531 20.072266 L 12.019531 11.78125 L 5.2617188 11.78125 C 5.2617188 11.78125 5.2363281 10.48143 5.2363281 8.9042969 C 5.2363281 7.5742376 5.491915 7.2451558 7.5273438 5.9511719 C 8.8313473 5.1219007 10.368183 4.0715149 12.019531 3.4609375 z"/></svg>