<svg xmlns="http://www.w3.org/2000/svg" width="24" height="24" viewBox="0 0 24 24"><path fill="black" d="m 0.25971638,23.740007 c -0.39884934,-0.398849 -0.34026517,-1.967348 0.18927271,-5.067491 l 0.4650226,-2.722443 5.40939981,-5.480529 c 2.97517,-3.0142911 5.7021335,-5.4805291 6.0599205,-5.4805291 0.833241,0 6.627377,5.8116901 6.627377,6.6474551 0,0.346743 -2.466238,3.064672 -5.480529,6.039842 l -5.4805292,5.4094 -2.7224427,0.465023 c -3.100143,0.529537 -4.66864281,0.588122 -5.06749172,0.189272 z M 17.690349,7.1605449 c -3.945559,-3.805892 -4.029109,-4.008863 -2.359365,-5.731602 2.069904,-2.13559899 3.275919,-1.93959299 6.227654,1.012143 2.936253,2.936252 3.144347,4.161039 1.051597,6.189413 -0.750185,0.727107 -1.512808,1.322014 -1.694717,1.322014 -0.181909,0 -1.633236,-1.256386 -3.225169,-2.791968 z"/></svg>