<svg xmlns="http://www.w3.org/2000/svg" width="24" height="24" viewBox="0 0 24 24"><path fill="black" d="M 5.0605469 7.1328125 C 4.9790039 7.1308025 4.895022 7.1523776 4.765625 7.1972656 C 4.43591 7.3116444 4.125 7.6958506 4.125 7.9902344 C 4.125 8.2656373 4.3310192 8.602969 4.5976562 8.765625 C 4.8877192 8.942572 5.1095311 8.951398 5.4082031 8.796875 C 5.6731351 8.659808 5.9257812 8.2781688 5.9257812 8.0136719 C 5.9257812 7.7191148 5.649653 7.3402707 5.3417969 7.2109375 C 5.2202051 7.1598555 5.1420908 7.1348254 5.0605469 7.1328125 z M 0 9 L 0 18 C 0 19.662 1.338 21 3 21 L 21 21 C 22.662 21 24 19.662 24 18 L 24 9 L 8 9 L 8 9.0019531 C 8 10.965554 7.99034 11.128306 7.8496094 11.404297 C 7.7524094 11.59491 7.5928657 11.754321 7.4023438 11.851562 C 7.1258157 11.992707 6.966522 12.003098 4.984375 12 C 3.02032 11.99693 2.8416143 11.984772 2.5820312 11.847656 C 2.4106555 11.757132 2.2425666 11.585062 2.1503906 11.404297 C 2.0098886 11.128758 2 10.964708 2 9.0019531 L 2 9 L 0 9 z M 5 9.3457031 C 4.003785 9.3457031 3.1992188 9.7585065 3.1992188 10.269531 L 3.1992188 10.501953 L 5 10.501953 L 6.8007812 10.501953 L 6.8007812 10.269531 C 6.8007812 9.7585065 5.996215 9.3457031 5 9.3457031 z M 11.5 11 L 20.5 11 C 20.777 11 21 11.223 21 11.5 L 21 12.5 C 21 12.777 20.777 13 20.5 13 L 11.5 13 C 11.223 13 11 12.777 11 12.5 L 11 11.5 C 11 11.223 11.223 11 11.5 11 z M 13.400391 14 L 20.599609 14 C 20.821209 14 21 14.223 21 14.5 L 21 15.5 C 21 15.777 20.821209 16 20.599609 16 L 13.400391 16 C 13.178791 16 13 15.777 13 15.5 L 13 14.5 C 13 14.223 13.178791 14 13.400391 14 z M 11.5 17 L 20.5 17 C 20.777 17 21 17.223 21 17.5 L 21 18.5 C 21 18.777 20.777 19 20.5 19 L 11.5 19 C 11.223 19 11 18.777 11 18.5 L 11 17.5 C 11 17.223 11.223 17 11.5 17 z"/><path fill="black" opacity=".5" d="M 3,3 C 1.338,3 0,4.338 0,6 V 9 H 2 C 2.0000086,7.0387279 2.0097206,6.8735321 2.1503906,6.5976562 2.2475906,6.4070436 2.4071353,6.2476339 2.5976562,6.1503906 2.8735162,6.0095902 3.03734,6 5,6 6.962659,6 7.1264848,6.00959 7.4023438,6.1503906 7.5928658,6.2476336 7.7524124,6.4070436 7.8496094,6.5976562 7.9902834,6.8735321 7.9999914,7.0387279 8,9 H 24 V 6 C 24,4.338 22.662,3 21,3 Z"/></svg>