<svg xmlns="http://www.w3.org/2000/svg" width="24" height="24" viewBox="0 0 24 24"><path d="M 2.6660156 0 C 1.1932556 0 0 1.1932556 0 2.6660156 L 0 21.333984 C 0 22.813984 1.1993486 24 2.6660156 24 L 21.333984 24 C 22.813984 24 24 22.813984 24 21.333984 L 24 16 L 21.333984 18.699219 L 21.333984 21.333984 L 2.6660156 21.333984 L 2.6660156 2.6660156 L 21.333984 2.6660156 L 21.333984 5.3007812 L 24 8 L 24 2.6660156 C 24 1.1932566 22.806744 0 21.333984 0 L 2.6660156 0 z M 17.333984 5.3339844 L 15.439453 7.2128906 L 18.892578 10.666016 L 6 10.666016 L 6 13.333984 L 18.892578 13.333984 L 15.439453 16.773438 L 17.333984 18.666016 L 24 12 L 17.333984 5.3339844 z"/></svg>