<svg xmlns="http://www.w3.org/2000/svg" width="24" height="24" viewBox="0 0 24 24"><path fill="black" d="m 15.238863,15.278476 c 0.02831,-5.11056 0.07406,-6.5708528 4.380569,-6.5708528 4.306511,0 4.380568,0.1110861 4.380568,6.5708528 0,6.459766 -0.07406,6.570853 -4.380568,6.570853 -5.185023,0.185601 -4.408877,-1.460293 -4.380569,-6.570853 z m 6.388329,-3.285427 c 0,-0.843818 -0.142111,-0.99278 -1.920581,-1.023099 -1.529407,-0.02607 -1.886667,0.09888 -1.962468,0.924602 -0.0758,0.825721 -0.04605,1.237135 1.962468,1.121596 1.775793,-0.102151 1.920581,-0.179281 1.920581,-1.023099 z M 0.27905044,20.215207 c -0.372067,-0.448314 -0.372067,-0.664012 0,-1.112325 C 0.66506443,18.637763 1.7330914,18.563065 6.8033393,18.646573 L 12.866,18.746423 v 1.883773 l -6.0626607,0.04131 c -0.00683,0.01033 -6.03583585,-0.0351 -6.52428886,-0.456308 z M 2.3501154,16.139846 c 0,0 0.034492,-10.8262813 0.5051092,-11.8591736 0.8122297,-1.78265 1.5037607,-2.1439025 9.0982114,-2.1439025 7.728854,0 9.513919,-0.00571 9.998781,1.7939887 0.711475,2.6408296 0.985274,2.6693635 -3.069551,2.5865803 C 16.052721,6.4595628 14.45805,7.1077753 13.698233,8.4376159 13.441311,8.8872842 12.9664,10.696377 12.931506,12.606071 L 12.866,16.191094 c -3.4898178,0.0371 -10.5158846,-0.05125 -10.5158846,-0.05125 z"/></svg>