<svg xmlns="http://www.w3.org/2000/svg" width="24" height="24" viewBox="0 0 24 24"><path fill="black" d="M 21.2856,9.6 H 24 v 4.8 H 21.2868 C 20.9976,15.5172 20.52,16.5576 19.878,17.4768 L 21.6,19.2 19.2,21.6 17.478,19.8768 c -0.9216,0.642 -1.9596,1.1208 -3.078,1.4088 V 24 H 9.6 V 21.2856 C 8.4828,20.9976 7.4436,20.5188 6.5232,19.8768 L 4.8,21.6 2.4,19.2 4.1232,17.4768 C 3.4812,16.5588 3.0024,15.5184 2.7144,14.4 H 0 V 9.6 H 2.7144 C 3.0024,8.4816 3.48,7.4424 4.1232,6.5232 L 2.4,4.8 4.8,2.4 6.5232,4.1232 C 7.4424,3.48 8.4816,3.0024 9.6,2.7144 V 0 h 4.8 v 2.7132 c 1.1184,0.2892 2.1564,0.7668 3.078,1.4088 l 1.722,-1.7232 2.4,2.4 -1.7232,1.7244 c 0.642,0.9192 1.1208,1.9596 1.4088,3.0768 z M 12,16.8 c 2.65092,0 4.8,-2.14908 4.8,-4.8 0,-2.650968 -2.14908,-4.8 -4.8,-4.8 -2.650968,0 -4.8,2.149032 -4.8,4.8 0,2.65092 2.149032,4.8 4.8,4.8 z"/></svg>