<svg xmlns="http://www.w3.org/2000/svg" width="24" height="24" viewBox="0 0 24 24"><path fill="black" d="m 3.9862832,19.447726 c -0.591417,-0.238642 -0.493997,-1.251208 0.396084,-4.116824 0.438267,-1.411 0.799015,-2.666102 0.801661,-2.789116 0.0027,-0.123014 -1.149642,-1.050202 -2.560642,-2.060417 -3.825696,-2.7390325 -3.56671198,-3.3978016 1.434358,-3.648536 L 7.2558524,6.672492 8.1599675,3.735302 c 1.3550752,-4.40221996 2.3231275,-4.40221996 3.6782025,0 l 0.904115,2.93719 3.198108,0.160341 c 5.003837,0.2508733 5.262346,0.9119698 1.434358,3.668142 -1.411,1.015928 -2.563289,1.941041 -2.560642,2.055807 0.0027,0.114767 0.363394,1.36312 0.801661,2.77412 0.928437,2.989105 0.989293,3.866091 0.286974,4.135596 -0.605111,0.232203 -0.60964,0.229734 -3.574941,-1.948495 l -2.321153,-1.705056 -2.6260421,1.92358 c -1.4443237,1.05797 -2.7209087,1.778042 -2.8219517,1.764117 -0.101043,-0.01392 -0.351904,0.03604 -0.572373,-0.05292 z"/></svg>