<svg xmlns="http://www.w3.org/2000/svg" width="24" height="24" viewBox="0 0 24 24"><path fill="black" d="M 4.78354,23.337271 C 4.0738396,23.050901 4.1907436,21.835821 5.2588408,18.397082 5.7847612,16.703882 6.2176588,15.19776 6.220834,15.050143 6.224074,14.902526 4.8412636,13.789901 3.1480636,12.577643 -1.4427717,9.2908038 -1.1319909,8.5002809 4.8692932,8.1993996 L 8.7070231,8.0069904 9.7919612,4.4823623 c 1.6260898,-5.28266393 2.7877528,-5.28266393 4.4138428,0 l 1.084938,3.5246281 3.83773,0.1924092 c 6.004604,0.3010479 6.314815,1.0943638 1.721229,4.4017704 -1.6932,1.219113 -3.075946,2.329249 -3.07277,2.466968 0.0032,0.137721 0.436073,1.635744 0.961993,3.328944 1.114125,3.586926 1.187152,4.639309 0.344369,4.962715 -0.726133,0.278644 -0.731568,0.275681 -4.289929,-2.338194 L 12.00798,18.975536 8.8567297,21.283832 c -1.7331885,1.269564 -3.2650905,2.133651 -3.3863421,2.116941 -0.1212516,-0.0167 -0.4222848,0.04325 -0.6868476,-0.0635 z"/></svg>