<svg xmlns="http://www.w3.org/2000/svg" width="24" height="24" viewBox="0 0 20 20"><path fill="black" d="m 10.594544,16.90659 4.232455,2.586501 a 1.1756821,1.1756821 0 0 0 1.763523,-1.29325 L 15.41484,13.379544 a 1.1756821,1.1756821 0 0 1 0.352705,-1.175682 L 19.529727,8.9119528 A 1.1756821,1.1756821 0 0 0 18.824318,6.7957251 L 13.886453,6.3254523 A 1.0228434,1.0228434 0 0 1 12.945908,5.6200431 l -1.881091,-4.58516 a 1.2344662,1.2344662 0 0 0 -2.2337963,0 L 6.9499295,5.7376113 A 1.1756821,1.1756821 0 0 1 6.0093838,6.4430205 L 1.0715192,6.7957251 A 1.246223,1.246223 0 0 0 0.36610995,8.9119528 L 4.1282925,12.203862 a 1.0698707,1.0698707 0 0 1 0.3527047,1.175682 l -1.1756821,4.820297 a 1.1756821,1.1756821 0 0 0 1.7635231,1.29325 L 9.3012936,16.90659 a 1.2697366,1.2697366 0 0 1 1.2932504,0 z"/></svg>