<svg xmlns="http://www.w3.org/2000/svg" width="24" height="24" viewBox="0 0 24 24"><path fill="black" d="M 11.227437,7.5913776e-6 C 5.8008528,7.5913776e-6 2.9230543,0.13984759 2.2763692,0.43449759 0.45423604,1.2647166 0.28656524,2.1614446 0.30057434,10.977986 c 0.013755,8.655211 0.1434443,9.382027 1.84445386,10.324824 0.5780805,0.320405 2.2942086,0.485555 5.1301086,0.494126 l 4.2618392,0.01278 0.554472,-1.072027 c 1.104643,-2.136143 0.996104,-2.199429 -3.8181192,-2.199429 -5.1042134,0 -5.4478391,-0.240643 -3.624302,-2.543046 1.614228,-2.038129 2.362961,-2.38485 3.5171,-1.628629 0.50777,0.332704 1.039802,0.466734 1.182779,0.29818 0.142976,-0.168554 0.7940312,-1.001885 1.4461712,-1.851553 1.305018,-1.700302 2.742555,-2.055297 3.847227,-0.950626 0.549439,0.54944 0.634714,0.535854 1.137342,-0.181747 0.452094,-0.645455 0.909125,-0.775977 2.726923,-0.775977 1.20134,0 2.500672,0.169318 2.887373,0.376274 0.676954,0.362294 0.703562,0.214208 0.703562,-3.9814073 0,-7.34906211 0.07299,-7.2997201086224 -10.870067,-7.2997211086224 z M 5.4313928,3.0897156 c 0.209174,-9.48e-4 0.430423,0.05276 0.648896,0.169679 0.547503,0.293014 0.952625,0.293014 1.500128,0 0.873891,-0.467693 1.794757,0.07914 1.794757,1.066347 0,0.3309339 0.327146,0.8823086 0.7269902,1.2246661 0.399844,0.3423573 0.72699,0.7886766 0.72699,0.9925123 0,0.2038354 -0.327146,0.6508646 -0.72699,0.9932218 -0.3998442,0.3423575 -0.7269902,0.8930225 -0.7269902,1.2239564 0,0.9872065 -0.920866,1.5347508 -1.794757,1.0670569 -0.524204,-0.2805437 -0.962,-0.2884785 -1.453271,-0.025557 -0.386701,0.2069559 -0.762493,0.3762749 -0.835613,0.3762749 -0.353764,0 -1.005291,-0.9366688 -1.005291,-1.4454619 0,-0.3154291 -0.327146,-0.8539108 -0.72699,-1.1962683 C 3.1594072,7.1937856 2.8322612,6.7467564 2.8322612,6.542921 c 0,-0.2038357 0.327146,-0.650155 0.7269906,-0.9925122 0.399844,-0.3423576 0.72699,-0.8937323 0.72699,-1.2246662 0,-0.740405 0.517631,-1.233178 1.145151,-1.236026 z M 19.989658,13.226402 c -0.0048,8.36e-4 -0.0057,0.0078 -0.0057,0.0078 H 18.7742 17.563733 l -0.01136,0.02982 c -0.0408,0.0063 -0.295539,0.349306 -1.881372,4.910735 -0.03274,0.09417 -0.05753,0.160194 -0.08945,0.251322 -2.087363,5.458973 -2.134752,5.554862 -1.138052,5.534072 0.104095,0.01465 0.218294,0.0249 0.354976,0.03053 1.515346,0.06245 1.117361,-0.178201 1.294952,-1.052149 0.0092,-0.0252 0.01849,-0.04531 0.02769,-0.07171 0.214568,-0.61551 0.333034,-0.883472 0.839872,-1.000321 0.359138,-0.0534 0.892755,-0.0568 1.730862,-0.0568 2.287353,0 2.363023,0.03031 2.732603,1.090485 0.01789,0.05132 0.03613,0.093 0.05396,0.139861 0.108089,0.705211 -0.103755,0.935786 0.979732,0.922226 0.12584,0.01768 0.262669,0.0284 0.425971,0.0284 1.126596,0 1.204613,0.04513 -0.516135,-4.463464 -0.15528,-0.430422 -0.312848,-0.866448 -0.493416,-1.385826 -1.617642,-4.652931 -1.851655,-4.920853 -1.884918,-4.914991 z m -1.187039,2.666578 c 0.07745,0.0662 0.169496,0.208449 0.272622,0.413192 0.276597,0.732089 0.713661,1.987952 0.983282,2.814957 0.136676,0.784609 -0.244842,0.837743 -1.338258,0.837743 -0.327179,0 -0.61539,-0.01258 -0.859042,-0.02982 -0.387003,-0.09638 -0.479916,-0.342449 -0.338647,-0.947075 0.21693,-0.660494 0.521749,-1.548432 0.778817,-2.259065 0.204465,-0.486234 0.376893,-0.781115 0.501226,-0.829934 z"/></svg>