<svg xmlns="http://www.w3.org/2000/svg" width="24" height="24" viewBox="0 0 24 24"><path fill="black" d="M 11.111347,0.18979943 3.409341,3.6116905 C 2.6171347,3.9637822 2.1,4.7559885 2.1,5.6252149 V 10.796562 C 2.1,16.903152 6.3251003,22.613639 12.002579,24 17.680057,22.613639 21.905158,16.903152 21.905158,10.796562 V 5.6252149 c 0,-0.8692264 -0.517135,-1.6614327 -1.309341,-2.0135244 L 12.893811,0.18979943 c -0.561146,-0.25306593 -1.221318,-0.25306593 -1.782464,0 z M 9.0208023,16.617077 6.1710602,13.767335 c -0.4291118,-0.429112 -0.4291118,-1.122292 0,-1.551404 0.4291117,-0.429112 1.1222922,-0.429112 1.551404,0 L 9.802006,14.28447 16.271691,7.8147851 c 0.429111,-0.4291117 1.122292,-0.4291117 1.551404,0 0.429111,0.4291117 0.429111,1.1222923 0,1.551404 l -7.250889,7.2508879 c -0.418109,0.429112 -1.122292,0.429112 -1.5514037,0 z"/></svg>