<svg xmlns="http://www.w3.org/2000/svg" width="24" height="24" viewBox="0 0 24 24"><path fill="black" d="M 12.000979,-8.8676194e-5 C 5.3736798,-8.8676194e-5 -5.1193583e-8,5.373591 -5.1193583e-8,12.000891 -5.1193583e-8,18.62813 5.3736798,23.999737 12.000979,23.999721 c 0.662738,0 1.198809,-0.538217 1.198809,-1.200957 0,-0.66274 -0.536071,-1.198809 -1.198809,-1.198809 -5.3018386,0 -9.601213,-4.297201 -9.601213,-9.599064 0,-5.3018395 4.2993744,-9.6012136 9.601213,-9.6012136 5.301878,0 9.599064,4.2993741 9.599064,9.6012136 0,0.662738 0.53607,1.198809 1.198809,1.198809 0.66274,0 1.200957,-0.536071 1.200957,-1.198809 0,-6.6273 -5.371591,-12.000979676194 -11.99883,-12.000979676194 z m 0,3.600723376194 c -0.66274,0 -1.200958,0.536106 -1.200958,1.1988089 v 7.2014474 c 0,0.318261 0.127209,0.621488 0.352338,0.84647 l 3.598575,3.600724 c 0.468593,0.468593 1.228647,0.468593 1.697239,0 0.468593,-0.468592 0.468593,-1.228647 0,-1.697239 L 13.199788,11.502461 V 4.7994436 c 0,-0.6627395 -0.53607,-1.1988089 -1.198809,-1.1988089 z M 22.981466,16.076411 c -0.285266,0.0082 -0.565176,0.139526 -0.754089,0.382415 l -3.944469,5.07238 -1.51892,-1.463063 c -0.393676,-0.379719 -1.021157,-0.367983 -1.400758,0.02578 -0.37972,0.393674 -0.367984,1.021156 0.02578,1.400758 l 2.311682,2.227894 c 0.20224,0.195187 0.476014,0.294994 0.756238,0.274996 0.280282,-0.02 0.540777,-0.158449 0.713269,-0.380267 l 4.621215,-5.942483 c 0.335846,-0.431714 0.257782,-1.054173 -0.17402,-1.390017 -0.188875,-0.14693 -0.414055,-0.214803 -0.635928,-0.208393 z"/></svg>