<svg xmlns="http://www.w3.org/2000/svg" width="24" height="24" viewBox="0 0 24 24"><path fill="black" d="M 11.736328 0.00390625 C 11.321474 0.030131472 10.903772 0.20030709 10.244141 0.51953125 C 8.8896417 1.0771733 8.1174855 1.8439119 7.6914062 3.2363281 C 7.6906944 3.2383142 7.6901634 3.2401992 7.6894531 3.2421875 C 7.3367489 4.2295162 7.1855469 5.4925687 7.1855469 7.1445312 C 7.1855469 7.6581106 7.2016221 8.1327878 7.234375 8.578125 C 7.2816655 9.7324968 7.4366268 10.584132 7.7148438 11.25 C 8.4836096 13.089916 10.105193 14.159675 11.847656 14.189453 C 11.949235 14.191189 12.050088 14.194886 12.152344 14.189453 C 13.894807 14.159675 15.516391 13.089916 16.285156 11.25 C 16.563374 10.584132 16.718334 9.7324968 16.765625 8.578125 C 16.798378 8.1327878 16.814453 7.6581106 16.814453 7.1445312 C 16.814453 5.4925687 16.663252 4.2295162 16.310547 3.2421875 C 16.309953 3.2402385 16.309189 3.2382747 16.308594 3.2363281 C 15.882514 1.8439119 15.110358 1.0771733 13.755859 0.51953125 C 12.959387 0.13408436 12.515567 -0.027158095 12 0.009765625 C 11.911421 0.0034218463 11.822389 -0.0015341464 11.736328 0.00390625 z M 3.5722656 8.5488281 C 2.4674668 8.5488281 2.2531735 9.7545143 2.9394531 12.115234 C 3.8064785 15.097696 6.336008 17.756126 8.9785156 18.462891 C 10.668703 18.914946 10.796875 19.043171 10.796875 20.271484 C 10.796875 21.504974 10.706725 21.591797 9.4414062 21.591797 C 7.7773236 21.591797 6.8422839 22.502388 7.5859375 23.398438 C 7.9675487 23.858251 9.0096421 24 12 24 C 12.373795 24 12.717763 23.996972 13.033203 23.992188 C 15.241282 23.958689 16.080152 23.800774 16.414062 23.398438 C 17.157717 22.502388 16.222676 21.591797 14.558594 21.591797 C 13.293275 21.591797 13.203125 21.504974 13.203125 20.271484 C 13.203125 19.196709 13.302177 18.963148 14.458984 18.619141 C 14.624243 18.569997 14.810212 18.519398 15.021484 18.462891 C 17.663993 17.756126 20.193522 15.097696 21.060547 12.115234 C 21.746826 9.7545143 21.532533 8.5488281 20.427734 8.5488281 C 19.759278 8.5488281 19.325412 9.3895367 19.025391 11.265625 C 18.899126 12.055183 18.449092 12.958838 17.830078 13.789062 C 17.034205 14.856494 15.959145 15.804239 14.929688 16.234375 C 14.203773 16.537681 13.307941 16.70818 12.392578 16.746094 C 11.607981 16.778591 10.808673 16.713267 10.085938 16.550781 C 9.965481 16.5237 9.8461991 16.493434 9.7304688 16.460938 C 9.4990077 16.395943 9.2777163 16.321034 9.0703125 16.234375 C 7.2401651 15.469691 5.2632148 13.070328 4.9746094 11.265625 C 4.674587 9.3895367 4.2407224 8.5488281 3.5722656 8.5488281 z"/></svg>