<svg xmlns="http://www.w3.org/2000/svg" width="24" height="24" viewBox="0 0 24 24"><path fill="black" d="M 12.994141,2 C 7.4665894,2 3,6.4779848 3,12 H 1 L 4.0996094,15.408203 7.2226562,12 h -2 c 0,-4.2942525 3.4830736,-7.7773438 7.7773438,-7.7773438 4.294251,0 7.777344,3.4830913 7.777344,7.7773438 0,4.294253 -3.483093,7.779297 -7.777344,7.779297 -2.149914,0 -4.0886771,-0.879641 -5.4941406,-2.285156 L 5.9335938,19.066406 C 7.7390932,20.877425 10.233155,22 12.994141,22 18.521728,22 23,17.522015 23,12 23,6.4779858 18.521728,2 12.994141,2 Z m -1.496094,4.4375 v 6.632812 l 5.675781,3.367188 0.953125,-1.611328 -4.640625,-2.751953 V 6.4375 Z"/></svg>