<svg xmlns="http://www.w3.org/2000/svg" width="24" height="24" viewBox="0 0 1.125 1.125"><path fill="black" d="m 0.42184421,0 c -0.025875,0 -0.046876,0.02100145 -0.046876,0.04687645 0,0.025875 0.021001,0.04687214 0.046876,0.04687214 v 0.23859643 c 0,0.0285938 -0.00858,0.0561543 -0.024702,0.0797324 l -0.2685472,0.39037514 c -0.025172,0.0376875 -0.037078,0.0817505 -0.0345,0.12735989 C 0.10070481,1.046578 0.20368761,1.125 0.35026571,1.125 h 0.4662194 c 0.114,0 0.20817039,-0.085735 0.21435789,-0.1952348 0.00258,-0.0456094 -0.00933,-0.0896721 -0.034873,-0.12792206 L 0.72784351,0.41203022 C 0.71167161,0.38849897 0.70309421,0.36093877 0.70309421,0.33234502 V 0.09374859 c 0.025875,0 0.046876,-0.02099714 0.046876,-0.04687214 C 0.74997061,0.02100145 0.72896921,0 0.70309421,0 Z m 0.093749,0.09374859 h 0.093753 v 0.23859643 c 0,0.0476719 0.014298,0.0936101 0.041298,0.13284445 l 0.2677488,0.38929369 c 0.013828,0.0206719 0.020344,0.0448616 0.018891,0.0700335 -0.003329,0.058875 -0.0575173,0.10673474 -0.1207517,0.10673474 h -0.4662666 c -0.095109,0 -0.1589074,-0.0419069 -0.1626106,-0.10678195 -0.00141,-0.0251719 0.00511,-0.0493619 0.018518,-0.0694713 l 0.2681222,-0.38980868 c 0.027,-0.0392344 0.041298,-0.0851726 0.041298,-0.13284445 z m 0.046893,0.53919263 c -0.020033,2.353e-5 -0.040096,0.004327 -0.057674,0.0129047 l -0.029251,0.014574 c -0.00647,0.003141 -0.014668,0.00511 -0.023153,0.005532 -0.010312,5.1562e-4 -0.019829,0.005534 -0.02611,0.01369 l -0.1325177,0.17278127 c -7.031e-4,7.5e-4 -0.00136,0.001546 -0.00197,0.002343 -0.00694,0.009 -0.010596,0.01964 -0.010596,0.0308431 0,0.0285937 0.024282,0.051889 0.054095,0.051889 h 0.4543104 c 0.029813,0 0.054095,-0.0232952 0.054095,-0.051889 0,-0.0112031 -0.00366,-0.0218904 -0.010501,-0.0308904 -6.094e-4,-7.9687e-4 -0.00126,-0.001593 -0.00197,-0.002343 L 0.69873401,0.67964161 c -0.00628,-0.008156 -0.015844,-0.0131744 -0.02611,-0.01369 -0.00848,-4.6875e-4 -0.016686,-0.002437 -0.022827,-0.00539 L 0.61998431,0.6457043 C 0.60252341,0.637173 0.58251951,0.63291783 0.56248621,0.63294122 Z"/></svg>