<svg xmlns="http://www.w3.org/2000/svg" width="24" height="24" viewBox="0 0 24 24"><path fill="black" d="M 9.6,2.400003 A 4.7999994,4.7999994 0 0 0 4.8,7.2000028 4.7999994,4.7999994 0 0 0 9.6,12.000002 4.7999994,4.7999994 0 0 0 14.4,7.2000028 4.7999994,4.7999994 0 0 0 9.6,2.400003 Z m 5.61211,0.06914 A 15.599998,10.799999 0 0 1 16.8,7.2000018 15.599998,10.799999 0 0 1 15.20508,11.926759 4.7999994,4.7999994 0 0 0 19.2,7.2000018 4.7999994,4.7999994 0 0 0 15.21211,2.469143 Z M 9.6,13.050001 A 9.5999988,8.399999 0 0 0 0,21.45 9.5999988,8.399999 0 0 0 0.006,21.6 h 19.18535 a 9.5999988,8.399999 0 0 0 0.009,-0.15 9.5999988,8.399999 0 0 0 -9.6,-8.399999 z m 8.74805,0.754687 A 11.399999,9.8999988 0 0 1 21.6,20.7 11.399999,9.8999988 0 0 1 21.5432,21.6 h 2.44805 a 9.5999988,8.399999 0 0 0 0.009,-0.15 9.5999988,8.399999 0 0 0 -5.65195,-7.645312 z"/></svg>