<svg xmlns="http://www.w3.org/2000/svg" width="24" height="24" viewBox="0 0 24 24"><path fill="black" d="m 13.319649,21.978286 c -0.696229,-0.04862 -1.418604,-0.174348 -2.070247,-0.360319 -0.317111,-0.0905 -0.6232,-0.189619 -0.674809,-0.218525 -0.0191,-0.0107 -0.04475,-0.01945 -0.05698,-0.01945 -0.01224,0 -0.05287,-0.0135 -0.09028,-0.03 -0.03742,-0.0165 -0.09864,-0.0435 -0.136062,-0.06001 -0.03742,-0.0165 -0.07707,-0.03 -0.08812,-0.03 -0.01105,0 -0.0547,-0.01713 -0.09699,-0.03808 -0.0423,-0.02094 -0.1264113,-0.06049 -0.186918,-0.08788 C 9.5754485,20.978404 9.4862509,20.936915 9.4591877,20.920039 9.4426857,20.909748 9.3481744,20.859925 9.2491626,20.809321 9.1501508,20.758719 9.042138,20.70003 9.009134,20.678906 8.97613,20.657776 8.931125,20.630976 8.9091231,20.619336 c -0.056867,-0.03008 -0.1117843,-0.06337 -0.1805225,-0.109451 -0.0926,-0.06207 -0.1369199,-0.08912 -0.1695202,-0.103463 -0.016502,-0.0073 -0.062802,-0.0387 -0.1028898,-0.06988 -0.040088,-0.03118 -0.078873,-0.05668 -0.086191,-0.05668 -0.00732,0 -0.08425,-0.05401 -0.1709619,-0.120015 -0.08671,-0.06601 -0.1671889,-0.120014 -0.1788393,-0.120014 -0.011652,0 -0.021184,-0.0081 -0.021184,-0.01802 0,-0.0099 -0.072009,-0.06986 -0.1600196,-0.133229 -0.08801,-0.06337 -0.1600181,-0.122771 -0.1600181,-0.132003 0,-0.0092 -0.00931,-0.01679 -0.020677,-0.01679 -0.011373,0 -0.047073,-0.027 -0.079336,-0.06001 -0.032263,-0.033 -0.063153,-0.06001 -0.068645,-0.06001 -0.00549,0 -0.036172,-0.02475 -0.068179,-0.05501 -0.032006,-0.03024 -0.1186891,-0.109002 -0.19263,-0.175009 C 7.0770732,19.235815 6.7627857,18.921528 6.6088479,18.74909 6.54284,18.67515 6.4640806,18.588466 6.433828,18.556459 c -0.030254,-0.03201 -0.055007,-0.06269 -0.055007,-0.06818 0,-0.0055 -0.027003,-0.03638 -0.060007,-0.06864 -0.033004,-0.03226 -0.060007,-0.06796 -0.060007,-0.07934 0,-0.01137 -0.00755,-0.02068 -0.016787,-0.02068 -0.00923,0 -0.068635,-0.07201 -0.1320022,-0.16002 -0.063368,-0.08801 -0.1233222,-0.160018 -0.1332309,-0.160018 -0.00991,0 -0.018016,-0.0095 -0.018016,-0.02118 0,-0.01165 -0.054006,-0.09213 -0.1200144,-0.178841 -0.066008,-0.08671 -0.1200143,-0.163644 -0.1200143,-0.17096 0,-0.0073 -0.024753,-0.04614 -0.055007,-0.08627 -0.063447,-0.08416 -0.099763,-0.14024 -0.1183956,-0.182821 -0.00722,-0.0165 -0.031916,-0.05682 -0.05488,-0.08959 -0.045329,-0.0647 -0.078165,-0.117985 -0.1111962,-0.180437 -0.011637,-0.022 -0.038444,-0.06701 -0.059569,-0.100013 -0.021126,-0.033 -0.079813,-0.141016 -0.1304166,-0.240028 -0.050603,-0.09901 -0.100425,-0.193523 -0.1107162,-0.210025 -0.016877,-0.02706 -0.058364,-0.11626 -0.2139855,-0.460054 -0.02739,-0.06051 -0.066934,-0.144619 -0.087874,-0.186913 -0.020943,-0.04229 -0.038076,-0.08594 -0.038076,-0.09699 0,-0.01105 -0.01457,-0.05296 -0.032377,-0.09312 -0.077951,-0.175832 -0.087637,-0.200298 -0.087637,-0.221343 0,-0.01224 -0.00875,-0.03788 -0.019453,-0.05698 -0.054935,-0.09809 -0.2660493,-0.812514 -0.3501283,-1.18487 -0.060043,-0.265901 -0.1610352,-0.848171 -0.1812726,-1.045124 l -0.013874,-0.135016 -0.5227329,-0.0012 c -0.5904853,-0.0013 -0.7009389,-0.01828 -0.8993586,-0.13854 -0.6326269,-0.383411 -0.6253555,-1.285231 0.013449,-1.668087 0.188508,-0.11298 0.3190821,-0.132416 0.8895971,-0.132416 h 0.4985199 l 0.024201,-0.225027 c 0.047044,-0.437443 0.1960389,-1.2218335 0.2897085,-1.5251805 0.016985,-0.05501 0.030979,-0.111263 0.031097,-0.125016 1.801e-4,-0.0198 -0.3521984,-0.02506 -1.6949845,-0.0253 -1.445919,-2.55e-4 -1.71416597,-0.0048 -1.82416058,-0.03069 C 0.44772426,9.0905605 0.12603791,8.7688725 0.02904685,8.3573765 -0.10999123,7.767487 0.26372132,7.1696192 0.85922032,7.0292595 0.97037607,7.0030604 1.2866573,6.9988239 3.1503355,6.9985689 c 2.0341991,-2.701e-4 2.1639375,-0.00237 2.1922219,-0.035301 0.016535,-0.019252 0.036285,-0.048505 0.043889,-0.065007 0.017663,-0.03833 0.051714,-0.095107 0.1022687,-0.1705208 0.062074,-0.092602 0.089123,-0.1369203 0.1034614,-0.1695207 0.00726,-0.016502 0.038706,-0.062802 0.069881,-0.1028898 0.031177,-0.040088 0.056684,-0.078873 0.056684,-0.086191 0,-0.00732 0.054006,-0.08425 0.1200143,-0.1709619 0.066008,-0.086712 0.1200144,-0.167189 0.1200144,-0.1788408 0,-0.01165 0.00811,-0.021183 0.018016,-0.021183 0.00991,0 0.069863,-0.072008 0.1332309,-0.1600195 0.063368,-0.088009 0.1227689,-0.1600179 0.1320025,-0.1600179 0.00923,0 0.016787,-0.00931 0.016787,-0.020677 0,-0.011373 0.027003,-0.047073 0.060007,-0.079335 0.033004,-0.032263 0.060007,-0.063153 0.060007,-0.068645 0,-0.00549 0.024753,-0.036172 0.055007,-0.068179 C 6.4640806,5.4092729 6.54284,5.3226961 6.6088479,5.2488858 6.6748557,5.175074 6.740424,5.1022718 6.7545542,5.087102 6.7763728,5.0636797 6.5215224,5.0586331 5.0643537,5.0536375 l -1.715894,-0.00588 -0.1400162,-0.04686 C 2.9350989,4.9094148 2.7627343,4.8039568 2.5675656,4.608788 2.3677567,4.4089792 2.2601129,4.2303274 2.1753918,3.9579099 2.1366047,3.833194 2.1287362,3.7640358 2.1287362,3.5478615 c 0,-0.2161743 0.00787,-0.285334 0.046656,-0.4100499 C 2.2601602,2.8652471 2.3677436,2.6867379 2.567566,2.4870986 2.7559044,2.2989326 2.9141553,2.1986037 3.1533633,2.1157083 3.436378,2.0176323 3.2928319,2.0199943 9.169154,2.0167823 c 5.470787,-0.00299 5.626186,-0.00141 6.120729,0.062002 0.235427,0.03019 0.696942,0.1126754 0.954634,0.1706198 0.366114,0.082322 1.082444,0.2940591 1.18035,0.3488936 0.0191,0.010699 0.04475,0.019453 0.05698,0.019453 0.01224,0 0.05287,0.013502 0.09028,0.030004 0.03742,0.016502 0.09864,0.043505 0.136061,0.060007 0.03742,0.016502 0.07707,0.030004 0.08812,0.030004 0.01105,0 0.0547,0.017134 0.09699,0.038076 0.04229,0.020941 0.126405,0.060484 0.186912,0.087874 0.343795,0.155621 0.432992,0.1971085 0.460055,0.2139855 0.0165,0.010291 0.111013,0.060114 0.210025,0.1107162 0.09901,0.050604 0.207025,0.109291 0.240029,0.1304165 0.033,0.021126 0.07801,0.047932 0.100012,0.059569 0.05687,0.030076 0.111783,0.063372 0.180522,0.1094516 0.0926,0.062073 0.136919,0.089123 0.169519,0.1034613 0.0165,0.00726 0.0628,0.038706 0.10289,0.069881 0.04009,0.031177 0.07888,0.056684 0.08619,0.056684 0.0073,0 0.08425,0.054006 0.170962,0.1200143 0.08671,0.066008 0.167191,0.1200143 0.178841,0.1200143 0.01165,0 0.02118,0.00811 0.02118,0.018016 0,0.00991 0.07201,0.069863 0.16002,0.1332309 0.08801,0.063368 0.16002,0.1227687 0.16002,0.1320023 0,0.00923 0.0093,0.016787 0.02068,0.016787 0.01137,0 0.04707,0.027003 0.07934,0.060007 0.03226,0.033004 0.06315,0.060007 0.06865,0.060007 0.0055,0 0.03617,0.024753 0.06818,0.055007 0.03201,0.030253 0.118691,0.109012 0.192632,0.1750199 0.172438,0.1539379 0.486725,0.4682253 0.640662,0.6406619 0.06601,0.073941 0.144767,0.1606241 0.175021,0.1926304 0.03025,0.032006 0.05501,0.062687 0.05501,0.068179 0,0.00549 0.027,0.036382 0.06001,0.068645 0.033,0.032263 0.06001,0.067963 0.06001,0.079335 0,0.011371 0.0076,0.020677 0.01679,0.020677 0.0092,0 0.06863,0.072009 0.132003,0.1600181 0.06337,0.088011 0.12332,0.1600195 0.133229,0.1600195 0.0099,0 0.01802,0.00953 0.01802,0.021183 0,0.011652 0.05401,0.092129 0.120014,0.1788408 0.06601,0.086712 0.120014,0.163644 0.120014,0.1709619 0,0.00732 0.02475,0.04614 0.05501,0.086269 0.06345,0.084165 0.09976,0.1402413 0.118396,0.1828228 0.0072,0.016502 0.03192,0.056819 0.05488,0.089595 0.04533,0.064703 0.07817,0.117983 0.111196,0.180437 0.01164,0.022002 0.03844,0.067007 0.05957,0.1000109 0.02113,0.033004 0.07981,0.1410168 0.130416,0.2400286 0.0506,0.099012 0.100425,0.1935231 0.110717,0.2100251 0.01688,0.027063 0.05837,0.1162608 0.213985,0.4600553 0.02739,0.060507 0.06693,0.1446167 0.08788,0.1869117 0.02094,0.04229 0.03808,0.08594 0.03808,0.09699 0,0.01105 0.0135,0.0507 0.03,0.08812 0.0165,0.03742 0.0435,0.09864 0.06001,0.136062 0.0165,0.03742 0.03,0.07804 0.03,0.09028 0,0.01224 0.0088,0.03788 0.01945,0.05698 0.02901,0.0518 0.128264,0.358468 0.218399,0.674809 0.508401,1.7843185 0.508401,3.7163355 0,5.5006545 -0.09014,0.316341 -0.189386,0.623008 -0.218399,0.674809 -0.0107,0.0191 -0.01945,0.04475 -0.01945,0.05698 0,0.01224 -0.01457,0.05512 -0.03238,0.09528 -0.0775,0.174816 -0.08764,0.200171 -0.08764,0.219183 0,0.01105 -0.01713,0.05469 -0.03808,0.09699 -0.02094,0.04229 -0.06048,0.126405 -0.08788,0.186913 -0.155619,0.343794 -0.197108,0.432992 -0.213985,0.460054 -0.01029,0.0165 -0.06011,0.111013 -0.110717,0.210025 -0.0506,0.09901 -0.109291,0.207025 -0.130416,0.240028 -0.02113,0.033 -0.04793,0.07801 -0.05957,0.100013 -0.03008,0.05687 -0.06337,0.111783 -0.10945,0.180522 -0.06208,0.0926 -0.08912,0.13692 -0.103463,0.169519 -0.0073,0.0165 -0.03871,0.0628 -0.06988,0.102891 -0.03118,0.04009 -0.05669,0.07887 -0.05669,0.08619 0,0.0073 -0.05401,0.08425 -0.120014,0.17096 -0.06601,0.08671 -0.120014,0.16719 -0.120014,0.178841 0,0.01165 -0.0081,0.02118 -0.01802,0.02118 -0.0099,0 -0.06986,0.07201 -0.133229,0.160018 -0.06337,0.08801 -0.122769,0.16002 -0.132003,0.16002 -0.0092,0 -0.01679,0.0093 -0.01679,0.02068 0,0.01137 -0.027,0.04707 -0.06001,0.07934 -0.033,0.03226 -0.06001,0.06315 -0.06001,0.06864 0,0.0055 -0.02475,0.03617 -0.05501,0.06818 -0.03025,0.03201 -0.109013,0.118691 -0.175021,0.192631 -0.153937,0.172438 -0.468224,0.486725 -0.640662,0.640662 -0.07394,0.06601 -0.160624,0.144767 -0.192632,0.175021 -0.03201,0.03025 -0.06269,0.05501 -0.06818,0.05501 -0.0055,0 -0.03638,0.027 -0.06865,0.06001 -0.03226,0.033 -0.06796,0.06001 -0.07934,0.06001 -0.01137,0 -0.02068,0.0076 -0.02068,0.01679 0,0.0092 -0.07201,0.06863 -0.16002,0.132003 -0.08801,0.06337 -0.16002,0.12332 -0.16002,0.133229 0,0.0099 -0.0095,0.01802 -0.02118,0.01802 -0.01165,0 -0.09213,0.05401 -0.178841,0.120014 -0.08671,0.06601 -0.163644,0.120015 -0.170962,0.120015 -0.0073,0 -0.04614,0.02475 -0.08627,0.05501 -0.08416,0.06345 -0.14024,0.09976 -0.182821,0.118397 -0.0165,0.0072 -0.05682,0.03192 -0.0896,0.05488 -0.0647,0.04533 -0.117983,0.07817 -0.180435,0.111198 -0.022,0.01164 -0.06701,0.03844 -0.100012,0.05957 -0.033,0.02112 -0.141017,0.07981 -0.240029,0.130415 -0.09901,0.0506 -0.193523,0.100427 -0.210025,0.110718 -0.02706,0.01688 -0.11626,0.05836 -0.460055,0.213986 -0.06051,0.02739 -0.144618,0.06693 -0.186912,0.08787 -0.04229,0.02094 -0.08594,0.03808 -0.09699,0.03808 -0.01105,0 -0.0507,0.0135 -0.08812,0.03 -0.03742,0.0165 -0.09864,0.0435 -0.136061,0.06001 -0.03742,0.0165 -0.07804,0.03 -0.09028,0.03 -0.01224,0 -0.03788,0.0088 -0.05698,0.01945 -0.09791,0.05484 -0.814236,0.266571 -1.18035,0.348894 -0.945527,0.212608 -1.993464,0.294996 -2.924868,0.22995 z m 1.740207,-3.135351 c 0.594129,-0.0897 1.077712,-0.219148 1.660198,-0.444412 0.345718,-0.133698 1.078753,-0.534375 1.350161,-0.737996 0.05501,-0.04127 0.17202,-0.127118 0.260031,-0.190778 0.08801,-0.06366 0.178022,-0.135755 0.200023,-0.160213 0.022,-0.02446 0.130016,-0.122321 0.240029,-0.217475 0.242661,-0.209885 0.212199,-0.179457 0.423118,-0.422633 0.09542,-0.110013 0.195174,-0.221245 0.221678,-0.247183 0.0265,-0.02594 0.09838,-0.115949 0.159729,-0.200024 0.06135,-0.08408 0.145552,-0.19787 0.187119,-0.252877 0.175979,-0.232877 0.632526,-1.064065 0.725121,-1.320156 0.01591,-0.04401 0.05723,-0.155302 0.09182,-0.247326 0.445785,-1.185946 0.543578,-2.574898 0.271297,-3.853164 C 20.76999,10.172254 20.707177,9.9678685 20.487467,9.3685585 20.391697,9.1073375 19.937183,8.2803025 19.761942,8.0484015 19.720375,7.9933945 19.634303,7.8770751 19.570673,7.7899132 19.507043,7.7027528 19.435378,7.6127421 19.41142,7.5898899 19.387461,7.5670376 19.315511,7.4853334 19.251531,7.4083247 19.083742,7.2063661 18.915071,7.037932 18.715307,6.8728584 18.619057,6.7933204 18.540296,6.7220709 18.540287,6.714528 18.540278,6.706988 18.443507,6.630764 18.325246,6.5451468 18.206981,6.4595316 18.105719,6.3840996 18.100219,6.3775214 18.080817,6.3543181 17.90729,6.2429088 17.651946,6.0897151 16.754257,5.5511508 15.781682,5.2355417 14.714971,5.1366424 c -0.371843,-0.034476 -1.228325,-0.013548 -1.576421,0.038517 -0.755077,0.112941 -1.430065,0.3209378 -2.089173,0.6437793 -0.248956,0.121942 -0.743647,0.4039441 -0.770091,0.4389958 -0.0055,0.00729 -0.06851,0.052292 -0.140016,0.1000019 C 9.7170234,6.6396541 9.185255,7.1293169 8.8113159,7.5807358 8.4341665,8.0360325 8.1719007,8.4348955 7.9211083,8.9345995 7.3524685,10.067613 7.1095776,11.418007 7.2404292,12.718957 c 0.020659,0.205399 0.087849,0.634728 0.1220845,0.780093 0.113499,0.481922 0.2738967,0.958318 0.4669202,1.386791 0.1172284,0.260221 0.4341382,0.832064 0.5278844,0.95253 0.030373,0.03903 0.094304,0.129473 0.1420684,0.200982 0.1454319,0.21773 0.540903,0.676958 0.7923675,0.920109 1.0172668,0.98364 2.2722748,1.617584 3.6655088,1.851567 0.453211,0.07611 0.608672,0.08601 1.24249,0.07911 0.466908,-0.0051 0.646433,-0.01494 0.860103,-0.0472 z m -1.51018,-1.725314 c -0.440154,-0.0455 -0.848839,-0.141747 -1.307385,-0.307907 -0.159202,-0.05769 -0.490227,-0.215732 -0.682853,-0.326019 C 11.3697,16.375061 10.967496,16.100934 10.852347,16.001767 10.599549,15.784057 10.394566,15.579072 10.176855,15.326274 10.077687,15.211126 9.8035612,14.808922 9.6949273,14.619184 9.058952,13.508396 8.8746115,12.1591 9.189373,10.918743 9.3473718,10.296132 9.5872189,9.7765405 9.9640759,9.2404735 10.1341,8.9986195 10.1602,8.9660395 10.349295,8.7596105 c 0.156344,-0.170677 0.299546,-0.308342 0.503052,-0.483602 0.115149,-0.09917 0.517353,-0.3732939 0.707091,-0.4819278 1.110788,-0.6359738 2.460083,-0.8203158 3.700441,-0.5055528 0.622612,0.1579974 1.142203,0.397846 1.678271,0.7747026 0.241853,0.170025 0.274434,0.196125 0.480862,0.385218 0.170677,0.156345 0.308342,0.299548 0.483602,0.503053 0.09917,0.115149 0.373294,0.517353 0.481928,0.707091 0.696504,1.2165085 0.8477,2.7157125 0.407481,4.0404815 -0.167556,0.504237 -0.365373,0.895476 -0.676631,1.33823 -0.170025,0.241853 -0.196123,0.274433 -0.385218,0.480861 -0.14765,0.161187 -0.149976,0.163512 -0.311162,0.311163 -0.206428,0.189094 -0.239009,0.215193 -0.480862,0.385217 -0.536068,0.376857 -1.055659,0.616706 -1.678271,0.774704 -0.524852,0.133189 -1.184545,0.182709 -1.710203,0.128372 z M 16.43752,13.68095 c 0.477183,-0.79656 0.867604,-1.468576 0.867604,-1.493365 0,-0.03522 -1.485599,-2.5856475 -1.697398,-2.9140385 l -0.04838,-0.07501 h -1.469641 -1.469639 l -0.04698,0.07501 c -0.219056,0.349752 -1.658727,2.8801925 -1.658727,2.9154665 0,0.03595 1.459064,2.566943 1.657578,2.875352 l 0.04836,0.07514 1.474806,-0.0051 1.474808,-0.0051 z"/></svg>