<svg xmlns="http://www.w3.org/2000/svg" width="24" height="24" viewBox="0 0 24 24"><path fill="black" d="M 2,3 C 0.89200007,3 0,4.0035001 0,5.25 v 13.5 C 0,19.9965 0.89200007,21 2,21 h 20 c 1.108,0 2,-1.0035 2,-2.25 V 5.25 C 24,4.0035001 23.108,3 22,3 Z M 3.6660156,5.25 H 20.333984 C 21.257318,5.25 22,6.002625 22,6.9375 v 10.125 C 22,17.997375 21.257318,18.75 20.333984,18.75 H 3.6660156 C 2.7426823,18.75 2,17.997375 2,17.0625 V 6.9375 C 2,6.002625 2.7426823,5.25 3.6660156,5.25 Z M 13.666016,6.2995605 C 13.296682,6.2995605 13,6.6001711 13,6.9741211 v 4.0495599 c 0,0.37395 0.296682,0.676758 0.666016,0.676758 h 6.667968 C 20.703318,11.700439 21,11.397631 21,11.023681 V 6.9741211 c 0,-0.37395 -0.296682,-0.6745606 -0.666016,-0.6745606 z"/></svg>